<svg width="105" height="159" viewBox="0 0 105 159" fill="none" xmlns="http://www.w3.org/2000/svg">
<g clip-path="url(#clip0_629_296)">
<path d="M61.9756 72.4388V51.8401H41.2952V72.4388H61.9756Z" fill="#838383"/>
<path d="M0.12207 45.3765H20.6646V72.4388H41.345V45.3765H41.3763V24.7778H0.12207V45.3765Z" fill="white"/>
<path d="M82.7156 0.312012H62.0352V51.9211H82.7156V0.312012Z" fill="white"/>
<path d="M41.8088 118.286V98.3462L41.4641 98.2838C40.3236 101.143 39.183 103.999 38.0425 106.854C36.6418 110.356 35.2538 113.861 33.8155 117.347C33.6463 117.753 33.1888 118.04 32.8755 118.383C32.5904 118.052 32.1924 117.759 32.0358 117.381C29.8424 111.969 27.7054 106.545 25.5402 101.124C25.2742 100.385 24.8924 99.6932 24.4091 99.0734C24.4091 104.236 24.4091 109.397 24.4091 114.557C24.4353 115.543 24.4112 116.529 24.337 117.512C24.3088 117.824 23.8827 118.065 23.6414 118.343C23.4136 118.106 23.2281 117.833 23.0931 117.534C23.0251 117.122 23.0082 116.702 23.0429 116.286C23.0429 109.95 23.0273 103.615 23.0805 97.282C23.0805 96.7327 23.5192 96.1865 23.7542 95.6372C24.2712 96.0398 25.0546 96.3332 25.2645 96.8544C27.7712 103.096 30.1965 109.338 32.6499 115.602C32.6812 115.68 32.8003 115.721 32.9632 115.843C33.1757 115.573 33.3615 115.283 33.5179 114.978C35.893 108.976 38.2367 102.959 40.6557 96.9761C40.8813 96.4206 41.5613 96.0398 42.0313 95.5935C42.3008 96.1709 42.8021 96.742 42.8084 97.3194C42.8616 103.705 42.846 110.094 42.8084 116.479C42.7598 117.121 42.6603 117.757 42.5107 118.383L41.8088 118.286Z" fill="white"/>
<path d="M67.7981 146.894C72.4982 148.738 73.8111 154.053 70.1325 157.112C68.8791 158.142 66.9427 158.541 65.2538 158.772C63.2108 159.05 61.0989 158.819 59.0152 158.866C58.0345 158.885 57.6365 158.554 57.6397 157.524C57.6773 150.832 57.6647 144.138 57.6397 137.446C57.6397 136.632 57.7086 136.001 58.7771 136.054C61.3653 136.185 63.9629 136.21 66.5448 136.404C68.6598 136.56 70.1544 137.721 70.7184 139.775C71.4799 142.53 70.7404 144.768 68.7945 146.17L67.7981 146.894ZM59.0936 157.34C61.7851 157.34 64.3295 157.468 66.855 157.302C67.7721 157.246 68.642 156.878 69.3199 156.26C69.9978 155.642 70.4427 154.811 70.5806 153.907C70.9942 151.126 70.2986 149.122 68.4624 148.414C65.4449 147.249 62.2896 147.387 59.0936 147.593V157.34ZM59.0936 146.728C61.7789 146.475 64.3013 146.379 66.7672 145.951C68.4781 145.658 69.7314 143.613 69.7314 141.81C69.7314 140.14 68.6347 138.027 67.2655 137.849C64.5833 137.499 61.8603 137.456 59.0904 137.284L59.0936 146.728Z" fill="white"/>
<path d="M1.47541 106.28C4.19206 103.702 6.74265 101.286 9.27756 98.8768C10.2176 97.9842 11.0918 97.0198 12.06 96.1615C12.4078 95.8494 12.9499 95.7683 13.4011 95.5779L13.7583 96.0866C12.0005 97.8656 10.2552 99.6539 8.48795 101.42C6.72071 103.187 4.95661 104.913 3.02018 106.804L14.0685 117.912L13.6204 118.514C13.0721 118.221 12.4172 118.03 11.9879 117.612C8.72608 114.423 5.50496 111.189 2.27443 107.971C2.13969 107.837 1.96109 107.74 1.58195 107.447C1.53495 108.205 1.47541 108.742 1.47541 109.279C1.47541 111.776 1.54435 114.273 1.47541 116.754C1.45975 117.3 1.00227 117.834 0.748465 118.371C0.504061 117.865 0.0497193 117.359 0.0465859 116.848C-0.000414972 110.359 0.0152519 103.867 0.0183853 97.3787C-0.0227646 97.1215 -0.00127324 96.8582 0.0810522 96.6109C0.319937 96.2748 0.589512 95.9613 0.886334 95.6746C1.07747 95.9867 1.43155 96.3207 1.43781 96.6484C1.48795 99.295 1.47228 101.954 1.47855 104.591L1.47541 106.28Z" fill="white"/>
<path d="M56.3606 108.44C56.7961 108.279 57.2479 108.166 57.708 108.102C59.0585 108.062 60.4153 108.124 61.7814 108.102C62.6838 108.084 63.1288 108.399 63.1162 109.351C63.0912 111.685 63.1758 114.032 63.063 116.354C63.041 116.854 62.4645 117.637 62.0007 117.759C58.1153 118.776 54.208 119.191 50.5482 116.988C48.1323 115.534 47.1015 113.052 46.7411 110.49C46.1771 106.583 46.1458 102.631 48.6494 99.1826C49.4049 98.0914 50.4134 97.1977 51.5894 96.5773C52.7654 95.9568 54.0742 95.6279 55.405 95.6184C57.4573 95.5622 59.5849 95.2407 61.4775 96.4299C61.8159 96.6452 62.0571 97.0104 62.6368 97.6065C60.3087 97.232 58.5007 96.6702 56.6834 96.6983C50.9493 96.7919 48.4081 100.1 47.9757 105.2C47.8033 107.219 48.1198 109.31 48.4394 111.333C49.088 115.409 51.9739 117.063 55.6462 117.356C57.2756 117.487 58.9551 117.225 60.5907 116.988C60.9887 116.932 61.5683 116.273 61.5934 115.868C61.7046 113.951 61.7046 112.029 61.5934 110.112C61.5746 109.772 60.8508 109.238 60.4121 109.198C59.1055 109.076 57.7801 109.154 56.464 109.154L56.3606 108.44Z" fill="white"/>
<path d="M87.4873 118.221C87.5611 117.7 87.6742 117.186 87.8257 116.682C90.299 110.174 92.789 103.673 95.2957 97.179C95.5151 96.6141 96.0227 96.1584 96.3955 95.6528C96.7872 96.1397 97.3356 96.5704 97.5486 97.126C100.028 103.526 102.471 109.941 104.878 116.37C105.097 116.957 104.953 117.675 104.978 118.333C104.539 117.8 103.963 117.328 103.69 116.723C103.063 115.315 102.537 113.855 102.026 112.397C101.578 111.114 100.848 110.571 99.3754 110.684C97.1922 110.81 95.0035 110.81 92.8203 110.684C91.8145 110.64 91.3351 110.996 91.0124 111.904C90.3544 113.752 89.6441 115.582 88.8817 117.394C88.7093 117.812 88.255 118.115 87.9416 118.471C87.7912 118.402 87.6408 118.305 87.4873 118.221ZM96.4175 97.7345C94.8821 101.761 93.4815 105.437 92.0307 109.282H100.763C99.3284 105.484 97.9591 101.832 96.4175 97.7345Z" fill="white"/>
<path d="M36.9932 158.594C37.0576 158.172 37.1518 157.755 37.2752 157.346C39.7359 150.831 42.204 144.317 44.6794 137.802C44.7831 137.451 44.9406 137.119 45.1463 136.816C45.3781 136.526 45.7416 136.129 46.0173 136.151C46.2931 136.173 46.7067 136.579 46.8352 136.903C48.1543 140.221 49.4359 143.554 50.708 146.89C52.0303 150.361 53.3495 153.828 54.6154 157.318C54.7658 157.73 54.559 158.254 54.5182 158.744C54.1485 158.401 53.6221 158.12 53.4372 157.705C52.6194 155.81 51.9363 153.857 51.1154 151.965C51.0076 151.764 50.8545 151.589 50.6681 151.456C50.4817 151.323 50.267 151.234 50.0406 151.197C47.325 151.129 44.6157 151.129 41.9126 151.197C41.6862 151.227 41.4696 151.308 41.2795 151.434C41.0894 151.56 40.9308 151.728 40.8159 151.925C39.9981 153.763 39.3119 155.67 38.516 157.505C38.2998 158.011 37.8548 158.423 37.5133 158.875L36.9932 158.594ZM46.1646 138.645L45.7635 138.688C44.366 142.309 42.9685 145.929 41.5303 149.69H50.3038C48.8907 145.923 47.5276 142.284 46.1646 138.645Z" fill="white"/>
<path d="M72.0118 116.074C73.4813 116.458 74.9321 117.044 76.4236 117.175C78.0968 117.319 79.8703 117.325 81.4746 116.891C83.0789 116.458 84.0565 114.984 84.2696 113.271C84.4984 111.451 83.9876 109.732 82.3144 108.864C80.2119 107.772 77.9496 106.991 75.7343 106.105C72.1779 104.691 71.0906 100.366 73.4719 97.6784C74.2804 96.767 75.5462 95.9275 76.715 95.734C79.0525 95.347 81.4966 95.2627 83.7087 96.483C84.0471 96.6703 84.2414 97.1072 84.2445 97.7065C83.01 97.4256 81.7848 96.9762 80.5377 96.9044C79.068 96.7934 77.5899 96.8985 76.151 97.2165C74.4402 97.6284 73.6443 99.0891 73.5847 100.74C73.5127 102.528 74.2929 104.014 75.9755 104.766C78.0498 105.703 80.2244 106.386 82.2987 107.313C84.8963 108.474 86.2092 111.099 85.6232 113.664C84.9684 116.545 82.775 118.383 79.8891 118.427C77.4514 118.464 74.976 118.68 72.7419 117.388C72.3345 117.15 72.0431 116.717 71.6953 116.376L72.0118 116.074Z" fill="white"/>
<path d="M24.2655 157.436H32.6943C33.1605 157.388 33.6308 157.397 34.0949 157.461C34.6083 157.641 35.1043 157.867 35.577 158.135C35.0694 158.37 34.5681 158.794 34.0573 158.803C30.7735 158.869 27.4772 158.803 24.2091 158.856C23.1312 158.856 22.7364 158.457 22.7395 157.386C22.7615 150.898 22.7395 144.409 22.7395 137.921C22.7183 137.818 22.7183 137.712 22.7395 137.609C22.9777 137.103 23.2377 136.604 23.4884 136.104C23.7359 136.585 24.1934 137.062 24.2028 137.546C24.2686 141.026 24.2467 144.503 24.2498 147.983L24.2655 157.436Z" fill="white"/>
<path d="M67.2488 107.013C67.2488 103.859 67.2488 100.702 67.2488 97.541C67.209 97.1296 67.2419 96.7145 67.346 96.3144C67.4251 96.1717 67.5322 96.0463 67.6608 95.9455C67.7894 95.8448 67.937 95.7707 68.0948 95.7277C68.2076 95.6933 68.5492 96.0928 68.615 96.3519C68.6942 96.7577 68.7216 97.172 68.6964 97.5847C68.6964 103.902 68.6964 110.219 68.6964 116.535C68.7307 116.895 68.7106 117.258 68.6369 117.612C68.4852 117.9 68.2873 118.162 68.051 118.386C67.8003 118.118 67.3679 117.877 67.3303 117.584C67.2482 116.709 67.221 115.829 67.2488 114.95C67.2446 112.301 67.2446 109.656 67.2488 107.013Z" fill="white"/>
<path d="M18.4305 107.007C18.4305 110.328 18.4556 113.652 18.4023 116.976C18.4023 117.441 18.0138 117.912 17.8039 118.361C17.5438 117.887 17.0612 117.425 17.0581 116.938C17.008 110.344 17.008 103.75 17.0581 97.154C17.0581 96.664 17.5125 96.174 17.7569 95.684C17.9825 96.1864 18.3835 96.6858 18.3992 97.1914C18.4619 100.462 18.4305 103.733 18.4305 107.007Z" fill="white"/>
</g>
<defs>
<clipPath id="clip0_629_296">
<rect width="105" height="159" fill="white"/>
</clipPath>
</defs>
</svg>
