<svg width="359" height="342" viewBox="0 0 359 342" fill="none" xmlns="http://www.w3.org/2000/svg">
<path fill-rule="evenodd" clip-rule="evenodd" d="M34.2814 65.3162L124.031 0H234.969L324.719 65.3162L359 171L324.719 276.684L234.969 342H124.031L34.2815 276.684L0 171L34.2814 65.3162ZM179.5 18.0529L137.843 4.495L221.157 4.495L179.5 18.0529ZM172.239 20.4161L125.746 5.28419L97.011 44.9L172.239 20.4161ZM99.0529 48.9618L174.625 24.3659L145.488 64.6698L99.0529 48.9618ZM91.1265 53.0128L42.6465 119.851L90.925 104.358L91.1265 53.0128ZM90.9065 109.084L41.7901 124.846L71.8873 166.479L90.7838 140.34L90.9065 109.084ZM95.2958 134.099L95.3997 107.642L120.169 99.6925L95.2958 134.099ZM90.7536 148.046L74.6576 170.311L90.5798 192.335L90.7536 148.046ZM95.0431 198.509L95.2656 141.804L127.383 97.3773L179.093 80.7822L233.892 99.3194L265.937 143.646L266.379 199.653L213.9 270.289L126.705 242.306L95.0431 198.509ZM90.5499 199.958L71.8873 174.143L42.2127 215.19L90.4293 230.664L90.5499 199.958ZM94.9112 232.103L95.0132 206.132L119.491 239.991L94.9112 232.103ZM90.4108 235.378L40.6621 219.413L90.2054 287.717L90.4108 235.378ZM94.6777 291.614L94.8927 236.817L123.934 246.137L175.928 318.058L94.6777 291.614ZM241.226 101.8L265.875 135.897L265.672 110.07L241.226 101.8ZM265.634 105.313L236.686 95.5201L217.192 68.5554L265.222 53.1413L265.634 105.313ZM270.171 111.592L270.413 142.173L289.484 168.553L319.424 128.253L270.171 111.592ZM318.87 123.322L270.134 106.835L269.729 55.5711L318.87 123.322ZM229.352 93.0392L186.291 78.4725L212.695 69.9986L229.352 93.0392ZM179.13 76.0503L209.925 66.1674L179.936 24.6838L149.94 66.1757L179.13 76.0503ZM142.732 68.4819L124.612 93.5466L95.4182 102.916L95.6159 52.5435L142.732 68.4819ZM147.184 69.9879L171.933 78.36L131.826 91.2313L147.184 69.9879ZM218.417 271.738L266.437 207.103L267.071 287.353L218.417 271.738ZM270.878 201.126L271.532 283.944L319.694 217.544L319.475 217.703L289.434 176.149L270.878 201.126ZM270.474 149.922L270.819 193.676L286.676 172.333L270.474 149.922ZM185.514 24.7367L261.73 49.542L214.422 64.7242L185.514 24.7367ZM38.7688 128.331V212.29L69.1171 170.311L38.7688 128.331ZM184.301 317.658L264.978 291.401L215.585 275.55L184.301 317.658ZM211.068 274.1L179.96 315.971L131.148 248.452L211.068 274.1ZM292.242 172.369L320.231 211.085V134.697L292.242 172.369ZM89.7501 47.2632L115.496 11.7681L48.0927 60.8211L89.7501 47.2632ZM48.0927 281.179L115.496 330.232L89.7501 294.737L48.0927 281.179ZM85.2626 288.55L38.7688 224.45V273.418L85.2626 288.55ZM34.2813 218.263V262.137L8.53573 182.768L34.2813 218.263ZM34.2813 131.384L5.54685 171L34.2813 210.616V131.384ZM34.2813 123.737L8.53573 159.232L34.2813 79.8628V123.737ZM38.7688 117.55V68.582L85.2626 53.45L38.7688 117.55ZM97.011 297.1L125.746 336.716L172.239 321.584L97.011 297.1ZM179.5 323.947L137.843 337.505H221.157L179.5 323.947ZM243.504 330.232L310.907 281.179L269.25 294.737L243.504 330.232ZM261.989 297.1L186.761 321.584L233.254 336.716L261.989 297.1ZM273.737 288.55L320.231 273.418V224.45L273.737 288.55ZM324.719 218.263V262.138L350.464 182.768L324.719 218.263ZM350.464 159.232L324.719 79.8624V123.737L350.464 159.232ZM324.719 210.616L353.453 171L324.719 131.384V210.616ZM320.231 117.55V68.582L273.737 53.45L320.231 117.55ZM269.25 47.2632L310.907 60.8212L243.504 11.7678L269.25 47.2632ZM261.989 44.9L186.761 20.4161L233.254 5.28419L261.989 44.9Z" fill="url(#paint0_radial_101_1622)"/>
<defs>
<radialGradient id="paint0_radial_101_1622" cx="0" cy="0" r="1" gradientUnits="userSpaceOnUse" gradientTransform="translate(184.423 169.187) rotate(57.2322) scale(203.135 213.441)">
<stop stop-color="white"/>
<stop offset="1" stop-color="white" stop-opacity="0"/>
</radialGradient>
</defs>
</svg>
