<svg width="482" height="1371" viewBox="0 0 482 1371" fill="none" xmlns="http://www.w3.org/2000/svg">
<path d="M1.76446e-06 47.6511L0 0L37.6934 -1.94498e-06L1.76446e-06 47.6511Z" fill="url(#paint0_linear_101_1616)"/>
<path d="M122.9 -6.34164e-06L80.2965 -4.14331e-06L3.75875e-06 101.509L5.75304e-06 155.367L122.9 -6.34164e-06Z" fill="url(#paint1_linear_101_1616)"/>
<path d="M208.106 -1.07383e-05L165.503 -8.53996e-06L7.74733e-06 209.225L9.74162e-06 263.083L208.106 -1.07383e-05Z" fill="url(#paint2_linear_101_1616)"/>
<path d="M293.312 -1.5135e-05L250.709 -1.29366e-05L1.17359e-05 316.941L1.37302e-05 370.799L293.312 -1.5135e-05Z" fill="url(#paint3_linear_101_1616)"/>
<path d="M378.519 -1.95316e-05L335.916 -1.73333e-05L1.57245e-05 424.657L1.77188e-05 478.515L378.519 -1.95316e-05Z" fill="url(#paint4_linear_101_1616)"/>
<path d="M463.725 -2.39283e-05L421.122 -2.17299e-05L1.97131e-05 532.373L2.17074e-05 586.231L463.725 -2.39283e-05Z" fill="url(#paint5_linear_101_1616)"/>
<path d="M482 84.6133L482 30.7554L2.37017e-05 640.089L2.5696e-05 693.947L482 84.6133Z" fill="url(#paint6_linear_101_1616)"/>
<path d="M482 192.329L482 138.471L2.76902e-05 747.805L2.96845e-05 801.663L482 192.329Z" fill="url(#paint7_linear_101_1616)"/>
<path d="M482 300.045L482 246.187L3.16788e-05 855.521L3.36731e-05 909.379L482 300.045Z" fill="url(#paint8_linear_101_1616)"/>
<path d="M482 407.761L482 353.903L3.56674e-05 963.237L3.76617e-05 1017.09L482 407.761Z" fill="url(#paint9_linear_101_1616)"/>
<path d="M482 515.477L482 461.619L3.9656e-05 1070.95L4.16503e-05 1124.81L482 515.477Z" fill="url(#paint10_linear_101_1616)"/>
<path d="M482 623.193L482 569.335L4.36446e-05 1178.67L4.56389e-05 1232.53L482 623.193Z" fill="url(#paint11_linear_101_1616)"/>
<path d="M482 730.909L482 677.051L4.76332e-05 1286.38L4.96274e-05 1340.24L482 730.909Z" fill="url(#paint12_linear_101_1616)"/>
<path d="M482 838.625L482 784.767L18.2729 1371L60.8762 1371L482 838.625Z" fill="url(#paint13_linear_101_1616)"/>
<path d="M482 946.341L482 892.483L103.479 1371L146.082 1371L482 946.341Z" fill="url(#paint14_linear_101_1616)"/>
<path d="M482 1054.06L482 1000.2L188.686 1371L231.289 1371L482 1054.06Z" fill="url(#paint15_linear_101_1616)"/>
<path d="M482 1161.77L482 1107.91L273.892 1371L316.495 1371L482 1161.77Z" fill="url(#paint16_linear_101_1616)"/>
<path d="M482 1269.49L482 1215.63L359.098 1371L401.702 1371L482 1269.49Z" fill="url(#paint17_linear_101_1616)"/>
<path d="M444.305 1371L482 1371L482 1323.35L444.305 1371Z" fill="url(#paint18_linear_101_1616)"/>
<defs>
<linearGradient id="paint0_linear_101_1616" x1="-152.474" y1="-503.922" x2="795.032" y2="1184.77" gradientUnits="userSpaceOnUse">
<stop stop-color="#919191"/>
<stop offset="1" stop-opacity="0"/>
</linearGradient>
<linearGradient id="paint1_linear_101_1616" x1="-152.474" y1="-503.922" x2="795.032" y2="1184.77" gradientUnits="userSpaceOnUse">
<stop stop-color="#919191"/>
<stop offset="1" stop-opacity="0"/>
</linearGradient>
<linearGradient id="paint2_linear_101_1616" x1="-152.474" y1="-503.922" x2="795.032" y2="1184.77" gradientUnits="userSpaceOnUse">
<stop stop-color="#919191"/>
<stop offset="1" stop-opacity="0"/>
</linearGradient>
<linearGradient id="paint3_linear_101_1616" x1="-152.474" y1="-503.922" x2="795.032" y2="1184.77" gradientUnits="userSpaceOnUse">
<stop stop-color="#919191"/>
<stop offset="1" stop-opacity="0"/>
</linearGradient>
<linearGradient id="paint4_linear_101_1616" x1="-152.474" y1="-503.922" x2="795.032" y2="1184.77" gradientUnits="userSpaceOnUse">
<stop stop-color="#919191"/>
<stop offset="1" stop-opacity="0"/>
</linearGradient>
<linearGradient id="paint5_linear_101_1616" x1="-152.474" y1="-503.922" x2="795.032" y2="1184.77" gradientUnits="userSpaceOnUse">
<stop stop-color="#919191"/>
<stop offset="1" stop-opacity="0"/>
</linearGradient>
<linearGradient id="paint6_linear_101_1616" x1="-152.474" y1="-503.922" x2="795.032" y2="1184.77" gradientUnits="userSpaceOnUse">
<stop stop-color="#919191"/>
<stop offset="1" stop-opacity="0"/>
</linearGradient>
<linearGradient id="paint7_linear_101_1616" x1="-152.474" y1="-503.922" x2="795.032" y2="1184.77" gradientUnits="userSpaceOnUse">
<stop stop-color="#919191"/>
<stop offset="1" stop-opacity="0"/>
</linearGradient>
<linearGradient id="paint8_linear_101_1616" x1="-152.474" y1="-503.922" x2="795.032" y2="1184.77" gradientUnits="userSpaceOnUse">
<stop stop-color="#919191"/>
<stop offset="1" stop-opacity="0"/>
</linearGradient>
<linearGradient id="paint9_linear_101_1616" x1="-152.474" y1="-503.922" x2="795.032" y2="1184.77" gradientUnits="userSpaceOnUse">
<stop stop-color="#919191"/>
<stop offset="1" stop-opacity="0"/>
</linearGradient>
<linearGradient id="paint10_linear_101_1616" x1="-152.474" y1="-503.922" x2="795.032" y2="1184.77" gradientUnits="userSpaceOnUse">
<stop stop-color="#919191"/>
<stop offset="1" stop-opacity="0"/>
</linearGradient>
<linearGradient id="paint11_linear_101_1616" x1="-152.474" y1="-503.922" x2="795.032" y2="1184.77" gradientUnits="userSpaceOnUse">
<stop stop-color="#919191"/>
<stop offset="1" stop-opacity="0"/>
</linearGradient>
<linearGradient id="paint12_linear_101_1616" x1="-152.474" y1="-503.922" x2="795.032" y2="1184.77" gradientUnits="userSpaceOnUse">
<stop stop-color="#919191"/>
<stop offset="1" stop-opacity="0"/>
</linearGradient>
<linearGradient id="paint13_linear_101_1616" x1="-152.474" y1="-503.922" x2="795.032" y2="1184.77" gradientUnits="userSpaceOnUse">
<stop stop-color="#919191"/>
<stop offset="1" stop-opacity="0"/>
</linearGradient>
<linearGradient id="paint14_linear_101_1616" x1="-152.474" y1="-503.922" x2="795.032" y2="1184.77" gradientUnits="userSpaceOnUse">
<stop stop-color="#919191"/>
<stop offset="1" stop-opacity="0"/>
</linearGradient>
<linearGradient id="paint15_linear_101_1616" x1="-152.474" y1="-503.922" x2="795.032" y2="1184.77" gradientUnits="userSpaceOnUse">
<stop stop-color="#919191"/>
<stop offset="1" stop-opacity="0"/>
</linearGradient>
<linearGradient id="paint16_linear_101_1616" x1="-152.474" y1="-503.922" x2="795.032" y2="1184.77" gradientUnits="userSpaceOnUse">
<stop stop-color="#919191"/>
<stop offset="1" stop-opacity="0"/>
</linearGradient>
<linearGradient id="paint17_linear_101_1616" x1="-152.474" y1="-503.922" x2="795.032" y2="1184.77" gradientUnits="userSpaceOnUse">
<stop stop-color="#919191"/>
<stop offset="1" stop-opacity="0"/>
</linearGradient>
<linearGradient id="paint18_linear_101_1616" x1="-152.474" y1="-503.922" x2="795.032" y2="1184.77" gradientUnits="userSpaceOnUse">
<stop stop-color="#919191"/>
<stop offset="1" stop-opacity="0"/>
</linearGradient>
</defs>
</svg>
