<svg width="481" height="1371" viewBox="0 0 481 1371" fill="none" xmlns="http://www.w3.org/2000/svg">
<path d="M-1 1323.35L-1 1371H36.6934L-1 1323.35Z" fill="url(#paint0_linear_101_1615)"/>
<path d="M121.9 1371H79.2965L-1 1269.49L-1 1215.63L121.9 1371Z" fill="url(#paint1_linear_101_1615)"/>
<path d="M207.106 1371H164.503L-1 1161.78L-1 1107.92L207.106 1371Z" fill="url(#paint2_linear_101_1615)"/>
<path d="M292.312 1371H249.709L-1 1054.06L-1 1000.2L292.312 1371Z" fill="url(#paint3_linear_101_1615)"/>
<path d="M377.519 1371H334.916L-1 946.343L-1 892.485L377.519 1371Z" fill="url(#paint4_linear_101_1615)"/>
<path d="M462.725 1371H420.122L-1 838.627L-1 784.769L462.725 1371Z" fill="url(#paint5_linear_101_1615)"/>
<path d="M481 1286.39V1340.24L-1 730.911L-1 677.053L481 1286.39Z" fill="url(#paint6_linear_101_1615)"/>
<path d="M481 1178.67V1232.53L-1 623.195L-1 569.337L481 1178.67Z" fill="url(#paint7_linear_101_1615)"/>
<path d="M481 1070.95V1124.81L-1 515.479L-1 461.621L481 1070.95Z" fill="url(#paint8_linear_101_1615)"/>
<path d="M481 963.239V1017.1L-1 407.764L-1 353.906L481 963.239Z" fill="url(#paint9_linear_101_1615)"/>
<path d="M481 855.523V909.381L-1 300.048L-1 246.19L481 855.523Z" fill="url(#paint10_linear_101_1615)"/>
<path d="M481 747.807V801.665L-1 192.332L-1 138.474L481 747.807Z" fill="url(#paint11_linear_101_1615)"/>
<path d="M481 640.091V693.949L-1 84.6158L-1 30.7578L481 640.091Z" fill="url(#paint12_linear_101_1615)"/>
<path d="M481 532.375V586.233L17.2729 0H59.8761L481 532.375Z" fill="url(#paint13_linear_101_1615)"/>
<path d="M481 424.659V478.517L102.479 0H145.082L481 424.659Z" fill="url(#paint14_linear_101_1615)"/>
<path d="M481 316.943V370.801L187.686 0H230.289L481 316.943Z" fill="url(#paint15_linear_101_1615)"/>
<path d="M481 209.227V263.085L272.892 0H315.495L481 209.227Z" fill="url(#paint16_linear_101_1615)"/>
<path d="M481 101.511V155.37L358.098 0H400.702L481 101.511Z" fill="url(#paint17_linear_101_1615)"/>
<path d="M443.305 0H481V47.6536L443.305 0Z" fill="url(#paint18_linear_101_1615)"/>
<defs>
<linearGradient id="paint0_linear_101_1615" x1="-153.474" y1="1874.92" x2="794.032" y2="186.229" gradientUnits="userSpaceOnUse">
<stop stop-color="#919191"/>
<stop offset="1" stop-opacity="0"/>
</linearGradient>
<linearGradient id="paint1_linear_101_1615" x1="-153.474" y1="1874.92" x2="794.032" y2="186.229" gradientUnits="userSpaceOnUse">
<stop stop-color="#919191"/>
<stop offset="1" stop-opacity="0"/>
</linearGradient>
<linearGradient id="paint2_linear_101_1615" x1="-153.474" y1="1874.92" x2="794.032" y2="186.229" gradientUnits="userSpaceOnUse">
<stop stop-color="#919191"/>
<stop offset="1" stop-opacity="0"/>
</linearGradient>
<linearGradient id="paint3_linear_101_1615" x1="-153.474" y1="1874.92" x2="794.032" y2="186.229" gradientUnits="userSpaceOnUse">
<stop stop-color="#919191"/>
<stop offset="1" stop-opacity="0"/>
</linearGradient>
<linearGradient id="paint4_linear_101_1615" x1="-153.474" y1="1874.92" x2="794.032" y2="186.229" gradientUnits="userSpaceOnUse">
<stop stop-color="#919191"/>
<stop offset="1" stop-opacity="0"/>
</linearGradient>
<linearGradient id="paint5_linear_101_1615" x1="-153.474" y1="1874.92" x2="794.032" y2="186.229" gradientUnits="userSpaceOnUse">
<stop stop-color="#919191"/>
<stop offset="1" stop-opacity="0"/>
</linearGradient>
<linearGradient id="paint6_linear_101_1615" x1="-153.474" y1="1874.92" x2="794.032" y2="186.229" gradientUnits="userSpaceOnUse">
<stop stop-color="#919191"/>
<stop offset="1" stop-opacity="0"/>
</linearGradient>
<linearGradient id="paint7_linear_101_1615" x1="-153.474" y1="1874.92" x2="794.032" y2="186.229" gradientUnits="userSpaceOnUse">
<stop stop-color="#919191"/>
<stop offset="1" stop-opacity="0"/>
</linearGradient>
<linearGradient id="paint8_linear_101_1615" x1="-153.474" y1="1874.92" x2="794.032" y2="186.229" gradientUnits="userSpaceOnUse">
<stop stop-color="#919191"/>
<stop offset="1" stop-opacity="0"/>
</linearGradient>
<linearGradient id="paint9_linear_101_1615" x1="-153.474" y1="1874.92" x2="794.032" y2="186.229" gradientUnits="userSpaceOnUse">
<stop stop-color="#919191"/>
<stop offset="1" stop-opacity="0"/>
</linearGradient>
<linearGradient id="paint10_linear_101_1615" x1="-153.474" y1="1874.92" x2="794.032" y2="186.229" gradientUnits="userSpaceOnUse">
<stop stop-color="#919191"/>
<stop offset="1" stop-opacity="0"/>
</linearGradient>
<linearGradient id="paint11_linear_101_1615" x1="-153.474" y1="1874.92" x2="794.032" y2="186.229" gradientUnits="userSpaceOnUse">
<stop stop-color="#919191"/>
<stop offset="1" stop-opacity="0"/>
</linearGradient>
<linearGradient id="paint12_linear_101_1615" x1="-153.474" y1="1874.92" x2="794.032" y2="186.229" gradientUnits="userSpaceOnUse">
<stop stop-color="#919191"/>
<stop offset="1" stop-opacity="0"/>
</linearGradient>
<linearGradient id="paint13_linear_101_1615" x1="-153.474" y1="1874.92" x2="794.032" y2="186.229" gradientUnits="userSpaceOnUse">
<stop stop-color="#919191"/>
<stop offset="1" stop-opacity="0"/>
</linearGradient>
<linearGradient id="paint14_linear_101_1615" x1="-153.474" y1="1874.92" x2="794.032" y2="186.229" gradientUnits="userSpaceOnUse">
<stop stop-color="#919191"/>
<stop offset="1" stop-opacity="0"/>
</linearGradient>
<linearGradient id="paint15_linear_101_1615" x1="-153.474" y1="1874.92" x2="794.032" y2="186.229" gradientUnits="userSpaceOnUse">
<stop stop-color="#919191"/>
<stop offset="1" stop-opacity="0"/>
</linearGradient>
<linearGradient id="paint16_linear_101_1615" x1="-153.474" y1="1874.92" x2="794.032" y2="186.229" gradientUnits="userSpaceOnUse">
<stop stop-color="#919191"/>
<stop offset="1" stop-opacity="0"/>
</linearGradient>
<linearGradient id="paint17_linear_101_1615" x1="-153.474" y1="1874.92" x2="794.032" y2="186.229" gradientUnits="userSpaceOnUse">
<stop stop-color="#919191"/>
<stop offset="1" stop-opacity="0"/>
</linearGradient>
<linearGradient id="paint18_linear_101_1615" x1="-153.474" y1="1874.92" x2="794.032" y2="186.229" gradientUnits="userSpaceOnUse">
<stop stop-color="#919191"/>
<stop offset="1" stop-opacity="0"/>
</linearGradient>
</defs>
</svg>
