<svg width="267" height="61" viewBox="0 0 267 61" fill="none" xmlns="http://www.w3.org/2000/svg">
<path d="M53.6393 12.9973L39.6143 47.6565H51.5337L53.2289 43.0695H66.6711L68.3663 47.6565H80.2857L66.2607 12.9973H53.6393ZM55.9543 34.7468L59.9521 23.9178L63.9498 34.7468H55.9543Z" fill="#EDEDED"/>
<path d="M129.891 34.4922H146.194V26.1656H129.891V21.491H146.367V12.9973H118.497V47.6565H146.72V39.1628H129.891V34.4922Z" fill="#EDEDED"/>
<path d="M94.4821 35.7892L86.0679 12.9973H74.1484L88.1735 47.6565H100.795L114.816 12.9973H102.896L94.4821 35.7892Z" fill="#EDEDED"/>
<path d="M24.3643 31.5483L11.0452 12.9973H0V47.6565H11.5706V29.1056L24.8897 47.6565H35.9349V12.9973H24.3643V31.5483Z" fill="#EDEDED"/>
<path d="M178.376 35.3277C182.534 33.6409 184.644 29.9927 184.644 25.362C184.644 20.9818 182.998 17.7435 179.747 15.7344C176.726 13.8646 172.811 12.9973 167.422 12.9973H152.325V47.6565H163.543V37.9733H167.573L174.411 47.6565H186.331L177.289 35.7653L178.376 35.3277ZM169.507 29.1374H163.37V21.8332H169.507C171.588 21.8332 173.275 23.4683 173.275 25.4853C173.275 27.5023 171.588 29.1374 169.507 29.1374Z" fill="#EDEDED"/>
<path d="M254.278 0H216.73C209.818 0 204.216 5.43044 204.216 12.13V48.5239C204.216 55.2234 209.818 60.6538 216.73 60.6538H254.278C261.19 60.6538 266.793 55.2234 266.793 48.5239V12.13C266.793 5.43044 261.19 0 254.278 0ZM245.589 38.2359C247.904 38.2359 249.78 40.054 249.78 42.2978C249.78 44.5415 247.904 46.3596 245.589 46.3596H226.881C223.757 46.3596 221.229 43.905 221.229 40.8815C221.229 39.4572 221.799 38.0887 222.826 37.0662L237.483 22.4259H225.42C223.105 22.4259 221.229 20.6078 221.229 18.364C221.229 16.1203 223.105 14.3021 225.42 14.3021H244.128C247.251 14.3021 249.78 16.7568 249.78 19.7803C249.78 21.2046 249.209 22.5731 248.183 23.5956L233.526 38.2359H245.589Z" fill="#EDEDED"/>
</svg>
