<svg width="60" height="60" viewBox="0 0 60 60" fill="none" xmlns="http://www.w3.org/2000/svg">
<g opacity="0.8">
<circle cx="30" cy="30" r="30" fill="black"/>
<path d="M36.75 30C36.75 27.345 35.22 25.065 33 23.955V27.27L36.675 30.945C36.72 30.645 36.75 30.33 36.75 30ZM40.5 30C40.5 31.41 40.2 32.73 39.69 33.96L41.955 36.225C42.945 34.365 43.5 32.25 43.5 30C43.5 23.58 39.015 18.21 33 16.845V19.935C37.335 21.225 40.5 25.245 40.5 30ZM18.405 16.5L16.5 18.405L23.595 25.5H16.5V34.5H22.5L30 42V31.905L36.375 38.28C35.37 39.06 34.245 39.675 33 40.05V43.14C35.07 42.675 36.945 41.715 38.535 40.425L41.595 43.5L43.5 41.595L30 28.095L18.405 16.5ZM30 18L26.865 21.135L30 24.27V18Z" fill="#EDEDED"/>
</g>
</svg>
