<svg width="308" height="308" viewBox="0 0 308 308" fill="none" xmlns="http://www.w3.org/2000/svg">
<path d="M211.75 173.25L222.904 170.261L214.739 162.096L211.75 173.25ZM77 154L66.1279 157.89L74.9328 165.36L77 154ZM230.293 153.293L217.407 166.179L218.821 167.593L231.707 154.707L230.293 153.293ZM162.918 220.668L153.293 230.293L154.707 231.707L164.332 222.082L162.918 220.668ZM186.98 196.605L162.918 220.668L164.332 222.082L188.395 198.02L186.98 196.605ZM116.207 116.207L154.707 77.7071L153.293 76.2929L114.793 114.793L116.207 116.207ZM96.9571 135.457L116.207 116.207L114.793 114.793L95.5429 134.043L96.9571 135.457ZM77.7071 230.293C58.9562 211.542 57.0498 182.323 71.9902 161.445L70.3637 160.281C54.8633 181.942 56.8389 212.253 76.2929 231.707L77.7071 230.293ZM76.2929 231.707C97.9464 253.361 133.054 253.361 154.707 231.707L153.293 230.293C132.42 251.165 98.5795 251.165 77.7071 230.293L76.2929 231.707ZM230.293 77.7071C251.165 98.5796 251.165 132.42 230.293 153.293L231.707 154.707C253.361 133.054 253.361 97.9464 231.707 76.2929L230.293 77.7071ZM231.707 76.2929C210.054 54.6394 174.946 54.6394 153.293 76.2929L154.707 77.7071C175.58 56.8347 209.42 56.8347 230.293 77.7071L231.707 76.2929Z" fill="url(#paint0_linear_101_2303)"/>
<path d="M173.25 96.25L170.261 85.0964L162.096 93.2614L173.25 96.25ZM154 231L157.89 241.872L165.36 233.067L154 231ZM153.293 77.7071L166.179 90.5931L167.593 89.1789L154.707 76.2929L153.293 77.7071ZM220.668 145.082L230.293 154.707L231.707 153.293L222.082 143.668L220.668 145.082ZM196.605 121.02L220.668 145.082L222.082 143.668L198.02 119.605L196.605 121.02ZM116.207 191.793L77.7071 153.293L76.2929 154.707L114.793 193.207L116.207 191.793ZM135.457 211.043L116.207 191.793L114.793 193.207L134.043 212.457L135.457 211.043ZM230.293 230.293C211.542 249.044 182.323 250.95 161.445 236.01L160.281 237.636C181.942 253.137 212.253 251.161 231.707 231.707L230.293 230.293ZM231.707 231.707C253.361 210.054 253.361 174.946 231.707 153.293L230.293 154.707C251.165 175.58 251.165 209.42 230.293 230.293L231.707 231.707ZM77.7071 77.7071C98.5796 56.8347 132.42 56.8347 153.293 77.7071L154.707 76.2929C133.054 54.6394 97.9464 54.6394 76.2929 76.2929L77.7071 77.7071ZM76.2929 76.2929C54.6394 97.9464 54.6394 133.054 76.2929 154.707L77.7071 153.293C56.8347 132.42 56.8347 98.5796 77.7071 77.7071L76.2929 76.2929Z" fill="url(#paint1_linear_101_2303)"/>
<path d="M177.692 129.952L165.824 148.747L187.506 153.645L165.824 158.542L177.692 177.337L158.898 165.469L154 187.151L149.102 165.469L130.308 177.337L142.176 158.542L120.494 153.645L142.176 148.747L130.308 129.952L149.102 141.821L154 120.139L158.898 141.821L177.692 129.952Z" fill="url(#paint2_radial_101_2303)"/>
<defs>
<linearGradient id="paint0_linear_101_2303" x1="202.125" y1="48.125" x2="128.975" y2="306.075" gradientUnits="userSpaceOnUse">
<stop stop-color="white"/>
<stop offset="1" stop-color="white" stop-opacity="0"/>
</linearGradient>
<linearGradient id="paint1_linear_101_2303" x1="48.125" y1="105.875" x2="306.075" y2="179.025" gradientUnits="userSpaceOnUse">
<stop stop-color="white"/>
<stop offset="1" stop-color="white" stop-opacity="0"/>
</linearGradient>
<radialGradient id="paint2_radial_101_2303" cx="0" cy="0" r="1" gradientUnits="userSpaceOnUse" gradientTransform="translate(154 153.645) rotate(135) scale(33.506)">
<stop stop-color="white"/>
<stop offset="1" stop-color="#C4C4C4" stop-opacity="0"/>
</radialGradient>
</defs>
</svg>
