<svg width="36" height="30" viewBox="0 0 36 30" fill="none" xmlns="http://www.w3.org/2000/svg">
<path d="M11.518 29.3151C24.8793 28.967 31.8966 17.705 31.6466 8.10962C31.6383 7.79328 31.6301 7.47695 31.6072 7.17608C32.9964 6.11487 34.1983 4.8023 35.1393 3.31563C33.8588 3.9218 32.4681 4.34994 30.9966 4.56917C32.4794 3.62611 33.5873 2.18033 34.0852 0.464029C32.7059 1.32902 31.1701 1.97198 29.5218 2.34655C28.1593 0.965128 26.2536 0.140511 24.1598 0.195067C20.1529 0.299468 16.984 3.63794 17.0884 7.64481C17.1033 8.21722 17.1781 8.773 17.3274 9.29669C11.2791 9.15281 5.85623 6.39996 2.15653 2.09486C1.5668 3.18045 1.23785 4.44014 1.27239 5.76572C1.33794 8.28131 2.67642 10.4773 4.66842 11.7218C3.47762 11.7226 2.35429 11.4203 1.36104 10.9035C1.36183 10.9336 1.36261 10.9638 1.3634 10.9939C1.45524 14.5187 4.03191 17.3759 7.37858 17.967C6.78037 18.1484 6.13499 18.2557 5.4722 18.2729C5.00524 18.2851 4.55216 18.2517 4.0979 18.1731C5.09213 21.0413 7.82797 23.0653 11.0079 23.0427C8.57309 25.0506 5.47012 26.2922 2.06579 26.3809C1.47831 26.3962 0.905119 26.381 0.330746 26.3206C3.56329 28.3165 7.4208 29.4219 11.518 29.3151Z" fill="white"/>
</svg>
