<svg width="38" height="28" viewBox="0 0 38 28" fill="none" xmlns="http://www.w3.org/2000/svg">
<path d="M31.6249 2.34496C29.1721 1.2337 26.5827 0.445332 23.9228 0C23.5588 0.643884 23.2295 1.30636 22.9362 1.98464C20.1029 1.56215 17.2216 1.56215 14.3883 1.98464C14.0948 1.30643 13.7655 0.643962 13.4017 0C10.7401 0.449093 8.14895 1.23933 5.69364 2.35077C0.819226 9.48734 -0.502152 16.4467 0.158537 23.3072C3.01312 25.3943 6.20821 26.9815 9.60492 28C10.3698 26.982 11.0465 25.9021 11.6281 24.7717C10.5235 24.3634 9.45741 23.8598 8.44211 23.2665C8.70932 23.0747 8.97066 22.8771 9.22319 22.6853C12.1775 24.0602 15.402 24.773 18.6666 24.773C21.9313 24.773 25.1558 24.0602 28.1101 22.6853C28.3656 22.8917 28.6269 23.0892 28.8912 23.2665C27.8739 23.8607 26.8058 24.3654 25.6993 24.7746C26.2801 25.9045 26.957 26.9835 27.7225 28C31.1221 26.9856 34.3196 25.3991 37.1747 23.3101C37.9499 15.3541 35.8504 8.4587 31.6249 2.34496ZM12.465 19.088C10.6239 19.088 9.1028 17.4346 9.1028 15.4006C9.1028 13.3665 10.571 11.6986 12.4591 11.6986C14.3472 11.6986 15.8565 13.3665 15.8242 15.4006C15.7919 17.4346 14.3413 19.088 12.465 19.088ZM24.8683 19.088C23.0242 19.088 21.5091 17.4346 21.5091 15.4006C21.5091 13.3665 22.9773 11.6986 24.8683 11.6986C26.7593 11.6986 28.2569 13.3665 28.2246 15.4006C28.1923 17.4346 26.7447 19.088 24.8683 19.088Z" fill="white"/>
</svg>
