<svg width="230" height="219" viewBox="0 0 230 219" fill="none" xmlns="http://www.w3.org/2000/svg">
<path d="M115.537 0L118.601 13.5621L130.357 6.13844L122.933 17.8945L136.495 20.9579L122.933 24.0214L130.357 35.7774L118.601 28.3538L115.537 41.9159L112.474 28.3538L100.718 35.7774L108.141 24.0214L94.5791 20.9579L108.141 17.8945L100.718 6.13844L112.474 13.5621L115.537 0Z" fill="url(#paint0_radial_101_2325)"/>
<path fill-rule="evenodd" clip-rule="evenodd" d="M115 51.5889L230 218.178H0L115 51.5889ZM18.0741 216.356H211.926L115 196.611L18.0741 216.356ZM215.825 215.29L115 194.751L14.1749 215.29L115 181.058L215.825 215.29ZM115 165.535L215.134 213.13L115 179.133L14.8664 213.13L115 165.535ZM214.259 210.695L115 163.516L15.7413 210.695L115 150.036L214.259 210.695ZM115 134.558L213.229 207.929L115 147.898L16.7709 207.929L115 134.558ZM212.072 204.786L115 132.28L17.9284 204.786L115 119.097L212.072 204.786ZM115 103.651L210.809 201.237L115 116.663L19.1909 201.237L115 103.651ZM209.461 197.258L115 101.045L20.5389 197.258L115 88.2165L209.461 197.258ZM115 70.2213L210.972 196.213L115 85.4272L19.0275 196.213L115 70.2213ZM206.318 187.088L115 67.2066L23.6822 187.088L115 54.8051L206.318 187.088Z" fill="url(#paint1_linear_101_2325)"/>
<path fill-rule="evenodd" clip-rule="evenodd" d="M115.537 51.5889L1.07477 218.178H230L115.537 51.5889ZM212.01 216.356H19.0644L115.537 196.611L212.01 216.356ZM15.1834 215.29L115.537 194.751L215.891 215.29L115.537 181.058L15.1834 215.29ZM115.537 165.535L15.8718 213.13L115.537 179.133L215.203 213.13L115.537 165.535ZM16.7425 210.695L115.537 163.516L214.332 210.695L115.537 150.036L16.7425 210.695ZM115.537 134.558L17.7672 207.929L115.537 147.898L213.308 207.929L115.537 134.558ZM18.9194 204.786L115.537 132.28L212.155 204.786L115.537 119.097L18.9194 204.786ZM115.537 103.651L20.176 201.237L115.537 116.663L210.899 201.237L115.537 103.651ZM21.5175 197.258L115.537 101.045L209.557 197.258L115.537 88.2165L21.5175 197.258ZM115.537 70.2213L20.0134 196.213L115.537 85.4272L211.061 196.213L115.537 70.2213ZM24.6462 187.088L115.537 67.2066L206.428 187.088L115.537 54.8051L24.6462 187.088Z" fill="url(#paint2_linear_101_2325)"/>
<defs>
<radialGradient id="paint0_radial_101_2325" cx="0" cy="0" r="1" gradientUnits="userSpaceOnUse" gradientTransform="translate(115.537 20.9579) rotate(90) scale(20.9579)">
<stop stop-color="white"/>
<stop offset="1" stop-color="#C4C4C4" stop-opacity="0"/>
</radialGradient>
<linearGradient id="paint1_linear_101_2325" x1="6.53409" y1="218.178" x2="174.861" y2="138.255" gradientUnits="userSpaceOnUse">
<stop stop-color="white"/>
<stop offset="1" stop-color="white" stop-opacity="0"/>
</linearGradient>
<linearGradient id="paint2_linear_101_2325" x1="223.496" y1="218.178" x2="62.1605" y2="124.554" gradientUnits="userSpaceOnUse">
<stop stop-color="white"/>
<stop offset="1" stop-color="white" stop-opacity="0"/>
</linearGradient>
</defs>
</svg>
