<svg width="255" height="100" viewBox="0 0 255 100" fill="none" xmlns="http://www.w3.org/2000/svg">
<path d="M183.733 20.3388C186.594 19.3238 187.466 16.7504 187.466 12.6901C187.466 6.97147 186.036 4.51239 178.885 4.51239H170.16C170.081 4.51239 170.004 4.54404 169.948 4.60035C169.892 4.65665 169.86 4.73303 169.86 4.81265V28.9884C169.86 29.0694 169.891 29.1473 169.947 29.2058C170.003 29.2644 170.079 29.2992 170.16 29.3029H175.009C175.05 29.3029 175.091 29.2948 175.129 29.279C175.168 29.2632 175.202 29.2399 175.231 29.2107C175.261 29.1815 175.284 29.1469 175.3 29.1087C175.315 29.0706 175.324 29.0297 175.324 28.9884V20.8536H177.898L183.004 29.0312C183.055 29.1113 183.124 29.1778 183.207 29.2251C183.289 29.2724 183.381 29.2991 183.476 29.3029H188.711C189.025 29.3029 189.14 29.0742 188.983 28.8025L183.733 20.3388ZM179.057 16.0498H175.324V9.3733H179.128C181.374 9.3733 181.774 10.2454 181.774 12.7045C181.774 15.4065 181.345 16.0355 179.057 16.0355V16.0498Z" fill="#EDEDED"/>
<path d="M222.737 29.7604C229.888 29.7604 232.076 25.8002 232.076 20.9107V4.81264C232.076 4.73302 232.044 4.65664 231.988 4.60034C231.932 4.54403 231.855 4.51238 231.776 4.51238H226.784C226.744 4.51044 226.703 4.51684 226.665 4.53105C226.627 4.54527 226.592 4.56703 226.562 4.5951C226.533 4.62318 226.51 4.65693 226.494 4.69432C226.478 4.73171 226.469 4.77198 226.47 4.81264V20.7249C226.47 23.5842 225.611 24.8995 222.737 24.8995C219.862 24.8995 218.946 23.6414 218.946 20.7249V4.81264C218.946 4.73302 218.915 4.65664 218.858 4.60034C218.802 4.54403 218.726 4.51238 218.646 4.51238H213.654C213.614 4.51044 213.573 4.51684 213.535 4.53105C213.497 4.54527 213.462 4.56703 213.433 4.5951C213.403 4.62318 213.38 4.65693 213.364 4.69432C213.348 4.73171 213.34 4.77198 213.34 4.81264V20.9107C213.34 25.8002 215.671 29.7604 222.737 29.7604Z" fill="#EDEDED"/>
<path d="M237.125 29.3029H241.959C242.001 29.3029 242.041 29.2948 242.08 29.279C242.118 29.2632 242.152 29.2399 242.182 29.2107C242.211 29.1815 242.234 29.1469 242.25 29.1087C242.266 29.0706 242.274 29.0297 242.274 28.9884V21.3968H246.994C252.829 21.3968 254.531 18.3802 254.531 12.9188C254.531 8.22954 254.059 4.51239 247.022 4.51239H237.125C237.085 4.51239 237.046 4.52016 237.01 4.53525C236.974 4.55034 236.94 4.57247 236.913 4.60035C236.885 4.62823 236.863 4.66131 236.847 4.69773C236.832 4.73416 236.825 4.77323 236.825 4.81265V28.9884C236.823 29.029 236.829 29.0696 236.843 29.1077C236.857 29.1458 236.879 29.1805 236.907 29.2099C236.935 29.2394 236.969 29.2627 237.007 29.2787C237.044 29.2947 237.084 29.3029 237.125 29.3029ZM242.274 9.28752H245.706C248.567 9.28752 248.824 10.131 248.824 12.8474C248.824 15.5638 248.453 16.5073 246.064 16.5073H242.26L242.274 9.28752Z" fill="#EDEDED"/>
<path d="M125.751 9.40191H132.13V28.9884C132.13 29.0718 132.163 29.1517 132.222 29.2107C132.281 29.2697 132.361 29.3029 132.445 29.3029H137.365C137.405 29.3029 137.446 29.2947 137.483 29.2787C137.52 29.2627 137.554 29.2394 137.582 29.2099C137.61 29.1805 137.632 29.1458 137.646 29.1077C137.661 29.0696 137.667 29.029 137.665 28.9884V9.40191H144.158C144.242 9.40191 144.322 9.36875 144.381 9.30977C144.44 9.25078 144.473 9.17076 144.473 9.08734V4.79833C144.473 4.75768 144.465 4.71749 144.449 4.6801C144.433 4.64271 144.409 4.60896 144.38 4.58088C144.351 4.55281 144.316 4.53097 144.278 4.51675C144.24 4.50253 144.199 4.49622 144.158 4.49816H125.751C125.71 4.49622 125.67 4.50253 125.632 4.51675C125.594 4.53097 125.559 4.55281 125.529 4.58088C125.5 4.60896 125.476 4.64271 125.46 4.6801C125.444 4.71749 125.436 4.75768 125.436 4.79833V9.08734C125.436 9.17076 125.469 9.25078 125.528 9.30977C125.587 9.36875 125.668 9.40191 125.751 9.40191Z" fill="#EDEDED"/>
<path d="M209.321 4.51239H190.971C190.891 4.51239 190.815 4.54404 190.758 4.60035C190.702 4.65665 190.67 4.73303 190.67 4.81265V9.10166C190.668 9.14227 190.675 9.18285 190.689 9.22094C190.703 9.25903 190.725 9.29389 190.753 9.3233C190.781 9.35271 190.815 9.37608 190.852 9.39206C190.89 9.40803 190.93 9.41628 190.971 9.41623H197.364V29.0026C197.364 29.086 197.397 29.1661 197.456 29.225C197.515 29.284 197.595 29.3172 197.678 29.3172H202.584C202.668 29.3172 202.748 29.284 202.807 29.225C202.866 29.1661 202.899 29.086 202.899 29.0026V9.41623H209.321C209.361 9.41628 209.402 9.40803 209.439 9.39206C209.477 9.37608 209.51 9.35271 209.538 9.3233C209.566 9.29389 209.588 9.25903 209.602 9.22094C209.617 9.18285 209.623 9.14227 209.621 9.10166V4.81265C209.621 4.73303 209.589 4.65665 209.533 4.60035C209.477 4.54404 209.4 4.51239 209.321 4.51239Z" fill="#EDEDED"/>
<path d="M106.972 29.0456C108.949 29.5116 110.975 29.7419 113.007 29.7318C119.844 29.7318 122.39 27.6588 122.39 22.0974C122.39 17.0221 120.588 15.6638 115.496 14.3485C112.264 13.5336 110.991 13.2334 110.991 11.0031C110.991 9.33043 111.763 8.78717 114.123 8.78717C116.138 8.79691 118.145 9.04641 120.101 9.53054L120.759 9.68787C120.797 9.69615 120.836 9.69622 120.874 9.68813C120.912 9.68004 120.948 9.66394 120.979 9.64093C121.01 9.61791 121.036 9.58854 121.055 9.55471C121.074 9.52088 121.085 9.48336 121.088 9.44477L121.489 5.15576C121.498 5.07115 121.475 4.98631 121.425 4.91763C121.374 4.84894 121.3 4.80129 121.217 4.78403L120.716 4.69826C118.556 4.33612 116.371 4.14495 114.18 4.12644C108.044 4.12644 105.441 6.24237 105.441 11.2033C105.441 16.6646 107.63 17.794 112.307 18.9235C115.51 19.7098 116.869 20.1244 116.869 22.3404C116.869 24.2419 116.283 25.0997 113.079 25.0997C111.148 25.0909 109.226 24.8411 107.358 24.3562L106.414 24.0846C106.378 24.0739 106.34 24.0712 106.303 24.0765C106.266 24.0819 106.231 24.0952 106.2 24.1156C106.168 24.136 106.142 24.163 106.122 24.1947C106.102 24.2263 106.09 24.262 106.085 24.299L105.57 28.3879C105.563 28.4719 105.584 28.5559 105.631 28.626C105.678 28.6961 105.747 28.7483 105.828 28.7739L106.972 29.0456Z" fill="#EDEDED"/>
<path d="M158.461 4.51239H152.482C152.395 4.51697 152.311 4.54638 152.24 4.59703C152.17 4.64769 152.115 4.7175 152.082 4.79834L144.216 28.9025C144.196 28.9468 144.188 28.9953 144.193 29.0434C144.197 29.0915 144.214 29.1377 144.241 29.1777C144.268 29.2176 144.305 29.2501 144.348 29.272C144.391 29.2939 144.439 29.3045 144.487 29.3029H149.579C149.663 29.2983 149.743 29.2686 149.809 29.2175C149.876 29.1665 149.925 29.0965 149.951 29.0169L151.381 23.9702H159.205L160.635 29.0169C160.661 29.0965 160.71 29.1665 160.777 29.2175C160.843 29.2686 160.923 29.2983 161.007 29.3029H166.213C166.262 29.3071 166.312 29.2984 166.357 29.2776C166.402 29.2568 166.441 29.2246 166.47 29.1842C166.499 29.1438 166.517 29.0966 166.522 29.0472C166.527 28.9978 166.519 28.9479 166.499 28.9025L158.818 4.79834C158.792 4.72179 158.744 4.65435 158.681 4.60375C158.618 4.55315 158.541 4.52144 158.461 4.51239ZM152.74 19.4096L155.4 10.2597L157.932 19.4096H152.74Z" fill="#EDEDED"/>
<path d="M187.266 40.3685H168.916C168.836 40.3685 168.76 40.4002 168.704 40.4565C168.647 40.5128 168.616 40.5891 168.616 40.6688V44.9578C168.614 44.9984 168.62 45.039 168.634 45.0771C168.649 45.1151 168.67 45.1499 168.698 45.1793C168.727 45.2087 168.76 45.2322 168.798 45.2482C168.835 45.2641 168.875 45.2723 168.916 45.2723H175.309V64.8587C175.309 64.9421 175.342 65.0222 175.401 65.0812C175.46 65.1401 175.54 65.1733 175.624 65.1733H180.53C180.613 65.1733 180.693 65.1401 180.752 65.0812C180.811 65.0222 180.844 64.9421 180.844 64.8587V45.2723H187.266C187.307 45.2723 187.347 45.2641 187.385 45.2482C187.422 45.2322 187.456 45.2087 187.484 45.1793C187.512 45.1499 187.534 45.1151 187.548 45.0771C187.562 45.039 187.569 44.9984 187.567 44.9578V40.6688C187.567 40.6293 187.559 40.5903 187.544 40.5538C187.529 40.5174 187.507 40.4843 187.479 40.4565C187.451 40.4286 187.418 40.4064 187.381 40.3914C187.345 40.3763 187.306 40.3685 187.266 40.3685Z" fill="#EDEDED"/>
<path d="M227.614 56.2092C230.474 55.1942 231.361 52.6065 231.361 48.5462C231.361 42.8276 229.931 40.3685 222.779 40.3685H214.083C214.004 40.3685 213.927 40.4002 213.871 40.4565C213.815 40.5128 213.783 40.5891 213.783 40.6688V64.8444C213.781 64.885 213.788 64.9256 213.802 64.9637C213.816 65.0018 213.838 65.0366 213.866 65.0661C213.894 65.0955 213.928 65.1188 213.965 65.1348C214.003 65.1508 214.043 65.159 214.083 65.159H218.918C219.001 65.159 219.081 65.1258 219.14 65.0668C219.199 65.0079 219.232 64.9278 219.232 64.8444V56.7096H221.821L226.913 64.9017C226.969 64.9753 227.04 65.0364 227.121 65.0807C227.203 65.1251 227.293 65.1517 227.385 65.159H232.62C232.934 65.159 233.049 64.9302 232.891 64.6586L227.614 56.2092ZM222.937 51.9202H219.204V45.2437H223.008C225.268 45.2437 225.669 46.1158 225.669 48.5748C225.683 51.2769 225.154 51.8916 222.937 51.8916V51.9202Z" fill="#EDEDED"/>
<path d="M199.609 39.9253C190.584 39.9253 189.598 45.4152 189.598 51.3627V54.1219C189.598 60.0979 190.584 65.5592 199.609 65.5592C208.634 65.5592 209.621 60.0836 209.621 54.1219V51.3627C209.607 45.4152 208.634 39.9253 199.609 39.9253ZM203.829 54.1362C203.829 58.654 203.571 60.7127 199.609 60.7127C195.648 60.7127 195.319 58.654 195.319 54.1362V51.377C195.319 46.8735 195.576 44.8005 199.609 44.8005C203.643 44.8005 203.829 46.8735 203.829 51.377V54.1362Z" fill="#EDEDED"/>
<path d="M244.119 50.4048L239.656 40.3971H233.549L241.287 56.581V64.873C241.285 64.9136 241.291 64.9542 241.306 64.9923C241.32 65.0304 241.342 65.0652 241.37 65.0946C241.398 65.124 241.432 65.1475 241.469 65.1634C241.506 65.1794 241.547 65.1876 241.587 65.1875H246.55C246.591 65.1876 246.631 65.1794 246.669 65.1634C246.706 65.1475 246.74 65.124 246.768 65.0946C246.796 65.0652 246.818 65.0304 246.832 64.9923C246.846 64.9542 246.853 64.9136 246.851 64.873V56.581L254.545 40.3971H248.653L244.119 50.4048Z" fill="#EDEDED"/>
<path d="M121.274 50.1903H111.262V45.1436H122.247C122.291 45.1437 122.335 45.1347 122.376 45.1173C122.417 45.0999 122.454 45.0744 122.485 45.0423C122.515 45.0103 122.539 44.9723 122.555 44.9307C122.571 44.8892 122.578 44.8449 122.576 44.8005V40.6401C122.576 40.5529 122.541 40.4693 122.479 40.4077C122.418 40.346 122.334 40.3113 122.247 40.3113H106.099C106.012 40.3113 105.928 40.346 105.867 40.4077C105.805 40.4693 105.77 40.5529 105.77 40.6401V64.7729C105.77 64.8155 105.779 64.8576 105.796 64.8967C105.812 64.9358 105.837 64.9712 105.867 65.0006C105.898 65.03 105.935 65.0529 105.974 65.0678C106.014 65.0827 106.057 65.0895 106.099 65.0875H110.876C110.919 65.0895 110.961 65.0827 111.001 65.0678C111.041 65.0529 111.077 65.03 111.108 65.0006C111.139 64.9712 111.163 64.9358 111.18 64.8967C111.197 64.8576 111.205 64.8155 111.205 64.7729V55.0369H121.274C121.365 55.0369 121.453 55.0007 121.517 54.9364C121.581 54.872 121.618 54.7848 121.618 54.6938V50.5192C121.614 50.4307 121.576 50.347 121.512 50.2857C121.448 50.2244 121.363 50.1902 121.274 50.1903Z" fill="#EDEDED"/>
<path d="M123.806 65.0446H128.898C128.979 65.0411 129.058 65.0134 129.125 64.9651C129.191 64.9167 129.241 64.8499 129.269 64.7729L130.7 59.7263H138.537L139.968 64.7729C139.992 64.8498 140.039 64.9173 140.103 64.966C140.167 65.0148 140.245 65.0422 140.325 65.0446H145.589C145.636 65.0491 145.684 65.041 145.728 65.0209C145.772 65.0009 145.809 64.9697 145.837 64.9305C145.864 64.8913 145.881 64.8455 145.885 64.7977C145.889 64.75 145.881 64.7019 145.86 64.6586L138.18 40.5544C138.146 40.4745 138.091 40.4055 138.02 40.3551C137.949 40.3046 137.866 40.2746 137.779 40.2684H131.801C131.712 40.272 131.626 40.3009 131.552 40.3515C131.479 40.4021 131.421 40.4724 131.386 40.5544L123.534 64.6586C123.514 64.7019 123.505 64.75 123.509 64.7977C123.513 64.8455 123.53 64.8913 123.558 64.9305C123.585 64.9697 123.623 65.0009 123.666 65.0209C123.71 65.041 123.758 65.0491 123.806 65.0446ZM134.69 46.03L137.236 55.1656H132.044L134.69 46.03Z" fill="#EDEDED"/>
<path d="M164.182 59.8262C164.182 59.8262 162.752 60.1694 162.165 60.2552C160.846 60.4762 159.512 60.6004 158.175 60.6268C154.07 60.6268 153.884 58.8827 153.884 54.079V51.3198C153.884 45.9442 154.714 44.8147 158.075 44.8147C159.752 44.8334 161.424 45.0154 163.066 45.358L164.139 45.6153C164.176 45.6261 164.215 45.6285 164.253 45.6223C164.291 45.6161 164.327 45.6015 164.358 45.5795C164.39 45.5576 164.416 45.5289 164.435 45.4955C164.454 45.4621 164.465 45.4249 164.468 45.3866L164.969 41.0976C164.983 40.9979 164.96 40.8965 164.905 40.8123C164.849 40.7281 164.765 40.6669 164.668 40.6401L164.01 40.4829L163.41 40.3542C161.613 40.0178 159.788 39.8503 157.96 39.8538C149.479 39.8538 148.106 44.3573 148.106 51.2912V54.0504C148.106 60.9986 148.749 65.4877 158.218 65.4877C160.19 65.4949 162.156 65.2839 164.082 64.8587L164.725 64.7015C164.822 64.6724 164.906 64.6113 164.963 64.5281C165.02 64.4449 165.048 64.3446 165.04 64.2439L164.539 59.9549C164.528 59.9204 164.508 59.8889 164.483 59.8629C164.457 59.8369 164.426 59.817 164.392 59.8046C164.357 59.7922 164.321 59.7878 164.284 59.7915C164.248 59.7953 164.213 59.8071 164.182 59.8262Z" fill="#EDEDED"/>
<path d="M50.4194 14.4201C50.1838 14.1042 49.8677 13.8574 49.5041 13.7053L18.2101 0.280666C17.6939 0.0641381 17.1343 -0.0292451 16.5757 0.00797837C16.0171 0.0452019 15.4749 0.211956 14.992 0.495064C14.992 0.495064 1.13285 8.31535 1.13285 8.35824C0.770322 8.57542 0.473686 8.88711 0.274663 9.25981C0.0756388 9.63251 -0.0182864 10.0523 0.00294332 10.4742V57.6533C-0.0160829 58.0417 0.0630386 58.4286 0.233011 58.7784C0.402984 59.1282 0.658337 59.4296 0.975517 59.6548L15.4354 67.904C15.792 68.0733 16.1735 68.1843 16.5653 68.2328C16.9724 68.2667 17.3821 68.2131 17.7667 68.0755L49.7615 54.3221C50.078 54.1835 50.3466 53.9547 50.5338 53.6644C50.7451 53.2796 50.8489 52.845 50.8342 52.4063V15.7782C50.8094 15.3031 50.6562 14.8436 50.3908 14.4486L50.4194 14.4201ZM36.6747 47.1166L16.5653 53.45V14.6917L36.6747 20.9822V47.1166Z" fill="#EDEDED"/>
<path d="M80.7409 0.881066C80.4823 0.605437 80.17 0.385792 79.8231 0.235778C79.4762 0.0857645 79.1021 0.00860042 78.7242 0.00898924H59.5016C59.367 0.0089759 59.2338 0.0357071 59.1096 0.0876105C58.9855 0.139514 58.8729 0.215568 58.7784 0.311345C58.6839 0.407122 58.6094 0.520656 58.5592 0.645464C58.5091 0.770272 58.4842 0.90381 58.4861 1.03831V8.64415C58.4861 8.91337 58.5931 9.17159 58.7835 9.36196C58.9739 9.55232 59.2322 9.65925 59.5016 9.65925H74.1617C74.3589 9.65925 74.5481 9.73755 74.6876 9.87696C74.827 10.0164 74.9054 10.2055 74.9054 10.4027C74.9067 10.5399 74.8669 10.6743 74.791 10.7887C74.743 10.8588 74.6905 10.9257 74.6337 10.9888L59.6446 23.3126C59.2295 23.6202 58.8928 24.0213 58.6617 24.4833C58.4306 24.9453 58.3116 25.4552 58.3144 25.9717V36.4512C58.3182 36.7217 58.4284 36.9799 58.6211 37.1699C58.8138 37.3599 59.0736 37.4663 59.3442 37.4663H84.2307C84.5 37.4663 84.7583 37.3594 84.9487 37.169C85.1392 36.9787 85.2461 36.7204 85.2461 36.4512V28.8168C85.2462 28.6841 85.2198 28.5528 85.1686 28.4305C85.1174 28.3081 85.0424 28.1971 84.9479 28.104C84.8534 28.0109 84.7413 27.9375 84.6182 27.888C84.4951 27.8386 84.3633 27.8142 84.2307 27.8161H70.586L83.8731 17.2508C85.146 16.0499 85.3034 15.8211 85.3034 13.648V6.49965C85.3037 6.12235 85.2293 5.74869 85.0844 5.40026C84.9396 5.05184 84.7272 4.73555 84.4595 4.46955L80.7409 0.881066Z" fill="#EDEDED"/>
<path d="M115.825 93.0804L111.005 86.0321H105.77V100H110.976V92.9517L115.811 100H121.031V86.0321H115.825V93.0804Z" fill="#EDEDED"/>
<path d="M179.915 90.7786C179.915 87.1759 177.054 86.0321 173.293 86.0321H166.756V99.9857H171.977V95.6395L175.08 100H181.059L176.854 94.7817C177.759 94.5915 178.566 94.0828 179.128 93.3482C179.69 92.6135 179.969 91.7017 179.915 90.7786ZM174.322 91.9223C173.895 92.1898 173.396 92.3196 172.892 92.2941H171.777V89.5348H172.864C173.367 89.5083 173.867 89.6382 174.294 89.9065C174.439 90.0343 174.553 90.1934 174.627 90.3717C174.702 90.5501 174.734 90.743 174.723 90.9359C174.735 91.1247 174.703 91.3138 174.628 91.4877C174.554 91.6616 174.439 91.8154 174.294 91.9367L174.322 91.9223Z" fill="#EDEDED"/>
<path d="M159.248 94.7531H164.225V91.3076H159.248V89.6635H164.64V86.0321H154.084V100H164.797V96.3686H159.248V94.7531Z" fill="#EDEDED"/>
<path d="M127.61 86.0464L122.132 100H127.925L128.426 98.1843H132.716L133.217 100H138.938L133.46 86.0464H127.61ZM129.284 94.9532L130.514 90.3497H130.657L131.872 94.9532H129.284Z" fill="#EDEDED"/>
<path d="M144.73 94.4529H144.587L142.042 86.0321H136.363L142.213 100H147.119L152.969 86.0321H147.305L144.73 94.4529Z" fill="#EDEDED"/>
</svg>
