<svg width="220" height="68" viewBox="0 0 220 68" fill="none" xmlns="http://www.w3.org/2000/svg">
<path fill-rule="evenodd" clip-rule="evenodd" d="M16.7276 0L39.5274 7.30346C47.1782 9.75411 52.3168 16.7958 52.3168 24.8264V43.1736C52.3168 51.2042 47.1758 58.2459 39.5274 60.6965L16.7276 68V0ZM21.1168 10.6243L34.2846 14.4615C39.3382 15.9353 42.8666 20.6378 42.8666 25.9003V41.8283C42.8666 47.0786 39.4959 51.6527 34.4786 53.2089L21.1168 57.3514V61.9934L38.1888 56.5224C44.0161 54.656 47.93 49.2917 47.93 43.176V24.8289C47.93 18.7132 44.0161 13.3489 38.1888 11.4824L21.1168 6.01148V10.6243ZM21.1168 19.7433L28.627 21.748C31.782 22.5915 33.9887 25.4615 33.9887 28.7266V39.2855C33.9887 42.5555 31.782 45.4254 28.6198 46.2666L21.1193 48.2615V52.7556L33.1812 49.0178C36.3507 48.0361 38.4822 45.1467 38.4822 41.8283V25.9003C38.4822 22.577 36.2537 19.6052 33.0599 18.6744L21.1217 15.1935V19.7433H21.1168ZM21.1168 43.7214L27.4897 42.027C28.7313 41.6974 29.597 40.5702 29.597 39.2855V28.7266C29.597 27.4443 28.7313 26.3172 27.4921 25.9875L21.1144 24.2835V43.7214H21.1168ZM8.034 59.5403L12.4232 63.8114V4.19107L8.034 8.46455V59.5403ZM0 16.2867L4.38924 12.0133V55.9916L0 51.7205V16.2867ZM73.3148 56.3576V11.6448C73.3148 11.0073 73.698 10.6267 74.3333 10.6267H91.6017C106.702 10.6267 115.306 18.844 115.306 34.0036C115.306 49.1632 106.705 57.3781 91.6017 57.3781H74.3333C73.6955 57.3781 73.3148 56.9951 73.3148 56.36V56.3576ZM85.0397 21.5807V46.4217H90.4547C98.7384 46.4217 103.198 42.3446 103.198 34.0012C103.198 25.6579 98.7384 21.5807 90.4547 21.5807H85.0397ZM143.15 9.73472C129.257 9.73472 118.999 19.5422 118.999 34.0012C118.999 48.4578 129.257 58.2677 143.15 58.2677C157.043 58.2677 167.3 48.4578 167.3 34.0012C167.3 19.5446 157.043 9.73472 143.15 9.73472ZM143.15 21.2632C150.221 21.2632 155.001 26.4844 155.001 34.0012C155.001 41.5156 150.221 46.7392 143.15 46.7392C136.078 46.7392 131.299 41.5156 131.299 34.0012C131.299 26.4869 136.078 21.2632 143.15 21.2632ZM169.017 45.8496C168.826 45.2121 169.08 44.7661 169.718 44.5771L178.574 42.4124C179.146 42.284 179.593 42.4755 179.847 43.0499C181.249 46.4266 183.606 47.8276 187.367 47.8276C190.425 47.8276 192.527 46.8095 192.527 44.6425C192.527 42.2864 190.488 41.1398 186.601 39.7388L181.758 38.0202C174.621 35.5356 170.096 30.8864 170.096 23.9441C170.096 15.6008 177.551 9.73956 186.855 9.73956C194.693 9.73956 200.937 13.3077 203.549 21.268C203.804 21.9055 203.486 22.4146 202.911 22.5406L193.609 25.0252C192.971 25.2167 192.591 24.9622 192.336 24.3877C190.934 21.0765 189.023 20.1845 186.664 20.1845C184.115 20.1845 182.204 21.3311 182.204 23.3066C182.204 25.2821 183.924 26.6178 188.703 28.2103L192.207 29.3569C200.491 32.159 204.57 36.3622 204.57 44.0704C204.57 52.3508 197.37 58.275 187.047 58.275C178.191 58.275 171.626 53.8803 169.015 45.8545L169.017 45.8496ZM208.967 10.6267C208.331 10.6267 207.948 11.0073 207.948 11.6448V56.3576C207.948 56.9927 208.329 57.3757 208.967 57.3757H218.844C219.479 57.3757 219.862 56.9951 219.862 56.3576V11.6448C219.862 11.0097 219.481 10.6267 218.844 10.6267H208.967Z" fill="white"/>
</svg>
