<svg width="368" height="38" viewBox="0 0 368 38" fill="none" xmlns="http://www.w3.org/2000/svg">
<g clip-path="url(#clip0_2025_4459)">
<path d="M5.57599 24.738L16.3695 38L19.535 35.5376L10.3892 24.5176L18.2841 14.5692L15.0727 12.2436L5.56836 24.738H5.57599ZM0 2.7436V37.3692H4.10381V1.8468L0 2.7436Z" fill="black"/>
<path d="M23.1738 30.7877C23.1738 28.3101 23.9976 26.4177 25.6529 25.1181C27.3005 23.8185 29.7033 23.1725 32.8536 23.1725H37.5829V21.6069C37.5829 17.8145 35.9124 15.9145 32.5866 15.9145C31.5187 15.9145 30.3974 16.0665 29.2227 16.3629C28.0481 16.6593 26.9725 17.0317 25.9885 17.4801L24.7833 14.5693C26.0038 13.8853 27.3158 13.3533 28.7346 12.9809C30.1457 12.6085 31.5187 12.4185 32.8613 12.4185C38.6356 12.4185 41.5189 15.5117 41.5189 21.6905V37.3693H38.4906L38.0024 34.6789C36.782 35.6669 35.4852 36.4269 34.097 36.9665C32.7163 37.5061 31.3967 37.7721 30.1457 37.7721C27.9718 37.7721 26.2708 37.1565 25.0427 35.9101C23.8069 34.6713 23.1891 32.9613 23.1891 30.7801M30.8933 34.4509C31.4577 34.4509 32.0374 34.3749 32.6477 34.2305C33.2579 34.0785 33.8605 33.8885 34.4707 33.6453C35.081 33.4021 35.6531 33.1133 36.1794 32.7713C36.7133 32.4293 37.1863 32.0645 37.6058 31.6693V25.9389H33.3418C31.1831 25.9389 29.6041 26.3113 28.6125 27.0561C27.6209 27.8009 27.1251 28.9865 27.1251 30.5977C27.1251 33.1665 28.3837 34.4509 30.9009 34.4509" fill="black"/>
<path d="M52.9144 37.3692H48.8105V2.7436L52.9144 1.8468V37.3692ZM63.8909 12.236L67.1022 14.5692L59.2074 24.5176L68.3532 35.5376L65.1876 38L54.3942 24.738L63.8909 12.2436V12.236Z" fill="black"/>
<path d="M71.9844 30.7877C71.9844 28.3101 72.8082 26.4177 74.4634 25.1181C76.1187 23.8185 78.5138 23.1725 81.6718 23.1725H86.4011V21.6069C86.4011 17.8145 84.7382 15.9145 81.4048 15.9145C80.3293 15.9145 79.208 16.0665 78.0333 16.3629C76.8586 16.6593 75.7754 17.0317 74.7991 17.4801L73.5939 14.5693C74.8143 13.8853 76.1263 13.3533 77.5375 12.9809C78.9486 12.6085 80.3217 12.4185 81.6642 12.4185C87.4309 12.4185 90.3218 15.5117 90.3218 21.6905V37.3693H87.2859L86.7977 34.6789C85.5773 35.6669 84.2805 36.4269 82.8923 36.9665C81.5116 37.5061 80.192 37.7721 78.9486 37.7721C76.7747 37.7721 75.0737 37.1565 73.838 35.9101C72.6022 34.6713 71.9844 32.9613 71.9844 30.7801M79.6885 34.4509C80.253 34.4509 80.8327 34.3749 81.443 34.2305C82.0456 34.0785 82.6558 33.8885 83.266 33.6453C83.8686 33.4021 84.4407 33.1133 84.9747 32.7713C85.5086 32.4293 85.9816 32.0645 86.3935 31.6693V25.9389H82.1295C79.9631 25.9389 78.3918 26.3113 77.4002 27.0561C76.4086 27.8009 75.9127 28.9865 75.9127 30.5977C75.9127 33.1665 77.1713 34.4509 79.6885 34.4509Z" fill="black"/>
<path d="M106.836 12.464C110.223 12.464 112.893 13.566 114.823 15.7776C116.76 17.9892 117.729 21.1584 117.729 25.2776C117.729 29.3968 116.768 32.4596 114.853 34.6408C112.939 36.822 110.261 37.9088 106.844 37.9088C103.427 37.9088 100.787 36.822 98.8576 34.6408C96.9201 32.4596 95.959 29.336 95.959 25.2776C95.959 21.2192 96.9354 17.9892 98.8805 15.7776C100.833 13.566 103.488 12.464 106.844 12.464M106.844 15.7776C104.701 15.7776 103.061 16.5832 101.916 18.1944C100.772 19.8056 100.2 22.1692 100.2 25.27C100.2 28.3708 100.772 30.666 101.916 32.2392C103.061 33.8048 104.701 34.5952 106.844 34.5952C108.987 34.5952 110.673 33.8124 111.817 32.2392C112.962 30.6736 113.534 28.348 113.534 25.27C113.534 22.192 112.962 19.8056 111.817 18.1944C110.673 16.5832 109.01 15.7776 106.844 15.7776Z" fill="black"/>
<path d="M123.809 4.8412L128.576 0L133.389 4.8412L128.576 9.5912L123.809 4.8412ZM131.909 12.8212V37.2932H125.342V12.8212H131.909Z" fill="black"/>
<path d="M138.522 12.5475H143.153L144.098 15.0555C145.204 14.0675 146.455 13.2999 147.836 12.7451C149.217 12.1903 150.552 11.9167 151.841 11.9167C154.572 11.9167 156.669 12.7299 158.141 14.3563C159.614 15.9827 160.346 18.3387 160.346 21.4167V37.0119H153.641V21.4167C153.641 20.0411 153.321 19.0455 152.672 18.4375C152.024 17.8219 150.971 17.5179 149.499 17.5179C148.896 17.5179 148.202 17.5787 147.409 17.7003C146.616 17.8219 145.883 17.9815 145.227 18.1943V37.0195H138.522V12.5475Z" fill="black"/>
<path d="M169.537 11.6964L175.068 30.8332L180.644 11.6052L187.074 13.3988L178.439 37.0196H171.65L163.016 13.4444L169.537 11.6964Z" fill="black"/>
<path d="M200.545 11.8332C203.901 11.8332 206.464 12.8744 208.219 14.9492C209.973 17.024 210.851 20.0488 210.851 24.0236C210.851 24.5632 210.82 25.118 210.759 25.6804C210.698 26.2504 210.637 26.6684 210.576 26.9344H195.953C196.106 28.9104 196.708 30.324 197.776 31.1904C198.844 32.0568 200.423 32.49 202.521 32.49C202.94 32.49 203.429 32.452 203.985 32.376C204.542 32.3 205.107 32.1936 205.694 32.0644C206.281 31.9276 206.838 31.7832 207.38 31.616C207.921 31.4488 208.387 31.2816 208.776 31.0992L210.217 35.5832C209.706 35.8492 209.111 36.1152 208.417 36.366C207.731 36.6168 206.998 36.8448 206.236 37.0348C205.473 37.2324 204.695 37.3844 203.917 37.506C203.139 37.6276 202.414 37.6884 201.758 37.6884C197.616 37.6884 194.512 36.6016 192.444 34.4356C190.377 32.2696 189.34 29.0472 189.34 24.776C189.34 20.5048 190.324 17.4648 192.284 15.2076C194.245 12.9504 196.998 11.8256 200.538 11.8256L200.545 11.8332ZM200.278 16.72C197.456 16.72 196.007 18.6504 195.915 22.5036H204.504C204.504 20.4136 204.184 18.924 203.535 18.0424C202.887 17.1608 201.804 16.72 200.271 16.72H200.278Z" fill="black"/>
<path d="M221.598 19.2281C221.598 19.9121 221.941 20.4821 222.635 20.9305C223.322 21.3789 224.557 21.9033 226.327 22.4961C228.875 23.3625 230.667 24.3733 231.705 25.5209C232.742 26.6685 233.253 28.1277 233.253 29.8909C233.253 32.3989 232.452 34.3293 230.843 35.6744C229.241 37.0197 226.846 37.6885 223.665 37.6885C222.223 37.6885 220.72 37.5289 219.142 37.2173C217.57 36.9057 216.06 36.4801 214.618 35.9405L215.877 30.9625C216.449 31.1449 217.09 31.3273 217.814 31.5249C218.531 31.7225 219.256 31.8897 219.973 32.0417C220.69 32.1937 221.369 32.3153 221.994 32.4217C222.627 32.5281 223.161 32.5813 223.611 32.5813C225.831 32.5813 226.937 31.8669 226.937 30.4305C226.937 30.1341 226.876 29.8453 226.754 29.5793C226.632 29.3133 226.403 29.0473 226.06 28.7965C225.717 28.5457 225.244 28.2721 224.641 27.9909C224.039 27.7097 223.245 27.3829 222.254 27.0257C220.934 26.5773 219.828 26.1137 218.951 25.6349C218.066 25.1561 217.357 24.6241 216.815 24.0465C216.273 23.4613 215.892 22.7925 215.671 22.0325C215.45 21.2725 215.335 20.3529 215.335 19.2737C215.335 18.1945 215.556 17.2065 216.006 16.2945C216.456 15.3825 217.082 14.5997 217.875 13.9385C218.669 13.2849 219.63 12.7681 220.751 12.3957C221.872 12.0233 223.116 11.8333 224.466 11.8333C227.341 11.8333 230.164 12.4793 232.925 13.7637L231.125 18.4681C230.705 18.2629 230.24 18.0577 229.729 17.8601C229.218 17.6625 228.684 17.5029 228.135 17.3661C227.578 17.2293 227.029 17.1305 226.495 17.0545C225.953 16.9785 225.457 16.9405 225.007 16.9405C223.924 16.9405 223.085 17.1381 222.49 17.5257C221.888 17.9133 221.59 18.4833 221.59 19.2281H221.598Z" fill="black"/>
<path d="M235.717 13.0416L239.538 12.5476V7.75195L246.198 6.31555V12.5476H253.307V17.48H246.198V27.6108C246.198 28.5684 246.251 29.3359 246.358 29.9212C246.465 30.5063 246.609 30.9623 246.808 31.2891C247.006 31.6159 247.265 31.8364 247.593 31.9352C247.921 32.0416 248.31 32.0947 248.76 32.0947C249.394 32.0947 250.072 32.0112 250.805 31.8516C251.537 31.6844 252.208 31.5019 252.803 31.2891L254.245 35.9024C254.001 36.0848 253.619 36.2747 253.101 36.4875C252.574 36.6927 251.979 36.8904 251.323 37.0728C250.66 37.2551 249.966 37.3995 249.233 37.5211C248.501 37.6427 247.784 37.7036 247.098 37.7036C242.056 37.7036 239.538 34.504 239.538 28.1124V17.4876H235.717V13.0492V13.0416Z" fill="black"/>
<path d="M258.304 12.5477H262.934L263.88 14.9721C264.902 13.9841 266.069 13.2165 267.389 12.6617C268.708 12.1069 270.043 11.8333 271.393 11.8333C274.391 11.8333 276.519 12.8821 277.778 14.9721C278.8 13.9537 279.982 13.1785 281.332 12.6389C282.682 12.0993 284.033 11.8333 285.383 11.8333C290.478 11.8333 293.034 14.9113 293.034 21.0673V37.0273H286.374V21.3409C286.374 19.9653 286.13 18.9697 285.634 18.3617C285.139 17.7461 284.155 17.4421 282.69 17.4421C282.087 17.4421 281.454 17.5105 280.775 17.6473C280.097 17.7841 279.509 17.9361 278.998 18.1185V37.0349H272.339V21.3485C272.339 19.9729 272.095 18.9773 271.599 18.3693C271.103 17.7537 270.119 17.4497 268.655 17.4497C268.052 17.4497 267.427 17.5181 266.763 17.6549C266.099 17.7917 265.52 17.9437 265.009 18.1261V37.0425H258.304V12.5477Z" fill="black"/>
<path d="M308.662 11.8332C312.019 11.8332 314.582 12.8744 316.336 14.9492C318.09 17.024 318.968 20.0488 318.968 24.0236C318.968 24.5632 318.937 25.118 318.876 25.6804C318.815 26.2504 318.754 26.6684 318.693 26.9344H304.07C304.223 28.9104 304.826 30.324 305.893 31.1904C306.961 32.0568 308.54 32.49 310.638 32.49C311.058 32.49 311.546 32.452 312.103 32.376C312.659 32.3 313.224 32.1936 313.811 32.0644C314.399 31.9276 314.955 31.7832 315.497 31.616C316.039 31.4488 316.504 31.2816 316.893 31.0992L318.335 35.5832C317.823 35.8492 317.229 36.1152 316.534 36.366C315.848 36.6168 315.116 36.8448 314.353 37.0348C313.59 37.2324 312.812 37.3844 312.034 37.506C311.256 37.6276 310.531 37.6884 309.875 37.6884C305.733 37.6884 302.629 36.6016 300.562 34.4356C298.494 32.2696 297.457 29.0472 297.457 24.776C297.457 20.5048 298.441 17.4648 300.401 15.2076C302.362 12.9504 305.115 11.8256 308.655 11.8256L308.662 11.8332ZM308.395 16.72C305.573 16.72 304.124 18.6504 304.032 22.5036H312.621C312.621 20.4136 312.301 18.924 311.653 18.0424C311.004 17.1608 309.921 16.72 308.388 16.72H308.395Z" fill="black"/>
<path d="M324.048 12.5475H328.678L329.624 15.0555C330.73 14.0675 331.981 13.2999 333.362 12.7451C334.742 12.1903 336.077 11.9167 337.366 11.9167C340.097 11.9167 342.195 12.7299 343.667 14.3563C345.139 15.9827 345.871 18.3387 345.871 21.4167V37.0119H339.166V21.4167C339.166 20.0411 338.846 19.0455 338.198 18.4375C337.549 17.8219 336.497 17.5179 335.024 17.5179C334.422 17.5179 333.728 17.5787 332.934 17.7003C332.141 17.8219 331.409 17.9815 330.753 18.1943V37.0195H324.048V12.5475Z" fill="black"/>
<path d="M349.464 13.0416L353.285 12.5476V7.75195L359.945 6.31555V12.5476H367.054V17.48H359.945V27.6108C359.945 28.5684 359.998 29.3359 360.105 29.9212C360.212 30.5063 360.356 30.9623 360.555 31.2891C360.753 31.6159 361.012 31.8364 361.34 31.9352C361.668 32.0416 362.057 32.0947 362.508 32.0947C363.141 32.0947 363.82 32.0112 364.552 31.8516C365.284 31.6844 365.955 31.5019 366.55 31.2891L367.992 35.9024C367.748 36.0848 367.367 36.2747 366.848 36.4875C366.321 36.6927 365.727 36.8904 365.071 37.0728C364.407 37.2551 363.713 37.3995 362.98 37.5211C362.248 37.6427 361.531 37.7036 360.845 37.7036C355.803 37.7036 353.285 34.504 353.285 28.1124V17.4876H349.464V13.0492V13.0416Z" fill="black"/>
</g>
<defs>
<clipPath id="clip0_2025_4459">
<rect width="368" height="38" fill="white"/>
</clipPath>
</defs>
</svg>
