<svg width="97" height="145" viewBox="0 0 97 145" fill="none" xmlns="http://www.w3.org/2000/svg">
<path fill-rule="evenodd" clip-rule="evenodd" d="M60.1544 46.7692V0H78.38V46.7692H60.1544ZM41.9288 40.6154V65.2308H23.7032V40.6154H5.47754V22.1539H41.9288V40.6154Z" fill="#BFBFBF"/>
<mask id="mask0_1366_2613" style="mask-type:luminance" maskUnits="userSpaceOnUse" x="5" y="0" width="74" height="66">
<path d="M60.1544 46.7692V0H78.38V46.7692H60.1544ZM41.9288 40.6154V65.2308H23.7032V40.6154H5.47754V22.1539H41.9288V40.6154Z" fill="white"/>
</mask>
<g mask="url(#mask0_1366_2613)">
<path d="M81.4172 -3.0769H2.43945V68.3077H81.4172V-3.0769Z" fill="#949494"/>
</g>
<path d="M60.1543 46.7693H41.9287V65.2308H60.1543V46.7693Z" fill="#191919"/>
<mask id="mask1_1366_2613" style="mask-type:luminance" maskUnits="userSpaceOnUse" x="41" y="46" width="20" height="20">
<path d="M60.1543 46.7693H41.9287V65.2308H60.1543V46.7693Z" fill="white"/>
</mask>
<g mask="url(#mask1_1366_2613)">
<path d="M572.902 -55.3845H-73.5V322.462H572.902V-55.3845Z" fill="#191919"/>
<mask id="mask2_1366_2613" style="mask-type:luminance" maskUnits="userSpaceOnUse" x="-74" y="-56" width="647" height="379">
<path d="M572.902 -55.3845H-73.5V322.462H572.902V-55.3845Z" fill="white"/>
</mask>
<g mask="url(#mask2_1366_2613)">
<path d="M63.1924 43.6924H38.8916V68.3078H63.1924V43.6924Z" fill="#191919"/>
</g>
</g>
<path d="M1 86.8308H1.78978V107.077H1V86.8308ZM2.09354 96.8923L11.9354 86.8308H12.9682L3.09595 96.8616L13.2415 107.077H12.148L2.09354 96.8923Z" fill="#191919" stroke="#191919"/>
<path d="M16.2188 86.8308H17.0389V107.077H16.2188V86.8308Z" fill="#191919" stroke="#191919"/>
<path d="M21.6553 86.8308H22.9007L30.3428 105.938H30.4036L37.8761 86.8308H39.1215V107.077H38.3317V87.7539H38.271L30.7377 107.077H30.0087L22.445 87.7539V107.077H21.6553V86.8308Z" fill="#191919" stroke="#191919"/>
<path d="M42.7061 97.2V96.8C42.7061 90.1231 46.1386 86.6154 51.5759 86.6154C54.1882 86.6154 55.4336 87.0769 56.5272 87.6307V88.3384C55.3425 87.7538 54.0363 87.323 51.5151 87.323C46.2601 87.323 43.5262 90.8615 43.5262 96.7384V97.2C43.5262 103.138 45.8652 106.615 51.667 106.615C53.5199 106.615 55.0691 106.308 56.436 105.877V98.7692H51.5759V98.1231H57.2258V106.338C55.5551 106.923 53.8541 107.323 51.6366 107.323C45.6829 107.323 42.7061 103.754 42.7061 97.2Z" fill="#191919" stroke="#191919"/>
<path d="M61.5088 86.8308H62.3289V107.077H61.5088V86.8308Z" fill="#191919" stroke="#191919"/>
<path d="M65.5488 105.908V105.2C66.9765 106.031 69.0117 106.615 71.138 106.615C75.0565 106.615 76.7272 104.892 76.7272 102C76.7272 99.1077 74.935 98.0615 72.2012 97.1692L70.9254 96.7384C67.4321 95.5384 65.9741 94.2154 65.9741 91.323C65.9741 88.6769 67.8574 86.6154 71.7152 86.6154C73.9022 86.6154 75.4818 87.1384 76.5146 87.7231V88.4615C75.5122 87.8461 73.8415 87.323 71.6848 87.323C68.3434 87.323 66.7639 88.9846 66.7639 91.2615C66.7639 93.8154 67.8878 94.8307 71.1988 96.0307L72.4442 96.4C75.5122 97.4769 77.5474 98.6154 77.5474 101.938C77.5474 105.262 75.6337 107.323 71.1684 107.323C68.8294 107.323 66.7639 106.646 65.5488 105.908Z" fill="#191919" stroke="#191919"/>
<path d="M86.9944 86.8308H87.7842L95.3782 107.077H94.558L91.9457 100.092H82.8025L80.1598 107.077H79.4004L86.9944 86.8308ZM83.0455 99.3539H91.6723L87.4197 87.9385H87.3589L83.0455 99.3539Z" fill="#191919" stroke="#191919"/>
<path d="M26.2422 123.754H27.032V143.292H37.3598V144H26.2422V123.754Z" fill="#191919" stroke="#191919"/>
<path d="M46.3508 123.754H47.1406L54.7346 144H53.9145L51.3021 137.015H42.159L39.5162 144H38.7568L46.3508 123.754ZM42.402 136.277H51.0288L46.7761 124.862H46.7154L42.402 136.277Z" fill="#191919" stroke="#191919"/>
<path d="M57.5293 123.754H63.1185C67.3104 123.754 69.1026 125.354 69.1026 128.646C69.1026 131.508 67.3711 133.015 65.2448 133.415V133.446C67.5534 133.631 70.1354 134.831 70.1354 138.462C70.1354 142.092 68.009 144 63.9994 144H57.5293V123.754ZM63.2096 133.169C66.1257 133.169 68.3128 131.723 68.3128 128.739C68.3128 125.754 66.794 124.492 63.1185 124.492H58.3191V133.169H63.2096ZM63.969 143.292C67.4926 143.292 69.3152 141.754 69.3152 138.431C69.3152 135.108 67.0674 133.877 63.3615 133.877H58.3191V143.292H63.969Z" fill="#191919" stroke="#191919"/>
</svg>
