<svg width="104" height="157" viewBox="0 0 104 157" fill="none" xmlns="http://www.w3.org/2000/svg">
<path fill-rule="evenodd" clip-rule="evenodd" d="M65.1947 50.7903V0.352905H84.8498V50.7903H65.1947ZM45.5397 44.1538V70.6998H25.8846V44.1538H6.22949V24.2443H45.5397V44.1538Z" fill="#BFBFBF"/>
<mask id="mask0_1464_2405" style="mask-type:luminance" maskUnits="userSpaceOnUse" x="6" y="0" width="79" height="71">
<path d="M65.1947 50.7903V0.352905H84.8498V50.7903H65.1947ZM45.5397 44.1538V70.6998H25.8846V44.1538H6.22949V24.2443H45.5397V44.1538Z" fill="white"/>
</mask>
<g mask="url(#mask0_1464_2405)">
<path d="M88.1261 -2.96533H2.9541V74.0181H88.1261V-2.96533Z" fill="#949494"/>
</g>
<path d="M65.1941 50.7903H45.5391V70.6998H65.1941V50.7903Z" fill="#191919"/>
<mask id="mask1_1464_2405" style="mask-type:luminance" maskUnits="userSpaceOnUse" x="45" y="50" width="21" height="21">
<path d="M65.1941 50.7903H45.5391V70.6998H65.1941V50.7903Z" fill="white"/>
</mask>
<g mask="url(#mask1_1464_2405)">
<path d="M618.157 -59.3756H-78.9434V348.106H618.157V-59.3756Z" fill="#191919"/>
<mask id="mask2_1464_2405" style="mask-type:luminance" maskUnits="userSpaceOnUse" x="-79" y="-60" width="698" height="409">
<path d="M618.157 -59.3756H-78.9434V348.106H618.157V-59.3756Z" fill="white"/>
</mask>
<g mask="url(#mask2_1464_2405)">
<path d="M68.4695 47.472H42.2627V74.0181H68.4695V47.472Z" fill="#191919"/>
</g>
</g>
<path d="M1.40039 93.994H2.25211V115.828H1.40039V93.994ZM2.5797 104.845L13.1934 93.994H14.3072L3.66073 104.812L14.6021 115.828H13.4227L2.5797 104.845Z" fill="#191919" stroke="#191919"/>
<path d="M17.8125 93.994H18.697V115.828H17.8125V93.994Z" fill="#191919" stroke="#191919"/>
<path d="M23.6758 93.994H25.0189L33.0447 114.6H33.1102L41.1688 93.994H42.5119V115.828H41.6602V94.9895H41.5947L33.4706 115.828H32.6844L24.5275 94.9895V115.828H23.6758V93.994Z" fill="#191919" stroke="#191919"/>
<path d="M46.3779 105.176V104.745C46.3779 97.5445 50.0796 93.7617 55.9434 93.7617C58.7606 93.7617 60.1037 94.2595 61.283 94.8567V95.6199C60.0055 94.9895 58.5968 94.5249 55.8779 94.5249C50.2107 94.5249 47.2624 98.3409 47.2624 104.679V105.176C47.2624 111.581 49.7848 115.33 56.0417 115.33C58.04 115.33 59.7106 114.999 61.1848 114.534V106.869H55.9434V106.172H62.0365V115.032C60.2348 115.662 58.4003 116.094 56.0089 116.094C49.5883 116.094 46.3779 112.244 46.3779 105.176Z" fill="#191919" stroke="#191919"/>
<path d="M66.6553 93.994H67.5398V115.828H66.6553V93.994Z" fill="#191919" stroke="#191919"/>
<path d="M71.0117 114.567V113.804C72.5514 114.7 74.7462 115.33 77.0393 115.33C81.2651 115.33 83.0668 113.472 83.0668 110.353C83.0668 107.234 81.1341 106.106 78.1858 105.143L76.81 104.679C73.0427 103.385 71.4703 101.958 71.4703 98.8386C71.4703 95.9849 73.5014 93.7617 77.6617 93.7617C80.0203 93.7617 81.7237 94.3258 82.8375 94.9563V95.7527C81.7565 95.089 79.9548 94.5249 77.6289 94.5249C74.0255 94.5249 72.3221 96.3168 72.3221 98.7723C72.3221 101.526 73.5341 102.621 77.1048 103.916L78.4479 104.314C81.7565 105.475 83.9513 106.703 83.9513 110.287C83.9513 113.87 81.8875 116.094 77.072 116.094C74.5496 116.094 72.3221 115.364 71.0117 114.567Z" fill="#191919" stroke="#191919"/>
<path d="M94.1398 93.994H94.9915L103.181 115.828H102.297L99.4794 108.296H89.6191L86.7692 115.828H85.9502L94.1398 93.994ZM89.8812 107.499H99.1846L94.5984 95.1886H94.5329L89.8812 107.499Z" fill="#191919" stroke="#191919"/>
<path d="M28.6221 133.813H29.4738V154.884H40.6117V155.647H28.6221V133.813Z" fill="#191919" stroke="#191919"/>
<path d="M50.3078 133.813H51.1595L59.3491 155.647H58.4646L55.6474 148.115H45.7871L42.9371 155.647H42.1182L50.3078 133.813ZM46.0492 147.318H55.3526L50.7664 135.008H50.7009L46.0492 147.318Z" fill="#191919" stroke="#191919"/>
<path d="M62.3633 133.813H68.3908C72.9115 133.813 74.8443 135.538 74.8443 139.089C74.8443 142.175 72.977 143.801 70.6839 144.232V144.265C73.1736 144.465 75.958 145.759 75.958 149.674C75.958 153.59 73.665 155.647 69.3408 155.647H62.3633V133.813ZM68.4891 143.967C71.6339 143.967 73.9925 142.407 73.9925 139.189C73.9925 135.97 72.3546 134.609 68.3908 134.609H63.215V143.967H68.4891ZM69.3081 154.884C73.1081 154.884 75.0736 153.225 75.0736 149.641C75.0736 146.057 72.6494 144.73 68.6529 144.73H63.215V154.884H69.3081Z" fill="#191919" stroke="#191919"/>
</svg>
