<svg width="101" height="150" viewBox="0 0 101 150" fill="none" xmlns="http://www.w3.org/2000/svg">
<path fill-rule="evenodd" clip-rule="evenodd" d="M58.7605 48.7325L58.8703 0L78.2419 0.0448899L78.132 48.7774L58.7605 48.7325ZM39.3308 67.9242L19.9592 67.8793L20.0173 42.2306L0.645719 42.1857L0.690925 22.9492L39.4341 23.0389L39.3308 67.9242Z" fill="white"/>
<path d="M58.7605 48.6876H39.3889V67.9242H58.7605V48.6876Z" fill="#838383"/>
<path d="M0 90.4309H0.839427V111.527H0V90.4309ZM1.16229 100.915L11.6229 90.4309H12.7271L2.22774 100.883L13.0177 111.527H11.8554L1.16229 100.915Z" fill="white"/>
<path d="M16.1753 90.4309H17.047V111.527H16.1753V90.4309Z" fill="white"/>
<path d="M21.9545 90.4309H23.2459L31.156 110.309H31.2205L39.1694 90.4309H40.4608V111.527H39.6278V91.3927H39.5632L31.6403 111.527H30.8654L22.8262 91.3927V111.527H21.9545V90.4309Z" fill="white"/>
<path d="M44.3287 101.267V100.851C44.3287 93.8935 47.977 90.2385 53.7561 90.2385C56.5327 90.2385 57.8565 90.7195 59.0188 91.2966V92.0339C57.3604 91.2436 55.5285 90.8798 53.6916 90.9759C48.1061 90.9759 45.2004 94.6629 45.2004 100.787V101.267C45.2004 107.455 47.6864 111.078 53.853 111.078C55.5724 111.082 57.2821 110.822 58.9219 110.309V102.871H53.7561V102.197H59.7614V110.757C57.8569 111.442 55.8461 111.79 53.8207 111.783C47.4927 111.783 44.3287 108.064 44.3287 101.267Z" fill="white"/>
<path d="M64.3136 90.4309H65.2177V111.527H64.346L64.3136 90.4309Z" fill="white"/>
<path d="M68.6077 110.309V109.603C70.4316 110.583 72.4747 111.09 74.5483 111.078C78.7132 111.078 80.4889 109.283 80.4889 106.269C80.4889 103.255 78.5517 102.165 75.6783 101.235L74.3223 100.787C70.6094 99.5362 69.0597 98.1576 69.0597 95.1438C69.0597 92.3866 71.0614 90.2385 75.1618 90.2385C76.9334 90.1857 78.6892 90.583 80.263 91.3927V92.1622C78.6772 91.3196 76.8945 90.9102 75.0972 90.9759C71.5457 90.9759 69.8668 92.7072 69.8668 95.0797C69.8668 97.7408 71.0614 98.7988 74.5806 100.049L75.872 100.434C79.1329 101.556 81.2961 102.742 81.2961 106.205C81.2961 109.667 79.2621 111.816 74.516 111.816C72.4497 111.819 70.4164 111.301 68.6077 110.309Z" fill="white"/>
<path d="M91.4016 90.4309H92.241L100.312 111.527H99.4408L96.6642 104.249H86.9784L84.1373 111.527H83.3301L91.4016 90.4309ZM87.2044 103.48H96.3736L91.8536 91.5851H91.789L87.2044 103.48Z" fill="white"/>
<path d="M26.2162 128.904H27.0557V149.263H38.0329V150H26.2162V128.904Z" fill="white"/>
<path d="M47.5895 128.904H48.429L56.5004 150H55.6287L52.8521 142.722H43.1663L40.3251 150H39.518L47.5895 128.904ZM43.3923 141.953H52.5616L48.0415 130.058H47.977L43.3923 141.953Z" fill="white"/>
<path d="M59.4707 128.904H65.4114C69.8669 128.904 71.7717 130.571 71.7717 134.002C71.8479 135.191 71.4672 136.365 70.7064 137.288C69.9455 138.21 68.8611 138.811 67.6714 138.971V139.003C70.1252 139.195 72.8372 140.446 72.8372 144.229C72.8372 148.012 70.5771 150 66.3154 150H59.4707V128.904ZM65.5082 138.715C68.6077 138.715 70.9323 137.208 70.9323 134.098C70.9323 130.988 69.318 129.673 65.4114 129.673H60.3102V138.715H65.5082ZM66.3154 149.263C70.0605 149.263 71.9977 147.66 71.9977 144.197C71.9977 140.734 69.6085 139.452 65.6696 139.452H60.3102V149.263H66.3154Z" fill="white"/>
</svg>
