<svg width="220" height="112" viewBox="0 0 220 112" fill="none" xmlns="http://www.w3.org/2000/svg">
<path fill-rule="evenodd" clip-rule="evenodd" d="M110.192 10.6794L134.186 22.8074C134.671 23.0529 135.254 22.7202 135.254 22.197V12.8208C135.254 12.5656 135.105 12.3298 134.868 12.2103L110.874 0.0823371C110.389 -0.16313 109.805 0.169542 109.805 0.692774V10.069C109.805 10.3241 109.954 10.5599 110.192 10.6794ZM108.736 59.4594L84.7427 47.3314C84.5052 47.2119 84.3559 46.9762 84.3559 46.721V37.3448C84.3559 36.8216 84.9395 36.4889 85.4248 36.7344L109.418 48.8624C109.656 48.9819 109.805 49.2177 109.805 49.4728V58.849C109.805 59.3722 109.222 59.7049 108.736 59.4594ZM189.058 82.1393L180.368 95.5754H180.374L189.699 109.825C190.035 110.339 189.645 111.004 189.01 111.004H182.003C181.721 111.004 181.457 110.862 181.311 110.63L175.254 101.06L169.197 110.63C169.051 110.862 168.79 111.004 168.505 111.004H161.498C160.86 111.004 160.473 110.339 160.809 109.825L170.134 95.5754L161.443 82.1393C161.111 81.6257 161.498 80.9636 162.132 80.9636H169.316C169.604 80.9636 169.872 81.1122 170.018 81.3512L175.251 90.0491L180.483 81.3512C180.625 81.1122 180.894 80.9636 181.185 80.9636H188.369C189.003 80.9636 189.39 81.6257 189.058 82.1393ZM70.4368 111.004H89.1336C89.836 111.004 90.406 110.465 90.406 109.796V105.307C90.406 104.641 89.8326 104.099 89.1336 104.099H76.4259V99.4382H89.1336C89.836 99.4382 90.406 98.8988 90.406 98.2303V93.7408C90.406 93.0755 89.8326 92.5329 89.1336 92.5329H76.4259V87.8722H89.1336C89.836 87.8722 90.406 87.3328 90.406 86.6643V82.1748C90.406 81.5095 89.8326 80.9668 89.1336 80.9668H70.4368C69.7378 80.9668 69.1678 81.5062 69.1678 82.1748V82.2039V109.777V109.796C69.1678 110.465 69.7344 111.004 70.4368 111.004ZM21.2383 109.797C21.2383 110.462 20.6716 111.005 19.9692 111.005V111.008H1.26907C0.566671 111.008 0 110.469 0 109.8V109.778V82.1787C0 81.5101 0.566671 80.9707 1.26907 80.9707H5.99246C6.69147 80.9707 7.26153 81.5133 7.26153 82.1787V104.103H19.9692C20.6682 104.103 21.2383 104.645 21.2383 105.311V109.797ZM26.5046 80.9668H31.2246C31.927 80.9668 32.4937 81.5095 32.4937 82.1748V109.793C32.4937 110.458 31.9236 111.001 31.2246 111.001H26.5046C25.8022 111.001 25.2355 110.458 25.2355 109.793V82.1748C25.2355 81.5095 25.8056 80.9668 26.5046 80.9668ZM58.6352 80.9668H63.3552L63.3585 80.9733C64.0575 80.9733 64.6276 81.5127 64.6276 82.1813V109.803C64.6276 110.468 64.0609 111.011 63.3585 111.011H58.6657C58.5503 111.011 58.4384 110.995 58.3332 110.969C58.3298 110.965 58.323 110.965 58.3162 110.965C58.2857 110.959 58.2551 110.949 58.228 110.94C58.2144 110.936 58.2008 110.933 58.1872 110.927C58.1669 110.917 58.1465 110.911 58.1262 110.901L58.0651 110.872C58.0515 110.865 58.0413 110.859 58.0278 110.852L58.0145 110.846L58.0003 110.838C57.9823 110.829 57.9643 110.818 57.9463 110.807C57.9429 110.804 57.9361 110.801 57.9328 110.798C57.8072 110.717 57.6952 110.617 57.6036 110.494L44.2987 93.4049V109.806C44.2987 110.471 43.7321 111.014 43.0297 111.014H38.3097C37.6107 111.014 37.0406 110.475 37.0406 109.806V82.1845C37.0406 81.5191 37.6073 80.9765 38.3097 80.9765H43.0025H43.0466H43.1145C43.1264 80.9765 43.1374 80.9781 43.1484 80.9798C43.1545 80.9807 43.1606 80.9815 43.1668 80.9822L43.1741 80.9827L43.1824 80.983C43.1908 80.983 43.2002 80.9846 43.2095 80.9862C43.2188 80.9878 43.2282 80.9894 43.2366 80.9894L43.2468 80.992L43.2585 80.9945L43.274 80.9975C43.2867 80.9999 43.2994 81.0024 43.3113 81.0056C43.3181 81.0072 43.3257 81.0088 43.3334 81.0104C43.341 81.0121 43.3486 81.0137 43.3554 81.0153C43.3826 81.0218 43.4063 81.0282 43.4335 81.0379C43.447 81.0411 43.4606 81.0444 43.4742 81.0508C43.4906 81.0567 43.5059 81.0626 43.5206 81.0685L43.5488 81.0799L43.5895 81.0993C43.6131 81.1089 43.6367 81.1217 43.6603 81.1345L43.6604 81.1346L43.6604 81.1346L43.6605 81.1347L43.6608 81.1348L43.6685 81.1398L43.6686 81.1398C43.6774 81.1457 43.6878 81.1525 43.6981 81.1574C43.7069 81.1634 43.7157 81.1689 43.7243 81.1743L43.7247 81.1746C43.7338 81.1803 43.7426 81.1858 43.7511 81.1917L43.7564 81.1954L43.766 81.2026C43.7711 81.2075 43.777 81.2115 43.7829 81.2155L43.7864 81.2179C43.7911 81.2212 43.7958 81.2245 43.7999 81.2285C43.8237 81.2446 43.844 81.264 43.8678 81.2834C43.8712 81.2866 43.8754 81.2898 43.8797 81.2931L43.8855 81.2976C43.8877 81.2993 43.8897 81.301 43.8915 81.3027C43.9187 81.3254 43.9458 81.3512 43.9696 81.377C43.9696 81.3803 43.9764 81.3867 43.9764 81.3867C44.0137 81.4287 44.0476 81.4675 44.0782 81.5127L57.3661 98.5791V82.1748C57.3661 81.5095 57.9328 80.9668 58.6352 80.9668ZM192.946 80.9668H218.799C219.247 80.9668 219.61 81.3124 219.61 81.7388V87.3587C219.61 87.785 219.247 88.1306 218.799 88.1306H209.892V110.236C209.892 110.662 209.529 111.007 209.081 111.007H202.661C202.213 111.007 201.85 110.662 201.85 110.236V88.1306H192.943C192.495 88.1306 192.132 87.785 192.132 87.3587V81.7388C192.132 81.3124 192.495 80.9668 192.943 80.9668H192.946ZM137.46 111.004H157.08V111.014C157.528 111.014 157.891 110.668 157.891 110.242V104.877C157.891 104.451 157.524 104.105 157.08 104.105H143.911V99.4447H157.08C157.528 99.4447 157.891 99.0991 157.891 98.6728V93.308C157.891 92.8817 157.524 92.5361 157.08 92.5361H143.911V87.8754H157.08C157.528 87.8754 157.891 87.5299 157.891 87.1035V81.7388C157.891 81.3124 157.524 80.9668 157.08 80.9668H137.945H137.46C137.012 80.9668 136.649 81.3124 136.649 81.7388V82.2039V109.777V110.232C136.649 110.659 137.012 111.004 137.46 111.004ZM130.803 80.9668H125.16C124.712 80.9668 124.349 81.3124 124.349 81.7388V98.5823L111.061 81.5159C111.03 81.4707 110.996 81.4319 110.959 81.39L110.957 81.3878L110.954 81.3849C110.953 81.3833 110.952 81.3815 110.952 81.3803C110.928 81.3544 110.901 81.3286 110.874 81.306C110.871 81.3027 110.866 81.2995 110.862 81.2963L110.856 81.2917L110.854 81.29L110.85 81.2866C110.827 81.2672 110.806 81.2478 110.782 81.2317C110.772 81.222 110.759 81.2155 110.749 81.2058C110.743 81.2016 110.738 81.1975 110.732 81.1936C110.724 81.1882 110.716 81.1831 110.707 81.1778C110.699 81.1723 110.69 81.1667 110.681 81.1606C110.667 81.1542 110.654 81.1445 110.643 81.138C110.62 81.1251 110.596 81.1122 110.572 81.1025L110.531 81.0831C110.508 81.0734 110.484 81.0637 110.457 81.0541C110.45 81.051 110.444 81.0487 110.437 81.0467C110.43 81.0445 110.423 81.0428 110.416 81.0411C110.389 81.0314 110.365 81.025 110.338 81.0185C110.331 81.0169 110.323 81.0152 110.316 81.0136L110.31 81.0123L110.294 81.0088C110.27 81.0024 110.243 80.9991 110.219 80.9927L110.214 80.9925C110.211 80.9923 110.207 80.9919 110.203 80.9913L110.192 80.9894C110.183 80.9878 110.173 80.9862 110.165 80.9862C110.141 80.9862 110.121 80.9798 110.097 80.9798H110.029H109.985H104.831C104.383 80.9798 104.02 81.3254 104.02 81.7517V110.248C104.02 110.675 104.383 111.02 104.831 111.02H110.474C110.922 111.02 111.285 110.675 111.285 110.248V93.4114L124.59 110.5C124.681 110.623 124.793 110.723 124.919 110.804C124.92 110.805 124.921 110.806 124.923 110.807L124.925 110.809L124.928 110.811C124.93 110.812 124.931 110.813 124.932 110.814C124.959 110.83 124.987 110.846 125.014 110.859C125.027 110.865 125.037 110.872 125.051 110.878L125.112 110.907C125.118 110.91 125.125 110.913 125.131 110.916L125.143 110.92C125.153 110.924 125.163 110.928 125.173 110.933C125.187 110.94 125.2 110.943 125.214 110.946C125.225 110.95 125.237 110.954 125.249 110.958C125.267 110.963 125.284 110.968 125.302 110.972L125.309 110.972C125.313 110.972 125.317 110.973 125.319 110.975C125.424 111.001 125.536 111.017 125.652 111.017H130.806C131.254 111.017 131.617 110.672 131.617 110.245V81.7485C131.617 81.3221 131.254 80.9765 130.806 80.9765L130.803 80.9668ZM134.186 55.8162L84.7427 30.827C84.5052 30.7075 84.3559 30.4718 84.3559 30.2166V20.8404C84.3559 20.3172 84.9395 19.9845 85.4248 20.23L134.868 45.2191C135.105 45.3386 135.254 45.5744 135.254 45.8296V55.2058C135.254 55.729 134.671 56.0617 134.186 55.8162ZM84.7427 14.3226L134.186 39.3118C134.671 39.5573 135.254 39.2246 135.254 38.7014V29.3252C135.254 29.07 135.105 28.8342 134.868 28.7147L85.4248 3.72558C84.9395 3.48011 84.3559 3.81279 84.3559 4.33602V13.7122C84.3559 13.9674 84.5052 14.2031 84.7427 14.3226Z" fill="white"/>
</svg>
