<svg width="33" height="34" viewBox="0 0 33 34" fill="none" xmlns="http://www.w3.org/2000/svg">
<path d="M30.4342 0.333252H2.73248C2.09619 0.333252 1.48596 0.592498 1.03603 1.05396C0.586109 1.51542 0.333344 2.1413 0.333344 2.7939V31.2059C0.333344 31.8585 0.586109 32.4844 1.03603 32.9459C1.48596 33.4073 2.09619 33.6666 2.73248 33.6666H30.4342C31.0705 33.6666 31.6807 33.4073 32.1307 32.9459C32.5806 32.4844 32.8333 31.8585 32.8333 31.2059V2.7939C32.8333 2.1413 32.5806 1.51542 32.1307 1.05396C31.6807 0.592498 31.0705 0.333252 30.4342 0.333252ZM10.0201 28.7291H5.13387V12.8101H10.0201V28.7291ZM7.57362 10.6041C7.01936 10.6009 6.47844 10.4294 6.01913 10.1112C5.55982 9.79295 5.20271 9.34232 4.99287 8.81615C4.78302 8.28998 4.72985 7.71185 4.84005 7.15472C4.95026 6.59758 5.21891 6.08641 5.6121 5.68573C6.00528 5.28504 6.50538 5.01279 7.04929 4.90334C7.59319 4.79388 8.15652 4.85213 8.66817 5.07073C9.17983 5.28933 9.61689 5.65848 9.92418 6.1316C10.2315 6.60472 10.3952 7.1606 10.3948 7.72909C10.4 8.10969 10.3305 8.48747 10.1903 8.83992C10.0502 9.19238 9.84228 9.51228 9.57901 9.78057C9.31575 10.0489 9.00251 10.26 8.65798 10.4015C8.31345 10.543 7.94467 10.6119 7.57362 10.6041ZM28.0306 28.743H23.1465V20.0462C23.1465 17.4814 22.0835 16.6897 20.7113 16.6897C19.2623 16.6897 17.8405 17.8101 17.8405 20.111V28.743H12.9542V12.8217H17.6531V15.0277H17.7163C18.188 14.0485 19.8401 12.3749 22.3611 12.3749C25.0875 12.3749 28.0328 14.0346 28.0328 18.8958L28.0306 28.743Z" fill="white"/>
</svg>
