<svg width="20" height="20" viewBox="0 0 20 20" fill="none" xmlns="http://www.w3.org/2000/svg">
<path d="M15.2193 0.203613H4.25136C2.08832 0.203613 0.334229 1.9577 0.334229 4.12074V15.0887C0.334229 17.2517 2.08832 19.0058 4.25136 19.0058H15.2193C17.3831 19.0058 19.1365 17.2517 19.1365 15.0887V4.12074C19.1365 1.9577 17.3831 0.203613 15.2193 0.203613ZM6.60164 15.0887H4.25136V6.47102H6.60164V15.0887ZM5.4265 5.47764C4.66971 5.47764 4.0555 4.85873 4.0555 4.09567C4.0555 3.33262 4.66971 2.71371 5.4265 2.71371C6.18329 2.71371 6.79749 3.33262 6.79749 4.09567C6.79749 4.85873 6.18407 5.47764 5.4265 5.47764ZM16.0028 15.0887H13.6525V10.6984C13.6525 8.05981 10.5188 8.25958 10.5188 10.6984V15.0887H8.16849V6.47102H10.5188V7.85377C11.6124 5.82783 16.0028 5.6782 16.0028 9.79353V15.0887Z" fill="#939393"/>
</svg>
