<svg width="221" height="65" viewBox="0 0 221 65" fill="none" xmlns="http://www.w3.org/2000/svg">
<path d="M52.6853 9.97378L53.6875 0H12.4437L0 55.0262H43.1172L42.163 65H83.3921L95.8357 9.97378H52.6853ZM16.4669 5.00155H48.1316L46.6247 19.986H30.8633L31.3607 15.0376H26.3077L23.9902 38.0954H33.737L34.2565 33.0938H29.548L30.3622 24.9894H46.1236L43.6073 50.0247H6.2854L16.4669 5.00155ZM79.3688 59.9984H47.6913L48.3802 52.7884L52.1806 14.9772H89.5503L86.2326 29.6464H69.2002L69.6975 24.698H64.6445L62.3271 47.7557H72.0739L72.5934 42.7542H67.883L68.6973 34.6498H85.1016L79.3688 59.9984Z" fill="#EDEDED"/>
<path fill-rule="evenodd" clip-rule="evenodd" d="M111.432 15.6095V19.2017H113.256V23.4445C113.256 23.6314 113.191 23.7945 113.062 23.9338C112.933 24.0731 112.775 24.1428 112.589 24.1428H110.38C110.192 24.1428 110.036 24.0731 109.907 23.9338C109.778 23.7927 109.713 23.6314 109.713 23.4445V10.2836C109.713 10.0966 109.778 9.93351 109.907 9.79422C110.036 9.65494 110.192 9.58529 110.38 9.58529H112.589C112.775 9.58529 112.933 9.65494 113.062 9.79422C113.191 9.93535 113.256 10.0985 113.256 10.2836V11.9789H117.92V9.85104C117.92 6.7812 116.47 5.24536 113.571 5.24536H109.152C106.252 5.24536 104.802 6.7812 104.802 9.85104V23.9137C104.802 26.9835 106.252 28.5193 109.152 28.5193H113.571C116.47 28.5193 117.92 26.9835 117.92 23.9137V15.6095H111.432ZM132.581 23.9137V9.85105C132.581 6.78121 131.131 5.24537 128.232 5.24537H123.567C120.668 5.24537 119.218 6.78121 119.218 9.85105V23.9137C119.218 26.9835 120.668 28.5194 123.567 28.5194H128.232C131.131 28.5194 132.581 26.9835 132.581 23.9137ZM127.67 10.2836V23.4463C127.67 23.6314 127.605 23.7945 127.476 23.9338C127.347 24.0731 127.189 24.1428 127.003 24.1428H124.794C124.606 24.1428 124.45 24.0731 124.321 23.9338C124.192 23.7927 124.127 23.6314 124.127 23.4445V10.2836C124.127 10.0966 124.192 9.93352 124.321 9.79423C124.45 9.65495 124.606 9.5853 124.794 9.5853H127.003C127.189 9.5853 127.347 9.65495 127.476 9.79423C127.605 9.93536 127.67 10.0985 127.67 10.2836ZM147.328 9.85105V23.9137C147.328 26.9835 145.878 28.5194 142.979 28.5194H138.315C135.415 28.5194 133.965 26.9835 133.965 23.9137V9.85105C133.965 6.78121 135.415 5.24537 138.315 5.24537H142.979C145.878 5.24537 147.328 6.78121 147.328 9.85105ZM142.419 23.4463V10.2836C142.419 10.0985 142.354 9.93536 142.225 9.79423C142.097 9.65495 141.938 9.5853 141.752 9.5853H139.543C139.355 9.5853 139.199 9.65495 139.07 9.79423C138.941 9.93352 138.876 10.0966 138.876 10.2836V23.4445C138.876 23.6314 138.941 23.7927 139.07 23.9338C139.199 24.0731 139.355 24.1428 139.543 24.1428H141.752C141.938 24.1428 142.097 24.0731 142.225 23.9338C142.354 23.7945 142.419 23.6314 142.419 23.4463ZM162.076 10.1992C162.076 7.12932 160.626 5.59348 157.727 5.59348H148.713V28.1692H157.727C160.626 28.1692 162.076 26.6334 162.076 23.5635V10.1992ZM157.165 10.6335V23.0962C157.165 23.2831 157.101 23.4462 156.972 23.5855C156.843 23.7248 156.684 23.7944 156.498 23.7944H153.623V9.93524H156.498C156.684 9.93524 156.843 10.0049 156.972 10.1442C157.101 10.2853 157.165 10.4484 157.165 10.6335ZM170.537 19.2017V15.6095H177.025V23.9137C177.025 26.9835 175.575 28.5193 172.676 28.5193H168.257C165.357 28.5193 163.907 26.9835 163.907 23.9137V9.85104C163.907 6.7812 165.357 5.24536 168.257 5.24536H172.676C175.575 5.24536 177.025 6.7812 177.025 9.85104V11.9789H172.361V10.2836C172.361 10.0985 172.296 9.93535 172.167 9.79422C172.038 9.65494 171.88 9.58529 171.694 9.58529H169.485C169.297 9.58529 169.141 9.65494 169.012 9.79422C168.883 9.93351 168.818 10.0966 168.818 10.2836V23.4445C168.818 23.6314 168.883 23.7927 169.012 23.9338C169.141 24.0731 169.297 24.1428 169.485 24.1428H171.694C171.88 24.1428 172.038 24.0731 172.167 23.9338C172.296 23.7945 172.361 23.6314 172.361 23.4445V19.2017H170.537ZM214.512 15.6095V19.2017H216.336V23.4445C216.336 23.6314 216.272 23.7945 216.143 23.9338C216.014 24.0731 215.855 24.1428 215.669 24.1428H213.46C213.273 24.1428 213.116 24.0731 212.987 23.9338C212.858 23.7927 212.794 23.6314 212.794 23.4445V10.2836C212.794 10.0966 212.858 9.93352 212.987 9.79423C213.116 9.65495 213.273 9.5853 213.46 9.5853H215.669C215.855 9.5853 216.014 9.65495 216.143 9.79423C216.272 9.93536 216.336 10.0985 216.336 10.2836V11.9789H221V9.85105C221 6.78121 219.551 5.24537 216.651 5.24537H212.232C209.332 5.24537 207.882 6.78121 207.882 9.85105V23.9137C207.882 26.9835 209.332 28.5194 212.232 28.5194H216.651C219.551 28.5194 221 26.9835 221 23.9137V15.6095H214.512ZM187.338 5.24537C190.237 5.24537 191.687 6.78121 191.687 9.85105V28.1711H186.776V20.5982H183.233V28.1711H178.322V9.85105C178.322 6.78121 179.772 5.24537 182.672 5.24537H187.338ZM183.233 16.8301H186.776V10.2836C186.776 10.0985 186.711 9.93535 186.582 9.79423C186.453 9.65495 186.295 9.5853 186.109 9.5853H183.9C183.712 9.5853 183.556 9.65495 183.427 9.79423C183.298 9.93352 183.233 10.0966 183.233 10.2836V16.8301ZM201.411 28.1711H206.32V9.85105C206.32 6.78121 204.87 5.24537 201.971 5.24537H197.622C194.722 5.24537 193.272 6.78121 193.272 9.85105V28.1711H198.183V10.6648C198.183 10.4778 198.248 10.3147 198.377 10.1754C198.506 10.0362 198.662 9.96651 198.85 9.96651H200.744C200.93 9.96651 201.089 10.0362 201.217 10.1754C201.346 10.3166 201.411 10.4797 201.411 10.6648V28.1711ZM109.713 54.1264H115.08V58.6551H104.802V36.0758H109.713V54.1264ZM129.357 40.333C129.357 37.2632 127.907 35.7273 125.007 35.7273H120.341C117.442 35.7273 115.992 37.2632 115.992 40.333V58.6531H120.903V51.0802H124.445V58.6531H129.357V40.333ZM124.445 47.3121H120.903V40.7655C120.903 40.5786 120.967 40.4155 121.096 40.2762C121.225 40.1369 121.382 40.0673 121.57 40.0673H123.778C123.965 40.0673 124.123 40.1369 124.252 40.2762C124.381 40.4173 124.445 40.5804 124.445 40.7655V47.3121ZM141.856 46.3006C143.376 46.8358 144.137 48.0692 144.137 49.9991V54.0476C144.137 57.1175 142.687 58.6533 139.788 58.6533H130.774V36.0758H139.508C142.407 36.0758 143.857 37.6116 143.857 40.6814V42.7396C143.857 44.6035 143.19 45.7893 141.856 46.3006ZM138.279 40.4175H135.683V45.4282H138.279C138.467 45.4282 138.624 45.3586 138.752 45.2193C138.881 45.08 138.946 44.9169 138.946 44.73V41.1158C138.946 40.9307 138.881 40.7676 138.752 40.6265C138.624 40.4872 138.467 40.4175 138.279 40.4175ZM139.226 53.5803V49.5464C139.226 49.3613 139.161 49.1982 139.032 49.0571C138.904 48.9178 138.745 48.8481 138.559 48.8481H135.683V54.2767H138.559C138.745 54.2767 138.904 54.2071 139.032 54.0678C139.161 53.9285 139.226 53.7654 139.226 53.5803ZM153.203 42.0081H157.865V40.333C157.865 37.2632 156.416 35.7273 153.516 35.7273H149.624C146.724 35.7273 145.274 37.2632 145.274 40.333V44.8342C145.274 47.9041 146.724 49.4399 149.624 49.4399H152.781C152.967 49.4399 153.126 49.5095 153.255 49.6488C153.384 49.79 153.448 49.9531 153.448 50.1382V54.1592C153.448 54.3461 153.384 54.5093 153.255 54.6485C153.126 54.7878 152.969 54.8575 152.781 54.8575H150.607C150.42 54.8575 150.263 54.7878 150.134 54.6485C150.005 54.5074 149.941 54.3461 149.941 54.1592V52.0571H145.276V54.3956C145.276 57.4655 146.726 59.0013 149.626 59.0013H153.765C156.664 59.0013 158.114 57.4655 158.114 54.3956V49.5462C158.114 46.5222 156.664 44.9863 153.765 44.9405H150.607C150.42 44.9405 150.263 44.8709 150.134 44.7316C150.005 44.5905 149.941 44.4292 149.941 44.2422V40.6391C149.941 40.4521 150.005 40.289 150.134 40.1497C150.263 40.0104 150.42 39.9408 150.607 39.9408H152.536C152.722 39.9408 152.881 40.0104 153.01 40.1497C153.139 40.2909 153.203 40.454 153.203 40.6391V42.0081Z" fill="#EDEDED"/>
</svg>
