<svg width="48" height="32" viewBox="0 0 48 32" fill="none" xmlns="http://www.w3.org/2000/svg">
<path d="M26.0851 4.91017L26.5812 0H6.161L0 27.0898H21.3478L20.8753 32H41.2883L47.4493 4.91017H26.0851ZM8.15295 2.4623H23.8304L23.0844 9.83928H15.2807L15.527 7.40315H13.0252L11.8778 18.7546H16.7036L16.9608 16.2923H14.6295L15.0327 12.3025H22.8363L21.5904 24.6275H3.11196L8.15295 2.4623ZM39.2963 29.5377H23.6124L23.9536 25.9882L25.8351 7.37337H44.3373L42.6947 14.5952H34.2617L34.508 12.159H32.0062L30.8588 23.5105H35.6845L35.9417 21.0482H33.6096L34.0127 17.0584H42.1347L39.2963 29.5377Z" fill="#EDEDED"/>
</svg>
