<svg width="360" height="640" viewBox="0 0 360 640" fill="none" xmlns="http://www.w3.org/2000/svg">
<path d="M1923 26.5C1923 157.009 1816.99 277.316 1640.68 365.473C1464.84 453.391 1221.37 508 952 508C682.629 508 439.155 453.391 263.32 365.473C87.0065 277.316 -19 157.009 -19 26.5C-19 -104.009 87.0065 -224.316 263.32 -312.473C439.155 -400.391 682.629 -455 952 -455C1221.37 -455 1464.84 -400.391 1640.68 -312.473C1816.99 -224.316 1923 -104.009 1923 26.5Z" stroke="url(#paint0_linear_101_2933)" stroke-opacity="0.4" stroke-width="16"/>
<path d="M1923 80.8892C1923 211.398 1816.99 331.706 1640.68 419.862C1464.84 507.78 1221.37 562.389 952 562.389C682.629 562.389 439.155 507.78 263.32 419.862C87.0065 331.706 -19 211.398 -19 80.8892C-19 -49.6199 87.0065 -169.927 263.32 -258.084C439.155 -346.002 682.629 -400.611 952 -400.611C1221.37 -400.611 1464.84 -346.002 1640.68 -258.084C1816.99 -169.927 1923 -49.6199 1923 80.8892Z" stroke="url(#paint1_linear_101_2933)" stroke-opacity="0.4" stroke-width="16"/>
<path d="M1923 135.277C1923 265.786 1816.99 386.094 1640.68 474.251C1464.84 562.168 1221.37 616.777 952 616.777C682.629 616.777 439.155 562.168 263.32 474.251C87.0065 386.094 -19 265.786 -19 135.277C-19 4.76828 87.0065 -115.539 263.32 -203.696C439.155 -291.614 682.629 -346.223 952 -346.223C1221.37 -346.223 1464.84 -291.614 1640.68 -203.696C1816.99 -115.539 1923 4.76828 1923 135.277Z" stroke="url(#paint2_linear_101_2933)" stroke-opacity="0.4" stroke-width="16"/>
<path d="M1923 189.667C1923 320.176 1816.99 440.483 1640.68 528.64C1464.84 616.557 1221.37 671.167 952 671.167C682.629 671.167 439.155 616.557 263.32 528.64C87.0065 440.483 -19 320.176 -19 189.667C-19 59.1574 87.0065 -61.15 263.32 -149.307C439.155 -237.224 682.629 -291.833 952 -291.833C1221.37 -291.833 1464.84 -237.224 1640.68 -149.307C1816.99 -61.15 1923 59.1574 1923 189.667Z" stroke="url(#paint3_linear_101_2933)" stroke-opacity="0.4" stroke-width="16"/>
<path d="M1923 244.055C1923 374.564 1816.99 494.871 1640.68 583.028C1464.84 670.946 1221.37 725.555 952 725.555C682.629 725.555 439.155 670.946 263.32 583.028C87.0065 494.871 -19 374.564 -19 244.055C-19 113.546 87.0065 -6.76181 263.32 -94.9187C439.155 -182.836 682.629 -237.445 952 -237.445C1221.37 -237.445 1464.84 -182.836 1640.68 -94.9187C1816.99 -6.76181 1923 113.546 1923 244.055Z" stroke="url(#paint4_linear_101_2933)" stroke-opacity="0.4" stroke-width="16"/>
<path d="M1923 298.445C1923 428.954 1816.99 549.262 1640.68 637.419C1464.84 725.336 1221.37 779.945 952 779.945C682.629 779.945 439.155 725.336 263.32 637.419C87.0065 549.262 -19 428.954 -19 298.445C-19 167.936 87.0065 47.6288 263.32 -40.528C439.155 -128.446 682.629 -183.055 952 -183.055C1221.37 -183.055 1464.84 -128.446 1640.68 -40.528C1816.99 47.6288 1923 167.936 1923 298.445Z" stroke="url(#paint5_linear_101_2933)" stroke-opacity="0.4" stroke-width="16"/>
<path d="M1923 352.833C1923 483.343 1816.99 603.65 1640.68 691.807C1464.84 779.724 1221.37 834.333 952 834.333C682.629 834.333 439.155 779.724 263.32 691.807C87.0065 603.65 -19 483.343 -19 352.833C-19 222.324 87.0065 102.017 263.32 13.8601C439.155 -74.0575 682.629 -128.667 952 -128.667C1221.37 -128.667 1464.84 -74.0575 1640.68 13.8601C1816.99 102.017 1923 222.324 1923 352.833Z" stroke="url(#paint6_linear_101_2933)" stroke-opacity="0.4" stroke-width="16"/>
<path d="M1923 407.223C1923 537.732 1816.99 658.039 1640.68 746.196C1464.84 834.114 1221.37 888.723 952 888.723C682.629 888.723 439.155 834.114 263.32 746.196C87.0065 658.039 -19 537.732 -19 407.223C-19 276.714 87.0065 156.406 263.32 68.2493C439.155 -19.6683 682.629 -74.2773 952 -74.2773C1221.37 -74.2773 1464.84 -19.6683 1640.68 68.2493C1816.99 156.406 1923 276.714 1923 407.223Z" stroke="url(#paint7_linear_101_2933)" stroke-opacity="0.4" stroke-width="16"/>
<path d="M1923 461.611C1923 592.12 1816.99 712.427 1640.68 800.584C1464.84 888.502 1221.37 943.111 952 943.111C682.629 943.111 439.155 888.502 263.32 800.584C87.0065 712.427 -19 592.12 -19 461.611C-19 331.102 87.0065 210.794 263.32 122.637C439.155 34.7199 682.629 -19.8892 952 -19.8892C1221.37 -19.8892 1464.84 34.7199 1640.68 122.637C1816.99 210.794 1923 331.102 1923 461.611Z" stroke="url(#paint8_linear_101_2933)" stroke-opacity="0.4" stroke-width="16"/>
<path d="M1923 570.389C1923 700.898 1816.99 821.206 1640.68 909.362C1464.84 997.28 1221.37 1051.89 952 1051.89C682.629 1051.89 439.155 997.28 263.32 909.362C87.0065 821.206 -19 700.898 -19 570.389C-19 439.88 87.0065 319.573 263.32 231.416C439.155 143.498 682.629 88.8892 952 88.8892C1221.37 88.8892 1464.84 143.498 1640.68 231.416C1816.99 319.573 1923 439.88 1923 570.389Z" stroke="url(#paint9_linear_101_2933)" stroke-opacity="0.4" stroke-width="16"/>
<path d="M1923 511.167C1923 641.676 1816.99 761.983 1640.68 850.14C1464.84 938.057 1221.37 992.667 952 992.667C682.629 992.667 439.155 938.057 263.32 850.14C87.0065 761.983 -19 641.676 -19 511.167C-19 380.657 87.0065 260.35 263.32 172.193C439.155 84.2756 682.629 29.6665 952 29.6665C1221.37 29.6665 1464.84 84.2756 1640.68 172.193C1816.99 260.35 1923 380.657 1923 511.167Z" stroke="url(#paint10_linear_101_2933)" stroke-opacity="0.4" stroke-width="16"/>
<defs>
<linearGradient id="paint0_linear_101_2933" x1="952" y1="-463" x2="952" y2="516" gradientUnits="userSpaceOnUse">
<stop stop-color="#8C8C8C"/>
<stop offset="1"/>
</linearGradient>
<linearGradient id="paint1_linear_101_2933" x1="952" y1="-408.611" x2="952" y2="570.389" gradientUnits="userSpaceOnUse">
<stop stop-color="#8C8C8C"/>
<stop offset="1"/>
</linearGradient>
<linearGradient id="paint2_linear_101_2933" x1="952" y1="-354.223" x2="952" y2="624.777" gradientUnits="userSpaceOnUse">
<stop stop-color="#8C8C8C"/>
<stop offset="1"/>
</linearGradient>
<linearGradient id="paint3_linear_101_2933" x1="952" y1="-299.833" x2="952" y2="679.167" gradientUnits="userSpaceOnUse">
<stop stop-color="#8C8C8C"/>
<stop offset="1"/>
</linearGradient>
<linearGradient id="paint4_linear_101_2933" x1="952" y1="-245.445" x2="952" y2="733.555" gradientUnits="userSpaceOnUse">
<stop stop-color="#8C8C8C"/>
<stop offset="1"/>
</linearGradient>
<linearGradient id="paint5_linear_101_2933" x1="952" y1="-191.055" x2="952" y2="787.945" gradientUnits="userSpaceOnUse">
<stop stop-color="#8C8C8C"/>
<stop offset="1"/>
</linearGradient>
<linearGradient id="paint6_linear_101_2933" x1="952" y1="-136.667" x2="952" y2="842.333" gradientUnits="userSpaceOnUse">
<stop stop-color="#8C8C8C"/>
<stop offset="1"/>
</linearGradient>
<linearGradient id="paint7_linear_101_2933" x1="952" y1="-82.2773" x2="952" y2="896.723" gradientUnits="userSpaceOnUse">
<stop stop-color="#8C8C8C"/>
<stop offset="1"/>
</linearGradient>
<linearGradient id="paint8_linear_101_2933" x1="952" y1="-27.8892" x2="952" y2="951.111" gradientUnits="userSpaceOnUse">
<stop stop-color="#8C8C8C"/>
<stop offset="1"/>
</linearGradient>
<linearGradient id="paint9_linear_101_2933" x1="952" y1="80.8892" x2="952" y2="1059.89" gradientUnits="userSpaceOnUse">
<stop stop-color="#8C8C8C"/>
<stop offset="1"/>
</linearGradient>
<linearGradient id="paint10_linear_101_2933" x1="952" y1="21.6665" x2="952" y2="1000.67" gradientUnits="userSpaceOnUse">
<stop stop-color="#8C8C8C"/>
<stop offset="1"/>
</linearGradient>
</defs>
</svg>
