<svg width="300" height="110" viewBox="0 0 300 110" fill="none" xmlns="http://www.w3.org/2000/svg">
<path d="M0 0V110H299.275V0H0ZM296.618 107.343H2.65694V2.65694H296.618V107.336V107.343ZM131.608 99.2124H130.277V10.7876H131.608V99.2058V99.2124ZM154.915 49.1168H152.185V32.5159H154.915V49.1168ZM166.868 41.9783C166.868 40.9795 166.655 40.2204 166.229 39.6876C165.802 39.1616 165.15 38.8952 164.284 38.8952H164.118C163.612 38.8952 163.132 39.0217 162.673 39.2748C162.213 39.5278 161.84 39.914 161.561 40.4401C161.274 40.9595 161.134 41.6254 161.134 42.4311V49.1168H158.524V36.9708H160.828V38.7953C161.208 38.1294 161.727 37.6034 162.38 37.2171C163.039 36.8309 163.818 36.6378 164.717 36.6378H164.957C166.335 36.6378 167.427 37.064 168.253 37.9163C169.079 38.7687 169.485 40.0006 169.485 41.6187V49.1168H166.874V41.9783H166.868ZM173.427 47.8715C172.395 46.8394 171.875 45.3544 171.875 43.4233V42.6376C171.875 41.3724 172.115 40.2936 172.601 39.4013C173.081 38.509 173.76 37.8231 174.632 37.3503C175.505 36.8775 176.503 36.6378 177.642 36.6378H177.882C179.007 36.6378 179.959 36.9042 180.739 37.4436C181.524 37.9829 182.084 38.6954 182.437 39.5744L180.352 40.5C180.113 40.0139 179.793 39.621 179.393 39.328C178.994 39.0351 178.488 38.8886 177.888 38.8886H177.675C176.743 38.8886 175.977 39.1949 175.385 39.8142C174.792 40.4334 174.492 41.359 174.492 42.591V43.4699C174.492 44.7485 174.779 45.694 175.358 46.2934C175.937 46.8927 176.703 47.1923 177.669 47.1923H177.882C178.514 47.1923 179.047 47.0525 179.473 46.7795C179.899 46.4998 180.232 46.1269 180.472 45.6541L182.51 46.7195C182.164 47.512 181.584 48.1579 180.778 48.664C179.973 49.17 179.007 49.4231 177.888 49.4231H177.649C175.877 49.4231 174.472 48.9037 173.44 47.8715H173.427ZM189.808 49.4231H190.161C191.286 49.4231 192.259 49.21 193.078 48.7905C193.903 48.371 194.523 47.7983 194.949 47.0725L193.051 45.8405C192.765 46.3333 192.392 46.6996 191.926 46.9459C191.46 47.1923 190.874 47.3122 190.161 47.3122H189.808C188.876 47.3122 188.143 47.0192 187.611 46.4332C187.085 45.8472 186.792 44.9616 186.745 43.7763H195.355V42.3313C195.355 40.5933 194.876 39.2082 193.917 38.1827C192.958 37.1572 191.659 36.6378 190.015 36.6378H189.801C188.077 36.6378 186.712 37.1705 185.699 38.236C184.687 39.3014 184.181 40.7797 184.181 42.6575V43.4433C184.181 45.3544 184.674 46.8327 185.666 47.8649C186.652 48.9037 188.037 49.4164 189.808 49.4164V49.4231ZM187.711 39.5811C188.243 39.0417 188.942 38.7753 189.808 38.7753H189.995C190.88 38.7753 191.573 39.035 192.072 39.5478C192.572 40.0605 192.818 40.8063 192.818 41.7852V41.9517H186.772C186.865 40.9062 187.178 40.1205 187.711 39.5811ZM204.251 49.4231C205.25 49.4231 206.136 49.19 206.908 48.7372C207.681 48.2844 208.293 47.6052 208.746 46.7062C209.199 45.8139 209.419 44.7285 209.419 43.4433V42.6575C209.419 41.359 209.192 40.267 208.746 39.3747C208.293 38.4824 207.681 37.8031 206.908 37.337C206.136 36.8709 205.25 36.6378 204.251 36.6378H204.112C203.179 36.6378 202.374 36.8243 201.708 37.1972C201.035 37.5701 200.509 38.0895 200.13 38.7487V36.9708H197.826V53.858H200.436V47.6917C200.829 48.2444 201.341 48.6706 201.967 48.9703C202.593 49.2699 203.306 49.4231 204.112 49.4231H204.251ZM203.466 47.1923C202.946 47.1923 202.447 47.0591 201.974 46.7994C201.501 46.5397 201.115 46.1269 200.822 45.5675C200.529 45.0082 200.383 44.2823 200.383 43.3967V42.6575C200.383 41.7586 200.529 41.0327 200.822 40.4734C201.115 39.9207 201.495 39.5145 201.961 39.2615C202.427 39.0084 202.933 38.8819 203.466 38.8819H203.659C204.558 38.8819 205.31 39.1815 205.91 39.7809C206.509 40.3802 206.809 41.3324 206.809 42.6309V43.4366C206.809 44.7352 206.509 45.6807 205.91 46.2867C205.31 46.886 204.558 47.1857 203.659 47.1857H203.466V47.1923ZM212.788 39.1283H210.225V36.9708H212.788V33.3882H215.399V36.9708H219.361L219.054 39.1283H215.399V45.128C215.399 45.8073 215.558 46.2934 215.871 46.5864C216.184 46.8793 216.664 47.0259 217.296 47.0259H219.361V49.23H217.037C215.505 49.23 214.413 48.8837 213.76 48.1978C213.115 47.512 212.788 46.5264 212.788 45.2479V39.1283ZM221.658 32.0831H224.362V34.8132H221.658V32.0831ZM221.705 36.9708H224.315V49.1168H221.705V36.9708ZM229.662 48.7239C230.521 49.19 231.5 49.4231 232.592 49.4231H232.805C233.897 49.4231 234.876 49.19 235.749 48.7239C236.621 48.2578 237.3 47.5719 237.799 46.6729C238.299 45.774 238.545 44.6885 238.545 43.4233V42.6376C238.545 41.3724 238.299 40.2936 237.799 39.4013C237.3 38.509 236.621 37.8231 235.749 37.3503C234.876 36.8775 233.897 36.6378 232.805 36.6378H232.592C231.5 36.6378 230.528 36.8775 229.662 37.3503C228.803 37.8231 228.117 38.509 227.611 39.4013C227.105 40.2936 226.852 41.379 226.852 42.6642V43.4233C226.852 44.6885 227.105 45.774 227.611 46.6729C228.117 47.5719 228.803 48.2578 229.662 48.7239ZM229.462 42.591C229.462 41.3457 229.762 40.4135 230.361 39.8075C230.961 39.2015 231.706 38.8952 232.592 38.8952H232.785C233.684 38.8952 234.437 39.2015 235.036 39.8075C235.635 40.4135 235.935 41.3457 235.935 42.591V43.4699C235.935 44.7218 235.635 45.6541 235.036 46.2667C234.437 46.886 233.684 47.1923 232.785 47.1923H232.592C231.706 47.1923 230.967 46.886 230.361 46.2667C229.762 45.6474 229.462 44.7152 229.462 43.4699V42.591ZM252.063 41.6187V49.1168H249.453V41.9783C249.453 40.9795 249.24 40.2204 248.813 39.6876C248.387 39.1616 247.735 38.8952 246.869 38.8952H246.703C246.196 38.8952 245.717 39.0217 245.258 39.2748C244.798 39.5278 244.425 39.914 244.146 40.4401C243.859 40.9595 243.719 41.6254 243.719 42.4311V49.1168H241.109V36.9708H243.413V38.7953C243.793 38.1294 244.312 37.6034 244.965 37.2171C245.617 36.8309 246.403 36.6378 247.302 36.6378H247.542C248.92 36.6378 250.012 37.064 250.838 37.9163C251.664 38.7687 252.07 40.0006 252.07 41.6187H252.063ZM162.719 57.5937C161.627 56.6881 160.142 56.2286 158.258 56.2286H152.185V72.8295H154.915V66.9962H158.258C160.142 66.9962 161.627 66.55 162.719 65.6577C163.811 64.7654 164.357 63.4935 164.357 61.8488V61.3494C164.357 59.7512 163.811 58.4993 162.719 57.587V57.5937ZM161.627 61.922C161.627 62.8676 161.314 63.5668 160.688 64.0063C160.062 64.4458 159.23 64.6722 158.185 64.6722H154.915V58.5792H158.185C159.23 58.5792 160.062 58.799 160.688 59.2451C161.314 59.6913 161.627 60.3771 161.627 61.3094V61.9287V61.922ZM172.368 60.5436H173.6V62.9608H172.388C171.815 62.9608 171.283 63.0874 170.79 63.3404C170.291 63.5934 169.891 63.993 169.578 64.539C169.272 65.0851 169.119 65.8109 169.119 66.7098V72.8295H166.508V60.6835H168.812V62.9875C169.112 62.2417 169.538 61.649 170.084 61.2095C170.63 60.77 171.389 60.5436 172.375 60.5436H172.368ZM183.495 61.063C182.623 60.5902 181.644 60.3505 180.552 60.3505H180.339C179.247 60.3505 178.275 60.5902 177.409 61.063C176.55 61.5358 175.864 62.2217 175.358 63.114C174.852 64.0063 174.599 65.0917 174.599 66.3769V67.136C174.599 68.4012 174.852 69.4866 175.358 70.3856C175.864 71.2846 176.55 71.9705 177.409 72.4366C178.268 72.9027 179.247 73.1358 180.339 73.1358H180.552C181.644 73.1358 182.623 72.9027 183.495 72.4366C184.368 71.9705 185.047 71.2846 185.546 70.3856C186.046 69.4866 186.292 68.4012 186.292 67.136V66.3503C186.292 65.0851 186.046 64.0063 185.546 63.114C185.047 62.2217 184.368 61.5358 183.495 61.063ZM183.688 67.1826C183.688 68.4345 183.389 69.3668 182.79 69.9794C182.19 70.5987 181.438 70.905 180.539 70.905H180.346C179.46 70.905 178.721 70.5987 178.115 69.9794C177.516 69.3601 177.216 68.4279 177.216 67.1826V66.3036C177.216 65.0584 177.516 64.1262 178.115 63.5202C178.714 62.9142 179.46 62.6079 180.346 62.6079H180.539C181.438 62.6079 182.19 62.9142 182.79 63.5202C183.389 64.1262 183.688 65.0584 183.688 66.3036V67.1826ZM197.493 62.488C196.7 61.063 195.375 60.3505 193.504 60.3505H193.337C192.312 60.3505 191.406 60.5969 190.634 61.0897C189.855 61.5824 189.255 62.2683 188.829 63.1539C188.403 64.0396 188.19 65.0651 188.19 66.2371V66.8763C188.19 68.0483 188.403 69.0738 188.829 69.9594C189.255 70.8451 189.855 71.531 190.634 72.0237C191.406 72.5165 192.312 72.7629 193.337 72.7629H193.504C195.115 72.7629 196.334 72.1835 197.16 71.0315V72.2901C197.16 74.5808 196.147 75.7261 194.123 75.7261H193.817C193.044 75.7261 192.418 75.6129 191.952 75.3799C191.486 75.1535 191.093 74.7739 190.78 74.2545L188.909 75.6529C189.349 76.3987 189.961 76.958 190.747 77.3376C191.533 77.7172 192.525 77.9036 193.724 77.9036H194.223C196.008 77.9036 197.386 77.4109 198.352 76.4187C199.317 75.4331 199.797 74.0281 199.797 72.2102V60.6835H197.499V62.488H197.493ZM197.206 66.8497C197.206 67.9551 196.927 68.8474 196.367 69.52C195.808 70.1925 195.055 70.5255 194.13 70.5255H193.917C192.951 70.5255 192.192 70.1992 191.639 69.5399C191.087 68.8807 190.807 67.995 190.807 66.8697V66.2038C190.807 65.0784 191.08 64.1994 191.639 63.5601C192.192 62.9209 192.951 62.6012 193.917 62.6012H194.13C195.062 62.6012 195.808 62.9275 196.367 63.5868C196.927 64.246 197.206 65.1317 197.206 66.257V66.8497ZM208.853 60.5436H210.085V62.9608H208.873C208.3 62.9608 207.767 63.0874 207.275 63.3404C206.775 63.5934 206.376 63.993 206.063 64.539C205.756 65.0851 205.603 65.8109 205.603 66.7098V72.8295H202.993V60.6835H205.297V62.9875C205.597 62.2417 206.023 61.649 206.569 61.2095C207.115 60.77 207.874 60.5436 208.859 60.5436H208.853ZM216.631 60.3505H216.271C215.086 60.3505 214.08 60.5902 213.248 61.0763C212.415 61.5558 211.823 62.2217 211.456 63.0541L213.474 64.0995C213.76 63.5135 214.127 63.1007 214.58 62.8543C215.032 62.6079 215.592 62.488 216.278 62.488H216.537C218.149 62.488 218.955 63.387 218.955 65.1916V65.2848L214.659 65.8508C213.454 66.0107 212.542 66.4035 211.923 67.0361C211.297 67.6687 210.984 68.4811 210.984 69.48C210.984 70.632 211.337 71.531 212.049 72.1702C212.762 72.8095 213.767 73.1291 215.059 73.1291H215.225C216.124 73.1291 216.93 72.936 217.643 72.5498C218.355 72.1636 218.895 71.6375 219.254 70.9716V72.8228H221.558V65.1383C221.558 63.5735 221.139 62.3815 220.3 61.5691C219.461 60.7567 218.235 60.3505 216.624 60.3505H216.631ZM218.955 67.8685C218.955 68.8341 218.675 69.6065 218.122 70.1792C217.569 70.7585 216.824 71.0449 215.891 71.0449H215.652C214.972 71.0449 214.446 70.8917 214.073 70.5787C213.701 70.2724 213.514 69.8462 213.514 69.3069C213.514 68.7675 213.674 68.3746 214 68.1216C214.327 67.8685 214.899 67.6887 215.718 67.5755L218.948 67.1027V67.8619L218.955 67.8685ZM241.735 61.629C242.501 62.4814 242.887 63.7133 242.887 65.3314V72.8295H240.277V65.691C240.277 64.6922 240.09 63.933 239.717 63.4003C239.344 62.8743 238.758 62.6079 237.953 62.6079H237.76C237.32 62.6079 236.887 62.7344 236.468 62.9875C236.048 63.2405 235.709 63.6267 235.449 64.1528C235.189 64.6722 235.056 65.3381 235.056 66.1438V72.8295H232.446V65.691C232.446 64.6922 232.259 63.933 231.886 63.4003C231.513 62.8743 230.927 62.6079 230.122 62.6079H229.929C229.489 62.6079 229.056 62.7344 228.637 62.9875C228.217 63.2405 227.878 63.6267 227.618 64.1528C227.358 64.6722 227.225 65.3381 227.225 66.1438V72.8295H224.615V60.6835H226.919V62.488C227.285 61.8221 227.771 61.3027 228.377 60.9232C228.983 60.5436 229.702 60.3505 230.521 60.3505H230.734C232.566 60.3505 233.831 61.103 234.53 62.6012C234.909 61.9087 235.429 61.356 236.081 60.9498C236.741 60.5503 237.5 60.3438 238.372 60.3438H238.585C239.91 60.3438 240.963 60.77 241.728 61.6224L241.735 61.629ZM57.0743 72.9959V89.8565H61.8355V72.9959H57.0743ZM19.6108 72.976V89.8632H24.4185V77.038H28.1409C29.3728 77.038 30.2518 77.3443 30.8445 77.9769C31.5969 78.7826 31.9033 80.0745 31.9033 82.4451V89.8632H36.5579V80.5339C36.5579 73.8749 32.3161 72.976 28.1609 72.976H19.6108ZM64.7454 73.0026V89.8632H72.4699C76.5851 89.8632 77.9303 89.1773 79.3819 87.6457C80.4074 86.567 81.0733 84.203 81.0733 81.6193C81.0733 79.2487 80.5139 77.1312 79.5351 75.8194C77.7704 73.4621 75.2267 73.0026 71.4311 73.0026H64.7454ZM69.4667 76.6717H71.5176C74.4876 76.6717 76.412 78.0035 76.412 81.4662C76.412 84.9289 74.4876 86.2607 71.5176 86.2607H69.4667V76.6717ZM50.2088 73.0026L46.2334 86.3672L42.4245 73.0026H37.2837L42.7241 89.8632H49.5896L55.0699 73.0026H50.2088ZM83.2841 89.8632H88.0453V73.0026H83.2841V89.8632ZM96.6354 73.0093L89.983 89.8632H94.6776L95.7298 86.8866H103.601L104.6 89.8632H109.7L103.001 73.0093H96.642H96.6354ZM99.7252 76.0857L102.608 83.9833H96.7486L99.7252 76.0857ZM50.7749 33.5014V29.4528C51.1677 29.4261 51.5673 29.4061 51.9735 29.3928C63.0541 29.0466 70.3257 38.9152 70.3257 38.9152C70.3257 38.9152 62.4747 49.8226 54.0577 49.8226C52.8458 49.8226 51.7604 49.6295 50.7815 49.2966V37.0107C55.0966 37.5301 55.9622 39.4346 58.5592 43.7629L64.3259 38.9019C64.3259 38.9019 60.1174 33.3816 53.0189 33.3816C52.2465 33.3816 51.5074 33.4348 50.7815 33.5147M50.7815 20.1302V26.1832C51.1811 26.1499 51.5806 26.1233 51.9801 26.1099C67.3891 25.5905 77.4242 38.7487 77.4242 38.7487C77.4242 38.7487 65.8908 52.7726 53.8846 52.7726C52.7859 52.7726 51.7537 52.6727 50.7882 52.4995V56.2419C51.6139 56.3484 52.4729 56.4084 53.3719 56.4084C64.5523 56.4084 72.6364 50.7016 80.4607 43.9427C81.7592 44.9815 87.0731 47.512 88.1651 48.6174C80.7204 54.8502 63.3737 59.8711 53.545 59.8711C52.5994 59.8711 51.6871 59.8111 50.7948 59.7312V64.9852H93.2859V20.1235H50.7948L50.7815 20.1302ZM50.7815 49.3032V52.4995C40.4401 50.655 37.5701 39.9074 37.5701 39.9074C37.5701 39.9074 42.531 34.407 50.7815 33.5147V37.0174H50.7682C46.4398 36.498 43.0637 40.54 43.0637 40.54C43.0637 40.54 44.9549 47.3455 50.7882 49.3032M32.4227 39.4412C32.4227 39.4412 38.5489 30.3983 50.7882 29.4661V26.1832C37.2371 27.2686 25.4973 38.7487 25.4973 38.7487C25.4973 38.7487 32.143 57.9666 50.7882 59.7246V56.2352C37.1106 54.5172 32.4227 39.4412 32.4227 39.4412Z" fill="white"/>
</svg>
