<svg width="150" height="139" viewBox="0 0 150 139" fill="none" xmlns="http://www.w3.org/2000/svg">
<path d="M94.3266 14.1095C93.8484 20.4206 92.8616 26.6963 91.2354 32.8259C89.6143 38.9505 87.3589 44.9289 84.3734 50.5342C82.8781 53.3369 81.2067 56.0438 79.349 58.6146C77.4862 61.1804 75.4422 63.6151 73.2371 65.8784C72.502 66.6345 71.7468 67.3604 70.9766 68.0762C71.2233 68.1316 71.4699 68.1921 71.7166 68.2425L74.2087 68.7365C75.8701 69.0591 77.5265 69.4321 79.203 69.6741C83.5075 70.4403 87.8472 71.0099 92.2071 71.4434C92.7357 71.0906 93.2694 70.7427 93.7879 70.3748C96.5116 68.4542 99.1799 66.4228 101.612 64.1343C104.038 61.871 106.304 59.4715 108.287 56.8352C110.236 54.1838 111.952 51.3508 113.322 48.3415C117.143 39.9637 118.19 30.3307 116.866 20.8944C111.107 13.55 103.449 7.77322 94.6337 4.29004C94.6337 4.3959 94.6388 4.50679 94.6388 4.61265C94.6639 7.78835 94.5582 10.954 94.3266 14.1095Z" fill="#D2D2D2"/>
<path d="M44.6256 80.5924C45.3204 80.3051 46.0252 80.0379 46.7049 79.7304L48.7539 78.7979C51.4524 77.4923 54.1006 76.1011 56.5927 74.4678C58.1936 73.4294 59.7443 72.3255 61.2496 71.1661L58.0174 70.4453L56.7387 70.158L55.475 69.8253L52.9477 69.1498C51.2611 68.6961 49.5645 68.2727 47.9081 67.7182L42.9038 66.1455L37.965 64.356C37.1444 64.0536 36.3137 63.7662 35.4981 63.4487L33.0714 62.4355C31.4604 61.7499 29.8242 61.1047 28.2232 60.3839L23.4656 58.1206L22.4688 57.6467C23.2239 67.6224 26.738 76.8219 32.2508 84.4889C34.9997 83.8286 37.7183 83.0624 40.3916 82.1702C41.8113 81.6459 43.2462 81.1822 44.6256 80.5924Z" fill="white"/>
<path d="M24.7284 50.2975C25.0808 50.5243 25.4483 50.7259 25.8159 50.9225L26.9184 51.5224L31.3387 53.9218C32.8289 54.693 34.3544 55.3887 35.8597 56.1297L38.1303 57.2235C38.8955 57.5713 39.6708 57.8839 40.4461 58.2216L45.088 60.1925L49.8204 61.9619C51.3861 62.5819 52.9972 63.0759 54.6032 63.6001L57.0097 64.3814L58.2129 64.7696L59.4313 65.1124L64.3097 66.4784C64.9239 66.6347 65.5381 66.7859 66.1524 66.9321C67.4915 65.6416 68.7753 64.2957 69.9836 62.8894C71.9068 60.6613 73.6638 58.2922 75.2447 55.8171C76.8205 53.3371 78.21 50.7461 79.4334 48.0745C81.8802 42.7363 83.6322 37.0856 84.7901 31.3189C85.9581 25.5472 86.522 19.6545 86.6126 13.7619C86.6529 10.813 86.5774 7.86917 86.3659 4.93543C86.2904 3.86679 86.1948 2.79814 86.084 1.73453C82.58 1.00362 78.9501 0.615479 75.2296 0.615479C47.57 0.615479 24.8694 21.8674 22.5283 48.9566C22.5485 48.9667 22.5686 48.9818 22.5887 48.9919L24.7284 50.2975Z" fill="white"/>
<path d="M73.4072 73.3589L70.8245 72.9859C69.9636 72.8699 69.1127 72.6834 68.2569 72.5372C67.5621 72.4062 66.8673 72.2852 66.1675 72.1592C66.1675 72.1592 66.1625 72.1592 66.1625 72.1642C63.6503 74.0646 61.0172 75.7785 58.2936 77.3109C55.5749 78.8584 52.7254 80.1488 49.8557 81.3284L47.6808 82.1651C46.9559 82.4373 46.2158 82.6692 45.4807 82.9213C44.0207 83.4455 42.5204 83.8336 41.0403 84.2772C38.5029 84.9577 35.9504 85.5273 33.3828 86.0012C33.846 86.601 34.3192 87.1858 34.8076 87.7655C35.4067 87.7352 36.0058 87.705 36.5999 87.6747C38.2864 87.5638 39.973 87.4429 41.6545 87.2967C42.4953 87.2362 43.336 87.1404 44.1768 87.0497C45.0176 86.964 45.8583 86.8984 46.6941 86.7875C60.0959 85.2854 73.3317 81.7619 85.203 75.5516C85.6561 75.3147 86.1042 75.0627 86.5523 74.8207C83.889 74.6241 81.2258 74.3721 78.5676 74.0444C76.8407 73.8831 75.129 73.5958 73.4072 73.3589Z" fill="#D2D2D2"/>
<path d="M99.3154 75.3501C99.1845 75.3501 99.0486 75.3451 98.9177 75.3451C98.6005 75.5971 98.2884 75.8542 97.9712 76.1012C95.0865 78.3494 92.0355 80.3708 88.8789 82.2006C87.3132 83.1382 85.6921 83.9648 84.076 84.8167C82.4347 85.6031 80.8086 86.4197 79.1321 87.1305C77.4757 87.8815 75.7741 88.5167 74.0825 89.1821C72.3758 89.797 70.6691 90.4171 68.9372 90.9514C65.4835 92.0553 61.9795 92.9979 58.4402 93.749C54.901 94.5001 51.3416 95.1756 47.752 95.5889C46.3524 95.7603 44.9477 95.9014 43.5381 96.0174C52.3737 102.646 63.3439 106.573 75.2354 106.573C97.1607 106.573 115.97 93.2197 123.995 74.1958C122.671 74.3369 121.346 74.468 120.017 74.5839C113.14 75.1636 106.233 75.4258 99.3154 75.3501Z" fill="#8B8B8B"/>
<path d="M120.612 39.5605C120.158 43.1899 119.298 46.7941 118.034 50.2621C116.77 53.7302 115.109 57.0722 113.095 60.1824C111.071 63.2825 108.705 66.1608 106.152 68.8022C105.02 69.9918 103.837 71.1209 102.618 72.2148C108.363 72.497 114.122 72.5475 119.882 72.3609C121.518 72.3055 123.159 72.2349 124.795 72.1391C126.955 66.3624 128.138 60.1118 128.138 53.584C128.138 43.4823 125.314 34.0409 120.41 26.0059C120.541 26.888 120.647 27.7802 120.722 28.6724C121.055 32.2716 121.05 35.9261 120.612 39.5605Z" fill="#8B8B8B"/>
<path d="M0.769531 137.861V123.984H6.09101C7.77254 123.984 9.07648 124.447 9.98269 125.355C10.8889 126.262 11.3521 127.356 11.3521 128.641C11.3521 130.012 10.8688 131.126 9.92227 132.034C8.97579 132.941 7.75743 133.38 6.24205 133.38H3.92617V137.866H0.769531V137.861ZM3.90603 126.323V131.041H5.54728C7.4604 131.041 8.22061 129.967 8.22061 128.702C8.22061 127.376 7.3144 126.323 5.57246 126.323H3.90603Z" fill="white"/>
<path d="M14.4629 123.964H17.5994V135.441H24.0134V137.861H14.4629V123.964Z" fill="white"/>
<path d="M36.0705 137.861L35.124 135.668H29.8026L28.8359 137.861H25.7246L32.3098 123.706H32.7729L39.2523 137.861H36.0705ZM32.4507 129.67L30.7491 133.526H34.1977L32.5363 129.67H32.4507Z" fill="white"/>
<path d="M45.0137 137.861H41.9023V123.686H42.3655C43.3523 124.654 44.8073 126.005 46.7204 127.749C48.6335 129.478 50.0885 130.804 51.0349 131.731H51.1205V123.964H54.2319V138.098H53.7888L45.0741 129.836H45.0086V137.861H45.0137Z" fill="white"/>
<path d="M68.1313 135.441V137.861H58.3291V123.964H67.7336V126.383H61.4656V129.458H67.0841V131.797H61.4656V135.441H68.1313Z" fill="white"/>
<path d="M81.6402 126.363H77.6025V137.861H74.466V126.363H70.4082V123.943H81.6402V126.363Z" fill="white"/>
<path d="M91.4211 137.861L90.4746 135.668H85.1532L84.1865 137.861H81.0752L87.6603 123.706H88.1235L94.6029 137.861H91.4211ZM87.8013 129.67L86.0996 133.526H89.5483L87.8869 129.67H87.8013Z" fill="white"/>
<path d="M103.054 123.984C104.484 123.984 105.702 124.382 106.694 125.203C107.706 126.005 108.209 127.119 108.209 128.53C108.209 130.133 107.303 131.877 105.43 132.744L109.09 137.861H105.516L101.856 132.195V131.903C104.046 131.651 105.118 130.345 105.118 128.974C105.118 127.371 104.086 126.363 102.47 126.363H100.577V137.861H97.4404V123.984H103.054Z" fill="white"/>
<path d="M115.3 137.861H112.163V123.964H115.3V137.861Z" fill="white"/>
<path d="M128.32 123.964H131.431V132.346C131.431 134.05 130.927 135.441 129.895 136.515C128.863 137.569 127.393 138.093 125.48 138.093C121.548 138.093 119.529 135.88 119.529 132.407V123.964H122.666V132.387C122.666 134.136 123.653 135.527 125.505 135.527C127.338 135.527 128.325 134.201 128.325 132.493V123.964H128.32Z" fill="white"/>
<path d="M142.939 135.295H142.476L138.604 131.061C138.584 131.081 138.564 131.081 138.544 131.081V137.861H135.538V123.727H136.001L142.712 131.499L149.403 123.727H149.846V137.861H146.815V131.081C146.795 131.061 146.775 131.061 146.73 131.061L142.939 135.295Z" fill="white"/>
</svg>
