<svg width="50" height="46" viewBox="0 0 50 46" fill="none" xmlns="http://www.w3.org/2000/svg">
<path fill-rule="evenodd" clip-rule="evenodd" d="M36.2 9.19995C43.8215 9.19995 50 15.3784 50 23C50 30.6215 43.8215 36.8 36.2 36.8L13.8 36.8C6.17847 36.8 -9.36365e-07 30.6215 -6.03217e-07 23C-2.7007e-07 15.3784 6.17847 9.19995 13.8 9.19995L36.2 9.19995ZM14.95 13.8C9.86898 13.7999 5.75 17.9189 5.75 23C5.75 28.081 9.86898 32.2 14.95 32.2L35.05 32.2C40.131 32.2 44.25 28.081 44.25 23C44.25 17.9189 40.131 13.8 35.05 13.8L14.95 13.8Z" fill="url(#paint0_linear_1493_2806)"/>
<path fill-rule="evenodd" clip-rule="evenodd" d="M11.2002 13.8C11.2002 6.17847 17.3787 2.7007e-07 25.0002 6.03217e-07C32.6217 9.36365e-07 38.8002 6.17847 38.8002 13.8L38.8002 32.2C38.8002 39.8215 32.6217 46 25.0002 46C17.3787 46 11.2002 39.8215 11.2002 32.2L11.2002 13.8ZM15.8002 31.05C15.8002 36.131 19.9192 40.25 25.0002 40.25C30.0812 40.25 34.2002 36.131 34.2002 31.05L34.2002 14.95C34.2002 9.86898 30.0812 5.75 25.0002 5.75C19.9192 5.75 15.8002 9.86898 15.8002 14.95L15.8002 31.05Z" fill="url(#paint1_linear_1493_2806)"/>
<defs>
<linearGradient id="paint0_linear_1493_2806" x1="28.9633" y1="22.9998" x2="-0.519094" y2="20.1216" gradientUnits="userSpaceOnUse">
<stop stop-color="white"/>
<stop offset="1" stop-color="white" stop-opacity="0"/>
</linearGradient>
<linearGradient id="paint1_linear_1493_2806" x1="16.5974" y1="35.7398" x2="39.2382" y2="39.1795" gradientUnits="userSpaceOnUse">
<stop stop-color="white"/>
<stop offset="1" stop-color="white" stop-opacity="0"/>
</linearGradient>
</defs>
</svg>
