<svg width="204" height="204" viewBox="0 0 204 204" fill="none" xmlns="http://www.w3.org/2000/svg">
<path d="M119.195 0.828225L121.316 1.21933L121.098 9.83517L123.563 1.63344L125.89 2.05906L122.084 12.8605L119.355 12.3659L119.47 5.33745L117.131 11.9632L114.402 11.4686L114.609 0L116.948 0.425615L116.397 8.98394L119.195 0.828225Z" fill="white"/>
<path d="M127.744 12.2965L130.335 13.0442L129.773 14.9882L124.832 13.5619L127.951 2.69141L132.892 4.11779L132.342 6.03881L129.751 5.29111L129.017 7.8448L131.447 8.54649L130.92 10.3985L128.489 9.69681L127.744 12.2965Z" fill="white"/>
<path d="M142.695 7.64994C144.025 8.21359 144.392 9.20286 143.796 10.6177L140.242 19.0725L137.995 18.1178L139.462 14.6208L137.846 13.9306L136.378 17.4276L134.131 16.4728L137.685 8.01804C138.281 6.60315 139.244 6.17754 140.574 6.72969L142.695 7.64994ZM138.579 12.2052L140.196 12.8954L141.663 9.39841C141.698 9.31789 141.698 9.22586 141.675 9.13384C141.64 9.04181 141.583 8.9843 141.503 8.94979L140.494 8.52417C140.414 8.48966 140.322 8.48966 140.242 8.52417C140.15 8.55868 140.093 8.6277 140.058 8.70822L138.579 12.2052Z" fill="white"/>
<path d="M145.975 16.8053L143.808 20.9004L141.652 19.7501L146.938 9.75391L150.767 11.79C152.04 12.4686 152.315 13.4809 151.604 14.8498L150.996 16.0116C150.561 16.8398 149.987 17.2079 149.288 17.1159C149.701 17.576 149.735 18.1282 149.391 18.7954L147.305 22.7524L145.149 21.6021L147.144 17.8176C147.247 17.6105 147.213 17.461 147.018 17.3575L145.975 16.8053ZM148.325 12.3766L146.777 15.2984L147.912 15.9081C147.993 15.9541 148.084 15.9541 148.164 15.9311C148.256 15.8966 148.325 15.8391 148.359 15.7585L149.575 13.4579C149.621 13.3774 149.632 13.2854 149.609 13.1933C149.586 13.1013 149.529 13.0323 149.449 12.9863L148.325 12.3766Z" fill="white"/>
<path d="M151.682 23.1215L153.964 24.5709L152.886 26.2849L148.541 23.5242L154.583 13.9766L158.928 16.7373L157.862 18.4168L155.581 16.9674L154.159 19.2105L156.291 20.5678L155.26 22.1898L153.127 20.8324L151.682 23.1215Z" fill="white"/>
<path d="M161.98 27.5145L163.103 26.1112L165.614 28.1472L163.011 31.3796C162.048 32.5759 161.005 32.7254 159.881 31.8167L158.173 30.4363C157.05 29.5276 156.969 28.4808 157.932 27.273L162.346 21.786C163.309 20.5897 164.353 20.4401 165.476 21.3489L167.185 22.7292C168.308 23.638 168.388 24.6848 167.425 25.8926L166.76 26.7208L164.96 25.2599L165.82 24.2016C165.878 24.1326 165.901 24.0406 165.901 23.9486C165.889 23.8565 165.855 23.776 165.786 23.7185L164.938 23.0283C164.869 22.9708 164.777 22.9478 164.685 22.9593C164.594 22.9708 164.513 23.0168 164.456 23.0858L159.687 29.0214C159.629 29.0905 159.606 29.1825 159.606 29.2745C159.606 29.3665 159.652 29.4471 159.721 29.5046L160.581 30.1948C160.65 30.2523 160.741 30.2753 160.833 30.2638C160.925 30.2523 161.005 30.2063 161.062 30.1372L162.713 28.0782L161.98 27.5145Z" fill="white"/>
<path d="M167.963 32.8307L169.202 31.5309L171.529 33.7625L168.663 36.7648C167.608 37.8806 166.553 37.9381 165.51 36.9373L163.928 35.4189C162.884 34.4181 162.896 33.3599 163.951 32.2556L168.8 27.1597C169.855 26.0439 170.91 25.9864 171.953 26.9871L173.535 28.5055C174.579 29.5063 174.567 30.5646 173.513 31.6689L172.779 32.4396L171.105 30.8292L172.045 29.8399C172.114 29.7709 172.137 29.6904 172.148 29.5983C172.148 29.5063 172.114 29.4258 172.045 29.3568L171.254 28.5976C171.185 28.5285 171.105 28.5055 171.013 28.5055C170.921 28.5055 170.841 28.5516 170.772 28.6206L165.521 34.1306C165.453 34.1996 165.43 34.2801 165.418 34.3721C165.418 34.4642 165.453 34.5447 165.51 34.6137L166.301 35.3729C166.37 35.4419 166.45 35.4649 166.542 35.4649C166.633 35.4534 166.714 35.4189 166.783 35.3499L168.605 33.4404L167.963 32.8307Z" fill="white"/>
<path d="M173.388 42.2522L175.096 44.3113L173.514 45.6342L170.246 41.7001L178.902 34.4531L180.461 36.3281L173.388 42.2522Z" fill="white"/>
<path d="M186.019 43.3551C186.856 44.5284 186.638 45.5637 185.389 46.4609L177.936 51.7639L176.526 49.7623L179.61 47.5652L178.59 46.1273L175.506 48.3244L174.096 46.3229L181.559 41.0084C182.809 40.1227 183.852 40.2607 184.689 41.4456L186.019 43.3551ZM180.126 45.046L181.147 46.4839L184.231 44.2868C184.311 44.2293 184.357 44.1603 184.368 44.0683C184.391 43.9762 184.368 43.8957 184.323 43.8152L183.692 42.918C183.635 42.8374 183.566 42.8029 183.474 42.7914C183.382 42.7799 183.291 42.8029 183.222 42.8489L180.126 45.046Z" fill="white"/>
<path d="M186.881 54.744C187.03 55.5378 186.686 56.1704 185.849 56.6651L184.107 57.6888C182.777 58.4596 181.756 58.2295 181.034 56.9756L178.775 53.0876L188.521 47.3936L190.711 51.1551C191.433 52.4089 191.135 53.4212 189.805 54.1919L188.922 54.7095C188.108 55.1697 187.432 55.1812 186.881 54.744ZM182.639 55.6988L184.817 54.422C184.898 54.3759 184.955 54.3069 184.978 54.2149C185.001 54.1229 185.001 54.0424 184.955 53.9618L184.233 52.7195L181.447 54.3529L182.169 55.5953C182.215 55.6758 182.284 55.7218 182.375 55.7448C182.467 55.7563 182.559 55.7448 182.639 55.6988ZM188.968 51.4542L188.314 50.3384L185.712 51.8568L186.365 52.9726C186.411 53.0531 186.48 53.0991 186.572 53.1221C186.663 53.1451 186.755 53.1336 186.835 53.0876L188.842 51.9143C188.922 51.8683 188.979 51.7992 189.002 51.7072C189.025 51.6152 189.014 51.5347 188.968 51.4542Z" fill="white"/>
<path d="M192.958 62.22L191.972 60.115L192.774 59.7354C192.854 59.7009 192.923 59.6318 192.958 59.5398C192.992 59.4478 192.992 59.3673 192.958 59.2867L192.545 58.4125C192.51 58.332 192.442 58.2745 192.35 58.24C192.258 58.217 192.166 58.2169 192.086 58.2515L190.275 59.1142C190.195 59.1487 190.126 59.2177 190.091 59.3097C190.057 59.4018 190.057 59.4823 190.091 59.5628L190.756 60.9892C191.352 62.3121 190.963 63.2898 189.598 63.934L187.409 64.9693C186.021 65.625 185.024 65.3029 184.405 63.9915L183.533 62.128C182.914 60.8167 183.304 59.8389 184.691 59.1832L185.746 58.6886L186.732 60.7936L185.597 61.3343C185.517 61.3688 185.459 61.4378 185.414 61.5299C185.379 61.6219 185.379 61.7024 185.414 61.7829L185.872 62.7607C185.907 62.8412 185.975 62.8987 186.067 62.9332C186.159 62.9677 186.239 62.9562 186.331 62.9102L188.337 61.967C188.417 61.9325 188.475 61.8634 188.521 61.7714C188.555 61.6794 188.555 61.5989 188.509 61.5183L187.844 60.092C187.225 58.7806 187.615 57.8028 189.002 57.1472L191.031 56.1809C192.419 55.5252 193.416 55.8473 194.035 57.1587L194.861 58.9186C195.48 60.23 195.09 61.2078 193.703 61.8634L192.958 62.22Z" fill="white"/>
<path d="M202.781 85.9509L203.091 88.1019L194.871 90.5981L203.412 90.368L203.744 92.7262L192.325 92.5076L191.935 89.7584L198.62 87.6533L191.614 87.5153L191.225 84.766L202.128 81.3496L202.46 83.7077L194.194 85.8818L202.781 85.9509Z" fill="white"/>
<path d="M194.633 97.7417L194.747 100.445L192.73 100.525L192.512 95.372L203.782 94.9004L204 100.054L202.016 100.134L201.902 97.4311L199.253 97.5461L199.356 100.077L197.442 100.157L197.338 97.6266L194.633 97.7417Z" fill="white"/>
<path d="M203.769 110.453C203.666 111.891 202.84 112.558 201.316 112.443L192.189 111.764L192.373 109.326L196.145 109.613L196.271 107.853L192.499 107.566L192.682 105.127L201.809 105.806C203.333 105.921 204.044 106.703 203.941 108.141L203.769 110.453ZM198.151 107.991L198.025 109.751L201.797 110.039C201.889 110.05 201.969 110.016 202.049 109.958C202.118 109.901 202.164 109.82 202.176 109.728L202.256 108.624C202.267 108.532 202.233 108.451 202.164 108.382C202.095 108.313 202.026 108.279 201.923 108.267L198.151 107.991Z" fill="white"/>
<path d="M196.169 116.492L191.617 115.745L192.007 113.329L203.139 115.158L202.44 119.449C202.211 120.875 201.339 121.462 199.814 121.22L198.53 121.013C197.613 120.864 197.086 120.438 196.937 119.736C196.639 120.277 196.123 120.484 195.389 120.369L190.986 119.644L191.376 117.229L195.595 117.919C195.825 117.953 195.962 117.861 195.997 117.643L196.169 116.492ZM201.098 117.309L197.854 116.769L197.648 118.045C197.636 118.137 197.659 118.218 197.716 118.298C197.774 118.367 197.854 118.413 197.946 118.436L200.502 118.862C200.594 118.874 200.674 118.862 200.755 118.805C200.835 118.747 200.881 118.678 200.892 118.586L201.098 117.309Z" fill="white"/>
<path d="M192.028 123.911L191.386 126.546L189.426 126.062L190.653 121.059L201.602 123.762L200.375 128.766L198.449 128.294L199.091 125.66L196.523 125.027L195.915 127.489L194.058 127.029L194.665 124.567L192.028 123.911Z" fill="white"/>
<path d="M191.146 135.138L192.832 135.77L191.708 138.796L187.821 137.346C186.388 136.806 185.918 135.862 186.423 134.505L187.191 132.446C187.695 131.089 188.658 130.686 190.103 131.215L196.684 133.677C198.117 134.217 198.587 135.161 198.083 136.518L197.314 138.577C196.81 139.934 195.847 140.337 194.402 139.808L193.405 139.44L194.219 137.266L195.491 137.737C195.583 137.772 195.663 137.772 195.755 137.737C195.847 137.703 195.904 137.645 195.939 137.553L196.317 136.518C196.351 136.426 196.34 136.345 196.305 136.265C196.26 136.184 196.202 136.127 196.111 136.092L188.991 133.435C188.899 133.401 188.819 133.401 188.727 133.435C188.635 133.47 188.578 133.527 188.544 133.619L188.165 134.655C188.131 134.735 188.142 134.827 188.177 134.908C188.223 134.988 188.28 135.046 188.372 135.08L190.837 136L191.146 135.138Z" fill="white"/>
<path d="M188.014 142.524L189.642 143.295L188.267 146.217L184.517 144.445C183.13 143.789 182.74 142.812 183.359 141.5L184.3 139.51C184.919 138.199 185.916 137.877 187.303 138.532L193.655 141.546C195.042 142.202 195.432 143.18 194.813 144.491L193.873 146.481C193.254 147.792 192.256 148.115 190.869 147.459L189.906 146.999L190.892 144.894L192.119 145.48C192.199 145.526 192.291 145.526 192.382 145.503C192.474 145.48 192.543 145.423 192.577 145.331L193.047 144.33C193.082 144.25 193.093 144.157 193.047 144.077C193.002 143.996 192.956 143.927 192.864 143.881L185.996 140.626C185.916 140.58 185.824 140.58 185.733 140.603C185.641 140.626 185.572 140.684 185.538 140.776L185.068 141.776C185.033 141.857 185.022 141.949 185.068 142.029C185.114 142.11 185.16 142.179 185.251 142.225L187.636 143.352L188.014 142.524Z" fill="white"/>
<path d="M180.825 150.656L179.426 152.933L177.672 151.852L180.355 147.492L189.939 153.451L188.655 155.533L180.825 150.656Z" fill="white"/>
<path d="M183.764 163.045C182.915 164.206 181.872 164.333 180.634 163.424L173.262 157.995L174.706 156.016L177.756 158.259L178.799 156.833L175.75 154.59L177.194 152.611L184.566 158.041C185.804 158.95 185.999 159.985 185.14 161.158L183.764 163.045ZM180.301 157.96L179.258 159.387L182.308 161.63C182.388 161.687 182.468 161.71 182.56 161.699C182.652 161.687 182.732 161.641 182.778 161.572L183.431 160.687C183.489 160.606 183.5 160.525 183.489 160.433C183.466 160.341 183.42 160.261 183.351 160.215L180.301 157.96Z" fill="white"/>
<path d="M173.286 167.429C172.587 167.82 171.876 167.693 171.154 167.061L169.64 165.715C168.494 164.702 168.391 163.644 169.342 162.563L172.3 159.192L180.761 166.669L177.895 169.936C176.944 171.018 175.889 171.052 174.742 170.04L173.974 169.361C173.275 168.74 173.045 168.096 173.286 167.429ZM171.039 163.702L172.931 165.381C173 165.439 173.08 165.473 173.172 165.473C173.263 165.473 173.344 165.439 173.401 165.37L174.341 164.288L171.922 162.149L170.982 163.23C170.924 163.299 170.89 163.38 170.901 163.472C170.913 163.564 170.97 163.633 171.039 163.702ZM177.058 168.383L177.907 167.417L175.648 165.416L174.8 166.382C174.742 166.451 174.708 166.531 174.719 166.623C174.731 166.715 174.765 166.796 174.834 166.853L176.577 168.383C176.645 168.441 176.726 168.475 176.817 168.475C176.921 168.487 176.989 168.452 177.058 168.383Z" fill="white"/>
<path d="M168.116 175.596L169.79 173.985L170.409 174.63C170.478 174.699 170.558 174.733 170.649 174.745C170.741 174.756 170.821 174.722 170.89 174.653L171.578 173.985C171.647 173.916 171.681 173.847 171.681 173.744C171.681 173.652 171.647 173.571 171.578 173.502L170.191 172.053C170.122 171.984 170.053 171.949 169.95 171.938C169.858 171.926 169.778 171.961 169.709 172.03L168.574 173.123C167.52 174.1 166.465 174.043 165.421 172.95L163.748 171.19C162.693 170.074 162.681 169.028 163.725 168.027L165.215 166.6C166.258 165.6 167.313 165.657 168.368 166.773L169.17 167.624L167.497 169.235L166.625 168.326C166.556 168.257 166.488 168.222 166.384 168.211C166.293 168.199 166.213 168.234 166.144 168.303L165.364 169.051C165.295 169.12 165.261 169.189 165.261 169.292C165.261 169.384 165.295 169.465 165.364 169.534L166.889 171.144C166.958 171.213 167.027 171.248 167.13 171.259C167.221 171.271 167.302 171.236 167.37 171.167L168.506 170.074C169.549 169.074 170.604 169.131 171.658 170.247L173.206 171.88C174.261 172.996 174.272 174.043 173.229 175.044L171.83 176.39C170.787 177.39 169.732 177.333 168.677 176.217L168.116 175.596Z" fill="white"/>
<path d="M148.852 192.481L146.926 193.459L141.938 186.442L144.885 194.483L142.764 195.552L139.324 184.624L141.801 183.371L145.928 189.065L143.83 182.358L146.306 181.104L153.014 190.388L150.892 191.457L146.203 184.291L148.852 192.481Z" fill="white"/>
<path d="M135.114 188.491L132.591 189.457L131.869 187.559L136.673 185.719L140.697 196.29L135.893 198.131L135.183 196.267L137.705 195.301L136.753 192.816L134.391 193.725L133.704 191.93L136.065 191.022L135.114 188.491Z" fill="white"/>
<path d="M125.989 201.213C124.591 201.569 123.708 200.994 123.329 199.499L121.094 190.595L123.456 189.997L124.384 193.678L126.093 193.241L125.164 189.56L127.526 188.962L129.761 197.865C130.14 199.361 129.624 200.281 128.225 200.638L125.989 201.213ZM126.551 195.082L124.843 195.519L125.771 199.2C125.794 199.292 125.84 199.361 125.921 199.418C126.001 199.476 126.081 199.487 126.173 199.464L127.239 199.2C127.331 199.177 127.4 199.119 127.445 199.039C127.491 198.958 127.503 198.866 127.48 198.774L126.551 195.082Z" fill="white"/>
<path d="M117.872 195.876L117.15 191.298L119.558 190.918L121.335 202.087L117.047 202.766C115.625 202.996 114.788 202.352 114.548 200.822L114.341 199.534C114.192 198.614 114.433 197.969 115.04 197.613C114.433 197.498 114.077 197.072 113.951 196.336L113.252 191.919L115.66 191.539L116.336 195.772C116.37 196.002 116.497 196.106 116.714 196.06L117.872 195.876ZM118.663 200.834L118.148 197.567L116.875 197.774C116.783 197.785 116.714 197.831 116.657 197.912C116.6 197.992 116.588 198.073 116.6 198.165L117.012 200.742C117.024 200.834 117.07 200.914 117.15 200.972C117.219 201.029 117.311 201.052 117.402 201.041L118.663 200.834Z" fill="white"/>
<path d="M109.538 194.275L106.844 194.493L106.684 192.469L111.808 192.055L112.714 203.328L107.589 203.742L107.429 201.752L110.123 201.533L109.917 198.888L107.394 199.095L107.245 197.174L109.768 196.967L109.538 194.275Z" fill="white"/>
<path d="M98.658 196.979L98.6007 198.774L95.379 198.67L95.5166 194.506C95.5625 192.965 96.3077 192.228 97.7523 192.274L99.9421 192.344C101.387 192.39 102.075 193.183 102.029 194.725L101.799 201.765C101.754 203.306 101.008 204.042 99.5638 203.996L97.3739 203.927C95.9293 203.881 95.2414 203.087 95.2873 201.546L95.3217 200.476L97.6376 200.557L97.5918 201.926C97.5918 202.018 97.6147 202.098 97.6835 202.167C97.7408 202.236 97.8211 202.282 97.9128 202.282L99.0134 202.317C99.1052 202.317 99.1854 202.282 99.2542 202.225C99.323 202.156 99.3574 202.075 99.3574 201.983L99.6096 194.368C99.6096 194.276 99.5867 194.196 99.5179 194.115C99.4606 194.046 99.3803 194.011 99.2886 194L98.188 193.965C98.0962 193.965 98.016 194 97.9472 194.057C97.8784 194.126 97.844 194.207 97.844 194.299L97.7523 196.933L98.658 196.979Z" fill="white"/>
<path d="M90.6992 196.358L90.4928 198.141L87.2941 197.761L87.7756 193.632C87.9476 192.102 88.7616 191.423 90.1833 191.596L92.3616 191.849C93.7948 192.021 94.4139 192.861 94.2419 194.391L93.4279 201.385C93.2445 202.915 92.4419 203.593 91.0202 203.421L88.8419 203.168C87.4087 202.995 86.7896 202.155 86.9616 200.626L87.0877 199.567L89.3922 199.832L89.2317 201.189C89.2202 201.281 89.2432 201.362 89.3005 201.442C89.3578 201.523 89.4266 201.557 89.5183 201.569L90.6075 201.695C90.6992 201.707 90.7795 201.684 90.8483 201.615C90.917 201.546 90.9629 201.477 90.9744 201.385L91.8572 193.816C91.8687 193.724 91.8457 193.643 91.7884 193.563C91.7311 193.482 91.6623 193.436 91.5706 193.425L90.4814 193.298C90.3897 193.287 90.3094 193.31 90.2406 193.379C90.1718 193.436 90.126 193.517 90.1145 193.609L89.8049 196.231L90.6992 196.358Z" fill="white"/>
<path d="M80.7278 192.125L78.1367 191.515L78.6068 189.502L83.5826 190.664L81.0144 201.684L78.6412 201.132L80.7278 192.125Z" fill="white"/>
<path d="M69.9502 198.855C68.5744 198.418 68.1273 197.463 68.5859 196.002L71.3719 187.26L73.6993 188.007L72.5528 191.619L74.2267 192.16L75.3732 188.548L77.7006 189.296L74.9146 198.038C74.4445 199.499 73.5273 200.017 72.1515 199.58L69.9502 198.855ZM73.6534 193.955L71.9795 193.414L70.833 197.026C70.8101 197.118 70.8101 197.198 70.8445 197.29C70.8789 197.383 70.9477 197.429 71.0394 197.463L72.0827 197.797C72.1745 197.831 72.2547 197.82 72.335 197.774C72.4152 197.728 72.4725 197.659 72.4955 197.567L73.6534 193.955Z" fill="white"/>
<path d="M62.4495 190.274C61.8533 189.733 61.7501 189.02 62.1284 188.123L62.9195 186.259C63.5157 184.844 64.4788 184.419 65.8087 184.971L69.9361 186.719L65.5565 197.141L61.5552 195.45C60.2252 194.887 59.8584 193.897 60.4545 192.482L60.8558 191.528C61.2112 190.676 61.7386 190.262 62.4495 190.274ZM62.7475 194.162L63.9399 194.668L65.1093 191.884L63.917 191.378C63.8367 191.344 63.745 191.344 63.6647 191.378C63.5845 191.413 63.5157 191.482 63.4813 191.562L62.5756 193.702C62.5412 193.782 62.5412 193.874 62.5641 193.966C62.61 194.058 62.6673 194.127 62.7475 194.162ZM65.2699 186.949L64.2839 189.285C64.2495 189.365 64.2495 189.457 64.2724 189.549C64.3068 189.641 64.3641 189.699 64.4444 189.733L65.7629 190.285L67.0125 187.306L65.6941 186.754C65.6138 186.719 65.5221 186.719 65.4418 186.754C65.3616 186.811 65.3043 186.869 65.2699 186.949Z" fill="white"/>
<path d="M53.0942 187.938L55.1464 189.03L54.7337 189.813C54.6878 189.893 54.6764 189.985 54.6993 190.077C54.7222 190.169 54.7796 190.238 54.8598 190.284L55.7082 190.733C55.7885 190.779 55.8802 190.779 55.9605 190.756C56.0522 190.721 56.121 190.664 56.1554 190.583L57.0955 188.812C57.1414 188.731 57.1528 188.639 57.1299 188.547C57.107 188.455 57.0496 188.386 56.9694 188.34L55.5821 187.604C54.3209 186.902 54.0458 185.89 54.7452 184.556L55.8802 182.405C56.6025 181.047 57.5885 180.702 58.8611 181.381L60.6841 182.347C61.9567 183.026 62.2318 184.038 61.521 185.407L60.9707 186.442L58.9184 185.349L59.5032 184.234C59.549 184.153 59.5605 184.061 59.5375 183.969C59.5146 183.877 59.4573 183.808 59.377 183.762L58.4254 183.256C58.3452 183.21 58.2535 183.21 58.1732 183.233C58.0815 183.267 58.0127 183.325 57.9783 183.405L56.9464 185.372C56.9006 185.453 56.8891 185.545 56.9121 185.637C56.935 185.729 56.9923 185.798 57.0726 185.844L58.4598 186.58C59.7325 187.259 60.0076 188.271 59.2968 189.629L58.242 191.619C57.5197 192.976 56.5337 193.321 55.2611 192.642L53.5528 191.734C52.2802 191.055 52.005 190.043 52.7158 188.685L53.0942 187.938Z" fill="white"/>
<path d="M31.0707 174.951L29.5344 173.421L34.5904 166.45L27.9178 171.799L26.2324 170.12L35.4733 163.391L37.4338 165.346L33.3637 171.075L39.0389 166.957L40.9994 168.912L34.3497 178.23L32.6643 176.55L37.9497 169.821L31.0707 174.951Z" fill="white"/>
<path d="M30.4894 160.618L28.7697 158.525L30.3289 157.236L33.5965 161.216L24.8945 168.406L21.627 164.426L23.1633 163.16L24.883 165.254L26.9238 163.563L25.3187 161.608L26.7977 160.388L28.4028 162.344L30.4894 160.618Z" fill="white"/>
<path d="M15.5349 155.947C14.7553 154.728 15.0075 153.704 16.3031 152.876L23.9961 147.918L25.3146 149.977L22.1273 152.025L23.0789 153.508L26.2662 151.461L27.5847 153.52L19.8916 158.478C18.5961 159.306 17.5642 159.122 16.7846 157.903L15.5349 155.947ZM21.4967 154.532L20.5451 153.048L17.3579 155.096C17.2776 155.142 17.2317 155.222 17.2088 155.314C17.1859 155.407 17.1974 155.487 17.2432 155.568L17.8394 156.499C17.8853 156.58 17.9655 156.626 18.0572 156.637C18.149 156.649 18.2407 156.637 18.3095 156.591L21.4967 154.532Z" fill="white"/>
<path d="M18.0128 146.572L22.1058 144.421L23.2408 146.583L13.2548 151.84L11.2369 147.987C10.5719 146.71 10.9159 145.709 12.2688 144.996L13.4267 144.386C14.2522 143.949 14.9287 143.972 15.4675 144.444C15.3873 143.834 15.6739 143.351 16.3274 143.006L20.2828 140.924L21.4179 143.086L17.6344 145.076C17.428 145.18 17.3822 145.341 17.4739 145.537L18.0128 146.572ZM13.5872 148.907L16.4994 147.377L15.9032 146.227C15.8573 146.146 15.7885 146.089 15.6968 146.066C15.6051 146.043 15.5134 146.054 15.4331 146.1L13.1286 147.308C13.0484 147.354 12.9911 147.423 12.9567 147.504C12.9223 147.596 12.9337 147.676 12.9681 147.757L13.5872 148.907Z" fill="white"/>
<path d="M16.8526 138.13L15.7864 135.634L17.6437 134.84L19.6616 139.579L9.29715 144.031L7.2793 139.292L9.10224 138.509L10.1685 141.006L12.5991 139.959L11.6016 137.624L13.3672 136.864L14.3647 139.2L16.8526 138.13Z" fill="white"/>
<path d="M10.8368 128.616L9.11699 129.134L8.19979 126.028L12.1782 124.843C13.6457 124.406 14.5858 124.878 14.9986 126.269L15.6291 128.386C16.0419 129.766 15.5145 130.687 14.0355 131.124L7.30551 133.125C5.83799 133.562 4.89785 133.091 4.48511 131.699L3.85453 129.582C3.44179 128.202 3.96918 127.282 5.44817 126.845L6.46856 126.546L7.13354 128.777L5.82652 129.168C5.7348 129.191 5.66601 129.249 5.62015 129.329C5.57429 129.41 5.56282 129.502 5.58575 129.582L5.89531 130.641C5.91824 130.733 5.97557 130.79 6.06729 130.836C6.14754 130.882 6.23926 130.882 6.33098 130.859L13.6113 128.685C13.703 128.662 13.7718 128.605 13.8177 128.524C13.8635 128.444 13.875 128.352 13.8521 128.271L13.5425 127.213C13.5196 127.121 13.4622 127.063 13.3705 127.017C13.2788 126.971 13.1986 126.971 13.1068 126.994L10.5845 127.742L10.8368 128.616Z" fill="white"/>
<path d="M8.91002 120.839L7.15587 121.207L6.50236 118.044L10.561 117.204C12.0629 116.893 12.9572 117.446 13.2553 118.86L13.7024 121.023C13.989 122.438 13.3929 123.301 11.8909 123.611L5.0119 125.038C3.50998 125.348 2.61571 124.796 2.31762 123.381L1.87048 121.219C1.58385 119.804 2.18004 118.941 3.68196 118.63L4.72528 118.412L5.19534 120.689L3.8654 120.965C3.77368 120.989 3.70489 121.035 3.64756 121.104C3.59024 121.184 3.57877 121.265 3.59024 121.357L3.80807 122.438C3.831 122.53 3.87686 122.599 3.95712 122.645C4.03737 122.691 4.12909 122.714 4.22082 122.691L11.6616 121.15C11.7534 121.127 11.8221 121.081 11.8795 121.012C11.9368 120.931 11.9483 120.85 11.9368 120.758L11.719 119.677C11.696 119.585 11.6502 119.516 11.5699 119.47C11.4897 119.424 11.3979 119.401 11.3062 119.424L8.72658 119.965L8.91002 120.839Z" fill="white"/>
<path d="M9.76579 109.993L9.52503 107.325L11.5773 107.141L12.0359 112.248L0.811586 113.272L0.59375 110.833L9.76579 109.993Z" fill="white"/>
<path d="M0.000505811 101.94C-0.0224243 100.491 0.734269 99.7546 2.27059 99.7316L11.4197 99.582L11.4541 102.032L7.67063 102.09L7.69356 103.861L11.477 103.804L11.5114 106.254L2.36231 106.403C0.825989 106.426 0.046366 105.713 0.0234359 104.275L0.000505811 101.94ZM5.81329 103.884L5.79036 102.124L2.00689 102.182C1.91517 102.182 1.83491 102.216 1.76612 102.285C1.69733 102.354 1.66294 102.435 1.66294 102.527L1.68587 103.631C1.68587 103.723 1.72026 103.804 1.78905 103.861C1.85784 103.919 1.9381 103.953 2.02982 103.953L5.81329 103.884Z" fill="white"/>
<path d="M5.73369 92.0594C6.05472 91.3232 6.69676 90.9896 7.65982 91.0701L9.67767 91.2197C11.2025 91.3347 11.9134 92.1169 11.8102 93.5548L11.4662 98.0295L0.230469 97.1783L0.55149 92.8416C0.654676 91.4037 1.48016 90.7365 3.00501 90.8516L4.0254 90.9321C4.95407 91.0011 5.52732 91.3692 5.73369 92.0594ZM2.1566 93.5778L2.06488 94.8661L5.06872 95.0962L5.16044 93.8079C5.17191 93.7158 5.13751 93.6353 5.06872 93.5663C4.99993 93.4973 4.93114 93.4628 4.82796 93.4513L2.52348 93.2672C2.43176 93.2557 2.3515 93.2902 2.27125 93.3477C2.20246 93.4052 2.16806 93.4858 2.1566 93.5778ZM9.76939 93.6698L7.24708 93.4858C7.15536 93.4743 7.07511 93.5088 6.99485 93.5663C6.92606 93.6238 6.8802 93.6928 6.8802 93.7848L6.76555 95.2227L9.97576 95.4643L10.0789 94.0379C10.0904 93.9459 10.056 93.8654 9.98723 93.7964C9.94137 93.7158 9.86111 93.6813 9.76939 93.6698Z" fill="white"/>
<path d="M4.95033 82.4194L4.57198 84.72L3.68917 84.5819C3.59745 84.5704 3.51719 84.5819 3.43694 84.6395C3.35668 84.6855 3.31082 84.766 3.29936 84.858L3.15031 85.8128C3.13885 85.9048 3.16178 85.9853 3.2191 86.0658C3.27643 86.1349 3.35668 86.1809 3.4484 86.2039L5.43186 86.526C5.52358 86.5375 5.60383 86.526 5.68409 86.4685C5.76435 86.4224 5.8102 86.3419 5.82167 86.2499L6.0739 84.697C6.32613 83.2706 7.19748 82.6839 8.68793 82.9255L11.0841 83.3166C12.5975 83.5697 13.2396 84.3979 13.0103 85.8243L12.6778 87.8603C12.4485 89.2867 11.5771 89.8734 10.0637 89.6318L8.90577 89.4478L9.28412 87.1471L10.5223 87.3542C10.6141 87.3657 10.6943 87.3542 10.7746 87.2967C10.8548 87.2507 10.9007 87.1701 10.9122 87.0781L11.0841 86.0083C11.0956 85.9163 11.0727 85.8358 11.0153 85.7553C10.958 85.6863 10.8778 85.6402 10.786 85.6172L8.59621 85.2491C8.50449 85.2376 8.42424 85.2491 8.34398 85.3066C8.26373 85.3642 8.21787 85.4332 8.2064 85.5252L7.95417 87.0781C7.72487 88.5045 6.85353 89.0912 5.34014 88.8496L3.11592 88.4815C1.60253 88.2284 0.960487 87.4002 1.18979 85.9738L1.49934 84.0528C1.72865 82.6264 2.59999 82.0398 4.11338 82.2813L4.95033 82.4194Z" fill="white"/>
<path d="M10.2261 57.2974L11.1891 55.3534L19.3752 57.9646L12.2095 53.3058L13.2643 51.1777L22.551 57.8495L21.3242 60.3457L14.6172 58.2867L20.3153 62.3818L19.0886 64.8779L8.17383 61.496L9.22861 59.368L17.2656 62.2667L10.2261 57.2974Z" fill="white"/>
<path d="M23.6081 52.214L25.0412 49.9134L26.7495 50.9947L24.0094 55.3658L14.459 49.3497L17.1991 44.9785L18.8845 46.0368L17.4514 48.3374L19.6985 49.7523L21.0399 47.6012L22.668 48.625L21.3266 50.7761L23.6081 52.214Z" fill="white"/>
<path d="M23.2747 36.5336C24.1804 35.4063 25.2237 35.3257 26.4276 36.292L33.5473 42.0551L32.011 43.9646L29.0645 41.5834L27.9639 42.9638L30.9104 45.345L29.3741 47.2545L22.2543 41.4914C21.0619 40.5251 20.9129 39.4784 21.8186 38.3511L23.2747 36.5336ZM26.4963 41.7675L27.597 40.3871L24.6505 38.006C24.5817 37.9484 24.49 37.9254 24.3982 37.9254C24.3065 37.9369 24.2263 37.9715 24.1689 38.0405L23.481 38.9032C23.4237 38.9722 23.4008 39.0643 23.4122 39.1563C23.4237 39.2483 23.4696 39.3288 23.5384 39.3863L26.4963 41.7675Z" fill="white"/>
<path d="M32.9619 35.89L36.2867 39.0994L34.5899 40.8593L26.4727 33.0142L29.4765 29.8739C30.474 28.8271 31.5287 28.8501 32.6294 29.9084L33.5695 30.8171C34.2345 31.4613 34.4409 32.117 34.1657 32.7726C34.716 32.4966 35.2664 32.6231 35.7937 33.1407L39.004 36.2466L37.3071 38.0066L34.2345 35.0388C34.0625 34.8777 33.902 34.8777 33.753 35.0388L32.9619 35.89ZM29.3504 32.416L31.7237 34.7052L32.6179 33.7734C32.6867 33.7044 32.7096 33.6239 32.7096 33.5318C32.6982 33.4398 32.6638 33.3593 32.595 33.2903L30.7262 31.4843C30.6574 31.4153 30.5771 31.3808 30.4854 31.3808C30.3937 31.3808 30.3134 31.4153 30.2447 31.4728L29.3504 32.416Z" fill="white"/>
<path d="M40.5637 32.1281L42.5815 30.3221L43.9229 31.8405L40.0821 35.2685L32.584 26.8137L36.4248 23.3857L37.7433 24.8696L35.7254 26.6756L37.491 28.6657L39.3828 26.9862L40.6554 28.4241L38.7636 30.1036L40.5637 32.1281Z" fill="white"/>
<path d="M47.625 23.3981L46.5931 21.9257L49.2301 20.0622L51.6148 23.4672C52.4976 24.721 52.3486 25.7678 51.1677 26.6075L49.3677 27.8729C48.1868 28.7011 47.1549 28.494 46.2721 27.2287L42.2364 21.4656C41.3536 20.2118 41.5026 19.165 42.6835 18.3253L44.4835 17.0599C45.6644 16.2317 46.6963 16.4388 47.5791 17.7041L48.1868 18.5783L46.295 19.9127L45.5154 18.7969C45.4581 18.7164 45.3893 18.6704 45.2976 18.6474C45.2058 18.6243 45.1256 18.6474 45.0453 18.6934L44.1511 19.326C44.0708 19.3836 44.0364 19.4526 44.0135 19.5446C44.002 19.6366 44.0249 19.7286 44.0708 19.7977L48.439 26.0324C48.4963 26.1129 48.5651 26.1589 48.6568 26.1819C48.7485 26.2049 48.8288 26.1819 48.9091 26.1359L49.8033 25.5032C49.8836 25.4457 49.918 25.3767 49.9409 25.2847C49.9638 25.1926 49.9294 25.1006 49.8836 25.0316L48.3702 22.869L47.625 23.3981Z" fill="white"/>
<path d="M54.3568 19.0837L53.4511 17.5307L56.2371 15.8973L58.3352 19.4863C59.1148 20.8091 58.874 21.8444 57.6358 22.5691L55.7441 23.6849C54.5058 24.4096 53.4969 24.1105 52.7173 22.7877L49.1746 16.7025C48.395 15.3797 48.6357 14.3444 49.874 13.6197L51.7657 12.5039C53.0039 11.7792 54.0129 12.0783 54.7925 13.4011L55.3313 14.3214L53.3249 15.4947L52.637 14.3214C52.5912 14.2409 52.5224 14.1833 52.4307 14.1603C52.339 14.1373 52.2587 14.1373 52.1784 14.1833L51.2268 14.7355C51.1466 14.7815 51.1007 14.8505 51.0778 14.9425C51.0549 15.0346 51.0663 15.1266 51.1237 15.2071L54.953 21.7869C54.9988 21.8674 55.0676 21.9249 55.1594 21.9479C55.2511 21.9709 55.3313 21.9709 55.4116 21.9249L56.3632 21.3728C56.4434 21.3268 56.4893 21.2578 56.5122 21.1657C56.5352 21.0737 56.5237 20.9817 56.4664 20.9012L55.1364 18.6235L54.3568 19.0837Z" fill="white"/>
<path d="M64.884 16.4382L67.326 15.3569L68.1515 17.2549L63.4852 19.3255L58.9336 8.97267L61.1693 7.9834L64.884 16.4382Z" fill="white"/>
<path d="M69.4468 4.56713C70.8111 4.09551 71.7398 4.57864 72.2443 6.02803L75.2596 14.6899L72.9551 15.4951L71.7054 11.9176L70.043 12.5043L71.2927 16.0818L68.9882 16.887L65.9729 8.22513C65.4684 6.77573 65.8926 5.80947 67.257 5.32634L69.4468 4.56713ZM69.4238 10.7213L71.0863 10.1346L69.8481 6.55717C69.8137 6.46515 69.7563 6.40763 69.6761 6.36162C69.5958 6.31561 69.5041 6.30411 69.4238 6.33862L68.392 6.70671C68.3003 6.74122 68.243 6.79874 68.2086 6.87926C68.1742 6.97129 68.1627 7.05181 68.1971 7.14383L69.4238 10.7213Z" fill="white"/>
<path d="M80.5514 6.90139C81.3539 6.98192 81.8699 7.48805 82.0992 8.41981L82.5922 10.3868C82.9705 11.8822 82.4546 12.8025 81.0558 13.1591L76.7106 14.2519L73.959 3.27791L78.1667 2.21962C79.5654 1.86303 80.4482 2.43818 80.8265 3.93359L81.0788 4.93436C81.3081 5.84311 81.1361 6.49879 80.5514 6.90139ZM77.9832 3.9796L76.7335 4.29019L77.4673 7.22348L78.717 6.9129C78.8087 6.88989 78.8775 6.83238 78.9233 6.75185C78.9692 6.67133 78.9807 6.57931 78.9577 6.48728L78.396 4.23267C78.373 4.14065 78.3272 4.07163 78.2469 4.01411C78.1667 3.9566 78.0749 3.9566 77.9832 3.9796ZM80.2992 11.2611L79.68 8.79941C79.6571 8.70738 79.6113 8.63836 79.531 8.58085C79.4507 8.52333 79.3705 8.51183 79.2788 8.53484L77.8915 8.87993L78.6826 12.0203L80.0699 11.6752C80.1616 11.6522 80.2304 11.5947 80.2762 11.5141C80.3106 11.4336 80.3221 11.3531 80.2992 11.2611Z" fill="white"/>
<path d="M89.4287 3.12821L87.1357 3.4963L86.9981 2.61057C86.9867 2.51854 86.9408 2.43802 86.8606 2.3805C86.7803 2.32299 86.7115 2.29998 86.6198 2.32299L85.6682 2.47253C85.5765 2.48403 85.5077 2.53004 85.4503 2.61057C85.393 2.69109 85.3816 2.77161 85.393 2.86363L85.714 4.85367C85.7255 4.9457 85.7714 5.02622 85.8516 5.08374C85.9319 5.14125 86.0121 5.16426 86.1039 5.15275L87.6516 4.89969C89.0733 4.69263 89.9103 5.3368 90.151 6.83221L90.5294 9.23636C90.7701 10.7548 90.1854 11.629 88.7637 11.8591L86.7344 12.1812C85.3128 12.4112 84.4758 11.767 84.2351 10.2486L84.0402 9.08682L86.3332 8.71872L86.5281 9.96106C86.5395 10.0531 86.5854 10.1336 86.6656 10.1911C86.7344 10.2486 86.8262 10.2716 86.9179 10.2601L87.9841 10.0876C88.0758 10.0761 88.1446 10.0301 88.202 9.94955C88.2593 9.86903 88.2708 9.78851 88.2593 9.69649L87.9153 7.49939C87.9039 7.40737 87.858 7.32684 87.7778 7.26933C87.709 7.21181 87.6172 7.18881 87.5255 7.20031L85.9777 7.45338C84.5561 7.68344 83.7191 7.03927 83.4784 5.52085L83.1229 3.28925C82.8822 1.77084 83.4669 0.8966 84.8886 0.666538L86.8032 0.355954C88.2249 0.125892 89.0618 0.770066 89.3026 2.28848L89.4287 3.12821Z" fill="white"/>
</svg>
