<svg width="690" height="334" viewBox="0 0 690 334" fill="none" xmlns="http://www.w3.org/2000/svg">
<rect width="690" height="334" rx="8" fill="black"/>
<mask id="mask0_6_1545" style="mask-type:alpha" maskUnits="userSpaceOnUse" x="0" y="0" width="690" height="334">
<rect width="690" height="334" rx="8" fill="black"/>
</mask>
<g mask="url(#mask0_6_1545)">
<rect x="-1283.61" y="-243" width="2171.67" height="60" transform="rotate(9 -1283.61 -243)" fill="white"/>
<path d="M-55.8731 -15.6774L-55.4703 -18.2207L-50.9022 -17.4972L-51.833 -11.6205C-52.1772 -9.44756 -53.3699 -8.52275 -55.4111 -8.84604L-58.5223 -9.33881C-60.5635 -9.66211 -61.4121 -10.9102 -61.0679 -13.0831L-59.4918 -23.0341C-59.1477 -25.207 -57.955 -26.1318 -55.9138 -25.8085L-52.8025 -25.3157C-50.7613 -24.9924 -49.9128 -23.7443 -50.2569 -21.5714L-50.4955 -20.0652L-53.7796 -20.5853L-53.4745 -22.5113C-53.4537 -22.643 -53.4848 -22.7661 -53.5679 -22.8805C-53.6346 -22.9923 -53.7338 -23.0586 -53.8655 -23.0795L-55.4211 -23.3259C-55.5528 -23.3467 -55.6758 -23.3156 -55.7902 -23.2325C-55.8882 -23.1467 -55.9476 -23.038 -55.9684 -22.9063L-57.6736 -12.1405C-57.6944 -12.0088 -57.6715 -11.8871 -57.6049 -11.7753C-57.5217 -11.6609 -57.4143 -11.5932 -57.2826 -11.5724L-55.727 -11.326C-55.5953 -11.3051 -55.4805 -11.3376 -55.3826 -11.4233C-55.2681 -11.5064 -55.2005 -11.6138 -55.1797 -11.7455L-54.5891 -15.4741L-55.8731 -15.6774Z" fill="black"/>
<path d="M-40.1783 -19.9751L-41.7544 -10.0242C-42.0985 -7.85125 -43.2912 -6.92645 -45.3324 -7.24974L-48.6165 -7.76989C-50.6577 -8.09318 -51.5062 -9.34129 -51.1621 -11.5142L-49.586 -21.4652C-49.2419 -23.6381 -48.0492 -24.5629 -46.0079 -24.2396L-42.7239 -23.7194C-40.6827 -23.3961 -39.8341 -22.148 -40.1783 -19.9751ZM-45.2738 -10.1766L-43.5687 -20.9424C-43.5479 -21.0741 -43.579 -21.1972 -43.6621 -21.3116C-43.7288 -21.4234 -43.828 -21.4897 -43.9596 -21.5106L-45.5153 -21.7569C-45.6469 -21.7778 -45.77 -21.7467 -45.8844 -21.6635C-45.9824 -21.5778 -46.0418 -21.4691 -46.0626 -21.3374L-47.7678 -10.5716C-47.7886 -10.4399 -47.7657 -10.3182 -47.699 -10.2064C-47.6159 -10.092 -47.5085 -10.0243 -47.3768 -10.0035L-45.8212 -9.75707C-45.6895 -9.73622 -45.5747 -9.76865 -45.4768 -9.85439C-45.3623 -9.93751 -45.2947 -10.0449 -45.2738 -10.1766Z" fill="black"/>
<path d="M-29.4526 -18.2763L-31.0287 -8.32539C-31.3729 -6.15248 -32.5655 -5.22767 -34.6068 -5.55096L-37.8908 -6.07111C-39.932 -6.39441 -40.7806 -7.64251 -40.4364 -9.81543L-38.8603 -19.7664C-38.5162 -21.9393 -37.3235 -22.8641 -35.2823 -22.5408L-31.9982 -22.0207C-29.957 -21.6974 -29.1085 -20.4493 -29.4526 -18.2763ZM-34.5482 -8.47783L-32.843 -19.2436C-32.8222 -19.3753 -32.8533 -19.4984 -32.9364 -19.6128C-33.0031 -19.7246 -33.1023 -19.7909 -33.234 -19.8118L-34.7896 -20.0582C-34.9213 -20.079 -35.0443 -20.0479 -35.1587 -19.9648C-35.2567 -19.879 -35.3161 -19.7703 -35.337 -19.6386L-37.0421 -8.87283C-37.063 -8.74114 -37.04 -8.61939 -36.9734 -8.50758C-36.8903 -8.39317 -36.7829 -8.32554 -36.6512 -8.30468L-35.0956 -8.0583C-34.9639 -8.03744 -34.849 -8.06988 -34.7511 -8.15561C-34.6367 -8.23873 -34.569 -8.34614 -34.5482 -8.47783Z" fill="black"/>
<path d="M-21.3117 -20.075C-19.2704 -19.7517 -18.4219 -18.5036 -18.7661 -16.3306L-20.2639 -6.87353C-20.6081 -4.70062 -21.8008 -3.77581 -23.842 -4.09911L-30.1879 -5.1042L-27.6576 -21.0801L-21.3117 -20.075ZM-23.7834 -7.02598L-22.1565 -17.2979C-22.1356 -17.4296 -22.1668 -17.5527 -22.2499 -17.6671C-22.3166 -17.7789 -22.4157 -17.8452 -22.5474 -17.8661L-24.5722 -18.1868L-26.3555 -6.92713L-24.3308 -6.60644C-24.1991 -6.58558 -24.0843 -6.61802 -23.9863 -6.70375C-23.8719 -6.78688 -23.8043 -6.89429 -23.7834 -7.02598Z" fill="black"/>
<path d="M-13.7662 -9.00834L-13.3634 -11.5516L-8.79532 -10.8281L-9.7261 -4.95139C-10.0703 -2.77848 -11.2629 -1.85367 -13.3042 -2.17696L-16.4154 -2.66973C-18.4566 -2.99303 -19.3051 -4.24114 -18.961 -6.41405L-17.3849 -16.365C-17.0407 -18.5379 -15.8481 -19.4627 -13.8068 -19.1394L-10.6956 -18.6467C-8.6544 -18.3234 -7.80587 -17.0753 -8.15003 -14.9023L-8.38859 -13.3961L-11.6727 -13.9163L-11.3676 -15.8423C-11.3467 -15.9739 -11.3779 -16.097 -11.461 -16.2114C-11.5277 -16.3232 -11.6268 -16.3896 -11.7585 -16.4104L-13.3141 -16.6568C-13.4458 -16.6776 -13.5689 -16.6465 -13.6833 -16.5634C-13.7813 -16.4777 -13.8407 -16.3689 -13.8615 -16.2373L-15.5666 -5.47145C-15.5875 -5.33976 -15.5646 -5.21801 -15.4979 -5.10621C-15.4148 -4.9918 -15.3074 -4.92416 -15.1757 -4.9033L-13.6201 -4.65692C-13.4884 -4.63606 -13.3736 -4.6685 -13.2756 -4.75423C-13.1612 -4.83736 -13.0936 -4.94477 -13.0727 -5.07646L-12.4822 -8.80498L-13.7662 -9.00834Z" fill="black"/>
<path d="M-0.616971 -17.0504C1.42425 -16.7271 2.27278 -15.479 1.92863 -13.306L-0.124575 -0.342638L-3.58148 -0.890158L-2.73283 -6.24837L-5.22673 -6.64336L-6.07539 -1.28515L-9.5323 -1.83268L-7.4791 -14.7961C-7.13494 -16.969 -5.94225 -17.8938 -3.90103 -17.5705L-0.616971 -17.0504ZM-4.80436 -9.31012L-2.31045 -8.91512L-1.4618 -14.2733C-1.44094 -14.405 -1.47207 -14.5281 -1.55519 -14.6425C-1.62186 -14.7543 -1.72104 -14.8206 -1.85273 -14.8415L-3.40834 -15.0879C-3.54003 -15.1087 -3.66308 -15.0776 -3.77749 -14.9945C-3.87544 -14.9087 -3.93485 -14.8 -3.9557 -14.6683L-4.80436 -9.31012Z" fill="black"/>
<path d="M10.3783 1.32085L6.92138 0.773331L9.02151 -12.4864C9.04237 -12.6181 9.01123 -12.7411 8.9281 -12.8555C8.86144 -12.9673 8.76226 -13.0337 8.63057 -13.0545L7.29719 -13.2657C7.1655 -13.2866 7.04245 -13.2554 6.92804 -13.1723C6.83009 -13.0866 6.77068 -12.9779 6.74982 -12.8462L4.64969 0.413532L1.19279 -0.133988L3.24599 -13.0974C3.59015 -15.2703 4.78284 -16.1951 6.82406 -15.8718L9.88588 -15.3869C11.9271 -15.0636 12.7756 -13.8155 12.4315 -11.6426L10.3783 1.32085Z" fill="black"/>
<path d="M17.1328 -4.11443L17.5356 -6.65772L22.1037 -5.93421L21.1729 -0.0574713C20.8287 2.11544 19.636 3.04025 17.5948 2.71695L14.4836 2.22419C12.4424 1.90089 11.5938 0.652782 11.938 -1.52013L13.5141 -11.4711C13.8582 -13.644 15.0509 -14.5688 17.0921 -14.2455L20.2034 -13.7527C22.2446 -13.4294 23.0931 -12.1813 22.749 -10.0084L22.5104 -8.5022L19.2263 -9.02235L19.5314 -10.9483C19.5522 -11.08 19.5211 -11.2031 19.438 -11.3175C19.3713 -11.4293 19.2721 -11.4956 19.1404 -11.5165L17.5848 -11.7629C17.4531 -11.7837 17.3301 -11.7526 17.2157 -11.6695C17.1177 -11.5837 17.0583 -11.475 17.0375 -11.3433L15.3323 -0.577536C15.3115 -0.445844 15.3344 -0.324096 15.401 -0.212291C15.4842 -0.0978787 15.5916 -0.030243 15.7233 -0.00938512L17.2789 0.236999C17.4106 0.257857 17.5254 0.225419 17.6233 0.139686C17.7377 0.056561 17.8054 -0.0508477 17.8262 -0.182539L18.4168 -3.91106L17.1328 -4.11443Z" fill="black"/>
<path d="M29.0419 1.29011L32.8198 1.88847L32.3584 4.80215L25.1236 3.65627L27.6539 -12.3196L31.1108 -11.7721L29.0419 1.29011Z" fill="black"/>
<path d="M41.678 -10.3515C43.7193 -10.0282 44.5678 -8.78009 44.2236 -6.60717L42.1704 6.35623L38.7135 5.80871L39.5622 0.450505L37.0683 0.0555086L36.2196 5.41372L32.7627 4.8662L34.8159 -8.09721C35.1601 -10.2701 36.3527 -11.1949 38.394 -10.8716L41.678 -10.3515ZM37.4906 -2.61125L39.9845 -2.21625L40.8332 -7.57446C40.8541 -7.70615 40.8229 -7.8292 40.7398 -7.94362C40.6731 -8.05542 40.574 -8.12175 40.4423 -8.14261L38.8867 -8.389C38.755 -8.40985 38.6319 -8.37872 38.5175 -8.2956C38.4196 -8.20986 38.3602 -8.10115 38.3393 -7.96946L37.4906 -2.61125Z" fill="black"/>
<path d="M52.6997 -0.936415C53.7097 -0.388331 54.1065 0.568863 53.8901 1.93516L53.4364 4.79946C53.0923 6.97237 51.8996 7.89718 49.8584 7.57388L43.5125 6.56879L46.0428 -9.40706L52.1912 -8.43326C54.2324 -8.10996 55.0809 -6.86185 54.7368 -4.68894L54.506 -3.2321C54.2974 -1.91518 53.6953 -1.14995 52.6997 -0.936415ZM50.9554 -6.22438L49.1282 -6.51378L48.4516 -2.24203L50.2788 -1.95263C50.4105 -1.93177 50.5253 -1.96421 50.6233 -2.04994C50.7377 -2.13307 50.8053 -2.24047 50.8262 -2.37216L51.3463 -5.65623C51.3672 -5.78792 51.3361 -5.91097 51.2529 -6.02538C51.1863 -6.13719 51.0871 -6.20352 50.9554 -6.22438ZM49.917 4.64701L50.484 1.06665C50.5049 0.934953 50.4738 0.811901 50.3906 0.697489C50.324 0.585684 50.2248 0.519353 50.0931 0.498495L48.0683 0.177805L47.3448 4.74586L49.3696 5.06655C49.5013 5.08741 49.6161 5.05497 49.714 4.96924C49.8285 4.88611 49.8961 4.77871 49.917 4.64701Z" fill="black"/>
<path d="M64.7752 -2.13716L61.4912 -2.65731L61.6906 -3.91661C61.7115 -4.0483 61.6803 -4.17135 61.5972 -4.28577C61.5305 -4.39757 61.4314 -4.4639 61.2997 -4.48476L59.9416 -4.69986C59.8099 -4.72072 59.6869 -4.68958 59.5725 -4.60646C59.4745 -4.52072 59.4151 -4.41201 59.3942 -4.28032L58.9445 -1.44072C58.9236 -1.30903 58.9465 -1.18728 59.0132 -1.07547C59.0963 -0.961058 59.2037 -0.893424 59.3354 -0.872566L61.5577 -0.520589C63.5937 -0.164369 64.4423 1.08374 64.1033 3.22373L63.5597 6.65594C63.2155 8.82886 62.0229 9.75367 59.9816 9.43037L57.068 8.96889C55.0267 8.64559 54.1782 7.39748 54.5224 5.22457L54.7844 3.57019L58.0685 4.09034L57.7869 5.86818C57.766 5.99987 57.7889 6.12161 57.8556 6.23342C57.9387 6.34783 58.0461 6.41547 58.1778 6.43632L59.7087 6.6788C59.8404 6.69966 59.9552 6.66722 60.0532 6.58148C60.1676 6.49836 60.2352 6.39095 60.2561 6.25926L60.7528 3.12335C60.7736 2.99166 60.7425 2.86861 60.6594 2.75419C60.5927 2.64239 60.4935 2.57606 60.3618 2.5552L58.1395 2.20322C56.0983 1.87993 55.2498 0.63182 55.5939 -1.54109L56.0984 -4.72639C56.4426 -6.8993 57.6353 -7.82411 59.6765 -7.50081L62.4173 -7.06671C64.4586 -6.74341 65.3071 -5.4953 64.9629 -3.32239L64.7752 -2.13716Z" fill="black"/>
<path d="M104.852 -3.24449L106.031 -7.71839L87.1392 -10.7105L77.4665 13.4708L97.2162 16.5988L96.059 21.0762L114.944 24.0672L124.617 -0.114039L104.852 -3.24449V-3.24449ZM88.621 -8.13866L103.125 -5.84147L101.353 0.87998L94.1333 -0.263468L94.7184 -2.48314L92.4039 -2.84973L89.6776 7.49315L94.1421 8.20026L94.7411 5.95796L92.5844 5.61637L93.5425 1.981L100.762 3.12445L97.8018 14.3544L80.7066 11.6468L88.621 -8.13866ZM113.462 21.4954L98.9524 19.1973L99.7885 15.9605L104.259 -1.00028L121.376 1.7108L118.798 8.15718L110.996 6.92152L111.581 4.70184L109.266 4.33526L106.54 14.6781L111.005 15.3852L111.604 13.1429L109.446 12.8012L110.404 9.16586L117.918 10.3559L113.462 21.4954Z" fill="black"/>
<path d="M137.276 14.9144L137.679 12.3711L142.247 13.0946L141.316 18.9713C140.972 21.1442 139.78 22.069 137.738 21.7458L134.627 21.253C132.586 20.9297 131.737 19.6816 132.082 17.5087L133.658 7.55771C134.002 5.3848 135.194 4.45999 137.236 4.78329L140.347 5.27605C142.388 5.59935 143.237 6.84746 142.892 9.02037L142.654 10.5266L139.37 10.0065L139.675 8.08046C139.696 7.94877 139.665 7.82572 139.581 7.7113C139.515 7.5995 139.416 7.53317 139.284 7.51231L137.728 7.26592C137.597 7.24507 137.474 7.2762 137.359 7.35933C137.261 7.44506 137.202 7.55377 137.181 7.68546L135.476 18.4513C135.455 18.583 135.478 18.7047 135.545 18.8165C135.628 18.9309 135.735 18.9986 135.867 19.0194L137.422 19.2658C137.554 19.2867 137.669 19.2542 137.767 19.1685C137.881 19.0854 137.949 18.978 137.97 18.8463L138.56 15.1177L137.276 14.9144Z" fill="black"/>
<path d="M152.971 10.6167L151.395 20.5676C151.051 22.7405 149.858 23.6654 147.817 23.3421L144.533 22.8219C142.492 22.4986 141.643 21.2505 141.987 19.0776L143.563 9.12664C143.908 6.95372 145.1 6.02891 147.141 6.35221L150.426 6.87236C152.467 7.19565 153.315 8.44376 152.971 10.6167ZM147.876 20.4152L149.581 9.64938C149.602 9.51769 149.57 9.39464 149.487 9.28023C149.421 9.16842 149.321 9.10209 149.19 9.08123L147.634 8.83485C147.502 8.81399 147.379 8.84513 147.265 8.92825C147.167 9.01398 147.108 9.1227 147.087 9.25439L145.382 20.0202C145.361 20.1519 145.384 20.2736 145.45 20.3854C145.533 20.4998 145.641 20.5675 145.773 20.5883L147.328 20.8347C147.46 20.8556 147.575 20.8231 147.673 20.7374C147.787 20.6543 147.855 20.5469 147.876 20.4152Z" fill="black"/>
<path d="M163.697 12.3155L162.121 22.2664C161.777 24.4393 160.584 25.3641 158.543 25.0408L155.259 24.5207C153.217 24.1974 152.369 22.9493 152.713 20.7764L154.289 10.8254C154.633 8.6525 155.826 7.72769 157.867 8.05099L161.151 8.57113C163.192 8.89443 164.041 10.1425 163.697 12.3155ZM158.601 22.114L160.306 11.3482C160.327 11.2165 160.296 11.0934 160.213 10.979C160.146 10.8672 160.047 10.8009 159.915 10.78L158.36 10.5336C158.228 10.5128 158.105 10.5439 157.991 10.627C157.893 10.7128 157.833 10.8215 157.812 10.9532L156.107 21.719C156.086 21.8507 156.109 21.9724 156.176 22.0842C156.259 22.1986 156.367 22.2663 156.498 22.2871L158.054 22.5335C158.186 22.5544 158.3 22.5219 158.398 22.4362C158.513 22.3531 158.58 22.2457 158.601 22.114Z" fill="black"/>
<path d="M171.838 10.5168C173.879 10.8401 174.728 12.0882 174.383 14.2612L172.885 23.7183C172.541 25.8912 171.349 26.816 169.307 26.4927L162.962 25.4876L165.492 9.51174L171.838 10.5168ZM169.366 23.5658L170.993 13.2939C171.014 13.1622 170.983 13.0391 170.9 12.9247C170.833 12.8129 170.734 12.7466 170.602 12.7257L168.577 12.405L166.794 23.6647L168.819 23.9854C168.95 24.0062 169.065 23.9738 169.163 23.888C169.278 23.8049 169.345 23.6975 169.366 23.5658Z" fill="black"/>
<path d="M179.383 21.5835L179.786 19.0402L184.354 19.7637L183.423 25.6404C183.079 27.8133 181.886 28.7381 179.845 28.4148L176.734 27.9221C174.693 27.5988 173.844 26.3507 174.188 24.1777L175.765 14.2268C176.109 12.0539 177.301 11.1291 179.343 11.4524L182.454 11.9451C184.495 12.2684 185.344 13.5165 184.999 15.6895L184.761 17.1957L181.477 16.6755L181.782 14.7495C181.803 14.6178 181.772 14.4948 181.688 14.3804C181.622 14.2686 181.523 14.2022 181.391 14.1814L179.835 13.935C179.704 13.9141 179.581 13.9453 179.466 14.0284C179.368 14.1141 179.309 14.2229 179.288 14.3545L177.583 25.1203C177.562 25.252 177.585 25.3738 177.651 25.4856C177.735 25.6 177.842 25.6676 177.974 25.6885L179.529 25.9349C179.661 25.9557 179.776 25.9233 179.874 25.8376C179.988 25.7544 180.056 25.647 180.077 25.5153L180.667 21.7868L179.383 21.5835Z" fill="black"/>
<path d="M192.532 13.5414C194.574 13.8647 195.422 15.1128 195.078 17.2858L193.025 30.2492L189.568 29.7016L190.417 24.3434L187.923 23.9484L187.074 29.3066L183.617 28.7591L185.67 15.7957C186.014 13.6228 187.207 12.698 189.248 13.0213L192.532 13.5414ZM188.345 21.2817L190.839 21.6767L191.688 16.3185C191.708 16.1868 191.677 16.0637 191.594 15.9493C191.528 15.8375 191.428 15.7712 191.297 15.7503L189.741 15.5039C189.609 15.4831 189.486 15.5142 189.372 15.5973C189.274 15.6831 189.215 15.7918 189.194 15.9235L188.345 21.2817Z" fill="black"/>
<path d="M203.528 31.9126L200.071 31.3651L202.171 18.1054C202.192 17.9737 202.161 17.8507 202.078 17.7363C202.011 17.6245 201.912 17.5581 201.78 17.5373L200.447 17.3261C200.315 17.3052 200.192 17.3364 200.077 17.4195C199.98 17.5052 199.92 17.6139 199.899 17.7456L197.799 31.0053L194.342 30.4578L196.395 17.4944C196.74 15.3215 197.932 14.3967 199.973 14.72L203.035 15.2049C205.077 15.5282 205.925 16.7763 205.581 18.9492L203.528 31.9126Z" fill="black"/>
<path d="M210.282 26.4774L210.685 23.9341L215.253 24.6576L214.322 30.5343C213.978 32.7072 212.785 33.632 210.744 33.3088L207.633 32.816C205.592 32.4927 204.743 31.2446 205.087 29.0717L206.663 19.1207C207.008 16.9478 208.2 16.023 210.242 16.3463L213.353 16.8391C215.394 17.1624 216.243 18.4105 215.898 20.5834L215.66 22.0896L212.376 21.5694L212.681 19.6435C212.702 19.5118 212.671 19.3887 212.587 19.2743C212.521 19.1625 212.422 19.0962 212.29 19.0753L210.734 18.8289C210.603 18.8081 210.48 18.8392 210.365 18.9223C210.267 19.0081 210.208 19.1168 210.187 19.2485L208.482 30.0143C208.461 30.146 208.484 30.2677 208.55 30.3795C208.634 30.4939 208.741 30.5616 208.873 30.5824L210.428 30.8288C210.56 30.8497 210.675 30.8172 210.773 30.7315C210.887 30.6484 210.955 30.5409 210.976 30.4093L211.566 26.6807L210.282 26.4774Z" fill="black"/>
<path d="M222.191 31.8819L225.969 32.4803L225.508 35.394L218.273 34.2481L220.803 18.2722L224.26 18.8197L222.191 31.8819Z" fill="black"/>
<path d="M234.827 20.2403C236.869 20.5636 237.717 21.8117 237.373 23.9846L235.32 36.948L231.863 36.4005L232.712 31.0423L230.218 30.6473L229.369 36.0055L225.912 35.458L227.965 22.4946C228.309 20.3217 229.502 19.3969 231.543 19.7202L234.827 20.2403ZM230.64 27.9805L233.134 28.3755L233.983 23.0173C234.003 22.8856 233.972 22.7626 233.889 22.6482C233.823 22.5364 233.723 22.47 233.592 22.4492L232.036 22.2028C231.904 22.1819 231.781 22.2131 231.667 22.2962C231.569 22.3819 231.51 22.4906 231.489 22.6223L230.64 27.9805Z" fill="black"/>
<path d="M245.849 29.6554C246.859 30.2035 247.256 31.1607 247.04 32.527L246.586 35.3913C246.242 37.5642 245.049 38.489 243.008 38.1657L236.662 37.1606L239.192 21.1847L245.341 22.1585C247.382 22.4818 248.23 23.7299 247.886 25.9029L247.655 27.3597C247.447 28.6766 246.845 29.4418 245.849 29.6554ZM244.105 24.3674L242.278 24.078L241.601 28.3498L243.428 28.6392C243.56 28.66 243.675 28.6276 243.773 28.5419C243.887 28.4587 243.955 28.3513 243.976 28.2196L244.496 24.9356C244.517 24.8039 244.485 24.6808 244.402 24.5664C244.336 24.4546 244.237 24.3883 244.105 24.3674ZM243.066 35.2388L243.633 31.6584C243.654 31.5268 243.623 31.4037 243.54 31.2893C243.473 31.1775 243.374 31.1112 243.243 31.0903L241.218 30.7696L240.494 35.3377L242.519 35.6583C242.651 35.6792 242.766 35.6468 242.863 35.561C242.978 35.4779 243.046 35.3705 243.066 35.2388Z" fill="black"/>
<path d="M257.925 28.4546L254.641 27.9345L254.84 26.6752C254.861 26.5435 254.83 26.4204 254.747 26.306C254.68 26.1942 254.581 26.1279 254.449 26.107L253.091 25.8919C252.959 25.8711 252.836 25.9022 252.722 25.9853C252.624 26.0711 252.565 26.1798 252.544 26.3115L252.094 29.1511C252.073 29.2828 252.096 29.4045 252.163 29.5163C252.246 29.6307 252.353 29.6984 252.485 29.7192L254.707 30.0712C256.743 30.4274 257.592 31.6755 257.253 33.8155L256.709 37.2477C256.365 39.4207 255.172 40.3455 253.131 40.0222L250.217 39.5607C248.176 39.2374 247.328 37.9893 247.672 35.8164L247.934 34.162L251.218 34.6821L250.936 36.46C250.915 36.5917 250.938 36.7134 251.005 36.8252C251.088 36.9396 251.196 37.0073 251.327 37.0281L252.858 37.2706C252.99 37.2915 253.105 37.259 253.203 37.1733C253.317 37.0902 253.385 36.9827 253.406 36.8511L253.902 33.7151C253.923 33.5835 253.892 33.4604 253.809 33.346C253.742 33.2342 253.643 33.1679 253.511 33.147L251.289 32.795C249.248 32.4717 248.399 31.2236 248.743 29.0507L249.248 25.8654C249.592 23.6925 250.785 22.7677 252.826 23.091L255.567 23.5251C257.608 23.8484 258.457 25.0965 258.112 27.2694L257.925 28.4546Z" fill="black"/>
<path d="M491.148 57.9391L492.328 53.4652L473.436 50.4731L463.763 74.6544L483.513 77.7824L482.356 82.2598L501.241 85.2508L510.913 61.0696L491.148 57.9391V57.9391ZM474.918 53.0449L489.422 55.3421L487.649 62.0636L480.43 60.9201L481.015 58.7005L478.701 58.3339L475.974 68.6767L480.439 69.3839L481.038 67.1416L478.881 66.8L479.839 63.1646L487.059 64.308L484.099 75.538L467.003 72.8304L474.918 53.0449ZM499.759 82.679L485.249 80.3809L486.085 77.1441L490.556 60.1833L507.673 62.8944L505.094 69.3408L497.293 68.1051L497.878 65.8854L495.563 65.5189L492.837 75.8617L497.301 76.5688L497.9 74.3265L495.743 73.9848L496.701 70.3494L504.215 71.5395L499.759 82.679Z" fill="black"/>
<path d="M523.573 76.098L523.976 73.5547L528.544 74.2782L527.613 80.1549C527.269 82.3278 526.076 83.2526 524.035 82.9293L520.924 82.4366C518.883 82.1133 518.034 80.8652 518.378 78.6923L519.954 68.7413C520.299 66.5684 521.491 65.6436 523.532 65.9669L526.644 66.4596C528.685 66.7829 529.533 68.0311 529.189 70.204L528.951 71.7102L525.667 71.19L525.972 69.2641C525.993 69.1324 525.961 69.0093 525.878 68.8949C525.812 68.7831 525.712 68.7168 525.581 68.6959L524.025 68.4495C523.893 68.4287 523.77 68.4598 523.656 68.5429C523.558 68.6287 523.499 68.7374 523.478 68.8691L521.773 79.6349C521.752 79.7665 521.775 79.8883 521.841 80.0001C521.924 80.1145 522.032 80.1821 522.164 80.203L523.719 80.4494C523.851 80.4702 523.966 80.4378 524.064 80.3521C524.178 80.269 524.246 80.1615 524.267 80.0299L524.857 76.3013L523.573 76.098Z" fill="black"/>
<path d="M539.268 71.8003L537.692 81.7512C537.348 83.9241 536.155 84.8489 534.114 84.5256L530.83 84.0055C528.788 83.6822 527.94 82.4341 528.284 80.2612L529.86 70.3102C530.204 68.1373 531.397 67.2125 533.438 67.5358L536.722 68.0559C538.763 68.3792 539.612 69.6274 539.268 71.8003ZM534.172 81.5988L535.877 70.833C535.898 70.7013 535.867 70.5782 535.784 70.4638C535.717 70.352 535.618 70.2857 535.487 70.2648L533.931 70.0184C533.799 69.9976 533.676 70.0287 533.562 70.1118C533.464 70.1976 533.404 70.3063 533.384 70.438L531.678 81.2038C531.658 81.3355 531.68 81.4572 531.747 81.569C531.83 81.6834 531.938 81.7511 532.069 81.7719L533.625 82.0183C533.757 82.0392 533.871 82.0067 533.969 81.921C534.084 81.8379 534.151 81.7305 534.172 81.5988Z" fill="black"/>
<path d="M549.994 73.499L548.417 83.45C548.073 85.6229 546.881 86.5477 544.839 86.2244L541.555 85.7043C539.514 85.381 538.666 84.1329 539.01 81.96L540.586 72.009C540.93 69.8361 542.123 68.9113 544.164 69.2346L547.448 69.7547C549.489 70.078 550.338 71.3261 549.994 73.499ZM544.898 83.2976L546.603 72.5318C546.624 72.4001 546.593 72.277 546.51 72.1626C546.443 72.0508 546.344 71.9845 546.212 71.9636L544.657 71.7172C544.525 71.6964 544.402 71.7275 544.287 71.8106C544.189 71.8964 544.13 72.0051 544.109 72.1368L542.404 82.9026C542.383 83.0343 542.406 83.156 542.473 83.2678C542.556 83.3822 542.663 83.4499 542.795 83.4707L544.351 83.7171C544.482 83.738 544.597 83.7055 544.695 83.6198C544.809 83.5367 544.877 83.4292 544.898 83.2976Z" fill="black"/>
<path d="M558.135 71.7004C560.176 72.0237 561.024 73.2718 560.68 75.4447L559.182 84.9019C558.838 87.0748 557.645 87.9996 555.604 87.6763L549.258 86.6712L551.789 70.6953L558.135 71.7004ZM555.663 84.7494L557.29 74.4775C557.311 74.3458 557.279 74.2227 557.196 74.1083C557.13 73.9965 557.03 73.9302 556.899 73.9093L554.874 73.5886L553.091 84.8483L555.115 85.169C555.247 85.1898 555.362 85.1574 555.46 85.0716C555.574 84.9885 555.642 84.8811 555.663 84.7494Z" fill="black"/>
<path d="M565.68 82.767L566.083 80.2237L570.651 80.9473L569.72 86.824C569.376 88.9969 568.183 89.9217 566.142 89.5984L563.031 89.1057C560.99 88.7824 560.141 87.5343 560.485 85.3613L562.061 75.4104C562.405 73.2375 563.598 72.3127 565.639 72.636L568.751 73.1287C570.792 73.452 571.64 74.7001 571.296 76.873L571.058 78.3793L567.774 77.8591L568.079 75.9331C568.099 75.8014 568.068 75.6784 567.985 75.564C567.919 75.4522 567.819 75.3858 567.688 75.365L566.132 75.1186C566 75.0977 565.877 75.1289 565.763 75.212C565.665 75.2977 565.606 75.4064 565.585 75.5381L563.88 86.3039C563.859 86.4356 563.882 86.5574 563.948 86.6692C564.031 86.7836 564.139 86.8512 564.27 86.8721L565.826 87.1185C565.958 87.1393 566.073 87.1069 566.171 87.0212C566.285 86.938 566.353 86.8306 566.373 86.6989L566.964 82.9704L565.68 82.767Z" fill="black"/>
<path d="M578.829 74.725C580.87 75.0483 581.719 76.2964 581.375 78.4693L579.322 91.4328L575.865 90.8852L576.713 85.527L574.219 85.132L573.371 90.4902L569.914 89.9427L571.967 76.9793C572.311 74.8064 573.504 73.8816 575.545 74.2049L578.829 74.725ZM574.642 82.4653L577.136 82.8603L577.984 77.5021C578.005 77.3704 577.974 77.2473 577.891 77.1329C577.824 77.0211 577.725 76.9548 577.593 76.9339L576.038 76.6875C575.906 76.6667 575.783 76.6978 575.669 76.7809C575.571 76.8667 575.511 76.9754 575.49 77.1071L574.642 82.4653Z" fill="black"/>
<path d="M589.824 93.0962L586.368 92.5487L588.468 79.289C588.489 79.1573 588.457 79.0343 588.374 78.9199C588.308 78.808 588.208 78.7417 588.077 78.7209L586.743 78.5097C586.612 78.4888 586.489 78.5199 586.374 78.6031C586.276 78.6888 586.217 78.7975 586.196 78.9292L584.096 92.1889L580.639 91.6414L582.692 78.678C583.036 76.5051 584.229 75.5803 586.27 75.9036L589.332 76.3885C591.373 76.7118 592.222 77.9599 591.878 80.1328L589.824 93.0962Z" fill="black"/>
<path d="M596.579 87.661L596.982 85.1177L601.55 85.8412L600.619 91.7179C600.275 93.8908 599.082 94.8156 597.041 94.4923L593.93 93.9996C591.889 93.6763 591.04 92.4282 591.384 90.2553L592.96 80.3043C593.304 78.1314 594.497 77.2066 596.538 77.5299L599.65 78.0226C601.691 78.3459 602.539 79.594 602.195 81.767L601.957 83.2732L598.672 82.753L598.978 80.8271C598.998 80.6954 598.967 80.5723 598.884 80.4579C598.817 80.3461 598.718 80.2798 598.587 80.2589L597.031 80.0125C596.899 79.9917 596.776 80.0228 596.662 80.1059C596.564 80.1917 596.504 80.3004 596.484 80.4321L594.779 91.1979C594.758 91.3295 594.781 91.4513 594.847 91.5631C594.93 91.6775 595.038 91.7451 595.169 91.766L596.725 92.0124C596.857 92.0332 596.972 92.0008 597.07 91.9151C597.184 91.832 597.252 91.7245 597.272 91.5929L597.863 87.8643L596.579 87.661Z" fill="black"/>
<path d="M608.488 93.0655L612.266 93.6639L611.805 96.5775L604.57 95.4317L607.1 79.4558L610.557 80.0033L608.488 93.0655Z" fill="black"/>
<path d="M621.124 81.4239C623.165 81.7472 624.014 82.9953 623.67 85.1682L621.617 98.1316L618.16 97.5841L619.008 92.2259L616.514 91.8309L615.666 97.1891L612.209 96.6416L614.262 83.6782C614.606 81.5053 615.799 80.5805 617.84 80.9038L621.124 81.4239ZM616.937 89.1641L619.431 89.5591L620.279 84.2009C620.3 84.0692 620.269 83.9462 620.186 83.8318C620.119 83.72 620.02 83.6536 619.888 83.6328L618.333 83.3864C618.201 83.3655 618.078 83.3967 617.964 83.4798C617.866 83.5655 617.806 83.6742 617.785 83.8059L616.937 89.1641Z" fill="black"/>
<path d="M632.146 90.839C633.156 91.3871 633.553 92.3443 633.336 93.7106L632.883 96.5749C632.538 98.7478 631.346 99.6726 629.305 99.3493L622.959 98.3442L625.489 82.3683L631.637 83.3421C633.679 83.6654 634.527 84.9135 634.183 87.0865L633.952 88.5433C633.744 89.8602 633.141 90.6254 632.146 90.839ZM630.402 85.551L628.574 85.2616L627.898 89.5334L629.725 89.8228C629.857 89.8436 629.972 89.8112 630.069 89.7255C630.184 89.6423 630.252 89.5349 630.272 89.4032L630.793 86.1192C630.813 85.9875 630.782 85.8644 630.699 85.75C630.632 85.6382 630.533 85.5719 630.402 85.551ZM629.363 96.4224L629.93 92.842C629.951 92.7103 629.92 92.5873 629.837 92.4729C629.77 92.3611 629.671 92.2947 629.539 92.2739L627.515 91.9532L626.791 96.5213L628.816 96.8419C628.947 96.8628 629.062 96.8304 629.16 96.7446C629.275 96.6615 629.342 96.5541 629.363 96.4224Z" fill="black"/>
<path d="M644.221 89.6382L640.937 89.1181L641.137 87.8588C641.158 87.7271 641.126 87.604 641.043 87.4896C640.977 87.3778 640.878 87.3115 640.746 87.2906L639.388 87.0755C639.256 87.0547 639.133 87.0858 639.019 87.1689C638.921 87.2547 638.861 87.3634 638.84 87.4951L638.391 90.3347C638.37 90.4664 638.393 90.5881 638.459 90.6999C638.542 90.8143 638.65 90.882 638.782 90.9028L641.004 91.2548C643.04 91.611 643.888 92.8591 643.549 94.9991L643.006 98.4313C642.662 100.604 641.469 101.529 639.428 101.206L636.514 100.744C634.473 100.421 633.624 99.1729 633.969 97L634.231 95.3456L637.515 95.8657L637.233 97.6436C637.212 97.7753 637.235 97.897 637.302 98.0088C637.385 98.1232 637.492 98.1909 637.624 98.2117L639.155 98.4542C639.287 98.475 639.401 98.4426 639.499 98.3569C639.614 98.2737 639.681 98.1663 639.702 98.0347L640.199 94.8987C640.22 94.767 640.189 94.644 640.106 94.5296C640.039 94.4178 639.94 94.3515 639.808 94.3306L637.586 93.9786C635.544 93.6553 634.696 92.4072 635.04 90.2343L635.545 87.049C635.889 84.8761 637.081 83.9513 639.123 84.2746L641.864 84.7087C643.905 85.032 644.753 86.2801 644.409 88.453L644.221 89.6382Z" fill="black"/>
<path d="M298 27.3473L299.179 22.8734L280.288 19.8813L270.615 44.0626L290.365 47.1906L289.207 51.668L308.092 54.659L317.765 30.4778L298 27.3473V27.3473ZM281.769 22.4531L296.273 24.7503L294.501 31.4718L287.282 30.3283L287.867 28.1087L285.552 27.7421L282.826 38.085L287.291 38.7921L287.89 36.5498L285.733 36.2082L286.691 32.5728L293.91 33.7162L290.95 44.9462L273.855 42.2386L281.769 22.4531ZM306.611 52.0872L292.101 49.7891L292.937 46.5523L297.408 29.5915L314.525 32.3026L311.946 38.749L304.144 37.5133L304.729 35.2936L302.415 34.9271L299.689 45.2699L304.153 45.977L304.752 43.7347L302.595 43.393L303.553 39.7577L311.067 40.9477L306.611 52.0872Z" fill="black"/>
<path d="M330.425 45.5062L330.828 42.9629L335.396 43.6864L334.465 49.5631C334.121 51.736 332.928 52.6608 330.887 52.3375L327.776 51.8448C325.734 51.5215 324.886 50.2734 325.23 48.1005L326.806 38.1495C327.15 35.9766 328.343 35.0518 330.384 35.3751L333.495 35.8679C335.537 36.1911 336.385 37.4393 336.041 39.6122L335.802 41.1184L332.518 40.5982L332.823 38.6723C332.844 38.5406 332.813 38.4175 332.73 38.3031C332.663 38.1913 332.564 38.125 332.432 38.1041L330.877 37.8577C330.745 37.8369 330.622 37.868 330.508 37.9511C330.41 38.0369 330.35 38.1456 330.329 38.2773L328.624 49.0431C328.603 49.1748 328.626 49.2965 328.693 49.4083C328.776 49.5227 328.884 49.5904 329.015 49.6112L330.571 49.8576C330.703 49.8785 330.817 49.846 330.915 49.7603C331.03 49.6772 331.097 49.5697 331.118 49.4381L331.709 45.7095L330.425 45.5062Z" fill="black"/>
<path d="M346.12 41.2085L344.543 51.1594C344.199 53.3323 343.007 54.2571 340.965 53.9339L337.681 53.4137C335.64 53.0904 334.792 51.8423 335.136 49.6694L336.712 39.7184C337.056 37.5455 338.249 36.6207 340.29 36.944L343.574 37.4642C345.615 37.7875 346.464 39.0356 346.12 41.2085ZM341.024 51.007L342.729 40.2412C342.75 40.1095 342.719 39.9864 342.636 39.872C342.569 39.7602 342.47 39.6939 342.338 39.673L340.783 39.4266C340.651 39.4058 340.528 39.4369 340.413 39.52C340.315 39.6058 340.256 39.7145 340.235 39.8462L338.53 50.612C338.509 50.7437 338.532 50.8654 338.599 50.9772C338.682 51.0916 338.789 51.1593 338.921 51.1801L340.477 51.4265C340.608 51.4474 340.723 51.4149 340.821 51.3292C340.936 51.2461 341.003 51.1387 341.024 51.007Z" fill="black"/>
<path d="M356.845 42.9072L355.269 52.8582C354.925 55.0311 353.732 55.9559 351.691 55.6326L348.407 55.1125C346.366 54.7892 345.517 53.5411 345.861 51.3682L347.438 41.4172C347.782 39.2443 348.974 38.3195 351.016 38.6428L354.3 39.1629C356.341 39.4862 357.189 40.7343 356.845 42.9072ZM351.75 52.7058L353.455 41.94C353.476 41.8083 353.445 41.6852 353.361 41.5708C353.295 41.459 353.196 41.3927 353.064 41.3718L351.508 41.1254C351.377 41.1046 351.254 41.1357 351.139 41.2188C351.041 41.3046 350.982 41.4133 350.961 41.545L349.256 52.3108C349.235 52.4425 349.258 52.5642 349.324 52.676C349.408 52.7904 349.515 52.8581 349.647 52.8789L351.202 53.1253C351.334 53.1462 351.449 53.1137 351.547 53.028C351.661 52.9449 351.729 52.8375 351.75 52.7058Z" fill="black"/>
<path d="M364.986 41.1086C367.027 41.4319 367.876 42.68 367.532 44.8529L366.034 54.3101C365.69 56.483 364.497 57.4078 362.456 57.0845L356.11 56.0794L358.64 40.1035L364.986 41.1086ZM362.514 54.1576L364.141 43.8857C364.162 43.754 364.131 43.6309 364.048 43.5165C363.981 43.4047 363.882 43.3384 363.75 43.3175L361.726 42.9968L359.942 54.2565L361.967 54.5772C362.099 54.598 362.214 54.5656 362.312 54.4798C362.426 54.3967 362.494 54.2893 362.514 54.1576Z" fill="black"/>
<path d="M372.532 52.1752L372.934 49.632L377.503 50.3555L376.572 56.2322C376.228 58.4051 375.035 59.3299 372.994 59.0066L369.882 58.5139C367.841 58.1906 366.993 56.9425 367.337 54.7695L368.913 44.8186C369.257 42.6457 370.45 41.7209 372.491 42.0442L375.602 42.5369C377.643 42.8602 378.492 44.1083 378.148 46.2812L377.909 47.7875L374.625 47.2673L374.93 45.3413C374.951 45.2096 374.92 45.0866 374.837 44.9722C374.77 44.8604 374.671 44.794 374.539 44.7732L372.984 44.5268C372.852 44.5059 372.729 44.5371 372.615 44.6202C372.517 44.7059 372.457 44.8146 372.436 44.9463L370.731 55.7121C370.71 55.8438 370.733 55.9656 370.8 56.0774C370.883 56.1918 370.99 56.2594 371.122 56.2803L372.678 56.5267C372.809 56.5475 372.924 56.5151 373.022 56.4294C373.137 56.3462 373.204 56.2388 373.225 56.1071L373.816 52.3786L372.532 52.1752Z" fill="black"/>
<path d="M385.681 44.1332C387.722 44.4565 388.571 45.7046 388.226 47.8775L386.173 60.841L382.716 60.2934L383.565 54.9352L381.071 54.5402L380.222 59.8984L376.766 59.3509L378.819 46.3875C379.163 44.2146 380.356 43.2898 382.397 43.6131L385.681 44.1332ZM381.493 51.8735L383.987 52.2685L384.836 46.9103C384.857 46.7786 384.826 46.6555 384.743 46.5411C384.676 46.4293 384.577 46.363 384.445 46.3421L382.89 46.0957C382.758 46.0749 382.635 46.106 382.52 46.1891C382.422 46.2749 382.363 46.3836 382.342 46.5153L381.493 51.8735Z" fill="black"/>
<path d="M396.676 62.5044L393.219 61.9569L395.319 48.6972C395.34 48.5655 395.309 48.4425 395.226 48.3281C395.159 48.2163 395.06 48.1499 394.928 48.1291L393.595 47.9179C393.463 47.897 393.34 47.9282 393.226 48.0113C393.128 48.097 393.069 48.2057 393.048 48.3374L390.948 61.5971L387.491 61.0496L389.544 48.0862C389.888 45.9133 391.081 44.9885 393.122 45.3118L396.184 45.7967C398.225 46.12 399.073 47.3681 398.729 49.541L396.676 62.5044Z" fill="black"/>
<path d="M403.431 57.0692L403.833 54.5259L408.402 55.2494L407.471 61.1261C407.127 63.299 405.934 64.2238 403.893 63.9005L400.781 63.4078C398.74 63.0845 397.892 61.8364 398.236 59.6635L399.812 49.7125C400.156 47.5396 401.349 46.6148 403.39 46.9381L406.501 47.4308C408.542 47.7541 409.391 49.0023 409.047 51.1752L408.808 52.6814L405.524 52.1612L405.829 50.2353C405.85 50.1036 405.819 49.9805 405.736 49.8661C405.669 49.7543 405.57 49.688 405.438 49.6671L403.883 49.4207C403.751 49.3999 403.628 49.431 403.514 49.5141C403.416 49.5999 403.356 49.7086 403.335 49.8403L401.63 60.6061C401.609 60.7377 401.632 60.8595 401.699 60.9713C401.782 61.0857 401.889 61.1534 402.021 61.1742L403.577 61.4206C403.708 61.4415 403.823 61.409 403.921 61.3233C404.036 61.2402 404.103 61.1327 404.124 61.0011L404.715 57.2725L403.431 57.0692Z" fill="black"/>
<path d="M415.34 62.4737L419.118 63.0721L418.656 65.9857L411.421 64.8399L413.952 48.864L417.409 49.4115L415.34 62.4737Z" fill="black"/>
<path d="M427.976 50.8321C430.017 51.1554 430.866 52.4035 430.521 54.5764L428.468 67.5398L425.011 66.9923L425.86 61.6341L423.366 61.2391L422.517 66.5973L419.061 66.0498L421.114 53.0864C421.458 50.9135 422.651 49.9887 424.692 50.312L427.976 50.8321ZM423.788 58.5723L426.282 58.9673L427.131 53.6091C427.152 53.4774 427.121 53.3544 427.038 53.24C426.971 53.1282 426.872 53.0618 426.74 53.041L425.185 52.7946C425.053 52.7737 424.93 52.8049 424.815 52.888C424.717 52.9737 424.658 53.0824 424.637 53.2141L423.788 58.5723Z" fill="black"/>
<path d="M438.998 60.2472C440.008 60.7953 440.404 61.7525 440.188 63.1188L439.734 65.9831C439.39 68.156 438.197 69.0808 436.156 68.7575L429.81 67.7524L432.341 51.7765L438.489 52.7503C440.53 53.0736 441.379 54.3217 441.035 56.4947L440.804 57.9515C440.595 59.2684 439.993 60.0336 438.998 60.2472ZM437.253 54.9592L435.426 54.6698L434.749 58.9416L436.577 59.231C436.708 59.2518 436.823 59.2194 436.921 59.1337C437.036 59.0505 437.103 58.9431 437.124 58.8114L437.644 55.5274C437.665 55.3957 437.634 55.2726 437.551 55.1582C437.484 55.0464 437.385 54.9801 437.253 54.9592ZM436.215 65.8306L436.782 62.2502C436.803 62.1185 436.772 61.9955 436.688 61.8811C436.622 61.7693 436.523 61.7029 436.391 61.6821L434.366 61.3614L433.643 65.9295L435.667 66.2501C435.799 66.271 435.914 66.2386 436.012 66.1528C436.126 66.0697 436.194 65.9623 436.215 65.8306Z" fill="black"/>
<path d="M451.073 59.0464L447.789 58.5263L447.988 57.267C448.009 57.1353 447.978 57.0122 447.895 56.8978C447.828 56.786 447.729 56.7197 447.598 56.6988L446.239 56.4837C446.108 56.4629 445.985 56.494 445.87 56.5771C445.772 56.6629 445.713 56.7716 445.692 56.9033L445.242 59.7429C445.221 59.8746 445.244 59.9963 445.311 60.1081C445.394 60.2225 445.502 60.2902 445.633 60.311L447.856 60.663C449.892 61.0192 450.74 62.2673 450.401 64.4073L449.858 67.8395C449.513 70.0125 448.321 70.9373 446.279 70.614L443.366 70.1525C441.325 69.8292 440.476 68.5811 440.82 66.4082L441.082 64.7538L444.366 65.2739L444.085 67.0518C444.064 67.1835 444.087 67.3052 444.153 67.417C444.237 67.5314 444.344 67.5991 444.476 67.6199L446.007 67.8624C446.138 67.8832 446.253 67.8508 446.351 67.7651C446.465 67.682 446.533 67.5745 446.554 67.4429L447.051 64.3069C447.071 64.1753 447.04 64.0522 446.957 63.9378C446.891 63.826 446.791 63.7597 446.66 63.7388L444.437 63.3868C442.396 63.0635 441.548 61.8154 441.892 59.6425L442.396 56.4572C442.74 54.2843 443.933 53.3595 445.974 53.6828L448.715 54.1169C450.756 54.4402 451.605 55.6883 451.261 57.8612L451.073 59.0464Z" fill="black"/>
<path d="M684.297 88.5309L685.476 84.057L666.584 81.0649L656.912 105.246L676.661 108.374L675.504 112.852L694.389 115.843L704.062 91.6614L684.297 88.5309V88.5309ZM668.066 83.6367L682.57 85.9339L680.798 92.6554L673.578 91.5119L674.164 89.2922L671.849 88.9257L669.123 99.2685L673.587 99.9756L674.186 97.7333L672.03 97.3918L672.988 93.7564L680.207 94.8998L677.247 106.13L660.152 103.422L668.066 83.6367ZM692.907 113.271L678.398 110.973L679.234 107.736L683.704 90.7751L700.821 93.4862L698.243 99.9326L690.441 98.6969L691.026 96.4772L688.712 96.1106L685.985 106.454L690.45 107.161L691.049 104.918L688.891 104.577L689.849 100.941L697.363 102.131L692.907 113.271Z" fill="black"/>
<rect x="-1717.65" y="-344" width="2895.55" height="80" transform="rotate(14 -1717.65 -344)" fill="#84FB72"/>
<path d="M-113.303 100.617L-112.473 97.2858L-106.489 98.7776L-108.409 106.475C-109.118 109.322 -110.81 110.411 -113.484 109.745L-117.559 108.729C-120.233 108.062 -121.215 106.306 -120.505 103.459L-117.255 90.4251C-116.545 87.5789 -114.854 86.4891 -112.18 87.1557L-108.105 88.1718C-105.431 88.8384 -104.449 90.5948 -105.159 93.441L-105.651 95.414L-109.952 94.3414L-109.323 91.8187C-109.28 91.6462 -109.307 91.4791 -109.405 91.3175C-109.48 91.1612 -109.604 91.0616 -109.777 91.0186L-111.814 90.5105C-111.987 90.4675 -112.154 90.4946 -112.315 90.5917C-112.455 90.6942 -112.547 90.8317 -112.59 91.0042L-116.106 105.106C-116.149 105.278 -116.133 105.443 -116.057 105.599C-115.96 105.761 -115.825 105.863 -115.653 105.906L-113.615 106.414C-113.443 106.457 -113.286 106.427 -113.146 106.325C-112.985 106.228 -112.882 106.093 -112.839 105.92L-111.622 101.036L-113.303 100.617Z" fill="black"/>
<path d="M-91.9572 96.7325L-95.207 109.767C-95.9167 112.613 -97.6083 113.703 -100.282 113.036L-104.584 111.964C-107.257 111.297 -108.239 109.541 -107.53 106.694L-104.28 93.6601C-103.57 90.8139 -101.879 89.7241 -99.205 90.3908L-94.9033 91.4633C-92.2296 92.1299 -91.2476 93.8863 -91.9572 96.7325ZM-99.8641 109.155L-96.3482 95.0537C-96.3052 94.8812 -96.3322 94.7142 -96.4293 94.5525C-96.5049 94.3963 -96.6289 94.2967 -96.8014 94.2537L-98.839 93.7456C-99.0115 93.7026 -99.1786 93.7297 -99.3402 93.8268C-99.4803 93.9293 -99.5718 94.0668 -99.6148 94.2393L-103.131 108.341C-103.174 108.513 -103.158 108.678 -103.082 108.834C-102.985 108.996 -102.85 109.098 -102.678 109.141L-100.64 109.649C-100.467 109.692 -100.311 109.662 -100.171 109.56C-100.009 109.463 -99.9071 109.328 -99.8641 109.155Z" fill="black"/>
<path d="M-77.9082 100.235L-81.158 113.27C-81.8676 116.116 -83.5593 117.206 -86.233 116.539L-90.5346 115.467C-93.2083 114.8 -94.1904 113.043 -93.4807 110.197L-90.2309 97.163C-89.5213 94.3168 -87.8296 93.227 -85.1559 93.8936L-80.8543 94.9661C-78.1806 95.6327 -77.1985 97.3892 -77.9082 100.235ZM-85.815 112.658L-82.2991 98.5566C-82.2561 98.3841 -82.2832 98.217 -82.3803 98.0554C-82.4558 97.8991 -82.5799 97.7995 -82.7524 97.7565L-84.79 97.2484C-84.9625 97.2054 -85.1295 97.2325 -85.2912 97.3296C-85.4312 97.4321 -85.5228 97.5696 -85.5658 97.7421L-89.0817 111.844C-89.1247 112.016 -89.1084 112.181 -89.0329 112.337C-88.9358 112.498 -88.801 112.601 -88.6285 112.644L-86.5908 113.152C-86.4184 113.195 -86.2621 113.165 -86.122 113.063C-85.9604 112.965 -85.8581 112.831 -85.815 112.658Z" fill="black"/>
<path d="M-66.8858 98.7924C-64.2121 99.459 -63.2301 101.215 -63.9397 104.062L-67.0283 116.449C-67.7379 119.295 -69.4296 120.385 -72.1033 119.718L-80.4155 117.646L-75.198 96.7199L-66.8858 98.7924ZM-71.6853 115.838L-68.3307 102.383C-68.2877 102.21 -68.3147 102.043 -68.4119 101.882C-68.4874 101.725 -68.6114 101.626 -68.7839 101.583L-71.4361 100.921L-75.1133 115.67L-72.4612 116.331C-72.2887 116.374 -72.1324 116.344 -71.9923 116.242C-71.8307 116.145 -71.7284 116.01 -71.6853 115.838Z" fill="black"/>
<path d="M-58.1495 114.369L-57.3189 111.037L-51.3354 112.529L-53.2547 120.227C-53.9643 123.073 -55.656 124.163 -58.3297 123.496L-62.4049 122.48C-65.0786 121.813 -66.0607 120.057 -65.351 117.211L-62.1012 104.176C-61.3916 101.33 -59.6999 100.24 -57.0262 100.907L-52.951 101.923C-50.2773 102.59 -49.2952 104.346 -50.0049 107.192L-50.4968 109.165L-54.7984 108.093L-54.1694 105.57C-54.1264 105.398 -54.1535 105.231 -54.2506 105.069C-54.3261 104.913 -54.4502 104.813 -54.6227 104.77L-56.6603 104.262C-56.8328 104.219 -56.9998 104.246 -57.1615 104.343C-57.3015 104.446 -57.3931 104.583 -57.4361 104.756L-60.952 118.857C-60.995 119.03 -60.9787 119.194 -60.9032 119.35C-60.8061 119.512 -60.6713 119.614 -60.4988 119.657L-58.4611 120.165C-58.2887 120.208 -58.1324 120.179 -57.9923 120.076C-57.8307 119.979 -57.7284 119.844 -57.6853 119.672L-56.4677 114.788L-58.1495 114.369Z" fill="black"/>
<path d="M-39.7494 105.215C-37.0757 105.881 -36.0937 107.638 -36.8033 110.484L-41.0369 127.464L-45.565 126.335L-43.8151 119.317L-47.0817 118.502L-48.8316 125.521L-53.3597 124.392L-49.126 107.412C-48.4164 104.565 -46.7247 103.476 -44.051 104.142L-39.7494 105.215ZM-46.2108 115.009L-42.9442 115.824L-41.1943 108.805C-41.1512 108.633 -41.1783 108.466 -41.2754 108.304C-41.351 108.148 -41.475 108.048 -41.6475 108.005L-43.6851 107.497C-43.8576 107.454 -44.0247 107.481 -44.1863 107.578C-44.3264 107.681 -44.4179 107.818 -44.4609 107.991L-46.2108 115.009Z" fill="black"/>
<path d="M-27.2797 130.894L-31.8078 129.765L-27.4774 112.397C-27.4343 112.224 -27.4614 112.057 -27.5585 111.896C-27.6341 111.739 -27.7581 111.64 -27.9306 111.597L-29.6771 111.161C-29.8496 111.118 -30.0167 111.145 -30.1783 111.243C-30.3184 111.345 -30.4099 111.483 -30.4529 111.655L-34.7833 129.023L-39.3114 127.894L-35.0777 110.914C-34.3681 108.068 -32.6764 106.978 -30.0027 107.645L-25.9922 108.645C-23.3185 109.311 -22.3364 111.068 -23.0461 113.914L-27.2797 130.894Z" fill="black"/>
<path d="M-17.6764 124.46L-16.8458 121.128L-10.8623 122.62L-12.7815 130.318C-13.4912 133.164 -15.1828 134.254 -17.8565 133.587L-21.9318 132.571C-24.6055 131.904 -25.5875 130.148 -24.8779 127.302L-21.628 114.268C-20.9184 111.421 -19.2267 110.332 -16.553 110.998L-12.4778 112.014C-9.8041 112.681 -8.82206 114.437 -9.5317 117.284L-10.0236 119.256L-14.3252 118.184L-13.6963 115.661C-13.6532 115.489 -13.6803 115.322 -13.7774 115.16C-13.853 115.004 -13.977 114.904 -14.1495 114.861L-16.1871 114.353C-16.3596 114.31 -16.5267 114.337 -16.6883 114.434C-16.8284 114.537 -16.9199 114.674 -16.9629 114.847L-20.4788 128.948C-20.5218 129.121 -20.5056 129.285 -20.43 129.441C-20.3329 129.603 -20.1981 129.705 -20.0256 129.748L-17.988 130.256C-17.8155 130.299 -17.6592 130.27 -17.5191 130.167C-17.3575 130.07 -17.2552 129.935 -17.2122 129.763L-15.9945 124.879L-17.6764 124.46Z" fill="black"/>
<path d="M-2.48595 133.022L2.46255 134.256L1.51099 138.073L-7.96555 135.71L-2.7481 114.784L1.77994 115.913L-2.48595 133.022Z" fill="black"/>
<path d="M15.6509 119.028C18.3246 119.694 19.3066 121.451 18.597 124.297L14.3634 141.277L9.83532 140.148L11.5852 133.13L8.31856 132.315L6.56866 139.334L2.04061 138.205L6.27425 121.224C6.98388 118.378 8.67555 117.288 11.3493 117.955L15.6509 119.028ZM9.18948 128.822L12.4561 129.636L14.206 122.618C14.249 122.446 14.222 122.278 14.1249 122.117C14.0493 121.961 13.9253 121.861 13.7528 121.818L11.7152 121.31C11.5427 121.267 11.3756 121.294 11.214 121.391C11.0739 121.494 10.9824 121.631 10.9394 121.804L9.18948 128.822Z" fill="black"/>
<path d="M29.1964 132.814C30.4743 133.659 30.8901 134.977 30.4439 136.767L29.5085 140.518C28.7988 143.365 27.1072 144.454 24.4335 143.788L16.1213 141.715L21.3387 120.789L29.3922 122.797C32.0659 123.464 33.0479 125.22 32.3382 128.066L31.8625 129.975C31.4324 131.7 30.5437 132.646 29.1964 132.814ZM27.4941 125.588L25.1007 124.991L23.7056 130.586L26.099 131.183C26.2715 131.226 26.4277 131.196 26.5678 131.094C26.7294 130.997 26.8318 130.862 26.8748 130.689L27.9473 126.388C27.9903 126.215 27.9632 126.048 27.8661 125.886C27.7906 125.73 27.6666 125.631 27.4941 125.588ZM24.8514 139.907L26.0207 135.217C26.0637 135.045 26.0366 134.878 25.9395 134.716C25.864 134.56 25.7399 134.46 25.5674 134.417L22.9153 133.756L21.4235 139.739L24.0756 140.401C24.2481 140.444 24.4044 140.414 24.5444 140.311C24.7061 140.214 24.8084 140.079 24.8514 139.907Z" fill="black"/>
<path d="M45.3754 132.622L41.0737 131.55L41.485 129.9C41.528 129.728 41.501 129.561 41.4038 129.399C41.3283 129.243 41.2043 129.143 41.0318 129.1L39.2529 128.657C39.0804 128.614 38.9133 128.641 38.7517 128.738C38.6116 128.84 38.5201 128.978 38.4771 129.15L37.5497 132.87C37.5067 133.042 37.523 133.207 37.5986 133.363C37.6957 133.525 37.8305 133.627 38.003 133.67L40.9139 134.396C43.5768 135.105 44.5588 136.862 43.86 139.665L42.739 144.161C42.0294 147.007 40.3377 148.097 37.664 147.43L33.8475 146.478C31.1738 145.812 30.1918 144.055 30.9015 141.209L31.4417 139.042L35.7434 140.115L35.1628 142.443C35.1198 142.616 35.136 142.78 35.2116 142.937C35.3087 143.098 35.4435 143.201 35.616 143.244L37.6213 143.744C37.7938 143.787 37.9501 143.757 38.0901 143.654C38.2518 143.557 38.3541 143.422 38.3971 143.25L39.4212 139.142C39.4642 138.97 39.4372 138.803 39.3401 138.641C39.2645 138.485 39.1405 138.385 38.968 138.342L36.0571 137.616C33.3834 136.95 32.4014 135.193 33.111 132.347L34.1513 128.175C34.8609 125.329 36.5526 124.239 39.2263 124.906L42.8164 125.801C45.4901 126.467 46.4721 128.224 45.7625 131.07L45.3754 132.622Z" fill="black"/>
<path d="M98.737 135.808L100.823 130.003L76.0779 123.833L60.42 154.828L86.2892 161.278L84.2319 167.091L108.968 173.258L124.626 142.263L98.737 135.808V135.808ZM77.7472 127.421L96.7451 132.158L93.6102 140.88L84.1538 138.522L85.1889 135.642L82.1572 134.886L77.3341 148.307L83.182 149.765L84.2382 146.857L81.4132 146.152L83.1083 141.435L92.5647 143.793L87.3278 158.365L64.9357 152.782L77.7472 127.421ZM107.299 169.67L88.2933 164.931L89.7801 160.729L97.6893 138.72L120.11 144.31L115.936 152.573L105.717 150.025L106.752 147.145L103.72 146.389L98.8971 159.81L104.745 161.268L105.801 158.36L102.975 157.655L104.67 152.938L114.512 155.392L107.299 169.67Z" fill="black"/>
<path d="M139.696 163.697L140.527 160.365L146.51 161.857L144.591 169.555C143.882 172.401 142.19 173.491 139.516 172.824L135.441 171.808C132.767 171.142 131.785 169.385 132.495 166.539L135.745 153.505C136.454 150.658 138.146 149.569 140.82 150.235L144.895 151.251C147.569 151.918 148.551 153.674 147.841 156.521L147.349 158.494L143.047 157.421L143.676 154.898C143.719 154.726 143.692 154.559 143.595 154.397C143.52 154.241 143.396 154.141 143.223 154.098L141.186 153.59C141.013 153.547 140.846 153.574 140.684 153.671C140.544 153.774 140.453 153.911 140.41 154.084L136.894 168.185C136.851 168.358 136.867 168.522 136.943 168.679C137.04 168.84 137.175 168.942 137.347 168.985L139.385 169.494C139.557 169.537 139.713 169.507 139.854 169.404C140.015 169.307 140.117 169.172 140.16 169L141.378 164.116L139.696 163.697Z" fill="black"/>
<path d="M161.043 159.812L157.793 172.846C157.083 175.693 155.391 176.782 152.718 176.116L148.416 175.043C145.742 174.377 144.76 172.62 145.47 169.774L148.72 156.74C149.429 153.894 151.121 152.804 153.795 153.47L158.096 154.543C160.77 155.21 161.752 156.966 161.043 159.812ZM153.136 172.235L156.652 158.133C156.695 157.961 156.668 157.794 156.57 157.632C156.495 157.476 156.371 157.376 156.198 157.333L154.161 156.825C153.988 156.782 153.821 156.809 153.66 156.906C153.519 157.009 153.428 157.146 153.385 157.319L149.869 171.42C149.826 171.593 149.842 171.757 149.918 171.914C150.015 172.075 150.15 172.178 150.322 172.221L152.36 172.729C152.532 172.772 152.689 172.742 152.829 172.639C152.99 172.542 153.093 172.407 153.136 172.235Z" fill="black"/>
<path d="M175.092 163.315L171.842 176.349C171.132 179.195 169.44 180.285 166.767 179.619L162.465 178.546C159.791 177.879 158.809 176.123 159.519 173.277L162.769 160.243C163.478 157.396 165.17 156.307 167.844 156.973L172.145 158.046C174.819 158.712 175.801 160.469 175.092 163.315ZM167.185 175.738L170.701 161.636C170.744 161.464 170.717 161.297 170.619 161.135C170.544 160.979 170.42 160.879 170.247 160.836L168.21 160.328C168.037 160.285 167.87 160.312 167.709 160.409C167.569 160.512 167.477 160.649 167.434 160.822L163.918 174.923C163.875 175.096 163.891 175.26 163.967 175.416C164.064 175.578 164.199 175.68 164.371 175.723L166.409 176.231C166.581 176.274 166.738 176.245 166.878 176.142C167.039 176.045 167.142 175.91 167.185 175.738Z" fill="black"/>
<path d="M186.114 161.872C188.788 162.539 189.77 164.295 189.06 167.141L185.971 179.529C185.262 182.375 183.57 183.465 180.896 182.798L172.584 180.726L177.802 159.8L186.114 161.872ZM181.314 178.917L184.669 165.462C184.712 165.29 184.685 165.123 184.588 164.961C184.512 164.805 184.388 164.705 184.216 164.662L181.564 164.001L177.886 178.75L180.539 179.411C180.711 179.454 180.867 179.424 181.007 179.322C181.169 179.224 181.271 179.09 181.314 178.917Z" fill="black"/>
<path d="M194.85 177.448L195.681 174.117L201.664 175.609L199.745 183.306C199.035 186.153 197.344 187.242 194.67 186.576L190.595 185.56C187.921 184.893 186.939 183.137 187.649 180.29L190.899 167.256C191.608 164.41 193.3 163.32 195.974 163.987L200.049 165.003C202.722 165.669 203.705 167.426 202.995 170.272L202.503 172.245L198.201 171.172L198.83 168.65C198.873 168.477 198.846 168.31 198.749 168.148C198.674 167.992 198.55 167.893 198.377 167.85L196.339 167.342C196.167 167.299 196 167.326 195.838 167.423C195.698 167.525 195.607 167.663 195.564 167.835L192.048 181.937C192.005 182.109 192.021 182.274 192.097 182.43C192.194 182.592 192.328 182.694 192.501 182.737L194.539 183.245C194.711 183.288 194.867 183.258 195.007 183.156C195.169 183.059 195.271 182.924 195.314 182.751L196.532 177.867L194.85 177.448Z" fill="black"/>
<path d="M213.25 168.294C215.924 168.961 216.906 170.717 216.196 173.564L211.963 190.544L207.435 189.415L209.185 182.396L205.918 181.582L204.168 188.6L199.64 187.471L203.874 170.491C204.583 167.645 206.275 166.555 208.949 167.222L213.25 168.294ZM206.789 178.089L210.056 178.903L211.806 171.885C211.849 171.712 211.821 171.545 211.724 171.384C211.649 171.227 211.525 171.128 211.352 171.085L209.315 170.577C209.142 170.534 208.975 170.561 208.813 170.658C208.673 170.76 208.582 170.898 208.539 171.07L206.789 178.089Z" fill="black"/>
<path d="M225.72 193.974L221.192 192.845L225.522 175.477C225.565 175.304 225.538 175.137 225.441 174.975C225.366 174.819 225.242 174.719 225.069 174.676L223.323 174.241C223.15 174.198 222.983 174.225 222.821 174.322C222.681 174.425 222.59 174.562 222.547 174.735L218.216 192.103L213.688 190.974L217.922 173.994C218.632 171.148 220.323 170.058 222.997 170.724L227.008 171.724C229.681 172.391 230.663 174.147 229.954 176.994L225.72 193.974Z" fill="black"/>
<path d="M235.323 187.539L236.154 184.208L242.137 185.7L240.218 193.397C239.509 196.244 237.817 197.333 235.143 196.667L231.068 195.651C228.394 194.984 227.412 193.228 228.122 190.381L231.372 177.347C232.081 174.501 233.773 173.411 236.447 174.078L240.522 175.094C243.196 175.761 244.178 177.517 243.468 180.363L242.976 182.336L238.675 181.264L239.304 178.741C239.347 178.568 239.319 178.401 239.222 178.24C239.147 178.083 239.023 177.984 238.85 177.941L236.813 177.433C236.64 177.39 236.473 177.417 236.311 177.514C236.171 177.616 236.08 177.754 236.037 177.926L232.521 192.028C232.478 192.2 232.494 192.365 232.57 192.521C232.667 192.683 232.802 192.785 232.974 192.828L235.012 193.336C235.184 193.379 235.341 193.349 235.481 193.247C235.642 193.15 235.745 193.015 235.788 192.842L237.005 187.959L235.323 187.539Z" fill="black"/>
<path d="M250.514 196.102L255.462 197.336L254.511 201.152L245.034 198.789L250.252 177.863L254.78 178.992L250.514 196.102Z" fill="black"/>
<path d="M268.651 182.107C271.324 182.774 272.306 184.53 271.597 187.376L267.363 204.357L262.835 203.228L264.585 196.209L261.318 195.395L259.568 202.413L255.04 201.284L259.274 184.304C259.984 181.458 261.675 180.368 264.349 181.035L268.651 182.107ZM262.189 191.902L265.456 192.716L267.206 185.698C267.249 185.525 267.222 185.358 267.125 185.196C267.049 185.04 266.925 184.941 266.753 184.898L264.715 184.389C264.542 184.346 264.375 184.374 264.214 184.471C264.074 184.573 263.982 184.711 263.939 184.883L262.189 191.902Z" fill="black"/>
<path d="M282.196 195.894C283.474 196.739 283.89 198.056 283.444 199.846L282.508 203.598C281.799 206.444 280.107 207.534 277.433 206.867L269.121 204.795L274.338 183.869L282.392 185.877C285.066 186.543 286.048 188.3 285.338 191.146L284.862 193.054C284.432 194.779 283.543 195.726 282.196 195.894ZM280.494 188.667L278.1 188.07L276.705 193.666L279.099 194.262C279.271 194.306 279.428 194.276 279.568 194.173C279.729 194.076 279.832 193.941 279.875 193.769L280.947 189.467C280.99 189.295 280.963 189.128 280.866 188.966C280.79 188.81 280.666 188.71 280.494 188.667ZM277.851 202.986L279.02 198.297C279.063 198.124 279.036 197.957 278.939 197.796C278.864 197.639 278.74 197.54 278.567 197.497L275.915 196.835L274.423 202.819L277.075 203.48C277.248 203.523 277.404 203.493 277.544 203.391C277.706 203.294 277.808 203.159 277.851 202.986Z" fill="black"/>
<path d="M298.375 195.702L294.073 194.629L294.485 192.98C294.528 192.807 294.501 192.64 294.404 192.479C294.328 192.323 294.204 192.223 294.032 192.18L292.253 191.736C292.08 191.693 291.913 191.72 291.751 191.818C291.611 191.92 291.52 192.057 291.477 192.23L290.549 195.949C290.506 196.122 290.523 196.286 290.598 196.443C290.695 196.604 290.83 196.707 291.003 196.75L293.914 197.475C296.577 198.185 297.559 199.941 296.86 202.745L295.739 207.24C295.029 210.086 293.337 211.176 290.664 210.51L286.847 209.558C284.174 208.891 283.192 207.135 283.901 204.289L284.441 202.122L288.743 203.194L288.163 205.523C288.12 205.696 288.136 205.86 288.211 206.016C288.308 206.178 288.443 206.28 288.616 206.323L290.621 206.823C290.794 206.866 290.95 206.836 291.09 206.734C291.252 206.637 291.354 206.502 291.397 206.329L292.421 202.222C292.464 202.049 292.437 201.882 292.34 201.721C292.264 201.564 292.14 201.465 291.968 201.422L289.057 200.696C286.383 200.029 285.401 198.273 286.111 195.427L287.151 191.255C287.861 188.408 289.552 187.319 292.226 187.985L295.816 188.88C298.49 189.547 299.472 191.303 298.762 194.15L298.375 195.702Z" fill="black"/>
<path d="M604.728 261.966L606.814 256.161L582.069 249.991L566.411 280.986L592.28 287.436L590.223 293.248L614.959 299.416L630.617 268.421L604.728 261.966V261.966ZM583.738 253.579L602.736 258.316L599.601 267.038L590.145 264.68L591.18 261.8L588.148 261.044L583.325 274.465L589.173 275.923L590.229 273.014L587.404 272.31L589.099 267.593L598.556 269.95L593.319 284.523L570.927 278.94L583.738 253.579ZM613.29 295.828L594.284 291.089L595.771 286.887L603.68 264.878L626.101 270.468L621.927 278.731L611.708 276.183L612.743 273.303L609.711 272.547L604.888 285.968L610.736 287.426L611.792 284.517L608.966 283.813L610.661 279.095L620.503 281.549L613.29 295.828Z" fill="black"/>
<path d="M645.687 289.854L646.518 286.523L652.501 288.015L650.582 295.712C649.872 298.559 648.181 299.648 645.507 298.982L641.432 297.966C638.758 297.299 637.776 295.543 638.486 292.696L641.736 279.662C642.445 276.816 644.137 275.726 646.811 276.393L650.886 277.409C653.56 278.075 654.542 279.832 653.832 282.678L653.34 284.651L649.038 283.578L649.667 281.056C649.71 280.883 649.683 280.716 649.586 280.555C649.511 280.398 649.387 280.299 649.214 280.256L647.177 279.748C647.004 279.705 646.837 279.732 646.675 279.829C646.535 279.931 646.444 280.069 646.401 280.241L642.885 294.343C642.842 294.515 642.858 294.68 642.934 294.836C643.031 294.998 643.166 295.1 643.338 295.143L645.376 295.651C645.548 295.694 645.704 295.664 645.844 295.562C646.006 295.465 646.108 295.33 646.151 295.157L647.369 290.274L645.687 289.854Z" fill="black"/>
<path d="M667.033 285.97L663.784 299.004C663.074 301.85 661.382 302.94 658.709 302.273L654.407 301.201C651.733 300.534 650.751 298.778 651.461 295.931L654.711 282.897C655.42 280.051 657.112 278.961 659.786 279.628L664.087 280.7C666.761 281.367 667.743 283.123 667.033 285.97ZM659.127 298.392L662.643 284.291C662.686 284.118 662.659 283.951 662.561 283.79C662.486 283.633 662.362 283.534 662.189 283.491L660.152 282.983C659.979 282.94 659.812 282.967 659.651 283.064C659.51 283.166 659.419 283.304 659.376 283.476L655.86 297.578C655.817 297.75 655.833 297.915 655.909 298.071C656.006 298.233 656.141 298.335 656.313 298.378L658.351 298.886C658.523 298.929 658.68 298.899 658.82 298.797C658.981 298.7 659.084 298.565 659.127 298.392Z" fill="black"/>
<path d="M681.083 289.472L677.833 302.507C677.123 305.353 675.431 306.443 672.758 305.776L668.456 304.704C665.782 304.037 664.8 302.281 665.51 299.434L668.76 286.4C669.469 283.554 671.161 282.464 673.835 283.131L678.136 284.203C680.81 284.87 681.792 286.626 681.083 289.472ZM673.176 301.895L676.692 287.794C676.735 287.621 676.708 287.454 676.61 287.292C676.535 287.136 676.411 287.037 676.238 286.994L674.201 286.486C674.028 286.442 673.861 286.47 673.7 286.567C673.559 286.669 673.468 286.807 673.425 286.979L669.909 301.081C669.866 301.253 669.882 301.418 669.958 301.574C670.055 301.736 670.19 301.838 670.362 301.881L672.4 302.389C672.572 302.432 672.729 302.402 672.869 302.3C673.03 302.203 673.133 302.068 673.176 301.895Z" fill="black"/>
<path d="M692.105 288.029C694.779 288.696 695.761 290.452 695.051 293.299L691.962 305.686C691.253 308.532 689.561 309.622 686.887 308.955L678.575 306.883L683.793 285.957L692.105 288.029ZM687.305 305.075L690.66 291.62C690.703 291.447 690.676 291.28 690.579 291.119C690.503 290.962 690.379 290.863 690.207 290.82L687.555 290.159L683.877 304.907L686.53 305.568C686.702 305.611 686.858 305.582 686.998 305.479C687.16 305.382 687.262 305.247 687.305 305.075Z" fill="black"/>
<path d="M700.841 303.606L701.672 300.274L707.655 301.766L705.736 309.464C705.026 312.31 703.335 313.4 700.661 312.733L696.586 311.717C693.912 311.05 692.93 309.294 693.64 306.448L696.89 293.414C697.599 290.567 699.291 289.478 701.965 290.144L706.04 291.16C708.713 291.827 709.695 293.583 708.986 296.429L708.494 298.402L704.192 297.33L704.821 294.807C704.864 294.635 704.837 294.468 704.74 294.306C704.665 294.15 704.541 294.05 704.368 294.007L702.33 293.499C702.158 293.456 701.991 293.483 701.829 293.58C701.689 293.683 701.598 293.82 701.555 293.993L698.039 308.094C697.996 308.267 698.012 308.431 698.088 308.587C698.185 308.749 698.319 308.851 698.492 308.894L700.53 309.402C700.702 309.445 700.858 309.416 700.998 309.313C701.16 309.216 701.262 309.081 701.305 308.909L702.523 304.025L700.841 303.606Z" fill="black"/>
<path d="M719.241 294.452C721.915 295.118 722.897 296.875 722.187 299.721L717.954 316.701L713.426 315.572L715.176 308.554L711.909 307.739L710.159 314.758L705.631 313.629L709.865 296.649C710.574 293.802 712.266 292.713 714.94 293.379L719.241 294.452ZM712.78 304.246L716.047 305.061L717.796 298.042C717.839 297.87 717.812 297.703 717.715 297.541C717.64 297.385 717.516 297.285 717.343 297.242L715.306 296.734C715.133 296.691 714.966 296.718 714.804 296.815C714.664 296.918 714.573 297.055 714.53 297.228L712.78 304.246Z" fill="black"/>
<path d="M731.711 320.131L727.183 319.002L731.513 301.634C731.556 301.461 731.529 301.294 731.432 301.133C731.357 300.977 731.233 300.877 731.06 300.834L729.314 300.398C729.141 300.355 728.974 300.382 728.812 300.48C728.672 300.582 728.581 300.72 728.538 300.892L724.207 318.26L719.679 317.131L723.913 300.151C724.623 297.305 726.314 296.215 728.988 296.882L732.999 297.882C735.672 298.548 736.654 300.305 735.945 303.151L731.711 320.131Z" fill="black"/>
<path d="M741.314 313.697L742.145 310.365L748.128 311.857L746.209 319.555C745.5 322.401 743.808 323.491 741.134 322.824L737.059 321.808C734.385 321.142 733.403 319.385 734.113 316.539L737.363 303.505C738.072 300.658 739.764 299.569 742.438 300.235L746.513 301.251C749.187 301.918 750.169 303.674 749.459 306.521L748.967 308.494L744.665 307.421L745.294 304.898C745.337 304.726 745.31 304.559 745.213 304.397C745.138 304.241 745.014 304.141 744.841 304.098L742.804 303.59C742.631 303.547 742.464 303.574 742.302 303.671C742.162 303.774 742.071 303.911 742.028 304.084L738.512 318.185C738.469 318.358 738.485 318.522 738.561 318.679C738.658 318.84 738.793 318.942 738.965 318.985L741.003 319.494C741.175 319.537 741.332 319.507 741.472 319.404C741.633 319.307 741.736 319.172 741.779 319L742.996 314.116L741.314 313.697Z" fill="black"/>
<path d="M756.505 322.259L761.453 323.493L760.502 327.31L751.025 324.947L756.243 304.021L760.771 305.15L756.505 322.259Z" fill="black"/>
<path d="M774.642 308.265C777.315 308.931 778.297 310.688 777.588 313.534L773.354 330.514L768.826 329.385L770.576 322.367L767.309 321.552L765.559 328.571L761.031 327.442L765.265 310.461C765.975 307.615 767.666 306.525 770.34 307.192L774.642 308.265ZM768.18 318.059L771.447 318.874L773.197 311.855C773.24 311.683 773.213 311.515 773.116 311.354C773.04 311.198 772.916 311.098 772.744 311.055L770.706 310.547C770.533 310.504 770.366 310.531 770.205 310.628C770.065 310.731 769.973 310.868 769.93 311.041L768.18 318.059Z" fill="black"/>
<path d="M788.187 322.051C789.465 322.896 789.881 324.214 789.435 326.004L788.499 329.755C787.79 332.602 786.098 333.691 783.424 333.025L775.112 330.952L780.329 310.026L788.383 312.034C791.057 312.701 792.039 314.457 791.329 317.303L790.853 319.212C790.423 320.937 789.534 321.883 788.187 322.051ZM786.485 314.825L784.091 314.228L782.696 319.823L785.09 320.42C785.262 320.463 785.418 320.433 785.559 320.331C785.72 320.234 785.822 320.099 785.865 319.926L786.938 315.625C786.981 315.452 786.954 315.285 786.857 315.123C786.781 314.967 786.657 314.868 786.485 314.825ZM783.842 329.144L785.011 324.454C785.054 324.282 785.027 324.115 784.93 323.953C784.855 323.797 784.731 323.697 784.558 323.654L781.906 322.993L780.414 328.976L783.066 329.638C783.239 329.681 783.395 329.651 783.535 329.548C783.697 329.451 783.799 329.316 783.842 329.144Z" fill="black"/>
<path d="M804.366 321.859L800.064 320.787L800.476 319.137C800.519 318.965 800.492 318.798 800.395 318.636C800.319 318.48 800.195 318.38 800.022 318.337L798.244 317.894C798.071 317.851 797.904 317.878 797.742 317.975C797.602 318.077 797.511 318.215 797.468 318.387L796.54 322.107C796.497 322.279 796.514 322.444 796.589 322.6C796.686 322.762 796.821 322.864 796.994 322.907L799.905 323.633C802.568 324.343 803.55 326.099 802.851 328.902L801.73 333.398C801.02 336.244 799.328 337.334 796.655 336.667L792.838 335.716C790.165 335.049 789.183 333.292 789.892 330.446L790.432 328.279L794.734 329.352L794.153 331.681C794.11 331.853 794.127 332.017 794.202 332.174C794.299 332.335 794.434 332.438 794.607 332.481L796.612 332.981C796.785 333.024 796.941 332.994 797.081 332.891C797.242 332.794 797.345 332.659 797.388 332.487L798.412 328.379C798.455 328.207 798.428 328.04 798.331 327.878C798.255 327.722 798.131 327.622 797.959 327.579L795.048 326.853C792.374 326.187 791.392 324.43 792.102 321.584L793.142 317.412C793.852 314.566 795.543 313.476 798.217 314.143L801.807 315.038C804.481 315.704 805.463 317.461 804.753 320.307L804.366 321.859Z" fill="black"/>
<path d="M351.732 198.887L353.818 193.081L329.073 186.912L313.415 217.907L339.284 224.357L337.227 230.169L361.963 236.337L377.621 205.342L351.732 198.887V198.887ZM330.742 190.5L349.74 195.237L346.605 203.959L337.149 201.601L338.184 198.721L335.152 197.965L330.329 211.386L336.177 212.844L337.233 209.935L334.408 209.231L336.103 204.514L345.559 206.871L340.323 221.443L317.93 215.861L330.742 190.5ZM360.294 232.748L341.288 228.01L342.775 223.808L350.684 201.799L373.105 207.389L368.931 215.652L358.711 213.104L359.747 210.224L356.715 209.468L351.892 222.889L357.74 224.347L358.796 221.438L355.97 220.734L357.665 216.016L367.507 218.47L360.294 232.748Z" fill="black"/>
<path d="M392.691 226.775L393.522 223.444L399.505 224.936L397.586 232.634C396.876 235.48 395.185 236.57 392.511 235.903L388.436 234.887C385.762 234.22 384.78 232.464 385.49 229.618L388.739 216.583C389.449 213.737 391.141 212.647 393.815 213.314L397.89 214.33C400.563 214.997 401.545 216.753 400.836 219.599L400.344 221.572L396.042 220.5L396.671 217.977C396.714 217.804 396.687 217.637 396.59 217.476C396.515 217.319 396.391 217.22 396.218 217.177L394.18 216.669C394.008 216.626 393.841 216.653 393.679 216.75C393.539 216.852 393.448 216.99 393.405 217.162L389.889 231.264C389.846 231.437 389.862 231.601 389.938 231.757C390.035 231.919 390.169 232.021 390.342 232.064L392.38 232.572C392.552 232.615 392.708 232.585 392.848 232.483C393.01 232.386 393.112 232.251 393.155 232.078L394.373 227.195L392.691 226.775Z" fill="black"/>
<path d="M414.037 222.891L410.788 235.925C410.078 238.771 408.386 239.861 405.713 239.194L401.411 238.122C398.737 237.455 397.755 235.699 398.465 232.853L401.715 219.818C402.424 216.972 404.116 215.882 406.79 216.549L411.091 217.621C413.765 218.288 414.747 220.045 414.037 222.891ZM406.131 235.314L409.646 221.212C409.689 221.039 409.662 220.872 409.565 220.711C409.49 220.554 409.366 220.455 409.193 220.412L407.156 219.904C406.983 219.861 406.816 219.888 406.654 219.985C406.514 220.087 406.423 220.225 406.38 220.397L402.864 234.499C402.821 234.672 402.837 234.836 402.913 234.992C403.01 235.154 403.145 235.256 403.317 235.299L405.355 235.807C405.527 235.85 405.683 235.82 405.824 235.718C405.985 235.621 406.088 235.486 406.131 235.314Z" fill="black"/>
<path d="M428.086 226.394L424.837 239.428C424.127 242.274 422.435 243.364 419.762 242.697L415.46 241.625C412.786 240.958 411.804 239.202 412.514 236.355L415.764 223.321C416.473 220.475 418.165 219.385 420.839 220.052L425.14 221.124C427.814 221.791 428.796 223.547 428.086 226.394ZM420.18 238.816L423.696 224.715C423.739 224.542 423.711 224.375 423.614 224.214C423.539 224.057 423.415 223.958 423.242 223.915L421.205 223.407C421.032 223.364 420.865 223.391 420.703 223.488C420.563 223.59 420.472 223.728 420.429 223.9L416.913 238.002C416.87 238.174 416.886 238.339 416.962 238.495C417.059 238.657 417.194 238.759 417.366 238.802L419.404 239.31C419.576 239.353 419.733 239.323 419.873 239.221C420.034 239.124 420.137 238.989 420.18 238.816Z" fill="black"/>
<path d="M439.109 224.951C441.782 225.617 442.765 227.374 442.055 230.22L438.966 242.607C438.257 245.453 436.565 246.543 433.891 245.877L425.579 243.804L430.797 222.878L439.109 224.951ZM434.309 241.996L437.664 228.541C437.707 228.369 437.68 228.201 437.583 228.04C437.507 227.884 437.383 227.784 437.211 227.741L434.559 227.08L430.881 241.828L433.533 242.489C433.706 242.532 433.862 242.503 434.002 242.4C434.164 242.303 434.266 242.168 434.309 241.996Z" fill="black"/>
<path d="M447.845 240.527L448.676 237.195L454.659 238.687L452.74 246.385C452.03 249.231 450.339 250.321 447.665 249.654L443.59 248.638C440.916 247.972 439.934 246.215 440.644 243.369L443.893 230.335C444.603 227.488 446.295 226.399 448.968 227.065L453.044 228.081C455.717 228.748 456.699 230.504 455.99 233.351L455.498 235.324L451.196 234.251L451.825 231.728C451.868 231.556 451.841 231.389 451.744 231.227C451.668 231.071 451.544 230.971 451.372 230.928L449.334 230.42C449.162 230.377 448.995 230.404 448.833 230.501C448.693 230.604 448.602 230.741 448.559 230.914L445.043 245.015C445 245.188 445.016 245.352 445.091 245.509C445.189 245.67 445.323 245.773 445.496 245.816L447.533 246.324C447.706 246.367 447.862 246.337 448.002 246.234C448.164 246.137 448.266 246.002 448.309 245.83L449.527 240.946L447.845 240.527Z" fill="black"/>
<path d="M466.245 231.373C468.919 232.04 469.901 233.796 469.191 236.642L464.958 253.622L460.43 252.493L462.18 245.475L458.913 244.66L457.163 251.679L452.635 250.55L456.869 233.57C457.578 230.724 459.27 229.634 461.944 230.3L466.245 231.373ZM459.784 241.167L463.05 241.982L464.8 234.963C464.843 234.791 464.816 234.624 464.719 234.462C464.644 234.306 464.52 234.206 464.347 234.163L462.31 233.655C462.137 233.612 461.97 233.639 461.808 233.736C461.668 233.839 461.577 233.976 461.534 234.149L459.784 241.167Z" fill="black"/>
<path d="M478.715 257.052L474.187 255.923L478.517 238.555C478.56 238.383 478.533 238.216 478.436 238.054C478.361 237.898 478.237 237.798 478.064 237.755L476.317 237.32C476.145 237.277 475.978 237.304 475.816 237.401C475.676 237.503 475.585 237.641 475.542 237.813L471.211 255.182L466.683 254.053L470.917 237.072C471.627 234.226 473.318 233.136 475.992 233.803L480.002 234.803C482.676 235.47 483.658 237.226 482.949 240.072L478.715 257.052Z" fill="black"/>
<path d="M488.318 250.618L489.149 247.287L495.132 248.778L493.213 256.476C492.503 259.322 490.812 260.412 488.138 259.745L484.063 258.729C481.389 258.063 480.407 256.306 481.117 253.46L484.367 240.426C485.076 237.58 486.768 236.49 489.442 237.156L493.517 238.172C496.191 238.839 497.173 240.596 496.463 243.442L495.971 245.415L491.669 244.342L492.298 241.819C492.341 241.647 492.314 241.48 492.217 241.318C492.142 241.162 492.018 241.062 491.845 241.019L489.808 240.511C489.635 240.468 489.468 240.495 489.306 240.592C489.166 240.695 489.075 240.832 489.032 241.005L485.516 255.107C485.473 255.279 485.489 255.443 485.565 255.6C485.662 255.761 485.797 255.864 485.969 255.907L488.007 256.415C488.179 256.458 488.335 256.428 488.475 256.325C488.637 256.228 488.739 256.094 488.782 255.921L490 251.037L488.318 250.618Z" fill="black"/>
<path d="M503.509 259.18L508.457 260.414L507.506 264.231L498.029 261.868L503.247 240.942L507.775 242.071L503.509 259.18Z" fill="black"/>
<path d="M521.646 245.186C524.319 245.852 525.301 247.609 524.592 250.455L520.358 267.435L515.83 266.306L517.58 259.288L514.313 258.473L512.563 265.492L508.035 264.363L512.269 247.383C512.979 244.536 514.67 243.447 517.344 244.113L521.646 245.186ZM515.184 254.98L518.451 255.795L520.201 248.776C520.244 248.604 520.217 248.437 520.12 248.275C520.044 248.119 519.92 248.019 519.747 247.976L517.71 247.468C517.537 247.425 517.37 247.452 517.209 247.549C517.069 247.652 516.977 247.789 516.934 247.962L515.184 254.98Z" fill="black"/>
<path d="M535.191 258.972C536.469 259.818 536.885 261.135 536.439 262.925L535.503 266.677C534.793 269.523 533.102 270.613 530.428 269.946L522.116 267.873L527.333 246.947L535.387 248.955C538.06 249.622 539.043 251.378 538.333 254.225L537.857 256.133C537.427 257.858 536.538 258.804 535.191 258.972ZM533.489 251.746L531.095 251.149L529.7 256.744L532.094 257.341C532.266 257.384 532.422 257.354 532.562 257.252C532.724 257.155 532.826 257.02 532.869 256.847L533.942 252.546C533.985 252.373 533.958 252.206 533.861 252.045C533.785 251.888 533.661 251.789 533.489 251.746ZM530.846 266.065L532.015 261.375C532.058 261.203 532.031 261.036 531.934 260.874C531.859 260.718 531.735 260.618 531.562 260.575L528.91 259.914L527.418 265.897L530.07 266.559C530.243 266.602 530.399 266.572 530.539 266.47C530.701 266.372 530.803 266.238 530.846 266.065Z" fill="black"/>
<path d="M551.37 258.781L547.068 257.708L547.48 256.059C547.523 255.886 547.496 255.719 547.398 255.557C547.323 255.401 547.199 255.301 547.026 255.258L545.248 254.815C545.075 254.772 544.908 254.799 544.746 254.896C544.606 254.999 544.515 255.136 544.472 255.309L543.544 259.028C543.501 259.201 543.518 259.365 543.593 259.521C543.69 259.683 543.825 259.785 543.998 259.828L546.908 260.554C549.571 261.264 550.553 263.02 549.855 265.823L548.734 270.319C548.024 273.165 546.332 274.255 543.659 273.588L539.842 272.637C537.168 271.97 536.186 270.214 536.896 267.367L537.436 265.2L541.738 266.273L541.157 268.602C541.114 268.774 541.131 268.939 541.206 269.095C541.303 269.256 541.438 269.359 541.611 269.402L543.616 269.902C543.788 269.945 543.945 269.915 544.085 269.812C544.246 269.715 544.349 269.581 544.392 269.408L545.416 265.3C545.459 265.128 545.432 264.961 545.335 264.799C545.259 264.643 545.135 264.543 544.963 264.5L542.052 263.775C539.378 263.108 538.396 261.352 539.106 258.505L540.146 254.333C540.856 251.487 542.547 250.397 545.221 251.064L548.811 251.959C551.485 252.626 552.467 254.382 551.757 257.228L551.37 258.781Z" fill="black"/>
<rect x="-1314" y="286.455" width="3619.44" height="100" transform="rotate(-5 -1314 286.455)" fill="#6038FF"/>
<path d="M703.355 142.751L703.458 135.04L671.701 137.818L665.808 180.824L699.008 177.919L698.942 185.626L730.688 182.849L736.58 139.844L703.355 142.751V142.751ZM675.134 141.38L699.515 139.247L699.359 150.831L687.223 151.893L687.275 148.068L683.384 148.408L683.145 166.233L690.65 165.577L690.715 161.709L687.089 162.026L687.173 155.761L699.309 154.699L699.05 174.053L670.313 176.567L675.134 141.38ZM727.254 179.287L702.863 181.421L702.91 175.85L703.302 146.619L732.076 144.101L730.505 155.566L717.39 156.713L717.441 152.888L713.55 153.228L713.312 171.053L720.817 170.397L720.881 166.529L717.254 166.846L717.338 160.581L729.969 159.476L727.254 179.287Z" fill="black"/>
<path d="M53.9797 199.564L54.0827 191.853L22.3256 194.631L16.4333 237.637L49.6329 234.732L49.5668 242.439L81.3126 239.662L87.2049 196.657L53.9797 199.564V199.564ZM25.7588 198.193L50.14 196.06L49.9844 207.644L37.8483 208.706L37.8996 204.881L34.0088 205.221L33.7703 223.046L41.2752 222.39L41.3399 218.522L37.7144 218.839L37.798 212.574L49.934 211.512L49.6749 230.866L20.9376 233.38L25.7588 198.193ZM77.8794 236.1L53.4882 238.234L53.5353 232.663L53.9265 203.432L82.7007 200.914L81.1296 212.379L68.0148 213.526L68.066 209.701L64.1753 210.041L63.9368 227.866L71.4417 227.21L71.5063 223.342L67.8794 223.659L67.963 217.394L80.5941 216.289L77.8794 236.1Z" fill="black"/>
<path d="M113.739 215.855L113.364 211.58L121.043 210.908L121.908 220.787C122.227 224.44 120.671 226.416 117.24 226.717L112.01 227.174C108.579 227.474 106.703 225.798 106.384 222.145L104.92 205.418C104.601 201.765 106.157 199.788 109.588 199.488L114.818 199.031C118.249 198.73 120.125 200.407 120.444 204.059L120.666 206.591L115.145 207.074L114.862 203.837C114.843 203.615 114.743 203.429 114.562 203.277C114.409 203.123 114.222 203.056 114.001 203.076L111.386 203.304C111.164 203.324 110.978 203.424 110.826 203.604C110.703 203.782 110.65 203.982 110.67 204.203L112.253 222.301C112.272 222.522 112.358 222.71 112.511 222.864C112.692 223.015 112.893 223.082 113.114 223.062L115.729 222.833C115.951 222.814 116.123 222.715 116.247 222.537C116.399 222.357 116.465 222.156 116.445 221.934L115.897 215.667L113.739 215.855Z" fill="black"/>
<path d="M137.387 202.577L138.85 219.305C139.17 222.958 137.614 224.934 134.183 225.234L128.662 225.717C125.231 226.017 123.355 224.341 123.036 220.688L121.572 203.961C121.253 200.308 122.808 198.332 126.24 198.031L131.76 197.548C135.192 197.248 137.067 198.924 137.387 202.577ZM133.097 220.477L131.514 202.38C131.494 202.158 131.395 201.972 131.214 201.821C131.061 201.667 130.874 201.599 130.653 201.619L128.038 201.847C127.816 201.867 127.63 201.967 127.478 202.147C127.354 202.326 127.302 202.525 127.322 202.747L128.905 220.844C128.924 221.066 129.01 221.253 129.163 221.407C129.344 221.559 129.545 221.625 129.766 221.605L132.381 221.377C132.603 221.357 132.775 221.258 132.899 221.08C133.05 220.9 133.117 220.699 133.097 220.477Z" fill="black"/>
<path d="M155.417 201L156.88 217.727C157.2 221.38 155.644 223.357 152.213 223.657L146.692 224.14C143.261 224.44 141.385 222.764 141.066 219.111L139.602 202.383C139.283 198.731 140.839 196.754 144.27 196.454L149.79 195.971C153.222 195.671 155.097 197.347 155.417 201ZM151.127 218.9L149.544 200.802C149.525 200.581 149.425 200.395 149.244 200.243C149.091 200.089 148.904 200.022 148.683 200.041L146.068 200.27C145.846 200.289 145.66 200.389 145.508 200.57C145.384 200.748 145.332 200.948 145.352 201.169L146.935 219.267C146.954 219.488 147.04 219.676 147.193 219.83C147.374 219.981 147.575 220.047 147.796 220.028L150.411 219.799C150.633 219.78 150.805 219.681 150.929 219.503C151.081 219.322 151.147 219.121 151.127 218.9Z" fill="black"/>
<path d="M167.857 194.809C171.288 194.508 173.164 196.185 173.483 199.837L174.874 215.735C175.194 219.388 173.638 221.364 170.206 221.664L159.539 222.598L157.189 195.742L167.857 194.809ZM169.121 216.907L167.61 199.64C167.591 199.419 167.491 199.232 167.31 199.081C167.158 198.927 166.97 198.86 166.749 198.879L163.345 199.177L165.001 218.104L168.405 217.807C168.626 217.787 168.799 217.689 168.923 217.51C169.074 217.33 169.14 217.129 169.121 216.907Z" fill="black"/>
<path d="M184.521 209.663L184.147 205.387L191.826 204.716L192.69 214.594C193.01 218.247 191.454 220.224 188.023 220.524L182.793 220.981C179.361 221.282 177.486 219.605 177.166 215.953L175.703 199.225C175.383 195.572 176.939 193.596 180.371 193.295L185.601 192.838C189.032 192.538 190.907 194.214 191.227 197.867L191.448 200.399L185.928 200.882L185.645 197.644C185.625 197.423 185.525 197.236 185.345 197.085C185.192 196.931 185.005 196.864 184.783 196.883L182.168 197.112C181.947 197.131 181.76 197.231 181.609 197.412C181.485 197.59 181.433 197.789 181.452 198.011L183.036 216.108C183.055 216.33 183.141 216.517 183.294 216.671C183.475 216.823 183.676 216.889 183.897 216.87L186.512 216.641C186.733 216.621 186.906 216.523 187.03 216.344C187.181 216.164 187.247 215.963 187.228 215.742L186.68 209.474L184.521 209.663Z" fill="black"/>
<path d="M202.543 191.356C205.974 191.055 207.85 192.732 208.169 196.384L210.076 218.176L204.265 218.685L203.477 209.677L199.284 210.044L200.072 219.051L194.261 219.56L192.355 197.768C192.035 194.115 193.591 192.139 197.022 191.839L202.543 191.356ZM198.892 205.561L203.084 205.194L202.296 196.187C202.277 195.966 202.177 195.779 201.997 195.628C201.844 195.474 201.657 195.407 201.435 195.426L198.82 195.655C198.599 195.674 198.412 195.774 198.261 195.955C198.137 196.133 198.085 196.333 198.104 196.554L198.892 205.561Z" fill="black"/>
<path d="M227.731 216.632L221.92 217.14L219.97 194.85C219.951 194.629 219.851 194.442 219.67 194.291C219.517 194.137 219.33 194.07 219.109 194.089L216.867 194.285C216.646 194.304 216.46 194.404 216.308 194.585C216.184 194.763 216.132 194.963 216.151 195.184L218.101 217.474L212.29 217.982L210.384 196.191C210.064 192.538 211.62 190.562 215.051 190.261L220.198 189.811C223.63 189.511 225.505 191.187 225.825 194.84L227.731 216.632Z" fill="black"/>
<path d="M236.463 205.118L236.089 200.843L243.768 200.171L244.632 210.05C244.952 213.703 243.396 215.679 239.965 215.98L234.735 216.437C231.303 216.737 229.428 215.061 229.108 211.408L227.645 194.681C227.325 191.028 228.881 189.051 232.312 188.751L237.542 188.294C240.974 187.993 242.849 189.67 243.169 193.322L243.39 195.854L237.87 196.337L237.586 193.1C237.567 192.878 237.467 192.692 237.287 192.54C237.134 192.386 236.947 192.319 236.725 192.339L234.11 192.567C233.889 192.587 233.702 192.687 233.551 192.867C233.427 193.045 233.375 193.245 233.394 193.467L234.977 211.564C234.997 211.785 235.083 211.973 235.236 212.127C235.416 212.278 235.617 212.345 235.839 212.325L238.454 212.096C238.675 212.077 238.848 211.978 238.972 211.8C239.123 211.62 239.189 211.419 239.17 211.197L238.621 204.93L236.463 205.118Z" fill="black"/>
<path d="M257.901 209.057L264.252 208.501L264.68 213.399L252.518 214.463L250.169 187.607L255.98 187.099L257.901 209.057Z" fill="black"/>
<path d="M273.642 185.135C277.073 184.835 278.949 186.511 279.268 190.164L281.175 211.956L275.363 212.464L274.575 203.457L270.383 203.824L271.171 212.831L265.36 213.339L263.454 191.548C263.134 187.895 264.69 185.919 268.121 185.618L273.642 185.135ZM269.991 199.341L274.183 198.974L273.395 189.967C273.376 189.745 273.276 189.559 273.095 189.408C272.942 189.254 272.755 189.186 272.534 189.206L269.919 189.434C269.698 189.454 269.511 189.554 269.36 189.734C269.236 189.913 269.184 190.112 269.203 190.334L269.991 199.341Z" fill="black"/>
<path d="M295.262 195.917C297.116 196.396 298.144 197.784 298.345 200.081L298.766 204.896C299.085 208.549 297.53 210.525 294.098 210.825L283.431 211.758L281.081 184.903L291.417 183.998C294.848 183.698 296.723 185.375 297.043 189.027L297.257 191.476C297.451 193.69 296.786 195.17 295.262 195.917ZM290.309 188.069L287.237 188.338L287.865 195.518L290.937 195.25C291.158 195.23 291.331 195.132 291.455 194.953C291.606 194.773 291.672 194.572 291.653 194.351L291.17 188.83C291.151 188.609 291.051 188.422 290.87 188.271C290.717 188.117 290.53 188.049 290.309 188.069ZM293.013 206.068L292.486 200.05C292.467 199.828 292.367 199.642 292.186 199.49C292.033 199.336 291.846 199.269 291.625 199.288L288.221 199.586L288.893 207.265L292.297 206.967C292.518 206.948 292.691 206.849 292.815 206.671C292.966 206.491 293.032 206.29 293.013 206.068Z" fill="black"/>
<path d="M314.306 189.106L308.785 189.589L308.6 187.472C308.58 187.251 308.48 187.065 308.3 186.913C308.147 186.759 307.96 186.692 307.739 186.711L305.456 186.911C305.234 186.93 305.048 187.03 304.896 187.211C304.772 187.389 304.72 187.589 304.74 187.81L305.157 192.584C305.177 192.805 305.263 192.993 305.416 193.147C305.596 193.298 305.797 193.364 306.018 193.345L309.754 193.018C313.19 192.773 315.066 194.449 315.381 198.047L315.885 203.816C316.205 207.469 314.649 209.445 311.218 209.746L306.32 210.174C302.888 210.474 301.013 208.798 300.693 205.145L300.45 202.364L305.971 201.881L306.232 204.87C306.251 205.091 306.338 205.279 306.491 205.433C306.671 205.584 306.872 205.651 307.093 205.631L309.667 205.406C309.888 205.387 310.061 205.288 310.185 205.11C310.336 204.929 310.402 204.728 310.383 204.507L309.922 199.235C309.902 199.014 309.802 198.827 309.622 198.676C309.469 198.522 309.282 198.455 309.06 198.474L305.325 198.801C301.893 199.101 300.018 197.425 299.698 193.772L299.23 188.418C298.91 184.765 300.466 182.788 303.898 182.488L308.505 182.085C311.936 181.785 313.812 183.461 314.131 187.114L314.306 189.106Z" fill="black"/>
<path d="M378.664 171.158L378.767 163.447L347.01 166.226L341.118 209.231L374.317 206.326L374.251 214.033L405.997 211.256L411.889 168.251L378.664 171.158V171.158ZM350.443 169.787L374.824 167.654L374.669 179.238L362.533 180.3L362.584 176.475L358.693 176.815L358.455 194.64L365.96 193.984L366.024 190.116L362.399 190.433L362.482 184.168L374.618 183.106L374.359 202.46L345.622 204.975L350.443 169.787ZM402.564 207.694L378.173 209.828L378.22 204.257L378.611 175.026L407.385 172.508L405.814 183.973L392.699 185.12L392.75 181.295L388.86 181.635L388.621 199.461L396.126 198.804L396.191 194.936L392.564 195.254L392.647 188.988L405.279 187.883L402.564 207.694Z" fill="black"/>
<path d="M438.423 187.45L438.049 183.174L445.728 182.502L446.592 192.381C446.912 196.034 445.356 198.011 441.925 198.311L436.695 198.768C433.263 199.069 431.388 197.392 431.068 193.74L429.605 177.012C429.285 173.359 430.841 171.383 434.272 171.082L439.502 170.625C442.934 170.325 444.809 172.001 445.129 175.654L445.35 178.186L439.83 178.669L439.546 175.431C439.527 175.21 439.427 175.023 439.247 174.872C439.094 174.718 438.907 174.65 438.685 174.67L436.07 174.899C435.849 174.918 435.662 175.018 435.511 175.198C435.387 175.377 435.335 175.576 435.354 175.798L436.937 193.895C436.957 194.117 437.043 194.304 437.196 194.458C437.376 194.61 437.577 194.676 437.799 194.656L440.414 194.428C440.635 194.408 440.808 194.31 440.932 194.131C441.083 193.951 441.149 193.75 441.13 193.528L440.581 187.261L438.423 187.45Z" fill="black"/>
<path d="M462.071 174.171L463.535 190.899C463.854 194.552 462.298 196.528 458.867 196.828L453.346 197.311C449.915 197.612 448.04 195.935 447.72 192.283L446.257 175.555C445.937 171.902 447.493 169.926 450.924 169.626L456.445 169.143C459.876 168.842 461.752 170.519 462.071 174.171ZM457.782 192.072L456.198 173.974C456.179 173.753 456.079 173.566 455.898 173.415C455.746 173.261 455.558 173.194 455.337 173.213L452.722 173.442C452.501 173.461 452.314 173.561 452.163 173.742C452.039 173.92 451.987 174.12 452.006 174.341L453.589 192.438C453.609 192.66 453.695 192.847 453.848 193.001C454.028 193.153 454.229 193.219 454.451 193.2L457.066 192.971C457.287 192.951 457.46 192.853 457.583 192.675C457.735 192.494 457.801 192.293 457.782 192.072Z" fill="black"/>
<path d="M480.101 172.594L481.565 189.322C481.884 192.974 480.328 194.951 476.897 195.251L471.377 195.734C467.945 196.034 466.07 194.358 465.75 190.705L464.287 173.978C463.967 170.325 465.523 168.348 468.954 168.048L474.475 167.565C477.906 167.265 479.782 168.941 480.101 172.594ZM475.812 190.494L474.228 172.397C474.209 172.175 474.109 171.989 473.928 171.837C473.776 171.683 473.588 171.616 473.367 171.636L470.752 171.864C470.531 171.884 470.344 171.984 470.193 172.164C470.069 172.342 470.017 172.542 470.036 172.763L471.619 190.861C471.639 191.082 471.725 191.27 471.878 191.424C472.058 191.575 472.259 191.642 472.481 191.622L475.096 191.393C475.317 191.374 475.49 191.275 475.613 191.097C475.765 190.917 475.831 190.716 475.812 190.494Z" fill="black"/>
<path d="M492.541 166.403C495.973 166.103 497.848 167.779 498.168 171.432L499.558 187.329C499.878 190.982 498.322 192.958 494.891 193.259L484.223 194.192L481.874 167.336L492.541 166.403ZM493.805 188.502L492.295 171.234C492.275 171.013 492.175 170.827 491.995 170.675C491.842 170.521 491.655 170.454 491.433 170.473L488.03 170.771L489.686 189.699L493.089 189.401C493.311 189.381 493.483 189.283 493.607 189.105C493.759 188.924 493.825 188.723 493.805 188.502Z" fill="black"/>
<path d="M509.206 181.257L508.832 176.982L516.511 176.31L517.375 186.189C517.694 189.841 516.139 191.818 512.707 192.118L507.477 192.576C504.046 192.876 502.17 191.2 501.851 187.547L500.387 170.819C500.068 167.166 501.624 165.19 505.055 164.89L510.285 164.432C513.716 164.132 515.592 165.808 515.911 169.461L516.133 171.993L510.612 172.476L510.329 169.238C510.31 169.017 510.21 168.83 510.029 168.679C509.876 168.525 509.689 168.458 509.468 168.477L506.853 168.706C506.631 168.725 506.445 168.825 506.293 169.006C506.17 169.184 506.117 169.384 506.137 169.605L507.72 187.703C507.739 187.924 507.826 188.112 507.978 188.266C508.159 188.417 508.36 188.483 508.581 188.464L511.196 188.235C511.418 188.216 511.59 188.117 511.714 187.939C511.866 187.758 511.932 187.557 511.912 187.336L511.364 181.068L509.206 181.257Z" fill="black"/>
<path d="M527.227 162.95C530.659 162.65 532.534 164.326 532.854 167.979L534.76 189.77L528.949 190.279L528.161 181.272L523.969 181.638L524.757 190.646L518.946 191.154L517.039 169.362C516.72 165.71 518.276 163.733 521.707 163.433L527.227 162.95ZM523.577 177.155L527.769 176.789L526.981 167.781C526.962 167.56 526.862 167.374 526.681 167.222C526.528 167.068 526.341 167.001 526.12 167.02L523.505 167.249C523.283 167.268 523.097 167.368 522.945 167.549C522.821 167.727 522.769 167.927 522.789 168.148L523.577 177.155Z" fill="black"/>
<path d="M552.416 188.226L546.605 188.734L544.655 166.444C544.635 166.223 544.535 166.036 544.355 165.885C544.202 165.731 544.015 165.664 543.793 165.683L541.552 165.879C541.33 165.899 541.144 165.999 540.993 166.179C540.869 166.357 540.816 166.557 540.836 166.778L542.786 189.068L536.975 189.577L535.068 167.785C534.749 164.132 536.305 162.156 539.736 161.856L544.883 161.405C548.314 161.105 550.19 162.781 550.509 166.434L552.416 188.226Z" fill="black"/>
<path d="M561.147 176.713L560.773 172.437L568.452 171.765L569.317 181.644C569.636 185.297 568.08 187.274 564.649 187.574L559.419 188.031C555.988 188.332 554.112 186.655 553.793 183.003L552.329 166.275C552.01 162.622 553.565 160.646 556.997 160.345L562.227 159.888C565.658 159.588 567.534 161.264 567.853 164.917L568.075 167.449L562.554 167.932L562.271 164.694C562.251 164.473 562.152 164.286 561.971 164.135C561.818 163.981 561.631 163.913 561.41 163.933L558.795 164.162C558.573 164.181 558.387 164.281 558.235 164.461C558.111 164.64 558.059 164.839 558.079 165.061L559.662 183.158C559.681 183.38 559.767 183.567 559.92 183.721C560.101 183.873 560.302 183.939 560.523 183.919L563.138 183.691C563.36 183.671 563.532 183.573 563.656 183.394C563.807 183.214 563.874 183.013 563.854 182.791L563.306 176.524L561.147 176.713Z" fill="black"/>
<path d="M582.586 180.651L588.936 180.095L589.365 184.993L577.203 186.057L574.853 159.201L580.664 158.693L582.586 180.651Z" fill="black"/>
<path d="M598.326 156.73C601.758 156.429 603.633 158.106 603.953 161.758L605.859 183.55L600.048 184.058L599.26 175.051L595.068 175.418L595.856 184.425L590.044 184.934L588.138 163.142C587.818 159.489 589.374 157.513 592.806 157.213L598.326 156.73ZM594.675 170.935L598.868 170.568L598.08 161.561C598.06 161.34 597.96 161.153 597.78 161.002C597.627 160.848 597.44 160.781 597.218 160.8L594.603 161.029C594.382 161.048 594.196 161.148 594.044 161.329C593.92 161.507 593.868 161.706 593.887 161.928L594.675 170.935Z" fill="black"/>
<path d="M619.946 167.511C621.8 167.99 622.828 169.378 623.029 171.675L623.45 176.49C623.77 180.143 622.214 182.119 618.783 182.419L608.115 183.353L605.766 156.497L616.101 155.593C619.532 155.293 621.408 156.969 621.727 160.621L621.942 163.07C622.135 165.284 621.47 166.765 619.946 167.511ZM614.993 159.663L611.922 159.932L612.55 167.113L615.621 166.844C615.843 166.825 616.015 166.726 616.139 166.548C616.291 166.367 616.357 166.166 616.338 165.945L615.855 160.424C615.835 160.203 615.735 160.016 615.555 159.865C615.402 159.711 615.215 159.644 614.993 159.663ZM617.697 177.663L617.171 171.644C617.151 171.423 617.051 171.236 616.871 171.085C616.718 170.931 616.531 170.863 616.309 170.883L612.906 171.181L613.578 178.86L616.981 178.562C617.203 178.542 617.375 178.444 617.499 178.265C617.651 178.085 617.717 177.884 617.697 177.663Z" fill="black"/>
<path d="M638.99 160.701L633.469 161.184L633.284 159.067C633.265 158.845 633.165 158.659 632.984 158.507C632.831 158.353 632.644 158.286 632.423 158.305L630.14 158.505C629.919 158.525 629.732 158.625 629.581 158.805C629.457 158.983 629.405 159.183 629.424 159.404L629.842 164.178C629.861 164.399 629.947 164.587 630.1 164.741C630.281 164.892 630.482 164.958 630.703 164.939L634.439 164.612C637.875 164.367 639.75 166.044 640.065 169.641L640.57 175.411C640.889 179.063 639.333 181.04 635.902 181.34L631.004 181.768C627.573 182.069 625.697 180.392 625.378 176.74L625.135 173.959L630.655 173.476L630.917 176.464C630.936 176.686 631.022 176.873 631.175 177.027C631.356 177.179 631.556 177.245 631.778 177.225L634.351 177C634.573 176.981 634.745 176.882 634.869 176.704C635.021 176.523 635.087 176.322 635.067 176.101L634.606 170.83C634.587 170.608 634.487 170.422 634.306 170.27C634.153 170.116 633.966 170.049 633.745 170.068L630.009 170.395C626.578 170.695 624.702 169.019 624.383 165.366L623.914 160.012C623.595 156.359 625.151 154.383 628.582 154.083L633.189 153.679C636.621 153.379 638.496 155.055 638.816 158.708L638.99 160.701Z" fill="black"/>
<rect x="0.5" y="0.5" width="689" height="333" rx="7.5" stroke="#3F3F46"/>
</g>
</svg>
