<svg width="320" height="155" viewBox="0 0 320 155" fill="none" xmlns="http://www.w3.org/2000/svg">
<rect width="320" height="155" rx="8" fill="black"/>
<mask id="mask0_1_756" style="mask-type:alpha" maskUnits="userSpaceOnUse" x="0" y="0" width="320" height="155">
<rect width="320" height="155" rx="8" fill="black"/>
</mask>
<g mask="url(#mask0_1_756)">
<rect width="1007.17" height="27.8439" transform="matrix(0.987673 0.156534 -0.156335 0.987704 -595.298 -112.77)" fill="white"/>
<path d="M-25.9104 -7.27506L-25.7236 -8.45533L-23.6051 -8.11957L-24.0368 -5.39234C-24.1964 -4.38395 -24.7495 -3.95477 -25.6962 -4.10481L-27.1391 -4.33349C-28.0857 -4.48352 -28.4792 -5.06273 -28.3196 -6.07112L-27.5887 -10.6891C-27.4291 -11.6975 -26.8759 -12.1266 -25.9293 -11.9766L-24.4864 -11.7479C-23.5398 -11.5979 -23.1462 -11.0187 -23.3058 -10.0103L-23.4165 -9.3113L-24.9395 -9.55269L-24.7981 -10.4465C-24.7884 -10.5076 -24.8028 -10.5647 -24.8414 -10.6178C-24.8723 -10.6697 -24.9183 -10.7005 -24.9794 -10.7101L-25.7008 -10.8245C-25.7619 -10.8342 -25.8189 -10.8197 -25.872 -10.7811C-25.9174 -10.7414 -25.945 -10.6909 -25.9547 -10.6298L-26.7454 -5.63369C-26.7551 -5.57257 -26.7445 -5.51607 -26.7136 -5.46419C-26.675 -5.41109 -26.6252 -5.3797 -26.5641 -5.37002L-25.8427 -5.25569C-25.7816 -5.24601 -25.7284 -5.26106 -25.6829 -5.30084C-25.6299 -5.33942 -25.5985 -5.38927 -25.5888 -5.45038L-25.315 -7.18068L-25.9104 -7.27506Z" fill="black"/>
<path d="M-18.6317 -9.2695L-19.3626 -4.65154C-19.5222 -3.64315 -20.0754 -3.21398 -21.022 -3.36401L-22.5451 -3.60539C-23.4917 -3.75543 -23.8852 -4.33464 -23.7256 -5.34303L-22.9947 -9.96098C-22.8351 -10.9694 -22.2819 -11.3985 -21.3353 -11.2485L-19.8123 -11.0071C-18.8656 -10.8571 -18.4721 -10.2779 -18.6317 -9.2695ZM-20.9948 -4.72229L-20.2041 -9.71839C-20.1944 -9.77951 -20.2088 -9.83661 -20.2474 -9.88971C-20.2783 -9.94159 -20.3243 -9.97237 -20.3854 -9.98205L-21.1068 -10.0964C-21.1679 -10.1061 -21.2249 -10.0916 -21.278 -10.053C-21.3234 -10.0133 -21.351 -9.96281 -21.3607 -9.9017L-22.1514 -4.90559C-22.1611 -4.84448 -22.1505 -4.78798 -22.1196 -4.73609C-22.081 -4.683 -22.0312 -4.65161 -21.9701 -4.64193L-21.2487 -4.52759C-21.1876 -4.51791 -21.1344 -4.53296 -21.0889 -4.57275C-21.0359 -4.61133 -21.0045 -4.66117 -20.9948 -4.72229Z" fill="black"/>
<path d="M-13.6575 -8.48114L-14.3884 -3.86319C-14.548 -2.8548 -15.1011 -2.42562 -16.0478 -2.57565L-17.5708 -2.81704C-18.5175 -2.96707 -18.911 -3.54628 -18.7514 -4.55467L-18.0205 -9.17263C-17.8609 -10.181 -17.3077 -10.6102 -16.3611 -10.4602L-14.838 -10.2188C-13.8914 -10.0687 -13.4979 -9.48953 -13.6575 -8.48114ZM-16.0206 -3.93393L-15.2298 -8.93004C-15.2202 -8.99115 -15.2346 -9.04825 -15.2732 -9.10135C-15.3041 -9.15324 -15.3501 -9.18402 -15.4111 -9.1937L-16.1326 -9.30804C-16.1937 -9.31772 -16.2507 -9.30327 -16.3038 -9.26469C-16.3492 -9.22491 -16.3768 -9.17446 -16.3864 -9.11334L-17.1772 -4.11724C-17.1869 -4.05612 -17.1763 -3.99962 -17.1454 -3.94774C-17.1068 -3.89464 -17.057 -3.86325 -16.9959 -3.85358L-16.2745 -3.73924C-16.2134 -3.72956 -16.1601 -3.74461 -16.1147 -3.7844C-16.0617 -3.82297 -16.0303 -3.87282 -16.0206 -3.93393Z" fill="black"/>
<path d="M-9.88195 -9.31583C-8.93529 -9.1658 -8.54177 -8.58659 -8.70138 -7.5782L-9.39604 -3.18942C-9.55565 -2.18103 -10.1088 -1.75185 -11.0554 -1.90189L-13.9985 -2.36832L-12.825 -9.78227L-9.88195 -9.31583ZM-11.0283 -3.26017L-10.2737 -8.02709C-10.2641 -8.0882 -10.2785 -8.14531 -10.3171 -8.1984C-10.348 -8.25029 -10.394 -8.28107 -10.4551 -8.29075L-11.3941 -8.43958L-12.2211 -3.21429L-11.2821 -3.06547C-11.221 -3.05579 -11.1678 -3.07084 -11.1224 -3.11063C-11.0693 -3.14921 -11.0379 -3.19905 -11.0283 -3.26017Z" fill="black"/>
<path d="M-6.3826 -4.18013L-6.19578 -5.3604L-4.07726 -5.02464L-4.50893 -2.29741C-4.66854 -1.28902 -5.22167 -0.859842 -6.16832 -1.00987L-7.61121 -1.23855C-8.55786 -1.38859 -8.95138 -1.9678 -8.79177 -2.97619L-8.06084 -7.59415C-7.90123 -8.60253 -7.3481 -9.03171 -6.40145 -8.88168L-4.95857 -8.653C-4.01191 -8.50296 -3.61839 -7.92375 -3.778 -6.91537L-3.88864 -6.21637L-5.41168 -6.45775L-5.27021 -7.35155C-5.26053 -7.41267 -5.27497 -7.46977 -5.31352 -7.52287C-5.34444 -7.57475 -5.39044 -7.60554 -5.45151 -7.61522L-6.17295 -7.72955C-6.23403 -7.73923 -6.29109 -7.72479 -6.34415 -7.68621C-6.38958 -7.64642 -6.41713 -7.59597 -6.4268 -7.53486L-7.21759 -2.53875C-7.22726 -2.47764 -7.21664 -2.42114 -7.18573 -2.36925C-7.14717 -2.31616 -7.09736 -2.28477 -7.03629 -2.27509L-6.31485 -2.16075C-6.25377 -2.15107 -6.20052 -2.16613 -6.15509 -2.20591C-6.10203 -2.24449 -6.07067 -2.29433 -6.06099 -2.35545L-5.78712 -4.08575L-6.3826 -4.18013Z" fill="black"/>
<path d="M-0.284407 -7.9122C0.662246 -7.76217 1.05577 -7.18295 0.89616 -6.17457L-0.0560491 -0.158616L-1.65925 -0.412705L-1.26567 -2.8993L-2.42227 -3.0826L-2.81585 -0.596011L-4.41905 -0.8501L-3.46684 -6.86605C-3.30723 -7.87444 -2.7541 -8.30362 -1.80745 -8.15358L-0.284407 -7.9122ZM-2.22638 -4.32017L-1.06979 -4.13686L-0.676209 -6.62346C-0.666536 -6.68457 -0.680974 -6.74168 -0.719525 -6.79477C-0.750442 -6.84666 -0.796439 -6.87744 -0.857513 -6.88712L-1.57895 -7.00146C-1.64003 -7.01114 -1.6971 -6.99669 -1.75016 -6.95812C-1.79558 -6.91833 -1.82313 -6.86788 -1.8328 -6.80677L-2.22638 -4.32017Z" fill="black"/>
<path d="M4.81484 0.613363L3.21164 0.359274L4.18561 -5.79418C4.19529 -5.8553 4.18085 -5.9124 4.1423 -5.9655C4.11138 -6.01739 4.06538 -6.04817 4.00431 -6.05785L3.38593 -6.15585C3.32486 -6.16553 3.26779 -6.15108 3.21473 -6.11251C3.1693 -6.07272 3.14175 -6.02227 3.13208 -5.96116L2.1581 0.192301L0.554903 -0.0617871L1.50711 -6.07774C1.66672 -7.08613 2.21985 -7.5153 3.1665 -7.36527L4.58648 -7.14022C5.53314 -6.99019 5.92666 -6.41098 5.76705 -5.40259L4.81484 0.613363Z" fill="black"/>
<path d="M7.94737 -1.909L8.13418 -3.08927L10.2527 -2.75351L9.82103 -0.0262776C9.66142 0.98211 9.10829 1.41129 8.16164 1.26125L6.71876 1.03258C5.7721 0.882542 5.37858 0.303331 5.53819 -0.705057L6.26912 -5.32302C6.42873 -6.3314 6.98186 -6.76058 7.92852 -6.61055L9.3714 -6.38187C10.3181 -6.23183 10.7116 -5.65262 10.552 -4.64424L10.4413 -3.94524L8.91829 -4.18662L9.05976 -5.08042C9.06943 -5.14154 9.05499 -5.19864 9.01644 -5.25174C8.98552 -5.30362 8.93953 -5.33441 8.87845 -5.34408L8.15701 -5.45843C8.09594 -5.4681 8.03887 -5.45366 7.98581 -5.41508C7.94038 -5.37529 7.91283 -5.32484 7.90316 -5.26373L7.11237 -0.267625C7.1027 -0.206511 7.11332 -0.150011 7.14424 -0.0981252C7.18279 -0.0450297 7.2326 -0.0136418 7.29368 -0.00396228L8.01512 0.110378C8.07619 0.120057 8.12944 0.105004 8.17487 0.0652176C8.22793 0.0266415 8.2593 -0.0232039 8.26897 -0.0843183L8.54284 -1.81462L7.94737 -1.909Z" fill="black"/>
<path d="M13.4705 0.599099L15.2225 0.876781L15.0085 2.22894L11.6532 1.69717L12.8267 -5.71678L14.4299 -5.46269L13.4705 0.599099Z" fill="black"/>
<path d="M19.3307 -4.80344C20.2773 -4.65341 20.6708 -4.0742 20.5112 -3.06581L19.559 2.95014L17.9558 2.69605L18.3494 0.20946L17.1928 0.0261533L16.7992 2.51275L15.196 2.25866L16.1482 -3.75729C16.3078 -4.76568 16.861 -5.19486 17.8076 -5.04483L19.3307 -4.80344ZM17.3887 -1.21141L18.5453 -1.02811L18.9389 -3.5147C18.9485 -3.57582 18.9341 -3.63292 18.8955 -3.68602C18.8646 -3.7379 18.8186 -3.76868 18.7576 -3.77836L18.0361 -3.8927C17.975 -3.90238 17.918 -3.88793 17.8649 -3.84936C17.8195 -3.80957 17.7919 -3.75912 17.7823 -3.69801L17.3887 -1.21141Z" fill="black"/>
<path d="M24.4421 -0.43417C24.9106 -0.17982 25.0946 0.264387 24.9942 0.898449L24.7838 2.22769C24.6242 3.23608 24.0711 3.66525 23.1245 3.51522L20.1814 3.04879L21.3549 -4.36516L24.2063 -3.91324C25.153 -3.76321 25.5465 -3.184 25.3869 -2.17561L25.2799 -1.49953C25.1831 -0.888389 24.9039 -0.533268 24.4421 -0.43417ZM23.6332 -2.88817L22.7858 -3.02247L22.472 -1.04007L23.3194 -0.905766C23.3805 -0.896086 23.4338 -0.91114 23.4792 -0.950926C23.5323 -0.989502 23.5636 -1.03935 23.5733 -1.10046L23.8145 -2.6245C23.8242 -2.68562 23.8098 -2.74272 23.7712 -2.79582C23.7403 -2.8477 23.6943 -2.87849 23.6332 -2.88817ZM23.1516 2.15694L23.4146 0.495393C23.4243 0.434279 23.4098 0.377174 23.3713 0.324079C23.3404 0.272193 23.2944 0.241411 23.2333 0.231731L22.2943 0.0829077L21.9587 2.20281L22.8978 2.35164C22.9588 2.36132 23.0121 2.34626 23.0575 2.30648C23.1106 2.2679 23.1419 2.21806 23.1516 2.15694Z" fill="black"/>
<path d="M30.0424 -0.991404L28.5194 -1.23279L28.6119 -1.81719C28.6215 -1.87831 28.6071 -1.93541 28.5685 -1.98851C28.5376 -2.0404 28.4916 -2.07118 28.4306 -2.08086L27.8007 -2.18068C27.7397 -2.19036 27.6826 -2.17591 27.6295 -2.13733C27.5841 -2.09755 27.5566 -2.0471 27.5469 -1.98598L27.3383 -0.668203C27.3286 -0.607088 27.3392 -0.550588 27.3702 -0.498702C27.4087 -0.445606 27.4585 -0.414219 27.5196 -0.40454L28.5502 -0.241197C29.4945 -0.0758853 29.888 0.503325 29.7308 1.49643L29.4787 3.08923C29.3191 4.09762 28.766 4.52679 27.8193 4.37676L26.468 4.1626C25.5214 4.01257 25.1279 3.43336 25.2875 2.42497L25.409 1.65722L26.932 1.8986L26.8014 2.72365C26.7918 2.78476 26.8024 2.84126 26.8333 2.89315C26.8719 2.94624 26.9217 2.97763 26.9827 2.98731L27.6927 3.09984C27.7538 3.10951 27.8071 3.09446 27.8525 3.05468C27.9055 3.0161 27.9369 2.96625 27.9466 2.90514L28.1769 1.44985C28.1866 1.38874 28.1722 1.33163 28.1336 1.27854C28.1027 1.22665 28.0567 1.19587 27.9956 1.18619L26.965 1.02285C26.0183 0.872815 25.6248 0.293603 25.7844 -0.714785L26.0184 -2.19299C26.178 -3.20138 26.7311 -3.63055 27.6778 -3.48052L28.9489 -3.27907C29.8955 -3.12903 30.2891 -2.54982 30.1295 -1.54143L30.0424 -0.991404Z" fill="black"/>
<path d="M48.628 -1.50593L49.1749 -3.58214L40.4136 -4.9707L35.9277 6.25115L45.0869 7.70279L44.5503 9.78061L53.3084 11.1687L57.7943 -0.053174L48.628 -1.50593V-1.50593ZM41.1007 -3.77717L47.8272 -2.71112L47.0053 0.408122L43.6572 -0.12252L43.9285 -1.15261L42.8551 -1.32273L41.5908 3.47711L43.6612 3.80526L43.9391 2.76467L42.9388 2.60615L43.3832 0.919077L46.7313 1.44972L45.3585 6.66121L37.4303 5.40468L41.1007 -3.77717ZM52.6213 9.97515L45.8921 8.90866L46.2799 7.40658L48.3533 -0.464455L56.2916 0.79368L55.0956 3.78526L51.4775 3.21183L51.7488 2.18174L50.6754 2.01162L49.4111 6.81146L51.4816 7.13961L51.7594 6.09902L50.7588 5.94043L51.2031 4.25336L54.6878 4.80565L52.6213 9.97515Z" fill="black"/>
<path d="M63.6656 6.92123L63.8525 5.74096L65.971 6.07672L65.5393 8.80395C65.3797 9.81234 64.8266 10.2415 63.8799 10.0915L62.437 9.8628C61.4904 9.71277 61.0969 9.13356 61.2565 8.12517L61.9874 3.50721C62.147 2.49882 62.7001 2.06965 63.6468 2.21968L65.0897 2.44836C66.0363 2.59839 66.4298 3.1776 66.2702 4.18599L66.1596 4.88499L64.6366 4.6436L64.778 3.7498C64.7877 3.68869 64.7733 3.63158 64.7347 3.57849C64.7038 3.5266 64.6578 3.49582 64.5967 3.48614L63.8753 3.3718C63.8142 3.36212 63.7571 3.37657 63.7041 3.41515C63.6587 3.45493 63.6311 3.50538 63.6214 3.5665L62.8306 8.5626C62.821 8.62372 62.8316 8.68022 62.8625 8.7321C62.9011 8.7852 62.9509 8.81658 63.0119 8.82626L63.7334 8.9406C63.7945 8.95028 63.8477 8.93523 63.8931 8.89544C63.9462 8.85687 63.9776 8.80702 63.9872 8.74591L64.2611 7.01561L63.6656 6.92123Z" fill="black"/>
<path d="M70.9444 4.92679L70.2135 9.54475C70.0539 10.5531 69.5007 10.9823 68.5541 10.8323L67.031 10.5909C66.0844 10.4409 65.6908 9.86165 65.8505 8.85326L66.5814 4.2353C66.741 3.22692 67.2941 2.79774 68.2408 2.94777L69.7638 3.18916C70.7105 3.33919 71.104 3.9184 70.9444 4.92679ZM68.5812 9.474L69.372 4.4779C69.3817 4.41678 69.3673 4.35968 69.3287 4.30658C69.2978 4.2547 69.2518 4.22392 69.1907 4.21424L68.4693 4.0999C68.4082 4.09022 68.3511 4.10466 68.2981 4.14324C68.2527 4.18303 68.2251 4.23348 68.2154 4.29459L67.4246 9.2907C67.415 9.35181 67.4256 9.40831 67.4565 9.4602C67.4951 9.51329 67.5449 9.54468 67.6059 9.55436L68.3274 9.6687C68.3885 9.67838 68.4417 9.66332 68.4871 9.62354C68.5402 9.58496 68.5716 9.53512 68.5812 9.474Z" fill="black"/>
<path d="M75.9186 5.71514L75.1877 10.3331C75.0281 11.3415 74.4749 11.7707 73.5283 11.6206L72.0052 11.3793C71.0586 11.2292 70.6651 10.65 70.8247 9.64162L71.5556 5.02366C71.7152 4.01527 72.2684 3.5861 73.215 3.73613L74.738 3.97751C75.6847 4.12755 76.0782 4.70676 75.9186 5.71514ZM73.5555 10.2624L74.3462 5.26625C74.3559 5.20514 74.3415 5.14803 74.3029 5.09494C74.272 5.04305 74.226 5.01227 74.1649 5.00259L73.4435 4.88825C73.3824 4.87857 73.3254 4.89302 73.2723 4.9316C73.2269 4.97138 73.1993 5.02183 73.1896 5.08295L72.3989 10.0791C72.3892 10.1402 72.3998 10.1967 72.4307 10.2486C72.4693 10.3016 72.5191 10.333 72.5802 10.3427L73.3016 10.4571C73.3627 10.4667 73.4159 10.4517 73.4614 10.4119C73.5144 10.3733 73.5458 10.3235 73.5555 10.2624Z" fill="black"/>
<path d="M79.6941 4.88046C80.6408 5.03049 81.0343 5.6097 80.8747 6.61809L80.18 11.0069C80.0204 12.0153 79.4673 12.4444 78.5206 12.2944L75.5776 11.828L76.7511 4.41402L79.6941 4.88046ZM78.5478 10.9361L79.3023 6.1692C79.312 6.10808 79.2976 6.05098 79.259 5.99788C79.2281 5.946 79.1821 5.91522 79.121 5.90554L78.182 5.75671L77.3549 10.982L78.294 11.1308C78.355 11.1405 78.4083 11.1254 78.4537 11.0857C78.5068 11.0471 78.5381 10.9972 78.5478 10.9361Z" fill="black"/>
<path d="M83.1935 10.0162L83.3803 8.83589L85.4988 9.17165L85.0671 11.8989C84.9075 12.9073 84.3544 13.3364 83.4078 13.1864L81.9649 12.9577C81.0182 12.8077 80.6247 12.2285 80.7843 11.2201L81.5152 6.60214C81.6748 5.59376 82.228 5.16458 83.1746 5.31461L84.6175 5.54329C85.5642 5.69332 85.9577 6.27254 85.7981 7.28092L85.6874 7.97992L84.1644 7.73854L84.3059 6.84474C84.3155 6.78362 84.3011 6.72652 84.2626 6.67342C84.2316 6.62154 84.1856 6.59075 84.1246 6.58107L83.4031 6.46673C83.3421 6.45705 83.285 6.4715 83.2319 6.51008C83.1865 6.54987 83.159 6.60032 83.1493 6.66143L82.3585 11.6575C82.3488 11.7186 82.3594 11.7751 82.3904 11.827C82.4289 11.8801 82.4787 11.9115 82.5398 11.9212L83.2612 12.0355C83.3223 12.0452 83.3756 12.0302 83.421 11.9904C83.474 11.9518 83.5054 11.902 83.5151 11.8408L83.789 10.1105L83.1935 10.0162Z" fill="black"/>
<path d="M89.2917 6.28409C90.2383 6.43412 90.6318 7.01333 90.4722 8.02172L89.52 14.0377L87.9168 13.7836L88.3104 11.297L87.1538 11.1137L86.7602 13.6003L85.157 13.3462L86.1092 7.33024C86.2688 6.32185 86.822 5.89267 87.7686 6.04271L89.2917 6.28409ZM87.3497 9.87612L88.5063 10.0594L88.8999 7.57283C88.9095 7.51172 88.8951 7.45461 88.8566 7.40152C88.8256 7.34963 88.7796 7.31885 88.7186 7.30917L87.9971 7.19483C87.9361 7.18515 87.879 7.1996 87.8259 7.23817C87.7805 7.27796 87.7529 7.32841 87.7433 7.38952L87.3497 9.87612Z" fill="black"/>
<path d="M94.3909 14.8097L92.7877 14.5556L93.7617 8.4021C93.7714 8.34099 93.7569 8.28389 93.7184 8.23079C93.6875 8.1789 93.6415 8.14812 93.5804 8.13844L92.962 8.04044C92.9009 8.03076 92.8439 8.04521 92.7908 8.08378C92.7454 8.12357 92.7178 8.17402 92.7082 8.23513L91.7342 14.3886L90.131 14.1345L91.0832 8.11855C91.2428 7.11016 91.7959 6.68099 92.7426 6.83102L94.1626 7.05607C95.1092 7.2061 95.5027 7.78531 95.3431 8.7937L94.3909 14.8097Z" fill="black"/>
<path d="M97.5234 12.2873L97.7103 11.107L99.8288 11.4428L99.3971 14.17C99.2375 15.1784 98.6844 15.6076 97.7377 15.4575L96.2948 15.2289C95.3482 15.0788 94.9547 14.4996 95.1143 13.4912L95.8452 8.87327C96.0048 7.86489 96.5579 7.43571 97.5046 7.58574L98.9475 7.81442C99.8941 7.96445 100.288 8.54367 100.128 9.55205L100.017 10.251L98.4944 10.0097L98.6358 9.11587C98.6455 9.05475 98.6311 8.99765 98.5925 8.94455C98.5616 8.89267 98.5156 8.86188 98.4545 8.8522L97.7331 8.73786C97.672 8.72818 97.6149 8.74263 97.5619 8.78121C97.5165 8.82099 97.4889 8.87145 97.4792 8.93256L96.6885 13.9287C96.6788 13.9898 96.6894 14.0463 96.7203 14.0982C96.7589 14.1513 96.8087 14.1826 96.8698 14.1923L97.5912 14.3067C97.6523 14.3163 97.7055 14.3013 97.7509 14.2615C97.804 14.2229 97.8354 14.1731 97.845 14.112L98.1189 12.3817L97.5234 12.2873Z" fill="black"/>
<path d="M103.047 14.7954L104.799 15.0731L104.585 16.4252L101.229 15.8935L102.403 8.47951L104.006 8.7336L103.047 14.7954Z" fill="black"/>
<path d="M108.907 9.39285C109.853 9.54288 110.247 10.1221 110.087 11.1305L109.135 17.1464L107.532 16.8923L107.925 14.4057L106.769 14.2224L106.375 16.709L104.772 16.4549L105.724 10.439C105.884 9.43061 106.437 9.00143 107.384 9.15146L108.907 9.39285ZM106.965 12.9849L108.121 13.1682L108.515 10.6816C108.525 10.6205 108.51 10.5634 108.472 10.5103C108.441 10.4584 108.395 10.4276 108.334 10.4179L107.612 10.3036C107.551 10.2939 107.494 10.3084 107.441 10.3469C107.396 10.3867 107.368 10.4372 107.358 10.4983L106.965 12.9849Z" fill="black"/>
<path d="M114.018 13.7621C114.487 14.0165 114.671 14.4607 114.57 15.0947L114.36 16.424C114.2 17.4324 113.647 17.8615 112.701 17.7115L109.758 17.2451L110.931 9.83113L113.782 10.283C114.729 10.4331 115.123 11.0123 114.963 12.0207L114.856 12.6968C114.759 13.3079 114.48 13.663 114.018 13.7621ZM113.209 11.3081L112.362 11.1738L112.048 13.1562L112.896 13.2905C112.957 13.3002 113.01 13.2851 113.055 13.2454C113.108 13.2068 113.14 13.1569 113.149 13.0958L113.391 11.5718C113.4 11.5107 113.386 11.4536 113.347 11.4005C113.316 11.3486 113.27 11.3178 113.209 11.3081ZM112.728 16.3532L112.991 14.6917C113 14.6306 112.986 14.5735 112.947 14.5204C112.916 14.4685 112.87 14.4377 112.809 14.428L111.87 14.2792L111.535 16.3991L112.474 16.5479C112.535 16.5576 112.588 16.5426 112.634 16.5028C112.687 16.4642 112.718 16.4143 112.728 16.3532Z" fill="black"/>
<path d="M119.618 13.2049L118.095 12.9635L118.188 12.3791C118.198 12.318 118.183 12.2609 118.145 12.2078C118.114 12.1559 118.068 12.1251 118.007 12.1154L117.377 12.0156C117.316 12.0059 117.259 12.0204 117.206 12.059C117.16 12.0987 117.133 12.1492 117.123 12.2103L116.914 13.5281C116.905 13.5892 116.915 13.6457 116.946 13.6976C116.985 13.7507 117.035 13.7821 117.096 13.7917L118.126 13.9551C119.071 14.1204 119.464 14.6996 119.307 15.6927L119.055 17.2855C118.895 18.2939 118.342 18.7231 117.395 18.5731L116.044 18.3589C115.097 18.2089 114.704 17.6296 114.864 16.6213L114.985 15.8535L116.508 16.0949L116.378 16.9199C116.368 16.9811 116.378 17.0376 116.409 17.0894C116.448 17.1425 116.498 17.1739 116.559 17.1836L117.269 17.2961C117.33 17.3058 117.383 17.2908 117.429 17.251C117.482 17.2124 117.513 17.1625 117.523 17.1014L117.753 15.6461C117.763 15.585 117.748 15.5279 117.71 15.4748C117.679 15.4229 117.633 15.3922 117.572 15.3825L116.541 15.2191C115.594 15.0691 115.201 14.4899 115.361 13.4815L115.594 12.0033C115.754 10.9949 116.307 10.5657 117.254 10.7158L118.525 10.9172C119.472 11.0673 119.865 11.6465 119.706 12.6549L119.618 13.2049Z" fill="black"/>
<path d="M227.78 26.8876L228.327 24.8114L219.566 23.4229L215.08 34.6447L224.239 36.0963L223.702 38.1742L232.46 39.5622L236.946 28.3404L227.78 26.8876V26.8876ZM220.253 24.6164L226.979 25.6824L226.157 28.8017L222.809 28.271L223.081 27.2409L222.007 27.0708L220.743 31.8707L222.813 32.1988L223.091 31.1582L222.091 30.9997L222.535 29.3126L225.883 29.8433L224.511 35.0548L216.582 33.7982L220.253 24.6164ZM231.773 38.3687L225.044 37.3022L225.432 35.8001L227.505 27.9291L235.444 29.1872L234.248 32.1788L230.629 31.6054L230.901 30.5753L229.827 30.4052L228.563 35.205L230.634 35.5332L230.911 34.4926L229.911 34.334L230.355 32.6469L233.84 33.1992L231.773 38.3687Z" fill="black"/>
<path d="M242.818 35.3148L243.004 34.1345L245.123 34.4703L244.691 37.1975C244.532 38.2059 243.979 38.6351 243.032 38.485L241.589 38.2564C240.642 38.1063 240.249 37.5271 240.408 36.5187L241.139 31.9008C241.299 30.8924 241.852 30.4632 242.799 30.6132L244.242 30.8419C245.188 30.9919 245.582 31.5712 245.422 32.5795L245.312 33.2785L243.789 33.0372L243.93 32.1434C243.94 32.0822 243.925 32.0251 243.887 31.972C243.856 31.9202 243.81 31.8894 243.749 31.8797L243.027 31.7654C242.966 31.7557 242.909 31.7701 242.856 31.8087C242.811 31.8485 242.783 31.8989 242.773 31.9601L241.983 36.9562C241.973 37.0173 241.984 37.0738 242.015 37.1257C242.053 37.1788 242.103 37.2101 242.164 37.2198L242.885 37.3342C242.946 37.3438 243 37.3288 243.045 37.289C243.098 37.2504 243.13 37.2006 243.139 37.1395L243.413 35.4092L242.818 35.3148Z" fill="black"/>
<path d="M250.096 33.3203L249.365 37.9383C249.206 38.9467 248.653 39.3759 247.706 39.2258L246.183 38.9845C245.236 38.8344 244.843 38.2552 245.002 37.2468L245.733 32.6289C245.893 31.6205 246.446 31.1913 247.393 31.3413L248.916 31.5827C249.863 31.7327 250.256 32.312 250.096 33.3203ZM247.733 37.8676L248.524 32.8715C248.534 32.8103 248.519 32.7532 248.481 32.7001C248.45 32.6483 248.404 32.6175 248.343 32.6078L247.621 32.4935C247.56 32.4838 247.503 32.4982 247.45 32.5368C247.405 32.5766 247.377 32.627 247.367 32.6881L246.577 37.6843C246.567 37.7454 246.578 37.8019 246.609 37.8538C246.647 37.9068 246.697 37.9382 246.758 37.9479L247.479 38.0623C247.54 38.0719 247.594 38.0569 247.639 38.0171C247.692 37.9785 247.724 37.9287 247.733 37.8676Z" fill="black"/>
<path d="M255.071 34.1087L254.34 38.7267C254.18 39.735 253.627 40.1642 252.68 40.0142L251.157 39.7728C250.211 39.6228 249.817 39.0436 249.977 38.0352L250.708 33.4172C250.867 32.4088 251.42 31.9797 252.367 32.1297L253.89 32.3711C254.837 32.5211 255.23 33.1003 255.071 34.1087ZM252.707 38.6559L253.498 33.6598C253.508 33.5987 253.494 33.5416 253.455 33.4885C253.424 33.4366 253.378 33.4058 253.317 33.3961L252.596 33.2818C252.534 33.2721 252.477 33.2866 252.424 33.3252C252.379 33.3649 252.351 33.4154 252.342 33.4765L251.551 38.4726C251.541 38.5337 251.552 38.5902 251.583 38.6421C251.621 38.6952 251.671 38.7266 251.732 38.7363L252.454 38.8506C252.515 38.8603 252.568 38.8452 252.613 38.8054C252.666 38.7669 252.698 38.717 252.707 38.6559Z" fill="black"/>
<path d="M258.846 33.274C259.793 33.424 260.186 34.0033 260.027 35.0116L259.332 39.4004C259.172 40.4088 258.619 40.838 257.673 40.688L254.73 40.2215L255.903 32.8076L258.846 33.274ZM257.7 39.3297L258.454 34.5628C258.464 34.5016 258.45 34.4445 258.411 34.3914C258.38 34.3396 258.334 34.3088 258.273 34.2991L257.334 34.1503L256.507 39.3756L257.446 39.5244C257.507 39.5341 257.56 39.519 257.606 39.4792C257.659 39.4406 257.69 39.3908 257.7 39.3297Z" fill="black"/>
<path d="M262.346 38.4097L262.532 37.2294L264.651 37.5652L264.219 40.2924C264.06 41.3008 263.506 41.73 262.56 41.58L261.117 41.3513C260.17 41.2013 259.777 40.622 259.936 39.6137L260.667 34.9957C260.827 33.9873 261.38 33.5581 262.327 33.7082L263.77 33.9368C264.716 34.0869 265.11 34.6661 264.95 35.6745L264.839 36.3735L263.316 36.1321L263.458 35.2383C263.468 35.1772 263.453 35.1201 263.415 35.067C263.384 35.0151 263.338 34.9843 263.277 34.9746L262.555 34.8603C262.494 34.8506 262.437 34.8651 262.384 34.9036C262.339 34.9434 262.311 34.9939 262.301 35.055L261.511 40.0511C261.501 40.1122 261.511 40.1687 261.542 40.2206C261.581 40.2737 261.631 40.3051 261.692 40.3148L262.413 40.4291C262.474 40.4388 262.528 40.4237 262.573 40.3839C262.626 40.3454 262.657 40.2955 262.667 40.2344L262.941 38.5041L262.346 38.4097Z" fill="black"/>
<path d="M268.444 34.6776C269.39 34.8277 269.784 35.4069 269.624 36.4153L268.672 42.4312L267.069 42.1771L267.462 39.6905L266.306 39.5072L265.912 41.9938L264.309 41.7397L265.261 35.7238C265.421 34.7154 265.974 34.2862 266.921 34.4363L268.444 34.6776ZM266.502 38.2697L267.658 38.453L268.052 35.9664C268.062 35.9053 268.047 35.8482 268.009 35.7951C267.978 35.7432 267.932 35.7124 267.871 35.7027L267.149 35.5884C267.088 35.5787 267.031 35.5932 266.978 35.6317C266.933 35.6715 266.905 35.722 266.895 35.7831L266.502 38.2697Z" fill="black"/>
<path d="M273.543 43.2032L271.94 42.9491L272.914 36.7957C272.923 36.7345 272.909 36.6774 272.87 36.6243C272.839 36.5725 272.794 36.5417 272.732 36.532L272.114 36.434C272.053 36.4243 271.996 36.4388 271.943 36.4773C271.897 36.5171 271.87 36.5676 271.86 36.6287L270.886 42.7821L269.283 42.5281L270.235 36.5121C270.395 35.5037 270.948 35.0745 271.895 35.2246L273.315 35.4496C274.261 35.5997 274.655 36.1789 274.495 37.1873L273.543 43.2032Z" fill="black"/>
<path d="M276.675 40.6808L276.862 39.5006L278.981 39.8363L278.549 42.5636C278.39 43.572 277.836 44.0011 276.89 43.8511L275.447 43.6224C274.5 43.4724 274.107 42.8932 274.266 41.8848L274.997 37.2668C275.157 36.2584 275.71 35.8293 276.657 35.9793L278.1 36.208C279.046 36.358 279.44 36.9372 279.28 37.9456L279.169 38.6446L277.646 38.4032L277.788 37.5094C277.798 37.4483 277.783 37.3912 277.745 37.3381C277.714 37.2862 277.668 37.2554 277.607 37.2458L276.885 37.1314C276.824 37.1217 276.767 37.1362 276.714 37.1748C276.669 37.2145 276.641 37.265 276.631 37.3261L275.84 42.3222C275.831 42.3833 275.841 42.4398 275.872 42.4917C275.911 42.5448 275.961 42.5762 276.022 42.5859L276.743 42.7002C276.804 42.7099 276.858 42.6948 276.903 42.6551C276.956 42.6165 276.987 42.5666 276.997 42.5055L277.271 40.7752L276.675 40.6808Z" fill="black"/>
<path d="M282.199 43.1889L283.951 43.4666L283.737 44.8188L280.381 44.287L281.555 36.8731L283.158 37.1272L282.199 43.1889Z" fill="black"/>
<path d="M288.059 37.7864C289.005 37.9364 289.399 38.5156 289.239 39.524L288.287 45.54L286.684 45.2859L287.078 42.7993L285.921 42.616L285.527 45.1026L283.924 44.8485L284.876 38.8325C285.036 37.8242 285.589 37.395 286.536 37.545L288.059 37.7864ZM286.117 41.3784L287.273 41.5617L287.667 39.0751C287.677 39.014 287.662 38.9569 287.624 38.9038C287.593 38.8519 287.547 38.8212 287.486 38.8115L286.764 38.6971C286.703 38.6875 286.646 38.7019 286.593 38.7405C286.548 38.7803 286.52 38.8307 286.51 38.8918L286.117 41.3784Z" fill="black"/>
<path d="M293.17 42.1557C293.639 42.41 293.823 42.8542 293.722 43.4883L293.512 44.8175C293.352 45.8259 292.799 46.2551 291.853 46.1051L288.91 45.6386L290.083 38.2247L292.934 38.6766C293.881 38.8266 294.275 39.4058 294.115 40.4142L294.008 41.0903C293.911 41.7015 293.632 42.0566 293.17 42.1557ZM292.361 39.7017L291.514 39.5674L291.2 41.5498L292.048 41.6841C292.109 41.6938 292.162 41.6787 292.207 41.6389C292.26 41.6003 292.292 41.5505 292.301 41.4894L292.543 39.9653C292.552 39.9042 292.538 39.8471 292.499 39.794C292.468 39.7421 292.422 39.7114 292.361 39.7017ZM291.88 44.7468L292.143 43.0852C292.152 43.0241 292.138 42.967 292.099 42.9139C292.068 42.862 292.023 42.8313 291.961 42.8216L291.022 42.6728L290.687 44.7927L291.626 44.9415C291.687 44.9512 291.74 44.9361 291.786 44.8963C291.839 44.8577 291.87 44.8079 291.88 44.7468Z" fill="black"/>
<path d="M298.771 41.5984L297.247 41.3571L297.34 40.7726C297.35 40.7115 297.335 40.6544 297.297 40.6013C297.266 40.5494 297.22 40.5187 297.159 40.509L296.529 40.4092C296.468 40.3995 296.411 40.4139 296.358 40.4525C296.312 40.4923 296.285 40.5427 296.275 40.6039L296.066 41.9216C296.057 41.9828 296.067 42.0393 296.098 42.0911C296.137 42.1442 296.187 42.1756 296.248 42.1853L297.278 42.3486C298.223 42.514 298.616 43.0932 298.459 44.0863L298.207 45.6791C298.047 46.6875 297.494 47.1166 296.547 46.9666L295.196 46.7524C294.249 46.6024 293.856 46.0232 294.016 45.0148L294.137 44.2471L295.66 44.4884L295.53 45.3135C295.52 45.3746 295.531 45.4311 295.561 45.483C295.6 45.5361 295.65 45.5675 295.711 45.5772L296.421 45.6897C296.482 45.6994 296.535 45.6843 296.581 45.6445C296.634 45.6059 296.665 45.5561 296.675 45.495L296.905 44.0397C296.915 43.9786 296.9 43.9215 296.862 43.8684C296.831 43.8165 296.785 43.7857 296.724 43.776L295.693 43.6127C294.746 43.4627 294.353 42.8834 294.513 41.8751L294.747 40.3969C294.906 39.3885 295.459 38.9593 296.406 39.1093L297.677 39.3108C298.624 39.4608 299.017 40.04 298.858 41.0484L298.771 41.5984Z" fill="black"/>
<path d="M138.204 12.6908L138.751 10.6146L129.989 9.22607L125.504 20.4479L134.663 21.8996L134.126 23.9774L142.884 25.3655L147.37 14.1436L138.204 12.6908V12.6908ZM130.677 10.4196L137.403 11.4857L136.581 14.6049L133.233 14.0743L133.504 13.0442L132.431 12.874L131.167 17.6739L133.237 18.002L133.515 16.9614L132.515 16.8029L132.959 15.1159L136.307 15.6465L134.934 20.858L127.006 19.6015L130.677 10.4196ZM142.197 24.1719L135.468 23.1054L135.856 21.6034L137.929 13.7323L145.868 14.9905L144.672 17.982L141.053 17.4086L141.325 16.3785L140.251 16.2084L138.987 21.0082L141.057 21.3364L141.335 20.2958L140.335 20.1372L140.779 18.4501L144.264 19.0024L142.197 24.1719Z" fill="black"/>
<path d="M153.242 21.118L153.428 19.9377L155.547 20.2735L155.115 23.0007C154.956 24.0091 154.402 24.4383 153.456 24.2883L152.013 24.0596C151.066 23.9095 150.673 23.3303 150.832 22.3219L151.563 17.704C151.723 16.6956 152.276 16.2664 153.223 16.4165L154.666 16.6451C155.612 16.7952 156.006 17.3744 155.846 18.3828L155.736 19.0818L154.212 18.8404L154.354 17.9466C154.364 17.8855 154.349 17.8284 154.311 17.7753C154.28 17.7234 154.234 17.6926 154.173 17.6829L153.451 17.5686C153.39 17.5589 153.333 17.5733 153.28 17.6119C153.235 17.6517 153.207 17.7022 153.197 17.7633L152.407 22.7594C152.397 22.8205 152.408 22.877 152.438 22.9289C152.477 22.982 152.527 23.0134 152.588 23.023L153.309 23.1374C153.37 23.1471 153.424 23.132 153.469 23.0922C153.522 23.0536 153.553 23.0038 153.563 22.9427L153.837 21.2124L153.242 21.118Z" fill="black"/>
<path d="M160.52 19.1236L159.789 23.7415C159.63 24.7499 159.077 25.1791 158.13 25.0291L156.607 24.7877C155.66 24.6376 155.267 24.0584 155.426 23.05L156.157 18.4321C156.317 17.4237 156.87 16.9945 157.817 17.1446L159.34 17.3859C160.286 17.536 160.68 18.1152 160.52 19.1236ZM158.157 23.6708L158.948 18.6747C158.958 18.6136 158.943 18.5565 158.905 18.5034C158.874 18.4515 158.828 18.4207 158.767 18.411L158.045 18.2967C157.984 18.287 157.927 18.3014 157.874 18.34C157.829 18.3798 157.801 18.4303 157.791 18.4914L157.001 23.4875C156.991 23.5486 157.002 23.6051 157.032 23.657C157.071 23.7101 157.121 23.7415 157.182 23.7511L157.903 23.8655C157.964 23.8752 158.018 23.8601 158.063 23.8203C158.116 23.7817 158.147 23.7319 158.157 23.6708Z" fill="black"/>
<path d="M165.495 19.9119L164.764 24.5299C164.604 25.5383 164.051 25.9674 163.104 25.8174L161.581 25.576C160.635 25.426 160.241 24.8468 160.401 23.8384L161.132 19.2204C161.291 18.212 161.844 17.7829 162.791 17.9329L164.314 18.1743C165.261 18.3243 165.654 18.9035 165.495 19.9119ZM163.131 24.4591L163.922 19.463C163.932 19.4019 163.917 19.3448 163.879 19.2917C163.848 19.2398 163.802 19.209 163.741 19.1994L163.019 19.085C162.958 19.0753 162.901 19.0898 162.848 19.1284C162.803 19.1682 162.775 19.2186 162.766 19.2797L161.975 24.2758C161.965 24.3369 161.976 24.3934 162.007 24.4453C162.045 24.4984 162.095 24.5298 162.156 24.5395L162.878 24.6538C162.939 24.6635 162.992 24.6485 163.037 24.6087C163.09 24.5701 163.122 24.5202 163.131 24.4591Z" fill="black"/>
<path d="M169.27 19.0772C170.217 19.2273 170.61 19.8065 170.451 20.8149L169.756 25.2036C169.596 26.212 169.043 26.6412 168.097 26.4912L165.154 26.0247L166.327 18.6108L169.27 19.0772ZM168.124 25.1329L168.878 20.366C168.888 20.3049 168.873 20.2478 168.835 20.1947C168.804 20.1428 168.758 20.112 168.697 20.1023L167.758 19.9535L166.931 25.1788L167.87 25.3276C167.931 25.3373 167.984 25.3222 168.03 25.2824C168.083 25.2439 168.114 25.194 168.124 25.1329Z" fill="black"/>
<path d="M172.769 24.2129L172.956 23.0327L175.075 23.3684L174.643 26.0957C174.483 27.104 173.93 27.5332 172.984 27.3832L171.541 27.1545C170.594 27.0045 170.201 26.4253 170.36 25.4169L171.091 20.7989C171.251 19.7905 171.804 19.3614 172.751 19.5114L174.193 19.7401C175.14 19.8901 175.534 20.4693 175.374 21.4777L175.263 22.1767L173.74 21.9353L173.882 21.0415C173.891 20.9804 173.877 20.9233 173.838 20.8702C173.808 20.8183 173.762 20.7875 173.7 20.7779L172.979 20.6635C172.918 20.6538 172.861 20.6683 172.808 20.7069C172.762 20.7466 172.735 20.7971 172.725 20.8582L171.934 25.8543C171.925 25.9154 171.935 25.9719 171.966 26.0238C172.005 26.0769 172.055 26.1083 172.116 26.118L172.837 26.2323C172.898 26.242 172.951 26.2269 172.997 26.1872C173.05 26.1486 173.081 26.0987 173.091 26.0376L173.365 24.3073L172.769 24.2129Z" fill="black"/>
<path d="M178.868 20.4809C179.814 20.6309 180.208 21.2101 180.048 22.2185L179.096 28.2345L177.493 27.9804L177.886 25.4938L176.73 25.3105L176.336 27.7971L174.733 27.543L175.685 21.527C175.845 20.5186 176.398 20.0895 177.345 20.2395L178.868 20.4809ZM176.926 24.0729L178.082 24.2562L178.476 21.7696C178.485 21.7085 178.471 21.6514 178.432 21.5983C178.402 21.5464 178.356 21.5156 178.294 21.5059L177.573 21.3916C177.512 21.3819 177.455 21.3964 177.402 21.435C177.356 21.4747 177.329 21.5252 177.319 21.5863L176.926 24.0729Z" fill="black"/>
<path d="M183.967 29.0064L182.364 28.7523L183.338 22.5989C183.347 22.5378 183.333 22.4807 183.294 22.4276C183.263 22.3757 183.217 22.3449 183.156 22.3352L182.538 22.2372C182.477 22.2275 182.42 22.242 182.367 22.2806C182.321 22.3203 182.294 22.3708 182.284 22.4319L181.31 28.5854L179.707 28.3313L180.659 22.3153C180.819 21.3069 181.372 20.8778 182.319 21.0278L183.738 21.2528C184.685 21.4029 185.079 21.9821 184.919 22.9905L183.967 29.0064Z" fill="black"/>
<path d="M187.099 26.4841L187.286 25.3038L189.405 25.6396L188.973 28.3668C188.813 29.3752 188.26 29.8044 187.314 29.6543L185.871 29.4256C184.924 29.2756 184.531 28.6964 184.69 27.688L185.421 23.0701C185.581 22.0617 186.134 21.6325 187.081 21.7825L188.523 22.0112C189.47 22.1612 189.864 22.7404 189.704 23.7488L189.593 24.4478L188.07 24.2064L188.212 23.3126C188.221 23.2515 188.207 23.1944 188.168 23.1413C188.138 23.0894 188.092 23.0587 188.03 23.049L187.309 22.9346C187.248 22.925 187.191 22.9394 187.138 22.978C187.092 23.0178 187.065 23.0682 187.055 23.1293L186.264 28.1254C186.255 28.1866 186.265 28.2431 186.296 28.2949C186.335 28.348 186.385 28.3794 186.446 28.3891L187.167 28.5034C187.228 28.5131 187.281 28.4981 187.327 28.4583C187.38 28.4197 187.411 28.3699 187.421 28.3087L187.695 26.5784L187.099 26.4841Z" fill="black"/>
<path d="M192.622 28.9922L194.375 29.2698L194.161 30.622L190.805 30.0902L191.979 22.6763L193.582 22.9304L192.622 28.9922Z" fill="black"/>
<path d="M198.483 23.5896C199.429 23.7397 199.823 24.3189 199.663 25.3273L198.711 31.3432L197.108 31.0891L197.501 28.6025L196.345 28.4192L195.951 30.9058L194.348 30.6517L195.3 24.6358C195.46 23.6274 196.013 23.1982 196.96 23.3482L198.483 23.5896ZM196.541 27.1817L197.697 27.365L198.091 24.8784C198.101 24.8173 198.086 24.7601 198.048 24.7071C198.017 24.6552 197.971 24.6244 197.91 24.6147L197.188 24.5004C197.127 24.4907 197.07 24.5051 197.017 24.5437C196.971 24.5835 196.944 24.6339 196.934 24.6951L196.541 27.1817Z" fill="black"/>
<path d="M203.594 27.9589C204.063 28.2132 204.247 28.6575 204.146 29.2915L203.936 30.6208C203.776 31.6291 203.223 32.0583 202.276 31.9083L199.333 31.4419L200.507 24.0279L203.358 24.4798C204.305 24.6299 204.699 25.2091 204.539 26.2175L204.432 26.8935C204.335 27.5047 204.056 27.8598 203.594 27.9589ZM202.785 25.5049L201.938 25.3706L201.624 27.353L202.471 27.4873C202.533 27.497 202.586 27.4819 202.631 27.4421C202.684 27.4036 202.716 27.3537 202.725 27.2926L202.967 25.7686C202.976 25.7074 202.962 25.6503 202.923 25.5972C202.892 25.5454 202.846 25.5146 202.785 25.5049ZM202.304 30.55L202.567 28.8885C202.576 28.8273 202.562 28.7702 202.523 28.7171C202.492 28.6653 202.446 28.6345 202.385 28.6248L201.446 28.476L201.111 30.5959L202.05 30.7447C202.111 30.7544 202.164 30.7393 202.21 30.6995C202.263 30.661 202.294 30.6111 202.304 30.55Z" fill="black"/>
<path d="M209.194 27.4017L207.671 27.1603L207.764 26.5759C207.774 26.5148 207.759 26.4577 207.721 26.4046C207.69 26.3527 207.644 26.3219 207.583 26.3122L206.953 26.2124C206.892 26.2027 206.835 26.2172 206.782 26.2557C206.736 26.2955 206.709 26.346 206.699 26.4071L206.49 27.7249C206.481 27.786 206.491 27.8425 206.522 27.8944C206.561 27.9475 206.611 27.9788 206.672 27.9885L207.702 28.1519C208.646 28.3172 209.04 28.8964 208.883 29.8895L208.631 31.4823C208.471 32.4907 207.918 32.9199 206.971 32.7698L205.62 32.5557C204.673 32.4056 204.28 31.8264 204.439 30.818L204.561 30.0503L206.084 30.2917L205.953 31.1167C205.944 31.1778 205.954 31.2343 205.985 31.2862C206.024 31.3393 206.074 31.3707 206.135 31.3804L206.845 31.4929C206.906 31.5026 206.959 31.4875 207.004 31.4477C207.058 31.4092 207.089 31.3593 207.099 31.2982L207.329 29.8429C207.339 29.7818 207.324 29.7247 207.286 29.6716C207.255 29.6197 207.209 29.5889 207.148 29.5793L206.117 29.4159C205.17 29.2659 204.777 28.6867 204.936 27.6783L205.17 26.2001C205.33 25.1917 205.883 24.7625 206.83 24.9125L208.101 25.114C209.048 25.264 209.441 25.8432 209.281 26.8516L209.194 27.4017Z" fill="black"/>
<path d="M317.356 41.0844L317.903 39.0082L309.142 37.6196L304.656 48.8415L313.815 50.2931L313.278 52.3709L322.036 53.759L326.522 42.5372L317.356 41.0844V41.0844ZM309.829 38.8132L316.555 39.8792L315.733 42.9985L312.385 42.4678L312.657 41.4377L311.583 41.2676L310.319 46.0674L312.389 46.3956L312.667 45.355L311.667 45.1965L312.111 43.5094L315.459 44.0401L314.086 49.2515L306.158 47.995L309.829 38.8132ZM321.349 52.5655L314.62 51.499L315.008 49.9969L317.081 42.1259L325.02 43.384L323.824 46.3756L320.205 45.8022L320.477 44.7721L319.403 44.602L318.139 49.4018L320.21 49.7299L320.487 48.6893L319.487 48.5308L319.931 46.8437L323.416 47.396L321.349 52.5655Z" fill="black"/>
<rect width="1342.92" height="37.1243" transform="matrix(0.970259 0.242071 -0.241773 0.970333 -796.589 -159.641)" fill="#84FB72"/>
<path d="M-52.546 46.6935L-52.1608 45.1476L-49.3859 45.8399L-50.276 49.4122C-50.6051 50.733 -51.3896 51.2387 -52.6296 50.9294L-54.5196 50.4578C-55.7595 50.1485 -56.215 49.3334 -55.8859 48.0125L-54.3787 41.9637C-54.0496 40.6428 -53.2651 40.1371 -52.0251 40.4465L-50.1351 40.918C-48.8951 41.2274 -48.4397 42.0425 -48.7688 43.3633L-48.9969 44.2789L-50.9919 43.7812L-50.7002 42.6104C-50.6802 42.5304 -50.6928 42.4528 -50.7378 42.3778C-50.7729 42.3053 -50.8304 42.2591 -50.9104 42.2391L-51.8554 42.0034C-51.9354 41.9834 -52.0128 41.996 -52.0878 42.041C-52.1528 42.0886 -52.1952 42.1524 -52.2152 42.2324L-53.8457 48.7766C-53.8657 48.8567 -53.8581 48.9329 -53.8231 49.0055C-53.7781 49.0805 -53.7155 49.1279 -53.6355 49.1479L-52.6906 49.3837C-52.6106 49.4036 -52.5381 49.3898 -52.4731 49.3423C-52.3982 49.2972 -52.3507 49.2346 -52.3308 49.1546L-51.766 46.8881L-52.546 46.6935Z" fill="black"/>
<path d="M-42.6463 44.8908L-44.1535 50.9397C-44.4826 52.2605 -45.2671 52.7662 -46.5071 52.4569L-48.5021 51.9591C-49.7421 51.6498 -50.1975 50.8347 -49.8684 49.5138L-48.3612 43.465C-48.0321 42.1441 -47.2476 41.6384 -46.0076 41.9478L-44.0126 42.4455C-42.7727 42.7549 -42.3172 43.57 -42.6463 44.8908ZM-46.3133 50.6559L-44.6827 44.1117C-44.6628 44.0317 -44.6753 43.9541 -44.7204 43.8791C-44.7554 43.8066 -44.8129 43.7604 -44.8929 43.7404L-45.8379 43.5047C-45.9179 43.4847 -45.9954 43.4973 -46.0703 43.5423C-46.1353 43.5899 -46.1777 43.6537 -46.1977 43.7337L-47.8283 50.2779C-47.8482 50.358 -47.8407 50.4343 -47.8056 50.5068C-47.7606 50.5818 -47.6981 50.6293 -47.6181 50.6492L-46.6731 50.885C-46.5931 50.9049 -46.5206 50.8911 -46.4557 50.8436C-46.3807 50.7985 -46.3332 50.7359 -46.3133 50.6559Z" fill="black"/>
<path d="M-36.1308 46.5164L-37.638 52.5652C-37.9671 53.8861 -38.7516 54.3918 -39.9916 54.0824L-41.9866 53.5847C-43.2266 53.2753 -43.682 52.4602 -43.3529 51.1394L-41.8457 45.0906C-41.5166 43.7697 -40.7321 43.264 -39.4921 43.5733L-37.4971 44.0711C-36.2572 44.3804 -35.8017 45.1955 -36.1308 46.5164ZM-39.7978 52.2815L-38.1672 45.7373C-38.1473 45.6572 -38.1598 45.5797 -38.2049 45.5047C-38.2399 45.4322 -38.2974 45.3859 -38.3774 45.366L-39.3224 45.1302C-39.4024 45.1103 -39.4799 45.1228 -39.5548 45.1679C-39.6198 45.2155 -39.6622 45.2793 -39.6822 45.3593L-41.3128 51.9035C-41.3327 51.9835 -41.3252 52.0598 -41.2901 52.1323C-41.2451 52.2073 -41.1826 52.2548 -41.1026 52.2748L-40.1576 52.5105C-40.0776 52.5305 -40.0051 52.5167 -39.9401 52.4691C-39.8652 52.4241 -39.8177 52.3615 -39.7978 52.2815Z" fill="black"/>
<path d="M-31.019 45.8467C-29.7791 46.1561 -29.3236 46.9712 -29.6527 48.292L-31.0851 54.0407C-31.4142 55.3615 -32.1987 55.8673 -33.4387 55.5579L-37.2936 54.5961L-34.874 44.8849L-31.019 45.8467ZM-33.2449 53.7569L-31.6891 47.5129C-31.6692 47.4329 -31.6817 47.3554 -31.7267 47.2804C-31.7618 47.2078 -31.8193 47.1616 -31.8993 47.1416L-33.1293 46.8348L-34.8347 53.6791L-33.6047 53.986C-33.5247 54.006 -33.4522 53.9922 -33.3872 53.9446C-33.3123 53.8995 -33.2648 53.837 -33.2449 53.7569Z" fill="black"/>
<path d="M-26.9674 53.0752L-26.5822 51.5292L-23.8072 52.2215L-24.6973 55.7938C-25.0264 57.1146 -25.811 57.6204 -27.051 57.311L-28.9409 56.8395C-30.1809 56.5301 -30.6363 55.715 -30.3072 54.3942L-28.8001 48.3453C-28.471 47.0245 -27.6864 46.5188 -26.4464 46.8281L-24.5565 47.2996C-23.3165 47.609 -22.8611 48.4241 -23.1902 49.745L-23.4183 50.6605L-25.4133 50.1628L-25.1216 48.9921C-25.1016 48.912 -25.1142 48.8345 -25.1592 48.7595C-25.1942 48.687 -25.2518 48.6407 -25.3318 48.6208L-26.2767 48.385C-26.3567 48.365 -26.4342 48.3776 -26.5092 48.4227C-26.5741 48.4702 -26.6166 48.534 -26.6365 48.6141L-28.2671 55.1583C-28.2871 55.2383 -28.2795 55.3146 -28.2445 55.3871C-28.1994 55.4621 -28.1369 55.5096 -28.0569 55.5296L-27.1119 55.7653C-27.0319 55.7853 -26.9594 55.7715 -26.8945 55.7239C-26.8195 55.6788 -26.7721 55.6163 -26.7521 55.5362L-26.1874 53.2698L-26.9674 53.0752Z" fill="black"/>
<path d="M-18.434 48.8271C-17.194 49.1365 -16.7386 49.9516 -17.0677 51.2725L-19.0311 59.1525L-21.1311 58.6285L-20.3195 55.3715L-21.8345 54.9935L-22.6461 58.2506L-24.746 57.7267L-22.7826 49.8466C-22.4535 48.5258 -21.669 48.0201 -20.429 48.3294L-18.434 48.8271ZM-21.4306 53.3725L-19.9156 53.7504L-19.1041 50.4934C-19.0841 50.4133 -19.0967 50.3358 -19.1417 50.2608C-19.1768 50.1883 -19.2343 50.142 -19.3143 50.1221L-20.2593 49.8863C-20.3393 49.8663 -20.4167 49.8789 -20.4917 49.924C-20.5567 49.9715 -20.5991 50.0353 -20.6191 50.1154L-21.4306 53.3725Z" fill="black"/>
<path d="M-12.651 60.7443L-14.7509 60.2203L-12.7426 52.1602C-12.7227 52.0802 -12.7352 52.0026 -12.7803 51.9276C-12.8153 51.8551 -12.8728 51.8089 -12.9528 51.7889L-13.7628 51.5868C-13.8428 51.5669 -13.9203 51.5794 -13.9952 51.6245C-14.0602 51.6721 -14.1027 51.7359 -14.1226 51.8159L-16.1309 59.8761L-18.2309 59.3521L-16.2674 51.4721C-15.9383 50.1513 -15.1538 49.6455 -13.9138 49.9549L-12.0539 50.4189C-10.8139 50.7283 -10.3584 51.5434 -10.6875 52.8642L-12.651 60.7443Z" fill="black"/>
<path d="M-8.19724 57.7582L-7.81203 56.2122L-5.03708 56.9045L-5.92717 60.4768C-6.25628 61.7976 -7.04082 62.3034 -8.2808 61.994L-10.1708 61.5225C-11.4107 61.2131 -11.8662 60.398 -11.5371 59.0772L-10.0299 53.0283C-9.7008 51.7075 -8.91626 51.2017 -7.67628 51.5111L-5.78631 51.9826C-4.54634 52.292 -4.0909 53.1071 -4.42001 54.4279L-4.64814 55.3435L-6.6431 54.8458L-6.35139 53.6751C-6.33145 53.595 -6.344 53.5175 -6.38904 53.4425C-6.42408 53.37 -6.48159 53.3237 -6.56159 53.3038L-7.50657 53.068C-7.58657 53.048 -7.66405 53.0606 -7.73901 53.1057C-7.80397 53.1532 -7.84642 53.217 -7.86636 53.2971L-9.49694 59.8413C-9.51689 59.9213 -9.50934 59.9976 -9.4743 60.0701C-9.42926 60.1451 -9.36674 60.1926 -9.28675 60.2125L-8.34176 60.4483C-8.26176 60.4683 -8.18929 60.4545 -8.12433 60.4069C-8.04937 60.3618 -8.00192 60.2993 -7.98197 60.2192L-7.41725 57.9528L-8.19724 57.7582Z" fill="black"/>
<path d="M-1.15241 61.7318L1.14255 62.3044L0.701242 64.0755L-3.69368 62.979L-1.27399 53.2678L0.825972 53.7918L-1.15241 61.7318Z" fill="black"/>
<path d="M7.25888 55.2373C8.49886 55.5467 8.95429 56.3618 8.62518 57.6826L6.66176 65.5626L4.5618 65.0387L5.37335 61.7816L3.85837 61.4037L3.04683 64.6607L0.946864 64.1368L2.91029 56.2568C3.23939 54.9359 4.02394 54.4302 5.26391 54.7396L7.25888 55.2373ZM4.26228 59.7826L5.77725 60.1606L6.5888 56.9035C6.60874 56.8235 6.5962 56.7459 6.55116 56.6709C6.51612 56.5984 6.4586 56.5522 6.3786 56.5322L5.43362 56.2965C5.35362 56.2765 5.27614 56.2891 5.20118 56.3341C5.13622 56.3817 5.09377 56.4455 5.07383 56.5255L4.26228 59.7826Z" fill="black"/>
<path d="M13.5408 61.6352C14.1335 62.0275 14.3263 62.6389 14.1194 63.4695L13.6856 65.2106C13.3565 66.5314 12.5719 67.0372 11.3319 66.7278L7.47702 65.766L9.8967 56.0548L13.6316 56.9867C14.8716 57.296 15.327 58.1111 14.9979 59.432L14.7773 60.3175C14.5778 61.1181 14.1657 61.5573 13.5408 61.6352ZM12.7514 58.2816L11.6414 58.0047L10.9944 60.6013L12.1044 60.8783C12.1844 60.8982 12.2568 60.8844 12.3218 60.8368C12.3968 60.7918 12.4442 60.7292 12.4642 60.6492L12.9616 58.6529C12.9815 58.5728 12.969 58.4953 12.9239 58.4203C12.8889 58.3478 12.8314 58.3016 12.7514 58.2816ZM11.5258 64.9268L12.0681 62.7504C12.088 62.6704 12.0755 62.5928 12.0304 62.5178C11.9954 62.4453 11.9379 62.3991 11.8579 62.3791L10.6279 62.0723L9.93601 64.849L11.166 65.1559C11.246 65.1759 11.3185 65.1621 11.3834 65.1145C11.4584 65.0694 11.5058 65.0069 11.5258 64.9268Z" fill="black"/>
<path d="M21.0441 61.5463L19.0492 61.0485L19.2399 60.2831C19.2599 60.203 19.2473 60.1255 19.2023 60.0505C19.1672 59.978 19.1097 59.9317 19.0297 59.9118L18.2047 59.7059C18.1247 59.686 18.0473 59.6985 17.9723 59.7436C17.9073 59.7912 17.8649 59.855 17.8449 59.935L17.4149 61.6611C17.3949 61.7412 17.4025 61.8175 17.4375 61.89C17.4825 61.965 17.5451 62.0125 17.6251 62.0324L18.975 62.3692C20.21 62.6986 20.6655 63.5137 20.3413 64.8145L19.8215 66.9009C19.4924 68.2217 18.7078 68.7274 17.4679 68.4181L15.6979 67.9765C14.4579 67.6671 14.0025 66.852 14.3316 65.5312L14.5822 64.5255L16.5771 65.0233L16.3079 66.104C16.2879 66.184 16.2955 66.2603 16.3305 66.3328C16.3755 66.4078 16.4381 66.4553 16.5181 66.4753L17.448 66.7073C17.528 66.7272 17.6005 66.7134 17.6655 66.6659C17.7404 66.6208 17.7879 66.5582 17.8078 66.4782L18.2828 64.572C18.3027 64.4919 18.2902 64.4144 18.2452 64.3394C18.2101 64.2669 18.1526 64.2206 18.0726 64.2007L16.7226 63.8639C15.4826 63.5545 15.0272 62.7394 15.3563 61.4186L15.8388 59.4823C16.1679 58.1615 16.9524 57.6558 18.1924 57.9651L19.8574 58.3805C21.0973 58.6899 21.5528 59.505 21.2237 60.8258L21.0441 61.5463Z" fill="black"/>
<path d="M45.7928 63.0247L46.7603 60.3305L35.2842 57.4674L28.0226 71.8513L40.0199 74.8445L39.0658 77.542L50.5377 80.4041L57.7994 66.0202L45.7928 63.0247V63.0247ZM36.0584 59.1326L44.869 61.3308L43.4152 65.3784L39.0296 64.2842L39.5096 62.9475L38.1036 62.5967L35.8668 68.8251L38.5789 69.5018L39.0687 68.1519L37.7586 67.825L38.5447 65.6358L42.9303 66.73L40.5016 73.4926L30.1168 70.9017L36.0584 59.1326ZM49.7636 78.7389L40.9493 76.5398L41.6389 74.5898L45.3069 64.3761L55.705 66.9703L53.769 70.8049L49.0298 69.6224L49.5098 68.2858L48.1038 67.935L45.867 74.1634L48.5791 74.84L49.0689 73.4902L47.7583 73.1632L48.5444 70.974L53.1089 72.1128L49.7636 78.7389Z" fill="black"/>
<path d="M64.7885 75.967L65.1737 74.421L67.9487 75.1133L67.0586 78.6856C66.7295 80.0064 65.945 80.5122 64.705 80.2028L62.815 79.7313C61.575 79.4219 61.1196 78.6068 61.4487 77.286L62.9559 71.2371C63.285 69.9163 64.0695 69.4105 65.3095 69.7199L67.1995 70.1914C68.4394 70.5008 68.8949 71.3159 68.5658 72.6367L68.3376 73.5523L66.3427 73.0546L66.6344 71.8839C66.6543 71.8038 66.6418 71.7263 66.5967 71.6513C66.5617 71.5788 66.5042 71.5325 66.4242 71.5126L65.4792 71.2768C65.3992 71.2568 65.3217 71.2694 65.2468 71.3145C65.1818 71.362 65.1393 71.4258 65.1194 71.5059L63.4888 78.05C63.4689 78.1301 63.4764 78.2064 63.5115 78.2789C63.5565 78.3539 63.619 78.4014 63.699 78.4213L64.644 78.6571C64.724 78.6771 64.7965 78.6633 64.8614 78.6157C64.9364 78.5706 64.9839 78.5081 65.0038 78.428L65.5685 76.1616L64.7885 75.967Z" fill="black"/>
<path d="M74.6882 74.1642L73.1811 80.2131C72.852 81.5339 72.0674 82.0397 70.8274 81.7303L68.8325 81.2326C67.5925 80.9232 67.1371 80.1081 67.4662 78.7873L68.9733 72.7384C69.3024 71.4176 70.087 70.9118 71.327 71.2212L73.3219 71.7189C74.5619 72.0283 75.0173 72.8434 74.6882 74.1642ZM71.0213 79.9293L72.6518 73.3852C72.6718 73.3051 72.6592 73.2276 72.6142 73.1526C72.5792 73.0801 72.5216 73.0338 72.4416 73.0139L71.4967 72.7781C71.4167 72.7581 71.3392 72.7707 71.2642 72.8158C71.1993 72.8633 71.1568 72.9271 71.1369 73.0072L69.5063 79.5514C69.4863 79.6314 69.4939 79.7077 69.5289 79.7802C69.574 79.8552 69.6365 79.9027 69.7165 79.9226L70.6615 80.1584C70.7415 80.1784 70.814 80.1646 70.8789 80.117C70.9539 80.0719 71.0013 80.0094 71.0213 79.9293Z" fill="black"/>
<path d="M81.2037 75.7898L79.6966 81.8387C79.3675 83.1595 78.5829 83.6652 77.3429 83.3559L75.348 82.8581C74.108 82.5488 73.6526 81.7337 73.9817 80.4128L75.4888 74.364C75.8179 73.0431 76.6025 72.5374 77.8425 72.8468L79.8374 73.3445C81.0774 73.6539 81.5328 74.469 81.2037 75.7898ZM77.5368 81.5549L79.1673 75.0107C79.1873 74.9307 79.1747 74.8531 79.1297 74.7781C79.0947 74.7056 79.0371 74.6594 78.9572 74.6394L78.0122 74.4037C77.9322 74.3837 77.8547 74.3963 77.7797 74.4413C77.7148 74.4889 77.6723 74.5527 77.6524 74.6327L76.0218 81.1769C76.0019 81.257 76.0094 81.3332 76.0444 81.4058C76.0895 81.4808 76.152 81.5283 76.232 81.5482L77.177 81.784C77.257 81.8039 77.3295 81.7901 77.3944 81.7426C77.4694 81.6975 77.5168 81.6349 77.5368 81.5549Z" fill="black"/>
<path d="M86.3155 75.1202C87.5555 75.4295 88.0109 76.2446 87.6818 77.5655L86.2495 83.3141C85.9204 84.635 85.1358 85.1407 83.8958 84.8313L80.0409 83.8696L82.4606 74.1584L86.3155 75.1202ZM84.0897 83.0304L85.6455 76.7864C85.6654 76.7063 85.6529 76.6288 85.6078 76.5538C85.5728 76.4813 85.5153 76.435 85.4353 76.4151L84.2053 76.1082L82.4999 82.9526L83.7299 83.2594C83.8099 83.2794 83.8824 83.2656 83.9473 83.218C84.0223 83.173 84.0697 83.1104 84.0897 83.0304Z" fill="black"/>
<path d="M90.3672 82.3486L90.7524 80.8026L93.5273 81.495L92.6372 85.0672C92.3081 86.3881 91.5236 86.8938 90.2836 86.5845L88.3936 86.1129C87.1537 85.8036 86.6982 84.9885 87.0273 83.6676L88.5345 77.6188C88.8636 76.2979 89.6481 75.7922 90.8881 76.1016L92.7781 76.5731C94.0181 76.8824 94.4735 77.6975 94.1444 79.0184L93.9163 79.934L91.9213 79.4362L92.213 78.2655C92.233 78.1854 92.2204 78.1079 92.1754 78.0329C92.1403 77.9604 92.0828 77.9142 92.0028 77.8942L91.0578 77.6584C90.9778 77.6385 90.9004 77.651 90.8254 77.6961C90.7604 77.7437 90.718 77.8075 90.698 77.8875L89.0675 84.4317C89.0475 84.5117 89.0551 84.588 89.0901 84.6605C89.1351 84.7355 89.1977 84.783 89.2777 84.803L90.2226 85.0388C90.3026 85.0587 90.3751 85.0449 90.4401 84.9973C90.515 84.9523 90.5625 84.8897 90.5824 84.8097L91.1471 82.5432L90.3672 82.3486Z" fill="black"/>
<path d="M98.9006 78.1006C100.141 78.4099 100.596 79.225 100.267 80.5459L98.3034 88.4259L96.2035 87.902L97.015 84.6449L95.5001 84.2669L94.6885 87.524L92.5885 87.0001L94.552 79.1201C94.8811 77.7992 95.6656 77.2935 96.9056 77.6029L98.9006 78.1006ZM95.904 82.6459L97.4189 83.0239L98.2305 79.7668C98.2504 79.6868 98.2379 79.6092 98.1928 79.5342C98.1578 79.4617 98.1003 79.4155 98.0203 79.3955L97.0753 79.1597C96.9953 79.1398 96.9178 79.1523 96.8429 79.1974C96.7779 79.245 96.7354 79.3088 96.7155 79.3888L95.904 82.6459Z" fill="black"/>
<path d="M104.684 90.0177L102.584 89.4938L104.592 81.4336C104.612 81.3536 104.599 81.2761 104.554 81.2011C104.519 81.1285 104.462 81.0823 104.382 81.0624L103.572 80.8603C103.492 80.8403 103.414 80.8529 103.339 80.8979C103.274 80.9455 103.232 81.0093 103.212 81.0894L101.204 89.1495L99.1037 88.6256L101.067 80.7455C101.396 79.4247 102.181 78.919 103.421 79.2283L105.281 79.6924C106.521 80.0017 106.976 80.8168 106.647 82.1377L104.684 90.0177Z" fill="black"/>
<path d="M109.137 87.0316L109.523 85.4856L112.297 86.178L111.407 89.7502C111.078 91.0711 110.294 91.5768 109.054 91.2675L107.164 90.7959C105.924 90.4866 105.468 89.6715 105.797 88.3506L107.305 82.3018C107.634 80.9809 108.418 80.4752 109.658 80.7845L111.548 81.2561C112.788 81.5654 113.244 82.3805 112.915 83.7014L112.686 84.617L110.691 84.1192L110.983 82.9485C111.003 82.8684 110.991 82.7909 110.946 82.7159C110.91 82.6434 110.853 82.5972 110.773 82.5772L109.828 82.3414C109.748 82.3215 109.671 82.334 109.596 82.3791C109.531 82.4267 109.488 82.4905 109.468 82.5705L107.838 89.1147C107.818 89.1947 107.825 89.271 107.86 89.3435C107.905 89.4185 107.968 89.466 108.048 89.486L108.993 89.7217C109.073 89.7417 109.145 89.7279 109.21 89.6803C109.285 89.6353 109.333 89.5727 109.353 89.4927L109.917 87.2262L109.137 87.0316Z" fill="black"/>
<path d="M116.182 91.0053L118.477 91.5778L118.036 93.349L113.641 92.2525L116.061 82.5413L118.161 83.0652L116.182 91.0053Z" fill="black"/>
<path d="M124.593 84.5107C125.833 84.8201 126.289 85.6352 125.96 86.956L123.996 94.8361L121.896 94.3121L122.708 91.0551L121.193 90.6771L120.381 93.9342L118.281 93.4102L120.245 85.5302C120.574 84.2094 121.359 83.7036 122.598 84.013L124.593 84.5107ZM121.597 89.0561L123.112 89.434L123.923 86.177C123.943 86.0969 123.931 86.0194 123.886 85.9444C123.851 85.8719 123.793 85.8256 123.713 85.8057L122.768 85.5699C122.688 85.5499 122.611 85.5625 122.536 85.6076C122.471 85.6551 122.428 85.7189 122.408 85.799L121.597 89.0561Z" fill="black"/>
<path d="M130.875 90.9086C131.468 91.301 131.661 91.9124 131.454 92.7429L131.02 94.484C130.691 95.8049 129.906 96.3106 128.667 96.0012L124.812 95.0395L127.231 85.3283L130.966 86.2601C132.206 86.5695 132.662 87.3846 132.333 88.7054L132.112 89.591C131.912 90.3915 131.5 90.8307 130.875 90.9086ZM130.086 87.555L128.976 87.2781L128.329 89.8748L129.439 90.1517C129.519 90.1717 129.591 90.1578 129.656 90.1103C129.731 90.0652 129.779 90.0027 129.799 89.9226L130.296 87.9263C130.316 87.8463 130.304 87.7688 130.258 87.6937C130.223 87.6212 130.166 87.575 130.086 87.555ZM128.86 94.2002L129.403 92.0239C129.423 91.9438 129.41 91.8663 129.365 91.7913C129.33 91.7188 129.272 91.6725 129.192 91.6526L127.962 91.3457L127.271 94.1225L128.501 94.4293C128.581 94.4493 128.653 94.4355 128.718 94.3879C128.793 94.3429 128.84 94.2803 128.86 94.2002Z" fill="black"/>
<path d="M138.379 90.8197L136.384 90.322L136.574 89.5565C136.594 89.4764 136.582 89.3989 136.537 89.3239C136.502 89.2514 136.444 89.2052 136.364 89.1852L135.539 88.9794C135.459 88.9594 135.382 88.972 135.307 89.017C135.242 89.0646 135.199 89.1284 135.18 89.2085L134.749 90.9346C134.729 91.0146 134.737 91.0909 134.772 91.1634C134.817 91.2384 134.88 91.2859 134.96 91.3059L136.31 91.6427C137.545 91.972 138 92.7871 137.676 94.088L137.156 96.1743C136.827 97.4951 136.042 98.0009 134.802 97.6915L133.032 97.2499C131.792 96.9406 131.337 96.1255 131.666 94.8046L131.917 93.799L133.912 94.2967L133.642 95.3774C133.622 95.4574 133.63 95.5337 133.665 95.6062C133.71 95.6812 133.773 95.7287 133.853 95.7487L134.783 95.9807C134.863 96.0007 134.935 95.9869 135 95.9393C135.075 95.8942 135.122 95.8317 135.142 95.7516L135.617 93.8454C135.637 93.7654 135.625 93.6878 135.58 93.6128C135.545 93.5403 135.487 93.4941 135.407 93.4741L134.057 93.1373C132.817 92.8279 132.362 92.0128 132.691 90.692L133.173 88.7558C133.502 87.4349 134.287 86.9292 135.527 87.2386L137.192 87.6539C138.432 87.9633 138.887 88.7784 138.558 90.0993L138.379 90.8197Z" fill="black"/>
<path d="M280.452 121.571L281.42 118.877L269.944 116.014L262.682 130.398L274.68 133.391L273.725 136.088L285.197 138.951L292.459 124.567L280.452 121.571V121.571ZM270.718 117.679L279.529 119.877L278.075 123.925L273.689 122.831L274.169 121.494L272.763 121.143L270.526 127.372L273.238 128.048L273.728 126.698L272.418 126.371L273.204 124.182L277.59 125.276L275.161 132.039L264.776 129.448L270.718 117.679ZM284.423 137.285L275.609 135.086L276.298 133.136L279.966 122.922L290.365 125.517L288.429 129.351L283.689 128.169L284.169 126.832L282.763 126.481L280.527 132.71L283.239 133.386L283.729 132.037L282.418 131.71L283.204 129.52L287.768 130.659L284.423 137.285Z" fill="black"/>
<path d="M299.448 134.513L299.833 132.967L302.608 133.66L301.718 137.232C301.389 138.553 300.605 139.059 299.365 138.749L297.475 138.278C296.235 137.968 295.779 137.153 296.108 135.832L297.615 129.784C297.945 128.463 298.729 127.957 299.969 128.266L301.859 128.738C303.099 129.047 303.554 129.862 303.225 131.183L302.997 132.099L301.002 131.601L301.294 130.43C301.314 130.35 301.301 130.273 301.256 130.198C301.221 130.125 301.164 130.079 301.084 130.059L300.139 129.823C300.059 129.803 299.981 129.816 299.906 129.861C299.841 129.908 299.799 129.972 299.779 130.052L298.148 136.596C298.128 136.676 298.136 136.753 298.171 136.825C298.216 136.9 298.279 136.948 298.359 136.968L299.304 137.203C299.384 137.223 299.456 137.21 299.521 137.162C299.596 137.117 299.643 137.054 299.663 136.974L300.228 134.708L299.448 134.513Z" fill="black"/>
<path d="M309.348 132.711L307.841 138.759C307.512 140.08 306.727 140.586 305.487 140.277L303.492 139.779C302.252 139.47 301.797 138.655 302.126 137.334L303.633 131.285C303.962 129.964 304.747 129.458 305.987 129.768L307.982 130.265C309.222 130.575 309.677 131.39 309.348 132.711ZM305.681 138.476L307.311 131.932C307.331 131.851 307.319 131.774 307.274 131.699C307.239 131.626 307.181 131.58 307.101 131.56L306.156 131.324C306.076 131.305 305.999 131.317 305.924 131.362C305.859 131.41 305.816 131.474 305.796 131.554L304.166 138.098C304.146 138.178 304.154 138.254 304.189 138.327C304.234 138.402 304.296 138.449 304.376 138.469L305.321 138.705C305.401 138.725 305.474 138.711 305.539 138.663C305.613 138.618 305.661 138.556 305.681 138.476Z" fill="black"/>
<path d="M315.863 134.336L314.356 140.385C314.027 141.706 313.243 142.212 312.003 141.902L310.008 141.405C308.768 141.095 308.312 140.28 308.641 138.959L310.148 132.91C310.478 131.59 311.262 131.084 312.502 131.393L314.497 131.891C315.737 132.2 316.192 133.015 315.863 134.336ZM312.196 140.101L313.827 133.557C313.847 133.477 313.834 133.4 313.789 133.325C313.754 133.252 313.697 133.206 313.617 133.186L312.672 132.95C312.592 132.93 312.514 132.943 312.439 132.988C312.374 133.035 312.332 133.099 312.312 133.179L310.681 139.723C310.661 139.803 310.669 139.88 310.704 139.952C310.749 140.027 310.812 140.075 310.892 140.095L311.837 140.33C311.917 140.35 311.989 140.337 312.054 140.289C312.129 140.244 312.176 140.181 312.196 140.101Z" fill="black"/>
<path d="M320.975 133.667C322.215 133.976 322.671 134.791 322.341 136.112L320.909 141.861C320.58 143.181 319.795 143.687 318.555 143.378L314.701 142.416L317.12 132.705L320.975 133.667ZM318.749 141.577L320.305 135.333C320.325 135.253 320.312 135.175 320.267 135.1C320.232 135.028 320.175 134.981 320.095 134.961L318.865 134.655L317.16 141.499L318.389 141.806C318.469 141.826 318.542 141.812 318.607 141.764C318.682 141.719 318.729 141.657 318.749 141.577Z" fill="black"/>
<path d="M325.027 140.895L325.412 139.349L328.187 140.041L327.297 143.614C326.968 144.934 326.183 145.44 324.943 145.131L323.053 144.659C321.813 144.35 321.358 143.535 321.687 142.214L323.194 136.165C323.523 134.844 324.308 134.339 325.548 134.648L327.438 135.119C328.678 135.429 329.133 136.244 328.804 137.565L328.576 138.48L326.581 137.983L326.873 136.812C326.893 136.732 326.88 136.654 326.835 136.579C326.8 136.507 326.742 136.461 326.662 136.441L325.717 136.205C325.637 136.185 325.56 136.197 325.485 136.242C325.42 136.29 325.378 136.354 325.358 136.434L323.727 142.978C323.707 143.058 323.715 143.134 323.75 143.207C323.795 143.282 323.857 143.329 323.937 143.349L324.882 143.585C324.962 143.605 325.035 143.591 325.1 143.544C325.175 143.499 325.222 143.436 325.242 143.356L325.807 141.09L325.027 140.895Z" fill="black"/>
<path d="M333.56 136.647C334.8 136.956 335.256 137.771 334.926 139.092L332.963 146.972L330.863 146.448L331.675 143.191L330.16 142.813L329.348 146.07L327.248 145.546L329.212 137.666C329.541 136.346 330.325 135.84 331.565 136.149L333.56 136.647ZM330.564 141.192L332.079 141.57L332.89 138.313C332.91 138.233 332.897 138.156 332.852 138.081C332.817 138.008 332.76 137.962 332.68 137.942L331.735 137.706C331.655 137.686 331.577 137.699 331.502 137.744C331.438 137.791 331.395 137.855 331.375 137.935L330.564 141.192Z" fill="black"/>
<path d="M339.343 148.564L337.243 148.04L339.252 139.98C339.271 139.9 339.259 139.822 339.214 139.747C339.179 139.675 339.121 139.629 339.041 139.609L338.231 139.407C338.151 139.387 338.074 139.399 337.999 139.444C337.934 139.492 337.892 139.556 337.872 139.636L335.863 147.696L333.763 147.172L335.727 139.292C336.056 137.971 336.84 137.465 338.08 137.775L339.94 138.239C341.18 138.548 341.636 139.363 341.307 140.684L339.343 148.564Z" fill="black"/>
<path d="M343.797 145.578L344.182 144.032L346.957 144.724L346.067 148.297C345.738 149.617 344.953 150.123 343.713 149.814L341.823 149.342C340.583 149.033 340.128 148.218 340.457 146.897L341.964 140.848C342.293 139.527 343.078 139.022 344.318 139.331L346.208 139.802C347.448 140.112 347.903 140.927 347.574 142.248L347.346 143.163L345.351 142.666L345.643 141.495C345.663 141.415 345.65 141.337 345.605 141.262C345.57 141.19 345.513 141.144 345.433 141.124L344.488 140.888C344.408 140.868 344.33 140.88 344.255 140.925C344.19 140.973 344.148 141.037 344.128 141.117L342.497 147.661C342.477 147.741 342.485 147.817 342.52 147.89C342.565 147.965 342.627 148.012 342.707 148.032L343.652 148.268C343.732 148.288 343.805 148.274 343.87 148.227C343.945 148.182 343.992 148.119 344.012 148.039L344.577 145.773L343.797 145.578Z" fill="black"/>
<path d="M350.842 149.552L353.137 150.124L352.695 151.895L348.3 150.799L350.72 141.088L352.82 141.612L350.842 149.552Z" fill="black"/>
<path d="M359.253 143.057C360.493 143.366 360.948 144.182 360.619 145.502L358.656 153.382L356.556 152.859L357.368 149.601L355.853 149.223L355.041 152.481L352.941 151.957L354.904 144.077C355.234 142.756 356.018 142.25 357.258 142.559L359.253 143.057ZM356.256 147.602L357.771 147.98L358.583 144.723C358.603 144.643 358.59 144.566 358.545 144.491C358.51 144.418 358.453 144.372 358.373 144.352L357.428 144.116C357.348 144.096 357.27 144.109 357.195 144.154C357.13 144.202 357.088 144.265 357.068 144.345L356.256 147.602Z" fill="black"/>
<path d="M365.535 149.455C366.128 149.847 366.321 150.459 366.114 151.289L365.68 153.03C365.351 154.351 364.566 154.857 363.326 154.548L359.471 153.586L361.891 143.875L365.626 144.806C366.866 145.116 367.321 145.931 366.992 147.252L366.771 148.137C366.572 148.938 366.16 149.377 365.535 149.455ZM364.746 146.101L363.636 145.824L362.989 148.421L364.099 148.698C364.179 148.718 364.251 148.704 364.316 148.657C364.391 148.612 364.438 148.549 364.458 148.469L364.956 146.473C364.976 146.393 364.963 146.315 364.918 146.24C364.883 146.168 364.826 146.121 364.746 146.101ZM363.52 152.747L364.062 150.57C364.082 150.49 364.07 150.413 364.025 150.338C363.99 150.265 363.932 150.219 363.852 150.199L362.622 149.892L361.93 152.669L363.16 152.976C363.24 152.996 363.313 152.982 363.378 152.934C363.453 152.889 363.5 152.827 363.52 152.747Z" fill="black"/>
<path d="M373.038 149.366L371.043 148.868L371.234 148.103C371.254 148.023 371.241 147.945 371.196 147.87C371.161 147.798 371.104 147.752 371.024 147.732L370.199 147.526C370.119 147.506 370.041 147.518 369.966 147.563C369.902 147.611 369.859 147.675 369.839 147.755L369.409 149.481C369.389 149.561 369.397 149.637 369.432 149.71C369.477 149.785 369.539 149.832 369.619 149.852L370.969 150.189C372.204 150.518 372.66 151.334 372.336 152.634L371.816 154.721C371.487 156.042 370.702 156.547 369.462 156.238L367.692 155.796C366.452 155.487 365.997 154.672 366.326 153.351L366.576 152.345L368.571 152.843L368.302 153.924C368.282 154.004 368.29 154.08 368.325 154.153C368.37 154.228 368.432 154.275 368.512 154.295L369.442 154.527C369.522 154.547 369.595 154.533 369.66 154.486C369.735 154.441 369.782 154.378 369.802 154.298L370.277 152.392C370.297 152.312 370.284 152.234 370.239 152.159C370.204 152.087 370.147 152.04 370.067 152.021L368.717 151.684C367.477 151.374 367.021 150.559 367.35 149.238L367.833 147.302C368.162 145.981 368.947 145.476 370.187 145.785L371.852 146.2C373.092 146.51 373.547 147.325 373.218 148.646L373.038 149.366Z" fill="black"/>
<path d="M163.124 92.2981L164.091 89.604L152.615 86.7408L145.353 101.125L157.351 104.118L156.397 106.815L167.868 109.678L175.13 95.2937L163.124 92.2981V92.2981ZM153.389 88.406L162.2 90.6042L160.746 94.6518L156.36 93.5576L156.84 92.221L155.434 91.8702L153.198 98.0986L155.91 98.7752L156.399 97.4253L155.089 97.0985L155.875 94.9093L160.261 96.0034L157.832 102.766L147.448 100.175L153.389 88.406ZM167.094 108.012L158.28 105.813L158.97 103.863L162.638 93.6495L173.036 96.2438L171.1 100.078L166.36 98.8959L166.841 97.5592L165.435 97.2084L163.198 103.437L165.91 104.113L166.4 102.764L165.089 102.437L165.875 100.247L170.44 101.386L167.094 108.012Z" fill="black"/>
<path d="M182.119 105.24L182.504 103.694L185.279 104.387L184.389 107.959C184.06 109.28 183.276 109.786 182.036 109.476L180.146 109.005C178.906 108.695 178.45 107.88 178.779 106.559L180.287 100.511C180.616 99.1897 181.4 98.684 182.64 98.9933L184.53 99.4649C185.77 99.7742 186.226 100.589 185.896 101.91L185.668 102.826L183.673 102.328L183.965 101.157C183.985 101.077 183.972 101 183.927 100.925C183.892 100.852 183.835 100.806 183.755 100.786L182.81 100.55C182.73 100.53 182.652 100.543 182.577 100.588C182.512 100.635 182.47 100.699 182.45 100.779L180.82 107.323C180.8 107.404 180.807 107.48 180.842 107.552C180.887 107.627 180.95 107.675 181.03 107.695L181.975 107.931C182.055 107.951 182.127 107.937 182.192 107.889C182.267 107.844 182.315 107.782 182.334 107.701L182.899 105.435L182.119 105.24Z" fill="black"/>
<path d="M192.019 103.438L190.512 109.487C190.183 110.807 189.398 111.313 188.158 111.004L186.163 110.506C184.923 110.197 184.468 109.382 184.797 108.061L186.304 102.012C186.633 100.691 187.418 100.185 188.658 100.495L190.653 100.992C191.893 101.302 192.348 102.117 192.019 103.438ZM188.352 109.203L189.983 102.659C190.002 102.579 189.99 102.501 189.945 102.426C189.91 102.353 189.852 102.307 189.772 102.287L188.827 102.052C188.747 102.032 188.67 102.044 188.595 102.089C188.53 102.137 188.488 102.201 188.468 102.281L186.837 108.825C186.817 108.905 186.825 108.981 186.86 109.054C186.905 109.129 186.967 109.176 187.047 109.196L187.992 109.432C188.072 109.452 188.145 109.438 188.21 109.39C188.285 109.345 188.332 109.283 188.352 109.203Z" fill="black"/>
<path d="M198.534 105.063L197.027 111.112C196.698 112.433 195.914 112.939 194.674 112.629L192.679 112.132C191.439 111.822 190.983 111.007 191.312 109.686L192.82 103.637C193.149 102.317 193.933 101.811 195.173 102.12L197.168 102.618C198.408 102.927 198.864 103.742 198.534 105.063ZM194.867 110.828L196.498 104.284C196.518 104.204 196.505 104.127 196.46 104.052C196.425 103.979 196.368 103.933 196.288 103.913L195.343 103.677C195.263 103.657 195.185 103.67 195.11 103.715C195.045 103.762 195.003 103.826 194.983 103.906L193.352 110.45C193.333 110.53 193.34 110.607 193.375 110.679C193.42 110.754 193.483 110.802 193.563 110.822L194.508 111.057C194.588 111.077 194.66 111.064 194.725 111.016C194.8 110.971 194.848 110.908 194.867 110.828Z" fill="black"/>
<path d="M203.646 104.394C204.886 104.703 205.342 105.518 205.013 106.839L203.58 112.588C203.251 113.908 202.467 114.414 201.227 114.105L197.372 113.143L199.791 103.432L203.646 104.394ZM201.42 112.304L202.976 106.06C202.996 105.98 202.984 105.902 202.939 105.827C202.903 105.755 202.846 105.708 202.766 105.689L201.536 105.382L199.831 112.226L201.061 112.533C201.141 112.553 201.213 112.539 201.278 112.491C201.353 112.446 201.4 112.384 201.42 112.304Z" fill="black"/>
<path d="M207.698 111.622L208.083 110.076L210.858 110.768L209.968 114.341C209.639 115.662 208.854 116.167 207.614 115.858L205.724 115.386C204.484 115.077 204.029 114.262 204.358 112.941L205.865 106.892C206.194 105.571 206.979 105.066 208.219 105.375L210.109 105.847C211.349 106.156 211.804 106.971 211.475 108.292L211.247 109.207L209.252 108.71L209.544 107.539C209.564 107.459 209.551 107.381 209.506 107.306C209.471 107.234 209.413 107.188 209.333 107.168L208.389 106.932C208.309 106.912 208.231 106.924 208.156 106.97C208.091 107.017 208.049 107.081 208.029 107.161L206.398 113.705C206.378 113.785 206.386 113.861 206.421 113.934C206.466 114.009 206.528 114.056 206.608 114.076L207.553 114.312C207.633 114.332 207.706 114.318 207.771 114.271C207.846 114.226 207.893 114.163 207.913 114.083L208.478 111.817L207.698 111.622Z" fill="black"/>
<path d="M216.231 107.374C217.471 107.683 217.927 108.498 217.598 109.819L215.634 117.699L213.534 117.175L214.346 113.918L212.831 113.54L212.019 116.797L209.919 116.274L211.883 108.394C212.212 107.073 212.996 106.567 214.236 106.876L216.231 107.374ZM213.235 111.919L214.75 112.297L215.561 109.04C215.581 108.96 215.569 108.883 215.524 108.808C215.488 108.735 215.431 108.689 215.351 108.669L214.406 108.433C214.326 108.413 214.249 108.426 214.174 108.471C214.109 108.518 214.066 108.582 214.046 108.662L213.235 111.919Z" fill="black"/>
<path d="M222.014 119.291L219.914 118.767L221.923 110.707C221.943 110.627 221.93 110.55 221.885 110.474C221.85 110.402 221.792 110.356 221.712 110.336L220.902 110.134C220.822 110.114 220.745 110.126 220.67 110.171C220.605 110.219 220.563 110.283 220.543 110.363L218.534 118.423L216.434 117.899L218.398 110.019C218.727 108.698 219.511 108.192 220.751 108.502L222.611 108.966C223.851 109.275 224.307 110.09 223.978 111.411L222.014 119.291Z" fill="black"/>
<path d="M226.468 116.305L226.853 114.759L229.628 115.451L228.738 119.024C228.409 120.345 227.624 120.85 226.384 120.541L224.494 120.069C223.255 119.76 222.799 118.945 223.128 117.624L224.635 111.575C224.964 110.254 225.749 109.749 226.989 110.058L228.879 110.53C230.119 110.839 230.574 111.654 230.245 112.975L230.017 113.89L228.022 113.393L228.314 112.222C228.334 112.142 228.321 112.064 228.276 111.989C228.241 111.917 228.184 111.871 228.104 111.851L227.159 111.615C227.079 111.595 227.001 111.607 226.926 111.653C226.861 111.7 226.819 111.764 226.799 111.844L225.168 118.388C225.148 118.468 225.156 118.544 225.191 118.617C225.236 118.692 225.299 118.739 225.379 118.759L226.323 118.995C226.403 119.015 226.476 119.001 226.541 118.954C226.616 118.909 226.663 118.846 226.683 118.766L227.248 116.5L226.468 116.305Z" fill="black"/>
<path d="M233.513 120.279L235.808 120.851L235.366 122.622L230.972 121.526L233.391 111.815L235.491 112.339L233.513 120.279Z" fill="black"/>
<path d="M241.924 113.784C243.164 114.094 243.62 114.909 243.29 116.229L241.327 124.109L239.227 123.586L240.039 120.329L238.524 119.951L237.712 123.208L235.612 122.684L237.576 114.804C237.905 113.483 238.689 112.977 239.929 113.286L241.924 113.784ZM238.928 118.329L240.443 118.707L241.254 115.45C241.274 115.37 241.261 115.293 241.216 115.218C241.181 115.145 241.124 115.099 241.044 115.079L240.099 114.843C240.019 114.823 239.941 114.836 239.866 114.881C239.801 114.929 239.759 114.992 239.739 115.072L238.928 118.329Z" fill="black"/>
<path d="M248.206 120.182C248.799 120.574 248.992 121.186 248.785 122.016L248.351 123.757C248.022 125.078 247.237 125.584 245.997 125.275L242.142 124.313L244.562 114.602L248.297 115.534C249.537 115.843 249.992 116.658 249.663 117.979L249.443 118.864C249.243 119.665 248.831 120.104 248.206 120.182ZM247.417 116.828L246.307 116.552L245.66 119.148L246.77 119.425C246.85 119.445 246.922 119.431 246.987 119.384C247.062 119.339 247.109 119.276 247.129 119.196L247.627 117.2C247.647 117.12 247.634 117.042 247.589 116.967C247.554 116.895 247.497 116.848 247.417 116.828ZM246.191 123.474L246.733 121.297C246.753 121.217 246.741 121.14 246.696 121.065C246.661 120.992 246.603 120.946 246.523 120.926L245.293 120.619L244.601 123.396L245.831 123.703C245.911 123.723 245.984 123.709 246.049 123.661C246.124 123.616 246.171 123.554 246.191 123.474Z" fill="black"/>
<path d="M255.709 120.093L253.714 119.595L253.905 118.83C253.925 118.75 253.913 118.672 253.868 118.597C253.832 118.525 253.775 118.479 253.695 118.459L252.87 118.253C252.79 118.233 252.713 118.245 252.638 118.29C252.573 118.338 252.53 118.402 252.51 118.482L252.08 120.208C252.06 120.288 252.068 120.364 252.103 120.437C252.148 120.512 252.21 120.559 252.29 120.579L253.64 120.916C254.875 121.245 255.331 122.061 255.007 123.361L254.487 125.448C254.158 126.769 253.373 127.274 252.133 126.965L250.363 126.523C249.123 126.214 248.668 125.399 248.997 124.078L249.247 123.072L251.242 123.57L250.973 124.651C250.953 124.731 250.961 124.807 250.996 124.88C251.041 124.955 251.103 125.002 251.183 125.022L252.113 125.254C252.193 125.274 252.266 125.26 252.331 125.213C252.406 125.168 252.453 125.105 252.473 125.025L252.948 123.119C252.968 123.039 252.955 122.961 252.91 122.886C252.875 122.814 252.818 122.768 252.738 122.748L251.388 122.411C250.148 122.101 249.692 121.286 250.022 119.965L250.504 118.029C250.833 116.708 251.618 116.203 252.858 116.512L254.523 116.927C255.763 117.237 256.218 118.052 255.889 119.373L255.709 120.093Z" fill="black"/>
<rect width="1678.59" height="46.407" transform="matrix(0.99619 -0.0872124 0.0870991 0.9962 -609.389 132.936)" fill="#6038FF"/>
<path d="M326.195 66.247L326.243 62.6688L311.515 63.9582L308.782 83.9156L324.179 82.5677L324.148 86.1444L338.871 84.8554L341.604 64.898L326.195 66.247V66.247ZM313.107 65.611L324.414 64.6211L324.342 69.997L318.714 70.4897L318.737 68.7145L316.933 68.8724L316.822 77.1446L320.303 76.8399L320.333 75.0451L318.652 75.1923L318.69 72.2847L324.319 71.792L324.198 80.7737L310.871 81.9404L313.107 65.611ZM337.279 83.2026L325.967 84.1929L325.989 81.6073L326.17 68.0421L339.515 66.8738L338.786 72.1942L332.704 72.7267L332.728 70.9514L330.923 71.1093L330.813 79.3816L334.293 79.0769L334.323 77.282L332.641 77.4292L332.68 74.5217L338.538 74.0089L337.279 83.2026Z" fill="black"/>
<path d="M25.0367 92.6122L25.0844 89.034L10.3565 90.3234L7.62383 110.281L23.0208 108.933L22.9901 112.51L37.7128 111.221L40.4455 91.2632L25.0367 92.6122V92.6122ZM11.9487 91.9763L23.256 90.9864L23.1838 96.3622L17.5555 96.855L17.5792 95.0797L15.7748 95.2377L15.6642 103.51L19.1447 103.205L19.1747 101.41L17.4933 101.557L17.5321 98.65L23.1604 98.1572L23.0402 107.139L9.7128 108.306L11.9487 91.9763ZM36.1206 109.568L24.8087 110.558L24.8306 107.973L25.012 94.4073L38.3565 93.239L37.6279 98.5594L31.5457 99.0919L31.5695 97.3166L29.7651 97.4746L29.6545 105.747L33.135 105.442L33.165 103.647L31.4829 103.794L31.5217 100.887L37.3796 100.374L36.1206 109.568Z" fill="black"/>
<path d="M52.7517 100.173L52.5783 98.1886L56.1395 97.8769L56.5404 102.461C56.6886 104.157 55.967 105.074 54.3757 105.213L51.9501 105.425C50.3588 105.565 49.489 104.787 49.3408 103.092L48.6621 95.3288C48.5139 93.6337 49.2355 92.7165 50.8268 92.5772L53.2523 92.3648C54.8437 92.2255 55.7134 93.0034 55.8616 94.6985L55.9644 95.8735L53.4041 96.0977L53.2727 94.5952C53.2638 94.4925 53.2174 94.4059 53.1337 94.3356C53.0628 94.2642 52.976 94.233 52.8733 94.242L51.6606 94.3481C51.5579 94.3571 51.4714 94.4035 51.4012 94.4873C51.3437 94.57 51.3195 94.6627 51.3285 94.7654L52.0628 103.164C52.0718 103.267 52.1117 103.354 52.1826 103.425C52.2663 103.496 52.3596 103.526 52.4622 103.517L53.675 103.411C53.7776 103.402 53.8577 103.356 53.9151 103.274C53.9854 103.19 54.016 103.096 54.007 102.994L53.7527 100.085L52.7517 100.173Z" fill="black"/>
<path d="M63.719 94.0106L64.3977 101.774C64.5459 103.469 63.8244 104.386 62.233 104.525L59.6727 104.749C58.0814 104.889 57.2116 104.111 57.0634 102.416L56.3847 94.6527C56.2365 92.9576 56.9581 92.0404 58.5494 91.9011L61.1097 91.6769C62.701 91.5376 63.5708 92.3155 63.719 94.0106ZM61.7296 102.318L60.9954 93.9191C60.9864 93.8164 60.94 93.7299 60.8563 93.6595C60.7854 93.5881 60.6986 93.5569 60.5959 93.5659L59.3832 93.6721C59.2805 93.681 59.194 93.7274 59.1238 93.8112C59.0663 93.8939 59.0421 93.9866 59.0511 94.0893L59.7854 102.488C59.7944 102.591 59.8343 102.678 59.9052 102.749C59.989 102.819 60.0822 102.85 60.1848 102.841L61.3976 102.735C61.5002 102.726 61.5803 102.68 61.6377 102.597C61.708 102.514 61.7386 102.42 61.7296 102.318Z" fill="black"/>
<path d="M72.0808 93.2786L72.7595 101.041C72.9077 102.737 72.1861 103.654 70.5948 103.793L68.0345 104.017C66.4432 104.157 65.5734 103.379 65.4252 101.684L64.7465 93.9207C64.5983 92.2256 65.3198 91.3084 66.9112 91.169L69.4714 90.9449C71.0628 90.8056 71.9326 91.5835 72.0808 93.2786ZM70.0914 101.586L69.3571 93.1871C69.3481 93.0843 69.3018 92.9978 69.218 92.9275C69.1471 92.8561 69.0604 92.8249 68.9577 92.8338L67.7449 92.94C67.6423 92.949 67.5558 92.9954 67.4855 93.0792C67.4281 93.1619 67.4039 93.2546 67.4129 93.3573L68.1472 101.756C68.1561 101.859 68.1961 101.946 68.267 102.017C68.3507 102.087 68.4439 102.118 68.5466 102.109L69.7593 102.003C69.862 101.994 69.9421 101.948 69.9995 101.865C70.0698 101.782 70.1004 101.688 70.0914 101.586Z" fill="black"/>
<path d="M77.8501 90.4055C79.4414 90.2662 80.3112 91.0441 80.4594 92.7392L81.1044 100.117C81.2526 101.812 80.5311 102.729 78.9397 102.868L73.9924 103.302L72.9028 90.8386L77.8501 90.4055ZM78.4363 100.661L77.7357 92.6477C77.7267 92.5449 77.6804 92.4584 77.5967 92.3881C77.5257 92.3167 77.439 92.2854 77.3363 92.2944L75.7578 92.4326L76.5258 101.216L78.1043 101.078C78.2069 101.069 78.287 101.023 78.3444 100.941C78.4147 100.857 78.4453 100.764 78.4363 100.661Z" fill="black"/>
<path d="M85.5784 97.2989L85.405 95.3148L88.9662 95.003L89.3671 99.5876C89.5153 101.283 88.7937 102.2 87.2024 102.339L84.7769 102.552C83.1855 102.691 82.3157 101.913 82.1675 100.218L81.4888 92.455C81.3406 90.7598 82.0622 89.8426 83.6535 89.7033L86.079 89.491C87.6704 89.3517 88.5401 90.1296 88.6884 91.8247L88.7911 92.9997L86.2308 93.2238L86.0995 91.7214C86.0905 91.6186 86.0441 91.5321 85.9604 91.4618C85.8895 91.3904 85.8027 91.3591 85.7 91.3681L84.4873 91.4743C84.3846 91.4833 84.2981 91.5297 84.2279 91.6135C84.1704 91.6961 84.1462 91.7888 84.1552 91.8916L84.8895 100.29C84.8985 100.393 84.9384 100.48 85.0093 100.551C85.0931 100.622 85.1863 100.652 85.2889 100.643L86.5017 100.537C86.6044 100.528 86.6844 100.482 86.7418 100.4C86.8121 100.316 86.8427 100.223 86.8338 100.12L86.5794 97.2112L85.5784 97.2989Z" fill="black"/>
<path d="M93.9364 88.8031C95.5277 88.6638 96.3975 89.4417 96.5457 91.1368L97.4299 101.25L94.7349 101.486L94.3694 97.3057L92.4252 97.4759L92.7906 101.656L90.0956 101.892L89.2114 91.7789C89.0632 90.0838 89.7848 89.1665 91.3761 89.0272L93.9364 88.8031ZM92.2433 95.3955L94.1875 95.2253L93.8221 91.0453C93.8131 90.9425 93.7667 90.856 93.683 90.7857C93.6121 90.7143 93.5253 90.683 93.4226 90.692L92.2099 90.7982C92.1072 90.8072 92.0207 90.8536 91.9505 90.9374C91.893 91.02 91.8688 91.1127 91.8778 91.2155L92.2433 95.3955Z" fill="black"/>
<path d="M105.618 100.533L102.923 100.769L102.019 90.4247C102.01 90.322 101.963 90.2355 101.879 90.1652C101.809 90.0937 101.722 90.0625 101.619 90.0715L100.58 90.1625C100.477 90.1715 100.39 90.2179 100.32 90.3017C100.263 90.3844 100.239 90.4771 100.248 90.5798L101.152 100.924L98.4569 101.16L97.5727 91.0469C97.4245 89.3518 98.1461 88.4345 99.7374 88.2952L102.124 88.0863C103.716 87.9469 104.586 88.7248 104.734 90.42L105.618 100.533Z" fill="black"/>
<path d="M109.667 95.19L109.494 93.2059L113.055 92.8941L113.456 97.4787C113.604 99.1738 112.883 100.091 111.291 100.23L108.866 100.443C107.274 100.582 106.405 99.8041 106.256 98.109L105.578 90.3461C105.43 88.651 106.151 87.7337 107.742 87.5944L110.168 87.3821C111.759 87.2428 112.629 88.0207 112.777 89.7158L112.88 90.8908L110.32 91.115L110.188 89.6125C110.179 89.5097 110.133 89.4232 110.049 89.3529C109.978 89.2815 109.892 89.2502 109.789 89.2592L108.576 89.3654C108.474 89.3744 108.387 89.4208 108.317 89.5046C108.259 89.5872 108.235 89.6799 108.244 89.7827L108.978 98.1812C108.987 98.284 109.027 98.371 109.098 98.4425C109.182 98.5128 109.275 98.5434 109.378 98.5345L110.591 98.4283C110.693 98.4193 110.773 98.3735 110.831 98.2908C110.901 98.207 110.932 98.1137 110.923 98.011L110.668 95.1023L109.667 95.19Z" fill="black"/>
<path d="M119.61 97.0176L122.555 96.7597L122.754 99.0327L117.113 99.5265L116.024 87.0635L118.719 86.8276L119.61 97.0176Z" fill="black"/>
<path d="M126.91 85.9164C128.501 85.7771 129.371 86.555 129.519 88.2501L130.403 98.3631L127.708 98.599L127.343 94.419L125.398 94.5892L125.764 98.7692L123.069 99.0051L122.185 88.8922C122.037 87.1971 122.758 86.2799 124.349 86.1405L126.91 85.9164ZM125.217 92.5088L127.161 92.3386L126.795 88.1586C126.786 88.0559 126.74 87.9693 126.656 87.899C126.585 87.8276 126.499 87.7964 126.396 87.8054L125.183 87.9115C125.081 87.9205 124.994 87.9669 124.924 88.0507C124.866 88.1334 124.842 88.2261 124.851 88.3288L125.217 92.5088Z" fill="black"/>
<path d="M136.936 90.9199C137.796 91.1422 138.273 91.7863 138.366 92.8522L138.561 95.0867C138.71 96.7818 137.988 97.699 136.397 97.8383L131.45 98.2715L130.36 85.8085L135.153 85.3888C136.744 85.2495 137.614 86.0274 137.762 87.7225L137.862 88.859C137.952 89.8864 137.643 90.5733 136.936 90.9199ZM134.639 87.2778L133.215 87.4025L133.506 90.7349L134.931 90.6102C135.033 90.6012 135.113 90.5554 135.171 90.4727C135.241 90.389 135.272 90.2957 135.263 90.193L135.039 87.631C135.03 87.5283 134.983 87.4418 134.9 87.3714C134.829 87.3 134.742 87.2688 134.639 87.2778ZM135.893 95.6308L135.649 92.8377C135.64 92.735 135.594 92.6485 135.51 92.5782C135.439 92.5067 135.352 92.4755 135.25 92.4845L133.671 92.6227L133.983 96.1863L135.561 96.0481C135.664 96.0391 135.744 95.9933 135.802 95.9106C135.872 95.8268 135.902 95.7336 135.893 95.6308Z" fill="black"/>
<path d="M145.768 87.7592L143.208 87.9834L143.122 87.001C143.113 86.8983 143.067 86.8117 142.983 86.7414C142.912 86.67 142.825 86.6388 142.723 86.6477L141.664 86.7404C141.561 86.7494 141.475 86.7958 141.405 86.8796C141.347 86.9623 141.323 87.055 141.332 87.1577L141.526 89.3729C141.535 89.4757 141.575 89.5627 141.645 89.6342C141.729 89.7045 141.822 89.7352 141.925 89.7262L143.658 89.5745C145.251 89.4609 146.121 90.2388 146.267 91.9082L146.501 94.5857C146.649 96.2808 145.928 97.1981 144.336 97.3374L142.065 97.5362C140.473 97.6756 139.604 96.8976 139.455 95.2025L139.343 93.9119L141.903 93.6878L142.024 95.0747C142.033 95.1774 142.073 95.2645 142.144 95.336C142.228 95.4063 142.321 95.4369 142.424 95.4279L143.617 95.3234C143.72 95.3145 143.8 95.2686 143.857 95.186C143.927 95.1022 143.958 95.0089 143.949 94.9062L143.735 92.4598C143.726 92.3571 143.68 92.2705 143.596 92.2002C143.525 92.1288 143.438 92.0976 143.336 92.1066L141.603 92.2582C140.012 92.3976 139.142 91.6197 138.994 89.9245L138.777 87.4396C138.628 85.7445 139.35 84.8273 140.941 84.688L143.078 84.5009C144.67 84.3616 145.539 85.1395 145.687 86.8346L145.768 87.7592Z" fill="black"/>
<path d="M175.615 79.4296L175.663 75.8514L160.935 77.1408L158.202 97.0982L173.599 95.7503L173.568 99.327L188.291 98.0381L191.024 78.0806L175.615 79.4296V79.4296ZM162.527 78.7936L173.834 77.8037L173.762 83.1796L168.134 83.6724L168.157 81.8971L166.353 82.055L166.242 90.3273L169.723 90.0226L169.753 88.2277L168.071 88.3749L168.11 85.4673L173.739 84.9746L173.618 93.9563L160.291 95.1231L162.527 78.7936ZM186.699 96.3852L175.387 97.3755L175.409 94.7899L175.59 81.2247L188.935 80.0564L188.206 85.3768L182.124 85.9093L182.148 84.134L180.343 84.292L180.233 92.5642L183.713 92.2595L183.743 90.4646L182.061 90.6119L182.1 87.7043L187.958 87.1915L186.699 96.3852Z" fill="black"/>
<path d="M203.33 86.9901L203.156 85.006L206.718 84.6943L207.119 89.2788C207.267 90.9739 206.545 91.8911 204.954 92.0304L202.528 92.2428C200.937 92.3821 200.067 91.6042 199.919 89.9091L199.24 82.1462C199.092 80.4511 199.814 79.5339 201.405 79.3945L203.83 79.1822C205.422 79.0429 206.292 79.8208 206.44 81.5159L206.543 82.6909L203.982 82.9151L203.851 81.4126C203.842 81.3098 203.796 81.2233 203.712 81.153C203.641 81.0816 203.554 81.0504 203.451 81.0593L202.239 81.1655C202.136 81.1745 202.05 81.2209 201.979 81.3047C201.922 81.3874 201.898 81.4801 201.907 81.5828L202.641 89.9813C202.65 90.0841 202.69 90.1712 202.761 90.2426C202.845 90.3129 202.938 90.3436 203.04 90.3346L204.253 90.2284C204.356 90.2194 204.436 90.1736 204.493 90.0909C204.564 90.0071 204.594 89.9139 204.585 89.8111L204.331 86.9025L203.33 86.9901Z" fill="black"/>
<path d="M214.297 80.828L214.976 88.5909C215.124 90.286 214.403 91.2032 212.811 91.3426L210.251 91.5667C208.66 91.706 207.79 90.9281 207.642 89.233L206.963 81.4701C206.815 79.775 207.536 78.8578 209.128 78.7185L211.688 78.4943C213.279 78.355 214.149 79.1329 214.297 80.828ZM212.308 89.1351L211.574 80.7365C211.565 80.6338 211.518 80.5472 211.434 80.4769C211.364 80.4055 211.277 80.3743 211.174 80.3833L209.961 80.4894C209.859 80.4984 209.772 80.5448 209.702 80.6286C209.644 80.7113 209.62 80.804 209.629 80.9067L210.364 89.3053C210.373 89.408 210.412 89.4951 210.483 89.5665C210.567 89.6368 210.66 89.6675 210.763 89.6585L211.976 89.5523C212.078 89.5433 212.158 89.4975 212.216 89.4148C212.286 89.331 212.317 89.2378 212.308 89.1351Z" fill="black"/>
<path d="M222.659 80.096L223.338 87.8589C223.486 89.554 222.764 90.4712 221.173 90.6105L218.613 90.8347C217.021 90.974 216.152 90.1961 216.003 88.501L215.325 80.7381C215.176 79.043 215.898 78.1257 217.489 77.9864L220.05 77.7623C221.641 77.623 222.511 78.4009 222.659 80.096ZM220.67 88.403L219.935 80.0045C219.926 79.9017 219.88 79.8152 219.796 79.7449C219.725 79.6735 219.639 79.6422 219.536 79.6512L218.323 79.7574C218.22 79.7664 218.134 79.8128 218.064 79.8966C218.006 79.9792 217.982 80.0719 217.991 80.1747L218.725 88.5732C218.734 88.676 218.774 88.763 218.845 88.8345C218.929 88.9048 219.022 88.9354 219.125 88.9265L220.338 88.8203C220.44 88.8113 220.52 88.7655 220.578 88.6828C220.648 88.599 220.679 88.5057 220.67 88.403Z" fill="black"/>
<path d="M228.428 77.2229C230.02 77.0836 230.889 77.8615 231.038 79.5566L231.683 86.9342C231.831 88.6293 231.109 89.5465 229.518 89.6859L224.571 90.119L223.481 77.656L228.428 77.2229ZM229.014 87.4783L228.314 79.465C228.305 79.3623 228.259 79.2758 228.175 79.2055C228.104 79.134 228.017 79.1028 227.914 79.1118L226.336 79.25L227.104 88.0338L228.682 87.8956C228.785 87.8866 228.865 87.8408 228.923 87.7581C228.993 87.6743 229.023 87.5811 229.014 87.4783Z" fill="black"/>
<path d="M236.157 84.1162L235.983 82.1322L239.544 81.8204L239.945 86.4049C240.093 88.1001 239.372 89.0173 237.781 89.1566L235.355 89.3689C233.764 89.5083 232.894 88.7304 232.746 87.0352L232.067 79.2724C231.919 77.5772 232.64 76.66 234.232 76.5207L236.657 76.3084C238.249 76.169 239.118 76.9469 239.267 78.6421L239.369 79.8171L236.809 80.0412L236.678 78.5387C236.669 78.436 236.622 78.3495 236.539 78.2792C236.468 78.2077 236.381 78.1765 236.278 78.1855L235.065 78.2917C234.963 78.3007 234.876 78.347 234.806 78.4308C234.749 78.5135 234.724 78.6062 234.733 78.7089L235.468 87.1075C235.477 87.2102 235.517 87.2973 235.587 87.3688C235.671 87.4391 235.764 87.4697 235.867 87.4607L237.08 87.3546C237.183 87.3456 237.263 87.2997 237.32 87.2171C237.39 87.1333 237.421 87.04 237.412 86.9373L237.158 84.0286L236.157 84.1162Z" fill="black"/>
<path d="M244.515 75.6205C246.106 75.4812 246.976 76.2591 247.124 77.9542L248.008 88.0671L245.313 88.3031L244.948 84.123L243.003 84.2933L243.369 88.4733L240.674 88.7092L239.79 78.5963C239.641 76.9011 240.363 75.9839 241.954 75.8446L244.515 75.6205ZM242.821 82.2129L244.766 82.0427L244.4 77.8627C244.391 77.7599 244.345 77.6734 244.261 77.6031C244.19 77.5317 244.103 77.5004 244.001 77.5094L242.788 77.6156C242.685 77.6246 242.599 77.671 242.529 77.7548C242.471 77.8374 242.447 77.9301 242.456 78.0329L242.821 82.2129Z" fill="black"/>
<path d="M256.196 87.3503L253.501 87.5862L252.597 77.2421C252.588 77.1394 252.541 77.0529 252.458 76.9826C252.387 76.9111 252.3 76.8799 252.197 76.8889L251.158 76.9799C251.055 76.9889 250.969 77.0353 250.898 77.1191C250.841 77.2017 250.817 77.2944 250.826 77.3972L251.73 87.7413L249.035 87.9772L248.151 77.8643C248.003 76.1691 248.724 75.2519 250.316 75.1126L252.703 74.9036C254.294 74.7643 255.164 75.5422 255.312 77.2373L256.196 87.3503Z" fill="black"/>
<path d="M260.246 82.0074L260.072 80.0233L263.633 79.7115L264.034 84.2961C264.182 85.9912 263.461 86.9084 261.869 87.0477L259.444 87.2601C257.853 87.3994 256.983 86.6215 256.835 84.9263L256.156 77.1635C256.008 75.4683 256.729 74.5511 258.321 74.4118L260.746 74.1995C262.337 74.0601 263.207 74.838 263.355 76.5332L263.458 77.7082L260.898 77.9323L260.767 76.4298C260.758 76.3271 260.711 76.2406 260.627 76.1703C260.557 76.0988 260.47 76.0676 260.367 76.0766L259.154 76.1828C259.052 76.1918 258.965 76.2382 258.895 76.3219C258.838 76.4046 258.813 76.4973 258.822 76.6001L259.557 84.9986C259.566 85.1013 259.606 85.1884 259.676 85.2599C259.76 85.3302 259.853 85.3608 259.956 85.3518L261.169 85.2457C261.271 85.2367 261.352 85.1909 261.409 85.1082C261.479 85.0244 261.51 84.9311 261.501 84.8284L261.247 81.9197L260.246 82.0074Z" fill="black"/>
<path d="M270.188 83.835L273.133 83.5771L273.332 85.8501L267.692 86.3439L266.602 73.8809L269.297 73.645L270.188 83.835Z" fill="black"/>
<path d="M277.488 72.7338C279.079 72.5945 279.949 73.3724 280.097 75.0675L280.981 85.1804L278.286 85.4164L277.921 81.2364L275.977 81.4066L276.342 85.5866L273.647 85.8225L272.763 75.7096C272.615 74.0145 273.336 73.0972 274.928 72.9579L277.488 72.7338ZM275.795 79.3262L277.739 79.156L277.374 74.976C277.365 74.8732 277.318 74.7867 277.234 74.7164C277.164 74.645 277.077 74.6137 276.974 74.6227L275.761 74.7289C275.659 74.7379 275.572 74.7843 275.502 74.8681C275.445 74.9507 275.42 75.0434 275.429 75.1462L275.795 79.3262Z" fill="black"/>
<path d="M287.515 77.7373C288.375 77.9596 288.851 78.6037 288.944 79.6696L289.14 81.9041C289.288 83.5992 288.566 84.5164 286.975 84.6557L282.028 85.0888L280.938 72.6258L285.731 72.2062C287.323 72.0669 288.192 72.8448 288.341 74.5399L288.44 75.6764C288.53 76.7038 288.221 77.3907 287.515 77.7373ZM285.218 74.0952L283.793 74.2199L284.084 77.5523L285.509 77.4276C285.612 77.4186 285.692 77.3728 285.749 77.2901C285.819 77.2063 285.85 77.1131 285.841 77.0103L285.617 74.4484C285.608 74.3457 285.562 74.2591 285.478 74.1888C285.407 74.1174 285.32 74.0862 285.218 74.0952ZM286.472 82.4482L286.227 79.6551C286.218 79.5524 286.172 79.4659 286.088 79.3955C286.017 79.3241 285.931 79.2929 285.828 79.3019L284.249 79.4401L284.561 83.0037L286.14 82.8655C286.242 82.8565 286.322 82.8107 286.38 82.728C286.45 82.6442 286.481 82.5509 286.472 82.4482Z" fill="black"/>
<path d="M296.346 74.5766L293.786 74.8008L293.7 73.8184C293.691 73.7156 293.645 73.6291 293.561 73.5588C293.49 73.4874 293.404 73.4561 293.301 73.4651L292.242 73.5578C292.139 73.5668 292.053 73.6132 291.983 73.697C291.925 73.7797 291.901 73.8724 291.91 73.9751L292.104 76.1903C292.113 76.293 292.153 76.3801 292.224 76.4516C292.307 76.5219 292.401 76.5525 292.503 76.5435L294.236 76.3919C295.829 76.2782 296.699 77.0561 296.845 78.7256L297.079 81.4031C297.227 83.0982 296.506 84.0154 294.914 84.1548L292.643 84.3536C291.052 84.4929 290.182 83.715 290.034 82.0199L289.921 80.7293L292.481 80.5052L292.602 81.8921C292.611 81.9948 292.651 82.0819 292.722 82.1533C292.806 82.2236 292.899 82.2543 293.002 82.2453L294.195 82.1408C294.298 82.1318 294.378 82.086 294.435 82.0033C294.506 81.9196 294.536 81.8263 294.527 81.7236L294.313 79.2772C294.304 79.1745 294.258 79.0879 294.174 79.0176C294.103 78.9462 294.017 78.915 293.914 78.924L292.181 79.0756C290.59 79.2149 289.72 78.437 289.572 76.7419L289.355 74.257C289.207 72.5619 289.928 71.6447 291.52 71.5054L293.656 71.3183C295.248 71.179 296.117 71.9569 296.266 73.652L296.346 74.5766Z" fill="black"/>
<rect x="0.5" y="0.5" width="319" height="154" rx="7.5" stroke="#3F3F46"/>
</g>
</svg>
