<svg width="205" height="204" viewBox="0 0 205 204" fill="none" xmlns="http://www.w3.org/2000/svg">
<path d="M119.205 0.828225L121.326 1.21933L121.108 9.83517L123.573 1.63344L125.9 2.05906L122.094 12.8605L119.365 12.3659L119.48 5.33745L117.141 11.9632L114.412 11.4686L114.619 0L116.958 0.425615L116.407 8.98394L119.205 0.828225Z" fill="white"/>
<path d="M127.752 12.2955L130.343 13.0432L129.782 14.9873L124.84 13.5609L127.959 2.69043L132.9 4.11682L132.35 6.03784L129.759 5.29013L129.025 7.84383L131.455 8.54552L130.928 10.3975L128.497 9.69583L127.752 12.2955Z" fill="white"/>
<path d="M142.703 7.64945C144.033 8.2131 144.4 9.20237 143.803 10.6173L140.249 19.072L138.002 18.1173L139.47 14.6203L137.853 13.9301L136.386 17.4271L134.138 16.4723L137.693 8.01755C138.289 6.60266 139.252 6.17705 140.582 6.7292L142.703 7.64945ZM138.587 12.2047L140.203 12.8949L141.671 9.39792C141.705 9.3174 141.705 9.22538 141.682 9.13335C141.648 9.04133 141.591 8.98381 141.51 8.9493L140.502 8.52368C140.421 8.48918 140.33 8.48918 140.249 8.52368C140.158 8.55819 140.1 8.62721 140.066 8.70774L138.587 12.2047Z" fill="white"/>
<path d="M145.975 16.8053L143.808 20.9004L141.652 19.7501L146.938 9.75391L150.767 11.79C152.04 12.4686 152.315 13.4809 151.604 14.8498L150.996 16.0116C150.561 16.8398 149.987 17.2079 149.288 17.1159C149.701 17.576 149.735 18.1282 149.391 18.7954L147.305 22.7524L145.149 21.6021L147.144 17.8176C147.247 17.6105 147.213 17.461 147.018 17.3575L145.975 16.8053ZM148.325 12.3766L146.777 15.2984L147.912 15.9081C147.993 15.9541 148.084 15.9541 148.164 15.9311C148.256 15.8966 148.325 15.8391 148.359 15.7585L149.575 13.4579C149.621 13.3774 149.632 13.2854 149.609 13.1933C149.586 13.1013 149.529 13.0323 149.449 12.9863L148.325 12.3766Z" fill="white"/>
<path d="M151.692 23.1211L153.974 24.5704L152.896 26.2844L148.551 23.5237L154.593 13.9761L158.938 16.7368L157.872 18.4163L155.59 16.9669L154.169 19.21L156.301 20.5674L155.269 22.1893L153.137 20.8319L151.692 23.1211Z" fill="white"/>
<path d="M161.987 27.5131L163.111 26.1097L165.622 28.1457L163.019 31.3781C162.056 32.5744 161.013 32.724 159.889 31.8152L158.181 30.4349C157.057 29.5261 156.977 28.4793 157.94 27.2715L162.354 21.7845C163.317 20.5882 164.36 20.4386 165.484 21.3474L167.192 22.7278C168.316 23.6365 168.396 24.6833 167.433 25.8911L166.768 26.7194L164.968 25.2585L165.828 24.2002C165.885 24.1312 165.908 24.0391 165.908 23.9471C165.897 23.8551 165.862 23.7746 165.793 23.717L164.945 23.0269C164.876 22.9693 164.785 22.9463 164.693 22.9578C164.601 22.9693 164.521 23.0153 164.464 23.0844L159.694 29.02C159.637 29.089 159.614 29.181 159.614 29.273C159.614 29.3651 159.66 29.4456 159.728 29.5031L160.588 30.1933C160.657 30.2508 160.749 30.2738 160.841 30.2623C160.932 30.2508 161.013 30.2048 161.07 30.1358L162.721 28.0767L161.987 27.5131Z" fill="white"/>
<path d="M167.97 32.8307L169.208 31.5309L171.535 33.7625L168.669 36.7648C167.614 37.8806 166.56 37.9381 165.516 36.9373L163.934 35.4189C162.891 34.4181 162.902 33.3599 163.957 32.2556L168.807 27.1597C169.862 26.0439 170.916 25.9864 171.96 26.9871L173.542 28.5055C174.585 29.5063 174.574 30.5646 173.519 31.6689L172.785 32.4396L171.111 30.8292L172.051 29.8399C172.12 29.7709 172.143 29.6904 172.155 29.5983C172.155 29.5063 172.12 29.4258 172.051 29.3568L171.26 28.5976C171.191 28.5285 171.111 28.5055 171.019 28.5055C170.928 28.5055 170.847 28.5516 170.779 28.6206L165.528 34.1306C165.459 34.1996 165.436 34.2801 165.425 34.3721C165.425 34.4642 165.459 34.5447 165.516 34.6137L166.307 35.3729C166.376 35.4419 166.456 35.4649 166.548 35.4649C166.64 35.4534 166.72 35.4189 166.789 35.3499L168.612 33.4404L167.97 32.8307Z" fill="white"/>
<path d="M173.396 42.2527L175.104 44.3118L173.522 45.6346L170.255 41.7006L178.911 34.4536L180.47 36.3286L173.396 42.2527Z" fill="white"/>
<path d="M186.032 43.3546C186.869 44.5279 186.651 45.5632 185.401 46.4604L177.949 51.7634L176.539 49.7618L179.623 47.5647L178.603 46.1268L175.519 48.3239L174.108 46.3224L181.572 41.0079C182.822 40.1222 183.865 40.2602 184.702 41.4451L186.032 43.3546ZM180.139 45.0455L181.159 46.4834L184.244 44.2863C184.324 44.2288 184.37 44.1598 184.381 44.0678C184.404 43.9758 184.381 43.8952 184.335 43.8147L183.705 42.9175C183.647 42.8369 183.579 42.8024 183.487 42.7909C183.395 42.7794 183.303 42.8024 183.235 42.8484L180.139 45.0455Z" fill="white"/>
<path d="M186.892 54.7436C187.041 55.5373 186.697 56.1699 185.86 56.6646L184.117 57.6884C182.787 58.4591 181.767 58.229 181.044 56.9752L178.786 53.0871L188.531 47.3931L190.721 51.1546C191.443 52.4084 191.145 53.4207 189.815 54.1914L188.932 54.7091C188.118 55.1692 187.442 55.1807 186.892 54.7436ZM182.65 55.6983L184.828 54.4215C184.908 54.3755 184.965 54.3064 184.988 54.2144C185.011 54.1224 185.011 54.0419 184.965 53.9613L184.243 52.719L181.457 54.3525L182.179 55.5948C182.225 55.6753 182.294 55.7213 182.386 55.7443C182.478 55.7558 182.569 55.7443 182.65 55.6983ZM188.978 51.4537L188.325 50.3379L185.722 51.8563L186.376 52.9721C186.422 53.0526 186.49 53.0986 186.582 53.1216C186.674 53.1446 186.765 53.1331 186.846 53.0871L188.852 51.9138C188.932 51.8678 188.99 51.7988 189.013 51.7067C189.036 51.6147 189.024 51.5342 188.978 51.4537Z" fill="white"/>
<path d="M192.958 62.2191L191.972 60.114L192.775 59.7344C192.855 59.6999 192.924 59.6309 192.958 59.5388C192.993 59.4468 192.993 59.3663 192.958 59.2858L192.546 58.4115C192.511 58.331 192.442 58.2735 192.351 58.239C192.259 58.216 192.167 58.216 192.087 58.2505L190.276 59.1132C190.195 59.1477 190.126 59.2167 190.092 59.3088C190.058 59.4008 190.058 59.4813 190.092 59.5618L190.757 60.9882C191.353 62.3111 190.963 63.2889 189.599 63.933L187.409 64.9683C186.022 65.624 185.024 65.3019 184.405 63.9905L183.534 62.127C182.915 60.8157 183.305 59.8379 184.692 59.1822L185.747 58.6876L186.733 60.7927L185.598 61.3333C185.518 61.3678 185.46 61.4368 185.414 61.5289C185.38 61.6209 185.38 61.7014 185.414 61.7819L185.873 62.7597C185.907 62.8402 185.976 62.8977 186.068 62.9323C186.16 62.9668 186.24 62.9553 186.332 62.9092L188.338 61.966C188.418 61.9315 188.475 61.8625 188.521 61.7704C188.556 61.6784 188.556 61.5979 188.51 61.5174L187.845 60.091C187.226 58.7796 187.616 57.8019 189.003 57.1462L191.032 56.1799C192.419 55.5242 193.417 55.8463 194.036 57.1577L194.862 58.9177C195.481 60.229 195.091 61.2068 193.704 61.8625L192.958 62.2191Z" fill="white"/>
<path d="M202.79 85.9504L203.099 88.1014L194.879 90.5976L203.42 90.3676L203.753 92.7257L192.334 92.5071L191.944 89.7579L198.628 87.6528L191.623 87.5148L191.233 84.7655L202.136 81.3491L202.469 83.7073L194.202 85.8814L202.79 85.9504Z" fill="white"/>
<path d="M194.647 97.7426L194.762 100.446L192.744 100.526L192.526 95.373L203.797 94.9014L204.014 100.055L202.031 100.135L201.916 97.4321L199.268 97.5471L199.371 100.078L197.456 100.158L197.353 97.6276L194.647 97.7426Z" fill="white"/>
<path d="M203.769 110.453C203.666 111.891 202.84 112.558 201.316 112.443L192.189 111.765L192.373 109.326L196.145 109.614L196.271 107.854L192.499 107.566L192.682 105.127L201.809 105.806C203.333 105.921 204.044 106.703 203.941 108.141L203.769 110.453ZM198.151 107.992L198.025 109.752L201.797 110.039C201.889 110.051 201.969 110.016 202.049 109.959C202.118 109.901 202.164 109.821 202.176 109.729L202.256 108.624C202.267 108.532 202.233 108.452 202.164 108.383C202.095 108.314 202.026 108.279 201.923 108.268L198.151 107.992Z" fill="white"/>
<path d="M196.182 116.491L191.631 115.743L192.02 113.328L203.153 115.157L202.454 119.447C202.224 120.874 201.353 121.46 199.828 121.219L198.544 121.012C197.627 120.862 197.099 120.437 196.95 119.735C196.652 120.276 196.136 120.483 195.403 120.368L191 119.643L191.39 117.227L195.609 117.917C195.838 117.952 195.976 117.86 196.01 117.641L196.182 116.491ZM201.112 117.308L197.868 116.767L197.661 118.044C197.65 118.136 197.673 118.216 197.73 118.297C197.787 118.366 197.868 118.412 197.959 118.435L200.516 118.861C200.608 118.872 200.688 118.861 200.768 118.803C200.848 118.746 200.894 118.677 200.906 118.585L201.112 117.308Z" fill="white"/>
<path d="M192.036 123.911L191.394 126.546L189.434 126.062L190.661 121.059L201.61 123.762L200.383 128.766L198.457 128.294L199.099 125.66L196.531 125.027L195.923 127.489L194.066 127.029L194.673 124.567L192.036 123.911Z" fill="white"/>
<path d="M191.159 135.138L192.845 135.771L191.721 138.796L187.834 137.347C186.401 136.806 185.931 135.863 186.436 134.505L187.204 132.446C187.708 131.089 188.671 130.686 190.116 131.216L196.697 133.677C198.13 134.218 198.6 135.161 198.096 136.519L197.327 138.578C196.823 139.935 195.86 140.338 194.415 139.808L193.418 139.44L194.232 137.266L195.504 137.738C195.596 137.772 195.676 137.772 195.768 137.738C195.86 137.703 195.917 137.646 195.952 137.554L196.33 136.519C196.364 136.426 196.353 136.346 196.318 136.265C196.273 136.185 196.215 136.127 196.124 136.093L189.004 133.436C188.912 133.401 188.832 133.401 188.74 133.436C188.648 133.47 188.591 133.528 188.557 133.62L188.178 134.655C188.144 134.736 188.155 134.828 188.19 134.908C188.236 134.989 188.293 135.046 188.385 135.081L190.85 136.001L191.159 135.138Z" fill="white"/>
<path d="M188.012 142.524L189.64 143.294L188.264 146.216L184.515 144.445C183.128 143.789 182.738 142.811 183.357 141.5L184.297 139.51C184.917 138.198 185.914 137.876 187.301 138.532L193.653 141.546C195.04 142.201 195.43 143.179 194.811 144.491L193.871 146.481C193.252 147.792 192.254 148.114 190.867 147.458L189.904 146.998L190.89 144.893L192.117 145.48C192.197 145.526 192.289 145.526 192.38 145.503C192.472 145.48 192.541 145.422 192.575 145.33L193.045 144.33C193.08 144.249 193.091 144.157 193.045 144.076C192.999 143.996 192.954 143.927 192.862 143.881L185.994 140.626C185.914 140.58 185.822 140.58 185.731 140.603C185.639 140.626 185.57 140.683 185.536 140.775L185.066 141.776C185.031 141.856 185.02 141.948 185.066 142.029C185.111 142.109 185.157 142.178 185.249 142.224L187.634 143.352L188.012 142.524Z" fill="white"/>
<path d="M180.828 150.655L179.429 152.932L177.675 151.851L180.358 147.491L189.943 153.45L188.659 155.532L180.828 150.655Z" fill="white"/>
<path d="M183.77 163.044C182.922 164.206 181.879 164.333 180.64 163.424L173.268 157.994L174.713 156.016L177.763 158.259L178.806 156.832L175.756 154.589L177.201 152.611L184.573 158.04C185.811 158.949 186.006 159.984 185.146 161.158L183.77 163.044ZM180.308 157.96L179.265 159.386L182.314 161.629C182.394 161.687 182.475 161.71 182.566 161.698C182.658 161.687 182.738 161.641 182.784 161.572L183.438 160.686C183.495 160.606 183.507 160.525 183.495 160.433C183.472 160.341 183.426 160.26 183.358 160.214L180.308 157.96Z" fill="white"/>
<path d="M173.286 167.428C172.587 167.819 171.876 167.693 171.153 167.06L169.64 165.714C168.494 164.702 168.39 163.644 169.342 162.562L172.3 159.192L180.761 166.669L177.895 169.936C176.943 171.017 175.889 171.052 174.742 170.039L173.974 169.361C173.274 168.739 173.045 168.095 173.286 167.428ZM171.039 163.701L172.931 165.381C172.999 165.438 173.08 165.473 173.171 165.473C173.263 165.473 173.343 165.438 173.401 165.369L174.341 164.288L171.922 162.148L170.981 163.229C170.924 163.299 170.89 163.379 170.901 163.471C170.913 163.563 170.97 163.632 171.039 163.701ZM177.058 168.383L177.906 167.417L175.648 165.415L174.799 166.381C174.742 166.45 174.708 166.531 174.719 166.623C174.731 166.715 174.765 166.795 174.834 166.853L176.576 168.383C176.645 168.44 176.725 168.475 176.817 168.475C176.92 168.486 176.989 168.452 177.058 168.383Z" fill="white"/>
<path d="M168.115 175.595L169.789 173.985L170.408 174.629C170.477 174.698 170.557 174.733 170.649 174.744C170.741 174.756 170.821 174.721 170.89 174.652L171.578 173.985C171.646 173.916 171.681 173.847 171.681 173.743C171.681 173.651 171.646 173.571 171.578 173.502L170.19 172.052C170.122 171.983 170.053 171.949 169.95 171.937C169.858 171.926 169.778 171.96 169.709 172.029L168.574 173.122C167.519 174.1 166.464 174.042 165.421 172.95L163.747 171.19C162.692 170.074 162.681 169.027 163.724 168.026L165.215 166.6C166.258 165.599 167.313 165.657 168.367 166.772L169.17 167.624L167.496 169.234L166.625 168.325C166.556 168.256 166.487 168.222 166.384 168.21C166.292 168.199 166.212 168.233 166.143 168.302L165.364 169.05C165.295 169.119 165.26 169.188 165.26 169.292C165.26 169.384 165.295 169.464 165.364 169.533L166.888 171.144C166.957 171.213 167.026 171.247 167.129 171.259C167.221 171.27 167.301 171.236 167.37 171.167L168.505 170.074C169.548 169.073 170.603 169.131 171.658 170.246L173.206 171.88C174.26 172.996 174.272 174.042 173.229 175.043L171.83 176.389C170.787 177.39 169.732 177.332 168.677 176.217L168.115 175.595Z" fill="white"/>
<path d="M148.849 192.48L146.922 193.458L141.935 186.441L144.882 194.482L142.761 195.551L139.321 184.623L141.798 183.37L145.925 189.064L143.827 182.357L146.303 181.104L153.01 190.387L150.889 191.456L146.2 184.29L148.849 192.48Z" fill="white"/>
<path d="M135.126 188.49L132.604 189.456L131.882 187.558L136.686 185.718L140.71 196.289L135.906 198.13L135.195 196.266L137.718 195.3L136.766 192.815L134.404 193.724L133.716 191.929L136.078 191.021L135.126 188.49Z" fill="white"/>
<path d="M126 201.213C124.602 201.57 123.719 200.995 123.341 199.499L121.105 190.596L123.467 189.998L124.395 193.679L126.104 193.242L125.175 189.561L127.537 188.962L129.772 197.866C130.151 199.361 129.635 200.281 128.236 200.638L126 201.213ZM126.562 195.082L124.854 195.519L125.783 199.2C125.806 199.292 125.851 199.361 125.932 199.419C126.012 199.476 126.092 199.488 126.184 199.465L127.25 199.2C127.342 199.177 127.411 199.12 127.457 199.039C127.502 198.959 127.514 198.867 127.491 198.775L126.562 195.082Z" fill="white"/>
<path d="M117.876 195.875L117.154 191.297L119.562 190.917L121.339 202.087L117.051 202.766C115.629 202.996 114.792 202.352 114.552 200.822L114.345 199.533C114.196 198.613 114.437 197.969 115.045 197.612C114.437 197.497 114.081 197.072 113.955 196.335L113.256 191.918L115.664 191.539L116.34 195.772C116.374 196.002 116.501 196.105 116.718 196.059L117.876 195.875ZM118.667 200.833L118.152 197.566L116.879 197.773C116.787 197.785 116.718 197.831 116.661 197.911C116.604 197.992 116.592 198.072 116.604 198.164L117.017 200.741C117.028 200.833 117.074 200.914 117.154 200.971C117.223 201.029 117.315 201.052 117.406 201.04L118.667 200.833Z" fill="white"/>
<path d="M109.545 194.276L106.851 194.495L106.69 192.47L111.815 192.056L112.721 203.329L107.596 203.743L107.436 201.753L110.13 201.535L109.923 198.889L107.401 199.096L107.252 197.175L109.774 196.968L109.545 194.276Z" fill="white"/>
<path d="M98.6601 196.978L98.6028 198.773L95.3811 198.669L95.5187 194.505C95.5645 192.964 96.3098 192.228 97.7544 192.274L99.9442 192.343C101.389 192.389 102.077 193.182 102.031 194.724L101.802 201.764C101.756 203.305 101.01 204.041 99.5658 203.995L97.376 203.926C95.9314 203.88 95.2435 203.086 95.2894 201.545L95.3238 200.475L97.6397 200.556L97.5939 201.925C97.5939 202.017 97.6168 202.097 97.6856 202.166C97.7429 202.235 97.8232 202.281 97.9149 202.281L99.0155 202.316C99.1072 202.316 99.1875 202.281 99.2563 202.224C99.3251 202.155 99.3595 202.074 99.3595 201.982L99.6117 194.367C99.6117 194.275 99.5888 194.195 99.52 194.114C99.4627 194.045 99.3824 194.01 99.2907 193.999L98.19 193.964C98.0983 193.964 98.0181 193.999 97.9493 194.057C97.8805 194.126 97.8461 194.206 97.8461 194.298L97.7544 196.932L98.6601 196.978Z" fill="white"/>
<path d="M90.7007 196.358L90.4943 198.141L87.2956 197.761L87.7771 193.632C87.9491 192.102 88.7631 191.423 90.1848 191.596L92.3631 191.849C93.7962 192.021 94.4154 192.861 94.2434 194.391L93.4294 201.385C93.2459 202.915 92.4434 203.593 91.0217 203.421L88.8433 203.168C87.4102 202.995 86.7911 202.155 86.9631 200.626L87.0892 199.567L89.3937 199.832L89.2332 201.189C89.2217 201.281 89.2446 201.362 89.3019 201.442C89.3593 201.523 89.4281 201.557 89.5198 201.569L90.609 201.695C90.7007 201.707 90.7809 201.684 90.8497 201.615C90.9185 201.546 90.9644 201.477 90.9758 201.385L91.8587 193.816C91.8701 193.724 91.8472 193.643 91.7899 193.563C91.7325 193.482 91.6637 193.436 91.572 193.425L90.4828 193.298C90.3911 193.287 90.3109 193.31 90.2421 193.379C90.1733 193.436 90.1274 193.517 90.116 193.609L89.8064 196.231L90.7007 196.358Z" fill="white"/>
<path d="M80.7268 192.125L78.1357 191.515L78.6058 189.502L83.5816 190.664L81.0135 201.684L78.6402 201.132L80.7268 192.125Z" fill="white"/>
<path d="M69.9576 198.856C68.5817 198.419 68.1346 197.464 68.5932 196.003L71.3792 187.261L73.7066 188.008L72.5601 191.62L74.234 192.161L75.3805 188.549L77.7079 189.297L74.9219 198.039C74.4519 199.5 73.5347 200.018 72.1588 199.581L69.9576 198.856ZM73.6608 193.956L71.9869 193.415L70.8404 197.027C70.8174 197.119 70.8174 197.199 70.8518 197.291C70.8862 197.383 70.955 197.43 71.0467 197.464L72.0901 197.798C72.1818 197.832 72.262 197.821 72.3423 197.775C72.4225 197.729 72.4799 197.66 72.5028 197.568L73.6608 193.956Z" fill="white"/>
<path d="M62.4617 190.273C61.8655 189.732 61.7623 189.019 62.1406 188.122L62.9317 186.258C63.5279 184.843 64.491 184.418 65.8209 184.97L69.9483 186.718L65.5687 197.14L61.5674 195.449C60.2374 194.886 59.8706 193.896 60.4667 192.481L60.868 191.527C61.2234 190.675 61.7508 190.261 62.4617 190.273ZM62.7598 194.161L63.9521 194.667L65.1216 191.883L63.9292 191.377C63.8489 191.343 63.7572 191.343 63.677 191.377C63.5967 191.412 63.5279 191.481 63.4935 191.561L62.5878 193.701C62.5534 193.781 62.5534 193.873 62.5763 193.965C62.6222 194.057 62.6795 194.126 62.7598 194.161ZM65.2821 186.948L64.2961 189.284C64.2617 189.364 64.2617 189.456 64.2846 189.548C64.319 189.64 64.3763 189.698 64.4566 189.732L65.7751 190.284L67.0248 187.305L65.7063 186.753C65.626 186.718 65.5343 186.718 65.454 186.753C65.3738 186.81 65.3165 186.868 65.2821 186.948Z" fill="white"/>
<path d="M53.0991 187.936L55.1513 189.029L54.7386 189.811C54.6927 189.892 54.6812 189.984 54.7042 190.076C54.7271 190.168 54.7844 190.237 54.8647 190.283L55.7131 190.731C55.7934 190.777 55.8851 190.777 55.9653 190.754C56.0571 190.72 56.1258 190.662 56.1602 190.582L57.1004 188.81C57.1462 188.73 57.1577 188.638 57.1348 188.546C57.1118 188.454 57.0545 188.385 56.9743 188.339L55.587 187.603C54.3258 186.901 54.0507 185.889 54.75 184.554L55.8851 182.403C56.6074 181.046 57.5934 180.701 58.866 181.379L60.6889 182.346C61.9616 183.024 62.2367 184.037 61.5259 185.405L60.9756 186.441L58.9233 185.348L59.508 184.232C59.5539 184.152 59.5654 184.06 59.5424 183.968C59.5195 183.876 59.4622 183.807 59.3819 183.761L58.4303 183.254C58.3501 183.208 58.2583 183.208 58.1781 183.231C58.0864 183.266 58.0176 183.323 57.9832 183.404L56.9513 185.371C56.9055 185.451 56.894 185.543 56.9169 185.636C56.9399 185.728 56.9972 185.797 57.0774 185.843L58.4647 186.579C59.7373 187.257 60.0125 188.27 59.3017 189.627L58.2469 191.617C57.5246 192.975 56.5386 193.32 55.266 192.641L53.5577 191.732C52.2851 191.053 52.0099 190.041 52.7207 188.684L53.0991 187.936Z" fill="white"/>
<path d="M31.0768 174.951L29.5405 173.421L34.5966 166.45L27.9239 171.799L26.2385 170.12L35.4794 163.391L37.4399 165.346L33.3698 171.075L39.045 166.957L41.0055 168.912L34.3558 178.23L32.6704 176.55L37.9558 169.821L31.0768 174.951Z" fill="white"/>
<path d="M30.4882 160.618L28.7685 158.525L30.3277 157.236L33.5952 161.216L24.8933 168.406L21.6257 164.426L23.162 163.16L24.8818 165.254L26.9226 163.563L25.3175 161.608L26.7965 160.388L28.4016 162.344L30.4882 160.618Z" fill="white"/>
<path d="M15.5408 155.946C14.7612 154.727 15.0134 153.703 16.3089 152.875L24.002 147.917L25.3205 149.976L22.1332 152.024L23.0848 153.508L26.2721 151.46L27.5905 153.519L19.8975 158.477C18.6019 159.305 17.5701 159.121 16.7905 157.902L15.5408 155.946ZM21.5026 154.531L20.551 153.047L17.3637 155.095C17.2835 155.141 17.2376 155.221 17.2147 155.314C17.1917 155.406 17.2032 155.486 17.2491 155.567L17.8453 156.498C17.8911 156.579 17.9714 156.625 18.0631 156.636C18.1548 156.648 18.2465 156.636 18.3153 156.59L21.5026 154.531Z" fill="white"/>
<path d="M18.0198 146.572L22.1129 144.421L23.2479 146.584L13.2618 151.841L11.244 147.987C10.579 146.71 10.923 145.71 12.2758 144.996L13.4338 144.387C14.2593 143.95 14.9357 143.973 15.4746 144.444C15.3943 143.835 15.681 143.351 16.3345 143.006L20.2899 140.924L21.425 143.087L17.6415 145.077C17.4351 145.18 17.3893 145.342 17.481 145.537L18.0198 146.572ZM13.5943 148.907L16.5065 147.378L15.9103 146.227C15.8644 146.147 15.7956 146.089 15.7039 146.066C15.6122 146.043 15.5205 146.055 15.4402 146.101L13.1357 147.309C13.0555 147.355 12.9981 147.424 12.9637 147.504C12.9294 147.596 12.9408 147.677 12.9752 147.757L13.5943 148.907Z" fill="white"/>
<path d="M16.8574 138.129L15.7911 135.633L17.6485 134.839L19.6663 139.579L9.30191 144.03L7.28406 139.291L9.107 138.509L10.1733 141.005L12.6038 139.958L11.6064 137.623L13.372 136.864L14.3695 139.199L16.8574 138.129Z" fill="white"/>
<path d="M10.8458 128.616L9.12602 129.134L8.20882 126.028L12.1872 124.843C13.6547 124.406 14.5949 124.878 15.0076 126.269L15.6382 128.386C16.0509 129.766 15.5235 130.687 14.0445 131.124L7.31455 133.125C5.84702 133.562 4.90689 133.091 4.49414 131.699L3.86357 129.582C3.45082 128.202 3.97822 127.282 5.45721 126.845L6.4776 126.546L7.14257 128.777L5.83555 129.168C5.74383 129.191 5.67504 129.249 5.62918 129.329C5.58332 129.41 5.57186 129.502 5.59479 129.582L5.90434 130.641C5.92727 130.733 5.9846 130.79 6.07632 130.836C6.15658 130.882 6.2483 130.882 6.34002 130.859L13.6203 128.685C13.712 128.662 13.7808 128.605 13.8267 128.524C13.8726 128.444 13.884 128.352 13.8611 128.271L13.5515 127.213C13.5286 127.121 13.4713 127.063 13.3796 127.017C13.2878 126.971 13.2076 126.971 13.1159 126.994L10.5936 127.742L10.8458 128.616Z" fill="white"/>
<path d="M8.9132 120.837L7.15904 121.206L6.50553 118.042L10.5642 117.203C12.0661 116.892 12.9604 117.444 13.2585 118.859L13.7056 121.022C13.9922 122.436 13.396 123.299 11.8941 123.61L5.01508 125.036C3.51316 125.347 2.61888 124.795 2.32079 123.38L1.87365 121.217C1.58703 119.802 2.18321 118.939 3.68513 118.629L4.72845 118.41L5.19852 120.688L3.86857 120.964C3.77685 120.987 3.70806 121.033 3.65074 121.102C3.59341 121.183 3.58195 121.263 3.59341 121.355L3.81125 122.436C3.83418 122.528 3.88004 122.597 3.96029 122.643C4.04055 122.69 4.13227 122.713 4.22399 122.69L11.6648 121.148C11.7565 121.125 11.8253 121.079 11.8826 121.01C11.94 120.93 11.9514 120.849 11.94 120.757L11.7221 119.676C11.6992 119.584 11.6533 119.515 11.5731 119.469C11.4928 119.423 11.4011 119.4 11.3094 119.423L8.72976 119.963L8.9132 120.837Z" fill="white"/>
<path d="M9.76774 109.992L9.52698 107.324L11.5792 107.14L12.0378 112.247L0.813539 113.271L0.595703 110.832L9.76774 109.992Z" fill="white"/>
<path d="M0.00551069 101.94C-0.0174194 100.49 0.739274 99.7541 2.27559 99.7311L11.4247 99.5815L11.4591 102.032L7.67563 102.089L7.69856 103.861L11.482 103.803L11.5164 106.253L2.36731 106.403C0.830994 106.426 0.0513709 105.713 0.0284408 104.275L0.00551069 101.94ZM5.81829 103.884L5.79536 102.124L2.0119 102.181C1.92017 102.181 1.83992 102.216 1.77113 102.285C1.70234 102.354 1.66794 102.434 1.66794 102.526L1.69087 103.631C1.69087 103.723 1.72527 103.803 1.79406 103.861C1.86285 103.918 1.9431 103.953 2.03483 103.953L5.81829 103.884Z" fill="white"/>
<path d="M5.73711 92.0589C6.05813 91.3227 6.70018 90.9891 7.66324 91.0696L9.68109 91.2192C11.2059 91.3342 11.9168 92.1164 11.8136 93.5543L11.4696 98.029L0.233887 97.1778L0.554908 92.8411C0.658094 91.4032 1.48358 90.736 3.00843 90.8511L4.02882 90.9316C4.95749 91.0006 5.53074 91.3687 5.73711 92.0589ZM2.16002 93.5773L2.06829 94.8657L5.07214 95.0957L5.16386 93.8074C5.17532 93.7153 5.14093 93.6348 5.07214 93.5658C5.00335 93.4968 4.93456 93.4623 4.83137 93.4508L2.5269 93.2667C2.43518 93.2552 2.35492 93.2897 2.27467 93.3472C2.20588 93.4048 2.17148 93.4853 2.16002 93.5773ZM9.77281 93.6693L7.2505 93.4853C7.15878 93.4738 7.07852 93.5083 6.99827 93.5658C6.92948 93.6233 6.88362 93.6923 6.88362 93.7844L6.76897 95.2223L9.97918 95.4638L10.0824 94.0374C10.0938 93.9454 10.0594 93.8649 9.99065 93.7959C9.94479 93.7153 9.86453 93.6808 9.77281 93.6693Z" fill="white"/>
<path d="M4.9651 82.4194L4.58675 84.72L3.70394 84.5819C3.61222 84.5704 3.53196 84.5819 3.45171 84.6395C3.37145 84.6855 3.32559 84.766 3.31413 84.858L3.16508 85.8128C3.15362 85.9048 3.17655 85.9853 3.23387 86.0658C3.2912 86.1349 3.37145 86.1809 3.46317 86.2039L5.44663 86.526C5.53835 86.5375 5.61861 86.526 5.69886 86.4685C5.77912 86.4224 5.82498 86.3419 5.83644 86.2499L6.08867 84.697C6.3409 83.2706 7.21225 82.6839 8.7027 82.9255L11.0989 83.3166C12.6123 83.5697 13.2543 84.3979 13.025 85.8243L12.6925 87.8603C12.4632 89.2867 11.5919 89.8734 10.0785 89.6318L8.92054 89.4478L9.29889 87.1471L10.5371 87.3542C10.6288 87.3657 10.7091 87.3542 10.7893 87.2967C10.8696 87.2507 10.9155 87.1701 10.9269 87.0781L11.0989 86.0083C11.1104 85.9163 11.0874 85.8358 11.0301 85.7553C10.9728 85.6863 10.8925 85.6402 10.8008 85.6172L8.61098 85.2491C8.51926 85.2376 8.43901 85.2491 8.35875 85.3066C8.2785 85.3642 8.23264 85.4332 8.22117 85.5252L7.96894 87.0781C7.73964 88.5045 6.8683 89.0912 5.35491 88.8496L3.13069 88.4815C1.6173 88.2284 0.975257 87.4002 1.20456 85.9738L1.51412 84.0528C1.74342 82.6264 2.61476 82.0398 4.12815 82.2813L4.9651 82.4194Z" fill="white"/>
<path d="M10.2327 57.2969L11.1957 55.3529L19.3818 57.9641L12.2161 53.3053L13.2709 51.1772L22.5576 57.8491L21.3308 60.3452L14.6238 58.2862L20.3219 62.3813L19.0951 64.8775L8.18042 61.4955L9.2352 59.3675L17.2722 62.2662L10.2327 57.2969Z" fill="white"/>
<path d="M23.6144 52.2135L25.0476 49.9129L26.7559 50.9942L24.0157 55.3653L14.4653 49.3492L17.2055 44.978L18.8908 46.0363L17.4577 48.3369L19.7049 49.7518L21.0463 47.6007L22.6743 48.6245L21.3329 50.7756L23.6144 52.2135Z" fill="white"/>
<path d="M23.2854 36.5336C24.1911 35.4063 25.2345 35.3257 26.4383 36.292L33.5581 42.0551L32.0218 43.9646L29.0753 41.5834L27.9746 42.9638L30.9211 45.345L29.3848 47.2545L22.265 41.4914C21.0726 40.5251 20.9236 39.4784 21.8293 38.3511L23.2854 36.5336ZM26.5071 41.7675L27.6077 40.3871L24.6612 38.006C24.5924 37.9484 24.5007 37.9254 24.409 37.9254C24.3173 37.9369 24.237 37.9715 24.1797 38.0405L23.4918 38.9032C23.4345 38.9722 23.4115 39.0643 23.423 39.1563C23.4345 39.2483 23.4803 39.3288 23.5491 39.3863L26.5071 41.7675Z" fill="white"/>
<path d="M32.9629 35.891L36.2877 39.1003L34.5909 40.8603L26.4736 33.0152L29.4775 29.8748C30.4749 28.828 31.5297 28.8511 32.6304 29.9093L33.5705 30.8181C34.2355 31.4623 34.4418 32.1179 34.1667 32.7736C34.717 32.4975 35.2673 32.6241 35.7947 33.1417L39.0049 36.2476L37.3081 38.0075L34.2355 35.0397C34.0635 34.8787 33.903 34.8787 33.7539 35.0397L32.9629 35.891ZM29.3514 32.417L31.7246 34.7061L32.6189 33.7744C32.6877 33.7054 32.7106 33.6248 32.7106 33.5328C32.6992 33.4408 32.6648 33.3603 32.596 33.2913L30.7272 31.4853C30.6584 31.4163 30.5781 31.3817 30.4864 31.3817C30.3947 31.3817 30.3144 31.4163 30.2456 31.4738L29.3514 32.417Z" fill="white"/>
<path d="M40.5634 32.1286L42.5813 30.3226L43.9227 31.841L40.0819 35.2689L32.5837 26.8142L36.4245 23.3862L37.743 24.8701L35.7252 26.6761L37.4908 28.6662L39.3825 26.9867L40.6551 28.4246L38.7634 30.1041L40.5634 32.1286Z" fill="white"/>
<path d="M47.6355 23.3981L46.6036 21.9257L49.2406 20.0622L51.6253 23.4672C52.5081 24.721 52.3591 25.7678 51.1782 26.6075L49.3782 27.8729C48.1973 28.7011 47.1654 28.494 46.2826 27.2287L42.2469 21.4656C41.3641 20.2118 41.5131 19.165 42.694 18.3253L44.494 17.0599C45.6749 16.2317 46.7068 16.4388 47.5896 17.7041L48.1972 18.5783L46.3055 19.9127L45.5259 18.7969C45.4686 18.7164 45.3998 18.6704 45.3081 18.6474C45.2163 18.6243 45.1361 18.6474 45.0558 18.6934L44.1616 19.326C44.0813 19.3836 44.0469 19.4526 44.024 19.5446C44.0125 19.6366 44.0354 19.7286 44.0813 19.7977L48.4495 26.0324C48.5068 26.1129 48.5756 26.1589 48.6673 26.1819C48.759 26.2049 48.8393 26.1819 48.9195 26.1359L49.8138 25.5032C49.8941 25.4457 49.9285 25.3767 49.9514 25.2847C49.9743 25.1926 49.9399 25.1006 49.8941 25.0316L48.3807 22.869L47.6355 23.3981Z" fill="white"/>
<path d="M54.3672 19.0832L53.4614 17.5303L56.2474 15.8968L58.3456 19.4858C59.1252 20.8086 58.8844 21.8439 57.6462 22.5686L55.7545 23.6844C54.5162 24.4091 53.5073 24.11 52.7277 22.7872L49.185 16.702C48.4054 15.3792 48.6461 14.3439 49.8843 13.6192L51.7761 12.5034C53.0143 11.7787 54.0232 12.0778 54.8029 13.4006L55.3417 14.3209L53.3353 15.4942L52.6474 14.3209C52.6016 14.2404 52.5328 14.1828 52.4411 14.1598C52.3493 14.1368 52.2691 14.1368 52.1888 14.1828L51.2372 14.735C51.157 14.781 51.1111 14.85 51.0882 14.9421C51.0652 15.0341 51.0767 15.1261 51.134 15.2066L54.9634 21.7864C55.0092 21.8669 55.078 21.9244 55.1697 21.9475C55.2615 21.9705 55.3417 21.9705 55.422 21.9244L56.3736 21.3723C56.4538 21.3263 56.4997 21.2573 56.5226 21.1652C56.5455 21.0732 56.5341 20.9812 56.4767 20.9007L55.1468 18.6231L54.3672 19.0832Z" fill="white"/>
<path d="M64.8904 16.4387L67.3325 15.3574L68.158 17.2554L63.4917 19.326L58.9401 8.97316L61.1757 7.98389L64.8904 16.4387Z" fill="white"/>
<path d="M69.4512 4.56616C70.8155 4.09453 71.7442 4.57766 72.2486 6.02705L75.264 14.6889L72.9595 15.4941L71.7098 11.9167L70.0474 12.5033L71.297 16.0808L68.9926 16.886L65.9773 8.22415C65.4728 6.77476 65.897 5.8085 67.2614 5.32536L69.4512 4.56616ZM69.4282 10.7203L71.0907 10.1337L69.8524 6.5562C69.8181 6.46417 69.7607 6.40666 69.6805 6.36065C69.6002 6.31463 69.5085 6.30313 69.4282 6.33764L68.3964 6.70574C68.3047 6.74025 68.2473 6.79776 68.213 6.87829C68.1786 6.97031 68.1671 7.05083 68.2015 7.14286L69.4282 10.7203Z" fill="white"/>
<path d="M80.55 6.90139C81.3526 6.98192 81.8685 7.48805 82.0978 8.41981L82.5908 10.3868C82.9692 11.8822 82.4532 12.8025 81.0545 13.1591L76.7093 14.2519L73.9576 3.27791L78.1653 2.21962C79.564 1.86303 80.4469 2.43818 80.8252 3.93359L81.0774 4.93436C81.3067 5.84311 81.1348 6.49878 80.55 6.90139ZM77.9819 3.9796L76.7322 4.29019L77.4659 7.22348L78.7156 6.9129C78.8074 6.88989 78.8761 6.83237 78.922 6.75185C78.9679 6.67133 78.9793 6.57931 78.9564 6.48728L78.3946 4.23267C78.3717 4.14065 78.3258 4.07163 78.2456 4.01411C78.1653 3.9566 78.0736 3.9566 77.9819 3.9796ZM80.2978 11.2611L79.6787 8.79941C79.6558 8.70738 79.6099 8.63836 79.5297 8.58085C79.4494 8.52333 79.3691 8.51183 79.2774 8.53484L77.8902 8.87993L78.6812 12.0203L80.0685 11.6752C80.1602 11.6522 80.229 11.5947 80.2749 11.5141C80.3093 11.4336 80.3207 11.3531 80.2978 11.2611Z" fill="white"/>
<path d="M89.4295 3.12723L87.1364 3.49533L86.9989 2.60959C86.9874 2.51756 86.9415 2.43704 86.8613 2.37953C86.781 2.32201 86.7122 2.299 86.6205 2.32201L85.6689 2.47155C85.5772 2.48305 85.5084 2.52907 85.4511 2.60959C85.3938 2.69011 85.3823 2.77063 85.3938 2.86266L85.7148 4.8527C85.7262 4.94472 85.7721 5.02524 85.8524 5.08276C85.9326 5.14027 86.0129 5.16328 86.1046 5.15178L87.6524 4.89871C89.074 4.69165 89.911 5.33583 90.1518 6.83123L90.5301 9.23538C90.7709 10.7538 90.1861 11.628 88.7645 11.8581L86.7352 12.1802C85.3135 12.4102 84.4766 11.7661 84.2358 10.2477L84.0409 9.08584L86.3339 8.71774L86.5288 9.96008C86.5403 10.0521 86.5861 10.1326 86.6664 10.1901C86.7352 10.2477 86.8269 10.2707 86.9186 10.2592L87.9849 10.0866C88.0766 10.0751 88.1454 10.0291 88.2027 9.94858C88.26 9.86805 88.2715 9.78753 88.26 9.69551L87.9161 7.49841C87.9046 7.40639 87.8587 7.32587 87.7785 7.26835C87.7097 7.21083 87.618 7.18783 87.5263 7.19933L85.9785 7.4524C84.5568 7.68246 83.7199 7.03829 83.4791 5.51988L83.1237 3.28827C82.8829 1.76986 83.4676 0.895624 84.8893 0.665561L86.804 0.354977C88.2256 0.124915 89.0626 0.76909 89.3033 2.2875L89.4295 3.12723Z" fill="white"/>
</svg>
