<svg width="690" height="156" viewBox="0 0 690 156" fill="none" xmlns="http://www.w3.org/2000/svg">
<mask id="mask0_6_1737" style="mask-type:alpha" maskUnits="userSpaceOnUse" x="0" y="0" width="690" height="156">
<rect x="0.5" y="0.5" width="689" height="155" rx="15.5" fill="#6038FF" stroke="white"/>
</mask>
<g mask="url(#mask0_6_1737)">
<rect x="166.373" y="-448.731" width="1492.61" height="41.2386" transform="rotate(93.8549 166.373 -448.731)" fill="#84FB72"/>
<path d="M113.544 3.40618L115.309 3.52516L115.096 6.69677L111.015 6.42183C109.507 6.32018 108.8 5.56073 108.896 4.14351L109.041 1.98338C109.137 0.56616 109.939 -0.0916228 111.447 0.0100353L118.356 0.475584C119.865 0.577242 120.572 1.33668 120.476 2.75391L120.331 4.91403C120.235 6.33126 119.433 6.98904 117.924 6.88738L116.879 6.81691L117.032 4.53678L118.369 4.62689C118.461 4.63305 118.543 4.60415 118.616 4.5402C118.689 4.48767 118.728 4.41569 118.734 4.32426L118.807 3.2442C118.813 3.15276 118.784 3.07045 118.72 2.99725C118.656 2.93549 118.578 2.90152 118.486 2.89536L111.011 2.39169C110.92 2.38553 110.838 2.40871 110.766 2.46124C110.692 2.52519 110.653 2.60289 110.647 2.69432L110.574 3.77438C110.568 3.86582 110.597 3.94242 110.662 4.00418C110.726 4.07738 110.803 4.11706 110.895 4.12322L113.483 4.29766L113.544 3.40618Z" fill="black"/>
<path d="M117.453 13.885L110.544 13.4195C109.035 13.3178 108.329 12.5584 108.424 11.1411L108.578 8.86101C108.673 7.44379 109.475 6.78601 110.984 6.88766L117.893 7.35321C119.402 7.45487 120.108 8.21431 120.013 9.63154L119.859 11.9117C119.764 13.3289 118.961 13.9867 117.453 13.885ZM110.431 11.0008L117.906 11.5045C117.997 11.5107 118.08 11.4818 118.153 11.4178C118.225 11.3653 118.265 11.2933 118.271 11.2019L118.344 10.1218C118.35 10.0304 118.321 9.94808 118.257 9.87488C118.192 9.81311 118.114 9.77915 118.023 9.77299L110.548 9.26932C110.457 9.26316 110.375 9.28634 110.302 9.33887C110.229 9.40282 110.189 9.48051 110.183 9.57195L110.11 10.652C110.104 10.7434 110.133 10.82 110.198 10.8818C110.262 10.955 110.34 10.9947 110.431 11.0008Z" fill="black"/>
<path d="M116.951 21.3319L110.042 20.8663C108.533 20.7647 107.827 20.0052 107.922 18.588L108.076 16.3079C108.171 14.8906 108.974 14.2329 110.482 14.3345L117.391 14.8001C118.9 14.9017 119.606 15.6612 119.511 17.0784L119.357 19.3585C119.262 20.7757 118.46 21.4335 116.951 21.3319ZM109.929 18.4477L117.404 18.9514C117.496 18.9575 117.578 18.9286 117.651 18.8647C117.724 18.8122 117.763 18.7402 117.769 18.6487L117.842 17.5687C117.848 17.4772 117.819 17.3949 117.755 17.3217C117.69 17.26 117.612 17.226 117.521 17.2198L110.046 16.7162C109.955 16.71 109.873 16.7332 109.8 16.7857C109.727 16.8497 109.687 16.9274 109.681 17.0188L109.609 18.0989C109.602 18.1903 109.632 18.2669 109.696 18.3287C109.76 18.4019 109.838 18.4415 109.929 18.4477Z" fill="black"/>
<path d="M118.684 26.7938C118.589 28.2111 117.786 28.8688 116.278 28.7672L109.712 28.3247C108.203 28.2231 107.496 27.4636 107.592 26.0464L107.889 21.6404L118.981 22.3879L118.684 26.7938ZM109.599 25.9061L116.731 26.3867C116.822 26.3928 116.905 26.3639 116.978 26.3C117.05 26.2475 117.09 26.1755 117.096 26.0841L117.191 24.6783L109.373 24.1515L109.278 25.5573C109.272 25.6487 109.301 25.7253 109.366 25.7871C109.43 25.8603 109.508 25.9 109.599 25.9061Z" fill="black"/>
<path d="M111.574 32.6411L113.339 32.7601L113.126 35.9317L109.045 35.6568C107.537 35.5551 106.83 34.7957 106.926 33.3785L107.071 31.2183C107.167 29.8011 107.969 29.1433 109.477 29.245L116.386 29.7105C117.895 29.8122 118.602 30.5716 118.506 31.9889L118.361 34.149C118.265 35.5662 117.463 36.224 115.954 36.1223L114.909 36.0519L115.062 33.7717L116.399 33.8618C116.491 33.868 116.573 33.8391 116.646 33.7751C116.719 33.7226 116.758 33.6506 116.764 33.5592L116.837 32.4791C116.843 32.3877 116.814 32.3054 116.75 32.2322C116.686 32.1704 116.608 32.1365 116.516 32.1303L109.041 31.6266C108.95 31.6205 108.868 31.6437 108.796 31.6962C108.722 31.7601 108.683 31.8378 108.677 31.9293L108.604 33.0093C108.598 33.1008 108.627 33.1774 108.692 33.2391C108.756 33.3123 108.833 33.352 108.925 33.3582L111.513 33.5326L111.574 32.6411Z" fill="black"/>
<path d="M117.889 41.1466C117.794 42.5638 116.992 43.2216 115.483 43.12L106.482 42.5135L106.644 40.1133L110.364 40.364L110.481 38.6325L106.761 38.3818L106.922 35.9817L115.923 36.5882C117.432 36.6898 118.138 37.4493 118.043 38.8665L117.889 41.1466ZM112.333 38.7573L112.216 40.4888L115.936 40.7395C116.027 40.7456 116.11 40.7167 116.183 40.6528C116.255 40.6002 116.295 40.5283 116.301 40.4368L116.374 39.3568C116.38 39.2653 116.351 39.183 116.287 39.1098C116.222 39.0481 116.144 39.0141 116.053 39.0079L112.333 38.7573Z" fill="black"/>
<path d="M105.991 49.8056L106.153 47.4055L115.359 48.0258C115.45 48.032 115.533 48.0031 115.606 47.9392C115.678 47.8866 115.718 47.8147 115.724 47.7232L115.786 46.7975C115.792 46.706 115.763 46.6237 115.699 46.5505C115.635 46.4887 115.557 46.4548 115.465 46.4486L106.259 45.8283L106.421 43.4281L115.421 44.0346C116.93 44.1363 117.636 44.8957 117.541 46.3129L117.398 48.4388C117.302 49.856 116.5 50.5138 114.992 50.4121L105.991 49.8056Z" fill="black"/>
<path d="M110.128 54.0944L111.894 54.2134L111.68 57.385L107.6 57.11C106.091 57.0084 105.385 56.2489 105.48 54.8317L105.626 52.6716C105.721 51.2544 106.523 50.5966 108.032 50.6982L114.941 51.1638C116.45 51.2654 117.156 52.0249 117.061 53.4421L116.915 55.6022C116.82 57.0194 116.017 57.6772 114.509 57.5756L113.463 57.5051L113.617 55.225L114.954 55.3151C115.045 55.3212 115.128 55.2923 115.201 55.2284C115.273 55.1759 115.313 55.1039 115.319 55.0125L115.392 53.9324C115.398 53.841 115.369 53.7586 115.305 53.6854C115.24 53.6237 115.162 53.5897 115.071 53.5836L107.596 53.0799C107.504 53.0737 107.422 53.0969 107.35 53.1494C107.277 53.2134 107.237 53.2911 107.231 53.3825L107.158 54.4626C107.152 54.554 107.181 54.6306 107.246 54.6924C107.31 54.7656 107.388 54.8052 107.479 54.8114L110.068 54.9858L110.128 54.0944Z" fill="black"/>
<path d="M107.162 62.5798L106.986 65.2028L104.963 65.0665L105.301 60.0433L116.393 60.7907L116.231 63.1909L107.162 62.5798Z" fill="black"/>
<path d="M115.91 70.5121C115.815 71.9294 115.013 72.5872 113.504 72.4855L104.504 71.879L104.665 69.4789L108.386 69.7296L108.502 67.998L104.782 67.7473L104.944 65.3472L113.944 65.9537C115.453 66.0553 116.16 66.8148 116.064 68.232L115.91 70.5121ZM110.354 68.1228L110.237 69.8543L113.957 70.105C114.049 70.1112 114.131 70.0823 114.204 70.0183C114.277 69.9658 114.316 69.8938 114.322 69.8024L114.395 68.7223C114.401 68.6309 114.372 68.5486 114.308 68.4754C114.244 68.4136 114.165 68.3796 114.074 68.3735L110.354 68.1228Z" fill="black"/>
<path d="M110.145 78.6372C109.832 79.3624 109.201 79.693 108.252 79.6291L106.264 79.4951C104.755 79.3934 104.048 78.634 104.144 77.2168L104.441 72.8108L115.533 73.5582L115.245 77.827C115.15 79.2443 114.348 79.902 112.839 79.8004L111.828 79.7322C110.913 79.6706 110.352 79.3056 110.145 78.6372ZM113.657 77.1173L113.743 75.8486L110.777 75.6488L110.691 76.9174C110.685 77.0088 110.714 77.0854 110.779 77.1472C110.843 77.2204 110.921 77.2601 111.012 77.2662L113.292 77.4199C113.384 77.4261 113.466 77.3972 113.539 77.3332C113.612 77.2807 113.651 77.2087 113.657 77.1173ZM106.151 77.0765L108.637 77.244C108.728 77.2501 108.811 77.2212 108.884 77.1573C108.956 77.1048 108.996 77.0328 109.002 76.9414L109.097 75.5356L105.925 75.3218L105.83 76.7276C105.824 76.8191 105.853 76.8957 105.918 76.9574C105.982 77.0306 106.06 77.0703 106.151 77.0765Z" fill="black"/>
<path d="M111.711 86.8294L111.865 84.5493L112.739 84.6082C112.83 84.6143 112.913 84.5854 112.986 84.5215C113.058 84.469 113.098 84.397 113.104 84.3056L113.167 83.3626C113.173 83.2712 113.145 83.1889 113.081 83.1157C113.016 83.0539 112.938 83.02 112.846 83.0138L110.875 82.881C110.783 82.8748 110.701 82.898 110.629 82.9505C110.556 83.0145 110.516 83.0922 110.51 83.1836L110.406 84.7265C110.288 86.1422 109.486 86.8 108 86.6999L105.617 86.5393C104.108 86.4377 103.402 85.6782 103.497 84.261L103.633 82.238C103.729 80.8208 104.531 80.163 106.04 80.2647L107.188 80.3421L107.035 82.6222L105.8 82.539C105.709 82.5329 105.627 82.556 105.554 82.6086C105.481 82.6725 105.442 82.7502 105.435 82.8416L105.364 83.9046C105.358 83.996 105.387 84.0726 105.452 84.1344C105.516 84.2076 105.593 84.2472 105.685 84.2534L107.862 84.4001C107.953 84.4063 108.036 84.3774 108.109 84.3134C108.181 84.2609 108.221 84.1889 108.227 84.0975L108.331 82.5545C108.426 81.1373 109.228 80.4795 110.737 80.5812L112.949 80.7302C114.457 80.8319 115.164 81.5913 115.068 83.0085L114.94 84.9115C114.845 86.3287 114.043 86.9865 112.534 86.8848L111.711 86.8294Z" fill="black"/>
<path d="M114.939 114.195L118.075 114.727L118.958 101.61L101.809 96.4795L100.885 110.192L97.7489 109.676L96.8654 122.787L114.015 127.918L114.939 114.195V114.195ZM117.289 102.783L116.611 112.853L111.9 112.055L112.238 107.042L113.794 107.306L113.902 105.699L106.654 104.47L106.445 107.57L108.017 107.842L108.118 106.344L110.665 106.776L110.327 111.788L102.458 110.454L103.257 98.5851L117.289 102.783ZM98.5346 121.615L99.2135 111.54L101.481 111.913L113.367 113.928L112.566 125.813L107.994 124.445L108.359 119.028L109.915 119.292L110.023 117.685L102.775 116.456L102.566 119.556L104.138 119.828L104.239 118.33L106.786 118.761L106.435 123.978L98.5346 121.615Z" fill="black"/>
<path d="M104.507 137.512L106.273 137.631L106.059 140.802L101.979 140.528C100.471 140.426 99.764 139.666 99.8595 138.249L100.005 136.089C100.101 134.672 100.903 134.014 102.411 134.116L109.32 134.581C110.829 134.683 111.536 135.442 111.44 136.86L111.294 139.02C111.199 140.437 110.397 141.095 108.888 140.993L107.842 140.923L107.996 138.642L109.333 138.733C109.425 138.739 109.507 138.71 109.58 138.646C109.653 138.593 109.692 138.521 109.698 138.43L109.771 137.35C109.777 137.258 109.748 137.176 109.684 137.103C109.619 137.041 109.541 137.007 109.45 137.001L101.975 136.497C101.884 136.491 101.802 136.514 101.729 136.567C101.656 136.631 101.617 136.709 101.61 136.8L101.538 137.88C101.531 137.972 101.561 138.048 101.625 138.11C101.689 138.183 101.767 138.223 101.859 138.229L104.447 138.403L104.507 137.512Z" fill="black"/>
<path d="M108.417 147.991L101.508 147.525C99.9991 147.424 99.2925 146.664 99.388 145.247L99.5416 142.967C99.6371 141.549 100.439 140.892 101.948 140.993L108.857 141.459C110.365 141.561 111.072 142.32 110.977 143.737L110.823 146.017C110.727 147.435 109.925 148.092 108.417 147.991ZM101.395 145.107L108.87 145.61C108.961 145.616 109.044 145.587 109.117 145.524C109.189 145.471 109.229 145.399 109.235 145.308L109.307 144.228C109.314 144.136 109.285 144.054 109.221 143.981C109.156 143.919 109.078 143.885 108.987 143.879L101.512 143.375C101.42 143.369 101.338 143.392 101.266 143.445C101.193 143.509 101.153 143.586 101.147 143.678L101.074 144.758C101.068 144.849 101.097 144.926 101.162 144.988C101.226 145.061 101.304 145.1 101.395 145.107Z" fill="black"/>
<path d="M107.915 155.438L101.006 154.972C99.4973 154.87 98.7907 154.111 98.8862 152.694L99.0398 150.414C99.1353 148.996 99.9374 148.339 101.446 148.44L108.355 148.906C109.864 149.007 110.57 149.767 110.475 151.184L110.321 153.464C110.226 154.881 109.424 155.539 107.915 155.438ZM100.893 152.553L108.368 153.057C108.46 153.063 108.542 153.034 108.615 152.97C108.687 152.918 108.727 152.846 108.733 152.754L108.806 151.674C108.812 151.583 108.783 151.501 108.719 151.427C108.654 151.366 108.576 151.332 108.485 151.326L101.01 150.822C100.919 150.816 100.837 150.839 100.764 150.891C100.691 150.955 100.651 151.033 100.645 151.125L100.572 152.205C100.566 152.296 100.596 152.373 100.66 152.434C100.724 152.508 100.802 152.547 100.893 152.553Z" fill="black"/>
<path d="M109.648 160.9C109.552 162.317 108.75 162.975 107.242 162.873L100.676 162.43C99.1669 162.329 98.4603 161.569 98.5558 160.152L98.8527 155.746L109.945 156.494L109.648 160.9ZM100.563 160.012L107.695 160.492C107.786 160.499 107.869 160.47 107.942 160.406C108.014 160.353 108.054 160.281 108.06 160.19L108.154 158.784L100.337 158.257L100.242 159.663C100.236 159.754 100.265 159.831 100.33 159.893C100.394 159.966 100.472 160.006 100.563 160.012Z" fill="black"/>
<path d="M102.537 166.747L104.303 166.866L104.09 170.037L100.009 169.762C98.5006 169.661 97.7941 168.901 97.8896 167.484L98.0351 165.324C98.1306 163.907 98.9327 163.249 100.441 163.351L107.35 163.816C108.859 163.918 109.566 164.677 109.47 166.095L109.325 168.255C109.229 169.672 108.427 170.33 106.918 170.228L105.872 170.158L106.026 167.877L107.363 167.968C107.455 167.974 107.537 167.945 107.61 167.881C107.683 167.828 107.722 167.756 107.728 167.665L107.801 166.585C107.807 166.493 107.778 166.411 107.714 166.338C107.65 166.276 107.571 166.242 107.48 166.236L100.005 165.732C99.9139 165.726 99.832 165.749 99.7595 165.802C99.6863 165.866 99.6466 165.944 99.6405 166.035L99.5677 167.115C99.5615 167.206 99.5908 167.283 99.6556 167.345C99.7195 167.418 99.7972 167.458 99.8886 167.464L102.477 167.638L102.537 166.747Z" fill="black"/>
<path d="M108.853 175.252C108.757 176.67 107.955 177.327 106.447 177.226L97.4462 176.619L97.608 174.219L101.328 174.47L101.445 172.738L97.7246 172.488L97.8864 170.087L106.887 170.694C108.396 170.796 109.102 171.555 109.007 172.972L108.853 175.252ZM103.296 172.863L103.18 174.594L106.9 174.845C106.991 174.851 107.074 174.822 107.147 174.758C107.219 174.706 107.259 174.634 107.265 174.543L107.338 173.462C107.344 173.371 107.315 173.289 107.251 173.216C107.186 173.154 107.108 173.12 107.017 173.114L103.296 172.863Z" fill="black"/>
<path d="M96.9549 183.911L97.1166 181.511L106.323 182.132C106.414 182.138 106.497 182.109 106.57 182.045C106.642 181.992 106.682 181.92 106.688 181.829L106.75 180.903C106.756 180.812 106.727 180.729 106.663 180.656C106.599 180.594 106.521 180.56 106.429 180.554L97.2229 179.934L97.3846 177.534L106.385 178.14C107.894 178.242 108.6 179.001 108.505 180.419L108.362 182.544C108.266 183.962 107.464 184.619 105.955 184.518L96.9549 183.911Z" fill="black"/>
<path d="M101.092 188.2L102.858 188.319L102.644 191.491L98.5637 191.216C97.0551 191.114 96.3485 190.355 96.444 188.937L96.5895 186.777C96.685 185.36 97.4871 184.702 98.9958 184.804L105.905 185.269C107.413 185.371 108.12 186.131 108.024 187.548L107.879 189.708C107.783 191.125 106.981 191.783 105.473 191.681L104.427 191.611L104.581 189.331L105.918 189.421C106.009 189.427 106.092 189.398 106.165 189.334C106.237 189.282 106.276 189.21 106.283 189.118L106.355 188.038C106.362 187.947 106.333 187.864 106.269 187.791C106.204 187.729 106.126 187.695 106.034 187.689L98.5597 187.186C98.4683 187.179 98.3864 187.203 98.3139 187.255C98.2407 187.319 98.2011 187.397 98.1949 187.488L98.1221 188.568C98.116 188.66 98.1452 188.736 98.21 188.798C98.2739 188.871 98.3516 188.911 98.4431 188.917L101.032 189.092L101.092 188.2Z" fill="black"/>
<path d="M98.1263 196.685L97.9495 199.308L95.9265 199.172L96.265 194.149L107.357 194.896L107.195 197.297L98.1263 196.685Z" fill="black"/>
<path d="M106.874 204.618C106.779 206.035 105.977 206.693 104.468 206.591L95.4675 205.985L95.6292 203.585L99.3494 203.835L99.4661 202.104L95.7459 201.853L95.9076 199.453L104.908 200.059C106.417 200.161 107.123 200.92 107.028 202.338L106.874 204.618ZM101.318 202.228L101.201 203.96L104.921 204.211C105.013 204.217 105.095 204.188 105.168 204.124C105.241 204.071 105.28 204 105.286 203.908L105.359 202.828C105.365 202.737 105.336 202.654 105.272 202.581C105.207 202.519 105.129 202.485 105.038 202.479L101.318 202.228Z" fill="black"/>
<path d="M101.109 212.743C100.796 213.468 100.165 213.799 99.2162 213.735L97.2276 213.601C95.7189 213.499 95.0123 212.74 95.1078 211.322L95.4047 206.917L106.497 207.664L106.209 211.933C106.114 213.35 105.312 214.008 103.803 213.906L102.791 213.838C101.877 213.776 101.316 213.411 101.109 212.743ZM104.621 211.223L104.706 209.954L101.74 209.754L101.655 211.023C101.649 211.115 101.678 211.191 101.743 211.253C101.807 211.326 101.885 211.366 101.976 211.372L104.256 211.526C104.348 211.532 104.43 211.503 104.503 211.439C104.575 211.386 104.615 211.314 104.621 211.223ZM97.115 211.182L99.6008 211.35C99.6923 211.356 99.7746 211.327 99.8478 211.263C99.9202 211.21 99.9595 211.138 99.9657 211.047L100.06 209.641L96.8888 209.428L96.7941 210.833C96.7879 210.925 96.8172 211.001 96.8819 211.063C96.9459 211.136 97.0235 211.176 97.115 211.182Z" fill="black"/>
<path d="M102.675 220.935L102.828 218.655L103.703 218.714C103.794 218.72 103.877 218.691 103.95 218.627C104.022 218.575 104.061 218.503 104.068 218.411L104.131 217.468C104.137 217.377 104.108 217.295 104.044 217.221C103.98 217.16 103.902 217.126 103.81 217.12L101.839 216.987C101.747 216.981 101.665 217.004 101.593 217.056C101.52 217.12 101.48 217.198 101.474 217.289L101.37 218.832C101.252 220.248 100.449 220.906 98.9637 220.806L96.5807 220.645C95.072 220.543 94.3654 219.784 94.4609 218.367L94.5972 216.344C94.6927 214.926 95.4948 214.269 97.0035 214.37L98.1521 214.448L97.9985 216.728L96.7641 216.645C96.6727 216.639 96.5908 216.662 96.5183 216.714C96.4451 216.778 96.4055 216.856 96.3993 216.947L96.3277 218.01C96.3215 218.102 96.3508 218.178 96.4155 218.24C96.4795 218.313 96.5572 218.353 96.6486 218.359L98.8259 218.506C98.9173 218.512 98.9996 218.483 99.0728 218.419C99.1452 218.367 99.1845 218.295 99.1907 218.203L99.2947 216.66C99.3902 215.243 100.192 214.585 101.701 214.687L103.912 214.836C105.421 214.938 106.128 215.697 106.032 217.114L105.904 219.017C105.808 220.434 105.006 221.092 103.498 220.991L102.675 220.935Z" fill="black"/>
<rect x="-375.146" y="-683" width="1492.61" height="41.2386" transform="rotate(57.6914 -375.146 -683)" fill="white"/>
<path d="M59.1814 29.0202L62.0262 27.5991L54.9998 16.4882L38.1269 22.4655L45.4724 34.0811L42.6358 35.5151L49.6597 46.622L66.5326 40.6448L59.1814 29.0202V29.0202ZM54.3443 18.42L59.7387 26.9504L55.4645 29.085L52.7794 24.839L54.1908 24.134L53.33 22.7727L46.7532 26.0578L48.4137 28.6835L49.8432 27.9755L49.041 26.707L51.3526 25.5523L54.0377 29.7983L46.8969 33.3651L40.5386 23.3107L54.3443 18.42ZM50.3152 44.6902L44.9186 36.1564L46.969 35.1195L57.754 29.7325L64.1203 39.7998L59.6222 41.3932L56.7205 36.8047L58.1319 36.0997L57.2711 34.7384L50.6943 38.0235L52.3548 40.6492L53.7843 39.9412L52.9818 38.6722L55.2934 37.5175L58.088 41.9368L50.3152 44.6902Z" fill="black"/>
<path d="M64.5183 54.0031L66.0141 53.0571L67.7131 55.7438L64.2567 57.9295C62.9787 58.7377 61.9602 58.5415 61.201 57.341L60.0438 55.5112C59.2846 54.3106 59.544 53.3063 60.822 52.4981L66.6746 48.797C67.9526 47.9889 68.9711 48.185 69.7303 49.3856L70.8875 51.2154C71.6467 52.4159 71.3873 53.4203 70.1093 54.2285L69.2234 54.7887L68.002 52.8572L69.1348 52.1408C69.2122 52.0919 69.2616 52.02 69.283 51.9251C69.3104 51.84 69.2997 51.7587 69.2507 51.6812L68.6721 50.7663C68.6232 50.6889 68.5513 50.6395 68.4564 50.6181C68.3677 50.6064 68.2846 50.6251 68.2072 50.6741L61.8754 54.6782C61.7979 54.7272 61.7454 54.7943 61.718 54.8794C61.6966 54.9742 61.7104 55.0604 61.7594 55.1378L62.338 56.0527C62.387 56.1302 62.4558 56.1748 62.5445 56.1864C62.6393 56.2078 62.7255 56.194 62.8029 56.145L64.9958 54.7582L64.5183 54.0031Z" fill="black"/>
<path d="M73.8579 60.1562L68.0053 63.8572C66.7273 64.6654 65.7087 64.4692 64.9495 63.2687L63.7281 61.3372C62.9689 60.1367 63.2283 59.1323 64.5063 58.3241L70.3589 54.6231C71.6368 53.8149 72.6554 54.0111 73.4146 55.2116L74.6361 57.1431C75.3953 58.3436 75.1359 59.348 73.8579 60.1562ZM66.4872 61.971L72.819 57.9669C72.8965 57.9179 72.9459 57.846 72.9673 57.7512C72.9947 57.666 72.984 57.5847 72.935 57.5073L72.3564 56.5923C72.3074 56.5149 72.2355 56.4655 72.1407 56.4441C72.052 56.4325 71.9689 56.4511 71.8915 56.5001L65.5596 60.5042C65.4822 60.5532 65.4297 60.6203 65.4022 60.7054C65.3809 60.8003 65.3947 60.8864 65.4437 60.9638L66.0223 61.8788C66.0712 61.9562 66.1401 62.0008 66.2288 62.0125C66.3236 62.0338 66.4098 62.02 66.4872 61.971Z" fill="black"/>
<path d="M77.8471 66.4644L71.9945 70.1655C70.7165 70.9736 69.6979 70.7775 68.9387 69.5769L67.7173 67.6454C66.9581 66.4449 67.2175 65.4405 68.4955 64.6324L74.3481 60.9313C75.6261 60.1231 76.6446 60.3193 77.4038 61.5198L78.6253 63.4513C79.3845 64.6518 79.1251 65.6562 77.8471 66.4644ZM70.4764 68.2792L76.8083 64.2751C76.8857 64.2261 76.9351 64.1542 76.9565 64.0594C76.9839 63.9742 76.9732 63.8929 76.9242 63.8155L76.3456 62.9006C76.2967 62.8231 76.2248 62.7737 76.1299 62.7524C76.0412 62.7407 75.9581 62.7593 75.8807 62.8083L69.5489 66.8125C69.4714 66.8614 69.4189 66.9285 69.3915 67.0137C69.3701 67.1085 69.3839 67.1946 69.4329 67.2721L70.0115 68.187C70.0605 68.2644 70.1293 68.309 70.218 68.3207C70.3128 68.342 70.399 68.3282 70.4764 68.2792Z" fill="black"/>
<path d="M82.4693 69.8514C83.2285 71.0519 82.9691 72.0563 81.6911 72.8644L76.129 76.3818C74.851 77.19 73.8324 76.9938 73.0732 75.7933L70.7129 72.061L80.109 66.1191L82.4693 69.8514ZM74.6109 74.4956L80.6522 70.6752C80.7297 70.6262 80.7791 70.5543 80.8005 70.4595C80.8279 70.3743 80.8172 70.293 80.7682 70.2156L80.0151 69.0247L73.3928 73.2125L74.1459 74.4034C74.1949 74.4808 74.2637 74.5254 74.3524 74.5371C74.4473 74.5584 74.5334 74.5446 74.6109 74.4956Z" fill="black"/>
<path d="M80.1792 78.7679L81.675 77.822L83.374 80.5087L79.9176 82.6944C78.6396 83.5026 77.6211 83.3064 76.8619 82.1059L75.7047 80.2761C74.9455 79.0755 75.2049 78.0712 76.4829 77.263L82.3355 73.5619C83.6135 72.7537 84.632 72.9499 85.3912 74.1505L86.5484 75.9803C87.3076 77.1808 87.0482 78.1852 85.7702 78.9934L84.8843 79.5536L83.6629 77.6221L84.7957 76.9057C84.8731 76.8567 84.9225 76.7848 84.9439 76.69C84.9713 76.6049 84.9606 76.5236 84.9116 76.4461L84.333 75.5312C84.284 75.4538 84.2121 75.4043 84.1173 75.383C84.0286 75.3713 83.9455 75.39 83.8681 75.439L77.5363 79.4431C77.4588 79.4921 77.4063 79.5591 77.3789 79.6443C77.3575 79.7391 77.3713 79.8252 77.4203 79.9027L77.9989 80.8176C78.0479 80.8951 78.1167 80.9396 78.2054 80.9513C78.3002 80.9727 78.3864 80.9589 78.4638 80.9099L80.6567 79.5231L80.1792 78.7679Z" fill="black"/>
<path d="M90.297 81.908C91.0562 83.1085 90.7968 84.1129 89.5188 84.921L81.8944 89.7425L80.6087 87.7094L83.7601 85.7165L82.8325 84.2497L79.6811 86.2426L78.3954 84.2095L86.0198 79.388C87.2977 78.5798 88.3163 78.776 89.0755 79.9765L90.297 81.908ZM84.401 83.2579L85.3285 84.7246L88.4799 82.7318C88.5574 82.6828 88.6068 82.6109 88.6281 82.5161C88.6556 82.4309 88.6449 82.3496 88.5959 82.2722L88.0173 81.3572C87.9683 81.2798 87.8964 81.2304 87.8016 81.209C87.7129 81.1974 87.6298 81.216 87.5524 81.265L84.401 83.2579Z" fill="black"/>
<path d="M85.8008 95.9197L84.5151 93.8866L92.3137 88.9549C92.3911 88.9059 92.4405 88.834 92.4619 88.7392C92.4894 88.654 92.4786 88.5727 92.4296 88.4953L91.9337 87.711C91.8847 87.6336 91.8128 87.5842 91.718 87.5628C91.6293 87.5512 91.5462 87.5698 91.4688 87.6188L83.6701 92.5505L82.3844 90.5173L90.0088 85.6958C91.2867 84.8877 92.3053 85.0838 93.0645 86.2844L94.2033 88.0852C94.9625 89.2857 94.7031 90.29 93.4251 91.0982L85.8008 95.9197Z" fill="black"/>
<path d="M91.6715 96.941L93.1673 95.995L94.8663 98.6817L91.4099 100.867C90.1319 101.676 89.1134 101.479 88.3542 100.279L87.197 98.4491C86.4378 97.2485 86.6972 96.2442 87.9752 95.436L93.8278 91.7349C95.1058 90.9268 96.1244 91.1229 96.8835 92.3235L98.0407 94.1533C98.7999 95.3538 98.5405 96.3582 97.2625 97.1664L96.3766 97.7266L95.1552 95.7951L96.288 95.0787C96.3654 95.0298 96.4148 94.9579 96.4362 94.863C96.4636 94.7779 96.4529 94.6966 96.4039 94.6191L95.8253 93.7042C95.7764 93.6268 95.7045 93.5774 95.6096 93.556C95.5209 93.5443 95.4378 93.563 95.3604 93.612L89.0286 97.6161C88.9511 97.6651 88.8986 97.7322 88.8712 97.8173C88.8498 97.9121 88.8636 97.9983 88.9126 98.0757L89.4912 98.9906C89.5402 99.0681 89.609 99.1127 89.6977 99.1243C89.7925 99.1457 89.8787 99.1319 89.9561 99.0829L92.149 97.6961L91.6715 96.941Z" fill="black"/>
<path d="M94.2844 105.542L95.6895 107.763L93.9759 108.847L91.285 104.592L100.681 98.6501L101.967 100.683L94.2844 105.542Z" fill="black"/>
<path d="M106.028 106.783C106.787 107.984 106.528 108.988 105.25 109.797L97.6253 114.618L96.3396 112.585L99.491 110.592L98.5634 109.125L95.412 111.118L94.1263 109.085L101.751 104.263C103.029 103.455 104.047 103.651 104.806 104.852L106.028 106.783ZM100.132 108.133L101.059 109.6L104.211 107.607C104.288 107.558 104.338 107.486 104.359 107.392C104.386 107.306 104.376 107.225 104.327 107.148L103.748 106.233C103.699 106.155 103.627 106.106 103.532 106.085C103.444 106.073 103.361 106.092 103.283 106.14L100.132 108.133Z" fill="black"/>
<path d="M106.168 116.745C106.343 117.516 106.029 118.155 105.225 118.663L103.54 119.728C102.262 120.536 101.244 120.34 100.485 119.14L98.1244 115.407L107.521 109.465L109.807 113.082C110.566 114.282 110.307 115.286 109.029 116.095L108.172 116.636C107.398 117.126 106.729 117.163 106.168 116.745ZM108.106 113.446L107.427 112.371L104.914 113.96L105.594 115.035C105.643 115.112 105.712 115.157 105.8 115.168C105.895 115.19 105.981 115.176 106.059 115.127L107.99 113.905C108.068 113.856 108.117 113.784 108.138 113.69C108.166 113.604 108.155 113.523 108.106 113.446ZM102.022 117.842L104.128 116.51C104.206 116.461 104.255 116.389 104.276 116.295C104.304 116.209 104.293 116.128 104.244 116.051L103.491 114.86L100.804 116.559L101.557 117.75C101.606 117.827 101.675 117.872 101.764 117.883C101.859 117.905 101.945 117.891 102.022 117.842Z" fill="black"/>
<path d="M112.266 122.435L111.045 120.504L111.785 120.035C111.863 119.986 111.912 119.914 111.934 119.819C111.961 119.734 111.95 119.653 111.901 119.576L111.396 118.777C111.347 118.699 111.275 118.65 111.181 118.629C111.092 118.617 111.009 118.636 110.931 118.685L109.261 119.741C109.184 119.79 109.131 119.857 109.104 119.942C109.082 120.037 109.096 120.123 109.145 120.2L109.972 121.507C110.712 122.72 110.452 123.724 109.194 124.52L107.175 125.797C105.897 126.605 104.878 126.409 104.119 125.208L103.035 123.495C102.276 122.294 102.536 121.29 103.814 120.482L104.787 119.866L106.008 121.798L104.962 122.459C104.885 122.508 104.833 122.575 104.805 122.66C104.784 122.755 104.798 122.841 104.847 122.919L105.416 123.819C105.465 123.897 105.534 123.941 105.622 123.953C105.717 123.974 105.803 123.96 105.881 123.911L107.725 122.745C107.803 122.696 107.852 122.624 107.873 122.529C107.901 122.444 107.89 122.363 107.841 122.285L107.015 120.978C106.255 119.778 106.515 118.774 107.793 117.965L109.666 116.781C110.944 115.972 111.963 116.169 112.722 117.369L113.741 118.981C114.501 120.182 114.241 121.186 112.963 121.994L112.266 122.435Z" fill="black"/>
<path d="M131.023 142.621L133.868 141.2L126.842 130.089L109.969 136.067L117.314 147.682L114.478 149.116L121.502 160.223L138.375 154.246L131.023 142.621V142.621ZM126.186 132.021L131.581 140.552L127.307 142.686L124.621 138.44L126.033 137.735L125.172 136.374L118.595 139.659L120.256 142.285L121.685 141.577L120.883 140.308L123.195 139.153L125.88 143.399L118.739 146.966L112.381 136.912L126.186 132.021ZM122.157 158.291L116.761 149.757L118.811 148.721L129.596 143.334L135.962 153.401L131.464 154.994L128.563 150.406L129.974 149.701L129.113 148.34L122.536 151.625L124.197 154.25L125.626 153.542L124.824 152.273L127.135 151.119L129.93 155.538L122.157 158.291Z" fill="black"/>
<path d="M-7.31474 -59.5965L-5.81891 -60.5424L-4.11991 -57.8558L-7.57628 -55.67C-8.85426 -54.8619 -9.87285 -55.058 -10.632 -56.2586L-11.7892 -58.0884C-12.5484 -59.2889 -12.289 -60.2933 -11.011 -61.1015L-5.15843 -64.8025C-3.88045 -65.6107 -2.86186 -65.4145 -2.10266 -64.214L-0.945504 -62.3842C-0.18631 -61.1836 -0.445705 -60.1793 -1.72369 -59.3711L-2.60956 -58.8109L-3.83101 -60.7424L-2.69825 -61.4587C-2.6208 -61.5077 -2.57139 -61.5796 -2.55004 -61.6744C-2.52256 -61.7596 -2.53331 -61.8409 -2.58229 -61.9183L-3.16087 -62.8333C-3.20985 -62.9107 -3.28176 -62.9601 -3.37658 -62.9815C-3.46528 -62.9931 -3.54836 -62.9745 -3.62582 -62.9255L-9.95765 -58.9214C-10.0351 -58.8724 -10.0876 -58.8053 -10.115 -58.7202C-10.1364 -58.6254 -10.1226 -58.5392 -10.0736 -58.4618L-9.49503 -57.5468C-9.44605 -57.4694 -9.37721 -57.4248 -9.2885 -57.4132C-9.19368 -57.3918 -9.10754 -57.4056 -9.03008 -57.4546L-6.83718 -58.8413L-7.31474 -59.5965Z" fill="black"/>
<path d="M2.02488 -53.4434L-3.82771 -49.7423C-5.10569 -48.9342 -6.12428 -49.1303 -6.88348 -50.3309L-8.10492 -52.2624C-8.86412 -53.4629 -8.60472 -54.4673 -7.32674 -55.2754L-1.47415 -58.9765C-0.196164 -59.7847 0.822425 -59.5885 1.58162 -58.388L2.80307 -56.4565C3.56226 -55.256 3.30286 -54.2516 2.02488 -53.4434ZM-5.3458 -51.6286L0.986032 -55.6327C1.06349 -55.6817 1.11289 -55.7536 1.13424 -55.8484C1.16172 -55.9336 1.15097 -56.0149 1.10199 -56.0923L0.523411 -57.0072C0.474431 -57.0847 0.402528 -57.1341 0.307702 -57.1554C0.218999 -57.1671 0.135921 -57.1485 0.0584682 -57.0995L-6.27337 -53.0953C-6.35082 -53.0464 -6.40328 -52.9793 -6.43076 -52.8941C-6.45212 -52.7993 -6.4383 -52.7132 -6.38932 -52.6357L-5.81075 -51.7208C-5.76176 -51.6434 -5.69292 -51.5988 -5.60422 -51.5871C-5.50939 -51.5658 -5.42325 -51.5796 -5.3458 -51.6286Z" fill="black"/>
<path d="M6.01409 -47.1352L0.161507 -43.4341C-1.11648 -42.6259 -2.13507 -42.8221 -2.89426 -44.0227L-4.11571 -45.9541C-4.8749 -47.1547 -4.61551 -48.159 -3.33752 -48.9672L2.51507 -52.6683C3.79305 -53.4765 4.81164 -53.2803 5.57083 -52.0798L6.79228 -50.1483C7.55147 -48.9477 7.29208 -47.9434 6.01409 -47.1352ZM-1.35659 -45.3203L4.97525 -49.3245C5.0527 -49.3735 5.1021 -49.4454 5.12346 -49.5402C5.15094 -49.6253 5.14019 -49.7066 5.0912 -49.7841L4.51262 -50.699C4.46364 -50.7765 4.39174 -50.8259 4.29692 -50.8472C4.20821 -50.8589 4.12514 -50.8402 4.04768 -50.7913L-2.28415 -46.7871C-2.3616 -46.7381 -2.41407 -46.6711 -2.44155 -46.5859C-2.4629 -46.4911 -2.44909 -46.405 -2.40011 -46.3275L-1.82153 -45.4126C-1.77255 -45.3351 -1.70371 -45.2906 -1.61501 -45.2789C-1.52018 -45.2575 -1.43404 -45.2714 -1.35659 -45.3203Z" fill="black"/>
<path d="M10.6363 -43.7482C11.3955 -42.5477 11.1361 -41.5433 9.85808 -40.7351L4.29595 -37.2177C3.01796 -36.4096 1.99937 -36.6057 1.24018 -37.8063L-1.12006 -41.5386L8.27603 -47.4805L10.6363 -43.7482ZM2.77785 -39.1039L8.81923 -42.9244C8.89669 -42.9734 8.94609 -43.0453 8.96745 -43.1401C8.99493 -43.2253 8.98417 -43.3066 8.93519 -43.384L8.18212 -44.5749L1.55984 -40.387L2.31291 -39.1962C2.36189 -39.1187 2.43073 -39.0742 2.51944 -39.0625C2.61426 -39.0412 2.7004 -39.055 2.77785 -39.1039Z" fill="black"/>
<path d="M8.34616 -34.8316L9.84198 -35.7776L11.541 -33.0909L8.08462 -30.9051C6.80663 -30.097 5.78804 -30.2931 5.02885 -31.4937L3.87169 -33.3235C3.11249 -34.524 3.37189 -35.5284 4.64987 -36.3366L10.5025 -40.0377C11.7804 -40.8458 12.799 -40.6496 13.5582 -39.4491L14.7154 -37.6193C15.4746 -36.4188 15.2152 -35.4144 13.9372 -34.6062L13.0513 -34.046L11.8299 -35.9775L12.9626 -36.6938C13.0401 -36.7428 13.0895 -36.8147 13.1109 -36.9096C13.1383 -36.9947 13.1276 -37.076 13.0786 -37.1535L12.5 -38.0684C12.451 -38.1458 12.3791 -38.1952 12.2843 -38.2166C12.1956 -38.2283 12.1125 -38.2096 12.0351 -38.1606L5.70325 -34.1565C5.62579 -34.1075 5.57333 -34.0404 5.54585 -33.9553C5.52449 -33.8605 5.53831 -33.7743 5.58729 -33.6969L6.16587 -32.782C6.21485 -32.7045 6.28369 -32.6599 6.37239 -32.6483C6.46722 -32.6269 6.55336 -32.6407 6.63081 -32.6897L8.82372 -34.0765L8.34616 -34.8316Z" fill="black"/>
<path d="M18.464 -31.6916C19.2232 -30.4911 18.9638 -29.4867 17.6858 -28.6785L10.0614 -23.857L8.7757 -25.8902L11.9271 -27.8831L10.9995 -29.3498L7.84814 -27.357L6.56241 -29.3901L14.1867 -34.2116C15.4647 -35.0198 16.4833 -34.8236 17.2425 -33.6231L18.464 -31.6916ZM12.568 -30.3417L13.4955 -28.8749L16.6469 -30.8678C16.7244 -30.9168 16.7738 -30.9887 16.7951 -31.0835C16.8226 -31.1687 16.8119 -31.25 16.7629 -31.3274L16.1843 -32.2423C16.1353 -32.3198 16.0634 -32.3692 15.9686 -32.3906C15.8799 -32.4022 15.7968 -32.3836 15.7194 -32.3346L12.568 -30.3417Z" fill="black"/>
<path d="M13.9678 -17.6798L12.682 -19.713L20.4807 -24.6447C20.5581 -24.6937 20.6075 -24.7656 20.6289 -24.8604C20.6563 -24.9456 20.6456 -25.0269 20.5966 -25.1043L20.1007 -25.8885C20.0517 -25.966 19.9798 -26.0154 19.885 -26.0367C19.7963 -26.0484 19.7132 -26.0298 19.6357 -25.9808L11.8371 -21.0491L10.5514 -23.0822L18.1757 -27.9037C19.4537 -28.7119 20.4723 -28.5157 21.2315 -27.3152L22.3703 -25.5144C23.1295 -24.3139 22.8701 -23.3095 21.5921 -22.5014L13.9678 -17.6798Z" fill="black"/>
<path d="M19.8385 -16.6586L21.3343 -17.6045L23.0333 -14.9179L19.5769 -12.7321C18.2989 -11.924 17.2804 -12.1201 16.5212 -13.3207L15.364 -15.1505C14.6048 -16.351 14.8642 -17.3554 16.1422 -18.1636L21.9948 -21.8646C23.2728 -22.6728 24.2913 -22.4766 25.0505 -21.2761L26.2077 -19.4463C26.9669 -18.2457 26.7075 -17.2414 25.4295 -16.4332L24.5436 -15.873L23.3222 -17.8045L24.455 -18.5208C24.5324 -18.5698 24.5818 -18.6417 24.6032 -18.7365C24.6306 -18.8217 24.6199 -18.903 24.5709 -18.9804L23.9923 -19.8954C23.9434 -19.9728 23.8714 -20.0222 23.7766 -20.0436C23.6879 -20.0552 23.6048 -20.0366 23.5274 -19.9876L17.1956 -15.9835C17.1181 -15.9345 17.0656 -15.8674 17.0382 -15.7823C17.0168 -15.6874 17.0306 -15.6013 17.0796 -15.5239L17.6582 -14.6089C17.7072 -14.5315 17.776 -14.4869 17.8647 -14.4752C17.9595 -14.4539 18.0457 -14.4677 18.1231 -14.5167L20.316 -15.9034L19.8385 -16.6586Z" fill="black"/>
<path d="M22.4514 -8.05805L23.8565 -5.83611L22.1429 -4.75242L19.452 -9.00752L28.8481 -14.9494L30.1338 -12.9163L22.4514 -8.05805Z" fill="black"/>
<path d="M34.1948 -6.81609C34.954 -5.61556 34.6946 -4.6112 33.4166 -3.80303L25.7923 1.01848L24.5066 -1.01468L27.6579 -3.00757L26.7304 -4.47434L23.579 -2.48145L22.2933 -4.51461L29.9176 -9.33611C31.1956 -10.1443 32.2142 -9.94811 32.9734 -8.74758L34.1948 -6.81609ZM28.2988 -5.46619L29.2264 -3.99942L32.3778 -5.99231C32.4552 -6.04129 32.5046 -6.11319 32.526 -6.20802C32.5535 -6.29316 32.5427 -6.37446 32.4937 -6.45191L31.9152 -7.36683C31.8662 -7.44429 31.7943 -7.49369 31.6994 -7.51505C31.6107 -7.52672 31.5277 -7.50806 31.4502 -7.45908L28.2988 -5.46619Z" fill="black"/>
<path d="M34.3345 3.14585C34.5098 3.91597 34.1956 4.55512 33.3921 5.0633L31.7074 6.12862C30.4295 6.93679 29.4109 6.74062 28.6517 5.54009L26.2914 1.8078L35.6875 -4.13413L37.9743 -0.518021C38.7335 0.682508 38.4741 1.68686 37.1961 2.49504L36.3393 3.03688C35.5647 3.52669 34.8965 3.56301 34.3345 3.14585ZM36.2732 -0.153847L35.5936 -1.22851L33.0812 0.360286L33.7608 1.43495C33.8098 1.51241 33.8786 1.55697 33.9673 1.56864C34.0622 1.59 34.1483 1.57618 34.2258 1.5272L36.1573 0.305757C36.2347 0.256776 36.2841 0.184872 36.3055 0.0900468C36.333 0.00490289 36.3222 -0.0763931 36.2732 -0.153847ZM30.1894 4.2424L32.2951 2.91075C32.3726 2.86177 32.422 2.78987 32.4433 2.69504C32.4708 2.6099 32.4601 2.5286 32.4111 2.45115L31.658 1.2603L28.9713 2.95931L29.7244 4.15015C29.7734 4.22761 29.8422 4.27217 29.9309 4.28384C30.0258 4.3052 30.1119 4.29138 30.1894 4.2424Z" fill="black"/>
<path d="M40.4331 8.83547L39.2117 6.90397L39.9524 6.4356C40.0298 6.38662 40.0792 6.31472 40.1006 6.21989C40.128 6.13475 40.1173 6.05345 40.0683 5.976L39.5632 5.17726C39.5142 5.0998 39.4423 5.0504 39.3475 5.02905C39.2588 5.01737 39.1757 5.03603 39.0983 5.08501L37.4282 6.14114C37.3507 6.19012 37.2982 6.25719 37.2708 6.34233C37.2494 6.43716 37.2632 6.52329 37.3122 6.60075L38.1387 7.90778C38.8786 9.12055 38.6192 10.1249 37.3606 10.9208L35.3419 12.1974C34.0639 13.0056 33.0454 12.8094 32.2862 11.6089L31.2025 9.8952C30.4433 8.69467 30.7027 7.69031 31.9807 6.88214L32.9537 6.26682L34.1751 8.19832L33.1295 8.85955C33.052 8.90853 32.9996 8.9756 32.9721 9.06074C32.9507 9.15557 32.9645 9.2417 33.0135 9.31916L33.5829 10.2196C33.6319 10.297 33.7007 10.3416 33.7894 10.3532C33.8843 10.3746 33.9704 10.3608 34.0479 10.3118L35.8922 9.14546C35.9697 9.09648 36.0191 9.02458 36.0404 8.92975C36.0679 8.84461 36.0572 8.76331 36.0082 8.68586L35.1816 7.37883C34.4225 6.1783 34.6819 5.17395 35.9598 4.36577L37.8332 3.18106C39.1112 2.37288 40.1298 2.56906 40.889 3.76959L41.9084 5.38159C42.6676 6.58212 42.4082 7.58647 41.1302 8.39465L40.4331 8.83547Z" fill="black"/>
</g>
</svg>
