<svg width="324" height="157" viewBox="0 0 324 157" fill="none" xmlns="http://www.w3.org/2000/svg">
<rect width="324" height="157" rx="8" fill="black"/>
<mask id="mask0_1_1364" style="mask-type:alpha" maskUnits="userSpaceOnUse" x="0" y="0" width="324" height="157">
<rect width="324" height="157" rx="8" fill="black"/>
</mask>
<g mask="url(#mask0_1_1364)">
<rect width="1019.76" height="28.2029" transform="matrix(0.987663 0.156595 -0.156274 0.987714 -602.74 -114.225)" fill="white"/>
<path d="M-26.234 -7.3692L-26.0448 -8.56471L-23.8998 -8.22461L-24.3369 -5.46219C-24.4985 -4.44079 -25.0585 -4.00608 -26.017 -4.15805L-27.4779 -4.38968C-28.4364 -4.54165 -28.8349 -5.12833 -28.6733 -6.14973L-27.9332 -10.8273C-27.7716 -11.8487 -27.2116 -12.2834 -26.2531 -12.1314L-24.7921 -11.8998C-23.8337 -11.7478 -23.4352 -11.1611 -23.5968 -10.1397L-23.7088 -9.43172L-25.2509 -9.67622L-25.1077 -10.5816C-25.0979 -10.6435 -25.1125 -10.7013 -25.1515 -10.7551C-25.1828 -10.8076 -25.2294 -10.8388 -25.2913 -10.8486L-26.0217 -10.9644C-26.0836 -10.9742 -26.1413 -10.9596 -26.1951 -10.9205C-26.2411 -10.8802 -26.2689 -10.8291 -26.2787 -10.7672L-27.0794 -5.70666C-27.0892 -5.64475 -27.0785 -5.58752 -27.0471 -5.53497C-27.0081 -5.48119 -26.9577 -5.44939 -26.8958 -5.43959L-26.1654 -5.32377C-26.1035 -5.31397 -26.0496 -5.32922 -26.0036 -5.36952C-25.9499 -5.40859 -25.9182 -5.45908 -25.9084 -5.52098L-25.6311 -7.27361L-26.234 -7.3692Z" fill="black"/>
<path d="M-18.8642 -9.38938L-19.6043 -4.71184C-19.7659 -3.69044 -20.326 -3.25572 -21.2844 -3.40769L-22.8265 -3.65219C-23.785 -3.80416 -24.1835 -4.39084 -24.0218 -5.41224L-23.2818 -10.0898C-23.1202 -11.1112 -22.5601 -11.5459 -21.6016 -11.3939L-20.0596 -11.1494C-19.1011 -10.9975 -18.7026 -10.4108 -18.8642 -9.38938ZM-21.2569 -4.78349L-20.4563 -9.84406C-20.4465 -9.90597 -20.4611 -9.96381 -20.5001 -10.0176C-20.5314 -10.0701 -20.578 -10.1013 -20.6398 -10.1111L-21.3703 -10.2269C-21.4321 -10.2367 -21.4899 -10.2221 -21.5436 -10.183C-21.5896 -10.1427 -21.6175 -10.0916 -21.6273 -10.0297L-22.428 -4.96917C-22.4378 -4.90726 -22.427 -4.85003 -22.3957 -4.79748C-22.3567 -4.7437 -22.3063 -4.71191 -22.2444 -4.7021L-21.514 -4.58629C-21.4521 -4.57648 -21.3982 -4.59173 -21.3522 -4.63203C-21.2985 -4.6711 -21.2667 -4.72159 -21.2569 -4.78349Z" fill="black"/>
<path d="M-13.8278 -8.59085L-14.5679 -3.91331C-14.7295 -2.89191 -15.2896 -2.45719 -16.248 -2.60916L-17.7901 -2.85366C-18.7486 -3.00563 -19.1471 -3.59232 -18.9854 -4.61371L-18.2454 -9.29126C-18.0838 -10.3127 -17.5237 -10.7474 -16.5652 -10.5954L-15.0232 -10.3509C-14.0647 -10.1989 -13.6662 -9.61225 -13.8278 -8.59085ZM-16.2205 -3.98497L-15.4199 -9.04554C-15.4101 -9.10744 -15.4247 -9.16528 -15.4637 -9.21906C-15.495 -9.27162 -15.5416 -9.3028 -15.6034 -9.3126L-16.3339 -9.42842C-16.3957 -9.43822 -16.4535 -9.42359 -16.5072 -9.38451C-16.5532 -9.34421 -16.5811 -9.29311 -16.5909 -9.23121L-17.3916 -4.17064C-17.4014 -4.10874 -17.3906 -4.05151 -17.3593 -3.99895C-17.3203 -3.94517 -17.2699 -3.91338 -17.208 -3.90357L-16.4776 -3.78776C-16.4157 -3.77795 -16.3618 -3.7932 -16.3158 -3.8335C-16.2621 -3.87257 -16.2303 -3.92306 -16.2205 -3.98497Z" fill="black"/>
<path d="M-10.0051 -9.43631C-9.04664 -9.28434 -8.6482 -8.69766 -8.8098 -7.67626L-9.51315 -3.23085C-9.67475 -2.20945 -10.2348 -1.77473 -11.1933 -1.9267L-14.1731 -2.39916L-12.9849 -9.90876L-10.0051 -9.43631ZM-11.1658 -3.30251L-10.4018 -8.13094C-10.392 -8.19284 -10.4067 -8.25068 -10.4457 -8.30447C-10.477 -8.35702 -10.5236 -8.3882 -10.5854 -8.39801L-11.5362 -8.54875L-12.3736 -3.25604L-11.4228 -3.1053C-11.361 -3.09549 -11.307 -3.11074 -11.2611 -3.15104C-11.2073 -3.19011 -11.1756 -3.2406 -11.1658 -3.30251Z" fill="black"/>
<path d="M-6.46204 -4.23434L-6.27289 -5.42984L-4.12789 -5.08975L-4.56495 -2.32733C-4.72656 -1.30593 -5.2866 -0.871211 -6.24509 -1.02318L-7.706 -1.25481C-8.66449 -1.40678 -9.06293 -1.99346 -8.90133 -3.01486L-8.16126 -7.69241C-7.99965 -8.71381 -7.43961 -9.14852 -6.48112 -8.99655L-5.02021 -8.76492C-4.06172 -8.61295 -3.66328 -8.02627 -3.82488 -7.00487L-3.9369 -6.29686L-5.47898 -6.54135L-5.33574 -7.44669C-5.32595 -7.50859 -5.34057 -7.56643 -5.3796 -7.62021C-5.4109 -7.67277 -5.45747 -7.70395 -5.51931 -7.71375L-6.24977 -7.82957C-6.31161 -7.83937 -6.36939 -7.82474 -6.42311 -7.78566C-6.46911 -7.74536 -6.497 -7.69426 -6.5068 -7.63236L-7.30747 -2.57179C-7.31726 -2.50988 -7.30651 -2.45266 -7.27521 -2.4001C-7.23617 -2.34632 -7.18574 -2.31453 -7.1239 -2.30472L-6.39344 -2.18891C-6.3316 -2.1791 -6.27769 -2.19435 -6.23169 -2.23465C-6.17797 -2.27372 -6.14621 -2.32421 -6.13641 -2.38612L-5.85912 -4.13874L-6.46204 -4.23434Z" fill="black"/>
<path d="M-0.28762 -8.01457C0.670866 -7.8626 1.06931 -7.27591 0.907704 -6.25451L-0.0564083 -0.160937L-1.67965 -0.418304L-1.28115 -2.93698L-2.4522 -3.12265L-2.8507 -0.603976L-4.47395 -0.861344L-3.50984 -6.95492C-3.34823 -7.97632 -2.78819 -8.41103 -1.8297 -8.25906L-0.28762 -8.01457ZM-2.25387 -4.37619L-1.08282 -4.19052L-0.684319 -6.7092C-0.674525 -6.7711 -0.689143 -6.82894 -0.728177 -6.88272C-0.75948 -6.93528 -0.806052 -6.96646 -0.867889 -6.97626L-1.59835 -7.09208C-1.66019 -7.10188 -1.71797 -7.08725 -1.77169 -7.04817C-1.81768 -7.00787 -1.84558 -6.95677 -1.85537 -6.89487L-2.25387 -4.37619Z" fill="black"/>
<path d="M4.87537 0.621003L3.25213 0.363635L4.23828 -5.86922C4.24807 -5.93113 4.23345 -5.98897 4.19442 -6.04275C4.16311 -6.0953 4.11654 -6.12648 4.05471 -6.13629L3.4286 -6.23556C3.36676 -6.24536 3.30898 -6.23073 3.25526 -6.19165C3.20926 -6.15135 3.18137 -6.10025 3.17157 -6.03835L2.18542 0.194508L0.562181 -0.062859L1.52629 -6.15644C1.6879 -7.17783 2.24794 -7.61255 3.20643 -7.46058L4.64416 -7.23263C5.60264 -7.08066 6.00109 -6.49397 5.83948 -5.47257L4.87537 0.621003Z" fill="black"/>
<path d="M8.04705 -1.9339L8.2362 -3.1294L10.3812 -2.78931L9.94414 -0.0268918C9.78253 0.994508 9.22249 1.42922 8.264 1.27725L6.80308 1.04562C5.8446 0.893655 5.44616 0.30697 5.60776 -0.71443L6.34783 -5.39197C6.50944 -6.41337 7.06948 -6.84809 8.02797 -6.69612L9.48888 -6.46449C10.4474 -6.31252 10.8458 -5.72584 10.6842 -4.70444L10.5722 -3.99642L9.0301 -4.24092L9.17334 -5.14625C9.18314 -5.20815 9.16852 -5.266 9.12949 -5.31978C9.09818 -5.37233 9.05162 -5.40351 8.98978 -5.41332L8.25932 -5.52913C8.19748 -5.53894 8.13969 -5.5243 8.08597 -5.48523C8.03998 -5.44493 8.01208 -5.39383 8.00229 -5.33192L7.20162 -0.271353C7.19182 -0.20945 7.20258 -0.152221 7.23388 -0.0996662C7.27291 -0.0458856 7.32335 -0.0140927 7.38519 -0.00428815L8.11565 0.111527C8.17749 0.121332 8.2314 0.106084 8.2774 0.0657843C8.33112 0.0267101 8.36288 -0.0237785 8.37267 -0.0856816L8.64997 -1.83831L8.04705 -1.9339Z" fill="black"/>
<path d="M13.6392 0.606554L15.4131 0.88782L15.1965 2.25742L11.7992 1.71879L12.9874 -5.79082L14.6106 -5.53345L13.6392 0.606554Z" fill="black"/>
<path d="M19.5726 -4.8657C20.5311 -4.71373 20.9296 -4.12704 20.768 -3.10564L19.8039 2.98793L18.1806 2.73057L18.5791 0.211888L17.4081 0.0262162L17.0096 2.54489L15.3863 2.28753L16.3504 -3.80605C16.512 -4.82745 17.0721 -5.26216 18.0306 -5.11019L19.5726 -4.8657ZM17.6064 -1.22732L18.7774 -1.04165L19.1759 -3.56033C19.1857 -3.62223 19.1711 -3.68007 19.1321 -3.73385C19.1008 -3.78641 19.0542 -3.81759 18.9924 -3.82739L18.2619 -3.94321C18.2001 -3.95301 18.1423 -3.93838 18.0886 -3.8993C18.0426 -3.859 18.0147 -3.8079 18.0049 -3.746L17.6064 -1.22732Z" fill="black"/>
<path d="M24.748 -0.440047C25.2223 -0.182415 25.4086 0.267523 25.307 0.909767L25.094 2.25616C24.9324 3.27756 24.3723 3.71227 23.4138 3.5603L20.434 3.08785L21.6222 -4.42176L24.5092 -3.96401C25.4677 -3.81204 25.8662 -3.22536 25.7046 -2.20396L25.5962 -1.51916C25.4983 -0.900127 25.2155 -0.540424 24.748 -0.440047ZM23.929 -2.92571L23.071 -3.06174L22.7533 -1.05377L23.6113 -0.917728C23.6731 -0.907924 23.727 -0.923171 23.773 -0.963471C23.8267 -1.00254 23.8585 -1.05303 23.8683 -1.11494L24.1125 -2.65864C24.1223 -2.72054 24.1077 -2.77839 24.0687 -2.83217C24.0374 -2.88472 23.9908 -2.9159 23.929 -2.92571ZM23.4414 2.1845L23.7076 0.50151C23.7174 0.439607 23.7028 0.381766 23.6638 0.327986C23.6325 0.275431 23.5859 0.244251 23.5241 0.234446L22.5733 0.0837021L22.2336 2.23096L23.1843 2.38171C23.2462 2.39151 23.3001 2.37626 23.3461 2.33596C23.3998 2.29689 23.4316 2.2464 23.4414 2.1845Z" fill="black"/>
<path d="M30.4183 -1.00447L28.8762 -1.24897L28.9699 -1.84092C28.9796 -1.90282 28.965 -1.96066 28.926 -2.01444C28.8947 -2.067 28.8481 -2.09818 28.7863 -2.10798L28.1486 -2.20909C28.0867 -2.2189 28.029 -2.20426 27.9752 -2.16519C27.9292 -2.12489 27.9013 -2.07379 27.8916 -2.01188L27.6804 -0.6771C27.6706 -0.615197 27.6813 -0.557967 27.7126 -0.505412C27.7517 -0.451631 27.8021 -0.419839 27.8639 -0.410035L28.9075 -0.244584C29.8635 -0.0771395 30.2619 0.509544 30.1028 1.51547L29.8475 3.12881C29.6859 4.15021 29.1259 4.58493 28.1674 4.43296L26.7992 4.21604C25.8407 4.06407 25.4423 3.47738 25.6039 2.45598L25.7269 1.67833L27.269 1.92283L27.1368 2.75852C27.127 2.82042 27.1378 2.87765 27.1691 2.9302C27.2081 2.98398 27.2585 3.01578 27.3204 3.02558L28.0392 3.13956C28.1011 3.14936 28.155 3.13411 28.201 3.09382C28.2547 3.05474 28.2865 3.00425 28.2963 2.94235L28.5295 1.46828C28.5393 1.40638 28.5246 1.34854 28.4856 1.29476C28.4543 1.2422 28.4077 1.21103 28.3459 1.20122L27.3024 1.03577C26.3439 0.883802 25.9455 0.297117 26.1071 -0.724283L26.344 -2.22156C26.5056 -3.24296 27.0656 -3.67768 28.0241 -3.52571L29.3111 -3.32165C30.2696 -3.16968 30.668 -2.583 30.5064 -1.5616L30.4183 -1.00447Z" fill="black"/>
<path d="M49.2355 -1.52515L49.7892 -3.62815L40.9184 -5.03463L36.3764 6.33202L45.6502 7.80238L45.1068 9.90702L53.9744 11.313L58.5164 -0.0536519L49.2355 -1.52515ZM41.6141 -3.8257L48.4246 -2.74589L47.5925 0.413596L44.2025 -0.123893L44.4773 -1.16727L43.3904 -1.33959L42.1103 3.52218L44.2067 3.85456L44.488 2.80055L43.4752 2.63998L43.9251 0.931144L47.3151 1.46863L45.9251 6.74737L37.8978 5.47463L41.6141 -3.8257ZM53.2787 10.1041L46.4654 9.02382L46.858 7.50235L48.9573 -0.47024L56.9949 0.80413L55.784 3.83431L52.1206 3.25348L52.3953 2.2101L51.3085 2.03778L50.0284 6.89956L52.1247 7.23194L52.406 6.17792L51.3929 6.01729L51.8428 4.30845L55.3711 4.86787L53.2787 10.1041Z" fill="black"/>
<path d="M64.4617 7.01068L64.6508 5.81518L66.7958 6.15527L66.3588 8.91769C66.1972 9.93909 65.6371 10.3738 64.6786 10.2218L63.2177 9.9902C62.2592 9.83824 61.8608 9.25155 62.0224 8.23015L62.7625 3.55261C62.9241 2.53121 63.4841 2.09649 64.4426 2.24846L65.9035 2.48009C66.862 2.63206 67.2605 3.21875 67.0989 4.24014L66.9868 4.94816L65.4448 4.70366L65.588 3.79833C65.5978 3.73643 65.5832 3.67859 65.5441 3.6248C65.5128 3.57225 65.4663 3.54107 65.4044 3.53127L64.674 3.41545C64.6121 3.40565 64.5543 3.42028 64.5006 3.45935C64.4546 3.49965 64.4267 3.55075 64.4169 3.61266L63.6163 8.67323C63.6065 8.73513 63.6172 8.79236 63.6485 8.84491C63.6876 8.8987 63.738 8.93049 63.7998 8.94029L64.5303 9.05611C64.5921 9.06591 64.646 9.05067 64.692 9.01037C64.7458 8.97129 64.7775 8.9208 64.7873 8.8589L65.0646 7.10627L64.4617 7.01068Z" fill="black"/>
<path d="M71.8314 4.9905L71.0914 9.66805C70.9298 10.6894 70.3697 11.1242 69.4112 10.9722L67.8692 10.7277C66.9107 10.5757 66.5122 9.98904 66.6738 8.96764L67.4139 4.2901C67.5755 3.2687 68.1355 2.83398 69.094 2.98595L70.6361 3.23045C71.5946 3.38242 71.993 3.9691 71.8314 4.9905ZM69.4387 9.59639L70.2394 4.53582C70.2492 4.47392 70.2346 4.41607 70.1956 4.36229C70.1643 4.30974 70.1177 4.27856 70.0558 4.26875L69.3254 4.15294C69.2635 4.14313 69.2058 4.15777 69.152 4.19684C69.106 4.23714 69.0782 4.28824 69.0684 4.35015L68.2677 9.41072C68.2579 9.47262 68.2686 9.52985 68.3 9.5824C68.339 9.63619 68.3894 9.66798 68.4513 9.67778L69.1817 9.7936C69.2436 9.8034 69.2975 9.78815 69.3435 9.74785C69.3972 9.70878 69.4289 9.65829 69.4387 9.59639Z" fill="black"/>
<path d="M76.8678 5.78903L76.1278 10.4666C75.9662 11.488 75.4061 11.9227 74.4476 11.7707L72.9056 11.5262C71.9471 11.3743 71.5486 10.7876 71.7102 9.76617L72.4503 5.08862C72.6119 4.06722 73.1719 3.63251 74.1304 3.78448L75.6725 4.02898C76.631 4.18095 77.0294 4.76763 76.8678 5.78903ZM74.4751 10.3949L75.2758 5.33435C75.2856 5.27244 75.271 5.2146 75.232 5.16082C75.2007 5.10827 75.1541 5.07709 75.0922 5.06728L74.3618 4.95147C74.2999 4.94166 74.2422 4.9563 74.1884 4.99537C74.1424 5.03567 74.1146 5.08677 74.1048 5.14867L73.3041 10.2092C73.2943 10.2711 73.305 10.3284 73.3364 10.3809C73.3754 10.4347 73.4258 10.4665 73.4877 10.4763L74.2181 10.5921C74.28 10.6019 74.3339 10.5867 74.3799 10.5464C74.4336 10.5073 74.4653 10.4568 74.4751 10.3949Z" fill="black"/>
<path d="M80.6906 4.94357C81.649 5.09554 82.0475 5.68223 81.8859 6.70363L81.1825 11.149C81.0209 12.1704 80.4609 12.6051 79.5024 12.4532L76.5226 11.9807L77.7107 4.47112L80.6906 4.94357ZM79.5299 11.0774L80.2938 6.24894C80.3036 6.18704 80.289 6.1292 80.25 6.07542C80.2187 6.02286 80.1721 5.99168 80.1103 5.98188L79.1595 5.83113L78.3221 11.1238L79.2729 11.2746C79.3347 11.2844 79.3886 11.2691 79.4346 11.2288C79.4884 11.1898 79.5201 11.1393 79.5299 11.0774Z" fill="black"/>
<path d="M84.2336 10.1455L84.4228 8.95004L86.5678 9.29014L86.1307 12.0526C85.9691 13.074 85.4091 13.5087 84.4506 13.3567L82.9897 13.1251C82.0312 12.9731 81.6327 12.3864 81.7944 11.365L82.5344 6.68747C82.696 5.66607 83.2561 5.23136 84.2146 5.38333L85.6755 5.61496C86.634 5.76693 87.0324 6.35361 86.8708 7.37501L86.7588 8.08303L85.2167 7.83853L85.3599 6.9332C85.3697 6.87129 85.3551 6.81345 85.3161 6.75967C85.2848 6.70712 85.2382 6.67594 85.1764 6.66613L84.4459 6.55032C84.3841 6.54051 84.3263 6.55515 84.2726 6.59422C84.2266 6.63452 84.1987 6.68562 84.1889 6.74752L83.3882 11.8081C83.3784 11.87 83.3892 11.9272 83.4205 11.9798C83.4595 12.0336 83.5099 12.0654 83.5718 12.0752L84.3022 12.191C84.3641 12.2008 84.418 12.1855 84.464 12.1452C84.5177 12.1062 84.5495 12.0557 84.5593 11.9938L84.8366 10.2411L84.2336 10.1455Z" fill="black"/>
<path d="M90.4081 6.36532C91.3665 6.51729 91.765 7.10397 91.6034 8.12537L90.6393 14.2189L89.016 13.9616L89.4145 11.4429L88.2435 11.2572L87.845 13.7759L86.2217 13.5185L87.1858 7.42496C87.3474 6.40356 87.9075 5.96885 88.866 6.12082L90.4081 6.36532ZM88.4418 10.0037L89.6129 10.1894L90.0114 7.67069C90.0212 7.60878 90.0065 7.55094 89.9675 7.49716C89.9362 7.44461 89.8896 7.41343 89.8278 7.40362L89.0973 7.28781C89.0355 7.278 88.9777 7.29264 88.924 7.33171C88.878 7.37201 88.8501 7.42311 88.8403 7.48501L88.4418 10.0037Z" fill="black"/>
<path d="M95.5711 15.0009L93.9478 14.7435L94.934 8.51066C94.9437 8.44876 94.9291 8.39092 94.8901 8.33713C94.8588 8.28458 94.8122 8.2534 94.7504 8.2436L94.1243 8.14433C94.0624 8.13452 94.0047 8.14916 93.9509 8.18823C93.9049 8.22853 93.877 8.27963 93.8673 8.34153L92.8811 14.5744L91.2579 14.317L92.222 8.22345C92.3836 7.20205 92.9436 6.76733 93.9021 6.9193L95.3398 7.14726C96.2983 7.29923 96.6968 7.88591 96.5352 8.90731L95.5711 15.0009Z" fill="black"/>
<path d="M98.7427 12.446L98.9319 11.2505L101.077 11.5906L100.64 14.353C100.478 15.3744 99.9182 15.8091 98.9597 15.6571L97.4988 15.4255C96.5403 15.2735 96.1418 14.6869 96.3034 13.6655L97.0435 8.98791C97.2051 7.96651 97.7652 7.53179 98.7236 7.68376L100.185 7.91539C101.143 8.06736 101.541 8.65405 101.38 9.67545L101.268 10.3835L99.7258 10.139L99.869 9.23363C99.8788 9.17173 99.8642 9.11389 99.8252 9.06011C99.7939 9.00755 99.7473 8.97637 99.6855 8.96657L98.955 8.85075C98.8932 8.84095 98.8354 8.85558 98.7817 8.89466C98.7357 8.93496 98.7078 8.98606 98.698 9.04796L97.8973 14.1085C97.8875 14.1704 97.8983 14.2277 97.9296 14.2802C97.9686 14.334 98.019 14.3658 98.0809 14.3756L98.8113 14.4914C98.8732 14.5012 98.9271 14.486 98.9731 14.4457C99.0268 14.4066 99.0586 14.3561 99.0683 14.2942L99.3456 12.5416L98.7427 12.446Z" fill="black"/>
<path d="M104.335 14.9864L106.109 15.2677L105.892 16.6373L102.495 16.0987L103.683 8.58907L105.306 8.84643L104.335 14.9864Z" fill="black"/>
<path d="M110.268 9.51419C111.227 9.66616 111.625 10.2528 111.464 11.2742L110.5 17.3678L108.876 17.1104L109.275 14.5918L108.104 14.4061L107.705 16.9248L106.082 16.6674L107.046 10.5738C107.208 9.55243 107.768 9.11772 108.726 9.26969L110.268 9.51419ZM108.302 13.1526L109.473 13.3382L109.872 10.8196C109.881 10.7577 109.867 10.6998 109.828 10.646C109.796 10.5935 109.75 10.5623 109.688 10.5525L108.958 10.4367C108.896 10.4269 108.838 10.4415 108.784 10.4806C108.738 10.5209 108.71 10.572 108.701 10.6339L108.302 13.1526Z" fill="black"/>
<path d="M115.444 13.9398C115.918 14.1975 116.104 14.6474 116.003 15.2896L115.79 16.636C115.628 17.6574 115.068 18.0922 114.11 17.9402L111.13 17.4677L112.318 9.95813L115.205 10.4159C116.163 10.5678 116.562 11.1545 116.4 12.1759L116.292 12.8607C116.194 13.4798 115.911 13.8395 115.444 13.9398ZM114.625 11.4542L113.767 11.3181L113.449 13.3261L114.307 13.4622C114.369 13.472 114.423 13.4567 114.469 13.4164C114.522 13.3773 114.554 13.3268 114.564 13.2649L114.808 11.7212C114.818 11.6593 114.803 11.6015 114.764 11.5477C114.733 11.4952 114.686 11.464 114.625 11.4542ZM114.137 16.5644L114.403 14.8814C114.413 14.8195 114.398 14.7616 114.359 14.7079C114.328 14.6553 114.282 14.6241 114.22 14.6143L113.269 14.4636L112.929 16.6108L113.88 16.7616C113.942 16.7714 113.996 16.7561 114.042 16.7158C114.095 16.6768 114.127 16.6263 114.137 16.5644Z" fill="black"/>
<path d="M121.114 13.3754L119.572 13.1309L119.666 12.539C119.675 12.4771 119.661 12.4192 119.622 12.3654C119.59 12.3129 119.544 12.2817 119.482 12.2719L118.844 12.1708C118.782 12.161 118.725 12.1756 118.671 12.2147C118.625 12.255 118.597 12.3061 118.587 12.368L118.376 13.7028C118.366 13.7647 118.377 13.8219 118.408 13.8745C118.447 13.9283 118.498 13.96 118.56 13.9698L119.603 14.1353C120.559 14.3027 120.958 14.8894 120.798 15.8954L120.543 17.5087C120.382 18.5301 119.822 18.9648 118.863 18.8128L117.495 18.5959C116.536 18.444 116.138 17.8573 116.3 16.8359L116.423 16.0582L117.965 16.3027L117.832 17.1384C117.823 17.2003 117.833 17.2575 117.865 17.3101C117.904 17.3639 117.954 17.3957 118.016 17.4055L118.735 17.5194C118.797 17.5292 118.851 17.514 118.897 17.4737C118.95 17.4346 118.982 17.3841 118.992 17.3222L119.225 15.8482C119.235 15.7863 119.22 15.7284 119.181 15.6746C119.15 15.6221 119.103 15.5909 119.042 15.5811L117.998 15.4157C117.04 15.2637 116.641 14.677 116.803 13.6556L117.04 12.1583C117.201 11.1369 117.761 10.7022 118.72 10.8542L120.007 11.0582C120.965 11.2102 121.364 11.7969 121.202 12.8183L121.114 13.3754Z" fill="black"/>
<path d="M230.627 27.2351L231.18 25.1321L222.309 23.7256L217.768 35.0923L227.041 36.5626L226.498 38.6673L235.366 40.0733L239.908 28.7066L230.627 27.2351ZM223.005 24.9345L229.816 26.0144L228.984 29.1739L225.594 28.6364L225.868 27.593L224.782 27.4207L223.501 32.2824L225.598 32.6148L225.879 31.5608L224.866 31.4002L225.316 29.6914L228.706 30.2289L227.316 35.5076L219.289 34.2349L223.005 24.9345ZM234.67 38.8643L227.857 37.7841L228.249 36.2626L230.348 28.29L238.386 29.5644L237.175 32.5946L233.512 32.0137L233.786 30.9704L232.7 30.798L231.419 35.6598L233.516 35.9922L233.797 34.9382L232.784 34.7775L233.234 33.0687L236.762 33.6281L234.67 38.8643Z" fill="black"/>
<path d="M245.853 35.7709L246.042 34.5754L248.187 34.9155L247.75 37.6779C247.588 38.6993 247.028 39.1341 246.07 38.9821L244.609 38.7505C243.65 38.5985 243.252 38.0118 243.414 36.9904L244.154 32.3129C244.315 31.2915 244.875 30.8567 245.834 31.0087L247.295 31.2403C248.253 31.3923 248.652 31.979 248.49 33.0004L248.378 33.7084L246.836 33.4639L246.979 32.5586C246.989 32.4967 246.974 32.4388 246.935 32.3851C246.904 32.3325 246.857 32.3013 246.796 32.2915L246.065 32.1757C246.003 32.1659 245.945 32.1805 245.892 32.2196C245.846 32.2599 245.818 32.311 245.808 32.3729L245.007 37.4335C244.998 37.4954 245.008 37.5526 245.04 37.6052C245.079 37.6589 245.129 37.6907 245.191 37.7005L245.921 37.8164C245.983 37.8262 246.037 37.8109 246.083 37.7706C246.137 37.7315 246.169 37.6811 246.178 37.6192L246.456 35.8665L245.853 35.7709Z" fill="black"/>
<path d="M253.223 33.7508L252.482 38.4283C252.321 39.4497 251.761 39.8844 250.802 39.7324L249.26 39.4879C248.302 39.336 247.903 38.7493 248.065 37.7279L248.805 33.0503C248.967 32.029 249.527 31.5942 250.485 31.7462L252.027 31.9907C252.986 32.1427 253.384 32.7294 253.223 33.7508ZM250.83 38.3566L251.631 33.2961C251.64 33.2342 251.626 33.1763 251.587 33.1225C251.555 33.07 251.509 33.0388 251.447 33.029L250.717 32.9132C250.655 32.9034 250.597 32.918 250.543 32.9571C250.497 32.9974 250.469 33.0485 250.459 33.1104L249.659 38.171C249.649 38.2329 249.66 38.2901 249.691 38.3427C249.73 38.3964 249.781 38.4282 249.842 38.438L250.573 38.5539C250.635 38.5637 250.689 38.5484 250.735 38.5081C250.788 38.469 250.82 38.4185 250.83 38.3566Z" fill="black"/>
<path d="M258.259 34.5493L257.519 39.2268C257.357 40.2482 256.797 40.6829 255.839 40.531L254.297 40.2865C253.338 40.1345 252.94 39.5478 253.101 38.5264L253.841 33.8489C254.003 32.8275 254.563 32.3928 255.522 32.5447L257.064 32.7892C258.022 32.9412 258.421 33.5279 258.259 34.5493ZM255.866 39.1552L256.667 34.0946C256.677 34.0327 256.662 33.9749 256.623 33.9211C256.592 33.8685 256.545 33.8373 256.483 33.8275L255.753 33.7117C255.691 33.7019 255.633 33.7166 255.58 33.7556C255.534 33.7959 255.506 33.847 255.496 33.9089L254.695 38.9695C254.685 39.0314 254.696 39.0886 254.727 39.1412C254.766 39.195 254.817 39.2268 254.879 39.2366L255.609 39.3524C255.671 39.3622 255.725 39.3469 255.771 39.3066C255.825 39.2676 255.856 39.2171 255.866 39.1552Z" fill="black"/>
<path d="M262.082 33.7038C263.04 33.8558 263.439 34.4425 263.277 35.4639L262.574 39.9093C262.412 40.9307 261.852 41.3654 260.894 41.2134L257.914 40.741L259.102 33.2314L262.082 33.7038ZM260.921 39.8376L261.685 35.0092C261.695 34.9473 261.68 34.8895 261.641 34.8357C261.61 34.7831 261.563 34.7519 261.501 34.7421L260.551 34.5914L259.713 39.8841L260.664 40.0348C260.726 40.0446 260.78 40.0294 260.826 39.9891C260.879 39.95 260.911 39.8995 260.921 39.8376Z" fill="black"/>
<path d="M265.625 38.9058L265.814 37.7103L267.959 38.0504L267.522 40.8128C267.36 41.8342 266.8 42.2689 265.842 42.117L264.381 41.8853C263.422 41.7334 263.024 41.1467 263.185 40.1253L263.926 35.4477C264.087 34.4263 264.647 33.9916 265.606 34.1436L267.067 34.3752C268.025 34.5272 268.424 35.1139 268.262 36.1353L268.15 36.8433L266.608 36.5988L266.751 35.6935C266.761 35.6315 266.746 35.5737 266.707 35.5199C266.676 35.4674 266.629 35.4362 266.567 35.4264L265.837 35.3106C265.775 35.3008 265.717 35.3154 265.664 35.3545C265.618 35.3948 265.59 35.4459 265.58 35.5078L264.779 40.5683C264.77 40.6303 264.78 40.6875 264.812 40.74C264.851 40.7938 264.901 40.8256 264.963 40.8354L265.693 40.9512C265.755 40.961 265.809 40.9458 265.855 40.9055C265.909 40.8664 265.941 40.8159 265.95 40.754L266.228 39.0014L265.625 38.9058Z" fill="black"/>
<path d="M271.799 35.1256C272.758 35.2775 273.156 35.8642 272.994 36.8856L272.03 42.9792L270.407 42.7218L270.806 40.2032L269.635 40.0175L269.236 42.5362L267.613 42.2788L268.577 36.1852C268.739 35.1638 269.299 34.7291 270.257 34.8811L271.799 35.1256ZM269.833 38.7639L271.004 38.9496L271.402 36.4309C271.412 36.369 271.398 36.3112 271.359 36.2574C271.327 36.2049 271.281 36.1737 271.219 36.1639L270.488 36.0481C270.427 36.0383 270.369 36.0529 270.315 36.092C270.269 36.1323 270.241 36.1834 270.231 36.2453L269.833 38.7639Z" fill="black"/>
<path d="M276.962 43.7611L275.339 43.5038L276.325 37.2709C276.335 37.209 276.32 37.1512 276.281 37.0974C276.25 37.0448 276.203 37.0137 276.141 37.0038L275.515 36.9046C275.454 36.8948 275.396 36.9094 275.342 36.9485C275.296 36.9888 275.268 37.0399 275.258 37.1018L274.272 43.3346L272.649 43.0773L273.613 36.9837C273.775 35.9623 274.335 35.5276 275.293 35.6796L276.731 35.9075C277.689 36.0595 278.088 36.6462 277.926 37.6676L276.962 43.7611Z" fill="black"/>
<path d="M280.134 41.2062L280.323 40.0107L282.468 40.3508L282.031 43.1132C281.869 44.1346 281.309 44.5694 280.351 44.4174L278.89 44.1858C277.931 44.0338 277.533 43.4471 277.695 42.4257L278.435 37.7482C278.596 36.7268 279.156 36.292 280.115 36.444L281.576 36.6756C282.534 36.8276 282.933 37.4143 282.771 38.4357L282.659 39.1437L281.117 38.8992L281.26 37.9939C281.27 37.932 281.255 37.8741 281.216 37.8204C281.185 37.7678 281.138 37.7366 281.077 37.7268L280.346 37.611C280.284 37.6012 280.226 37.6158 280.173 37.6549C280.127 37.6952 280.099 37.7463 280.089 37.8082L279.288 42.8688C279.279 42.9307 279.289 42.9879 279.321 43.0405C279.36 43.0943 279.41 43.126 279.472 43.1358L280.202 43.2517C280.264 43.2615 280.318 43.2462 280.364 43.2059C280.418 43.1668 280.45 43.1164 280.459 43.0545L280.737 41.3018L280.134 41.2062Z" fill="black"/>
<path d="M285.726 43.7467L287.5 44.028L287.283 45.3976L283.886 44.8589L285.074 37.3493L286.697 37.6067L285.726 43.7467Z" fill="black"/>
<path d="M291.659 38.2744C292.618 38.4264 293.016 39.0131 292.855 40.0345L291.891 46.1281L290.267 45.8707L290.666 43.352L289.495 43.1664L289.096 45.685L287.473 45.4277L288.437 39.3341C288.599 38.3127 289.159 37.878 290.117 38.0299L291.659 38.2744ZM289.693 41.9128L290.864 42.0985L291.263 39.5798C291.273 39.5179 291.258 39.4601 291.219 39.4063C291.188 39.3537 291.141 39.3226 291.079 39.3127L290.349 39.1969C290.287 39.1871 290.229 39.2018 290.175 39.2408C290.129 39.2811 290.101 39.3322 290.092 39.3941L289.693 41.9128Z" fill="black"/>
<path d="M296.835 42.7001C297.309 42.9577 297.495 43.4077 297.394 44.0499L297.181 45.3963C297.019 46.4177 296.459 46.8524 295.501 46.7004L292.521 46.228L293.709 38.7184L296.596 39.1761C297.555 39.3281 297.953 39.9148 297.791 40.9362L297.683 41.621C297.585 42.24 297.302 42.5997 296.835 42.7001ZM296.016 40.2144L295.158 40.0784L294.84 42.0864L295.698 42.2224C295.76 42.2322 295.814 42.217 295.86 42.1767C295.914 42.1376 295.945 42.0871 295.955 42.0252L296.199 40.4815C296.209 40.4196 296.195 40.3618 296.155 40.308C296.124 40.2554 296.078 40.2242 296.016 40.2144ZM295.528 45.3246L295.794 43.6416C295.804 43.5797 295.79 43.5219 295.751 43.4681C295.719 43.4156 295.673 43.3844 295.611 43.3746L294.66 43.2238L294.32 45.3711L295.271 45.5218C295.333 45.5316 295.387 45.5164 295.433 45.4761C295.487 45.437 295.518 45.3865 295.528 45.3246Z" fill="black"/>
<path d="M302.505 42.1357L300.963 41.8912L301.057 41.2992C301.066 41.2373 301.052 41.1795 301.013 41.1257C300.981 41.0731 300.935 41.042 300.873 41.0322L300.235 40.931C300.174 40.9212 300.116 40.9359 300.062 40.975C300.016 41.0152 299.988 41.0664 299.978 41.1283L299.767 42.463C299.757 42.5249 299.768 42.5822 299.799 42.6347C299.838 42.6885 299.889 42.7203 299.951 42.7301L300.994 42.8956C301.95 43.063 302.349 43.6497 302.19 44.6556L301.934 46.269C301.773 47.2904 301.213 47.7251 300.254 47.5731L298.886 47.3562C297.928 47.2042 297.529 46.6175 297.691 45.5961L297.814 44.8185L299.356 45.063L299.224 45.8987C299.214 45.9606 299.225 46.0178 299.256 46.0703C299.295 46.1241 299.345 46.1559 299.407 46.1657L300.126 46.2797C300.188 46.2895 300.242 46.2743 300.288 46.234C300.341 46.1949 300.373 46.1444 300.383 46.0825L300.616 44.6084C300.626 44.5465 300.611 44.4887 300.572 44.4349C300.541 44.3823 300.495 44.3512 300.433 44.3414L299.389 44.1759C298.431 44.0239 298.032 43.4373 298.194 42.4159L298.431 40.9186C298.592 39.8972 299.152 39.4625 300.111 39.6144L301.398 39.8185C302.356 39.9705 302.755 40.5571 302.593 41.5785L302.505 42.1357Z" fill="black"/>
<path d="M139.933 12.8552L140.487 10.7522L131.616 9.34574L127.074 20.7124L136.348 22.1828L135.804 24.2874L144.672 25.6934L149.214 14.3267L139.933 12.8552ZM132.312 10.5547L139.122 11.6345L138.29 14.794L134.9 14.2565L135.175 13.2131L134.088 13.0408L132.808 17.9026L134.904 18.2349L135.185 17.1809L134.173 17.0204L134.623 15.3115L138.013 15.849L136.623 21.1277L128.595 19.855L132.312 10.5547ZM143.976 24.4844L137.163 23.4042L137.556 21.8827L139.655 13.9101L147.692 15.1845L146.481 18.2147L142.818 17.6339L143.093 16.5905L142.006 16.4182L140.726 21.2799L142.822 21.6123L143.104 20.5583L142.09 20.3977L142.54 18.6888L146.069 19.2482L143.976 24.4844Z" fill="black"/>
<path d="M155.159 21.391L155.348 20.1955L157.493 20.5356L157.056 23.2981C156.895 24.3195 156.335 24.7542 155.376 24.6022L153.915 24.3706C152.957 24.2186 152.558 23.6319 152.72 22.6105L153.46 17.933C153.622 16.9116 154.182 16.4769 155.14 16.6288L156.601 16.8605C157.56 17.0124 157.958 17.5991 157.796 18.6205L157.684 19.3285L156.142 19.084L156.286 18.1787C156.295 18.1168 156.281 18.059 156.242 18.0052C156.21 17.9526 156.164 17.9214 156.102 17.9116L155.371 17.7958C155.31 17.786 155.252 17.8007 155.198 17.8397C155.152 17.88 155.124 17.9311 155.114 17.993L154.314 23.0536C154.304 23.1155 154.315 23.1727 154.346 23.2253C154.385 23.2791 154.436 23.3109 154.497 23.3207L155.228 23.4365C155.29 23.4463 155.344 23.431 155.39 23.3907C155.443 23.3517 155.475 23.3012 155.485 23.2393L155.762 21.4866L155.159 21.391Z" fill="black"/>
<path d="M162.529 19.3709L161.789 24.0484C161.627 25.0698 161.067 25.5045 160.109 25.3526L158.567 25.1081C157.608 24.9561 157.21 24.3694 157.371 23.348L158.111 18.6705C158.273 17.6491 158.833 17.2144 159.792 17.3663L161.334 17.6108C162.292 17.7628 162.691 18.3495 162.529 19.3709ZM160.136 23.9768L160.937 18.9162C160.947 18.8543 160.932 18.7964 160.893 18.7427C160.862 18.6901 160.815 18.6589 160.753 18.6491L160.023 18.5333C159.961 18.5235 159.903 18.5381 159.85 18.5772C159.804 18.6175 159.776 18.6686 159.766 18.7305L158.965 23.7911C158.955 23.853 158.966 23.9102 158.997 23.9628C159.036 24.0166 159.087 24.0483 159.149 24.0582L159.879 24.174C159.941 24.1838 159.995 24.1685 160.041 24.1282C160.095 24.0892 160.126 24.0387 160.136 23.9768Z" fill="black"/>
<path d="M167.565 20.1694L166.825 24.8469C166.664 25.8683 166.104 26.3031 165.145 26.1511L163.603 25.9066C162.645 25.7546 162.246 25.1679 162.408 24.1465L163.148 19.469C163.309 18.4476 163.869 18.0129 164.828 18.1648L166.37 18.4093C167.329 18.5613 167.727 19.148 167.565 20.1694ZM165.173 24.7753L165.973 19.7147C165.983 19.6528 165.968 19.595 165.929 19.5412C165.898 19.4886 165.852 19.4575 165.79 19.4477L165.059 19.3318C164.997 19.322 164.94 19.3367 164.886 19.3757C164.84 19.416 164.812 19.4671 164.802 19.529L164.002 24.5896C163.992 24.6515 164.003 24.7087 164.034 24.7613C164.073 24.8151 164.123 24.8469 164.185 24.8567L164.916 24.9725C164.977 24.9823 165.031 24.9671 165.077 24.9268C165.131 24.8877 165.163 24.8372 165.173 24.7753Z" fill="black"/>
<path d="M171.388 19.3239C172.347 19.4759 172.745 20.0626 172.583 21.084L171.88 25.5294C171.718 26.5508 171.158 26.9855 170.2 26.8336L167.22 26.3611L168.408 18.8515L171.388 19.3239ZM170.227 25.4577L170.991 20.6293C171.001 20.5674 170.987 20.5096 170.948 20.4558C170.916 20.4032 170.87 20.3721 170.808 20.3622L169.857 20.2115L169.02 25.5042L169.97 25.655C170.032 25.6648 170.086 25.6495 170.132 25.6092C170.186 25.5701 170.218 25.5197 170.227 25.4577Z" fill="black"/>
<path d="M174.931 24.5259L175.12 23.3304L177.265 23.6705L176.828 26.4329C176.667 27.4543 176.107 27.889 175.148 27.7371L173.687 27.5054C172.729 27.3535 172.33 26.7668 172.492 25.7454L173.232 21.0678C173.394 20.0464 173.954 19.6117 174.912 19.7637L176.373 19.9953C177.331 20.1473 177.73 20.734 177.568 21.7554L177.456 22.4634L175.914 22.2189L176.057 21.3136C176.067 21.2517 176.053 21.1938 176.014 21.14C175.982 21.0875 175.936 21.0563 175.874 21.0465L175.143 20.9307C175.082 20.9209 175.024 20.9355 174.97 20.9746C174.924 21.0149 174.896 21.066 174.886 21.1279L174.086 26.1885C174.076 26.2504 174.087 26.3076 174.118 26.3602C174.157 26.4139 174.207 26.4457 174.269 26.4555L175 26.5713C175.062 26.5812 175.116 26.5659 175.161 26.5256C175.215 26.4865 175.247 26.436 175.257 26.3741L175.534 24.6215L174.931 24.5259Z" fill="black"/>
<path d="M181.106 20.7457C182.064 20.8977 182.462 21.4843 182.301 22.5057L181.337 28.5993L179.714 28.3419L180.112 25.8233L178.941 25.6376L178.542 28.1563L176.919 27.8989L177.883 21.8053C178.045 20.7839 178.605 20.3492 179.563 20.5012L181.106 20.7457ZM179.139 24.3841L180.31 24.5697L180.709 22.0511C180.719 21.9892 180.704 21.9313 180.665 21.8775C180.634 21.825 180.587 21.7938 180.525 21.784L179.795 21.6682C179.733 21.6584 179.675 21.673 179.621 21.7121C179.576 21.7524 179.548 21.8035 179.538 21.8654L179.139 24.3841Z" fill="black"/>
<path d="M186.269 29.3813L184.645 29.1239L185.631 22.891C185.641 22.8291 185.627 22.7713 185.588 22.7175C185.556 22.665 185.51 22.6338 185.448 22.624L184.822 22.5247C184.76 22.5149 184.702 22.5295 184.648 22.5686C184.602 22.6089 184.575 22.66 184.565 22.7219L183.579 28.9548L181.955 28.6974L182.919 22.6038C183.081 21.5824 183.641 21.1477 184.6 21.2997L186.037 21.5276C186.996 21.6796 187.394 22.2663 187.233 23.2877L186.269 29.3813Z" fill="black"/>
<path d="M189.44 26.8264L189.629 25.6308L191.774 25.9709L191.337 28.7334C191.176 29.7548 190.616 30.1895 189.657 30.0375L188.196 29.8059C187.238 29.6539 186.839 29.0672 187.001 28.0458L187.741 23.3683C187.903 22.3469 188.463 21.9122 189.421 22.0641L190.882 22.2958C191.841 22.4477 192.239 23.0344 192.077 24.0558L191.965 24.7638L190.423 24.5193L190.567 23.614C190.576 23.5521 190.562 23.4943 190.523 23.4405C190.491 23.3879 190.445 23.3567 190.383 23.3469L189.653 23.2311C189.591 23.2213 189.533 23.236 189.479 23.275C189.433 23.3153 189.405 23.3664 189.395 23.4283L188.595 28.4889C188.585 28.5508 188.596 28.608 188.627 28.6606C188.666 28.7144 188.717 28.7462 188.778 28.756L189.509 28.8718C189.571 28.8816 189.625 28.8663 189.671 28.826C189.724 28.787 189.756 28.7365 189.766 28.6746L190.043 26.9219L189.44 26.8264Z" fill="black"/>
<path d="M195.032 29.3668L196.806 29.6481L196.59 31.0177L193.192 30.479L194.381 22.9694L196.004 23.2268L195.032 29.3668Z" fill="black"/>
<path d="M200.966 23.8946C201.924 24.0465 202.323 24.6332 202.161 25.6546L201.197 31.7482L199.574 31.4908L199.972 28.9721L198.801 28.7865L198.403 31.3051L196.78 31.0478L197.744 24.9542C197.905 23.9328 198.465 23.4981 199.424 23.6501L200.966 23.8946ZM199 27.5329L200.171 27.7186L200.569 25.1999C200.579 25.138 200.564 25.0802 200.525 25.0264C200.494 24.9738 200.447 24.9427 200.386 24.9329L199.655 24.817C199.593 24.8072 199.535 24.8219 199.482 24.861C199.436 24.9013 199.408 24.9524 199.398 25.0143L199 27.5329Z" fill="black"/>
<path d="M206.141 28.3202C206.615 28.5778 206.802 29.0278 206.7 29.67L206.487 31.0164C206.326 32.0378 205.766 32.4725 204.807 32.3206L201.827 31.8481L203.015 24.3385L205.902 24.7962C206.861 24.9482 207.259 25.5349 207.098 26.5563L206.989 27.2411C206.891 27.8601 206.609 28.2198 206.141 28.3202ZM205.322 25.8345L204.464 25.6985L204.146 27.7065L205.004 27.8425C205.066 27.8523 205.12 27.8371 205.166 27.7968C205.22 27.7577 205.252 27.7072 205.261 27.6453L205.506 26.1016C205.516 26.0397 205.501 25.9819 205.462 25.9281C205.431 25.8755 205.384 25.8444 205.322 25.8345ZM204.835 30.9448L205.101 29.2618C205.111 29.1999 205.096 29.142 205.057 29.0882C205.026 29.0357 204.979 29.0045 204.917 28.9947L203.966 28.844L203.627 30.9912L204.578 31.142C204.639 31.1518 204.693 31.1365 204.739 31.0962C204.793 31.0571 204.825 31.0067 204.835 30.9448Z" fill="black"/>
<path d="M211.811 27.7558L210.269 27.5113L210.363 26.9193C210.373 26.8574 210.358 26.7996 210.319 26.7458C210.288 26.6933 210.241 26.6621 210.179 26.6523L209.542 26.5512C209.48 26.5414 209.422 26.556 209.368 26.5951C209.322 26.6354 209.295 26.6865 209.285 26.7484L209.074 28.0832C209.064 28.1451 209.075 28.2023 209.106 28.2548C209.145 28.3086 209.195 28.3404 209.257 28.3502L210.301 28.5157C211.257 28.6831 211.655 29.2698 211.496 30.2757L211.241 31.8891C211.079 32.9105 210.519 33.3452 209.561 33.1932L208.192 32.9763C207.234 32.8243 206.835 32.2376 206.997 31.2162L207.12 30.4386L208.662 30.6831L208.53 31.5188C208.52 31.5807 208.531 31.6379 208.562 31.6905C208.601 31.7442 208.652 31.776 208.714 31.7858L209.432 31.8998C209.494 31.9096 209.548 31.8944 209.594 31.8541C209.648 31.815 209.68 31.7645 209.689 31.7026L209.923 30.2285C209.932 30.1666 209.918 30.1088 209.879 30.055C209.848 30.0025 209.801 29.9713 209.739 29.9615L208.696 29.796C207.737 29.6441 207.339 29.0574 207.5 28.036L207.737 26.5387C207.899 25.5173 208.459 25.0826 209.417 25.2345L210.704 25.4386C211.663 25.5906 212.061 26.1773 211.9 27.1987L211.811 27.7558Z" fill="black"/>
<path d="M321.32 41.6145L321.874 39.5115L313.003 38.105L308.461 49.4717L317.735 50.942L317.192 53.0467L326.059 54.4526L330.601 43.086L321.32 41.6145ZM313.699 39.3139L320.51 40.3938L319.677 43.5532L316.287 43.0158L316.562 41.9724L315.475 41.8001L314.195 46.6618L316.292 46.9942L316.573 45.9402L315.56 45.7796L316.01 44.0708L319.4 44.6083L318.01 49.887L309.983 48.6143L313.699 39.3139ZM325.364 53.2437L318.55 52.1635L318.943 50.642L321.042 42.6694L329.08 43.9438L327.869 46.974L324.206 46.3931L324.48 45.3497L323.393 45.1774L322.113 50.0392L324.21 50.3716L324.491 49.3176L323.478 49.1569L323.928 47.4481L327.456 48.0075L325.364 53.2437Z" fill="black"/>
<rect width="1359.74" height="37.6025" transform="matrix(0.970236 0.242162 -0.241682 0.970356 -806.547 -161.701)" fill="#84FB72"/>
<path d="M-53.2046 47.2962L-52.8145 45.7303L-50.0049 46.4316L-50.9061 50.0499C-51.2393 51.3878 -52.0337 51.9001 -53.2892 51.5867L-55.2028 51.1091C-56.4582 50.7958 -56.9194 49.9701 -56.5861 48.6323L-55.0601 42.5054C-54.7269 41.1675 -53.9326 40.6552 -52.6771 40.9686L-50.7635 41.4462C-49.508 41.7595 -49.0469 42.5852 -49.3801 43.923L-49.6111 44.8504L-51.631 44.3463L-51.3356 43.1604C-51.3154 43.0794 -51.3282 43.0008 -51.3738 42.9248C-51.4092 42.8514 -51.4675 42.8046 -51.5485 42.7844L-52.5053 42.5455C-52.5863 42.5253 -52.6647 42.538 -52.7406 42.5837C-52.8064 42.6319 -52.8494 42.6965 -52.8696 42.7776L-54.5205 49.4062C-54.5407 49.4873 -54.5331 49.5645 -54.4976 49.638C-54.452 49.714 -54.3887 49.7621 -54.3077 49.7823L-53.3509 50.0211C-53.2699 50.0413 -53.1965 50.0273 -53.1307 49.9791C-53.0548 49.9335 -53.0068 49.8701 -52.9866 49.789L-52.4148 47.4934L-53.2046 47.2962Z" fill="black"/>
<path d="M-43.1811 45.4703L-44.7071 51.5972C-45.0403 52.935 -45.8347 53.4473 -47.0902 53.1339L-49.1101 52.6298C-50.3655 52.3164 -50.8267 51.4908 -50.4934 50.1529L-48.9674 44.026C-48.6342 42.6882 -47.8399 42.1759 -46.5844 42.4892L-44.5645 42.9934C-43.309 43.3067 -42.8479 44.1324 -43.1811 45.4703ZM-46.8939 51.3097L-45.243 44.6811C-45.2228 44.6 -45.2355 44.5215 -45.2811 44.4455C-45.3165 44.3721 -45.3748 44.3252 -45.4558 44.305L-46.4126 44.0662C-46.4936 44.046 -46.572 44.0587 -46.6479 44.1044C-46.7137 44.1526 -46.7567 44.2172 -46.7769 44.2983L-48.4278 50.9269C-48.448 51.008 -48.4404 51.0852 -48.4049 51.1587C-48.3593 51.2346 -48.296 51.2827 -48.215 51.303L-47.2582 51.5418C-47.1772 51.562 -47.1038 51.548 -47.0381 51.4998C-46.9622 51.4542 -46.9141 51.3908 -46.8939 51.3097Z" fill="black"/>
<path d="M-36.5842 47.1168L-38.1102 53.2437C-38.4434 54.5816 -39.2377 55.0938 -40.4932 54.7805L-42.5131 54.2763C-43.7686 53.963 -44.2297 53.1374 -43.8965 51.7995L-42.3705 45.6726C-42.0373 44.3347 -41.2429 43.8224 -39.9875 44.1358L-37.9676 44.6399C-36.7121 44.9533 -36.2509 45.7789 -36.5842 47.1168ZM-40.297 52.9563L-38.646 46.3277C-38.6258 46.2466 -38.6385 46.168 -38.6841 46.0921C-38.7196 46.0186 -38.7778 45.9718 -38.8588 45.9516L-39.8156 45.7128C-39.8966 45.6925 -39.9751 45.7053 -40.051 45.7509C-40.1167 45.7991 -40.1597 45.8637 -40.1799 45.9448L-41.8309 52.5734C-41.8511 52.6545 -41.8434 52.7318 -41.808 52.8052C-41.7623 52.8812 -41.699 52.9293 -41.6181 52.9495L-40.6613 53.1883C-40.5803 53.2085 -40.5069 53.1945 -40.4411 53.1464C-40.3652 53.1007 -40.3172 53.0373 -40.297 52.9563Z" fill="black"/>
<path d="M-31.4085 46.4385C-30.153 46.7519 -29.6919 47.5775 -30.0251 48.9154L-31.4754 54.7382C-31.8086 56.0761 -32.6029 56.5883 -33.8584 56.275L-37.7615 55.3008L-35.3116 45.4643L-31.4085 46.4385ZM-33.6621 54.4508L-32.0869 48.1262C-32.0667 48.0451 -32.0794 47.9666 -32.125 47.8906C-32.1605 47.8172 -32.2188 47.7704 -32.2997 47.7501L-33.5451 47.4393L-35.2718 54.372L-34.0264 54.6828C-33.9454 54.703 -33.8721 54.689 -33.8063 54.6409C-33.7304 54.5952 -33.6823 54.5319 -33.6621 54.4508Z" fill="black"/>
<path d="M-27.3062 53.7602L-26.9162 52.1943L-24.1065 52.8956L-25.0078 56.5139C-25.341 57.8518 -26.1353 58.3641 -27.3908 58.0507L-29.3044 57.5731C-30.5599 57.2598 -31.021 56.4341 -30.6878 55.0963L-29.1618 48.9694C-28.8285 47.6315 -28.0342 47.1192 -26.7787 47.4326L-24.8651 47.9102C-23.6097 48.2235 -23.1485 49.0491 -23.4817 50.387L-23.7127 51.3144L-25.7326 50.8103L-25.4373 49.6244C-25.4171 49.5433 -25.4298 49.4648 -25.4754 49.3888C-25.5109 49.3154 -25.5691 49.2686 -25.6501 49.2483L-26.6069 49.0095C-26.6879 48.9893 -26.7663 49.002 -26.8422 49.0477C-26.908 49.0959 -26.951 49.1605 -26.9712 49.2416L-28.6221 55.8702C-28.6423 55.9513 -28.6347 56.0285 -28.5992 56.102C-28.5536 56.178 -28.4903 56.2261 -28.4093 56.2463L-27.4525 56.4851C-27.3715 56.5053 -27.2981 56.4913 -27.2324 56.4431C-27.1565 56.3975 -27.1084 56.3341 -27.0882 56.253L-26.5165 53.9573L-27.3062 53.7602Z" fill="black"/>
<path d="M-18.6661 49.4574C-17.4107 49.7707 -16.9495 50.5964 -17.2828 51.9342L-19.2707 59.9159L-21.3969 59.3853L-20.5752 56.0862L-22.1091 55.7033L-22.9308 59.0024L-25.0571 58.4717L-23.0691 50.49C-22.7359 49.1521 -21.9415 48.6399 -20.686 48.9532L-18.6661 49.4574ZM-21.7002 54.0614L-20.1663 54.4442L-19.3446 51.1451C-19.3244 51.064 -19.3371 50.9855 -19.3827 50.9095C-19.4182 50.8361 -19.4764 50.7892 -19.5574 50.769L-20.5142 50.5302C-20.5952 50.51 -20.6737 50.5227 -20.7496 50.5684C-20.8153 50.6165 -20.8583 50.6812 -20.8785 50.7623L-21.7002 54.0614Z" fill="black"/>
<path d="M-12.8108 61.5283L-14.937 60.9976L-12.9036 52.8335C-12.8834 52.7524 -12.8961 52.6738 -12.9417 52.5979C-12.9772 52.5244 -13.0354 52.4776 -13.1164 52.4574L-13.9366 52.2527C-14.0175 52.2325 -14.096 52.2452 -14.1719 52.2908C-14.2377 52.339 -14.2806 52.4036 -14.3008 52.4847L-16.3342 60.6489L-18.4605 60.1182L-16.4725 52.1365C-16.1393 50.7986 -15.3449 50.2863 -14.0894 50.5997L-12.2062 51.0697C-10.9508 51.3831 -10.4896 52.2087 -10.8228 53.5466L-12.8108 61.5283Z" fill="black"/>
<path d="M-8.30141 58.5037L-7.91139 56.9377L-5.10175 57.639L-6.00296 61.2574C-6.33618 62.5952 -7.13053 63.1075 -8.38601 62.7941L-10.2996 62.3165C-11.5551 62.0032 -12.0162 61.1776 -11.683 59.8397L-10.157 53.7128C-9.82376 52.3749 -9.02941 51.8626 -7.77393 52.176L-5.86034 52.6536C-4.60487 52.9669 -4.14374 53.7926 -4.47696 55.1304L-4.70794 56.0578L-6.72784 55.5537L-6.43249 54.3678C-6.41229 54.2868 -6.425 54.2082 -6.4706 54.1323C-6.50608 54.0588 -6.56431 54.012 -6.64531 53.9918L-7.60211 53.753C-7.68311 53.7327 -7.76156 53.7455 -7.83745 53.7911C-7.90322 53.8393 -7.9462 53.9039 -7.9664 53.985L-9.61736 60.6136C-9.63755 60.6947 -9.62991 60.772 -9.59443 60.8454C-9.54883 60.9214 -9.48553 60.9695 -9.40453 60.9897L-8.44773 61.2285C-8.36674 61.2487 -8.29335 61.2347 -8.22758 61.1866C-8.15169 61.1409 -8.10364 61.0775 -8.08345 60.9965L-7.51167 58.7008L-8.30141 58.5037Z" fill="black"/>
<path d="M-1.16852 62.5286L1.15512 63.1085L0.708304 64.9025L-3.74155 63.7919L-1.29162 53.9554L0.834595 54.4861L-1.16852 62.5286Z" fill="black"/>
<path d="M7.34791 55.9502C8.60339 56.2636 9.06452 57.0892 8.7313 58.4271L6.74333 66.4088L4.61712 65.8781L5.43881 62.579L3.9049 62.1962L3.08321 65.4953L0.956996 64.9646L2.94496 56.9829C3.27818 55.645 4.07253 55.1327 5.32801 55.4461L7.34791 55.9502ZM4.31386 60.5542L5.84776 60.9371L6.66946 57.638C6.68965 57.5569 6.67695 57.4784 6.63134 57.4024C6.59586 57.3289 6.53763 57.2821 6.45663 57.2619L5.49983 57.0231C5.41884 57.0029 5.34039 57.0156 5.26449 57.0612C5.19872 57.1094 5.15574 57.174 5.13555 57.2551L4.31386 60.5542Z" fill="black"/>
<path d="M13.7084 62.4307C14.3084 62.8281 14.5037 63.4474 14.2942 64.2886L13.8549 66.0522C13.5217 67.3901 12.7274 67.9024 11.4719 67.589L7.56878 66.6148L10.0187 56.7783L13.8003 57.7222C15.0558 58.0355 15.5169 58.8612 15.1837 60.1991L14.9603 61.096C14.7583 61.9069 14.341 62.3518 13.7084 62.4307ZM12.909 59.0338L11.7852 58.7533L11.1301 61.3835L12.254 61.664C12.335 61.6842 12.4083 61.6702 12.4741 61.622C12.55 61.5764 12.5981 61.513 12.6183 61.4319L13.1219 59.4099C13.1421 59.3288 13.1294 59.2503 13.0838 59.1743C13.0483 59.1009 12.9901 59.054 12.909 59.0338ZM11.6681 65.7648L12.2172 63.5603C12.2374 63.4792 12.2247 63.4007 12.1791 63.3247C12.1436 63.2513 12.0854 63.2044 12.0044 63.1842L10.759 62.8734L10.0585 65.686L11.3039 65.9968C11.3849 66.017 11.4582 66.0031 11.524 65.9549C11.5999 65.9092 11.648 65.8459 11.6681 65.7648Z" fill="black"/>
<path d="M21.3055 62.3406L19.2856 61.8365L19.4787 61.0611C19.4989 60.98 19.4862 60.9015 19.4406 60.8255C19.4051 60.7521 19.3469 60.7052 19.2659 60.685L18.4306 60.4765C18.3496 60.4563 18.2711 60.469 18.1953 60.5147C18.1295 60.5629 18.0865 60.6275 18.0663 60.7086L17.6308 62.457C17.6107 62.538 17.6183 62.6153 17.6538 62.6888C17.6994 62.7647 17.7627 62.8128 17.8437 62.8331L19.2105 63.1742C20.4609 63.5078 20.9221 64.3334 20.5939 65.6511L20.0676 67.7643C19.7343 69.1022 18.94 69.6145 17.6845 69.3011L15.8924 68.8538C14.637 68.5405 14.1758 67.7148 14.509 66.377L14.7627 65.3583L16.7826 65.8625L16.51 66.9571C16.4898 67.0382 16.4975 67.1155 16.5329 67.1889C16.5785 67.2649 16.6418 67.313 16.7228 67.3332L17.6644 67.5682C17.7454 67.5884 17.8188 67.5745 17.8846 67.5263C17.9605 67.4806 18.0085 67.4173 18.0287 67.3362L18.5096 65.4054C18.5298 65.3243 18.5171 65.2458 18.4715 65.1698C18.436 65.0963 18.3778 65.0495 18.2968 65.0293L16.93 64.6881C15.6745 64.3748 15.2134 63.5492 15.5466 62.2113L16.035 60.2501C16.3683 58.9122 17.1626 58.3999 18.4181 58.7133L20.1039 59.134C21.3593 59.4474 21.8205 60.273 21.4873 61.6109L21.3055 62.3406Z" fill="black"/>
<path d="M46.3629 63.838L47.3425 61.1091L35.723 58.209L28.3706 72.7785L40.5179 75.8103L39.5518 78.5426L51.1671 81.4417L58.5196 66.8722L46.3629 63.838ZM36.5068 59.8957L45.4276 62.1222L43.9556 66.222L39.5151 65.1138L40.0012 63.7598L38.5776 63.4045L36.3129 69.7133L39.0588 70.3987L39.5548 69.0314L38.2283 68.7003L39.0242 66.4829L43.4646 67.5911L41.0056 74.441L30.491 71.8166L36.5068 59.8957ZM50.3833 79.755L41.4589 77.5275L42.157 75.5523L45.871 65.2069L56.399 67.8346L54.4389 71.7186L49.6404 70.5209L50.1264 69.167L48.7028 68.8117L46.4381 75.1204L49.184 75.8058L49.68 74.4385L48.353 74.1073L49.1489 71.8899L53.7704 73.0434L50.3833 79.755Z" fill="black"/>
<path d="M65.596 76.9471L65.986 75.3812L68.7956 76.0825L67.8944 79.7008C67.5612 81.0387 66.7669 81.551 65.5114 81.2376L63.5978 80.76C62.3423 80.4466 61.8812 79.621 62.2144 78.2831L63.7404 72.1562C64.0736 70.8184 64.868 70.3061 66.1234 70.6194L68.037 71.0971C69.2925 71.4104 69.7536 72.236 69.4204 73.5739L69.1894 74.5013L67.1695 73.9972L67.4649 72.8113C67.4851 72.7302 67.4724 72.6517 67.4268 72.5757C67.3913 72.5023 67.3331 72.4554 67.2521 72.4352L66.2953 72.1964C66.2143 72.1762 66.1358 72.1889 66.0599 72.2346C65.9942 72.2828 65.9512 72.3474 65.931 72.4285L64.28 79.0571C64.2598 79.1382 64.2675 79.2154 64.303 79.2889C64.3486 79.3649 64.4119 79.4129 64.4929 79.4332L65.4496 79.672C65.5306 79.6922 65.604 79.6782 65.6698 79.63C65.7457 79.5844 65.7937 79.521 65.8139 79.4399L66.3857 77.1442L65.596 76.9471Z" fill="black"/>
<path d="M75.6194 75.1211L74.0934 81.248C73.7602 82.5859 72.9658 83.0982 71.7104 82.7848L69.6905 82.2807C68.435 81.9673 67.9739 81.1417 68.3071 79.8038L69.8331 73.6769C70.1663 72.339 70.9607 71.8268 72.2161 72.1401L74.236 72.6443C75.4915 72.9576 75.9526 73.7832 75.6194 75.1211ZM71.9066 80.9606L73.5576 74.332C73.5778 74.2509 73.5651 74.1724 73.5195 74.0964C73.484 74.023 73.4258 73.9761 73.3448 73.9559L72.388 73.7171C72.307 73.6969 72.2285 73.7096 72.1526 73.7553C72.0868 73.8034 72.0439 73.8681 72.0237 73.9491L70.3727 80.5778C70.3525 80.6588 70.3602 80.7361 70.3956 80.8096C70.4412 80.8855 70.5045 80.9336 70.5855 80.9538L71.5423 81.1926C71.6233 81.2129 71.6967 81.1989 71.7625 81.1507C71.8384 81.1051 71.8864 81.0417 71.9066 80.9606Z" fill="black"/>
<path d="M82.2164 76.7677L80.6904 82.8946C80.3571 84.2325 79.5628 84.7447 78.3073 84.4314L76.2874 83.9272C75.0319 83.6139 74.5708 82.7882 74.904 81.4504L76.43 75.3235C76.7633 73.9856 77.5576 73.4733 78.8131 73.7867L80.833 74.2908C82.0885 74.6042 82.5496 75.4298 82.2164 76.7677ZM78.5036 82.6071L80.1545 75.9785C80.1747 75.8974 80.162 75.8189 80.1164 75.7429C80.0809 75.6695 80.0227 75.6227 79.9417 75.6024L78.9849 75.3636C78.9039 75.3434 78.8255 75.3561 78.7496 75.4018C78.6838 75.45 78.6408 75.5146 78.6206 75.5957L76.9697 82.2243C76.9495 82.3054 76.9571 82.3826 76.9926 82.4561C77.0382 82.5321 77.1015 82.5802 77.1825 82.6004L78.1393 82.8392C78.2203 82.8594 78.2937 82.8454 78.3594 82.7972C78.4353 82.7516 78.4834 82.6882 78.5036 82.6071Z" fill="black"/>
<path d="M87.3921 76.0894C88.6475 76.4027 89.1087 77.2284 88.7755 78.5662L87.3252 84.3891C86.992 85.727 86.1976 86.2392 84.9421 85.9259L81.039 84.9517L83.489 75.1152L87.3921 76.0894ZM85.1384 84.1016L86.7136 77.7771C86.7338 77.696 86.7211 77.6175 86.6755 77.5415C86.64 77.4681 86.5818 77.4212 86.5008 77.401L85.2554 77.0902L83.5287 84.0229L84.7741 84.3337C84.8551 84.3539 84.9285 84.3399 84.9943 84.2917C85.0701 84.2461 85.1182 84.1827 85.1384 84.1016Z" fill="black"/>
<path d="M91.4943 83.4111L91.8844 81.8452L94.694 82.5464L93.7928 86.1648C93.4596 87.5027 92.6652 88.015 91.4097 87.7016L89.4961 87.224C88.2407 86.9106 87.7795 86.085 88.1128 84.7471L89.6388 78.6202C89.972 77.2823 90.7663 76.7701 92.0218 77.0834L93.9354 77.5611C95.1909 77.8744 95.652 78.7 95.3188 80.0379L95.0878 80.9653L93.0679 80.4612L93.3633 79.2753C93.3835 79.1942 93.3708 79.1157 93.3251 79.0397C93.2897 78.9663 93.2314 78.9194 93.1504 78.8992L92.1936 78.6604C92.1126 78.6402 92.0342 78.6529 91.9583 78.6986C91.8925 78.7467 91.8495 78.8114 91.8294 78.8925L90.1784 85.5211C90.1582 85.6022 90.1658 85.6794 90.2013 85.7529C90.2469 85.8288 90.3102 85.8769 90.3912 85.8972L91.348 86.136C91.429 86.1562 91.5024 86.1422 91.5682 86.094C91.6441 86.0484 91.6921 85.985 91.7123 85.9039L92.2841 83.6082L91.4943 83.4111Z" fill="black"/>
<path d="M100.134 79.1083C101.39 79.4216 101.851 80.2472 101.518 81.5851L99.5298 89.5668L97.4036 89.0361L98.2253 85.737L96.6914 85.3542L95.8697 88.6533L93.7435 88.1226L95.7315 80.1409C96.0647 78.803 96.859 78.2908 98.1145 78.6041L100.134 79.1083ZM97.1003 83.7122L98.6343 84.0951L99.4559 80.796C99.4761 80.7149 99.4634 80.6364 99.4178 80.5604C99.3824 80.4869 99.3241 80.4401 99.2431 80.4199L98.2863 80.1811C98.2053 80.1609 98.1269 80.1736 98.051 80.2192C97.9852 80.2674 97.9422 80.3321 97.922 80.4131L97.1003 83.7122Z" fill="black"/>
<path d="M105.99 91.1792L103.864 90.6485L105.897 82.4843C105.917 82.4032 105.904 82.3247 105.859 82.2487C105.823 82.1753 105.765 82.1285 105.684 82.1082L104.864 81.9036C104.783 81.8833 104.705 81.8961 104.629 81.9417C104.563 81.9899 104.52 82.0545 104.5 82.1356L102.466 90.2997L100.34 89.7691L102.328 81.7874C102.661 80.4495 103.456 79.9372 104.711 80.2506L106.594 80.7206C107.85 81.0339 108.311 81.8596 107.978 83.1975L105.99 91.1792Z" fill="black"/>
<path d="M110.499 88.1545L110.889 86.5886L113.699 87.2899L112.798 90.9082C112.464 92.2461 111.67 92.7584 110.415 92.445L108.501 91.9674C107.245 91.6541 106.784 90.8284 107.118 89.4906L108.644 83.3636C108.977 82.0258 109.771 81.5135 111.027 81.8269L112.94 82.3045C114.196 82.6178 114.657 83.4434 114.324 84.7813L114.093 85.7087L112.073 85.2046L112.368 84.0187C112.388 83.9376 112.376 83.8591 112.33 83.7831C112.294 83.7097 112.236 83.6629 112.155 83.6426L111.198 83.4038C111.117 83.3836 111.039 83.3963 110.963 83.442C110.897 83.4902 110.854 83.5548 110.834 83.6359L109.183 90.2645C109.163 90.3456 109.171 90.4228 109.206 90.4963C109.252 90.5723 109.315 90.6204 109.396 90.6406L110.353 90.8794C110.434 90.8996 110.507 90.8856 110.573 90.8374C110.649 90.7918 110.697 90.7284 110.717 90.6473L111.289 88.3516L110.499 88.1545Z" fill="black"/>
<path d="M117.632 92.1795L119.956 92.7594L119.509 94.5534L115.059 93.4428L117.509 83.6063L119.635 84.1369L117.632 92.1795Z" fill="black"/>
<path d="M126.148 85.6011C127.404 85.9145 127.865 86.7401 127.532 88.078L125.544 96.0597L123.418 95.529L124.239 92.2299L122.705 91.847L121.884 95.1462L119.758 94.6155L121.745 86.6338C122.079 85.2959 122.873 84.7836 124.129 85.097L126.148 85.6011ZM123.114 90.2051L124.648 90.5879L125.47 87.2888C125.49 87.2078 125.477 87.1292 125.432 87.0533C125.396 86.9798 125.338 86.933 125.257 86.9128L124.3 86.674C124.219 86.6537 124.141 86.6665 124.065 86.7121C123.999 86.7603 123.956 86.8249 123.936 86.906L123.114 90.2051Z" fill="black"/>
<path d="M132.509 92.0816C133.109 92.479 133.304 93.0983 133.095 93.9395L132.655 95.7031C132.322 97.041 131.528 97.5532 130.272 97.2399L126.369 96.2657L128.819 86.4292L132.601 87.3731C133.856 87.6864 134.317 88.512 133.984 89.8499L133.761 90.7469C133.559 91.5578 133.142 92.0026 132.509 92.0816ZM131.71 88.6847L130.586 88.4042L129.931 91.0344L131.055 91.3149C131.136 91.3351 131.209 91.3211 131.275 91.2729C131.351 91.2273 131.399 91.1639 131.419 91.0828L131.922 89.0608C131.943 88.9797 131.93 88.9012 131.884 88.8252C131.849 88.7518 131.791 88.7049 131.71 88.6847ZM130.469 95.4157L131.018 93.2112C131.038 93.1301 131.025 93.0516 130.98 92.9756C130.944 92.9022 130.886 92.8553 130.805 92.8351L129.56 92.5243L128.859 95.3369L130.104 95.6477C130.185 95.6679 130.259 95.6539 130.325 95.6058C130.4 95.5601 130.448 95.4967 130.469 95.4157Z" fill="black"/>
<path d="M140.106 91.9915L138.086 91.4874L138.279 90.712C138.299 90.6309 138.287 90.5524 138.241 90.4764C138.206 90.403 138.147 90.3561 138.066 90.3359L137.231 90.1274C137.15 90.1072 137.072 90.1199 136.996 90.1656C136.93 90.2138 136.887 90.2784 136.867 90.3595L136.431 92.1078C136.411 92.1889 136.419 92.2662 136.454 92.3396C136.5 92.4156 136.563 92.4637 136.644 92.4839L138.011 92.8251C139.261 93.1587 139.723 93.9843 139.394 95.3019L138.868 97.4152C138.535 98.7531 137.741 99.2653 136.485 98.952L134.693 98.5047C133.437 98.1913 132.976 97.3657 133.31 96.0278L133.563 95.0092L135.583 95.5134L135.311 96.608C135.29 96.6891 135.298 96.7664 135.333 96.8398C135.379 96.9158 135.442 96.9639 135.523 96.9841L136.465 97.2191C136.546 97.2393 136.619 97.2253 136.685 97.1772C136.761 97.1315 136.809 97.0681 136.829 96.9871L137.31 95.0562C137.33 94.9752 137.318 94.8966 137.272 94.8207C137.237 94.7472 137.178 94.7004 137.097 94.6802L135.73 94.339C134.475 94.0257 134.014 93.2 134.347 91.8621L134.836 89.9009C135.169 88.563 135.963 88.0508 137.219 88.3641L138.904 88.7849C140.16 89.0982 140.621 89.9239 140.288 91.2618L140.106 91.9915Z" fill="black"/>
<path d="M283.962 123.14L284.941 120.411L273.322 117.511L265.97 132.08L278.117 135.112L277.151 137.844L288.766 140.743L296.119 126.174L283.962 123.14ZM274.106 119.197L283.027 121.424L281.555 125.524L277.114 124.416L277.6 123.062L276.177 122.706L273.912 129.015L276.658 129.7L277.154 128.333L275.827 128.002L276.623 125.785L281.064 126.893L278.605 133.743L268.09 131.118L274.106 119.197ZM287.982 139.057L279.058 136.829L279.756 134.854L283.47 124.509L293.998 127.136L292.038 131.02L287.239 129.823L287.725 128.469L286.302 128.113L284.037 134.422L286.783 135.108L287.279 133.74L285.952 133.409L286.748 131.192L291.369 132.345L287.982 139.057Z" fill="black"/>
<path d="M303.195 136.249L303.585 134.683L306.395 135.384L305.493 139.003C305.16 140.34 304.366 140.853 303.11 140.539L301.197 140.062C299.941 139.748 299.48 138.923 299.813 137.585L301.339 131.458C301.673 130.12 302.467 129.608 303.722 129.921L305.636 130.399C306.892 130.712 307.353 131.538 307.019 132.876L306.788 133.803L304.769 133.299L305.064 132.113C305.084 132.032 305.071 131.953 305.026 131.877C304.99 131.804 304.932 131.757 304.851 131.737L303.894 131.498C303.813 131.478 303.735 131.491 303.659 131.536C303.593 131.585 303.55 131.649 303.53 131.73L301.879 138.359C301.859 138.44 301.866 138.517 301.902 138.591C301.948 138.667 302.011 138.715 302.092 138.735L303.049 138.974C303.13 138.994 303.203 138.98 303.269 138.932C303.345 138.886 303.393 138.823 303.413 138.742L303.985 136.446L303.195 136.249Z" fill="black"/>
<path d="M313.218 134.423L311.692 140.55C311.359 141.888 310.565 142.4 309.309 142.087L307.289 141.582C306.034 141.269 305.573 140.443 305.906 139.106L307.432 132.979C307.765 131.641 308.56 131.129 309.815 131.442L311.835 131.946C313.091 132.259 313.552 133.085 313.218 134.423ZM309.506 140.262L311.157 133.634C311.177 133.553 311.164 133.474 311.118 133.398C311.083 133.325 311.025 133.278 310.944 133.258L309.987 133.019C309.906 132.999 309.828 133.011 309.752 133.057C309.686 133.105 309.643 133.17 309.623 133.251L307.972 139.88C307.952 139.961 307.959 140.038 307.995 140.111C308.04 140.187 308.104 140.235 308.185 140.256L309.141 140.494C309.222 140.515 309.296 140.501 309.361 140.452C309.437 140.407 309.485 140.343 309.506 140.262Z" fill="black"/>
<path d="M319.815 136.069L318.289 142.196C317.956 143.534 317.162 144.046 315.906 143.733L313.886 143.229C312.631 142.916 312.17 142.09 312.503 140.752L314.029 134.625C314.362 133.287 315.157 132.775 316.412 133.088L318.432 133.593C319.687 133.906 320.149 134.732 319.815 136.069ZM316.103 141.909L317.754 135.28C317.774 135.199 317.761 135.121 317.715 135.045C317.68 134.971 317.622 134.924 317.541 134.904L316.584 134.665C316.503 134.645 316.424 134.658 316.349 134.704C316.283 134.752 316.24 134.816 316.22 134.897L314.569 141.526C314.548 141.607 314.556 141.684 314.592 141.758C314.637 141.834 314.7 141.882 314.781 141.902L315.738 142.141C315.819 142.161 315.893 142.147 315.958 142.099C316.034 142.053 316.082 141.99 316.103 141.909Z" fill="black"/>
<path d="M324.991 135.391C326.247 135.704 326.708 136.53 326.374 137.868L324.924 143.691C324.591 145.029 323.797 145.541 322.541 145.228L318.638 144.253L321.088 134.417L324.991 135.391ZM322.737 143.403L324.313 137.079C324.333 136.998 324.32 136.919 324.275 136.843C324.239 136.77 324.181 136.723 324.1 136.703L322.854 136.392L321.128 143.325L322.373 143.635C322.454 143.656 322.527 143.642 322.593 143.594C322.669 143.548 322.717 143.484 322.737 143.403Z" fill="black"/>
<path d="M329.093 142.713L329.483 141.147L332.293 141.848L331.392 145.467C331.059 146.804 330.264 147.317 329.009 147.003L327.095 146.526C325.84 146.212 325.379 145.387 325.712 144.049L327.238 137.922C327.571 136.584 328.365 136.072 329.621 136.385L331.534 136.863C332.79 137.176 333.251 138.002 332.918 139.34L332.687 140.267L330.667 139.763L330.962 138.577C330.982 138.496 330.97 138.417 330.924 138.341C330.889 138.268 330.83 138.221 330.749 138.201L329.793 137.962C329.712 137.942 329.633 137.955 329.557 138C329.492 138.049 329.449 138.113 329.428 138.194L327.777 144.823C327.757 144.904 327.765 144.981 327.8 145.055C327.846 145.131 327.909 145.179 327.99 145.199L328.947 145.438C329.028 145.458 329.101 145.444 329.167 145.396C329.243 145.35 329.291 145.287 329.311 145.206L329.883 142.91L329.093 142.713Z" fill="black"/>
<path d="M337.733 138.41C338.989 138.723 339.45 139.549 339.117 140.887L337.129 148.869L335.003 148.338L335.824 145.039L334.29 144.656L333.469 147.955L331.342 147.424L333.33 139.443C333.664 138.105 334.458 137.593 335.713 137.906L337.733 138.41ZM334.699 143.014L336.233 143.397L337.055 140.098C337.075 140.017 337.062 139.938 337.017 139.862C336.981 139.789 336.923 139.742 336.842 139.722L335.885 139.483C335.804 139.463 335.726 139.475 335.65 139.521C335.584 139.569 335.541 139.634 335.521 139.715L334.699 143.014Z" fill="black"/>
<path d="M343.589 150.481L341.463 149.95L343.496 141.786C343.516 141.705 343.503 141.626 343.458 141.551C343.422 141.477 343.364 141.43 343.283 141.41L342.463 141.205C342.382 141.185 342.304 141.198 342.228 141.243C342.162 141.292 342.119 141.356 342.099 141.437L340.065 149.601L337.939 149.071L339.927 141.089C340.26 139.751 341.055 139.239 342.31 139.552L344.193 140.022C345.449 140.336 345.91 141.161 345.577 142.499L343.589 150.481Z" fill="black"/>
<path d="M348.098 147.456L348.488 145.89L351.298 146.592L350.397 150.21C350.063 151.548 349.269 152.06 348.014 151.747L346.1 151.269C344.844 150.956 344.383 150.13 344.717 148.792L346.243 142.665C346.576 141.328 347.37 140.815 348.626 141.129L350.539 141.606C351.795 141.92 352.256 142.745 351.923 144.083L351.692 145.01L349.672 144.506L349.967 143.32C349.987 143.239 349.975 143.161 349.929 143.085C349.893 143.011 349.835 142.965 349.754 142.944L348.797 142.706C348.716 142.685 348.638 142.698 348.562 142.744C348.496 142.792 348.453 142.857 348.433 142.938L346.782 149.566C346.762 149.647 346.77 149.725 346.805 149.798C346.851 149.874 346.914 149.922 346.995 149.942L347.952 150.181C348.033 150.201 348.106 150.187 348.172 150.139C348.248 150.094 348.296 150.03 348.316 149.949L348.888 147.653L348.098 147.456Z" fill="black"/>
<path d="M355.231 151.481L357.555 152.061L357.108 153.855L352.658 152.745L355.108 142.908L357.234 143.439L355.231 151.481Z" fill="black"/>
<path d="M363.747 144.903C365.003 145.216 365.464 146.042 365.131 147.38L363.143 155.361L361.017 154.831L361.838 151.532L360.304 151.149L359.483 154.448L357.357 153.917L359.344 145.936C359.678 144.598 360.472 144.085 361.728 144.399L363.747 144.903ZM360.713 149.507L362.247 149.89L363.069 146.591C363.089 146.51 363.076 146.431 363.031 146.355C362.995 146.282 362.937 146.235 362.856 146.215L361.899 145.976C361.818 145.955 361.74 145.968 361.664 146.014C361.598 146.062 361.555 146.127 361.535 146.208L360.713 149.507Z" fill="black"/>
<path d="M370.108 151.383C370.708 151.781 370.903 152.4 370.694 153.241L370.254 155.005C369.921 156.343 369.127 156.855 367.871 156.542L363.968 155.567L366.418 145.731L370.2 146.675C371.455 146.988 371.916 147.814 371.583 149.152L371.36 150.049C371.158 150.86 370.741 151.304 370.108 151.383ZM369.309 147.986L368.185 147.706L367.53 150.336L368.654 150.617C368.735 150.637 368.808 150.623 368.874 150.575C368.95 150.529 368.998 150.466 369.018 150.385L369.521 148.363C369.542 148.281 369.529 148.203 369.483 148.127C369.448 148.054 369.39 148.007 369.309 147.986ZM368.068 154.717L368.617 152.513C368.637 152.432 368.624 152.353 368.579 152.277C368.543 152.204 368.485 152.157 368.404 152.137L367.159 151.826L366.458 154.639L367.703 154.949C367.784 154.97 367.858 154.956 367.924 154.908C367.999 154.862 368.047 154.799 368.068 154.717Z" fill="black"/>
<path d="M377.705 151.293L375.685 150.789L375.878 150.014C375.898 149.933 375.886 149.854 375.84 149.778C375.805 149.705 375.746 149.658 375.665 149.638L374.83 149.429C374.749 149.409 374.671 149.422 374.595 149.467C374.529 149.516 374.486 149.58 374.466 149.661L374.03 151.41C374.01 151.491 374.018 151.568 374.053 151.641C374.099 151.717 374.162 151.765 374.243 151.786L375.61 152.127C376.86 152.46 377.322 153.286 376.993 154.604L376.467 156.717C376.134 158.055 375.34 158.567 374.084 158.254L372.292 157.806C371.036 157.493 370.575 156.667 370.909 155.33L371.162 154.311L373.182 154.815L372.91 155.91C372.889 155.991 372.897 156.068 372.932 156.142C372.978 156.218 373.041 156.266 373.122 156.286L374.064 156.521C374.145 156.541 374.218 156.527 374.284 156.479C374.36 156.433 374.408 156.37 374.428 156.289L374.909 154.358C374.929 154.277 374.917 154.198 374.871 154.122C374.836 154.049 374.777 154.002 374.696 153.982L373.329 153.641C372.074 153.327 371.613 152.502 371.946 151.164L372.435 149.203C372.768 147.865 373.562 147.353 374.818 147.666L376.503 148.087C377.759 148.4 378.22 149.226 377.887 150.564L377.705 151.293Z" fill="black"/>
<path d="M165.162 93.4884L166.141 90.7595L154.522 87.8594L147.169 102.429L159.316 105.461L158.35 108.193L169.966 111.092L177.318 96.5226L165.162 93.4884ZM155.305 89.5461L164.226 91.7726L162.754 95.8724L158.314 94.7642L158.8 93.4102L157.376 93.0549L155.111 99.3637L157.857 100.049L158.353 98.6818L157.027 98.3507L157.823 96.1332L162.263 97.2415L159.804 104.091L149.29 101.467L155.305 89.5461ZM169.182 109.405L160.258 107.178L160.956 105.203L164.67 94.8572L175.198 97.4849L173.237 101.369L168.439 100.171L168.925 98.8174L167.501 98.4621L165.237 104.771L167.983 105.456L168.479 104.089L167.152 103.758L167.947 101.54L172.569 102.694L169.182 109.405Z" fill="black"/>
<path d="M184.395 106.598L184.785 105.032L187.594 105.733L186.693 109.351C186.36 110.689 185.565 111.201 184.31 110.888L182.396 110.41C181.141 110.097 180.68 109.271 181.013 107.934L182.539 101.807C182.872 100.469 183.667 99.9565 184.922 100.27L186.836 100.747C188.091 101.061 188.552 101.886 188.219 103.224L187.988 104.152L185.968 103.648L186.263 102.462C186.284 102.381 186.271 102.302 186.225 102.226C186.19 102.153 186.132 102.106 186.051 102.086L185.094 101.847C185.013 101.827 184.934 101.839 184.859 101.885C184.793 101.933 184.75 101.998 184.73 102.079L183.079 108.707C183.058 108.789 183.066 108.866 183.102 108.939C183.147 109.015 183.21 109.063 183.291 109.084L184.248 109.322C184.329 109.343 184.403 109.329 184.468 109.28C184.544 109.235 184.592 109.171 184.613 109.09L185.184 106.795L184.395 106.598Z" fill="black"/>
<path d="M194.418 104.772L192.892 110.898C192.559 112.236 191.764 112.749 190.509 112.435L188.489 111.931C187.234 111.618 186.772 110.792 187.106 109.454L188.632 103.327C188.965 101.989 189.759 101.477 191.015 101.791L193.035 102.295C194.29 102.608 194.751 103.434 194.418 104.772ZM190.705 110.611L192.356 103.982C192.376 103.901 192.364 103.823 192.318 103.747C192.283 103.673 192.224 103.627 192.143 103.606L191.187 103.367C191.106 103.347 191.027 103.36 190.951 103.406C190.885 103.454 190.842 103.518 190.822 103.6L189.171 110.228C189.151 110.309 189.159 110.386 189.194 110.46C189.24 110.536 189.303 110.584 189.384 110.604L190.341 110.843C190.422 110.863 190.495 110.849 190.561 110.801C190.637 110.755 190.685 110.692 190.705 110.611Z" fill="black"/>
<path d="M201.015 106.418L199.489 112.545C199.156 113.883 198.361 114.395 197.106 114.082L195.086 113.578C193.831 113.264 193.369 112.439 193.703 111.101L195.229 104.974C195.562 103.636 196.356 103.124 197.612 103.437L199.632 103.941C200.887 104.255 201.348 105.08 201.015 106.418ZM197.302 112.258L198.953 105.629C198.973 105.548 198.961 105.469 198.915 105.393C198.88 105.32 198.821 105.273 198.74 105.253L197.783 105.014C197.702 104.994 197.624 105.007 197.548 105.052C197.482 105.1 197.439 105.165 197.419 105.246L195.768 111.875C195.748 111.956 195.756 112.033 195.791 112.106C195.837 112.182 195.9 112.231 195.981 112.251L196.938 112.49C197.019 112.51 197.092 112.496 197.158 112.448C197.234 112.402 197.282 112.339 197.302 112.258Z" fill="black"/>
<path d="M206.191 105.74C207.446 106.053 207.907 106.879 207.574 108.217L206.124 114.039C205.791 115.377 204.996 115.89 203.741 115.576L199.838 114.602L202.288 104.766L206.191 105.74ZM203.937 113.752L205.512 107.427C205.532 107.346 205.52 107.268 205.474 107.192C205.439 107.118 205.38 107.072 205.299 107.051L204.054 106.741L202.327 113.673L203.573 113.984C203.654 114.004 203.727 113.99 203.793 113.942C203.869 113.896 203.917 113.833 203.937 113.752Z" fill="black"/>
<path d="M210.293 113.062L210.683 111.496L213.493 112.197L212.591 115.815C212.258 117.153 211.464 117.665 210.208 117.352L208.295 116.874C207.039 116.561 206.578 115.735 206.911 114.398L208.437 108.271C208.771 106.933 209.565 106.42 210.82 106.734L212.734 107.211C213.989 107.525 214.451 108.35 214.117 109.688L213.886 110.616L211.866 110.112L212.162 108.926C212.182 108.845 212.169 108.766 212.124 108.69C212.088 108.617 212.03 108.57 211.949 108.55L210.992 108.311C210.911 108.291 210.833 108.303 210.757 108.349C210.691 108.397 210.648 108.462 210.628 108.543L208.977 115.171C208.957 115.253 208.964 115.33 209 115.403C209.046 115.479 209.109 115.527 209.19 115.548L210.147 115.786C210.228 115.807 210.301 115.793 210.367 115.744C210.443 115.699 210.491 115.635 210.511 115.554L211.083 113.259L210.293 113.062Z" fill="black"/>
<path d="M218.933 108.759C220.188 109.072 220.65 109.898 220.316 111.236L218.328 119.217L216.202 118.687L217.024 115.387L215.49 115.005L214.668 118.304L212.542 117.773L214.53 109.791C214.863 108.453 215.658 107.941 216.913 108.255L218.933 108.759ZM215.899 113.363L217.433 113.745L218.255 110.446C218.275 110.365 218.262 110.287 218.216 110.211C218.181 110.137 218.123 110.091 218.042 110.07L217.085 109.831C217.004 109.811 216.925 109.824 216.85 109.87C216.784 109.918 216.741 109.982 216.721 110.064L215.899 113.363Z" fill="black"/>
<path d="M224.788 120.83L222.662 120.299L224.696 112.135C224.716 112.054 224.703 111.975 224.657 111.899C224.622 111.826 224.564 111.779 224.483 111.759L223.663 111.554C223.582 111.534 223.503 111.546 223.427 111.592C223.361 111.64 223.318 111.705 223.298 111.786L221.265 119.95L219.139 119.419L221.127 111.438C221.46 110.1 222.254 109.588 223.51 109.901L225.393 110.371C226.648 110.684 227.109 111.51 226.776 112.848L224.788 120.83Z" fill="black"/>
<path d="M229.298 117.805L229.688 116.239L232.497 116.94L231.596 120.559C231.263 121.897 230.469 122.409 229.213 122.095L227.3 121.618C226.044 121.304 225.583 120.479 225.916 119.141L227.442 113.014C227.775 111.676 228.57 111.164 229.825 111.477L231.739 111.955C232.994 112.268 233.455 113.094 233.122 114.432L232.891 115.359L230.871 114.855L231.167 113.669C231.187 113.588 231.174 113.51 231.129 113.434C231.093 113.36 231.035 113.313 230.954 113.293L229.997 113.054C229.916 113.034 229.838 113.047 229.762 113.092C229.696 113.141 229.653 113.205 229.633 113.286L227.982 119.915C227.962 119.996 227.969 120.073 228.005 120.147C228.05 120.223 228.114 120.271 228.195 120.291L229.151 120.53C229.232 120.55 229.306 120.536 229.372 120.488C229.447 120.442 229.495 120.379 229.516 120.298L230.087 118.002L229.298 117.805Z" fill="black"/>
<path d="M236.431 121.83L238.754 122.41L238.307 124.204L233.858 123.093L236.308 113.257L238.434 113.787L236.431 121.83Z" fill="black"/>
<path d="M244.947 115.252C246.203 115.565 246.664 116.39 246.33 117.728L244.342 125.71L242.216 125.179L243.038 121.88L241.504 121.497L240.682 124.797L238.556 124.266L240.544 116.284C240.877 114.946 241.672 114.434 242.927 114.747L244.947 115.252ZM241.913 119.855L243.447 120.238L244.269 116.939C244.289 116.858 244.276 116.78 244.23 116.704C244.195 116.63 244.137 116.583 244.056 116.563L243.099 116.324C243.018 116.304 242.94 116.317 242.864 116.362C242.798 116.411 242.755 116.475 242.735 116.556L241.913 119.855Z" fill="black"/>
<path d="M251.308 121.732C251.908 122.129 252.103 122.749 251.893 123.59L251.454 125.353C251.121 126.691 250.326 127.204 249.071 126.89L245.168 125.916L247.618 116.08L251.399 117.023C252.655 117.337 253.116 118.162 252.783 119.5L252.559 120.397C252.357 121.208 251.94 121.653 251.308 121.732ZM250.508 118.335L249.384 118.055L248.729 120.685L249.853 120.965C249.934 120.985 250.007 120.971 250.073 120.923C250.149 120.878 250.197 120.814 250.217 120.733L250.721 118.711C250.741 118.63 250.728 118.552 250.683 118.476C250.647 118.402 250.589 118.355 250.508 118.335ZM249.267 125.066L249.816 122.862C249.837 122.781 249.824 122.702 249.778 122.626C249.743 122.553 249.684 122.506 249.604 122.486L248.358 122.175L247.658 124.987L248.903 125.298C248.984 125.318 249.057 125.304 249.123 125.256C249.199 125.211 249.247 125.147 249.267 125.066Z" fill="black"/>
<path d="M258.905 121.642L256.885 121.138L257.078 120.362C257.098 120.281 257.085 120.203 257.04 120.127C257.004 120.053 256.946 120.007 256.865 119.986L256.03 119.778C255.949 119.758 255.87 119.77 255.794 119.816C255.729 119.864 255.686 119.929 255.665 120.01L255.23 121.758C255.21 121.839 255.217 121.917 255.253 121.99C255.298 122.066 255.362 122.114 255.443 122.134L256.81 122.475C258.06 122.809 258.521 123.635 258.193 124.952L257.667 127.066C257.333 128.403 256.539 128.916 255.284 128.602L253.492 128.155C252.236 127.842 251.775 127.016 252.108 125.678L252.362 124.66L254.382 125.164L254.109 126.258C254.089 126.339 254.097 126.417 254.132 126.49C254.178 126.566 254.241 126.614 254.322 126.634L255.264 126.869C255.345 126.89 255.418 126.876 255.484 126.828C255.56 126.782 255.608 126.719 255.628 126.637L256.109 124.707C256.129 124.626 256.116 124.547 256.071 124.471C256.035 124.398 255.977 124.351 255.896 124.331L254.529 123.989C253.274 123.676 252.812 122.85 253.146 121.513L253.634 119.551C253.967 118.213 254.762 117.701 256.017 118.015L257.703 118.435C258.958 118.749 259.42 119.574 259.086 120.912L258.905 121.642Z" fill="black"/>
<rect width="1699.58" height="47.0056" transform="matrix(0.996187 -0.0872469 0.0870647 0.996203 -617.011 134.651)" fill="#6038FF"/>
<path d="M330.268 67.1016L330.316 63.4772L315.404 64.7832L312.637 84.9982L328.227 83.6328L328.196 87.2557L343.103 85.9501L345.869 65.7352L330.268 67.1016ZM317.016 66.4574L328.465 65.4547L328.392 70.9L322.693 71.3991L322.717 69.6009L320.89 69.7609L320.778 78.1399L324.302 77.8312L324.333 76.0132L322.63 76.1623L322.67 73.2172L328.368 72.7181L328.247 81.8157L314.753 82.9975L317.016 66.4574ZM341.49 84.2759L330.037 85.279L330.059 82.6601L330.243 68.9198L343.754 67.7365L343.017 73.1255L336.858 73.6649L336.882 71.8667L335.055 72.0267L334.943 80.4056L338.467 80.097L338.498 78.279L336.795 78.4281L336.834 75.4831L342.765 74.9636L341.49 84.2759Z" fill="black"/>
<path d="M25.3458 93.8071L25.3942 90.1828L10.4822 91.4888L7.71531 111.704L23.3047 110.338L23.2737 113.961L38.1804 112.656L40.9472 92.4408L25.3458 93.8071ZM12.0942 93.163L23.5428 92.1603L23.4698 97.6056L17.7711 98.1047L17.7951 96.3064L15.9682 96.4665L15.8562 104.845L19.3802 104.537L19.4106 102.719L17.7082 102.868L17.7474 99.9228L23.4461 99.4237L23.3244 108.521L9.8304 109.703L12.0942 93.163ZM36.5683 110.982L25.115 111.985L25.1371 109.366L25.3209 95.6254L38.8322 94.4421L38.0945 99.8311L31.9362 100.37L31.9603 98.5722L30.1333 98.7322L30.0213 107.111L33.5454 106.803L33.5757 104.985L31.8727 105.134L31.9119 102.189L37.843 101.669L36.5683 110.982Z" fill="black"/>
<path d="M53.407 101.465L53.2313 99.4556L56.8371 99.1398L57.243 103.784C57.393 105.501 56.6624 106.43 55.0512 106.571L52.5954 106.786C50.9841 106.927 50.1035 106.139 49.9534 104.422L49.2662 96.5589C49.1162 94.8419 49.8468 93.9128 51.458 93.7717L53.9138 93.5566C55.5251 93.4155 56.4057 94.2035 56.5558 95.9205L56.6598 97.1107L54.0675 97.3377L53.9345 95.8158C53.9254 95.7117 53.8785 95.6241 53.7937 95.5529C53.7219 95.4805 53.634 95.4489 53.5301 95.458L52.3022 95.5656C52.1982 95.5747 52.1107 95.6216 52.0395 95.7065C51.9814 95.7903 51.9568 95.8842 51.9659 95.9882L52.7094 104.495C52.7185 104.599 52.759 104.687 52.8307 104.76C52.9155 104.831 53.0099 104.862 53.1138 104.853L54.3418 104.745C54.4457 104.736 54.5268 104.69 54.5849 104.606C54.6561 104.521 54.6871 104.427 54.678 104.323L54.4205 101.377L53.407 101.465Z" fill="black"/>
<path d="M64.5113 95.2237L65.1985 103.087C65.3486 104.804 64.618 105.733 63.0068 105.874L60.4145 106.101C58.8033 106.242 57.9226 105.454 57.7726 103.737L57.0854 95.8741C56.9353 94.1571 57.6659 93.228 59.2771 93.0869L61.8694 92.8599C63.4806 92.7188 64.3613 93.5067 64.5113 95.2237ZM62.4971 103.638L61.7536 95.131C61.7446 95.0269 61.6976 94.9393 61.6128 94.8681C61.541 94.7957 61.4532 94.7641 61.3492 94.7732L60.1213 94.8807C60.0173 94.8899 59.9298 94.9368 59.8587 95.0217C59.8005 95.1054 59.776 95.1993 59.7851 95.3034L60.5286 103.81C60.5377 103.914 60.5781 104.003 60.6499 104.075C60.7347 104.146 60.829 104.177 60.933 104.168L62.1609 104.061C62.2649 104.051 62.3459 104.005 62.404 103.921C62.4752 103.836 62.5062 103.742 62.4971 103.638Z" fill="black"/>
<path d="M72.9776 94.4822L73.6648 102.345C73.8149 104.062 73.0843 104.991 71.4731 105.132L68.8808 105.359C67.2696 105.501 66.3889 104.713 66.2389 102.996L65.5517 95.1326C65.4016 93.4156 66.1322 92.4866 67.7434 92.3454L70.3357 92.1184C71.9469 91.9773 72.8276 92.7652 72.9776 94.4822ZM70.9634 102.896L70.2199 94.3895C70.2108 94.2855 70.1639 94.1978 70.0791 94.1266C70.0073 94.0542 69.9195 94.0226 69.8155 94.0317L68.5876 94.1393C68.4836 94.1484 68.3961 94.1954 68.325 94.2802C68.2668 94.364 68.2423 94.4579 68.2514 94.5619L68.9948 103.069C69.0039 103.173 69.0444 103.261 69.1162 103.333C69.201 103.405 69.2953 103.436 69.3993 103.427L70.6272 103.319C70.7311 103.31 70.8122 103.264 70.8703 103.18C70.9415 103.095 70.9725 103 70.9634 102.896Z" fill="black"/>
<path d="M78.819 91.572C80.4303 91.4309 81.3109 92.2189 81.461 93.9359L82.1141 101.409C82.2641 103.126 81.5335 104.055 79.9223 104.196L74.9132 104.635L73.8099 92.0107L78.819 91.572ZM79.4127 101.96L78.7033 93.8431C78.6942 93.7391 78.6472 93.6514 78.5625 93.5802C78.4907 93.5079 78.4028 93.4762 78.2989 93.4853L76.7006 93.6253L77.4782 102.522L79.0764 102.382C79.1804 102.373 79.2614 102.327 79.3196 102.243C79.3907 102.158 79.4217 102.064 79.4127 101.96Z" fill="black"/>
<path d="M86.644 98.5544L86.4684 96.5447L90.0742 96.2289L90.48 100.873C90.6301 102.59 89.8995 103.519 88.2883 103.66L85.8324 103.875C84.2212 104.016 83.3405 103.228 83.1905 101.511L82.5033 93.648C82.3532 91.931 83.0838 91.0019 84.695 90.8608L87.1509 90.6457C88.7621 90.5046 89.6428 91.2925 89.7928 93.0095L89.8968 94.1997L87.3046 94.4268L87.1716 92.9049C87.1625 92.8008 87.1155 92.7132 87.0307 92.642C86.9589 92.5696 86.8711 92.538 86.7671 92.5471L85.5392 92.6546C85.4353 92.6637 85.3477 92.7107 85.2766 92.7956C85.2184 92.8793 85.1939 92.9732 85.203 93.0773L85.9465 101.584C85.9556 101.688 85.996 101.776 86.0678 101.849C86.1526 101.92 86.2469 101.951 86.3509 101.942L87.5788 101.834C87.6828 101.825 87.7638 101.779 87.822 101.695C87.8931 101.61 87.9241 101.516 87.915 101.412L87.6575 98.4656L86.644 98.5544Z" fill="black"/>
<path d="M95.1064 89.949C96.7177 89.8078 97.5983 90.5958 97.7484 92.3128L98.6436 102.556L95.9149 102.795L95.5449 98.5612L93.5763 98.7336L93.9464 102.968L91.2177 103.207L90.3224 92.9632C90.1724 91.2462 90.9029 90.3171 92.5142 90.176L95.1064 89.949ZM93.3922 96.6264L95.3607 96.454L94.9907 92.2201C94.9816 92.116 94.9347 92.0284 94.8499 91.9572C94.7781 91.8848 94.6902 91.8532 94.5863 91.8623L93.3583 91.9698C93.2544 91.9789 93.1668 92.0259 93.0957 92.1108C93.0376 92.1945 93.013 92.2884 93.0221 92.3925L93.3922 96.6264Z" fill="black"/>
<path d="M106.934 101.83L104.205 102.069L103.29 91.5915C103.281 91.4875 103.234 91.3998 103.149 91.3286C103.077 91.2563 102.989 91.2246 102.885 91.2338L101.833 91.3259C101.729 91.335 101.641 91.382 101.57 91.4669C101.512 91.5506 101.487 91.6445 101.496 91.7486L102.412 102.226L99.6835 102.465L98.7882 92.2217C98.6382 90.5047 99.3688 89.5757 100.98 89.4345L103.397 89.2229C105.008 89.0818 105.889 89.8697 106.039 91.5867L106.934 101.83Z" fill="black"/>
<path d="M111.034 96.4183L110.858 94.4086L114.464 94.0928L114.87 98.7365C115.02 100.453 114.29 101.383 112.678 101.524L110.222 101.739C108.611 101.88 107.731 101.092 107.581 99.3749L106.893 91.5119C106.743 89.7949 107.474 88.8658 109.085 88.7247L111.541 88.5096C113.152 88.3685 114.033 89.1564 114.183 90.8734L114.287 92.0636L111.695 92.2907L111.562 90.7688C111.553 90.6647 111.506 90.5771 111.421 90.5059C111.349 90.4335 111.261 90.4019 111.157 90.411L109.929 90.5185C109.825 90.5276 109.738 90.5746 109.667 90.6595C109.608 90.7432 109.584 90.8371 109.593 90.9412L110.337 99.4481C110.346 99.5522 110.386 99.6404 110.458 99.7127C110.543 99.7839 110.637 99.815 110.741 99.8059L111.969 99.6984C112.073 99.6893 112.154 99.6428 112.212 99.5591C112.283 99.4742 112.314 99.3798 112.305 99.2757L112.048 96.3295L111.034 96.4183Z" fill="black"/>
<path d="M121.101 98.2694L124.083 98.0083L124.284 100.311L118.573 100.811L117.47 88.187L120.199 87.948L121.101 98.2694Z" fill="black"/>
<path d="M128.492 87.025C130.103 86.8839 130.984 87.6719 131.134 89.3889L132.029 99.6323L129.3 99.8713L128.93 95.6373L126.962 95.8097L127.332 100.044L124.603 100.283L123.708 90.0392C123.558 88.3222 124.288 87.3932 125.9 87.2521L128.492 87.025ZM126.778 93.7025L128.746 93.5301L128.376 89.2961C128.367 89.1921 128.32 89.1044 128.235 89.0332C128.164 88.9609 128.076 88.9292 127.972 88.9383L126.744 89.0459C126.64 89.055 126.552 89.102 126.481 89.1869C126.423 89.2706 126.399 89.3645 126.408 89.4685L126.778 93.7025Z" fill="black"/>
<path d="M138.644 92.0931C139.515 92.3183 139.997 92.9707 140.092 94.0503L140.289 96.3136C140.439 98.0306 139.709 98.9597 138.098 99.1008L133.088 99.5395L131.985 86.9157L136.838 86.4906C138.45 86.3495 139.33 87.1375 139.48 88.8545L139.581 90.0056C139.672 91.0462 139.36 91.7421 138.644 92.0931ZM136.318 88.404L134.876 88.5303L135.171 91.9057L136.613 91.7794C136.717 91.7703 136.798 91.7239 136.856 91.6402C136.928 91.5553 136.959 91.4608 136.949 91.3568L136.723 88.7618C136.714 88.6577 136.667 88.5701 136.582 88.4988C136.51 88.4265 136.422 88.3949 136.318 88.404ZM137.588 96.8648L137.341 94.0357C137.332 93.9316 137.285 93.844 137.2 93.7727C137.128 93.7004 137.04 93.6688 136.936 93.6779L135.338 93.8178L135.653 97.4274L137.252 97.2875C137.356 97.2784 137.437 97.2319 137.495 97.1482C137.566 97.0633 137.597 96.9689 137.588 96.8648Z" fill="black"/>
<path d="M147.586 88.8916L144.994 89.1187L144.907 88.1236C144.898 88.0195 144.851 87.9319 144.766 87.8607C144.694 87.7883 144.607 87.7567 144.503 87.7658L143.431 87.8597C143.327 87.8688 143.239 87.9158 143.168 88.0007C143.11 88.0844 143.085 88.1783 143.094 88.2824L143.291 90.5262C143.3 90.6302 143.34 90.7184 143.412 90.7908C143.497 90.862 143.591 90.8931 143.695 90.8839L145.449 90.7303C147.063 90.6152 147.943 91.4032 148.091 93.0941L148.328 95.8062C148.478 97.5232 147.748 98.4523 146.136 98.5934L143.836 98.7948C142.225 98.9359 141.345 98.148 141.194 96.431L141.08 95.1237L143.672 94.8967L143.795 96.3015C143.804 96.4056 143.845 96.4938 143.917 96.5661C144.001 96.6373 144.096 96.6684 144.2 96.6593L145.408 96.5535C145.512 96.5443 145.593 96.4979 145.651 96.4142C145.722 96.3293 145.753 96.2349 145.744 96.1308L145.528 93.6529C145.519 93.5488 145.472 93.4612 145.387 93.3899C145.315 93.3176 145.227 93.286 145.123 93.2951L143.369 93.4487C141.758 93.5898 140.877 92.8019 140.727 91.0849L140.507 88.5679C140.357 86.8509 141.088 85.9219 142.699 85.7808L144.863 85.5913C146.474 85.4502 147.354 86.2381 147.504 87.9551L147.586 88.8916Z" fill="black"/>
<path d="M177.804 80.4546L177.852 76.8302L162.94 78.1362L160.173 98.3512L175.763 96.9859L175.732 100.609L190.639 99.3032L193.405 79.0882L177.804 80.4546ZM164.552 79.8104L176.001 78.8078L175.928 84.253L170.229 84.7521L170.253 82.9539L168.426 83.1139L168.314 91.4929L171.838 91.1842L171.869 89.3662L170.166 89.5153L170.206 86.5702L175.904 86.0711L175.783 95.1687L162.289 96.3506L164.552 79.8104ZM189.026 97.629L177.573 98.6321L177.595 96.0131L177.779 82.2728L191.29 81.0895L190.553 86.4786L184.394 87.0179L184.418 85.2197L182.591 85.3797L182.479 93.7587L186.003 93.45L186.034 91.632L184.331 91.7811L184.37 88.8361L190.301 88.3166L189.026 97.629Z" fill="black"/>
<path d="M205.865 88.1127L205.689 86.1031L209.295 85.7873L209.701 90.431C209.851 92.148 209.121 93.077 207.509 93.2181L205.054 93.4332C203.442 93.5743 202.562 92.7864 202.412 91.0694L201.724 83.2063C201.574 81.4894 202.305 80.5603 203.916 80.4192L206.372 80.2041C207.983 80.063 208.864 80.8509 209.014 82.5679L209.118 83.7581L206.526 83.9851L206.393 82.4633C206.384 82.3592 206.337 82.2716 206.252 82.2004C206.18 82.128 206.092 82.0964 205.988 82.1055L204.76 82.213C204.656 82.2221 204.569 82.2691 204.498 82.354C204.44 82.4377 204.415 82.5316 204.424 82.6357L205.168 91.1426C205.177 91.2467 205.217 91.3349 205.289 91.4072C205.374 91.4784 205.468 91.5095 205.572 91.5004L206.8 91.3928C206.904 91.3837 206.985 91.3373 207.043 91.2536C207.114 91.1687 207.145 91.0742 207.136 90.9702L206.879 88.024L205.865 88.1127Z" fill="black"/>
<path d="M216.969 81.8712L217.657 89.7342C217.807 91.4512 217.076 92.3803 215.465 92.5214L212.873 92.7484C211.261 92.8895 210.381 92.1016 210.231 90.3846L209.543 82.5215C209.393 80.8045 210.124 79.8755 211.735 79.7344L214.328 79.5073C215.939 79.3662 216.819 80.1542 216.969 81.8712ZM214.955 90.2854L214.212 81.7785C214.203 81.6744 214.156 81.5868 214.071 81.5155C213.999 81.4432 213.911 81.4116 213.807 81.4207L212.579 81.5282C212.475 81.5373 212.388 81.5843 212.317 81.6692C212.259 81.7529 212.234 81.8468 212.243 81.9509L212.987 90.4578C212.996 90.5619 213.036 90.6501 213.108 90.7224C213.193 90.7936 213.287 90.8247 213.391 90.8156L214.619 90.708C214.723 90.6989 214.804 90.6525 214.862 90.5688C214.933 90.4839 214.964 90.3894 214.955 90.2854Z" fill="black"/>
<path d="M225.436 81.1297L226.123 88.9927C226.273 90.7097 225.542 91.6388 223.931 91.7799L221.339 92.0069C219.728 92.148 218.847 91.3601 218.697 89.6431L218.01 81.7801C217.86 80.0631 218.59 79.134 220.202 78.9929L222.794 78.7659C224.405 78.6248 225.286 79.4127 225.436 81.1297ZM223.422 89.5439L222.678 81.037C222.669 80.9329 222.622 80.8453 222.537 80.7741C222.465 80.7017 222.378 80.6701 222.274 80.6792L221.046 80.7867C220.942 80.7958 220.854 80.8428 220.783 80.9277C220.725 81.0114 220.7 81.1053 220.71 81.2094L221.453 89.7163C221.462 89.8204 221.503 89.9086 221.574 89.9809C221.659 90.0521 221.753 90.0832 221.857 90.0741L223.085 89.9666C223.189 89.9575 223.27 89.911 223.328 89.8273C223.4 89.7424 223.431 89.648 223.422 89.5439Z" fill="black"/>
<path d="M231.277 78.2195C232.888 78.0784 233.769 78.8663 233.919 80.5833L234.572 88.0561C234.722 89.7731 233.992 90.7022 232.38 90.8433L227.371 91.282L226.268 78.6582L231.277 78.2195ZM231.871 88.6073L231.161 80.4906C231.152 80.3865 231.105 80.2989 231.021 80.2277C230.949 80.1553 230.861 80.1237 230.757 80.1328L229.159 80.2728L229.936 89.1699L231.535 89.03C231.639 89.0209 231.72 88.9744 231.778 88.8907C231.849 88.8058 231.88 88.7114 231.871 88.6073Z" fill="black"/>
<path d="M239.102 85.2018L238.927 83.1922L242.532 82.8764L242.938 87.52C243.088 89.237 242.358 90.1661 240.746 90.3072L238.291 90.5223C236.679 90.6634 235.799 89.8755 235.649 88.1585L234.961 80.2954C234.811 78.5784 235.542 77.6494 237.153 77.5083L239.609 77.2932C241.22 77.1521 242.101 77.94 242.251 79.657L242.355 80.8472L239.763 81.0742L239.63 79.5523C239.621 79.4483 239.574 79.3606 239.489 79.2894C239.417 79.2171 239.329 79.1854 239.225 79.1945L237.997 79.3021C237.893 79.3112 237.806 79.3582 237.735 79.4431C237.677 79.5268 237.652 79.6207 237.661 79.7247L238.405 88.2317C238.414 88.3357 238.454 88.4239 238.526 88.4963C238.611 88.5675 238.705 88.5986 238.809 88.5895L240.037 88.4819C240.141 88.4728 240.222 88.4264 240.28 88.3427C240.351 88.2578 240.382 88.1633 240.373 88.0593L240.116 85.1131L239.102 85.2018Z" fill="black"/>
<path d="M247.565 76.5964C249.176 76.4553 250.056 77.2432 250.207 78.9602L251.102 89.2037L248.373 89.4427L248.003 85.2087L246.034 85.3811L246.404 89.6151L243.676 89.854L242.781 79.6106C242.63 77.8936 243.361 76.9646 244.972 76.8235L247.565 76.5964ZM245.85 83.2739L247.819 83.1015L247.449 78.8675C247.44 78.7635 247.393 78.6758 247.308 78.6046C247.236 78.5323 247.148 78.5006 247.044 78.5097L245.816 78.6173C245.713 78.6264 245.625 78.6734 245.554 78.7582C245.496 78.842 245.471 78.9359 245.48 79.0399L245.85 83.2739Z" fill="black"/>
<path d="M259.392 88.4776L256.663 88.7166L255.748 78.239C255.739 78.1349 255.692 78.0473 255.607 77.9761C255.535 77.9037 255.447 77.8721 255.343 77.8812L254.291 77.9734C254.187 77.9825 254.099 78.0295 254.028 78.1144C253.97 78.1981 253.946 78.292 253.955 78.3961L254.87 88.8736L252.142 89.1126L251.246 78.8692C251.096 77.1522 251.827 76.2231 253.438 76.082L255.855 75.8703C257.466 75.7292 258.347 76.5172 258.497 78.2342L259.392 88.4776Z" fill="black"/>
<path d="M263.492 83.0657L263.317 81.0561L266.922 80.7403L267.328 85.3839C267.478 87.1009 266.748 88.03 265.136 88.1711L262.681 88.3862C261.069 88.5273 260.189 87.7394 260.039 86.0224L259.351 78.1593C259.201 76.4423 259.932 75.5133 261.543 75.3722L263.999 75.1571C265.61 75.016 266.491 75.8039 266.641 77.5209L266.745 78.7111L264.153 78.9381L264.02 77.4162C264.011 77.3122 263.964 77.2245 263.879 77.1533C263.807 77.081 263.719 77.0493 263.615 77.0584L262.387 77.166C262.283 77.1751 262.196 77.2221 262.125 77.307C262.067 77.3907 262.042 77.4846 262.051 77.5886L262.795 86.0956C262.804 86.1996 262.844 86.2878 262.916 86.3602C263.001 86.4314 263.095 86.4625 263.199 86.4534L264.427 86.3458C264.531 86.3367 264.612 86.2903 264.67 86.2066C264.741 86.1217 264.772 86.0272 264.763 85.9232L264.506 82.977L263.492 83.0657Z" fill="black"/>
<path d="M273.559 84.9169L276.541 84.6557L276.742 86.9581L271.031 87.4582L269.928 74.8344L272.657 74.5954L273.559 84.9169Z" fill="black"/>
<path d="M280.95 73.6725C282.561 73.5314 283.442 74.3193 283.592 76.0363L284.487 86.2797L281.759 86.5187L281.389 82.2848L279.42 82.4572L279.79 86.6911L277.061 86.9301L276.166 76.6867C276.016 74.9697 276.747 74.0406 278.358 73.8995L280.95 73.6725ZM279.236 80.35L281.204 80.1776L280.834 75.9436C280.825 75.8395 280.778 75.7519 280.694 75.6807C280.622 75.6083 280.534 75.5767 280.43 75.5858L279.202 75.6934C279.098 75.7025 279.01 75.7494 278.939 75.8343C278.881 75.9181 278.857 76.0119 278.866 76.116L279.236 80.35Z" fill="black"/>
<path d="M291.102 78.7405C291.973 78.9657 292.455 79.6182 292.55 80.6978L292.748 82.9611C292.898 84.6781 292.167 85.6071 290.556 85.7483L285.547 86.187L284.443 73.5632L289.297 73.1381C290.908 72.997 291.788 73.7849 291.938 75.5019L292.039 76.6531C292.13 77.6937 291.818 78.3895 291.102 78.7405ZM288.776 75.0514L287.334 75.1777L287.629 78.5532L289.071 78.4269C289.175 78.4178 289.256 78.3714 289.315 78.2876C289.386 78.2027 289.417 78.1083 289.408 78.0042L289.181 75.4092C289.172 75.3052 289.125 75.2175 289.04 75.1463C288.968 75.0739 288.88 75.0423 288.776 75.0514ZM290.046 83.5123L289.799 80.6831C289.79 80.5791 289.743 80.4914 289.658 80.4202C289.586 80.3479 289.498 80.3162 289.394 80.3253L287.796 80.4653L288.112 84.0749L289.71 83.9349C289.814 83.9258 289.895 83.8794 289.953 83.7957C290.024 83.7108 290.055 83.6163 290.046 83.5123Z" fill="black"/>
<path d="M300.044 75.5391L297.452 75.7661L297.365 74.7711C297.356 74.667 297.309 74.5794 297.224 74.5081C297.153 74.4358 297.065 74.4042 296.961 74.4133L295.889 74.5072C295.785 74.5163 295.697 74.5632 295.626 74.6481C295.568 74.7319 295.543 74.8258 295.553 74.9298L295.749 77.1736C295.758 77.2777 295.798 77.3659 295.87 77.4382C295.955 77.5095 296.049 77.5405 296.153 77.5314L297.907 77.3778C299.521 77.2627 300.401 78.0506 300.549 79.7416L300.786 82.4537C300.936 84.1707 300.206 85.0997 298.594 85.2408L296.295 85.4423C294.683 85.5834 293.803 84.7954 293.653 83.0784L293.538 81.7712L296.131 81.5441L296.253 82.949C296.262 83.053 296.303 83.1412 296.375 83.2136C296.46 83.2848 296.554 83.3159 296.658 83.3067L297.866 83.2009C297.97 83.1918 298.051 83.1454 298.109 83.0617C298.181 82.9768 298.212 82.8823 298.202 82.7783L297.986 80.3003C297.977 80.1963 297.93 80.1086 297.845 80.0374C297.773 79.9651 297.685 79.9334 297.581 79.9425L295.827 80.0962C294.216 80.2373 293.335 79.4493 293.185 77.7323L292.965 75.2154C292.815 73.4984 293.546 72.5693 295.157 72.4282L297.321 72.2387C298.932 72.0976 299.813 72.8856 299.963 74.6026L300.044 75.5391Z" fill="black"/>
<rect x="0.5" y="0.5" width="323" height="156" rx="7.5" stroke="#3F3F46"/>
</g>
</svg>
