<svg width="97" height="122" viewBox="0 0 97 122" fill="none" xmlns="http://www.w3.org/2000/svg">
<path d="M71.1668 1.17674L72.4209 1.40801L72.2921 6.50259L73.7497 1.65287L75.1259 1.90454L72.8752 8.29147L71.2617 7.99899L71.3295 3.84307L69.9465 7.76093L68.333 7.46845L68.455 0.687012L69.838 0.93868L69.5126 5.99925L71.1668 1.17674Z" fill="white"/>
<path d="M76.2222 7.95786L77.7543 8.39998L77.4221 9.54949L74.5002 8.70606L76.3442 2.27832L79.2661 3.12175L78.9407 4.25766L77.4086 3.81554L76.9747 5.32555L78.4119 5.74046L78.1001 6.83556L76.6629 6.42064L76.2222 7.95786Z" fill="white"/>
<path d="M85.0629 5.2101C85.8493 5.54339 86.0663 6.12835 85.7138 6.96498L83.6122 11.9643L82.2834 11.3998L83.1512 9.33202L82.1953 8.92391L81.3275 10.9917L79.9988 10.4271L82.1004 5.42776C82.4529 4.59114 83.0224 4.33947 83.8088 4.66596L85.0629 5.2101ZM82.6292 7.90363L83.585 8.31175L84.4528 6.24398C84.4731 6.19637 84.4731 6.14196 84.4596 6.08754C84.4392 6.03313 84.4053 5.99912 84.3579 5.97871L83.7613 5.72704C83.7139 5.70664 83.6596 5.70664 83.6122 5.72704C83.5579 5.74745 83.524 5.78826 83.5037 5.83587L82.6292 7.90363Z" fill="white"/>
<path d="M87.0021 10.6241L85.7208 13.0456L84.4463 12.3654L87.5716 6.45459L89.8359 7.65852C90.5884 8.05983 90.7511 8.65839 90.3307 9.46781L89.9714 10.1548C89.7138 10.6445 89.3749 10.8622 88.9613 10.8078C89.2054 11.0798 89.2257 11.4063 89.0223 11.8008L87.7885 14.1407L86.514 13.4605L87.6936 11.2227C87.7546 11.1002 87.7343 11.0118 87.619 10.9506L87.0021 10.6241ZM88.3919 8.00541L87.4767 9.73308L88.1478 10.0936C88.1953 10.1208 88.2495 10.1208 88.2969 10.1072C88.3512 10.0868 88.3919 10.0528 88.4122 10.0052L89.1308 8.64478C89.1579 8.59717 89.1647 8.54276 89.1511 8.48834C89.1376 8.43393 89.1037 8.39312 89.0562 8.36591L88.3919 8.00541Z" fill="white"/>
<path d="M90.3771 14.3586L91.7262 15.2157L91.0889 16.2291L88.5195 14.5967L92.0922 8.95117L94.6616 10.5836L94.0311 11.5767L92.682 10.7197L91.8414 12.046L93.1024 12.8486L92.4922 13.8077L91.2313 13.0051L90.3771 14.3586Z" fill="white"/>
<path d="M96.4658 16.9563L97.1302 16.1264L98.6149 17.3304L97.0759 19.2417C96.5065 19.9491 95.8896 20.0375 95.2252 19.5001L94.2151 18.6839C93.5507 18.1466 93.5032 17.5276 94.0727 16.8134L96.6828 13.5689C97.2522 12.8615 97.8691 12.7731 98.5335 13.3105L99.5436 14.1267C100.208 14.664 100.255 15.283 99.686 15.9972L99.2928 16.4869L98.2284 15.6231L98.7369 14.9973C98.7708 14.9565 98.7843 14.9021 98.7843 14.8477C98.7776 14.7933 98.7572 14.7457 98.7166 14.7117L98.2149 14.3035C98.1742 14.2695 98.12 14.2559 98.0657 14.2627C98.0115 14.2695 97.964 14.2967 97.9302 14.3375L95.1099 17.8473C95.076 17.8881 95.0625 17.9425 95.0625 17.9969C95.0625 18.0514 95.0896 18.099 95.1303 18.133L95.6387 18.5411C95.6794 18.5751 95.7336 18.5887 95.7879 18.5819C95.8421 18.5751 95.8896 18.5479 95.9235 18.5071L96.8997 17.2895L96.4658 16.9563Z" fill="white"/>
<path d="M100.094 104.517L101.084 103.565L101.45 103.946C101.491 103.987 101.538 104.007 101.592 104.014C101.646 104.021 101.694 104 101.735 103.959L102.141 103.565C102.182 103.524 102.202 103.483 102.202 103.422C102.202 103.368 102.182 103.32 102.141 103.279L101.321 102.422C101.28 102.381 101.24 102.361 101.179 102.354C101.124 102.347 101.077 102.368 101.036 102.408L100.365 103.055C99.7415 103.633 99.1178 103.599 98.5009 102.953L97.5111 101.912C96.8874 101.252 96.8806 100.633 97.4975 100.041L98.3789 99.198C98.9958 98.6063 99.6195 98.6403 100.243 99.3L100.718 99.8034L99.7279 100.756L99.2127 100.218C99.172 100.177 99.1314 100.157 99.0703 100.15C99.0161 100.143 98.9687 100.164 98.928 100.205L98.467 100.647C98.4263 100.688 98.406 100.728 98.406 100.79C98.406 100.844 98.4263 100.892 98.467 100.932L99.3686 101.885C99.4093 101.926 99.45 101.946 99.511 101.953C99.5652 101.96 99.6127 101.939 99.6534 101.898L100.325 101.252C100.941 100.66 101.565 100.694 102.189 101.354L103.104 102.32C103.728 102.98 103.735 103.599 103.118 104.191L102.291 104.986C101.674 105.578 101.05 105.544 100.426 104.884L100.094 104.517Z" fill="white"/>
<path d="M88.7032 114.502L87.5643 115.08L84.6153 110.931L86.3576 115.685L85.1034 116.318L83.0696 109.856L84.5339 109.115L86.9745 112.482L85.7339 108.516L87.1982 107.775L91.1641 113.264L89.9099 113.897L87.1372 109.659L88.7032 114.502Z" fill="white"/>
<path d="M80.5799 112.142L79.0885 112.714L78.6614 111.591L81.5019 110.503L83.8815 116.754L81.0409 117.842L80.6206 116.74L82.1121 116.169L81.5494 114.7L80.1528 115.237L79.7461 114.176L81.1426 113.639L80.5799 112.142Z" fill="white"/>
<path d="M75.1846 119.665C74.3575 119.876 73.8355 119.536 73.6118 118.651L72.2898 113.387L73.6863 113.033L74.2355 115.21L75.2456 114.951L74.6965 112.775L76.093 112.421L77.415 117.686C77.6387 118.57 77.3336 119.114 76.5065 119.325L75.1846 119.665ZM75.5168 116.039L74.5066 116.298L75.0558 118.475C75.0693 118.529 75.0964 118.57 75.1439 118.604C75.1914 118.638 75.2388 118.645 75.293 118.631L75.9235 118.475C75.9778 118.461 76.0184 118.427 76.0455 118.379C76.0727 118.332 76.0794 118.277 76.0659 118.223L75.5168 116.039Z" fill="white"/>
<path d="M70.3849 116.509L69.9578 113.802L71.3815 113.577L72.4323 120.182L69.8968 120.583C69.0562 120.719 68.5613 120.338 68.4189 119.434L68.2969 118.672C68.2087 118.128 68.3511 117.747 68.7104 117.536C68.3511 117.468 68.1409 117.216 68.0664 116.781L67.6528 114.169L69.0765 113.944L69.4765 116.448C69.4968 116.584 69.5714 116.645 69.7002 116.618L70.3849 116.509ZM70.8527 119.44L70.5476 117.509L69.7951 117.631C69.7409 117.638 69.7002 117.665 69.6663 117.713C69.6324 117.76 69.6256 117.808 69.6324 117.862L69.8765 119.386C69.8832 119.44 69.9104 119.488 69.9578 119.522C69.9985 119.556 70.0527 119.57 70.107 119.563L70.8527 119.44Z" fill="white"/>
<path d="M65.4571 115.563L63.864 115.692L63.769 114.495L66.7994 114.25L67.335 120.916L64.3046 121.161L64.2097 119.984L65.8028 119.855L65.6808 118.29L64.1894 118.413L64.1012 117.277L65.5927 117.154L65.4571 115.563Z" fill="white"/>
<path d="M59.0235 117.162L58.9896 118.223L57.0846 118.161L57.1659 115.699C57.193 114.788 57.6337 114.352 58.4879 114.38L59.7827 114.42C60.6369 114.448 61.0437 114.917 61.0166 115.828L60.881 119.991C60.8539 120.903 60.4132 121.338 59.559 121.311L58.2642 121.27C57.41 121.243 57.0032 120.773 57.0303 119.862L57.0507 119.229L58.4201 119.277L58.393 120.086C58.393 120.141 58.4065 120.188 58.4472 120.229C58.4811 120.27 58.5286 120.297 58.5828 120.297L59.2336 120.318C59.2878 120.318 59.3353 120.297 59.376 120.263C59.4166 120.222 59.437 120.175 59.437 120.12L59.5861 115.618C59.5861 115.563 59.5726 115.516 59.5319 115.468C59.498 115.427 59.4505 115.407 59.3963 115.4L58.7455 115.379C58.6913 115.379 58.6438 115.4 58.6031 115.434C58.5625 115.475 58.5421 115.522 58.5421 115.577L58.4879 117.134L59.0235 117.162Z" fill="white"/>
<path d="M54.3174 116.794L54.1954 117.849L52.304 117.624L52.5887 115.182C52.6904 114.278 53.1717 113.876 54.0124 113.978L55.3004 114.128C56.1479 114.23 56.5139 114.727 56.4123 115.631L55.9309 119.767C55.8225 120.671 55.3479 121.073 54.5073 120.971L53.2192 120.821C52.3718 120.719 52.0057 120.222 52.1074 119.318L52.182 118.692L53.5446 118.849L53.4497 119.651C53.4429 119.706 53.4565 119.753 53.4904 119.801C53.5243 119.848 53.5649 119.869 53.6192 119.876L54.2632 119.95C54.3174 119.957 54.3649 119.944 54.4056 119.903C54.4463 119.862 54.4734 119.821 54.4802 119.767L55.0022 115.291C55.0089 115.237 54.9954 115.189 54.9615 115.142C54.9276 115.094 54.8869 115.067 54.8327 115.06L54.1886 114.985C54.1344 114.978 54.0869 114.992 54.0463 115.033C54.0056 115.067 53.9785 115.114 53.9717 115.169L53.7887 116.72L54.3174 116.794Z" fill="white"/>
<path d="M48.4213 114.292L46.8892 113.931L47.1671 112.741L50.1093 113.428L48.5908 119.944L47.1874 119.617L48.4213 114.292Z" fill="white"/>
<path d="M42.0484 118.271C41.2349 118.012 40.9705 117.448 41.2417 116.584L42.8891 111.415L44.2653 111.857L43.5873 113.992L44.5771 114.312L45.255 112.176L46.6312 112.618L44.9839 117.788C44.7059 118.652 44.1636 118.958 43.35 118.699L42.0484 118.271ZM44.2381 115.373L43.2484 115.054L42.5704 117.189C42.5569 117.244 42.5569 117.291 42.5772 117.346C42.5975 117.4 42.6382 117.427 42.6925 117.448L43.3094 117.645C43.3636 117.665 43.4111 117.659 43.4585 117.631C43.506 117.604 43.5399 117.563 43.5534 117.509L44.2381 115.373Z" fill="white"/>
<path d="M37.6133 113.197C37.2608 112.877 37.1998 112.455 37.4235 111.925L37.8913 110.823C38.2438 109.986 38.8132 109.734 39.5996 110.061L42.0402 111.095L39.4505 117.257L37.0845 116.257C36.2981 115.924 36.0812 115.339 36.4337 114.503L36.671 113.938C36.8811 113.435 37.193 113.19 37.6133 113.197ZM37.7896 115.496L38.4946 115.795L39.1861 114.149L38.4811 113.85C38.4336 113.829 38.3794 113.829 38.3319 113.85C38.2845 113.87 38.2438 113.911 38.2234 113.958L37.6879 115.224C37.6675 115.271 37.6675 115.326 37.6811 115.38C37.7082 115.434 37.7421 115.475 37.7896 115.496ZM39.281 111.231L38.698 112.612C38.6777 112.659 38.6777 112.714 38.6912 112.768C38.7116 112.823 38.7454 112.857 38.7929 112.877L39.5725 113.203L40.3115 111.442L39.5318 111.115C39.4844 111.095 39.4302 111.095 39.3827 111.115C39.3352 111.149 39.3014 111.183 39.281 111.231Z" fill="white"/>
<path d="M32.0813 111.815L33.2948 112.461L33.0507 112.924C33.0236 112.971 33.0168 113.026 33.0304 113.08C33.0439 113.135 33.0778 113.175 33.1253 113.203L33.627 113.468C33.6744 113.495 33.7287 113.495 33.7761 113.482C33.8304 113.461 33.871 113.427 33.8914 113.38L34.4473 112.332C34.4744 112.284 34.4812 112.23 34.4676 112.176C34.4541 112.121 34.4202 112.08 34.3727 112.053L33.5524 111.618C32.8067 111.203 32.644 110.604 33.0575 109.815L33.7287 108.543C34.1558 107.741 34.7388 107.537 35.4913 107.938L36.5692 108.509C37.3217 108.911 37.4844 109.509 37.0641 110.319L36.7387 110.931L35.5252 110.285L35.8709 109.625C35.8981 109.577 35.9048 109.523 35.8913 109.468C35.8777 109.414 35.8438 109.373 35.7964 109.346L35.2337 109.047C35.1862 109.02 35.132 109.02 35.0845 109.033C35.0303 109.054 34.9896 109.088 34.9693 109.135L34.3591 110.298C34.332 110.346 34.3252 110.4 34.3388 110.455C34.3524 110.509 34.3863 110.55 34.4337 110.577L35.254 111.012C36.0065 111.414 36.1692 112.012 35.7489 112.815L35.1252 113.992C34.6981 114.794 34.1151 114.998 33.3626 114.597L32.3525 114.06C31.5999 113.658 31.4372 113.06 31.8576 112.257L32.0813 111.815Z" fill="white"/>
<path d="M19.0586 104.136L18.1502 103.232L21.1399 99.1096L17.1943 102.272L16.1978 101.279L21.6619 97.3003L22.8212 98.4566L20.4145 101.844L23.7703 99.4089L24.9295 100.565L20.9975 106.075L20.001 105.082L23.1262 101.103L19.0586 104.136Z" fill="white"/>
<path d="M18.715 95.6609L17.6981 94.4229L18.6201 93.6611L20.5522 96.0146L15.4067 100.266L13.4746 97.9123L14.383 97.1641L15.3999 98.402L16.6067 97.4021L15.6576 96.2458L16.5321 95.5248L17.4812 96.6812L18.715 95.6609Z" fill="white"/>
<path d="M9.87244 92.8991C9.41144 92.1781 9.56059 91.5727 10.3267 91.083L14.8756 88.1514L15.6552 89.3689L13.7706 90.5796L14.3332 91.4571L16.2179 90.2463L16.9975 91.4639L12.4486 94.3955C11.6825 94.8852 11.0724 94.7764 10.6114 94.0554L9.87244 92.8991ZM13.3977 92.0624L12.835 91.185L10.9504 92.3957C10.9029 92.4229 10.8758 92.4705 10.8622 92.525C10.8487 92.5794 10.8554 92.627 10.8826 92.6746L11.2351 93.2255C11.2622 93.2732 11.3097 93.3004 11.3639 93.3072C11.4181 93.314 11.4724 93.3072 11.513 93.28L13.3977 92.0624Z" fill="white"/>
<path d="M11.3377 87.3558L13.7579 86.0839L14.4291 87.3626L8.52425 90.4711L7.33109 88.1924C6.93788 87.4374 7.14126 86.8457 7.94123 86.424L8.62594 86.0635C9.11405 85.805 9.51403 85.8186 9.83266 86.0975C9.7852 85.737 9.95469 85.4513 10.3411 85.2472L12.68 84.0161L13.3511 85.2949L11.114 86.4716C10.9919 86.5328 10.9648 86.628 11.019 86.7436L11.3377 87.3558ZM8.72085 88.7366L10.4428 87.8319L10.0903 87.1518C10.0632 87.1042 10.0225 87.0701 9.96825 87.0565C9.91401 87.0429 9.85978 87.0497 9.81232 87.0769L8.44968 87.7911C8.40222 87.8183 8.36832 87.8592 8.34799 87.9068C8.32765 87.9612 8.33443 88.0088 8.35477 88.0564L8.72085 88.7366Z" fill="white"/>
<path d="M10.6515 82.3638L10.021 80.8878L11.1192 80.4185L12.3124 83.2208L6.18389 85.8531L4.99072 83.0508L6.06864 82.5882L6.69912 84.0642L8.13633 83.4453L7.54653 82.0645L8.59055 81.6156L9.18035 82.9964L10.6515 82.3638Z" fill="white"/>
<path d="M7.0944 76.7382L6.0775 77.0443L5.53516 75.2078L7.88758 74.5072C8.75534 74.2487 9.31125 74.5276 9.5553 75.3506L9.92817 76.6022C10.1722 77.4184 9.86037 77.9626 8.98584 78.221L5.00637 79.4045C4.13861 79.663 3.58271 79.3841 3.33865 78.5611L2.96579 77.3096C2.72173 76.4934 3.03358 75.9492 3.90811 75.6907L4.51148 75.5139L4.90468 76.8334L4.13183 77.0647C4.0776 77.0783 4.03692 77.1123 4.0098 77.1599C3.98269 77.2075 3.97591 77.262 3.98947 77.3096L4.17251 77.9353C4.18607 77.9898 4.21996 78.0238 4.2742 78.051C4.32165 78.0782 4.37589 78.0782 4.43012 78.0646L8.735 76.779C8.78924 76.7654 8.82991 76.7314 8.85703 76.6838C8.88415 76.6362 8.89093 76.5818 8.87737 76.5342L8.69433 75.9084C8.68077 75.854 8.64687 75.82 8.59264 75.7928C8.5384 75.7656 8.49095 75.7656 8.43671 75.7792L6.94526 76.2213L7.0944 76.7382Z" fill="white"/>
<path d="M5.95519 72.1394L4.91795 72.3571L4.53153 70.4866L6.93141 69.99C7.81951 69.8064 8.3483 70.1329 8.52456 70.9695L8.78895 72.2482C8.95844 73.0849 8.60591 73.595 7.71782 73.7786L3.65022 74.6221C2.76212 74.8057 2.23333 74.4792 2.05707 73.6426L1.79268 72.3639C1.62319 71.5272 1.97572 71.0171 2.86381 70.8334L3.48073 70.7042L3.75869 72.051L2.97228 72.2142C2.91805 72.2278 2.87737 72.255 2.84347 72.2958C2.80958 72.3435 2.8028 72.3911 2.80958 72.4455L2.93839 73.0849C2.95194 73.1393 2.97906 73.1801 3.02652 73.2073C3.07397 73.2345 3.12821 73.2481 3.18244 73.2345L7.58223 72.323C7.63647 72.3094 7.67714 72.2822 7.71104 72.2414C7.74493 72.1938 7.75171 72.1462 7.74493 72.0918L7.61613 71.4524C7.60257 71.398 7.57545 71.3572 7.528 71.33C7.48054 71.3028 7.42631 71.2892 7.37207 71.3028L5.84672 71.6225L5.95519 72.1394Z" fill="white"/>
<path d="M6.46107 65.7264L6.3187 64.1484L7.5322 64.0396L7.80337 67.0596L1.16641 67.6649L1.0376 66.2229L6.46107 65.7264Z" fill="white"/>
<path d="M0.686823 60.9647C0.673264 60.1077 1.1207 59.6723 2.02913 59.6587L7.43904 59.5703L7.45938 61.0191L5.2222 61.0531L5.23576 62.1006L7.47294 62.0666L7.49328 63.5154L2.08337 63.6038C1.17493 63.6174 0.71394 63.1957 0.700381 62.3455L0.686823 60.9647ZM4.12395 62.1142L4.11039 61.0735L1.87321 61.1075C1.81897 61.1075 1.77152 61.1279 1.73084 61.1687C1.69016 61.2096 1.66983 61.2572 1.66983 61.3116L1.68338 61.9646C1.68338 62.019 1.70372 62.0666 1.7444 62.1006C1.78507 62.1346 1.83253 62.155 1.88677 62.155L4.12395 62.1142Z" fill="white"/>
<path d="M4.07683 55.1221C4.26666 54.6868 4.6463 54.4895 5.21576 54.5371L6.40893 54.6256C7.31058 54.6936 7.7309 55.1561 7.66988 56.0063L7.4665 58.6522L0.822754 58.1489L1.01258 55.5846C1.07359 54.7344 1.5617 54.3399 2.46335 54.4079L3.06671 54.4555C3.61584 54.4963 3.95481 54.714 4.07683 55.1221ZM1.96168 56.0199L1.90745 56.7817L3.68363 56.9178L3.73787 56.156C3.74465 56.1016 3.72431 56.0539 3.68363 56.0131C3.64296 55.9723 3.60228 55.9519 3.54127 55.9451L2.17862 55.8363C2.12439 55.8295 2.07693 55.8499 2.02948 55.8839C1.9888 55.9179 1.96846 55.9655 1.96168 56.0199ZM6.46316 56.0743L4.97171 55.9655C4.91747 55.9587 4.87002 55.9791 4.82256 56.0131C4.78189 56.0471 4.75477 56.0879 4.75477 56.1424L4.68698 56.9926L6.58519 57.1354L6.6462 56.292C6.65298 56.2376 6.63264 56.19 6.59197 56.1492C6.56485 56.1016 6.5174 56.0811 6.46316 56.0743Z" fill="white"/>
<path d="M3.61366 49.4219L3.38995 50.7823L2.86794 50.7007C2.8137 50.6939 2.76625 50.7007 2.71879 50.7347C2.67134 50.7619 2.64422 50.8095 2.63744 50.8639L2.54931 51.4285C2.54253 51.4829 2.55609 51.5305 2.58998 51.5781C2.62388 51.6189 2.67134 51.6461 2.72557 51.6597L3.8984 51.8502C3.95263 51.857 4.00009 51.8502 4.04754 51.8162C4.095 51.789 4.12211 51.7414 4.12889 51.6869L4.27804 50.7687C4.42718 49.9253 4.94241 49.5784 5.82373 49.7212L7.24061 49.9525C8.13548 50.1021 8.51513 50.5918 8.37954 51.4353L8.18294 52.6392C8.04735 53.4826 7.53212 53.8295 6.63725 53.6867L5.95254 53.5779L6.17625 52.2175L6.90842 52.3399C6.96266 52.3467 7.01011 52.3399 7.05757 52.3059C7.10502 52.2787 7.13214 52.2311 7.13892 52.1767L7.24061 51.5441C7.24739 51.4897 7.23383 51.4421 7.19993 51.3945C7.16604 51.3537 7.11858 51.3264 7.06435 51.3128L5.76949 51.0952C5.71526 51.0884 5.6678 51.0952 5.62035 51.1292C5.57289 51.1632 5.54577 51.204 5.539 51.2584L5.38985 52.1767C5.25426 53.0201 4.73903 53.367 3.84416 53.2242L2.52897 53.0065C1.6341 52.8569 1.25446 52.3671 1.39004 51.5237L1.57308 50.3878C1.70867 49.5444 2.2239 49.1975 3.11877 49.3403L3.61366 49.4219Z" fill="white"/>
<path d="M6.73328 34.5673L7.30274 33.4178L12.1432 34.9618L7.9061 32.2071L8.5298 30.9487L14.0211 34.8938L13.2957 36.3698L9.32976 35.1523L12.6991 37.5737L11.9737 39.0497L5.51978 37.05L6.14347 35.7916L10.8958 37.5057L6.73328 34.5673Z" fill="white"/>
<path d="M14.6462 31.5611L15.4937 30.2007L16.5038 30.8401L14.8835 33.4248L9.23633 29.8674L10.8566 27.2827L11.8532 27.9085L11.0057 29.2689L12.3345 30.1055L13.1277 28.8335L14.0903 29.4389L13.2972 30.7108L14.6462 31.5611Z" fill="white"/>
<path d="M14.4489 22.2899C14.9844 21.6233 15.6013 21.5757 16.3132 22.147L20.5231 25.5547L19.6147 26.6838L17.8724 25.2759L17.2216 26.0921L18.9639 27.5001L18.0555 28.6292L13.8455 25.2215C13.1405 24.6501 13.0523 24.0311 13.5879 23.3645L14.4489 22.2899ZM16.3539 25.3847L17.0047 24.5685L15.2624 23.1605C15.2217 23.1265 15.1675 23.1129 15.1132 23.1129C15.059 23.1197 15.0115 23.1401 14.9777 23.1809L14.5709 23.691C14.537 23.7318 14.5234 23.7863 14.5302 23.8407C14.537 23.8951 14.5641 23.9427 14.6048 23.9767L16.3539 25.3847Z" fill="white"/>
<path d="M20.1769 21.909L22.143 23.8068L21.1396 24.8474L16.3398 20.2086L18.116 18.3517C18.7058 17.7327 19.3295 17.7463 19.9803 18.3721L20.5363 18.9094C20.9295 19.2903 21.0515 19.678 20.8888 20.0657C21.2142 19.9025 21.5396 19.9773 21.8514 20.2834L23.7497 22.1199L22.7463 23.1606L20.9295 21.4057C20.8278 21.3105 20.7329 21.3105 20.6447 21.4057L20.1769 21.909ZM18.0415 19.8549L19.4448 21.2085L19.9736 20.6575C20.0142 20.6167 20.0278 20.5691 20.0278 20.5147C20.021 20.4603 20.0007 20.4126 19.96 20.3718L18.855 19.3039C18.8143 19.2631 18.7668 19.2427 18.7126 19.2427C18.6584 19.2427 18.6109 19.2631 18.5702 19.2971L18.0415 19.8549Z" fill="white"/>
<path d="M24.672 19.6845L25.8652 18.6166L26.6584 19.5145L24.3873 21.5414L19.9536 16.5421L22.2247 14.5151L23.0043 15.3926L21.8112 16.4605L22.8552 17.6372L23.9738 16.6441L24.7263 17.4943L23.6077 18.4874L24.672 19.6845Z" fill="white"/>
<path d="M28.8474 14.5222L28.2373 13.6516L29.7965 12.5497L31.2066 14.563C31.7286 15.3044 31.6405 15.9234 30.9422 16.4199L29.8779 17.1682C29.1796 17.6579 28.5695 17.5355 28.0475 16.7872L25.6611 13.3795C25.1391 12.6381 25.2272 12.0192 25.9255 11.5226L26.9899 10.7744C27.6881 10.2847 28.2983 10.4071 28.8203 11.1553L29.1796 11.6723L28.061 12.4613L27.6 11.8015C27.5661 11.7539 27.5254 11.7267 27.4712 11.7131C27.417 11.6995 27.3695 11.7131 27.3221 11.7403L26.7933 12.1144C26.7458 12.1484 26.7255 12.1892 26.7119 12.2436C26.7051 12.298 26.7187 12.3524 26.7458 12.3933L29.3287 16.0799C29.3626 16.1275 29.4033 16.1547 29.4576 16.1683C29.5118 16.1819 29.5592 16.1683 29.6067 16.1411L30.1355 15.767C30.1829 15.733 30.2033 15.6922 30.2168 15.6377C30.2304 15.5833 30.2101 15.5289 30.1829 15.4881L29.2881 14.2094L28.8474 14.5222Z" fill="white"/>
<path d="M32.828 11.9717L32.2924 11.0534L33.9398 10.0876L35.1804 12.2097C35.6414 12.9919 35.499 13.6041 34.7669 14.0326L33.6483 14.6924C32.9161 15.1209 32.3195 14.9441 31.8585 14.1619L29.7637 10.5637C29.3027 9.78148 29.4451 9.16931 30.1772 8.74079L31.2958 8.08101C32.028 7.6525 32.6246 7.82935 33.0856 8.61156L33.4042 9.15571L32.2178 9.84949L31.8111 9.15571C31.7839 9.10809 31.7433 9.07408 31.689 9.06048C31.6348 9.04688 31.5873 9.04688 31.5399 9.07408L30.9772 9.40057C30.9298 9.42778 30.9026 9.46859 30.8891 9.52301C30.8755 9.57742 30.8823 9.63184 30.9162 9.67945L33.1805 13.5701C33.2076 13.6177 33.2483 13.6517 33.3025 13.6653C33.3568 13.6789 33.4042 13.6789 33.4517 13.6517L34.0143 13.3252C34.0618 13.298 34.0889 13.2572 34.1025 13.2028C34.116 13.1484 34.1093 13.094 34.0754 13.0464L33.289 11.6996L32.828 11.9717Z" fill="white"/>
<path d="M39.0527 10.4071L40.4967 9.7677L40.9848 10.89L38.2256 12.1143L35.5342 5.99267L36.8561 5.40771L39.0527 10.4071Z" fill="white"/>
<path d="M41.7507 3.3874C42.5575 3.10852 43.1066 3.3942 43.4049 4.25123L45.1878 9.37302L43.8252 9.84915L43.0863 7.73377L42.1032 8.08067L42.8422 10.196L41.4795 10.6722L39.6966 5.55038C39.3983 4.69335 39.6491 4.122 40.4559 3.83632L41.7507 3.3874ZM41.7372 7.02638L42.7202 6.67949L41.988 4.56411C41.9677 4.5097 41.9338 4.47569 41.8863 4.44848C41.8389 4.42128 41.7846 4.41447 41.7372 4.43488L41.127 4.65254C41.0728 4.67294 41.0389 4.70695 41.0186 4.75457C40.9982 4.80898 40.9914 4.85659 41.0118 4.91101L41.7372 7.02638Z" fill="white"/>
<path d="M48.3168 4.76789C48.7914 4.8155 49.0964 5.11478 49.232 5.66573L49.5235 6.82885C49.7473 7.71309 49.4422 8.25723 48.6151 8.46809L46.0457 9.11427L44.4187 2.62531L46.9067 1.99954C47.7338 1.78868 48.2558 2.12877 48.4795 3.01301L48.6287 3.60477C48.7643 4.14212 48.6626 4.52982 48.3168 4.76789ZM46.7982 3.04022L46.0593 3.22387L46.4932 4.95834L47.2321 4.77469C47.2864 4.76109 47.327 4.72708 47.3541 4.67946C47.3813 4.63185 47.3881 4.57744 47.3745 4.52302L47.0423 3.18986C47.0287 3.13544 47.0016 3.09463 46.9542 3.06062C46.9067 3.02661 46.8525 3.02661 46.7982 3.04022ZM48.1677 7.34579L47.8016 5.89019C47.788 5.83578 47.7609 5.79497 47.7135 5.76096C47.666 5.72695 47.6185 5.72014 47.5643 5.73375L46.744 5.9378L47.2118 7.79471L48.0321 7.59065C48.0863 7.57705 48.127 7.54304 48.1541 7.49543C48.1744 7.44781 48.1812 7.4002 48.1677 7.34579Z" fill="white"/>
<path d="M53.5662 2.5367L52.2103 2.75436L52.1289 2.23062C52.1222 2.1762 52.095 2.12859 52.0476 2.09458C52.0001 2.06057 51.9595 2.04697 51.9052 2.06057L51.3425 2.14899C51.2883 2.1558 51.2476 2.183 51.2137 2.23062C51.1798 2.27823 51.173 2.32584 51.1798 2.38026L51.3696 3.55698C51.3764 3.61139 51.4035 3.659 51.451 3.69301C51.4985 3.72702 51.5459 3.74063 51.6001 3.73382L52.5154 3.58418C53.356 3.46175 53.8509 3.84265 53.9932 4.72689L54.217 6.14848C54.3593 7.04632 54.0136 7.56326 53.173 7.6993L51.973 7.88975C51.1324 8.02579 50.6375 7.64488 50.4951 6.74704L50.3799 6.06005L51.7357 5.8424L51.851 6.57699C51.8578 6.63141 51.8849 6.67902 51.9323 6.71303C51.973 6.74704 52.0272 6.76064 52.0815 6.75384L52.712 6.65182C52.7662 6.64501 52.8069 6.61781 52.8408 6.57019C52.8747 6.52258 52.8814 6.47497 52.8747 6.42055L52.6713 5.1214C52.6645 5.06699 52.6374 5.01937 52.5899 4.98536C52.5493 4.95135 52.495 4.93775 52.4408 4.94455L51.5256 5.09419C50.6849 5.23023 50.19 4.84933 50.0477 3.95148L49.8375 2.63192C49.6952 1.73408 50.0409 1.21714 50.8815 1.0811L52.0137 0.897455C52.8543 0.761418 53.3492 1.14232 53.4916 2.04016L53.5662 2.5367Z" fill="white"/>
</svg>
