<svg width="690" height="334" viewBox="0 0 690 334" fill="none" xmlns="http://www.w3.org/2000/svg">
<rect width="690" height="334" rx="8" fill="black"/>
<mask id="mask0_1_284" style="mask-type:alpha" maskUnits="userSpaceOnUse" x="0" y="0" width="690" height="334">
<rect width="690" height="334" rx="8" fill="black"/>
</mask>
<g mask="url(#mask0_1_284)">
<rect x="-1283.61" y="-243" width="2171.67" height="60" transform="rotate(9 -1283.61 -243)" fill="white"/>
<path d="M-55.8731 -15.6772L-55.4703 -18.2205L-50.9022 -17.497L-51.833 -11.6202C-52.1772 -9.44731 -53.3699 -8.5225 -55.4111 -8.8458L-58.5223 -9.33857C-60.5635 -9.66187 -61.4121 -10.91 -61.0679 -13.0829L-59.4918 -23.0338C-59.1477 -25.2068 -57.955 -26.1316 -55.9138 -25.8083L-52.8025 -25.3155C-50.7613 -24.9922 -49.9128 -23.7441 -50.2569 -21.5712L-50.4955 -20.065L-53.7796 -20.5851L-53.4745 -22.5111C-53.4537 -22.6428 -53.4848 -22.7658 -53.5679 -22.8803C-53.6346 -22.9921 -53.7338 -23.0584 -53.8655 -23.0792L-55.4211 -23.3256C-55.5528 -23.3465 -55.6758 -23.3154 -55.7902 -23.2322C-55.8882 -23.1465 -55.9476 -23.0378 -55.9684 -22.9061L-57.6736 -12.1403C-57.6944 -12.0086 -57.6715 -11.8868 -57.6049 -11.775C-57.5217 -11.6606 -57.4143 -11.593 -57.2826 -11.5721L-55.727 -11.3258C-55.5953 -11.3049 -55.4805 -11.3373 -55.3826 -11.4231C-55.2681 -11.5062 -55.2005 -11.6136 -55.1797 -11.7453L-54.5891 -15.4738L-55.8731 -15.6772Z" fill="black"/>
<path d="M-40.1783 -19.9749L-41.7544 -10.0239C-42.0985 -7.85101 -43.2912 -6.9262 -45.3324 -7.2495L-48.6165 -7.76964C-50.6577 -8.09294 -51.5062 -9.34105 -51.1621 -11.514L-49.586 -21.4649C-49.2419 -23.6378 -48.0492 -24.5626 -46.0079 -24.2393L-42.7239 -23.7192C-40.6827 -23.3959 -39.8341 -22.1478 -40.1783 -19.9749ZM-45.2738 -10.1764L-43.5687 -20.9422C-43.5479 -21.0739 -43.579 -21.1969 -43.6621 -21.3113C-43.7288 -21.4231 -43.828 -21.4895 -43.9596 -21.5103L-45.5153 -21.7567C-45.6469 -21.7776 -45.77 -21.7464 -45.8844 -21.6633C-45.9824 -21.5776 -46.0418 -21.4689 -46.0626 -21.3372L-47.7678 -10.5714C-47.7886 -10.4397 -47.7657 -10.3179 -47.699 -10.2061C-47.6159 -10.0917 -47.5085 -10.0241 -47.3768 -10.0032L-45.8212 -9.75683C-45.6895 -9.73597 -45.5747 -9.76841 -45.4768 -9.85414C-45.3623 -9.93727 -45.2947 -10.0447 -45.2738 -10.1764Z" fill="black"/>
<path d="M-29.4526 -18.2761L-31.0287 -8.32515C-31.3729 -6.15223 -32.5655 -5.22742 -34.6068 -5.55072L-37.8908 -6.07086C-39.932 -6.39416 -40.7806 -7.64227 -40.4364 -9.81518L-38.8603 -19.7661C-38.5162 -21.9391 -37.3235 -22.8639 -35.2823 -22.5406L-31.9982 -22.0204C-29.957 -21.6971 -29.1085 -20.449 -29.4526 -18.2761ZM-34.5482 -8.47759L-32.843 -19.2434C-32.8222 -19.3751 -32.8533 -19.4981 -32.9364 -19.6125C-33.0031 -19.7244 -33.1023 -19.7907 -33.234 -19.8115L-34.7896 -20.0579C-34.9213 -20.0788 -35.0443 -20.0476 -35.1587 -19.9645C-35.2567 -19.8788 -35.3161 -19.7701 -35.337 -19.6384L-37.0421 -8.87259C-37.063 -8.74089 -37.04 -8.61915 -36.9734 -8.50734C-36.8903 -8.39293 -36.7829 -8.32529 -36.6512 -8.30444L-35.0955 -8.05805C-34.9639 -8.03719 -34.849 -8.06963 -34.7511 -8.15536C-34.6367 -8.23849 -34.569 -8.3459 -34.5482 -8.47759Z" fill="black"/>
<path d="M-21.3117 -20.0747C-19.2704 -19.7514 -18.4219 -18.5033 -18.7661 -16.3304L-20.2639 -6.87329C-20.6081 -4.70037 -21.8008 -3.77557 -23.842 -4.09886L-30.1879 -5.10396L-27.6576 -21.0798L-21.3117 -20.0747ZM-23.7834 -7.02573L-22.1565 -17.2977C-22.1356 -17.4294 -22.1668 -17.5524 -22.2499 -17.6668C-22.3166 -17.7786 -22.4157 -17.845 -22.5474 -17.8658L-24.5722 -18.1865L-26.3555 -6.92689L-24.3308 -6.6062C-24.1991 -6.58534 -24.0843 -6.61777 -23.9863 -6.70351C-23.8719 -6.78663 -23.8043 -6.89404 -23.7834 -7.02573Z" fill="black"/>
<path d="M-13.7662 -9.0081L-13.3634 -11.5514L-8.79532 -10.8279L-9.7261 -4.95115C-10.0703 -2.77823 -11.2629 -1.85342 -13.3042 -2.17672L-16.4154 -2.66949C-18.4566 -2.99279 -19.3051 -4.24089 -18.961 -6.41381L-17.3849 -16.3648C-17.0407 -18.5377 -15.8481 -19.4625 -13.8068 -19.1392L-10.6956 -18.6464C-8.6544 -18.3231 -7.80587 -17.075 -8.15003 -14.9021L-8.38859 -13.3959L-11.6727 -13.916L-11.3676 -15.842C-11.3467 -15.9737 -11.3779 -16.0968 -11.461 -16.2112C-11.5277 -16.323 -11.6268 -16.3893 -11.7585 -16.4102L-13.3141 -16.6565C-13.4458 -16.6774 -13.5689 -16.6463 -13.6833 -16.5631C-13.7813 -16.4774 -13.8407 -16.3687 -13.8615 -16.237L-15.5666 -5.47121C-15.5875 -5.33952 -15.5646 -5.21777 -15.4979 -5.10596C-15.4148 -4.99155 -15.3074 -4.92392 -15.1757 -4.90306L-13.6201 -4.65668C-13.4884 -4.63582 -13.3736 -4.66825 -13.2756 -4.75399C-13.1612 -4.83711 -13.0936 -4.94452 -13.0727 -5.07621L-12.4822 -8.80474L-13.7662 -9.0081Z" fill="black"/>
<path d="M-0.616973 -17.0501C1.42425 -16.7268 2.27278 -15.4787 1.92863 -13.3058L-0.124575 -0.342395L-3.58148 -0.889915L-2.73282 -6.24812L-5.22674 -6.64312L-6.07539 -1.28491L-9.5323 -1.83243L-7.4791 -14.7958C-7.13494 -16.9687 -5.94225 -17.8936 -3.90103 -17.5703L-0.616973 -17.0501ZM-4.80436 -9.30988L-2.31045 -8.91488L-1.46179 -14.2731C-1.44094 -14.4048 -1.47207 -14.5278 -1.55519 -14.6422C-1.62186 -14.754 -1.72104 -14.8204 -1.85273 -14.8412L-3.40834 -15.0876C-3.54003 -15.1085 -3.66308 -15.0773 -3.77749 -14.9942C-3.87544 -14.9085 -3.93485 -14.7998 -3.95571 -14.6681L-4.80436 -9.30988Z" fill="black"/>
<path d="M10.3783 1.3211L6.92138 0.773575L9.02151 -12.4861C9.04237 -12.6178 9.01123 -12.7409 8.92811 -12.8553C8.86144 -12.9671 8.76227 -13.0334 8.63057 -13.0543L7.29719 -13.2655C7.1655 -13.2863 7.04245 -13.2552 6.92804 -13.1721C6.83009 -13.0863 6.77068 -12.9776 6.74982 -12.8459L4.64969 0.413775L1.19279 -0.133744L3.24599 -13.0971C3.59015 -15.2701 4.78284 -16.1949 6.82406 -15.8716L9.88588 -15.3866C11.9271 -15.0633 12.7756 -13.8152 12.4315 -11.6423L10.3783 1.3211Z" fill="black"/>
<path d="M17.1328 -4.11418L17.5356 -6.65748L22.1037 -5.93397L21.1729 -0.0572269C20.8287 2.11569 19.636 3.0405 17.5948 2.7172L14.4836 2.22443C12.4424 1.90113 11.5938 0.653025 11.938 -1.51989L13.5141 -11.4708C13.8582 -13.6438 15.0509 -14.5686 17.0921 -14.2453L20.2034 -13.7525C22.2446 -13.4292 23.0931 -12.1811 22.749 -10.0082L22.5104 -8.50196L19.2263 -9.0221L19.5314 -10.9481C19.5522 -11.0798 19.5211 -11.2028 19.438 -11.3173C19.3713 -11.4291 19.2721 -11.4954 19.1404 -11.5162L17.5848 -11.7626C17.4531 -11.7835 17.3301 -11.7524 17.2157 -11.6692C17.1177 -11.5835 17.0583 -11.4748 17.0375 -11.3431L15.3323 -0.577291C15.3115 -0.4456 15.3344 -0.323852 15.401 -0.212047C15.4842 -0.0976344 15.5916 -0.0299988 15.7233 -0.00914117L17.2789 0.237244C17.4106 0.258101 17.5254 0.225663 17.6233 0.139931C17.7377 0.0568057 17.8054 -0.0506035 17.8262 -0.182295L18.4168 -3.91082L17.1328 -4.11418Z" fill="black"/>
<path d="M29.0419 1.29036L32.8199 1.88872L32.3584 4.8024L25.1236 3.65652L27.6539 -12.3193L31.1108 -11.7718L29.0419 1.29036Z" fill="black"/>
<path d="M41.678 -10.3512C43.7192 -10.0279 44.5678 -8.77984 44.2236 -6.60693L42.1704 6.35648L38.7135 5.80896L39.5622 0.450748L37.0683 0.0557523L36.2196 5.41396L32.7627 4.86644L34.8159 -8.09697C35.1601 -10.2699 36.3527 -11.1947 38.394 -10.8714L41.678 -10.3512ZM37.4906 -2.61101L39.9845 -2.21601L40.8332 -7.57422C40.8541 -7.70591 40.8229 -7.82896 40.7398 -7.94337C40.6731 -8.05518 40.574 -8.12151 40.4423 -8.14237L38.8867 -8.38875C38.755 -8.40961 38.6319 -8.37848 38.5175 -8.29535C38.4196 -8.20962 38.3602 -8.10091 38.3393 -7.96921L37.4906 -2.61101Z" fill="black"/>
<path d="M52.6997 -0.936171C53.7097 -0.388087 54.1065 0.569106 53.8901 1.93541L53.4364 4.7997C53.0923 6.97262 51.8996 7.89742 49.8584 7.57413L43.5125 6.56904L46.0428 -9.40682L52.1912 -8.43301C54.2324 -8.10972 55.0809 -6.86161 54.7368 -4.6887L54.506 -3.23186C54.2974 -1.91494 53.6953 -1.14971 52.6997 -0.936171ZM50.9554 -6.22413L49.1282 -6.51354L48.4516 -2.24179L50.2788 -1.95238C50.4105 -1.93152 50.5253 -1.96396 50.6233 -2.0497C50.7377 -2.13282 50.8053 -2.24023 50.8262 -2.37192L51.3463 -5.65598C51.3672 -5.78768 51.3361 -5.91073 51.2529 -6.02514C51.1863 -6.13695 51.0871 -6.20328 50.9554 -6.22413ZM49.917 4.64726L50.484 1.06689C50.5049 0.935198 50.4738 0.812146 50.3906 0.697734C50.324 0.585929 50.2248 0.519598 50.0931 0.49874L48.0683 0.178049L47.3448 4.74611L49.3696 5.0668C49.5013 5.08765 49.6161 5.05522 49.7141 4.96948C49.8285 4.88636 49.8961 4.77895 49.917 4.64726Z" fill="black"/>
<path d="M64.7752 -2.13692L61.4912 -2.65706L61.6906 -3.91637C61.7115 -4.04806 61.6803 -4.17111 61.5972 -4.28552C61.5305 -4.39733 61.4314 -4.46366 61.2997 -4.48452L59.9416 -4.69961C59.8099 -4.72047 59.6869 -4.68934 59.5724 -4.60621C59.4745 -4.52048 59.4151 -4.41177 59.3942 -4.28008L58.9445 -1.44047C58.9236 -1.30878 58.9465 -1.18703 59.0132 -1.07523C59.0963 -0.960815 59.2037 -0.893181 59.3354 -0.872322L61.5577 -0.520344C63.5937 -0.164125 64.4423 1.08398 64.1033 3.22397L63.5597 6.65619C63.2155 8.8291 62.0229 9.75391 59.9816 9.43061L57.068 8.96913C55.0267 8.64583 54.1782 7.39773 54.5224 5.22481L54.7844 3.57044L58.0685 4.09058L57.7869 5.86842C57.766 6.00011 57.7889 6.12186 57.8556 6.23366C57.9387 6.34808 58.0461 6.41571 58.1778 6.43657L59.7087 6.67904C59.8404 6.6999 59.9552 6.66746 60.0532 6.58173C60.1676 6.4986 60.2352 6.3912 60.2561 6.2595L60.7528 3.12359C60.7736 2.9919 60.7425 2.86885 60.6594 2.75444C60.5927 2.64263 60.4935 2.5763 60.3618 2.55545L58.1395 2.20347C56.0983 1.88017 55.2498 0.632064 55.5939 -1.54085L56.0984 -4.72614C56.4426 -6.89906 57.6353 -7.82386 59.6765 -7.50057L62.4173 -7.06646C64.4586 -6.74316 65.3071 -5.49506 64.9629 -3.32215L64.7752 -2.13692Z" fill="black"/>
<path d="M104.852 -3.24424L106.031 -7.71815L87.1392 -10.7103L77.4665 13.471L97.2162 16.599L96.059 21.0764L114.944 24.0675L124.616 -0.113795L104.852 -3.24424ZM88.6209 -8.13842L103.125 -5.84123L101.353 0.880225L94.1332 -0.263224L94.7183 -2.4829L92.4038 -2.84948L89.6775 7.4934L94.142 8.2005L94.7411 5.9582L92.5844 5.61661L93.5424 1.98125L100.762 3.1247L97.8017 14.3546L80.7066 11.647L88.6209 -8.13842ZM113.462 21.4956L98.9523 19.1975L99.7884 15.9608L104.259 -1.00004L121.376 1.71104L118.797 8.15742L110.996 6.92176L111.581 4.70208L109.266 4.3355L106.54 14.6784L111.005 15.3855L111.604 13.1432L109.446 12.8015L110.404 9.1661L117.918 10.3562L113.462 21.4956Z" fill="black"/>
<path d="M137.276 14.9149L137.679 12.3716L142.247 13.0951L141.316 18.9718C140.972 21.1447 139.779 22.0695 137.738 21.7462L134.627 21.2535C132.586 20.9302 131.737 19.6821 132.081 17.5092L133.658 7.5582C134.002 5.38528 135.194 4.46048 137.236 4.78377L140.347 5.27654C142.388 5.59984 143.237 6.84795 142.892 9.02086L142.654 10.5271L139.37 10.0069L139.675 8.08095C139.696 7.94926 139.665 7.8262 139.581 7.71179C139.515 7.59999 139.416 7.53365 139.284 7.5128L137.728 7.26641C137.597 7.24555 137.474 7.27669 137.359 7.35981C137.261 7.44555 137.202 7.55426 137.181 7.68595L135.476 18.4518C135.455 18.5834 135.478 18.7052 135.544 18.817C135.628 18.9314 135.735 18.999 135.867 19.0199L137.422 19.2663C137.554 19.2871 137.669 19.2547 137.767 19.169C137.881 19.0858 137.949 18.9784 137.97 18.8467L138.56 15.1182L137.276 14.9149Z" fill="black"/>
<path d="M152.971 10.6172L151.395 20.5681C151.051 22.741 149.858 23.6658 147.817 23.3425L144.533 22.8224C142.492 22.4991 141.643 21.251 141.987 19.0781L143.563 9.12712C143.907 6.95421 145.1 6.0294 147.141 6.3527L150.425 6.87284C152.467 7.19614 153.315 8.44425 152.971 10.6172ZM147.876 20.4157L149.581 9.64987C149.601 9.51818 149.57 9.39513 149.487 9.28072C149.421 9.16891 149.321 9.10258 149.19 9.08172L147.634 8.83534C147.502 8.81448 147.379 8.84561 147.265 8.92874C147.167 9.01447 147.108 9.12318 147.087 9.25488L145.382 20.0207C145.361 20.1524 145.384 20.2741 145.45 20.3859C145.533 20.5003 145.641 20.568 145.773 20.5888L147.328 20.8352C147.46 20.8561 147.575 20.8236 147.673 20.7379C147.787 20.6548 147.855 20.5474 147.876 20.4157Z" fill="black"/>
<path d="M163.697 12.3159L162.121 22.2669C161.776 24.4398 160.584 25.3646 158.543 25.0413L155.259 24.5212C153.217 24.1979 152.369 22.9498 152.713 20.7769L154.289 10.8259C154.633 8.65299 155.826 7.72818 157.867 8.05148L161.151 8.57162C163.192 8.89492 164.041 10.143 163.697 12.3159ZM158.601 22.1145L160.306 11.3487C160.327 11.217 160.296 11.0939 160.213 10.9795C160.146 10.8677 160.047 10.8014 159.915 10.7805L158.36 10.5341C158.228 10.5133 158.105 10.5444 157.991 10.6275C157.893 10.7133 157.833 10.822 157.812 10.9537L156.107 21.7195C156.086 21.8511 156.109 21.9729 156.176 22.0847C156.259 22.1991 156.367 22.2667 156.498 22.2876L158.054 22.534C158.185 22.5548 158.3 22.5224 158.398 22.4367C158.513 22.3536 158.58 22.2461 158.601 22.1145Z" fill="black"/>
<path d="M171.838 10.5173C173.879 10.8406 174.727 12.0887 174.383 14.2616L172.885 23.7188C172.541 25.8917 171.349 26.8165 169.307 26.4932L162.961 25.4881L165.492 9.51223L171.838 10.5173ZM169.366 23.5663L170.993 13.2944C171.014 13.1627 170.983 13.0396 170.899 12.9252C170.833 12.8134 170.734 12.7471 170.602 12.7262L168.577 12.4055L166.794 23.6652L168.819 23.9858C168.95 24.0067 169.065 23.9743 169.163 23.8885C169.277 23.8054 169.345 23.698 169.366 23.5663Z" fill="black"/>
<path d="M179.383 21.5839L179.786 19.0406L184.354 19.7642L183.423 25.6409C183.079 27.8138 181.886 28.7386 179.845 28.4153L176.734 27.9226C174.693 27.5993 173.844 26.3511 174.188 24.1782L175.764 14.2273C176.109 12.0544 177.301 11.1296 179.343 11.4529L182.454 11.9456C184.495 12.2689 185.343 13.517 184.999 15.6899L184.761 17.1962L181.477 16.676L181.782 14.75C181.803 14.6183 181.771 14.4953 181.688 14.3809C181.622 14.2691 181.523 14.2027 181.391 14.1819L179.835 13.9355C179.704 13.9146 179.58 13.9458 179.466 14.0289C179.368 14.1146 179.309 14.2233 179.288 14.355L177.583 25.1208C177.562 25.2525 177.585 25.3743 177.651 25.4861C177.735 25.6005 177.842 25.6681 177.974 25.689L179.529 25.9354C179.661 25.9562 179.776 25.9238 179.874 25.8381C179.988 25.7549 180.056 25.6475 180.077 25.5158L180.667 21.7873L179.383 21.5839Z" fill="black"/>
<path d="M192.532 13.5419C194.574 13.8652 195.422 15.1133 195.078 17.2862L193.025 30.2496L189.568 29.7021L190.417 24.3439L187.923 23.9489L187.074 29.3071L183.617 28.7596L185.67 15.7962C186.014 13.6233 187.207 12.6985 189.248 13.0218L192.532 13.5419ZM188.345 21.2822L190.839 21.6772L191.688 16.319C191.708 16.1873 191.677 16.0642 191.594 15.9498C191.527 15.838 191.428 15.7717 191.297 15.7508L189.741 15.5044C189.609 15.4836 189.486 15.5147 189.372 15.5978C189.274 15.6836 189.215 15.7923 189.194 15.924L188.345 21.2822Z" fill="black"/>
<path d="M203.528 31.9131L200.071 31.3656L202.171 18.1059C202.192 17.9742 202.161 17.8512 202.077 17.7367C202.011 17.6249 201.912 17.5586 201.78 17.5378L200.447 17.3266C200.315 17.3057 200.192 17.3368 200.077 17.42C199.979 17.5057 199.92 17.6144 199.899 17.7461L197.799 31.0058L194.342 30.4583L196.395 17.4949C196.74 15.322 197.932 14.3972 199.973 14.7205L203.035 15.2054C205.076 15.5287 205.925 16.7768 205.581 18.9497L203.528 31.9131Z" fill="black"/>
<path d="M210.282 26.4779L210.685 23.9346L215.253 24.6581L214.322 30.5348C213.978 32.7077 212.785 33.6325 210.744 33.3092L207.633 32.8165C205.592 32.4932 204.743 31.2451 205.087 29.0722L206.663 19.1212C207.008 16.9483 208.2 16.0235 210.241 16.3468L213.353 16.8395C215.394 17.1628 216.242 18.4109 215.898 20.5839L215.66 22.0901L212.376 21.5699L212.681 19.6439C212.702 19.5123 212.67 19.3892 212.587 19.2748C212.521 19.163 212.421 19.0967 212.29 19.0758L210.734 18.8294C210.602 18.8086 210.479 18.8397 210.365 18.9228C210.267 19.0085 210.208 19.1173 210.187 19.2489L208.482 30.0147C208.461 30.1464 208.484 30.2682 208.55 30.38C208.634 30.4944 208.741 30.562 208.873 30.5829L210.428 30.8293C210.56 30.8501 210.675 30.8177 210.773 30.732C210.887 30.6488 210.955 30.5414 210.976 30.4097L211.566 26.6812L210.282 26.4779Z" fill="black"/>
<path d="M222.191 31.8824L225.969 32.4808L225.508 35.3944L218.273 34.2486L220.803 18.2727L224.26 18.8202L222.191 31.8824Z" fill="black"/>
<path d="M234.827 20.2408C236.869 20.5641 237.717 21.8122 237.373 23.9851L235.32 36.9485L231.863 36.401L232.712 31.0428L230.218 30.6478L229.369 36.006L225.912 35.4585L227.965 22.4951C228.309 20.3222 229.502 19.3974 231.543 19.7207L234.827 20.2408ZM230.64 27.981L233.134 28.376L233.983 23.0178C234.003 22.8861 233.972 22.7631 233.889 22.6487C233.822 22.5369 233.723 22.4705 233.592 22.4497L232.036 22.2033C231.904 22.1824 231.781 22.2136 231.667 22.2967C231.569 22.3824 231.51 22.4911 231.489 22.6228L230.64 27.981Z" fill="black"/>
<path d="M245.849 29.6559C246.859 30.204 247.256 31.1611 247.039 32.5274L246.586 35.3917C246.242 37.5647 245.049 38.4895 243.008 38.1662L236.662 37.1611L239.192 21.1852L245.341 22.159C247.382 22.4823 248.23 23.7304 247.886 25.9033L247.655 27.3602C247.447 28.6771 246.845 29.4423 245.849 29.6559ZM244.105 24.3679L242.278 24.0785L241.601 28.3503L243.428 28.6397C243.56 28.6605 243.675 28.6281 243.773 28.5423C243.887 28.4592 243.955 28.3518 243.976 28.2201L244.496 24.9361C244.517 24.8044 244.485 24.6813 244.402 24.5669C244.336 24.4551 244.236 24.3888 244.105 24.3679ZM243.066 35.2393L243.633 31.6589C243.654 31.5272 243.623 31.4042 243.54 31.2898C243.473 31.178 243.374 31.1116 243.242 31.0908L241.218 30.7701L240.494 35.3381L242.519 35.6588C242.651 35.6797 242.765 35.6473 242.863 35.5615C242.978 35.4784 243.045 35.371 243.066 35.2393Z" fill="black"/>
<path d="M257.925 28.4551L254.641 27.935L254.84 26.6757C254.861 26.544 254.83 26.4209 254.747 26.3065C254.68 26.1947 254.581 26.1284 254.449 26.1075L253.091 25.8924C252.959 25.8716 252.836 25.9027 252.722 25.9858C252.624 26.0716 252.564 26.1803 252.544 26.312L252.094 29.1516C252.073 29.2833 252.096 29.405 252.163 29.5168C252.246 29.6312 252.353 29.6989 252.485 29.7197L254.707 30.0717C256.743 30.4279 257.592 31.676 257.253 33.816L256.709 37.2482C256.365 39.4211 255.172 40.3459 253.131 40.0227L250.217 39.5612C248.176 39.2379 247.328 37.9898 247.672 35.8169L247.934 34.1625L251.218 34.6826L250.936 36.4605C250.915 36.5922 250.938 36.7139 251.005 36.8257C251.088 36.9401 251.195 37.0078 251.327 37.0286L252.858 37.2711C252.99 37.2919 253.105 37.2595 253.203 37.1738C253.317 37.0906 253.385 36.9832 253.405 36.8515L253.902 33.7156C253.923 33.5839 253.892 33.4609 253.809 33.3465C253.742 33.2347 253.643 33.1683 253.511 33.1475L251.289 32.7955C249.248 32.4722 248.399 31.2241 248.743 29.0512L249.248 25.8659C249.592 23.693 250.785 22.7682 252.826 23.0915L255.567 23.5256C257.608 23.8489 258.456 25.097 258.112 27.2699L257.925 28.4551Z" fill="black"/>
<path d="M491.148 57.9391L492.328 53.4652L473.436 50.4731L463.763 74.6544L483.513 77.7824L482.356 82.2598L501.241 85.2508L510.913 61.0696L491.148 57.9391ZM474.918 53.0449L489.422 55.3421L487.65 62.0636L480.43 60.9201L481.015 58.7005L478.701 58.3339L475.974 68.6767L480.439 69.3839L481.038 67.1416L478.881 66.8L479.839 63.1646L487.059 64.308L484.099 75.538L467.003 72.8304L474.918 53.0449ZM499.759 82.679L485.249 80.3809L486.085 77.1441L490.556 60.1833L507.673 62.8944L505.094 69.3408L497.293 68.1051L497.878 65.8854L495.563 65.5189L492.837 75.8617L497.301 76.5688L497.901 74.3265L495.743 73.9848L496.701 70.3494L504.215 71.5395L499.759 82.679Z" fill="black"/>
<path d="M523.573 76.0982L523.976 73.5549L528.544 74.2784L527.613 80.1552C527.269 82.3281 526.076 83.2529 524.035 82.9296L520.924 82.4368C518.883 82.1135 518.034 80.8654 518.378 78.6925L519.954 68.7415C520.299 66.5686 521.491 65.6438 523.532 65.9671L526.644 66.4599C528.685 66.7832 529.533 68.0313 529.189 70.2042L528.951 71.7104L525.667 71.1903L525.972 69.2643C525.993 69.1326 525.961 69.0096 525.878 68.8951C525.812 68.7833 525.712 68.717 525.581 68.6961L524.025 68.4498C523.893 68.4289 523.77 68.46 523.656 68.5432C523.558 68.6289 523.499 68.7376 523.478 68.8693L521.773 79.6351C521.752 79.7668 521.775 79.8885 521.841 80.0003C521.924 80.1148 522.032 80.1824 522.164 80.2033L523.719 80.4496C523.851 80.4705 523.966 80.4381 524.064 80.3523C524.178 80.2692 524.246 80.1618 524.267 80.0301L524.857 76.3016L523.573 76.0982Z" fill="black"/>
<path d="M539.268 71.8005L537.692 81.7515C537.348 83.9244 536.155 84.8492 534.114 84.5259L530.83 84.0057C528.789 83.6824 527.94 82.4343 528.284 80.2614L529.86 70.3105C530.204 68.1376 531.397 67.2128 533.438 67.536L536.722 68.0562C538.764 68.3795 539.612 69.6276 539.268 71.8005ZM534.172 81.599L535.878 70.8332C535.898 70.7015 535.867 70.5785 535.784 70.4641C535.717 70.3523 535.618 70.2859 535.487 70.2651L533.931 70.0187C533.799 69.9978 533.676 70.029 533.562 70.1121C533.464 70.1978 533.404 70.3065 533.384 70.4382L531.678 81.204C531.658 81.3357 531.681 81.4575 531.747 81.5693C531.83 81.6837 531.938 81.7513 532.069 81.7722L533.625 82.0186C533.757 82.0394 533.872 82.007 533.969 81.9212C534.084 81.8381 534.152 81.7307 534.172 81.599Z" fill="black"/>
<path d="M549.994 73.4993L548.418 83.4502C548.073 85.6232 546.881 86.548 544.839 86.2247L541.555 85.7045C539.514 85.3812 538.666 84.1331 539.01 81.9602L540.586 72.0093C540.93 69.8363 542.123 68.9115 544.164 69.2348L547.448 69.755C549.489 70.0783 550.338 71.3264 549.994 73.4993ZM544.898 83.2978L546.603 72.532C546.624 72.4003 546.593 72.2773 546.51 72.1628C546.443 72.051 546.344 71.9847 546.212 71.9639L544.657 71.7175C544.525 71.6966 544.402 71.7277 544.287 71.8109C544.19 71.8966 544.13 72.0053 544.109 72.137L542.404 82.9028C542.383 83.0345 542.406 83.1562 542.473 83.2681C542.556 83.3825 542.663 83.4501 542.795 83.471L544.351 83.7173C544.482 83.7382 544.597 83.7058 544.695 83.62C544.81 83.5369 544.877 83.4295 544.898 83.2978Z" fill="black"/>
<path d="M558.135 71.7007C560.176 72.024 561.024 73.2721 560.68 75.445L559.182 84.9021C558.838 87.075 557.645 87.9998 555.604 87.6765L549.258 86.6714L551.789 70.6956L558.135 71.7007ZM555.663 84.7497L557.29 74.4777C557.311 74.346 557.279 74.223 557.196 74.1085C557.13 73.9967 557.03 73.9304 556.899 73.9096L554.874 73.5889L553.091 84.8485L555.115 85.1692C555.247 85.1901 555.362 85.1576 555.46 85.0719C555.574 84.9888 555.642 84.8813 555.663 84.7497Z" fill="black"/>
<path d="M565.68 82.7673L566.083 80.224L570.651 80.9475L569.72 86.8242C569.376 88.9972 568.183 89.922 566.142 89.5987L563.031 89.1059C560.99 88.7826 560.141 87.5345 560.485 85.3616L562.061 75.4106C562.405 73.2377 563.598 72.3129 565.639 72.6362L568.751 73.129C570.792 73.4523 571.64 74.7004 571.296 76.8733L571.058 78.3795L567.774 77.8594L568.079 75.9334C568.099 75.8017 568.068 75.6786 567.985 75.5642C567.919 75.4524 567.819 75.3861 567.688 75.3652L566.132 75.1188C566 75.098 565.877 75.1291 565.763 75.2122C565.665 75.298 565.606 75.4067 565.585 75.5384L563.88 86.3042C563.859 86.4359 563.882 86.5576 563.948 86.6694C564.031 86.7838 564.139 86.8515 564.271 86.8723L565.826 87.1187C565.958 87.1396 566.073 87.1071 566.171 87.0214C566.285 86.9383 566.353 86.8309 566.373 86.6992L566.964 82.9707L565.68 82.7673Z" fill="black"/>
<path d="M578.829 74.7253C580.87 75.0486 581.719 76.2967 581.375 78.4696L579.322 91.433L575.865 90.8855L576.713 85.5273L574.219 85.1323L573.371 90.4905L569.914 89.943L571.967 76.9796C572.311 74.8066 573.504 73.8818 575.545 74.2051L578.829 74.7253ZM574.642 82.4655L577.136 82.8605L577.984 77.5023C578.005 77.3706 577.974 77.2476 577.891 77.1331C577.824 77.0213 577.725 76.955 577.593 76.9342L576.038 76.6878C575.906 76.6669 575.783 76.698 575.669 76.7812C575.571 76.8669 575.511 76.9756 575.491 77.1073L574.642 82.4655Z" fill="black"/>
<path d="M589.825 93.0965L586.368 92.549L588.468 79.2893C588.489 79.1576 588.457 79.0345 588.374 78.9201C588.308 78.8083 588.208 78.742 588.077 78.7211L586.743 78.5099C586.612 78.4891 586.489 78.5202 586.374 78.6033C586.276 78.6891 586.217 78.7978 586.196 78.9295L584.096 92.1892L580.639 91.6416L582.692 78.6782C583.036 76.5053 584.229 75.5805 586.27 75.9038L589.332 76.3888C591.373 76.7121 592.222 77.9602 591.878 80.1331L589.825 93.0965Z" fill="black"/>
<path d="M596.579 87.6612L596.982 85.1179L601.55 85.8414L600.619 91.7182C600.275 93.8911 599.082 94.8159 597.041 94.4926L593.93 93.9998C591.889 93.6765 591.04 92.4284 591.384 90.2555L592.96 80.3045C593.304 78.1316 594.497 77.2068 596.538 77.5301L599.65 78.0229C601.691 78.3462 602.539 79.5943 602.195 81.7672L601.957 83.2734L598.673 82.7533L598.978 80.8273C598.998 80.6956 598.967 80.5726 598.884 80.4581C598.818 80.3463 598.718 80.28 598.587 80.2591L597.031 80.0128C596.899 79.9919 596.776 80.023 596.662 80.1062C596.564 80.1919 596.505 80.3006 596.484 80.4323L594.779 91.1981C594.758 91.3298 594.781 91.4515 594.847 91.5633C594.93 91.6778 595.038 91.7454 595.169 91.7662L596.725 92.0126C596.857 92.0335 596.972 92.0011 597.07 91.9153C597.184 91.8322 597.252 91.7248 597.272 91.5931L597.863 87.8646L596.579 87.6612Z" fill="black"/>
<path d="M608.488 93.0657L612.266 93.6641L611.805 96.5778L604.57 95.4319L607.1 79.4561L610.557 80.0036L608.488 93.0657Z" fill="black"/>
<path d="M621.124 81.4241C623.165 81.7474 624.014 82.9955 623.67 85.1685L621.617 98.1319L618.16 97.5843L619.008 92.2261L616.514 91.8311L615.666 97.1893L612.209 96.6418L614.262 83.6784C614.606 81.5055 615.799 80.5807 617.84 80.904L621.124 81.4241ZM616.937 89.1644L619.431 89.5594L620.279 84.2012C620.3 84.0695 620.269 83.9464 620.186 83.832C620.119 83.7202 620.02 83.6539 619.889 83.633L618.333 83.3866C618.201 83.3658 618.078 83.3969 617.964 83.48C617.866 83.5658 617.806 83.6745 617.786 83.8062L616.937 89.1644Z" fill="black"/>
<path d="M632.146 90.8392C633.156 91.3873 633.553 92.3445 633.336 93.7108L632.883 96.5751C632.539 98.748 631.346 99.6728 629.305 99.3495L622.959 98.3444L625.489 82.3686L631.637 83.3424C633.679 83.6657 634.527 84.9138 634.183 87.0867L633.952 88.5435C633.744 89.8605 633.142 90.6257 632.146 90.8392ZM630.402 85.5513L628.574 85.2619L627.898 89.5336L629.725 89.823C629.857 89.8439 629.972 89.8114 630.07 89.7257C630.184 89.6426 630.252 89.5352 630.272 89.4035L630.793 86.1194C630.813 85.9877 630.782 85.8647 630.699 85.7503C630.632 85.6384 630.533 85.5721 630.402 85.5513ZM629.363 96.4226L629.93 92.8423C629.951 92.7106 629.92 92.5875 629.837 92.4731C629.77 92.3613 629.671 92.295 629.539 92.2741L627.515 91.9534L626.791 96.5215L628.816 96.8422C628.948 96.863 629.062 96.8306 629.16 96.7449C629.275 96.6617 629.342 96.5543 629.363 96.4226Z" fill="black"/>
<path d="M644.221 89.6385L640.937 89.1183L641.137 87.859C641.158 87.7273 641.127 87.6043 641.043 87.4899C640.977 87.3781 640.878 87.3117 640.746 87.2909L639.388 87.0758C639.256 87.0549 639.133 87.0861 639.019 87.1692C638.921 87.2549 638.861 87.3636 638.84 87.4953L638.391 90.3349C638.37 90.4666 638.393 90.5884 638.459 90.7002C638.543 90.8146 638.65 90.8822 638.782 90.9031L641.004 91.255C643.04 91.6113 643.888 92.8594 643.55 94.9994L643.006 98.4316C642.662 100.604 641.469 101.529 639.428 101.206L636.514 100.745C634.473 100.421 633.624 99.1731 633.969 97.0002L634.231 95.3458L637.515 95.866L637.233 97.6438C637.212 97.7755 637.235 97.8972 637.302 98.0091C637.385 98.1235 637.492 98.1911 637.624 98.212L639.155 98.4544C639.287 98.4753 639.401 98.4429 639.499 98.3571C639.614 98.274 639.681 98.1666 639.702 98.0349L640.199 94.899C640.22 94.7673 640.189 94.6442 640.106 94.5298C640.039 94.418 639.94 94.3517 639.808 94.3308L637.586 93.9789C635.545 93.6556 634.696 92.4075 635.04 90.2345L635.545 87.0492C635.889 84.8763 637.082 83.9515 639.123 84.2748L641.864 84.7089C643.905 85.0322 644.753 86.2803 644.409 88.4532L644.221 89.6385Z" fill="black"/>
<path d="M298 27.3473L299.179 22.8734L280.288 19.8813L270.615 44.0626L290.365 47.1906L289.207 51.668L308.092 54.659L317.765 30.4778L298 27.3473ZM281.769 22.4531L296.273 24.7503L294.501 31.4718L287.282 30.3283L287.867 28.1087L285.552 27.7421L282.826 38.085L287.29 38.7921L287.89 36.5498L285.733 36.2082L286.691 32.5728L293.91 33.7163L290.95 44.9462L273.855 42.2386L281.769 22.4531ZM306.611 52.0872L292.101 49.7891L292.937 46.5523L297.408 29.5915L314.525 32.3026L311.946 38.749L304.144 37.5133L304.729 35.2936L302.415 34.9271L299.689 45.2699L304.153 45.977L304.752 43.7347L302.595 43.393L303.553 39.7577L311.067 40.9477L306.611 52.0872Z" fill="black"/>
<path d="M330.425 45.5064L330.828 42.9631L335.396 43.6866L334.465 49.5634C334.121 51.7363 332.928 52.6611 330.887 52.3378L327.776 51.845C325.734 51.5217 324.886 50.2736 325.23 48.1007L326.806 38.1498C327.15 35.9768 328.343 35.052 330.384 35.3753L333.495 35.8681C335.537 36.1914 336.385 37.4395 336.041 39.6124L335.802 41.1186L332.518 40.5985L332.823 38.6725C332.844 38.5408 332.813 38.4178 332.73 38.3033C332.663 38.1915 332.564 38.1252 332.432 38.1043L330.877 37.858C330.745 37.8371 330.622 37.8682 330.508 37.9514C330.41 38.0371 330.35 38.1458 330.329 38.2775L328.624 49.0433C328.603 49.175 328.626 49.2967 328.693 49.4085C328.776 49.523 328.883 49.5906 329.015 49.6115L330.571 49.8578C330.702 49.8787 330.817 49.8463 330.915 49.7605C331.03 49.6774 331.097 49.57 331.118 49.4383L331.709 45.7098L330.425 45.5064Z" fill="black"/>
<path d="M346.12 41.2087L344.543 51.1597C344.199 53.3326 343.007 54.2574 340.965 53.9341L337.681 53.4139C335.64 53.0907 334.792 51.8425 335.136 49.6696L336.712 39.7187C337.056 37.5458 338.249 36.621 340.29 36.9443L343.574 37.4644C345.615 37.7877 346.464 39.0358 346.12 41.2087ZM341.024 51.0072L342.729 40.2414C342.75 40.1097 342.719 39.9867 342.636 39.8723C342.569 39.7605 342.47 39.6941 342.338 39.6733L340.783 39.4269C340.651 39.406 340.528 39.4372 340.413 39.5203C340.315 39.606 340.256 39.7147 340.235 39.8464L338.53 50.6122C338.509 50.7439 338.532 50.8657 338.599 50.9775C338.682 51.0919 338.789 51.1595 338.921 51.1804L340.477 51.4268C340.608 51.4476 340.723 51.4152 340.821 51.3295C340.935 51.2463 341.003 51.1389 341.024 51.0072Z" fill="black"/>
<path d="M356.845 42.9075L355.269 52.8584C354.925 55.0314 353.732 55.9562 351.691 55.6329L348.407 55.1127C346.366 54.7894 345.517 53.5413 345.861 51.3684L347.437 41.4175C347.782 39.2445 348.974 38.3197 351.016 38.643L354.3 39.1632C356.341 39.4865 357.189 40.7346 356.845 42.9075ZM351.75 52.706L353.455 41.9402C353.476 41.8085 353.444 41.6855 353.361 41.571C353.295 41.4592 353.196 41.3929 353.064 41.3721L351.508 41.1257C351.377 41.1048 351.253 41.1359 351.139 41.2191C351.041 41.3048 350.982 41.4135 350.961 41.5452L349.256 52.311C349.235 52.4427 349.258 52.5644 349.324 52.6763C349.408 52.7907 349.515 52.8583 349.647 52.8792L351.202 53.1255C351.334 53.1464 351.449 53.114 351.547 53.0282C351.661 52.9451 351.729 52.8377 351.75 52.706Z" fill="black"/>
<path d="M364.986 41.1089C367.027 41.4322 367.876 42.6803 367.532 44.8532L366.034 54.3103C365.69 56.4832 364.497 57.408 362.456 57.0847L356.11 56.0796L358.64 40.1038L364.986 41.1089ZM362.514 54.1579L364.141 43.8859C364.162 43.7542 364.131 43.6312 364.048 43.5167C363.981 43.4049 363.882 43.3386 363.75 43.3178L361.726 42.9971L359.942 54.2567L361.967 54.5774C362.099 54.5983 362.214 54.5658 362.312 54.4801C362.426 54.397 362.494 54.2896 362.514 54.1579Z" fill="black"/>
<path d="M372.532 52.1755L372.934 49.6322L377.503 50.3557L376.572 56.2324C376.228 58.4054 375.035 59.3302 372.994 59.0069L369.882 58.5141C367.841 58.1908 366.993 56.9427 367.337 54.7698L368.913 44.8188C369.257 42.6459 370.45 41.7211 372.491 42.0444L375.602 42.5372C377.643 42.8605 378.492 44.1086 378.148 46.2815L377.909 47.7877L374.625 47.2676L374.93 45.3416C374.951 45.2099 374.92 45.0868 374.837 44.9724C374.77 44.8606 374.671 44.7943 374.539 44.7734L372.984 44.527C372.852 44.5062 372.729 44.5373 372.615 44.6204C372.517 44.7062 372.457 44.8149 372.436 44.9466L370.731 55.7124C370.71 55.8441 370.733 55.9658 370.8 56.0776C370.883 56.192 370.99 56.2597 371.122 56.2805L372.678 56.5269C372.809 56.5478 372.924 56.5153 373.022 56.4296C373.137 56.3465 373.204 56.2391 373.225 56.1074L373.816 52.3789L372.532 52.1755Z" fill="black"/>
<path d="M385.681 44.1335C387.722 44.4568 388.571 45.7049 388.226 47.8778L386.173 60.8412L382.716 60.2937L383.565 54.9355L381.071 54.5405L380.222 59.8987L376.766 59.3512L378.819 46.3878C379.163 44.2148 380.356 43.29 382.397 43.6133L385.681 44.1335ZM381.493 51.8737L383.987 52.2687L384.836 46.9105C384.857 46.7788 384.826 46.6558 384.743 46.5414C384.676 46.4295 384.577 46.3632 384.445 46.3424L382.889 46.096C382.758 46.0751 382.635 46.1062 382.52 46.1894C382.422 46.2751 382.363 46.3838 382.342 46.5155L381.493 51.8737Z" fill="black"/>
<path d="M396.676 62.5047L393.219 61.9572L395.319 48.6975C395.34 48.5658 395.309 48.4427 395.226 48.3283C395.159 48.2165 395.06 48.1502 394.928 48.1293L393.595 47.9181C393.463 47.8973 393.34 47.9284 393.226 48.0115C393.128 48.0973 393.069 48.206 393.048 48.3377L390.948 61.5974L387.491 61.0498L389.544 48.0864C389.888 45.9135 391.081 44.9887 393.122 45.312L396.184 45.797C398.225 46.1203 399.073 47.3684 398.729 49.5413L396.676 62.5047Z" fill="black"/>
<path d="M403.431 57.0694L403.833 54.5261L408.401 55.2496L407.471 61.1264C407.127 63.2993 405.934 64.2241 403.893 63.9008L400.781 63.408C398.74 63.0847 397.892 61.8366 398.236 59.6637L399.812 49.7127C400.156 47.5398 401.349 46.615 403.39 46.9383L406.501 47.4311C408.542 47.7544 409.391 49.0025 409.047 51.1754L408.808 52.6816L405.524 52.1615L405.829 50.2355C405.85 50.1038 405.819 49.9808 405.736 49.8663C405.669 49.7545 405.57 49.6882 405.438 49.6673L403.883 49.421C403.751 49.4001 403.628 49.4312 403.513 49.5144C403.416 49.6001 403.356 49.7088 403.335 49.8405L401.63 60.6063C401.609 60.738 401.632 60.8597 401.699 60.9715C401.782 61.086 401.889 61.1536 402.021 61.1745L403.577 61.4208C403.708 61.4417 403.823 61.4093 403.921 61.3235C404.036 61.2404 404.103 61.133 404.124 61.0013L404.715 57.2728L403.431 57.0694Z" fill="black"/>
<path d="M415.34 62.474L419.118 63.0723L418.656 65.986L411.421 64.8401L413.952 48.8643L417.409 49.4118L415.34 62.474Z" fill="black"/>
<path d="M427.976 50.8323C430.017 51.1556 430.866 52.4038 430.521 54.5767L428.468 67.5401L425.011 66.9925L425.86 61.6343L423.366 61.2393L422.517 66.5976L419.061 66.05L421.114 53.0866C421.458 50.9137 422.651 49.9889 424.692 50.3122L427.976 50.8323ZM423.788 58.5726L426.282 58.9676L427.131 53.6094C427.152 53.4777 427.121 53.3546 427.038 53.2402C426.971 53.1284 426.872 53.0621 426.74 53.0412L425.184 52.7948C425.053 52.774 424.93 52.8051 424.815 52.8882C424.717 52.974 424.658 53.0827 424.637 53.2144L423.788 58.5726Z" fill="black"/>
<path d="M438.997 60.2474C440.008 60.7955 440.404 61.7527 440.188 63.119L439.734 65.9833C439.39 68.1562 438.197 69.081 436.156 68.7577L429.81 67.7526L432.341 51.7768L438.489 52.7506C440.53 53.0739 441.379 54.322 441.035 56.4949L440.804 57.9517C440.595 59.2687 439.993 60.0339 438.997 60.2474ZM437.253 54.9595L435.426 54.6701L434.749 58.9418L436.577 59.2312C436.708 59.2521 436.823 59.2196 436.921 59.1339C437.036 59.0508 437.103 58.9434 437.124 58.8117L437.644 55.5276C437.665 55.3959 437.634 55.2729 437.551 55.1585C437.484 55.0466 437.385 54.9803 437.253 54.9595ZM436.215 65.8309L436.782 62.2505C436.803 62.1188 436.772 61.9957 436.688 61.8813C436.622 61.7695 436.523 61.7032 436.391 61.6823L434.366 61.3616L433.643 65.9297L435.667 66.2504C435.799 66.2712 435.914 66.2388 436.012 66.1531C436.126 66.07 436.194 65.9625 436.215 65.8309Z" fill="black"/>
<path d="M451.073 59.0467L447.789 58.5265L447.988 57.2672C448.009 57.1355 447.978 57.0125 447.895 56.8981C447.828 56.7863 447.729 56.7199 447.597 56.6991L446.239 56.484C446.108 56.4631 445.985 56.4943 445.87 56.5774C445.772 56.6631 445.713 56.7718 445.692 56.9035L445.242 59.7431C445.221 59.8748 445.244 59.9966 445.311 60.1084C445.394 60.2228 445.502 60.2904 445.633 60.3113L447.856 60.6632C449.892 61.0195 450.74 62.2676 450.401 64.4076L449.858 67.8398C449.513 70.0127 448.321 70.9375 446.279 70.6142L443.366 70.1527C441.325 69.8294 440.476 68.5813 440.82 66.4084L441.082 64.754L444.366 65.2742L444.085 67.052C444.064 67.1837 444.087 67.3055 444.153 67.4173C444.237 67.5317 444.344 67.5993 444.476 67.6202L446.007 67.8626C446.138 67.8835 446.253 67.8511 446.351 67.7653C446.465 67.6822 446.533 67.5748 446.554 67.4431L447.051 64.3072C447.071 64.1755 447.04 64.0524 446.957 63.938C446.891 63.8262 446.791 63.7599 446.66 63.739L444.437 63.3871C442.396 63.0638 441.548 61.8157 441.892 59.6427L442.396 56.4575C442.74 54.2845 443.933 53.3597 445.974 53.683L448.715 54.1171C450.756 54.4404 451.605 55.6885 451.261 57.8614L451.073 59.0467Z" fill="black"/>
<path d="M684.297 88.5309L685.476 84.057L666.584 81.0649L656.912 105.246L676.661 108.374L675.504 112.852L694.389 115.843L704.062 91.6614L684.297 88.5309ZM668.066 83.6367L682.57 85.9339L680.798 92.6554L673.578 91.5119L674.164 89.2922L671.849 88.9257L669.123 99.2685L673.587 99.9756L674.186 97.7333L672.03 97.3918L672.988 93.7564L680.207 94.8998L677.247 106.13L660.152 103.422L668.066 83.6367ZM692.907 113.271L678.398 110.973L679.234 107.736L683.704 90.7751L700.822 93.4862L698.243 99.9326L690.441 98.6969L691.026 96.4772L688.712 96.1106L685.985 106.454L690.45 107.161L691.049 104.918L688.891 104.577L689.849 100.941L697.363 102.131L692.907 113.271Z" fill="black"/>
<rect x="-1717.65" y="-344" width="2895.55" height="80" transform="rotate(14 -1717.65 -344)" fill="#84FB72"/>
<path d="M-113.303 100.617L-112.473 97.2858L-106.489 98.7776L-108.408 106.475C-109.118 109.322 -110.81 110.411 -113.483 109.745L-117.559 108.729C-120.232 108.062 -121.214 106.306 -120.505 103.459L-117.255 90.4251C-116.545 87.5789 -114.854 86.4891 -112.18 87.1557L-108.105 88.1718C-105.431 88.8384 -104.449 90.5948 -105.159 93.441L-105.651 95.414L-109.952 94.3414L-109.323 91.8187C-109.28 91.6462 -109.307 91.4791 -109.404 91.3175C-109.48 91.1612 -109.604 91.0616 -109.776 91.0186L-111.814 90.5105C-111.987 90.4675 -112.154 90.4946 -112.315 90.5917C-112.455 90.6942 -112.547 90.8317 -112.59 91.0042L-116.106 105.106C-116.149 105.278 -116.132 105.443 -116.057 105.599C-115.96 105.761 -115.825 105.863 -115.653 105.906L-113.615 106.414C-113.442 106.457 -113.286 106.427 -113.146 106.325C-112.984 106.228 -112.882 106.093 -112.839 105.92L-111.621 101.036L-113.303 100.617Z" fill="black"/>
<path d="M-91.957 96.7325L-95.2069 109.767C-95.9165 112.613 -97.6082 113.703 -100.282 113.036L-104.584 111.964C-107.257 111.297 -108.239 109.541 -107.53 106.694L-104.28 93.6601C-103.57 90.8139 -101.878 89.7241 -99.2048 90.3908L-94.9031 91.4633C-92.2294 92.1299 -91.2474 93.8863 -91.957 96.7325ZM-99.8639 109.155L-96.348 95.0537C-96.305 94.8812 -96.332 94.7142 -96.4292 94.5525C-96.5047 94.3963 -96.6287 94.2967 -96.8012 94.2537L-98.8388 93.7456C-99.0113 93.7026 -99.1784 93.7297 -99.34 93.8268C-99.4801 93.9293 -99.5716 94.0668 -99.6147 94.2393L-103.131 108.341C-103.174 108.513 -103.157 108.678 -103.082 108.834C-102.985 108.996 -102.85 109.098 -102.677 109.141L-100.64 109.649C-100.467 109.692 -100.311 109.662 -100.171 109.56C-100.009 109.463 -99.9069 109.328 -99.8639 109.155Z" fill="black"/>
<path d="M-77.908 100.235L-81.1578 113.27C-81.8674 116.116 -83.5591 117.206 -86.2328 116.539L-90.5344 115.467C-93.2081 114.8 -94.1902 113.043 -93.4805 110.197L-90.2307 97.163C-89.5211 94.3168 -87.8294 93.227 -85.1557 93.8936L-80.8541 94.9661C-78.1804 95.6327 -77.1983 97.3892 -77.908 100.235ZM-85.8149 112.658L-82.2989 98.5566C-82.2559 98.3841 -82.283 98.217 -82.3801 98.0554C-82.4557 97.8991 -82.5797 97.7995 -82.7522 97.7565L-84.7898 97.2484C-84.9623 97.2054 -85.1294 97.2325 -85.291 97.3296C-85.431 97.4321 -85.5226 97.5696 -85.5656 97.7421L-89.0815 111.844C-89.1245 112.016 -89.1083 112.181 -89.0327 112.337C-88.9356 112.498 -88.8008 112.601 -88.6283 112.644L-86.5907 113.152C-86.4182 113.195 -86.2619 113.165 -86.1218 113.063C-85.9602 112.965 -85.8579 112.831 -85.8149 112.658Z" fill="black"/>
<path d="M-66.8857 98.7924C-64.212 99.459 -63.2299 101.215 -63.9396 104.062L-67.0281 116.449C-67.7377 119.295 -69.4294 120.385 -72.1031 119.718L-80.4153 117.646L-75.1979 96.7199L-66.8857 98.7924ZM-71.6852 115.838L-68.3305 102.383C-68.2875 102.21 -68.3146 102.043 -68.4117 101.882C-68.4872 101.725 -68.6113 101.626 -68.7838 101.583L-71.4359 100.921L-75.1131 115.67L-72.461 116.331C-72.2885 116.374 -72.1322 116.344 -71.9921 116.242C-71.8305 116.145 -71.7282 116.01 -71.6852 115.838Z" fill="black"/>
<path d="M-58.1493 114.369L-57.3187 111.037L-51.3353 112.529L-53.2545 120.227C-53.9641 123.073 -55.6558 124.163 -58.3295 123.496L-62.4047 122.48C-65.0784 121.813 -66.0605 120.057 -65.3508 117.211L-62.101 104.176C-61.3914 101.33 -59.6997 100.24 -57.026 100.907L-52.9508 101.923C-50.2771 102.59 -49.295 104.346 -50.0047 107.192L-50.4966 109.165L-54.7982 108.093L-54.1692 105.57C-54.1262 105.398 -54.1533 105.231 -54.2504 105.069C-54.3259 104.913 -54.45 104.813 -54.6225 104.77L-56.6601 104.262C-56.8326 104.219 -56.9996 104.246 -57.1613 104.343C-57.3013 104.446 -57.3929 104.583 -57.4359 104.756L-60.9518 118.857C-60.9948 119.03 -60.9786 119.194 -60.903 119.35C-60.8059 119.512 -60.6711 119.614 -60.4986 119.657L-58.461 120.165C-58.2885 120.208 -58.1322 120.179 -57.9921 120.076C-57.8305 119.979 -57.7282 119.844 -57.6852 119.672L-56.4675 114.788L-58.1493 114.369Z" fill="black"/>
<path d="M-39.7492 105.215C-37.0755 105.881 -36.0935 107.638 -36.8031 110.484L-41.0367 127.464L-45.5648 126.335L-43.8149 119.317L-47.0815 118.502L-48.8314 125.521L-53.3595 124.392L-49.1259 107.412C-48.4162 104.565 -46.7246 103.476 -44.0509 104.142L-39.7492 105.215ZM-46.2106 115.009L-42.944 115.824L-41.1941 108.805C-41.1511 108.633 -41.1781 108.466 -41.2752 108.304C-41.3508 108.148 -41.4748 108.048 -41.6473 108.005L-43.6849 107.497C-43.8574 107.454 -44.0245 107.481 -44.1861 107.578C-44.3262 107.681 -44.4177 107.818 -44.4607 107.991L-46.2106 115.009Z" fill="black"/>
<path d="M-27.2795 130.894L-31.8076 129.765L-27.4772 112.397C-27.4342 112.224 -27.4612 112.057 -27.5583 111.896C-27.6339 111.739 -27.7579 111.64 -27.9304 111.597L-29.6769 111.161C-29.8494 111.118 -30.0165 111.145 -30.1781 111.243C-30.3182 111.345 -30.4097 111.483 -30.4528 111.655L-34.7832 129.023L-39.3112 127.894L-35.0776 110.914C-34.3679 108.068 -32.6763 106.978 -30.0025 107.645L-25.992 108.645C-23.3183 109.311 -22.3363 111.068 -23.0459 113.914L-27.2795 130.894Z" fill="black"/>
<path d="M-17.6762 124.46L-16.8456 121.128L-10.8621 122.62L-12.7813 130.318C-13.491 133.164 -15.1826 134.254 -17.8563 133.587L-21.9316 132.571C-24.6053 131.904 -25.5873 130.148 -24.8777 127.302L-21.6279 114.268C-20.9182 111.421 -19.2266 110.332 -16.5528 110.998L-12.4776 112.014C-9.80392 112.681 -8.82188 114.437 -9.53152 117.284L-10.0234 119.256L-14.3251 118.184L-13.6961 115.661C-13.6531 115.489 -13.6801 115.322 -13.7772 115.16C-13.8528 115.004 -13.9768 114.904 -14.1493 114.861L-16.1869 114.353C-16.3594 114.31 -16.5265 114.337 -16.6881 114.434C-16.8282 114.537 -16.9197 114.674 -16.9627 114.847L-20.4787 128.948C-20.5217 129.121 -20.5054 129.285 -20.4298 129.441C-20.3327 129.603 -20.1979 129.705 -20.0254 129.748L-17.9878 130.256C-17.8153 130.299 -17.659 130.27 -17.519 130.167C-17.3573 130.07 -17.255 129.935 -17.212 129.763L-15.9943 124.879L-17.6762 124.46Z" fill="black"/>
<path d="M-2.48577 133.022L2.46273 134.256L1.51117 138.073L-7.96536 135.71L-2.74792 114.784L1.78012 115.913L-2.48577 133.022Z" fill="black"/>
<path d="M15.6511 119.028C18.3248 119.694 19.3068 121.451 18.5972 124.297L14.3635 141.277L9.8355 140.148L11.5854 133.13L8.31874 132.315L6.56883 139.334L2.0408 138.205L6.27443 121.224C6.98407 118.378 8.67574 117.288 11.3494 117.955L15.6511 119.028ZM9.18965 128.822L12.4563 129.636L14.2062 122.618C14.2492 122.446 14.2222 122.278 14.1251 122.117C14.0495 121.961 13.9255 121.861 13.753 121.818L11.7154 121.31C11.5429 121.267 11.3758 121.294 11.2142 121.391C11.0741 121.494 10.9826 121.631 10.9396 121.804L9.18965 128.822Z" fill="black"/>
<path d="M29.1966 132.814C30.4744 133.659 30.8903 134.977 30.4441 136.767L29.5086 140.518C28.799 143.365 27.1073 144.454 24.4336 143.788L16.1214 141.715L21.3389 120.789L29.3923 122.797C32.066 123.464 33.0481 125.22 32.3384 128.066L31.8627 129.975C31.4326 131.7 30.5439 132.646 29.1966 132.814ZM27.4942 125.588L25.1008 124.991L23.7058 130.586L26.0992 131.183C26.2717 131.226 26.4279 131.196 26.568 131.094C26.7296 130.997 26.832 130.862 26.875 130.689L27.9475 126.388C27.9905 126.215 27.9634 126.048 27.8663 125.886C27.7908 125.73 27.6667 125.631 27.4942 125.588ZM24.8516 139.907L26.0209 135.217C26.0639 135.045 26.0368 134.878 25.9397 134.716C25.8641 134.56 25.7401 134.46 25.5676 134.417L22.9155 133.756L21.4236 139.739L24.0758 140.401C24.2483 140.444 24.4046 140.414 24.5446 140.311C24.7062 140.214 24.8086 140.079 24.8516 139.907Z" fill="black"/>
<path d="M45.3756 132.622L41.0739 131.55L41.4852 129.9C41.5282 129.728 41.5011 129.561 41.404 129.399C41.3285 129.243 41.2045 129.143 41.032 129.1L39.2531 128.657C39.0806 128.614 38.9135 128.641 38.7519 128.738C38.6118 128.84 38.5203 128.978 38.4773 129.15L37.5499 132.87C37.5069 133.042 37.5232 133.207 37.5987 133.363C37.6959 133.525 37.8306 133.627 38.0031 133.67L40.914 134.396C43.577 135.105 44.559 136.862 43.8601 139.665L42.7392 144.161C42.0296 147.007 40.3379 148.097 37.6642 147.43L33.8477 146.478C31.174 145.812 30.192 144.055 30.9016 141.209L31.4419 139.042L35.7436 140.115L35.1629 142.443C35.1199 142.616 35.1362 142.78 35.2118 142.937C35.3089 143.098 35.4437 143.201 35.6162 143.244L37.6215 143.744C37.794 143.787 37.9502 143.757 38.0903 143.654C38.2519 143.557 38.3543 143.422 38.3973 143.25L39.4214 139.142C39.4644 138.97 39.4374 138.803 39.3402 138.641C39.2647 138.485 39.1407 138.385 38.9682 138.342L36.0573 137.616C33.3836 136.95 32.4016 135.193 33.1112 132.347L34.1515 128.175C34.8611 125.329 36.5528 124.239 39.2265 124.906L42.8165 125.801C45.4902 126.467 46.4723 128.224 45.7626 131.07L45.3756 132.622Z" fill="black"/>
<path d="M98.737 135.808L100.823 130.003L76.0779 123.833L60.42 154.828L86.2892 161.278L84.2318 167.091L108.968 173.258L124.626 142.263L98.737 135.808ZM77.7471 127.421L96.7451 132.158L93.6102 140.88L84.1537 138.522L85.1889 135.642L82.1572 134.886L77.3341 148.307L83.1819 149.765L84.2382 146.857L81.4132 146.152L83.1082 141.435L92.5647 143.793L87.3278 158.365L64.9356 152.782L77.7471 127.421ZM107.299 169.67L88.2933 164.931L89.78 160.729L97.6893 138.72L120.11 144.31L115.936 152.573L105.717 150.025L106.752 147.145L103.72 146.389L98.897 159.81L104.745 161.268L105.801 158.36L102.975 157.655L104.67 152.938L114.512 155.392L107.299 169.67Z" fill="black"/>
<path d="M139.696 163.696L140.527 160.365L146.51 161.857L144.591 169.555C143.882 172.401 142.19 173.491 139.516 172.824L135.441 171.808C132.767 171.141 131.785 169.385 132.495 166.539L135.745 153.504C136.454 150.658 138.146 149.568 140.82 150.235L144.895 151.251C147.569 151.918 148.551 153.674 147.841 156.52L147.349 158.493L143.047 157.421L143.676 154.898C143.719 154.726 143.692 154.558 143.595 154.397C143.52 154.241 143.396 154.141 143.223 154.098L141.186 153.59C141.013 153.547 140.846 153.574 140.684 153.671C140.544 153.774 140.453 153.911 140.41 154.084L136.894 168.185C136.851 168.358 136.867 168.522 136.943 168.678C137.04 168.84 137.175 168.942 137.347 168.985L139.385 169.493C139.557 169.536 139.714 169.507 139.854 169.404C140.015 169.307 140.118 169.172 140.161 169L141.378 164.116L139.696 163.696Z" fill="black"/>
<path d="M161.043 159.812L157.793 172.846C157.083 175.692 155.391 176.782 152.718 176.116L148.416 175.043C145.742 174.376 144.76 172.62 145.47 169.774L148.72 156.739C149.429 153.893 151.121 152.803 153.795 153.47L158.096 154.543C160.77 155.209 161.752 156.966 161.043 159.812ZM153.136 172.235L156.652 158.133C156.695 157.961 156.668 157.794 156.57 157.632C156.495 157.476 156.371 157.376 156.198 157.333L154.161 156.825C153.988 156.782 153.821 156.809 153.66 156.906C153.52 157.009 153.428 157.146 153.385 157.319L149.869 171.42C149.826 171.593 149.842 171.757 149.918 171.913C150.015 172.075 150.15 172.177 150.322 172.22L152.36 172.728C152.532 172.771 152.689 172.742 152.829 172.639C152.99 172.542 153.093 172.407 153.136 172.235Z" fill="black"/>
<path d="M175.092 163.315L171.842 176.349C171.132 179.195 169.441 180.285 166.767 179.618L162.465 178.546C159.791 177.879 158.809 176.123 159.519 173.277L162.769 160.242C163.479 157.396 165.17 156.306 167.844 156.973L172.146 158.045C174.819 158.712 175.801 160.469 175.092 163.315ZM167.185 175.738L170.701 161.636C170.744 161.463 170.717 161.296 170.62 161.135C170.544 160.978 170.42 160.879 170.247 160.836L168.21 160.328C168.037 160.285 167.87 160.312 167.709 160.409C167.569 160.511 167.477 160.649 167.434 160.821L163.918 174.923C163.875 175.096 163.891 175.26 163.967 175.416C164.064 175.578 164.199 175.68 164.371 175.723L166.409 176.231C166.581 176.274 166.738 176.244 166.878 176.142C167.039 176.045 167.142 175.91 167.185 175.738Z" fill="black"/>
<path d="M186.114 161.872C188.788 162.538 189.77 164.295 189.06 167.141L185.972 179.528C185.262 182.375 183.57 183.464 180.897 182.798L172.584 180.725L177.802 159.799L186.114 161.872ZM181.314 178.917L184.669 165.462C184.712 165.29 184.685 165.123 184.588 164.961C184.512 164.805 184.388 164.705 184.216 164.662L181.564 164.001L177.887 178.749L180.539 179.411C180.711 179.454 180.867 179.424 181.008 179.321C181.169 179.224 181.271 179.089 181.314 178.917Z" fill="black"/>
<path d="M194.85 177.448L195.681 174.117L201.664 175.608L199.745 183.306C199.035 186.152 197.344 187.242 194.67 186.575L190.595 185.559C187.921 184.893 186.939 183.136 187.649 180.29L190.899 167.256C191.608 164.41 193.3 163.32 195.974 163.986L200.049 165.003C202.723 165.669 203.705 167.426 202.995 170.272L202.503 172.245L198.201 171.172L198.83 168.649C198.873 168.477 198.846 168.31 198.749 168.148C198.674 167.992 198.55 167.892 198.377 167.849L196.34 167.341C196.167 167.298 196 167.325 195.838 167.422C195.698 167.525 195.607 167.662 195.564 167.835L192.048 181.937C192.005 182.109 192.021 182.273 192.097 182.43C192.194 182.591 192.329 182.694 192.501 182.737L194.539 183.245C194.711 183.288 194.867 183.258 195.008 183.155C195.169 183.058 195.271 182.924 195.314 182.751L196.532 177.867L194.85 177.448Z" fill="black"/>
<path d="M213.25 168.294C215.924 168.961 216.906 170.717 216.197 173.563L211.963 190.543L207.435 189.415L209.185 182.396L205.918 181.582L204.168 188.6L199.64 187.471L203.874 170.491C204.583 167.645 206.275 166.555 208.949 167.222L213.25 168.294ZM206.789 178.089L210.056 178.903L211.806 171.884C211.849 171.712 211.822 171.545 211.724 171.383C211.649 171.227 211.525 171.127 211.352 171.084L209.315 170.576C209.142 170.533 208.975 170.56 208.814 170.658C208.673 170.76 208.582 170.898 208.539 171.07L206.789 178.089Z" fill="black"/>
<path d="M225.72 193.974L221.192 192.845L225.522 175.476C225.565 175.304 225.538 175.137 225.441 174.975C225.366 174.819 225.242 174.719 225.069 174.676L223.323 174.241C223.15 174.198 222.983 174.225 222.821 174.322C222.681 174.424 222.59 174.562 222.547 174.734L218.216 192.103L213.688 190.974L217.922 173.994C218.632 171.147 220.323 170.058 222.997 170.724L227.008 171.724C229.681 172.391 230.663 174.147 229.954 176.993L225.72 193.974Z" fill="black"/>
<path d="M235.323 187.539L236.154 184.208L242.138 185.699L240.218 193.397C239.509 196.243 237.817 197.333 235.143 196.667L231.068 195.65C228.394 194.984 227.412 193.227 228.122 190.381L231.372 177.347C232.081 174.501 233.773 173.411 236.447 174.078L240.522 175.094C243.196 175.76 244.178 177.517 243.468 180.363L242.976 182.336L238.675 181.263L239.304 178.741C239.347 178.568 239.32 178.401 239.222 178.239C239.147 178.083 239.023 177.983 238.85 177.94L236.813 177.432C236.64 177.389 236.473 177.416 236.312 177.514C236.171 177.616 236.08 177.754 236.037 177.926L232.521 192.028C232.478 192.2 232.494 192.365 232.57 192.521C232.667 192.682 232.802 192.785 232.974 192.828L235.012 193.336C235.184 193.379 235.341 193.349 235.481 193.247C235.642 193.149 235.745 193.015 235.788 192.842L237.005 187.958L235.323 187.539Z" fill="black"/>
<path d="M250.514 196.102L255.462 197.335L254.511 201.152L245.034 198.789L250.252 177.863L254.78 178.992L250.514 196.102Z" fill="black"/>
<path d="M268.651 182.107C271.324 182.774 272.306 184.53 271.597 187.376L267.363 204.356L262.835 203.227L264.585 196.209L261.318 195.394L259.568 202.413L255.04 201.284L259.274 184.304C259.984 181.458 261.675 180.368 264.349 181.034L268.651 182.107ZM262.189 191.901L265.456 192.716L267.206 185.697C267.249 185.525 267.222 185.358 267.125 185.196C267.049 185.04 266.925 184.94 266.753 184.897L264.715 184.389C264.542 184.346 264.375 184.373 264.214 184.47C264.074 184.573 263.982 184.71 263.939 184.883L262.189 191.901Z" fill="black"/>
<path d="M282.196 195.893C283.474 196.739 283.89 198.056 283.444 199.846L282.508 203.598C281.799 206.444 280.107 207.534 277.433 206.867L269.121 204.795L274.339 183.869L282.392 185.877C285.066 186.543 286.048 188.3 285.338 191.146L284.862 193.054C284.432 194.779 283.544 195.725 282.196 195.893ZM280.494 188.667L278.1 188.07L276.705 193.666L279.099 194.262C279.271 194.305 279.428 194.276 279.568 194.173C279.729 194.076 279.832 193.941 279.875 193.769L280.947 189.467C280.99 189.294 280.963 189.127 280.866 188.966C280.79 188.81 280.666 188.71 280.494 188.667ZM277.851 202.986L279.02 198.296C279.064 198.124 279.036 197.957 278.939 197.795C278.864 197.639 278.74 197.539 278.567 197.496L275.915 196.835L274.423 202.819L277.075 203.48C277.248 203.523 277.404 203.493 277.544 203.391C277.706 203.294 277.808 203.159 277.851 202.986Z" fill="black"/>
<path d="M298.375 195.702L294.074 194.629L294.485 192.98C294.528 192.807 294.501 192.64 294.404 192.479C294.328 192.322 294.204 192.223 294.032 192.18L292.253 191.736C292.08 191.693 291.913 191.72 291.752 191.817C291.611 191.92 291.52 192.057 291.477 192.23L290.55 195.949C290.507 196.122 290.523 196.286 290.598 196.442C290.695 196.604 290.83 196.706 291.003 196.749L293.914 197.475C296.577 198.185 297.559 199.941 296.86 202.744L295.739 207.24C295.029 210.086 293.338 211.176 290.664 210.509L286.847 209.558C284.174 208.891 283.192 207.135 283.901 204.289L284.442 202.122L288.743 203.194L288.163 205.523C288.12 205.695 288.136 205.86 288.211 206.016C288.309 206.178 288.443 206.28 288.616 206.323L290.621 206.823C290.794 206.866 290.95 206.836 291.09 206.734C291.252 206.637 291.354 206.502 291.397 206.329L292.421 202.222C292.464 202.049 292.437 201.882 292.34 201.72C292.264 201.564 292.14 201.465 291.968 201.422L289.057 200.696C286.383 200.029 285.401 198.273 286.111 195.427L287.151 191.254C287.861 188.408 289.552 187.318 292.226 187.985L295.816 188.88C298.49 189.547 299.472 191.303 298.762 194.149L298.375 195.702Z" fill="black"/>
<path d="M604.728 261.966L606.814 256.161L582.069 249.991L566.411 280.986L592.28 287.436L590.223 293.248L614.959 299.416L630.617 268.421L604.728 261.966ZM583.738 253.579L602.736 258.316L599.601 267.038L590.145 264.68L591.18 261.8L588.148 261.044L583.325 274.465L589.173 275.923L590.229 273.014L587.404 272.31L589.099 267.593L598.556 269.95L593.319 284.523L570.927 278.94L583.738 253.579ZM613.29 295.828L594.284 291.089L595.771 286.887L603.68 264.878L626.101 270.468L621.927 278.731L611.708 276.183L612.743 273.303L609.711 272.547L604.888 285.968L610.736 287.426L611.792 284.517L608.966 283.813L610.661 279.095L620.503 281.549L613.29 295.828Z" fill="black"/>
<path d="M645.687 289.854L646.518 286.523L652.501 288.015L650.582 295.712C649.872 298.559 648.181 299.648 645.507 298.982L641.432 297.966C638.758 297.299 637.776 295.543 638.486 292.696L641.736 279.662C642.445 276.816 644.137 275.726 646.811 276.393L650.886 277.409C653.56 278.075 654.542 279.832 653.832 282.678L653.34 284.651L649.038 283.578L649.667 281.056C649.71 280.883 649.683 280.716 649.586 280.555C649.511 280.398 649.387 280.299 649.214 280.256L647.176 279.748C647.004 279.705 646.837 279.732 646.675 279.829C646.535 279.931 646.444 280.069 646.401 280.241L642.885 294.343C642.842 294.515 642.858 294.68 642.934 294.836C643.031 294.998 643.166 295.1 643.338 295.143L645.376 295.651C645.548 295.694 645.704 295.664 645.844 295.562C646.006 295.465 646.108 295.33 646.151 295.157L647.369 290.274L645.687 289.854Z" fill="black"/>
<path d="M667.033 285.97L663.784 299.004C663.074 301.85 661.382 302.94 658.709 302.273L654.407 301.201C651.733 300.534 650.751 298.778 651.461 295.931L654.711 282.897C655.42 280.051 657.112 278.961 659.786 279.628L664.087 280.7C666.761 281.367 667.743 283.123 667.033 285.97ZM659.127 298.392L662.643 284.291C662.686 284.118 662.658 283.951 662.561 283.79C662.486 283.633 662.362 283.534 662.189 283.491L660.152 282.983C659.979 282.94 659.812 282.967 659.65 283.064C659.51 283.166 659.419 283.304 659.376 283.476L655.86 297.578C655.817 297.75 655.833 297.915 655.909 298.071C656.006 298.233 656.141 298.335 656.313 298.378L658.351 298.886C658.523 298.929 658.68 298.899 658.82 298.797C658.981 298.7 659.084 298.565 659.127 298.392Z" fill="black"/>
<path d="M681.083 289.472L677.833 302.507C677.123 305.353 675.431 306.443 672.758 305.776L668.456 304.704C665.782 304.037 664.8 302.281 665.51 299.434L668.76 286.4C669.469 283.554 671.161 282.464 673.835 283.131L678.136 284.203C680.81 284.87 681.792 286.626 681.083 289.472ZM673.176 301.895L676.692 287.794C676.735 287.621 676.708 287.454 676.61 287.292C676.535 287.136 676.411 287.037 676.238 286.994L674.201 286.485C674.028 286.442 673.861 286.47 673.7 286.567C673.559 286.669 673.468 286.807 673.425 286.979L669.909 301.081C669.866 301.253 669.882 301.418 669.958 301.574C670.055 301.736 670.19 301.838 670.362 301.881L672.4 302.389C672.572 302.432 672.729 302.402 672.869 302.3C673.03 302.203 673.133 302.068 673.176 301.895Z" fill="black"/>
<path d="M692.105 288.029C694.779 288.696 695.761 290.452 695.051 293.299L691.962 305.686C691.253 308.532 689.561 309.622 686.887 308.955L678.575 306.883L683.793 285.957L692.105 288.029ZM687.305 305.075L690.66 291.62C690.703 291.447 690.676 291.28 690.579 291.119C690.503 290.962 690.379 290.863 690.207 290.82L687.555 290.159L683.877 304.907L686.53 305.568C686.702 305.611 686.858 305.582 686.998 305.479C687.16 305.382 687.262 305.247 687.305 305.075Z" fill="black"/>
<path d="M700.841 303.606L701.672 300.274L707.655 301.766L705.736 309.464C705.026 312.31 703.335 313.4 700.661 312.733L696.586 311.717C693.912 311.05 692.93 309.294 693.64 306.448L696.889 293.414C697.599 290.567 699.291 289.478 701.964 290.144L706.04 291.16C708.713 291.827 709.695 293.583 708.986 296.429L708.494 298.402L704.192 297.33L704.821 294.807C704.864 294.635 704.837 294.468 704.74 294.306C704.665 294.15 704.541 294.05 704.368 294.007L702.33 293.499C702.158 293.456 701.991 293.483 701.829 293.58C701.689 293.683 701.598 293.82 701.555 293.993L698.039 308.094C697.996 308.267 698.012 308.431 698.088 308.587C698.185 308.749 698.319 308.851 698.492 308.894L700.53 309.402C700.702 309.445 700.858 309.416 700.998 309.313C701.16 309.216 701.262 309.081 701.305 308.909L702.523 304.025L700.841 303.606Z" fill="black"/>
<path d="M719.241 294.452C721.915 295.118 722.897 296.875 722.187 299.721L717.954 316.701L713.426 315.572L715.176 308.554L711.909 307.739L710.159 314.758L705.631 313.629L709.865 296.649C710.574 293.802 712.266 292.713 714.94 293.379L719.241 294.452ZM712.78 304.246L716.047 305.061L717.796 298.042C717.839 297.87 717.812 297.703 717.715 297.541C717.64 297.385 717.516 297.285 717.343 297.242L715.306 296.734C715.133 296.691 714.966 296.718 714.804 296.815C714.664 296.918 714.573 297.055 714.53 297.228L712.78 304.246Z" fill="black"/>
<path d="M731.711 320.131L727.183 319.002L731.513 301.634C731.556 301.461 731.529 301.294 731.432 301.133C731.357 300.977 731.233 300.877 731.06 300.834L729.314 300.398C729.141 300.355 728.974 300.382 728.812 300.48C728.672 300.582 728.581 300.72 728.538 300.892L724.207 318.26L719.679 317.131L723.913 300.151C724.623 297.305 726.314 296.215 728.988 296.882L732.999 297.882C735.672 298.548 736.654 300.305 735.945 303.151L731.711 320.131Z" fill="black"/>
<path d="M741.314 313.697L742.145 310.365L748.128 311.857L746.209 319.555C745.5 322.401 743.808 323.491 741.134 322.824L737.059 321.808C734.385 321.142 733.403 319.385 734.113 316.539L737.363 303.505C738.072 300.658 739.764 299.569 742.438 300.235L746.513 301.251C749.187 301.918 750.169 303.674 749.459 306.521L748.967 308.493L744.665 307.421L745.294 304.898C745.337 304.726 745.31 304.559 745.213 304.397C745.138 304.241 745.014 304.141 744.841 304.098L742.804 303.59C742.631 303.547 742.464 303.574 742.302 303.671C742.162 303.774 742.071 303.911 742.028 304.084L738.512 318.185C738.469 318.358 738.485 318.522 738.561 318.678C738.658 318.84 738.793 318.942 738.965 318.985L741.003 319.493C741.175 319.536 741.331 319.507 741.472 319.404C741.633 319.307 741.736 319.172 741.779 319L742.996 314.116L741.314 313.697Z" fill="black"/>
<path d="M756.505 322.259L761.453 323.493L760.502 327.31L751.025 324.947L756.243 304.021L760.771 305.15L756.505 322.259Z" fill="black"/>
<path d="M774.642 308.265C777.315 308.931 778.297 310.688 777.588 313.534L773.354 330.514L768.826 329.385L770.576 322.367L767.309 321.552L765.559 328.571L761.031 327.442L765.265 310.461C765.975 307.615 767.666 306.525 770.34 307.192L774.642 308.265ZM768.18 318.059L771.447 318.873L773.197 311.855C773.24 311.683 773.213 311.515 773.116 311.354C773.04 311.198 772.916 311.098 772.743 311.055L770.706 310.547C770.533 310.504 770.366 310.531 770.205 310.628C770.065 310.731 769.973 310.868 769.93 311.041L768.18 318.059Z" fill="black"/>
<path d="M788.187 322.051C789.465 322.896 789.881 324.214 789.435 326.004L788.499 329.755C787.79 332.602 786.098 333.691 783.424 333.025L775.112 330.952L780.329 310.026L788.383 312.034C791.057 312.701 792.039 314.457 791.329 317.303L790.853 319.212C790.423 320.937 789.534 321.883 788.187 322.051ZM786.485 314.825L784.091 314.228L782.696 319.823L785.09 320.42C785.262 320.463 785.418 320.433 785.559 320.331C785.72 320.234 785.822 320.099 785.865 319.926L786.938 315.625C786.981 315.452 786.954 315.285 786.857 315.123C786.781 314.967 786.657 314.868 786.485 314.825ZM783.842 329.144L785.011 324.454C785.054 324.282 785.027 324.115 784.93 323.953C784.855 323.797 784.731 323.697 784.558 323.654L781.906 322.993L780.414 328.976L783.066 329.638C783.239 329.681 783.395 329.651 783.535 329.548C783.697 329.451 783.799 329.316 783.842 329.144Z" fill="black"/>
<path d="M804.366 321.859L800.064 320.787L800.476 319.137C800.519 318.965 800.492 318.798 800.395 318.636C800.319 318.48 800.195 318.38 800.022 318.337L798.244 317.894C798.071 317.851 797.904 317.878 797.742 317.975C797.602 318.077 797.511 318.215 797.468 318.387L796.54 322.107C796.497 322.279 796.514 322.444 796.589 322.6C796.686 322.762 796.821 322.864 796.994 322.907L799.905 323.633C802.568 324.342 803.55 326.099 802.851 328.902L801.73 333.398C801.02 336.244 799.328 337.334 796.655 336.667L792.838 335.715C790.165 335.049 789.183 333.292 789.892 330.446L790.432 328.279L794.734 329.352L794.153 331.68C794.11 331.853 794.127 332.017 794.202 332.174C794.299 332.335 794.434 332.438 794.607 332.481L796.612 332.981C796.784 333.024 796.941 332.994 797.081 332.891C797.242 332.794 797.345 332.659 797.388 332.487L798.412 328.379C798.455 328.207 798.428 328.04 798.331 327.878C798.255 327.722 798.131 327.622 797.959 327.579L795.048 326.853C792.374 326.187 791.392 324.43 792.102 321.584L793.142 317.412C793.852 314.566 795.543 313.476 798.217 314.143L801.807 315.038C804.481 315.704 805.463 317.461 804.753 320.307L804.366 321.859Z" fill="black"/>
<path d="M351.732 198.887L353.818 193.081L329.073 186.912L313.415 217.907L339.284 224.357L337.227 230.169L361.963 236.337L377.621 205.342L351.732 198.887ZM330.742 190.5L349.74 195.237L346.605 203.959L337.149 201.601L338.184 198.721L335.152 197.965L330.329 211.386L336.177 212.844L337.233 209.935L334.408 209.231L336.103 204.514L345.559 206.871L340.323 221.443L317.93 215.861L330.742 190.5ZM360.294 232.748L341.288 228.01L342.775 223.808L350.684 201.799L373.105 207.389L368.93 215.652L358.711 213.104L359.747 210.224L356.715 209.468L351.892 222.889L357.74 224.347L358.796 221.438L355.97 220.734L357.665 216.016L367.507 218.47L360.294 232.748Z" fill="black"/>
<path d="M392.691 226.775L393.522 223.444L399.505 224.936L397.586 232.633C396.876 235.479 395.185 236.569 392.511 235.903L388.436 234.887C385.762 234.22 384.78 232.464 385.49 229.617L388.739 216.583C389.449 213.737 391.141 212.647 393.814 213.314L397.89 214.33C400.563 214.996 401.545 216.753 400.836 219.599L400.344 221.572L396.042 220.499L396.671 217.977C396.714 217.804 396.687 217.637 396.59 217.475C396.515 217.319 396.39 217.22 396.218 217.177L394.18 216.669C394.008 216.625 393.841 216.653 393.679 216.75C393.539 216.852 393.448 216.99 393.405 217.162L389.889 231.264C389.846 231.436 389.862 231.601 389.937 231.757C390.035 231.919 390.169 232.021 390.342 232.064L392.379 232.572C392.552 232.615 392.708 232.585 392.848 232.483C393.01 232.386 393.112 232.251 393.155 232.078L394.373 227.194L392.691 226.775Z" fill="black"/>
<path d="M414.037 222.89L410.788 235.925C410.078 238.771 408.386 239.861 405.713 239.194L401.411 238.122C398.737 237.455 397.755 235.699 398.465 232.852L401.715 219.818C402.424 216.972 404.116 215.882 406.79 216.549L411.091 217.621C413.765 218.288 414.747 220.044 414.037 222.89ZM406.13 235.313L409.646 221.212C409.689 221.039 409.662 220.872 409.565 220.711C409.49 220.554 409.366 220.455 409.193 220.412L407.156 219.904C406.983 219.861 406.816 219.888 406.654 219.985C406.514 220.087 406.423 220.225 406.38 220.397L402.864 234.499C402.821 234.671 402.837 234.836 402.913 234.992C403.01 235.154 403.145 235.256 403.317 235.299L405.355 235.807C405.527 235.85 405.683 235.82 405.824 235.718C405.985 235.621 406.087 235.486 406.13 235.313Z" fill="black"/>
<path d="M428.086 226.393L424.837 239.428C424.127 242.274 422.435 243.364 419.762 242.697L415.46 241.624C412.786 240.958 411.804 239.201 412.514 236.355L415.764 223.321C416.473 220.475 418.165 219.385 420.839 220.052L425.14 221.124C427.814 221.791 428.796 223.547 428.086 226.393ZM420.18 238.816L423.695 224.715C423.738 224.542 423.711 224.375 423.614 224.213C423.539 224.057 423.415 223.957 423.242 223.914L421.205 223.406C421.032 223.363 420.865 223.39 420.703 223.488C420.563 223.59 420.472 223.728 420.429 223.9L416.913 238.002C416.87 238.174 416.886 238.339 416.962 238.495C417.059 238.656 417.194 238.759 417.366 238.802L419.404 239.31C419.576 239.353 419.732 239.323 419.873 239.221C420.034 239.123 420.137 238.989 420.18 238.816Z" fill="black"/>
<path d="M439.109 224.95C441.782 225.617 442.764 227.373 442.055 230.22L438.966 242.607C438.257 245.453 436.565 246.543 433.891 245.876L425.579 243.804L430.797 222.878L439.109 224.95ZM434.309 241.996L437.664 228.541C437.707 228.368 437.68 228.201 437.583 228.04C437.507 227.883 437.383 227.784 437.211 227.741L434.558 227.079L430.881 241.828L433.533 242.489C433.706 242.532 433.862 242.502 434.002 242.4C434.164 242.303 434.266 242.168 434.309 241.996Z" fill="black"/>
<path d="M447.845 240.527L448.676 237.195L454.659 238.687L452.74 246.385C452.03 249.231 450.339 250.321 447.665 249.654L443.59 248.638C440.916 247.971 439.934 246.215 440.644 243.369L443.893 230.334C444.603 227.488 446.295 226.398 448.968 227.065L453.044 228.081C455.717 228.748 456.699 230.504 455.99 233.35L455.498 235.323L451.196 234.251L451.825 231.728C451.868 231.556 451.841 231.388 451.744 231.227C451.668 231.071 451.544 230.971 451.372 230.928L449.334 230.42C449.162 230.377 448.995 230.404 448.833 230.501C448.693 230.604 448.602 230.741 448.558 230.914L445.043 245.015C445 245.188 445.016 245.352 445.091 245.508C445.188 245.67 445.323 245.772 445.496 245.815L447.533 246.323C447.706 246.366 447.862 246.337 448.002 246.234C448.164 246.137 448.266 246.002 448.309 245.83L449.527 240.946L447.845 240.527Z" fill="black"/>
<path d="M466.245 231.373C468.919 232.039 469.901 233.796 469.191 236.642L464.958 253.622L460.43 252.493L462.179 245.475L458.913 244.66L457.163 251.679L452.635 250.55L456.869 233.57C457.578 230.723 459.27 229.634 461.944 230.3L466.245 231.373ZM459.784 241.167L463.05 241.982L464.8 234.963C464.843 234.791 464.816 234.624 464.719 234.462C464.644 234.306 464.52 234.206 464.347 234.163L462.309 233.655C462.137 233.612 461.97 233.639 461.808 233.736C461.668 233.839 461.577 233.976 461.534 234.149L459.784 241.167Z" fill="black"/>
<path d="M478.715 257.052L474.187 255.923L478.517 238.555C478.56 238.382 478.533 238.215 478.436 238.054C478.36 237.897 478.236 237.798 478.064 237.755L476.317 237.319C476.145 237.276 475.978 237.303 475.816 237.401C475.676 237.503 475.585 237.64 475.542 237.813L471.211 255.181L466.683 254.052L470.917 237.072C471.626 234.226 473.318 233.136 475.992 233.803L480.002 234.803C482.676 235.469 483.658 237.226 482.948 240.072L478.715 257.052Z" fill="black"/>
<path d="M488.318 250.618L489.149 247.286L495.132 248.778L493.213 256.476C492.503 259.322 490.812 260.412 488.138 259.745L484.063 258.729C481.389 258.062 480.407 256.306 481.117 253.46L484.367 240.426C485.076 237.579 486.768 236.49 489.442 237.156L493.517 238.172C496.19 238.839 497.173 240.595 496.463 243.441L495.971 245.414L491.669 244.342L492.298 241.819C492.341 241.647 492.314 241.48 492.217 241.318C492.142 241.162 492.018 241.062 491.845 241.019L489.807 240.511C489.635 240.468 489.468 240.495 489.306 240.592C489.166 240.695 489.075 240.832 489.032 241.005L485.516 255.106C485.473 255.279 485.489 255.443 485.565 255.599C485.662 255.761 485.796 255.863 485.969 255.906L488.007 256.414C488.179 256.457 488.335 256.428 488.475 256.325C488.637 256.228 488.739 256.093 488.782 255.921L490 251.037L488.318 250.618Z" fill="black"/>
<path d="M503.509 259.18L508.457 260.414L507.506 264.23L498.029 261.868L503.246 240.942L507.775 242.071L503.509 259.18Z" fill="black"/>
<path d="M521.645 245.186C524.319 245.852 525.301 247.609 524.592 250.455L520.358 267.435L515.83 266.306L517.58 259.287L514.313 258.473L512.563 265.491L508.035 264.363L512.269 247.382C512.978 244.536 514.67 243.446 517.344 244.113L521.645 245.186ZM515.184 254.98L518.451 255.794L520.201 248.776C520.244 248.603 520.217 248.436 520.119 248.275C520.044 248.119 519.92 248.019 519.747 247.976L517.71 247.468C517.537 247.425 517.37 247.452 517.209 247.549C517.068 247.651 516.977 247.789 516.934 247.961L515.184 254.98Z" fill="black"/>
<path d="M535.191 258.972C536.469 259.817 536.885 261.135 536.438 262.925L535.503 266.676C534.793 269.523 533.102 270.612 530.428 269.946L522.116 267.873L527.333 246.947L535.387 248.955C538.06 249.622 539.042 251.378 538.333 254.224L537.857 256.133C537.427 257.858 536.538 258.804 535.191 258.972ZM533.489 251.745L531.095 251.149L529.7 256.744L532.094 257.341C532.266 257.384 532.422 257.354 532.562 257.252C532.724 257.155 532.826 257.02 532.869 256.847L533.942 252.546C533.985 252.373 533.958 252.206 533.861 252.044C533.785 251.888 533.661 251.789 533.489 251.745ZM530.846 266.065L532.015 261.375C532.058 261.203 532.031 261.036 531.934 260.874C531.859 260.718 531.735 260.618 531.562 260.575L528.91 259.914L527.418 265.897L530.07 266.558C530.243 266.602 530.399 266.572 530.539 266.469C530.701 266.372 530.803 266.237 530.846 266.065Z" fill="black"/>
<path d="M551.37 258.78L547.068 257.708L547.48 256.058C547.523 255.886 547.496 255.719 547.398 255.557C547.323 255.401 547.199 255.301 547.026 255.258L545.247 254.815C545.075 254.772 544.908 254.799 544.746 254.896C544.606 254.998 544.515 255.136 544.472 255.308L543.544 259.028C543.501 259.2 543.518 259.365 543.593 259.521C543.69 259.683 543.825 259.785 543.998 259.828L546.908 260.554C549.571 261.263 550.553 263.02 549.855 265.823L548.734 270.319C548.024 273.165 546.332 274.255 543.659 273.588L539.842 272.636C537.168 271.97 536.186 270.213 536.896 267.367L537.436 265.2L541.738 266.273L541.157 268.601C541.114 268.774 541.131 268.938 541.206 269.095C541.303 269.256 541.438 269.358 541.611 269.401L543.616 269.901C543.788 269.944 543.945 269.915 544.085 269.812C544.246 269.715 544.349 269.58 544.392 269.408L545.416 265.3C545.459 265.128 545.432 264.961 545.335 264.799C545.259 264.643 545.135 264.543 544.963 264.5L542.052 263.774C539.378 263.108 538.396 261.351 539.106 258.505L540.146 254.333C540.855 251.487 542.547 250.397 545.221 251.064L548.811 251.959C551.485 252.625 552.467 254.382 551.757 257.228L551.37 258.78Z" fill="black"/>
<rect x="-1314" y="286.455" width="3619.44" height="100" transform="rotate(-5 -1314 286.455)" fill="#6038FF"/>
<path d="M703.355 142.75L703.458 135.04L671.701 137.818L665.808 180.823L699.008 177.919L698.942 185.626L730.688 182.849L736.58 139.843L703.355 142.75ZM675.134 141.38L699.515 139.247L699.359 150.831L687.223 151.893L687.275 148.067L683.384 148.408L683.145 166.233L690.65 165.576L690.715 161.709L687.089 162.026L687.173 155.761L699.309 154.699L699.05 174.053L670.313 176.567L675.134 141.38ZM727.254 179.287L702.863 181.421L702.91 175.849L703.302 146.618L732.076 144.101L730.505 155.566L717.39 156.713L717.441 152.888L713.55 153.228L713.312 171.053L720.817 170.397L720.881 166.529L717.254 166.846L717.338 160.581L729.969 159.476L727.254 179.287Z" fill="black"/>
<path d="M53.9796 199.564L54.0826 191.853L22.3255 194.631L16.4331 237.637L49.6328 234.732L49.5667 242.439L81.3125 239.662L87.2048 196.657L53.9796 199.564ZM25.7586 198.193L50.1399 196.06L49.9843 207.644L37.8482 208.706L37.8994 204.881L34.0087 205.221L33.7702 223.046L41.2751 222.39L41.3397 218.522L37.7142 218.839L37.7979 212.574L49.9339 211.512L49.6748 230.866L20.9375 233.38L25.7586 198.193ZM77.8793 236.1L53.4881 238.234L53.5352 232.663L53.9264 203.432L82.7006 200.914L81.1295 212.379L68.0147 213.526L68.0659 209.701L64.1752 210.041L63.9367 227.866L71.4415 227.21L71.5062 223.342L67.8793 223.659L67.9629 217.394L80.594 216.289L77.8793 236.1Z" fill="black"/>
<path d="M113.738 215.856L113.364 211.58L121.043 210.908L121.908 220.787C122.227 224.44 120.671 226.417 117.24 226.717L112.01 227.174C108.579 227.475 106.703 225.798 106.384 222.146L104.92 205.418C104.601 201.765 106.156 199.789 109.588 199.488L114.818 199.031C118.249 198.731 120.125 200.407 120.444 204.06L120.666 206.592L115.145 207.075L114.862 203.837C114.842 203.616 114.743 203.429 114.562 203.278C114.409 203.124 114.222 203.056 114.001 203.076L111.386 203.305C111.164 203.324 110.978 203.424 110.826 203.604C110.702 203.783 110.65 203.982 110.67 204.204L112.253 222.301C112.272 222.523 112.358 222.71 112.511 222.864C112.692 223.016 112.893 223.082 113.114 223.062L115.729 222.834C115.951 222.814 116.123 222.716 116.247 222.537C116.398 222.357 116.465 222.156 116.445 221.934L115.897 215.667L113.738 215.856Z" fill="black"/>
<path d="M137.387 202.577L138.85 219.305C139.17 222.958 137.614 224.934 134.182 225.234L128.662 225.717C125.231 226.018 123.355 224.341 123.036 220.689L121.572 203.961C121.252 200.308 122.808 198.332 126.24 198.032L131.76 197.549C135.192 197.248 137.067 198.925 137.387 202.577ZM133.097 220.478L131.514 202.38C131.494 202.159 131.394 201.972 131.214 201.821C131.061 201.667 130.874 201.6 130.652 201.619L128.037 201.848C127.816 201.867 127.63 201.967 127.478 202.148C127.354 202.326 127.302 202.526 127.321 202.747L128.905 220.844C128.924 221.066 129.01 221.253 129.163 221.407C129.344 221.559 129.545 221.625 129.766 221.606L132.381 221.377C132.602 221.357 132.775 221.259 132.899 221.081C133.05 220.9 133.116 220.699 133.097 220.478Z" fill="black"/>
<path d="M155.417 201L156.88 217.728C157.2 221.38 155.644 223.357 152.213 223.657L146.692 224.14C143.261 224.44 141.385 222.764 141.066 219.111L139.602 202.384C139.283 198.731 140.838 196.754 144.27 196.454L149.79 195.971C153.222 195.671 155.097 197.347 155.417 201ZM151.127 218.9L149.544 200.803C149.524 200.581 149.424 200.395 149.244 200.243C149.091 200.089 148.904 200.022 148.683 200.042L146.068 200.27C145.846 200.29 145.66 200.39 145.508 200.57C145.384 200.748 145.332 200.948 145.351 201.169L146.935 219.267C146.954 219.488 147.04 219.676 147.193 219.83C147.374 219.981 147.575 220.048 147.796 220.028L150.411 219.799C150.632 219.78 150.805 219.681 150.929 219.503C151.08 219.323 151.146 219.122 151.127 218.9Z" fill="black"/>
<path d="M167.857 194.809C171.288 194.509 173.163 196.185 173.483 199.838L174.874 215.735C175.193 219.388 173.638 221.364 170.206 221.665L159.539 222.598L157.189 195.742L167.857 194.809ZM169.121 216.908L167.61 199.64C167.591 199.419 167.491 199.233 167.31 199.081C167.157 198.927 166.97 198.86 166.749 198.879L163.345 199.177L165.001 218.105L168.405 217.807C168.626 217.788 168.799 217.689 168.923 217.511C169.074 217.33 169.14 217.129 169.121 216.908Z" fill="black"/>
<path d="M184.521 209.663L184.147 205.388L191.826 204.716L192.69 214.595C193.01 218.247 191.454 220.224 188.023 220.524L182.793 220.982C179.361 221.282 177.486 219.606 177.166 215.953L175.703 199.225C175.383 195.572 176.939 193.596 180.37 193.296L185.6 192.838C189.032 192.538 190.907 194.214 191.227 197.867L191.448 200.399L185.928 200.882L185.644 197.644C185.625 197.423 185.525 197.236 185.345 197.085C185.192 196.931 185.005 196.864 184.783 196.883L182.168 197.112C181.947 197.131 181.76 197.231 181.609 197.412C181.485 197.59 181.433 197.79 181.452 198.011L183.035 216.109C183.055 216.33 183.141 216.518 183.294 216.672C183.474 216.823 183.675 216.889 183.897 216.87L186.512 216.641C186.733 216.622 186.906 216.523 187.03 216.345C187.181 216.164 187.247 215.963 187.228 215.742L186.679 209.474L184.521 209.663Z" fill="black"/>
<path d="M202.543 191.356C205.974 191.056 207.85 192.732 208.169 196.385L210.076 218.176L204.265 218.685L203.477 209.678L199.284 210.044L200.072 219.052L194.261 219.56L192.355 197.768C192.035 194.116 193.591 192.139 197.022 191.839L202.543 191.356ZM198.892 205.561L203.084 205.195L202.296 196.187C202.277 195.966 202.177 195.78 201.996 195.628C201.844 195.474 201.656 195.407 201.435 195.426L198.82 195.655C198.599 195.674 198.412 195.774 198.261 195.955C198.137 196.133 198.085 196.333 198.104 196.554L198.892 205.561Z" fill="black"/>
<path d="M227.731 216.632L221.92 217.14L219.97 194.85C219.951 194.629 219.851 194.443 219.67 194.291C219.517 194.137 219.33 194.07 219.109 194.089L216.867 194.285C216.646 194.305 216.459 194.405 216.308 194.585C216.184 194.763 216.132 194.963 216.151 195.184L218.101 217.474L212.29 217.983L210.384 196.191C210.064 192.538 211.62 190.562 215.051 190.262L220.198 189.811C223.63 189.511 225.505 191.187 225.825 194.84L227.731 216.632Z" fill="black"/>
<path d="M236.463 205.119L236.089 200.843L243.768 200.171L244.632 210.05C244.952 213.703 243.396 215.68 239.964 215.98L234.734 216.437C231.303 216.738 229.428 215.061 229.108 211.409L227.645 194.681C227.325 191.028 228.881 189.052 232.312 188.751L237.542 188.294C240.974 187.994 242.849 189.67 243.169 193.323L243.39 195.855L237.87 196.338L237.586 193.1C237.567 192.879 237.467 192.692 237.286 192.541C237.134 192.387 236.946 192.319 236.725 192.339L234.11 192.568C233.889 192.587 233.702 192.687 233.551 192.867C233.427 193.046 233.375 193.245 233.394 193.467L234.977 211.564C234.997 211.786 235.083 211.973 235.236 212.127C235.416 212.279 235.617 212.345 235.839 212.325L238.454 212.097C238.675 212.077 238.848 211.979 238.971 211.8C239.123 211.62 239.189 211.419 239.17 211.197L238.621 204.93L236.463 205.119Z" fill="black"/>
<path d="M257.901 209.057L264.252 208.501L264.68 213.399L252.518 214.463L250.169 187.607L255.98 187.099L257.901 209.057Z" fill="black"/>
<path d="M273.642 185.136C277.073 184.835 278.948 186.512 279.268 190.164L281.175 211.956L275.363 212.464L274.575 203.457L270.383 203.824L271.171 212.831L265.36 213.34L263.453 191.548C263.134 187.895 264.69 185.919 268.121 185.619L273.642 185.136ZM269.991 199.341L274.183 198.974L273.395 189.967C273.376 189.746 273.276 189.559 273.095 189.408C272.942 189.254 272.755 189.187 272.534 189.206L269.919 189.435C269.697 189.454 269.511 189.554 269.359 189.735C269.236 189.913 269.183 190.113 269.203 190.334L269.991 199.341Z" fill="black"/>
<path d="M295.262 195.917C297.116 196.396 298.144 197.784 298.344 200.081L298.766 204.896C299.085 208.549 297.529 210.525 294.098 210.825L283.431 211.759L281.081 184.903L291.416 183.999C294.848 183.699 296.723 185.375 297.043 189.027L297.257 191.476C297.451 193.69 296.786 195.171 295.262 195.917ZM290.309 188.069L287.237 188.338L287.865 195.519L290.937 195.25C291.158 195.231 291.331 195.132 291.455 194.954C291.606 194.773 291.672 194.572 291.653 194.351L291.17 188.83C291.151 188.609 291.051 188.422 290.87 188.271C290.717 188.117 290.53 188.05 290.309 188.069ZM293.013 206.069L292.486 200.05C292.467 199.829 292.367 199.642 292.186 199.491C292.033 199.337 291.846 199.269 291.625 199.289L288.221 199.587L288.893 207.266L292.297 206.968C292.518 206.948 292.691 206.85 292.815 206.671C292.966 206.491 293.032 206.29 293.013 206.069Z" fill="black"/>
<path d="M314.305 189.107L308.785 189.59L308.6 187.473C308.58 187.251 308.48 187.065 308.3 186.913C308.147 186.759 307.96 186.692 307.738 186.711L305.455 186.911C305.234 186.931 305.048 187.031 304.896 187.211C304.772 187.389 304.72 187.589 304.739 187.81L305.157 192.584C305.176 192.805 305.263 192.993 305.415 193.147C305.596 193.298 305.797 193.364 306.018 193.345L309.754 193.018C313.19 192.773 315.066 194.45 315.38 198.047L315.885 203.817C316.205 207.469 314.649 209.446 311.218 209.746L306.32 210.174C302.888 210.475 301.013 208.798 300.693 205.146L300.45 202.365L305.971 201.882L306.232 204.87C306.251 205.092 306.337 205.279 306.49 205.433C306.671 205.585 306.872 205.651 307.093 205.631L309.667 205.406C309.888 205.387 310.061 205.288 310.185 205.11C310.336 204.929 310.402 204.728 310.383 204.507L309.922 199.236C309.902 199.014 309.802 198.828 309.622 198.676C309.469 198.522 309.282 198.455 309.06 198.474L305.325 198.801C301.893 199.101 300.018 197.425 299.698 193.772L299.23 188.418C298.91 184.765 300.466 182.789 303.897 182.489L308.505 182.085C311.936 181.785 313.812 183.461 314.131 187.114L314.305 189.107Z" fill="black"/>
<path d="M378.664 171.158L378.767 163.447L347.01 166.225L341.118 209.231L374.317 206.326L374.251 214.033L405.997 211.256L411.889 168.251L378.664 171.158ZM350.443 169.787L374.825 167.654L374.669 179.238L362.533 180.3L362.584 176.475L358.693 176.815L358.455 194.64L365.96 193.984L366.024 190.116L362.399 190.433L362.482 184.168L374.618 183.106L374.359 202.46L345.622 204.974L350.443 169.787ZM402.564 207.694L378.173 209.828L378.22 204.257L378.611 175.026L407.385 172.508L405.814 183.973L392.699 185.12L392.751 181.295L388.86 181.635L388.621 199.46L396.126 198.804L396.191 194.936L392.564 195.253L392.648 188.988L405.279 187.883L402.564 207.694Z" fill="black"/>
<path d="M438.423 187.45L438.049 183.174L445.728 182.502L446.592 192.381C446.912 196.034 445.356 198.011 441.925 198.311L436.695 198.768C433.263 199.069 431.388 197.392 431.068 193.74L429.605 177.012C429.285 173.359 430.841 171.383 434.272 171.082L439.502 170.625C442.934 170.325 444.809 172.001 445.129 175.654L445.35 178.186L439.83 178.669L439.546 175.431C439.527 175.21 439.427 175.023 439.247 174.872C439.094 174.718 438.907 174.65 438.685 174.67L436.07 174.899C435.849 174.918 435.662 175.018 435.511 175.198C435.387 175.377 435.335 175.576 435.354 175.798L436.937 193.895C436.957 194.117 437.043 194.304 437.196 194.458C437.376 194.61 437.577 194.676 437.799 194.656L440.414 194.428C440.635 194.408 440.808 194.31 440.932 194.131C441.083 193.951 441.149 193.75 441.13 193.528L440.581 187.261L438.423 187.45Z" fill="black"/>
<path d="M462.071 174.171L463.535 190.899C463.854 194.552 462.298 196.528 458.867 196.828L453.346 197.311C449.915 197.612 448.04 195.935 447.72 192.283L446.257 175.555C445.937 171.902 447.493 169.926 450.924 169.626L456.445 169.143C459.876 168.842 461.752 170.519 462.071 174.171ZM457.782 192.072L456.198 173.974C456.179 173.753 456.079 173.566 455.898 173.415C455.746 173.261 455.558 173.194 455.337 173.213L452.722 173.442C452.501 173.461 452.314 173.561 452.163 173.742C452.039 173.92 451.987 174.12 452.006 174.341L453.589 192.438C453.609 192.66 453.695 192.847 453.848 193.001C454.028 193.153 454.229 193.219 454.451 193.2L457.066 192.971C457.287 192.951 457.46 192.853 457.583 192.675C457.735 192.494 457.801 192.293 457.782 192.072Z" fill="black"/>
<path d="M480.101 172.594L481.565 189.322C481.884 192.974 480.328 194.951 476.897 195.251L471.377 195.734C467.945 196.034 466.07 194.358 465.75 190.705L464.287 173.978C463.967 170.325 465.523 168.348 468.954 168.048L474.475 167.565C477.906 167.265 479.782 168.941 480.101 172.594ZM475.812 190.494L474.228 172.397C474.209 172.175 474.109 171.989 473.929 171.837C473.776 171.683 473.588 171.616 473.367 171.636L470.752 171.864C470.531 171.884 470.344 171.984 470.193 172.164C470.069 172.342 470.017 172.542 470.036 172.763L471.619 190.861C471.639 191.082 471.725 191.27 471.878 191.424C472.058 191.575 472.259 191.642 472.481 191.622L475.096 191.393C475.317 191.374 475.49 191.275 475.614 191.097C475.765 190.917 475.831 190.716 475.812 190.494Z" fill="black"/>
<path d="M492.541 166.403C495.973 166.103 497.848 167.779 498.168 171.432L499.559 187.329C499.878 190.982 498.322 192.958 494.891 193.259L484.223 194.192L481.874 167.336L492.541 166.403ZM493.805 188.502L492.295 171.234C492.275 171.013 492.175 170.827 491.995 170.675C491.842 170.521 491.655 170.454 491.433 170.473L488.03 170.771L489.686 189.699L493.089 189.401C493.311 189.381 493.483 189.283 493.607 189.105C493.759 188.924 493.825 188.723 493.805 188.502Z" fill="black"/>
<path d="M509.206 181.257L508.832 176.982L516.511 176.31L517.375 186.189C517.694 189.841 516.139 191.818 512.707 192.118L507.477 192.576C504.046 192.876 502.17 191.2 501.851 187.547L500.387 170.819C500.068 167.166 501.624 165.19 505.055 164.89L510.285 164.432C513.716 164.132 515.592 165.808 515.911 169.461L516.133 171.993L510.612 172.476L510.329 169.238C510.31 169.017 510.21 168.83 510.029 168.679C509.876 168.525 509.689 168.458 509.468 168.477L506.853 168.706C506.631 168.725 506.445 168.825 506.293 169.006C506.17 169.184 506.117 169.384 506.137 169.605L507.72 187.703C507.739 187.924 507.826 188.112 507.978 188.266C508.159 188.417 508.36 188.483 508.581 188.464L511.196 188.235C511.418 188.216 511.59 188.117 511.714 187.939C511.866 187.758 511.932 187.557 511.912 187.336L511.364 181.068L509.206 181.257Z" fill="black"/>
<path d="M527.227 162.95C530.659 162.65 532.534 164.326 532.854 167.979L534.76 189.77L528.949 190.279L528.161 181.272L523.969 181.638L524.757 190.646L518.946 191.154L517.039 169.362C516.72 165.71 518.276 163.733 521.707 163.433L527.227 162.95ZM523.577 177.155L527.769 176.789L526.981 167.781C526.962 167.56 526.862 167.374 526.681 167.222C526.528 167.068 526.341 167.001 526.12 167.02L523.505 167.249C523.283 167.268 523.097 167.368 522.945 167.549C522.821 167.727 522.769 167.927 522.789 168.148L523.577 177.155Z" fill="black"/>
<path d="M552.416 188.226L546.605 188.734L544.655 166.444C544.635 166.223 544.535 166.036 544.355 165.885C544.202 165.731 544.015 165.664 543.793 165.683L541.552 165.879C541.331 165.899 541.144 165.999 540.993 166.179C540.869 166.357 540.816 166.557 540.836 166.778L542.786 189.068L536.975 189.577L535.068 167.785C534.749 164.132 536.305 162.156 539.736 161.856L544.883 161.405C548.314 161.105 550.19 162.781 550.509 166.434L552.416 188.226Z" fill="black"/>
<path d="M561.147 176.713L560.773 172.437L568.452 171.765L569.317 181.644C569.636 185.297 568.08 187.274 564.649 187.574L559.419 188.031C555.988 188.332 554.112 186.655 553.793 183.003L552.329 166.275C552.01 162.622 553.565 160.646 556.997 160.345L562.227 159.888C565.658 159.588 567.534 161.264 567.853 164.917L568.075 167.449L562.554 167.932L562.271 164.694C562.252 164.473 562.152 164.286 561.971 164.135C561.818 163.981 561.631 163.913 561.41 163.933L558.795 164.162C558.573 164.181 558.387 164.281 558.235 164.461C558.111 164.64 558.059 164.839 558.079 165.061L559.662 183.158C559.681 183.38 559.767 183.567 559.92 183.721C560.101 183.873 560.302 183.939 560.523 183.919L563.138 183.691C563.36 183.671 563.532 183.573 563.656 183.394C563.808 183.214 563.874 183.013 563.854 182.791L563.306 176.524L561.147 176.713Z" fill="black"/>
<path d="M582.586 180.651L588.936 180.095L589.365 184.993L577.203 186.057L574.853 159.201L580.665 158.693L582.586 180.651Z" fill="black"/>
<path d="M598.326 156.73C601.758 156.429 603.633 158.106 603.953 161.758L605.859 183.55L600.048 184.058L599.26 175.051L595.068 175.418L595.856 184.425L590.045 184.934L588.138 163.142C587.818 159.489 589.374 157.513 592.806 157.213L598.326 156.73ZM594.675 170.935L598.868 170.568L598.08 161.561C598.06 161.34 597.96 161.153 597.78 161.002C597.627 160.848 597.44 160.781 597.218 160.8L594.603 161.029C594.382 161.048 594.196 161.148 594.044 161.329C593.92 161.507 593.868 161.706 593.887 161.928L594.675 170.935Z" fill="black"/>
<path d="M619.946 167.511C621.8 167.99 622.828 169.378 623.029 171.675L623.45 176.49C623.77 180.143 622.214 182.119 618.783 182.419L608.115 183.353L605.766 156.497L616.101 155.593C619.532 155.293 621.408 156.969 621.727 160.621L621.942 163.07C622.135 165.284 621.47 166.765 619.946 167.511ZM614.993 159.663L611.922 159.932L612.55 167.113L615.622 166.844C615.843 166.825 616.016 166.726 616.139 166.548C616.291 166.367 616.357 166.166 616.338 165.945L615.855 160.424C615.835 160.203 615.735 160.016 615.555 159.865C615.402 159.711 615.215 159.644 614.993 159.663ZM617.697 177.663L617.171 171.644C617.151 171.423 617.051 171.236 616.871 171.085C616.718 170.931 616.531 170.863 616.309 170.883L612.906 171.181L613.578 178.86L616.981 178.562C617.203 178.542 617.375 178.444 617.499 178.265C617.651 178.085 617.717 177.884 617.697 177.663Z" fill="black"/>
<path d="M638.99 160.701L633.47 161.184L633.284 159.067C633.265 158.845 633.165 158.659 632.984 158.507C632.832 158.353 632.644 158.286 632.423 158.305L630.14 158.505C629.919 158.525 629.732 158.625 629.581 158.805C629.457 158.983 629.405 159.183 629.424 159.404L629.842 164.178C629.861 164.399 629.947 164.587 630.1 164.741C630.281 164.892 630.482 164.958 630.703 164.939L634.439 164.612C637.875 164.367 639.75 166.044 640.065 169.641L640.57 175.411C640.889 179.063 639.334 181.04 635.902 181.34L631.004 181.768C627.573 182.069 625.697 180.392 625.378 176.74L625.135 173.959L630.655 173.476L630.917 176.464C630.936 176.686 631.022 176.873 631.175 177.027C631.356 177.179 631.556 177.245 631.778 177.225L634.351 177C634.573 176.981 634.745 176.882 634.869 176.704C635.021 176.523 635.087 176.322 635.067 176.101L634.606 170.83C634.587 170.608 634.487 170.422 634.306 170.27C634.153 170.116 633.966 170.049 633.745 170.068L630.009 170.395C626.578 170.695 624.702 169.019 624.383 165.366L623.914 160.012C623.595 156.359 625.151 154.383 628.582 154.083L633.189 153.679C636.621 153.379 638.496 155.055 638.816 158.708L638.99 160.701Z" fill="black"/>
<rect x="0.5" y="0.5" width="689" height="333" rx="7.5" stroke="#3F3F46"/>
</g>
</svg>
