<svg width="122" height="122" viewBox="0 0 122 122" fill="none" xmlns="http://www.w3.org/2000/svg">
<path d="M71.1668 1.17674L72.4209 1.40801L72.2921 6.50259L73.7497 1.65287L75.1259 1.90454L72.8752 8.29147L71.2617 7.99899L71.3295 3.84307L69.9465 7.76093L68.333 7.46845L68.455 0.687012L69.838 0.93868L69.5126 5.99925L71.1668 1.17674Z" fill="white"/>
<path d="M76.2221 7.95786L77.7542 8.39998L77.422 9.54949L74.5001 8.70606L76.3441 2.27832L79.266 3.12175L78.9406 4.25766L77.4085 3.81554L76.9746 5.32555L78.4118 5.74046L78.1 6.83556L76.6627 6.42064L76.2221 7.95786Z" fill="white"/>
<path d="M85.0627 5.2101C85.8491 5.54339 86.066 6.12835 85.7135 6.96498L83.6119 11.9643L82.2832 11.3998L83.1509 9.33202L82.195 8.92391L81.3273 10.9917L79.9985 10.4271L82.1001 5.42776C82.4527 4.59114 83.0221 4.33947 83.8085 4.66596L85.0627 5.2101ZM82.6289 7.90363L83.5848 8.31175L84.4526 6.24398C84.4729 6.19637 84.4729 6.14196 84.4593 6.08754C84.439 6.03313 84.4051 5.99912 84.3576 5.97871L83.7611 5.72704C83.7136 5.70664 83.6594 5.70664 83.6119 5.72704C83.5577 5.74745 83.5238 5.78826 83.5035 5.83587L82.6289 7.90363Z" fill="white"/>
<path d="M87.0019 10.6241L85.7206 13.0456L84.446 12.3654L87.5713 6.45459L89.8356 7.65852C90.5881 8.05983 90.7508 8.65839 90.3305 9.46781L89.9712 10.1548C89.7136 10.6445 89.3746 10.8622 88.9611 10.8078C89.2051 11.0798 89.2255 11.4063 89.0221 11.8008L87.7883 14.1407L86.5137 13.4605L87.6933 11.2227C87.7544 11.1002 87.734 11.0118 87.6188 10.9506L87.0019 10.6241ZM88.3916 8.00541L87.4764 9.73308L88.1476 10.0936C88.195 10.1208 88.2492 10.1208 88.2967 10.1072C88.3509 10.0868 88.3916 10.0528 88.4119 10.0052L89.1306 8.64478C89.1577 8.59717 89.1645 8.54276 89.1509 8.48834C89.1373 8.43393 89.1035 8.39312 89.056 8.36591L88.3916 8.00541Z" fill="white"/>
<path d="M90.3769 14.3586L91.726 15.2157L91.0887 16.2291L88.5193 14.5967L92.0921 8.95117L94.6614 10.5836L94.031 11.5767L92.6819 10.7197L91.8412 12.046L93.1022 12.8486L92.492 13.8077L91.2311 13.0051L90.3769 14.3586Z" fill="white"/>
<path d="M96.4656 16.9563L97.1299 16.1264L98.6146 17.3304L97.0757 19.2417C96.5062 19.9491 95.8893 20.0375 95.2249 19.5001L94.2148 18.6839C93.5505 18.1466 93.503 17.5276 94.0725 16.8134L96.6825 13.5689C97.252 12.8615 97.8689 12.7731 98.5333 13.3105L99.5434 14.1267C100.208 14.664 100.255 15.283 99.6858 15.9972L99.2926 16.4869L98.2282 15.6231L98.7367 14.9973C98.7705 14.9565 98.7841 14.9021 98.7841 14.8477C98.7773 14.7933 98.757 14.7457 98.7163 14.7117L98.2146 14.3035C98.174 14.2695 98.1197 14.2559 98.0655 14.2627C98.0113 14.2695 97.9638 14.2967 97.9299 14.3375L95.1097 17.8473C95.0758 17.8881 95.0623 17.9425 95.0623 17.9969C95.0623 18.0514 95.0894 18.099 95.13 18.133L95.6385 18.5411C95.6792 18.5751 95.7334 18.5887 95.7876 18.5819C95.8419 18.5751 95.8893 18.5479 95.9232 18.5071L96.8994 17.2895L96.4656 16.9563Z" fill="white"/>
<path d="M100.004 20.0996L100.736 19.331L102.112 20.6506L100.417 22.4259C99.7937 23.0857 99.17 23.1197 98.5531 22.5279L97.6175 21.6301C97.0006 21.0383 97.0074 20.4125 97.6311 19.7596L100.499 16.7463C101.122 16.0866 101.746 16.0525 102.363 16.6443L103.299 17.5422C103.916 18.1339 103.909 18.7597 103.285 19.4127L102.851 19.8684L101.861 18.9161L102.417 18.3312C102.458 18.2904 102.472 18.2427 102.478 18.1883C102.478 18.1339 102.458 18.0863 102.417 18.0455L101.95 17.5966C101.909 17.5558 101.861 17.5422 101.807 17.5422C101.753 17.5422 101.705 17.5694 101.665 17.6102L98.5599 20.8683C98.5192 20.9091 98.5056 20.9567 98.4989 21.0111C98.4989 21.0655 98.5192 21.1131 98.5531 21.1539L99.0209 21.6029C99.0615 21.6437 99.109 21.6573 99.1632 21.6573C99.2175 21.6505 99.2649 21.6301 99.3056 21.5892L100.384 20.4601L100.004 20.0996Z" fill="white"/>
<path d="M103.211 25.6707L104.221 26.8883L103.286 27.6705L101.354 25.3442L106.472 21.0591L107.394 22.1678L103.211 25.6707Z" fill="white"/>
<path d="M110.68 26.323C111.175 27.0168 111.047 27.629 110.308 28.1595L105.901 31.2952L105.067 30.1116L106.891 28.8125L106.287 27.9622L104.464 29.2614L103.63 28.0779L108.043 24.9354C108.782 24.4117 109.399 24.4933 109.894 25.1939L110.68 26.323ZM107.196 27.3229L107.799 28.1731L109.623 26.874C109.67 26.8399 109.697 26.7991 109.704 26.7447C109.718 26.6903 109.704 26.6427 109.677 26.5951L109.304 26.0645C109.27 26.0169 109.23 25.9965 109.175 25.9897C109.121 25.9829 109.067 25.9965 109.026 26.0237L107.196 27.3229Z" fill="white"/>
<path d="M111.19 33.0573C111.278 33.5266 111.075 33.9007 110.58 34.1932L109.549 34.7986C108.763 35.2543 108.16 35.1183 107.733 34.3769L106.397 32.0779L112.16 28.7109L113.454 30.9351C113.881 31.6765 113.705 32.2751 112.919 32.7308L112.397 33.0369C111.915 33.309 111.515 33.3158 111.19 33.0573ZM108.682 33.6219L109.97 32.8669C110.017 32.8397 110.051 32.7988 110.065 32.7444C110.078 32.69 110.078 32.6424 110.051 32.5948L109.624 31.8602L107.977 32.8261L108.404 33.5607C108.431 33.6083 108.472 33.6355 108.526 33.6491C108.58 33.6559 108.634 33.6491 108.682 33.6219ZM112.424 31.112L112.038 30.4522L110.499 31.3501L110.885 32.0098C110.912 32.0574 110.953 32.0847 111.007 32.0983C111.061 32.1119 111.116 32.1051 111.163 32.0779L112.349 31.3841C112.397 31.3569 112.431 31.316 112.444 31.2616C112.458 31.2072 112.451 31.1596 112.424 31.112Z" fill="white"/>
<path d="M114.783 37.4781L114.2 36.2334L114.675 36.0089C114.722 35.9885 114.763 35.9477 114.783 35.8933C114.803 35.8389 114.803 35.7913 114.783 35.7436L114.539 35.2267C114.519 35.1791 114.478 35.1451 114.424 35.1247C114.37 35.1111 114.315 35.1111 114.268 35.1315L113.197 35.6416C113.149 35.662 113.109 35.7028 113.088 35.7572C113.068 35.8117 113.068 35.8593 113.088 35.9069L113.481 36.7503C113.834 37.5325 113.603 38.1107 112.797 38.4916L111.502 39.1037C110.682 39.4915 110.092 39.301 109.726 38.5256L109.21 37.4237C108.844 36.6483 109.075 36.0701 109.895 35.6824L110.519 35.3899L111.102 36.6347L110.431 36.9544C110.383 36.9748 110.349 37.0156 110.322 37.07C110.302 37.1244 110.302 37.172 110.322 37.2196L110.593 37.7978C110.614 37.8454 110.654 37.8794 110.709 37.8998C110.763 37.9202 110.81 37.9134 110.865 37.8862L112.051 37.3285C112.098 37.3081 112.132 37.2673 112.159 37.2128C112.18 37.1584 112.18 37.1108 112.153 37.0632L111.759 36.2198C111.393 35.4444 111.624 34.8662 112.444 34.4785L113.644 33.9071C114.464 33.5194 115.054 33.7099 115.42 34.4853L115.908 35.526C116.274 36.3014 116.044 36.8795 115.224 37.2672L114.783 37.4781Z" fill="white"/>
<path d="M120.592 51.5103L120.775 52.7822L115.914 54.2582L120.965 54.1222L121.161 55.5166L114.409 55.3873L114.179 53.7617L118.131 52.517L113.989 52.4353L113.758 50.8097L120.206 48.7896L120.402 50.1839L115.514 51.4695L120.592 51.5103Z" fill="white"/>
<path d="M115.774 58.4823L115.841 60.0807L114.648 60.1283L114.519 57.0811L121.183 56.8022L121.312 59.8495L120.139 59.8971L120.072 58.2986L118.506 58.3667L118.567 59.8631L117.435 59.9107L117.374 58.4143L115.774 58.4823Z" fill="white"/>
<path d="M121.176 65.9984C121.115 66.8486 120.627 67.2431 119.725 67.1751L114.329 66.7738L114.437 65.3318L116.668 65.5018L116.742 64.4612L114.512 64.2911L114.62 62.8491L120.017 63.2504C120.918 63.3185 121.339 63.781 121.278 64.6312L121.176 65.9984ZM117.854 64.5428L117.78 65.5835L120.01 65.7535C120.064 65.7603 120.112 65.7399 120.159 65.7059C120.2 65.6719 120.227 65.6243 120.234 65.5699L120.281 64.9169C120.288 64.8625 120.268 64.8149 120.227 64.774C120.186 64.7332 120.146 64.7128 120.085 64.706L117.854 64.5428Z" fill="white"/>
<path d="M116.682 69.5692L113.99 69.1271L114.221 67.6987L120.804 68.7802L120.39 71.3173C120.254 72.1607 119.739 72.5076 118.838 72.3648L118.078 72.2424C117.536 72.1539 117.224 71.9023 117.136 71.4874C116.96 71.807 116.655 71.9295 116.221 71.8615L113.617 71.4329L113.848 70.0046L116.343 70.4127C116.478 70.4331 116.56 70.3787 116.58 70.2494L116.682 69.5692ZM119.597 70.0522L117.678 69.7325L117.556 70.4875C117.549 70.5419 117.563 70.5895 117.597 70.6371C117.631 70.6779 117.678 70.7051 117.732 70.7188L119.244 70.9704C119.299 70.9772 119.346 70.9704 119.393 70.9364C119.441 70.9024 119.468 70.8616 119.475 70.8072L119.597 70.0522Z" fill="white"/>
<path d="M114.234 73.9564L113.854 75.514L112.695 75.2283L113.42 72.2695L119.894 73.868L119.169 76.8268L118.03 76.5479L118.41 74.9903L116.891 74.6162L116.532 76.0718L115.434 75.7997L115.793 74.3441L114.234 73.9564Z" fill="white"/>
<path d="M113.712 80.5945L114.709 80.9686L114.044 82.7575L111.746 81.9004C110.899 81.5807 110.621 81.023 110.919 80.2204L111.373 79.0028C111.671 78.2002 112.241 77.9622 113.095 78.275L116.986 79.7306C117.834 80.0503 118.112 80.6081 117.813 81.4107L117.359 82.6282C117.061 83.4308 116.492 83.6689 115.637 83.356L115.048 83.1384L115.529 81.8528L116.281 82.1317C116.336 82.1521 116.383 82.1521 116.437 82.1317C116.492 82.1113 116.525 82.0773 116.546 82.0229L116.769 81.4107C116.79 81.3563 116.783 81.3087 116.763 81.2611C116.736 81.2134 116.702 81.1794 116.647 81.159L112.437 79.5878C112.383 79.5674 112.336 79.5674 112.282 79.5878C112.227 79.6082 112.193 79.6422 112.173 79.6966L111.949 80.3088C111.929 80.3564 111.936 80.4108 111.956 80.4584C111.983 80.506 112.017 80.5401 112.071 80.5605L113.529 81.1046L113.712 80.5945Z" fill="white"/>
<path d="M111.86 84.9622L112.823 85.4179L112.009 87.1456L109.792 86.0981C108.972 85.7104 108.742 85.1323 109.108 84.3568L109.664 83.1801C110.03 82.4047 110.619 82.2143 111.44 82.602L115.195 84.384C116.016 84.7718 116.246 85.3499 115.88 86.1253L115.324 87.302C114.958 88.0774 114.368 88.2679 113.548 87.8802L112.979 87.6081L113.562 86.3634L114.287 86.7103C114.335 86.7375 114.389 86.7375 114.443 86.7239C114.497 86.7103 114.538 86.6763 114.558 86.6219L114.836 86.0301C114.857 85.9825 114.863 85.9281 114.836 85.8805C114.809 85.8328 114.782 85.792 114.728 85.7648L110.667 83.8399C110.619 83.8127 110.565 83.8127 110.511 83.8263C110.457 83.8399 110.416 83.8739 110.396 83.9283L110.118 84.5201C110.097 84.5677 110.091 84.6221 110.118 84.6697C110.145 84.7173 110.172 84.7581 110.226 84.7854L111.636 85.4519L111.86 84.9622Z" fill="white"/>
<path d="M107.609 89.7704L106.782 91.1172L105.745 90.4778L107.331 87.8999L112.998 91.4233L112.239 92.6544L107.609 89.7704Z" fill="white"/>
<path d="M109.347 97.096C108.845 97.783 108.228 97.8578 107.496 97.3205L103.137 94.11L103.991 92.9401L105.794 94.2665L106.411 93.423L104.608 92.0967L105.462 90.9268L109.821 94.1372C110.553 94.6746 110.669 95.2867 110.16 95.9805L109.347 97.096ZM107.299 94.0896L106.682 94.933L108.486 96.2594C108.533 96.2934 108.581 96.307 108.635 96.3002C108.689 96.2934 108.737 96.2662 108.764 96.2254L109.15 95.7017C109.184 95.654 109.191 95.6064 109.184 95.552C109.17 95.4976 109.143 95.45 109.103 95.4228L107.299 94.0896Z" fill="white"/>
<path d="M103.151 99.688C102.738 99.9193 102.317 99.8444 101.89 99.4703L100.995 98.6745C100.318 98.076 100.257 97.4502 100.819 96.8108L102.568 94.8179L107.571 99.2391L105.877 101.171C105.314 101.81 104.69 101.831 104.012 101.232L103.558 100.831C103.145 100.463 103.009 100.083 103.151 99.688ZM101.823 97.4842L102.941 98.4773C102.982 98.5113 103.029 98.5317 103.084 98.5317C103.138 98.5317 103.185 98.5113 103.219 98.4705L103.775 97.8311L102.345 96.566L101.789 97.2053C101.755 97.2461 101.734 97.2937 101.741 97.3482C101.748 97.4026 101.782 97.4434 101.823 97.4842ZM105.382 100.253L105.883 99.6812L104.548 98.4977L104.046 99.069C104.012 99.1098 103.992 99.1575 103.999 99.2119C104.006 99.2663 104.026 99.3139 104.067 99.3479L105.097 100.253C105.138 100.287 105.185 100.307 105.239 100.307C105.3 100.314 105.341 100.293 105.382 100.253Z" fill="white"/>
<path d="M100.094 104.517L101.084 103.565L101.45 103.946C101.491 103.987 101.538 104.007 101.592 104.014C101.646 104.021 101.694 104 101.735 103.959L102.141 103.565C102.182 103.524 102.202 103.483 102.202 103.422C102.202 103.368 102.182 103.32 102.141 103.279L101.321 102.422C101.28 102.381 101.24 102.361 101.179 102.354C101.124 102.347 101.077 102.368 101.036 102.408L100.365 103.055C99.7414 103.633 99.1177 103.599 98.5008 102.953L97.511 101.912C96.8873 101.252 96.8806 100.633 97.4975 100.041L98.3788 99.198C98.9957 98.6063 99.6194 98.6403 100.243 99.3L100.718 99.8034L99.7279 100.756L99.2127 100.218C99.172 100.177 99.1313 100.157 99.0703 100.15C99.0161 100.143 98.9686 100.164 98.9279 100.205L98.4669 100.647C98.4262 100.688 98.4059 100.728 98.4059 100.79C98.4059 100.844 98.4262 100.892 98.4669 100.932L99.3686 101.885C99.4093 101.926 99.4499 101.946 99.5109 101.953C99.5652 101.96 99.6126 101.939 99.6533 101.898L100.324 101.252C100.941 100.66 101.565 100.694 102.189 101.354L103.104 102.32C103.728 102.98 103.734 103.599 103.118 104.191L102.29 104.986C101.674 105.578 101.05 105.544 100.426 104.884L100.094 104.517Z" fill="white"/>
<path d="M88.7031 114.502L87.5642 115.08L84.6152 110.931L86.3574 115.685L85.1033 116.318L83.0695 109.856L84.5338 109.115L86.9744 112.482L85.7337 108.516L87.1981 107.775L91.164 113.264L89.9098 113.897L87.1371 109.659L88.7031 114.502Z" fill="white"/>
<path d="M80.5797 112.142L79.0883 112.714L78.6612 111.591L81.5017 110.503L83.8813 116.754L81.0407 117.842L80.6204 116.74L82.1119 116.169L81.5492 114.7L80.1527 115.237L79.7459 114.176L81.1424 113.639L80.5797 112.142Z" fill="white"/>
<path d="M75.1844 119.665C74.3574 119.876 73.8354 119.536 73.6116 118.651L72.2897 113.387L73.6862 113.033L74.2353 115.21L75.2455 114.951L74.6963 112.775L76.0929 112.421L77.4148 117.686C77.6386 118.57 77.3335 119.114 76.5064 119.325L75.1844 119.665ZM75.5166 116.039L74.5065 116.298L75.0556 118.475C75.0692 118.529 75.0963 118.57 75.1438 118.604C75.1912 118.638 75.2387 118.645 75.2929 118.631L75.9234 118.475C75.9776 118.461 76.0183 118.427 76.0454 118.379C76.0725 118.332 76.0793 118.277 76.0658 118.223L75.5166 116.039Z" fill="white"/>
<path d="M70.3848 116.509L69.9577 113.802L71.3814 113.577L72.4322 120.182L69.8967 120.583C69.0561 120.719 68.5612 120.338 68.4188 119.434L68.2968 118.672C68.2087 118.128 68.351 117.747 68.7103 117.536C68.351 117.468 68.1409 117.216 68.0663 116.781L67.6528 114.169L69.0764 113.944L69.4764 116.448C69.4968 116.584 69.5713 116.645 69.7001 116.618L70.3848 116.509ZM70.8526 119.44L70.5476 117.509L69.795 117.631C69.7408 117.638 69.7001 117.665 69.6662 117.713C69.6323 117.76 69.6256 117.808 69.6323 117.862L69.8764 119.386C69.8832 119.44 69.9103 119.488 69.9577 119.522C69.9984 119.556 70.0527 119.57 70.1069 119.563L70.8526 119.44Z" fill="white"/>
<path d="M65.457 115.563L63.8638 115.692L63.7689 114.495L66.7993 114.25L67.3348 120.916L64.3045 121.161L64.2096 119.984L65.8027 119.855L65.6807 118.29L64.1892 118.413L64.1011 117.277L65.5926 117.154L65.457 115.563Z" fill="white"/>
<path d="M59.0233 117.162L58.9894 118.223L57.0844 118.161L57.1658 115.699C57.1929 114.788 57.6336 114.352 58.4878 114.38L59.7826 114.42C60.6368 114.448 61.0436 114.917 61.0164 115.828L60.8809 119.991C60.8537 120.903 60.4131 121.338 59.5589 121.311L58.264 121.27C57.4098 121.243 57.0031 120.773 57.0302 119.862L57.0505 119.229L58.42 119.277L58.3928 120.086C58.3928 120.141 58.4064 120.188 58.4471 120.229C58.481 120.27 58.5284 120.297 58.5827 120.297L59.2335 120.318C59.2877 120.318 59.3352 120.297 59.3759 120.263C59.4165 120.222 59.4369 120.175 59.4369 120.12L59.586 115.618C59.586 115.563 59.5725 115.516 59.5318 115.468C59.4979 115.427 59.4504 115.407 59.3962 115.4L58.7454 115.379C58.6911 115.379 58.6437 115.4 58.603 115.434C58.5623 115.475 58.542 115.522 58.542 115.577L58.4878 117.134L59.0233 117.162Z" fill="white"/>
<path d="M54.3173 116.794L54.1952 117.849L52.3038 117.624L52.5885 115.182C52.6902 114.278 53.1716 113.876 54.0122 113.978L55.3003 114.128C56.1477 114.23 56.5138 114.727 56.4121 115.631L55.9307 119.767C55.8223 120.671 55.3477 121.073 54.5071 120.971L53.219 120.821C52.3716 120.719 52.0055 120.222 52.1072 119.318L52.1818 118.692L53.5444 118.849L53.4495 119.651C53.4427 119.706 53.4563 119.753 53.4902 119.801C53.5241 119.848 53.5648 119.869 53.619 119.876L54.263 119.95C54.3173 119.957 54.3647 119.944 54.4054 119.903C54.4461 119.862 54.4732 119.821 54.48 119.767L55.002 115.291C55.0088 115.237 54.9952 115.189 54.9613 115.142C54.9274 115.094 54.8867 115.067 54.8325 115.06L54.1885 114.985C54.1342 114.978 54.0868 114.992 54.0461 115.033C54.0054 115.067 53.9783 115.114 53.9715 115.169L53.7885 116.72L54.3173 116.794Z" fill="white"/>
<path d="M48.4211 114.292L46.889 113.931L47.1669 112.741L50.1092 113.428L48.5906 119.944L47.1873 119.617L48.4211 114.292Z" fill="white"/>
<path d="M42.0483 118.271C41.2348 118.012 40.9704 117.448 41.2416 116.584L42.8889 111.415L44.2651 111.857L43.5872 113.992L44.577 114.312L45.2549 112.176L46.6311 112.618L44.9837 117.788C44.7058 118.652 44.1634 118.958 43.3499 118.699L42.0483 118.271ZM44.238 115.373L43.2482 115.054L42.5703 117.189C42.5567 117.244 42.5567 117.291 42.5771 117.346C42.5974 117.4 42.6381 117.427 42.6923 117.448L43.3092 117.645C43.3635 117.665 43.4109 117.659 43.4584 117.631C43.5059 117.604 43.5397 117.563 43.5533 117.509L44.238 115.373Z" fill="white"/>
<path d="M37.6131 113.197C37.2605 112.877 37.1995 112.455 37.4232 111.925L37.891 110.823C38.2435 109.986 38.813 109.734 39.5994 110.061L42.04 111.095L39.4503 117.257L37.0843 116.257C36.2979 115.924 36.0809 115.339 36.4334 114.503L36.6707 113.938C36.8809 113.435 37.1927 113.19 37.6131 113.197ZM37.7893 115.496L38.4944 115.795L39.1859 114.149L38.4808 113.85C38.4334 113.829 38.3791 113.829 38.3317 113.85C38.2842 113.87 38.2435 113.911 38.2232 113.958L37.6876 115.224C37.6673 115.271 37.6673 115.326 37.6808 115.38C37.708 115.434 37.7419 115.475 37.7893 115.496ZM39.2808 111.231L38.6977 112.612C38.6774 112.659 38.6774 112.714 38.691 112.768C38.7113 112.823 38.7452 112.857 38.7927 112.877L39.5723 113.203L40.3112 111.442L39.5316 111.115C39.4841 111.095 39.4299 111.095 39.3825 111.115C39.335 111.149 39.3011 111.183 39.2808 111.231Z" fill="white"/>
<path d="M32.0813 111.815L33.2948 112.461L33.0507 112.924C33.0236 112.971 33.0168 113.026 33.0304 113.08C33.0439 113.135 33.0778 113.175 33.1253 113.203L33.627 113.468C33.6744 113.495 33.7287 113.495 33.7761 113.482C33.8304 113.461 33.871 113.427 33.8914 113.38L34.4473 112.332C34.4744 112.284 34.4812 112.23 34.4676 112.176C34.4541 112.121 34.4202 112.08 34.3727 112.053L33.5524 111.618C32.8067 111.203 32.644 110.604 33.0575 109.815L33.7287 108.543C34.1558 107.741 34.7388 107.537 35.4913 107.938L36.5692 108.509C37.3217 108.911 37.4844 109.509 37.0641 110.319L36.7387 110.931L35.5252 110.285L35.8709 109.625C35.8981 109.577 35.9048 109.523 35.8913 109.468C35.8777 109.414 35.8438 109.373 35.7964 109.346L35.2337 109.047C35.1862 109.02 35.132 109.02 35.0845 109.033C35.0303 109.054 34.9896 109.088 34.9693 109.135L34.3591 110.298C34.332 110.346 34.3252 110.4 34.3388 110.455C34.3524 110.509 34.3863 110.55 34.4337 110.577L35.254 111.012C36.0065 111.414 36.1692 112.012 35.7489 112.815L35.1252 113.992C34.6981 114.794 34.1151 114.998 33.3626 114.597L32.3525 114.06C31.5999 113.658 31.4372 113.06 31.8576 112.257L32.0813 111.815Z" fill="white"/>
<path d="M19.0586 104.136L18.1502 103.232L21.1399 99.1096L17.1943 102.272L16.1978 101.279L21.6619 97.3003L22.8212 98.4566L20.4145 101.844L23.7703 99.4089L24.9295 100.565L20.9975 106.075L20.001 105.082L23.1262 101.103L19.0586 104.136Z" fill="white"/>
<path d="M18.7149 95.6609L17.698 94.4229L18.62 93.6611L20.5521 96.0146L15.4066 100.266L13.4745 97.9123L14.3829 97.1641L15.3998 98.402L16.6065 97.4021L15.6574 96.2458L16.532 95.5248L17.4811 96.6812L18.7149 95.6609Z" fill="white"/>
<path d="M9.87232 92.8991C9.41132 92.1781 9.56047 91.5727 10.3265 91.083L14.8755 88.1514L15.6551 89.3689L13.7704 90.5796L14.3331 91.4571L16.2178 90.2463L16.9974 91.4639L12.4485 94.3955C11.6824 94.8852 11.0723 94.7764 10.6113 94.0554L9.87232 92.8991ZM13.3976 92.0624L12.8349 91.185L10.9502 92.3957C10.9028 92.4229 10.8757 92.4705 10.8621 92.525C10.8485 92.5794 10.8553 92.627 10.8824 92.6746L11.235 93.2255C11.2621 93.2732 11.3095 93.3004 11.3638 93.3072C11.418 93.314 11.4722 93.3072 11.5129 93.28L13.3976 92.0624Z" fill="white"/>
<path d="M11.3374 87.3558L13.7577 86.0839L14.4288 87.3626L8.524 90.4711L7.33084 88.1924C6.93764 87.4374 7.14102 86.8457 7.94098 86.424L8.62569 86.0635C9.11381 85.805 9.51379 85.8186 9.83242 86.0975C9.78496 85.737 9.95444 85.4513 10.3409 85.2472L12.6797 84.0161L13.3509 85.2949L11.1137 86.4716C10.9917 86.5328 10.9646 86.628 11.0188 86.7436L11.3374 87.3558ZM8.72061 88.7366L10.4426 87.8319L10.09 87.1518C10.0629 87.1042 10.0222 87.0701 9.968 87.0565C9.91377 87.0429 9.85953 87.0497 9.81208 87.0769L8.44943 87.7911C8.40198 87.8183 8.36808 87.8592 8.34774 87.9068C8.3274 87.9612 8.33418 88.0088 8.35452 88.0564L8.72061 88.7366Z" fill="white"/>
<path d="M10.6515 82.3638L10.021 80.8878L11.1192 80.4185L12.3124 83.2208L6.18389 85.8531L4.99072 83.0508L6.06864 82.5882L6.69912 84.0642L8.13633 83.4453L7.54653 82.0645L8.59055 81.6156L9.18035 82.9964L10.6515 82.3638Z" fill="white"/>
<path d="M7.09422 76.7382L6.07732 77.0443L5.53497 75.2078L7.8874 74.5072C8.75516 74.2487 9.31106 74.5276 9.55512 75.3506L9.92798 76.6022C10.172 77.4184 9.86019 77.9626 8.98565 78.221L5.00618 79.4045C4.13843 79.663 3.58252 79.3841 3.33847 78.5611L2.9656 77.3096C2.72155 76.4934 3.0334 75.9492 3.90793 75.6907L4.51129 75.5139L4.90449 76.8334L4.13165 77.0647C4.07741 77.0783 4.03674 77.1123 4.00962 77.1599C3.9825 77.2075 3.97572 77.262 3.98928 77.3096L4.17233 77.9353C4.18588 77.9898 4.21978 78.0238 4.27402 78.051C4.32147 78.0782 4.37571 78.0782 4.42994 78.0646L8.73482 76.779C8.78905 76.7654 8.82973 76.7314 8.85685 76.6838C8.88396 76.6362 8.89074 76.5818 8.87719 76.5342L8.69414 75.9084C8.68058 75.854 8.64669 75.82 8.59245 75.7928C8.53822 75.7656 8.49076 75.7656 8.43653 75.7792L6.94507 76.2213L7.09422 76.7382Z" fill="white"/>
<path d="M5.95495 72.1394L4.91771 72.3571L4.53129 70.4866L6.93117 69.99C7.81926 69.8064 8.34805 70.1329 8.52431 70.9695L8.78871 72.2482C8.95819 73.0849 8.60567 73.595 7.71757 73.7786L3.64997 74.6221C2.76188 74.8057 2.23309 74.4792 2.05683 73.6426L1.79243 72.3639C1.62295 71.5272 1.97548 71.0171 2.86357 70.8334L3.48049 70.7042L3.75844 72.051L2.97204 72.2142C2.9178 72.2278 2.87713 72.255 2.84323 72.2958C2.80933 72.3435 2.80255 72.3911 2.80933 72.4455L2.93814 73.0849C2.9517 73.1393 2.97882 73.1801 3.02627 73.2073C3.07373 73.2345 3.12796 73.2481 3.1822 73.2345L7.58199 72.323C7.63622 72.3094 7.6769 72.2822 7.71079 72.2414C7.74469 72.1938 7.75147 72.1462 7.74469 72.0918L7.61588 71.4524C7.60232 71.398 7.57521 71.3572 7.52775 71.33C7.4803 71.3028 7.42606 71.2892 7.37183 71.3028L5.84648 71.6225L5.95495 72.1394Z" fill="white"/>
<path d="M6.46094 65.7264L6.31858 64.1484L7.53208 64.0396L7.80325 67.0596L1.16628 67.6649L1.03748 66.2229L6.46094 65.7264Z" fill="white"/>
<path d="M0.6867 60.9647C0.673142 60.1077 1.12058 59.6723 2.02901 59.6587L7.43892 59.5703L7.45926 61.0191L5.22208 61.0531L5.23563 62.1006L7.47282 62.0666L7.49315 63.5154L2.08324 63.6038C1.17481 63.6174 0.713818 63.1957 0.700259 62.3455L0.6867 60.9647ZM4.12382 62.1142L4.11027 61.0735L1.87308 61.1075C1.81885 61.1075 1.77139 61.1279 1.73072 61.1687C1.69004 61.2096 1.6697 61.2572 1.6697 61.3116L1.68326 61.9646C1.68326 62.019 1.7036 62.0666 1.74428 62.1006C1.78495 62.1346 1.83241 62.155 1.88664 62.155L4.12382 62.1142Z" fill="white"/>
<path d="M4.07677 55.1221C4.2666 54.6868 4.64624 54.4895 5.2157 54.5371L6.40886 54.6256C7.31052 54.6936 7.73084 55.1561 7.66982 56.0063L7.46644 58.6522L0.822693 58.1489L1.01251 55.5846C1.07353 54.7344 1.56164 54.3399 2.46329 54.4079L3.06665 54.4555C3.61578 54.4963 3.95475 54.714 4.07677 55.1221ZM1.96162 56.0199L1.90739 56.7817L3.68357 56.9178L3.73781 56.156C3.74459 56.1016 3.72425 56.0539 3.68357 56.0131C3.6429 55.9723 3.60222 55.9519 3.54121 55.9451L2.17856 55.8363C2.12433 55.8295 2.07687 55.8499 2.02941 55.8839C1.98874 55.9179 1.9684 55.9655 1.96162 56.0199ZM6.4631 56.0743L4.97165 55.9655C4.91741 55.9587 4.86996 55.9791 4.8225 56.0131C4.78182 56.0471 4.75471 56.0879 4.75471 56.1424L4.68691 56.9926L6.58513 57.1354L6.64614 56.292C6.65292 56.2376 6.63258 56.19 6.59191 56.1492C6.56479 56.1016 6.51733 56.0811 6.4631 56.0743Z" fill="white"/>
<path d="M3.61354 49.4219L3.38982 50.7823L2.86782 50.7007C2.81358 50.6939 2.76613 50.7007 2.71867 50.7347C2.67121 50.7619 2.6441 50.8095 2.63732 50.8639L2.54919 51.4285C2.54241 51.4829 2.55597 51.5305 2.58986 51.5781C2.62376 51.6189 2.67121 51.6461 2.72545 51.6597L3.89827 51.8502C3.95251 51.857 3.99996 51.8502 4.04742 51.8162C4.09488 51.789 4.12199 51.7414 4.12877 51.6869L4.27792 50.7687C4.42706 49.9253 4.94229 49.5784 5.82361 49.7212L7.24049 49.9525C8.13536 50.1021 8.515 50.5918 8.37942 51.4353L8.18282 52.6392C8.04723 53.4826 7.532 53.8295 6.63713 53.6867L5.95241 53.5779L6.17613 52.2175L6.9083 52.3399C6.96253 52.3467 7.00999 52.3399 7.05745 52.3059C7.1049 52.2787 7.13202 52.2311 7.1388 52.1767L7.24049 51.5441C7.24727 51.4897 7.23371 51.4421 7.19981 51.3945C7.16591 51.3537 7.11846 51.3264 7.06422 51.3128L5.76937 51.0952C5.71514 51.0884 5.66768 51.0952 5.62023 51.1292C5.57277 51.1632 5.54565 51.204 5.53887 51.2584L5.38973 52.1767C5.25414 53.0201 4.73891 53.367 3.84404 53.2242L2.52885 53.0065C1.63398 52.8569 1.25433 52.3671 1.38992 51.5237L1.57296 50.3878C1.70855 49.5444 2.22378 49.1975 3.11865 49.3403L3.61354 49.4219Z" fill="white"/>
<path d="M6.73315 34.5673L7.30262 33.4178L12.1431 34.9618L7.90598 32.2071L8.52968 30.9487L14.0209 34.8938L13.2956 36.3698L9.32964 35.1523L12.699 37.5737L11.9736 39.0497L5.51965 37.05L6.14335 35.7916L10.8957 37.5057L6.73315 34.5673Z" fill="white"/>
<path d="M14.646 31.5611L15.4934 30.2007L16.5035 30.8401L14.8833 33.4248L9.23608 29.8674L10.8563 27.2827L11.8529 27.9085L11.0055 29.2689L12.3342 30.1055L13.1274 28.8335L14.0901 29.4389L13.2969 30.7108L14.646 31.5611Z" fill="white"/>
<path d="M14.4489 22.2899C14.9844 21.6233 15.6013 21.5757 16.3132 22.147L20.5231 25.5547L19.6147 26.6838L17.8724 25.2759L17.2216 26.0921L18.9639 27.5001L18.0555 28.6292L13.8455 25.2215C13.1405 24.6501 13.0523 24.0311 13.5879 23.3645L14.4489 22.2899ZM16.3539 25.3847L17.0047 24.5685L15.2624 23.1605C15.2217 23.1265 15.1675 23.1129 15.1132 23.1129C15.059 23.1197 15.0115 23.1401 14.9777 23.1809L14.5709 23.691C14.537 23.7318 14.5234 23.7863 14.5302 23.8407C14.537 23.8951 14.5641 23.9427 14.6048 23.9767L16.3539 25.3847Z" fill="white"/>
<path d="M20.1769 21.909L22.143 23.8068L21.1396 24.8474L16.3398 20.2086L18.116 18.3517C18.7058 17.7327 19.3295 17.7463 19.9803 18.3721L20.5363 18.9094C20.9295 19.2903 21.0515 19.678 20.8888 20.0657C21.2142 19.9025 21.5396 19.9773 21.8514 20.2834L23.7497 22.1199L22.7463 23.1606L20.9295 21.4057C20.8278 21.3105 20.7329 21.3105 20.6447 21.4057L20.1769 21.909ZM18.0415 19.8549L19.4448 21.2085L19.9736 20.6575C20.0142 20.6167 20.0278 20.5691 20.0278 20.5147C20.021 20.4603 20.0007 20.4126 19.96 20.3718L18.855 19.3039C18.8143 19.2631 18.7668 19.2427 18.7126 19.2427C18.6584 19.2427 18.6109 19.2631 18.5702 19.2971L18.0415 19.8549Z" fill="white"/>
<path d="M24.6719 19.6845L25.8651 18.6166L26.6583 19.5145L24.3872 21.5414L19.9535 16.5421L22.2246 14.5151L23.0042 15.3926L21.811 16.4605L22.855 17.6372L23.9736 16.6441L24.7261 17.4943L23.6076 18.4874L24.6719 19.6845Z" fill="white"/>
<path d="M28.8473 14.5222L28.2372 13.6516L29.7964 12.5497L31.2065 14.563C31.7285 15.3044 31.6404 15.9234 30.9421 16.4199L29.8778 17.1682C29.1795 17.6579 28.5693 17.5355 28.0473 16.7872L25.661 13.3795C25.139 12.6381 25.2271 12.0192 25.9254 11.5226L26.9898 10.7744C27.688 10.2847 28.2982 10.4071 28.8202 11.1553L29.1795 11.6723L28.0609 12.4613L27.5999 11.8015C27.566 11.7539 27.5253 11.7267 27.4711 11.7131C27.4169 11.6995 27.3694 11.7131 27.3219 11.7403L26.7932 12.1144C26.7457 12.1484 26.7254 12.1892 26.7118 12.2436C26.705 12.298 26.7186 12.3524 26.7457 12.3933L29.3286 16.0799C29.3625 16.1275 29.4032 16.1547 29.4574 16.1683C29.5117 16.1819 29.5591 16.1683 29.6066 16.1411L30.1354 15.767C30.1828 15.733 30.2032 15.6922 30.2167 15.6377C30.2303 15.5833 30.2099 15.5289 30.1828 15.4881L29.2879 14.2094L28.8473 14.5222Z" fill="white"/>
<path d="M32.8278 11.9717L32.2923 11.0534L33.9397 10.0876L35.1803 12.2097C35.6413 12.9919 35.4989 13.6041 34.7667 14.0326L33.6481 14.6924C32.916 15.1209 32.3194 14.9441 31.8584 14.1619L29.7636 10.5637C29.3026 9.78148 29.445 9.16931 30.1771 8.74079L31.2957 8.08101C32.0279 7.6525 32.6245 7.82935 33.0855 8.61156L33.4041 9.15571L32.2177 9.84949L31.8109 9.15571C31.7838 9.10809 31.7431 9.07408 31.6889 9.06048C31.6347 9.04688 31.5872 9.04688 31.5398 9.07408L30.9771 9.40057C30.9296 9.42778 30.9025 9.46859 30.889 9.52301C30.8754 9.57742 30.8822 9.63184 30.9161 9.67945L33.1804 13.5701C33.2075 13.6177 33.2482 13.6517 33.3024 13.6653C33.3566 13.6789 33.4041 13.6789 33.4515 13.6517L34.0142 13.3252C34.0617 13.298 34.0888 13.2572 34.1024 13.2028C34.1159 13.1484 34.1091 13.094 34.0752 13.0464L33.2888 11.6996L32.8278 11.9717Z" fill="white"/>
<path d="M39.0525 10.4071L40.4965 9.7677L40.9846 10.89L38.2255 12.1143L35.5341 5.99267L36.856 5.40771L39.0525 10.4071Z" fill="white"/>
<path d="M41.7506 3.3874C42.5573 3.10852 43.1065 3.3942 43.4048 4.25123L45.1877 9.37302L43.8251 9.84915L43.0861 7.73377L42.1031 8.08067L42.8421 10.196L41.4794 10.6722L39.6965 5.55038C39.3982 4.69335 39.649 4.122 40.4557 3.83632L41.7506 3.3874ZM41.737 7.02638L42.72 6.67949L41.9879 4.56411C41.9675 4.5097 41.9336 4.47569 41.8862 4.44848C41.8387 4.42128 41.7845 4.41447 41.737 4.43488L41.1269 4.65254C41.0727 4.67294 41.0388 4.70695 41.0184 4.75457C40.9981 4.80898 40.9913 4.85659 41.0117 4.91101L41.737 7.02638Z" fill="white"/>
<path d="M48.3168 4.76789C48.7914 4.8155 49.0964 5.11478 49.232 5.66573L49.5235 6.82885C49.7473 7.71308 49.4422 8.25723 48.6151 8.46809L46.0457 9.11427L44.4187 2.62531L46.9067 1.99954C47.7338 1.78868 48.2558 2.12877 48.4795 3.01301L48.6287 3.60477C48.7643 4.14212 48.6626 4.52982 48.3168 4.76789ZM46.7982 3.04022L46.0593 3.22387L46.4932 4.95834L47.2321 4.77469C47.2864 4.76109 47.327 4.72708 47.3541 4.67946C47.3813 4.63185 47.3881 4.57744 47.3745 4.52302L47.0423 3.18986C47.0287 3.13544 47.0016 3.09463 46.9542 3.06062C46.9067 3.02661 46.8525 3.02661 46.7982 3.04022ZM48.1677 7.34579L47.8016 5.89019C47.788 5.83578 47.7609 5.79497 47.7135 5.76096C47.666 5.72695 47.6185 5.72015 47.5643 5.73375L46.744 5.9378L47.2118 7.79471L48.0321 7.59065C48.0863 7.57705 48.127 7.54304 48.1541 7.49543C48.1744 7.44781 48.1812 7.4002 48.1677 7.34579Z" fill="white"/>
<path d="M53.566 2.5367L52.2102 2.75436L52.1288 2.23062C52.122 2.1762 52.0949 2.12859 52.0475 2.09458C52 2.06057 51.9593 2.04697 51.9051 2.06057L51.3424 2.14899C51.2882 2.1558 51.2475 2.183 51.2136 2.23062C51.1797 2.27823 51.1729 2.32584 51.1797 2.38026L51.3695 3.55698C51.3763 3.61139 51.4034 3.659 51.4509 3.69301C51.4983 3.72702 51.5458 3.74063 51.6 3.73382L52.5152 3.58418C53.3559 3.46175 53.8508 3.84265 53.9931 4.72689L54.2168 6.14848C54.3592 7.04632 54.0135 7.56326 53.1728 7.6993L51.9729 7.88975C51.1323 8.02579 50.6374 7.64488 50.495 6.74704L50.3797 6.06005L51.7356 5.8424L51.8509 6.57699C51.8576 6.63141 51.8848 6.67902 51.9322 6.71303C51.9729 6.74704 52.0271 6.76064 52.0814 6.75384L52.7118 6.65182C52.7661 6.64501 52.8067 6.61781 52.8406 6.57019C52.8745 6.52258 52.8813 6.47497 52.8745 6.42055L52.6712 5.1214C52.6644 5.06699 52.6373 5.01937 52.5898 4.98536C52.5491 4.95135 52.4949 4.93775 52.4407 4.94455L51.5254 5.09419C50.6848 5.23023 50.1899 4.84933 50.0476 3.95148L49.8374 2.63193C49.695 1.73408 50.0408 1.21714 50.8814 1.0811L52.0136 0.897455C52.8542 0.761418 53.3491 1.14232 53.4915 2.04016L53.566 2.5367Z" fill="white"/>
</svg>
