<svg width="40" height="40" viewBox="0 0 40 40" fill="none" xmlns="http://www.w3.org/2000/svg">
<path d="M30.4129 10.2177C28.4418 9.32469 26.361 8.69118 24.2236 8.33333C23.9311 8.85073 23.6665 9.38308 23.4308 9.92813C21.1541 9.58862 18.8388 9.58862 16.562 9.92813C16.3262 9.38313 16.0616 8.8508 15.7692 8.33333C13.6304 8.69421 11.5483 9.32922 9.57524 10.2223C5.65831 15.9571 4.59649 21.5494 5.1274 27.0623C7.42125 28.7394 9.98873 30.0149 12.7182 30.8333C13.3328 30.0153 13.8767 29.1475 14.344 28.2391C13.4564 27.9111 12.5997 27.5063 11.7838 27.0296C11.9985 26.8755 12.2086 26.7167 12.4115 26.5626C14.7855 27.6674 17.3766 28.2402 20 28.2402C22.6234 28.2402 25.2144 27.6674 27.5884 26.5626C27.7937 26.7284 28.0037 26.8872 28.2161 27.0296C27.3986 27.5071 26.5404 27.9126 25.6512 28.2414C26.1179 29.1494 26.6618 30.0165 27.277 30.8333C30.0088 30.0182 32.5782 28.7433 34.8725 27.0646V27.0646C35.4954 20.6714 33.8083 15.1305 30.4129 10.2177ZM15.0165 23.6719C13.537 23.6719 12.3147 22.3433 12.3147 20.7088C12.3147 19.0743 13.4945 17.734 15.0118 17.734C16.529 17.734 17.7418 19.0743 17.7159 20.7088C17.6899 22.3433 16.5243 23.6719 15.0165 23.6719ZM24.9834 23.6719C23.5016 23.6719 22.284 22.3433 22.284 20.7088C22.284 19.0743 23.4638 17.734 24.9834 17.734C26.503 17.734 27.7064 19.0743 27.6804 20.7088C27.6545 22.3433 26.4912 23.6719 24.9834 23.6719Z" fill="white"/>
</svg>
