<svg width="24" height="24" viewBox="0 0 24 24" fill="none" xmlns="http://www.w3.org/2000/svg">
<path d="M18.2477 6.1306C17.0651 5.59482 15.8166 5.21471 14.5342 5C14.3587 5.31044 14.1999 5.62985 14.0585 5.95688C12.6924 5.75318 11.3033 5.75318 9.93721 5.95688C9.79572 5.62988 9.63693 5.31048 9.46151 5C8.17825 5.21653 6.92895 5.59753 5.74514 6.1334C3.39498 9.57424 2.75789 12.9296 3.07644 16.2374C4.45275 17.2436 5.99324 18.0089 7.63094 18.5C7.9997 18.0092 8.326 17.4885 8.60639 16.9435C8.07383 16.7466 7.55982 16.5038 7.0703 16.2178C7.19913 16.1253 7.32513 16.03 7.44689 15.9376C8.87128 16.6004 10.4259 16.9441 12 16.9441C13.574 16.9441 15.1287 16.6004 16.5531 15.9376C16.6762 16.037 16.8022 16.1323 16.9296 16.2178C16.4392 16.5043 15.9242 16.7476 15.3907 16.9449C15.6708 17.4896 15.9971 18.0099 16.3662 18.5C18.0053 18.0109 19.5469 17.246 20.9235 16.2388C21.2973 12.4028 20.285 9.07829 18.2477 6.1306ZM9.00989 14.2031C8.1222 14.2031 7.38884 13.406 7.38884 12.4253C7.38884 11.4446 8.09672 10.6404 9.00705 10.6404C9.91739 10.6404 10.6451 11.4446 10.6295 12.4253C10.6139 13.406 9.91456 14.2031 9.00989 14.2031ZM14.9901 14.2031C14.101 14.2031 13.3704 13.406 13.3704 12.4253C13.3704 11.4446 14.0783 10.6404 14.9901 10.6404C15.9018 10.6404 16.6238 11.4446 16.6083 12.4253C16.5927 13.406 15.8947 14.2031 14.9901 14.2031Z" fill="white"/>
</svg>
