<svg width="24" height="24" viewBox="0 0 24 24" fill="none" xmlns="http://www.w3.org/2000/svg">
<g opacity="0.6">
<path d="M21 6.27562C20.3378 6.57684 19.626 6.78034 18.8791 6.87189C19.6414 6.40325 20.2271 5.66117 20.5027 4.77687C19.7891 5.21089 18.9988 5.52596 18.1576 5.69577C17.4841 4.95978 16.5243 4.5 15.4621 4.5C13.4227 4.5 11.7691 6.19542 11.7691 8.28666C11.7691 8.58346 11.8018 8.87251 11.8648 9.14965C8.79562 8.99174 6.07456 7.48413 4.25313 5.19308C3.93525 5.75234 3.75309 6.40279 3.75309 7.0968C3.75309 8.4106 4.40505 9.56965 5.39595 10.2487C4.79061 10.229 4.22118 10.0587 3.7233 9.77508C3.72288 9.79086 3.72288 9.80673 3.72288 9.8227C3.72288 11.6574 4.99584 13.1878 6.68524 13.5359C6.37537 13.6225 6.04911 13.6687 5.71233 13.6687C5.47437 13.6687 5.24308 13.6449 5.01754 13.6008C5.48752 15.1052 6.85129 16.2 8.46733 16.2304C7.20346 17.2461 5.61118 17.8516 3.88092 17.8516C3.58284 17.8516 3.2889 17.8336 3 17.7986C4.63431 18.8731 6.57544 19.5 8.66092 19.5C15.4535 19.5 19.1681 13.7299 19.1681 8.72567C19.1681 8.56149 19.1645 8.39824 19.1574 8.23572C19.8788 7.70192 20.5048 7.03505 20.9999 6.27562H21Z" fill="white"/>
</g>
</svg>
