<svg width="40" height="40" viewBox="0 0 40 40" fill="none" xmlns="http://www.w3.org/2000/svg">
<path d="M30.413 10.2176C28.442 9.32461 26.3612 8.69111 24.2238 8.33325C23.9313 8.85066 23.6666 9.383 23.4309 9.92805C21.1542 9.58855 18.8389 9.58855 16.5621 9.92805C16.3263 9.38306 16.0617 8.85072 15.7693 8.33325C13.6305 8.69413 11.5484 9.32914 9.57536 10.2223C5.65843 15.957 4.59661 21.5493 5.12752 27.0622C7.42137 28.7393 9.98885 30.0148 12.7183 30.8332C13.333 30.0152 13.8768 29.1474 14.3441 28.239C13.4565 27.911 12.5998 27.5062 11.7839 27.0295C11.9987 26.8754 12.2087 26.7166 12.4116 26.5625C14.7856 27.6673 17.3767 28.2401 20.0001 28.2401C22.6235 28.2401 25.2146 27.6673 27.5885 26.5625C27.7938 26.7283 28.0038 26.8871 28.2162 27.0295C27.3988 27.507 26.5405 27.9125 25.6513 28.2414C26.1181 29.1493 26.6619 30.0164 27.2771 30.8332C30.0089 30.0181 32.5784 28.7432 34.8726 27.0645V27.0645C35.4956 20.6713 33.8084 15.1304 30.413 10.2176ZM15.0166 23.6718C13.5371 23.6718 12.3149 22.3432 12.3149 20.7087C12.3149 19.0742 13.4947 17.7339 15.0119 17.7339C16.5291 17.7339 17.7419 19.0742 17.716 20.7087C17.69 22.3432 16.5244 23.6718 15.0166 23.6718ZM24.9835 23.6718C23.5017 23.6718 22.2842 22.3432 22.2842 20.7087C22.2842 19.0742 23.464 17.7339 24.9835 17.7339C26.5031 17.7339 27.7065 19.0742 27.6806 20.7087C27.6546 22.3432 26.4913 23.6718 24.9835 23.6718Z" fill="white"/>
</svg>
