<svg width="24" height="24" viewBox="0 0 24 24" fill="none" xmlns="http://www.w3.org/2000/svg">
<path d="M18.2478 6.1306C17.0652 5.59482 15.8167 5.21471 14.5343 5C14.3588 5.31044 14.2 5.62985 14.0586 5.95688C12.6926 5.75318 11.3034 5.75318 9.93733 5.95688C9.79584 5.62988 9.63705 5.31048 9.46164 5C8.17837 5.21653 6.92907 5.59753 5.74527 6.1334C3.39511 9.57424 2.75801 12.9296 3.07656 16.2374C4.45287 17.2436 5.99336 18.0089 7.63106 18.5C7.99982 18.0092 8.32613 17.4885 8.60652 16.9435C8.07396 16.7466 7.55994 16.5038 7.07042 16.2178C7.19925 16.1253 7.32525 16.03 7.44701 15.9376C8.8714 16.6004 10.4261 16.9441 12.0001 16.9441C13.5741 16.9441 15.1288 16.6004 16.5532 15.9376C16.6763 16.037 16.8023 16.1323 16.9298 16.2178C16.4393 16.5043 15.9243 16.7476 15.3908 16.9449C15.6709 17.4896 15.9972 18.0099 16.3663 18.5C18.0054 18.0109 19.5471 17.246 20.9236 16.2388V16.2388C21.2974 12.4028 20.2851 9.07829 18.2478 6.1306ZM9.01001 14.2031C8.12233 14.2031 7.38896 13.406 7.38896 12.4253C7.38896 11.4446 8.09684 10.6404 9.00718 10.6404C9.91751 10.6404 10.6452 11.4446 10.6296 12.4253C10.6141 13.406 9.91468 14.2031 9.01001 14.2031ZM14.9902 14.2031C14.1011 14.2031 13.3705 13.406 13.3705 12.4253C13.3705 11.4446 14.0784 10.6404 14.9902 10.6404C15.9019 10.6404 16.624 11.4446 16.6084 12.4253C16.5928 13.406 15.8948 14.2031 14.9902 14.2031Z" fill="white"/>
</svg>
