<svg width="40" height="40" viewBox="0 0 40 40" fill="none" xmlns="http://www.w3.org/2000/svg">
<path d="M30.413 10.2178C28.442 9.32486 26.3612 8.69135 24.2238 8.3335C23.9313 8.8509 23.6666 9.38324 23.4309 9.92829C21.1542 9.58879 18.8389 9.58879 16.5621 9.92829C16.3263 9.3833 16.0617 8.85096 15.7693 8.3335C13.6305 8.69437 11.5484 9.32938 9.57536 10.2225C5.65843 15.9572 4.59661 21.5495 5.12752 27.0624C7.42137 28.7396 9.98885 30.0151 12.7183 30.8335C13.333 30.0155 13.8768 29.1477 14.3441 28.2393C13.4565 27.9112 12.5998 27.5065 11.7839 27.0298C11.9987 26.8756 12.2087 26.7169 12.4116 26.5628C14.7856 27.6675 17.3767 28.2404 20.0001 28.2404C22.6235 28.2404 25.2146 27.6675 27.5885 26.5628C27.7938 26.7285 28.0038 26.8873 28.2162 27.0298C27.3988 27.5073 26.5405 27.9128 25.6513 28.2416C26.1181 29.1496 26.6619 30.0166 27.2771 30.8335C30.0089 30.0183 32.5784 28.7435 34.8726 27.0648V27.0648C35.4956 20.6716 33.8084 15.1307 30.413 10.2178ZM15.0166 23.672C13.5371 23.672 12.3149 22.3434 12.3149 20.7089C12.3149 19.0744 13.4947 17.7342 15.0119 17.7342C16.5291 17.7342 17.7419 19.0744 17.716 20.7089C17.69 22.3434 16.5244 23.672 15.0166 23.672ZM24.9835 23.672C23.5017 23.672 22.2842 22.3434 22.2842 20.7089C22.2842 19.0744 23.464 17.7342 24.9835 17.7342C26.5031 17.7342 27.7065 19.0744 27.6806 20.7089C27.6546 22.3434 26.4913 23.672 24.9835 23.672Z" fill="white"/>
</svg>
