<svg width="40" height="40" viewBox="0 0 40 40" fill="none" xmlns="http://www.w3.org/2000/svg">
<path d="M30.413 10.2176C28.442 9.32467 26.3612 8.69117 24.2238 8.33331C23.9313 8.85072 23.6666 9.38306 23.4309 9.92811C21.1542 9.58861 18.8389 9.58861 16.5621 9.92811C16.3263 9.38312 16.0617 8.85078 15.7693 8.33331C13.6305 8.69419 11.5484 9.3292 9.57536 10.2223C5.65843 15.9571 4.59661 21.5494 5.12752 27.0623C7.42137 28.7394 9.98885 30.0149 12.7183 30.8333C13.3329 30.0153 13.8768 29.1475 14.3441 28.2391C13.4565 27.911 12.5998 27.5063 11.7839 27.0296C11.9987 26.8755 12.2087 26.7167 12.4116 26.5626C14.7856 27.6674 17.3767 28.2402 20.0001 28.2402C22.6235 28.2402 25.2146 27.6674 27.5885 26.5626C27.7938 26.7284 28.0038 26.8871 28.2162 27.0296C27.3988 27.5071 26.5405 27.9126 25.6513 28.2414C26.1181 29.1494 26.6619 30.0165 27.2771 30.8333C30.0089 30.0182 32.5784 28.7433 34.8726 27.0646C35.4956 20.6714 33.8084 15.1305 30.413 10.2176ZM15.0166 23.6719C13.5371 23.6719 12.3149 22.3432 12.3149 20.7088C12.3149 19.0743 13.4947 17.734 15.0119 17.734C16.5291 17.734 17.7419 19.0743 17.716 20.7088C17.69 22.3432 16.5244 23.6719 15.0166 23.6719ZM24.9835 23.6719C23.5017 23.6719 22.2842 22.3432 22.2842 20.7088C22.2842 19.0743 23.464 17.734 24.9835 17.734C26.5031 17.734 27.7065 19.0743 27.6806 20.7088C27.6546 22.3432 26.4913 23.6719 24.9835 23.6719Z" fill="white"/>
</svg>
