<svg width="40" height="40" viewBox="0 0 40 40" fill="none" xmlns="http://www.w3.org/2000/svg">
<path d="M34.9163 13.8098C34.8443 12.2134 34.5862 11.1212 34.2201 10.167C33.8361 9.18284 33.326 8.34267 32.4918 7.5145C31.6576 6.68634 30.8235 6.16423 29.8393 5.78616C28.8851 5.41408 27.7929 5.16203 26.1965 5.09002C24.5942 5.018 24.0841 5 20.0153 5C15.9405 5 15.4304 5.018 13.8341 5.09002C12.2378 5.16203 11.1455 5.42008 10.1913 5.78616C9.20115 6.17023 8.36098 6.68034 7.53281 7.5145C6.70465 8.34867 6.18254 9.18284 5.80447 10.167C5.43839 11.1212 5.18034 12.2134 5.10833 13.8098C5.03631 15.4121 5.01831 15.9222 5.01831 19.991C5.01831 24.0658 5.03631 24.5759 5.10833 26.1722C5.18034 27.7685 5.43839 28.8608 5.80447 29.815C6.18854 30.7992 6.69865 31.6393 7.53281 32.4675C8.36098 33.3017 9.20115 33.8178 10.1853 34.1958C11.1395 34.5679 12.2318 34.82 13.8281 34.892C15.4304 34.964 15.9405 34.982 20.0093 34.982C24.0841 34.982 24.5942 34.964 26.1905 34.892C27.7869 34.82 28.8791 34.5619 29.8333 34.1958C30.8175 33.8118 31.6576 33.3017 32.4858 32.4675C33.314 31.6333 33.8361 30.7992 34.2141 29.815C34.5862 28.8608 34.8383 27.7685 34.9103 26.1722C34.9823 24.5699 35.0003 24.0598 35.0003 19.991C35.0003 15.9222 34.9883 15.4061 34.9163 13.8098ZM32.2217 26.0522C32.1557 27.5165 31.9097 28.3147 31.7056 28.8368C31.4356 29.5329 31.1055 30.037 30.5774 30.5651C30.0493 31.0932 29.5512 31.4113 28.8491 31.6933C28.321 31.8974 27.5228 32.1434 26.0645 32.2094C24.4862 32.2814 24.0121 32.2995 20.0033 32.2995C15.9945 32.2995 15.5204 32.2814 13.9421 32.2094C12.4778 32.1434 11.6796 31.8974 11.1575 31.6933C10.4614 31.4233 9.9573 31.0932 9.42919 30.5651C8.90109 30.037 8.58302 29.5389 8.30097 28.8368C8.09693 28.3087 7.85088 27.5105 7.78486 26.0522C7.71285 24.4739 7.69485 23.9998 7.69485 19.991C7.69485 15.9822 7.71285 15.5081 7.78486 13.9298C7.85088 12.4655 8.09693 11.6673 8.30097 11.1452C8.57102 10.4491 8.90109 9.94499 9.42919 9.41688C9.9573 8.88878 10.4554 8.57071 11.1575 8.28866C11.6856 8.08462 12.4838 7.83857 13.9421 7.77255C15.5204 7.70054 15.9945 7.68254 20.0033 7.68254C24.0121 7.68254 24.4862 7.70054 26.0645 7.77255C27.5288 7.83857 28.327 8.08462 28.8491 8.28866C29.5452 8.55871 30.0493 8.88878 30.5774 9.41688C31.1055 9.94499 31.4236 10.4431 31.7056 11.1452C31.9097 11.6733 32.1557 12.4715 32.2217 13.9298C32.2938 15.5081 32.3118 15.9822 32.3118 19.991C32.3118 23.9998 32.2878 24.4739 32.2217 26.0522Z" fill="white"/>
<path d="M20.0023 12.2854C15.7414 12.2854 12.2968 15.7361 12.2968 19.9909C12.2968 24.2518 15.7474 27.6965 20.0023 27.6965C24.2572 27.6965 27.7078 24.2398 27.7078 19.9909C27.7078 15.7301 24.2632 12.2854 20.0023 12.2854ZM20.0023 24.9899C17.2417 24.9899 15.0033 22.7515 15.0033 19.9909C15.0033 17.2304 17.2417 14.9919 20.0023 14.9919C22.7629 14.9919 25.0013 17.2304 25.0013 19.9909C25.0013 22.7515 22.7629 24.9899 20.0023 24.9899Z" fill="white"/>
<path d="M28.0101 13.7858C29.0044 13.7858 29.8104 12.9797 29.8104 11.9854C29.8104 10.9911 29.0044 10.1851 28.0101 10.1851C27.0158 10.1851 26.2097 10.9911 26.2097 11.9854C26.2097 12.9797 27.0158 13.7858 28.0101 13.7858Z" fill="white"/>
<path d="M5 19.991C5 24.0658 5.018 24.5759 5.09002 26.1722C5.16203 27.7685 5.42008 28.8608 5.78616 29.815C6.17023 30.7992 6.68034 31.6393 7.5145 32.4675C8.34267 33.2957 9.18284 33.8178 10.167 34.1958C11.1212 34.5679 12.2134 34.82 13.8098 34.892C15.4121 34.964 15.9222 34.982 19.991 34.982C24.0658 34.982 24.5759 34.964 26.1722 34.892C27.7686 34.82 28.8608 34.5619 29.815 34.1958C30.7992 33.8118 31.6393 33.3017 32.4675 32.4675C33.2957 31.6393 33.8178 30.7992 34.1958 29.815C34.5679 28.8608 34.82 27.7685 34.892 26.1722C34.964 24.5699 34.982 24.0598 34.982 19.991C34.982 15.9162 34.964 15.4061 34.892 13.8098C34.82 12.2134 34.5619 11.1212 34.1958 10.167C33.8118 9.18284 33.3017 8.34267 32.4675 7.5145C31.6453 6.68034 30.8052 6.16423 29.821 5.78616C28.8668 5.41408 27.7746 5.16203 26.1782 5.09002C24.5759 5.018 24.0658 5 19.997 5C15.9222 5 15.4121 5.018 13.8158 5.09002C12.2194 5.16203 11.1272 5.42008 10.173 5.78616C9.18884 6.17023 8.34867 6.68034 7.5205 7.5145C6.69234 8.34867 6.17023 9.18284 5.79216 10.167C5.42008 11.1212 5.16203 12.2134 5.09002 13.8098C5.018 15.4061 5 15.9162 5 19.991ZM7.70654 19.991C7.70654 15.9882 7.72454 15.5081 7.79656 13.9298C7.86257 12.4655 8.10862 11.6673 8.31266 11.1452C8.58272 10.4491 8.91278 9.94499 9.44089 9.41688C9.96899 8.88878 10.4671 8.57071 11.1692 8.28866C11.6973 8.08462 12.4955 7.83857 13.9538 7.77255C15.5321 7.70054 16.0062 7.68254 20.015 7.68254C24.0238 7.68254 24.4979 7.70054 26.0762 7.77255C27.5405 7.83857 28.3387 8.08462 28.8608 8.28866C29.5569 8.55871 30.061 8.88878 30.5891 9.41688C31.1172 9.94499 31.4353 10.4431 31.7173 11.1452C31.9214 11.6733 32.1674 12.4715 32.2334 13.9298C32.3055 15.5081 32.3235 15.9822 32.3235 19.991C32.3235 23.9998 32.3055 24.4739 32.2334 26.0522C32.1674 27.5165 31.9214 28.3147 31.7173 28.8368C31.4473 29.5329 31.1172 30.037 30.5891 30.5651C30.061 31.0932 29.5629 31.4113 28.8608 31.6933C28.3327 31.8974 27.5345 32.1434 26.0762 32.2094C24.4979 32.2814 24.0238 32.2995 20.015 32.2995C16.0062 32.2995 15.5321 32.2814 13.9538 32.2094C12.4895 32.1434 11.6913 31.8974 11.1692 31.6933C10.4731 31.4233 9.96899 31.0932 9.44089 30.5651C8.91278 30.037 8.59472 29.5389 8.31266 28.8368C8.10862 28.3087 7.86257 27.5105 7.79656 26.0522C7.71854 24.4739 7.70654 23.9938 7.70654 19.991Z" fill="white"/>
</svg>
