<svg width="32" height="32" viewBox="0 0 32 32" fill="none" xmlns="http://www.w3.org/2000/svg">
<g opacity="0.6">
<path d="M28 8.36749C27.117 8.76912 26.168 9.04045 25.1721 9.16252C26.1886 8.53767 26.9694 7.54822 27.337 6.36915C26.3855 6.94786 25.3318 7.36795 24.2102 7.59436C23.3121 6.61304 22.0324 6 20.6161 6C17.8969 6 15.6922 8.26056 15.6922 11.0489C15.6922 11.4446 15.7357 11.83 15.8197 12.1995C11.7275 11.989 8.09941 9.97883 5.67084 6.92411C5.247 7.66979 5.00412 8.53705 5.00412 9.46239C5.00412 11.2141 5.8734 12.7595 7.1946 13.6649C6.38748 13.6387 5.62824 13.4116 4.9644 13.0334C4.96384 13.0545 4.96384 13.0756 4.96384 13.0969C4.96384 15.5432 6.66113 17.5837 8.91365 18.0479C8.50049 18.1633 8.06549 18.2249 7.61644 18.2249C7.29916 18.2249 6.99077 18.1932 6.69005 18.1344C7.31669 20.1402 9.13505 21.6 11.2898 21.6406C9.60461 22.9949 7.48157 23.8021 5.17456 23.8021C4.77712 23.8021 4.3852 23.7781 4 23.7314C6.17908 25.1641 8.76725 26 11.5479 26C20.6047 26 25.5574 18.3065 25.5574 11.6342C25.5574 11.4153 25.5526 11.1976 25.5432 10.981C26.5051 10.2692 27.3398 9.38007 27.9999 8.36749H28Z" fill="white"/>
</g>
</svg>
