<svg width="24" height="24" viewBox="0 0 24 24" fill="none" xmlns="http://www.w3.org/2000/svg">
<g opacity="0.6">
<path d="M12.0014 7.37122C9.44487 7.37122 7.37805 9.44163 7.37805 11.9945C7.37805 14.5511 9.44847 16.6179 12.0014 16.6179C14.5543 16.6179 16.6247 14.5439 16.6247 11.9945C16.6247 9.43803 14.5579 7.37122 12.0014 7.37122ZM12.0014 14.9939C10.345 14.9939 9.00198 13.6509 9.00198 11.9945C9.00198 10.3382 10.345 8.99514 12.0014 8.99514C13.6577 8.99514 15.0008 10.3382 15.0008 11.9945C15.0008 13.6509 13.6577 14.9939 12.0014 14.9939Z" fill="white"/>
<path d="M16.806 8.2714C17.4026 8.2714 17.8863 7.78777 17.8863 7.19118C17.8863 6.59459 17.4026 6.11096 16.806 6.11096C16.2095 6.11096 15.7258 6.59459 15.7258 7.19118C15.7258 7.78777 16.2095 8.2714 16.806 8.2714Z" fill="white"/>
<path d="M3 11.9946C3 14.4395 3.0108 14.7455 3.05401 15.7033C3.09722 16.6611 3.25205 17.3165 3.47169 17.889C3.70214 18.4795 4.0082 18.9836 4.5087 19.4805C5.0056 19.9774 5.5097 20.2907 6.10022 20.5175C6.67273 20.7407 7.32807 20.892 8.28586 20.9352C9.24725 20.9784 9.55331 20.9892 11.9946 20.9892C14.4395 20.9892 14.7456 20.9784 15.7033 20.9352C16.6611 20.892 17.3165 20.7371 17.889 20.5175C18.4795 20.2871 18.9836 19.981 19.4805 19.4805C19.9774 18.9836 20.2907 18.4795 20.5175 17.889C20.7408 17.3165 20.892 16.6611 20.9352 15.7033C20.9784 14.7419 20.9892 14.4359 20.9892 11.9946C20.9892 9.54971 20.9784 9.24365 20.9352 8.28586C20.892 7.32806 20.7372 6.67273 20.5175 6.10022C20.2871 5.5097 19.981 5.0056 19.4805 4.5087C18.9872 4.0082 18.4831 3.69854 17.8926 3.47169C17.3201 3.24845 16.6647 3.09722 15.7069 3.05401C14.7456 3.0108 14.4395 3 11.9982 3C9.55331 3 9.24725 3.0108 8.28946 3.05401C7.33167 3.09722 6.67634 3.25205 6.10382 3.47169C5.5133 3.70214 5.0092 4.0082 4.5123 4.5087C4.0154 5.0092 3.70214 5.5097 3.4753 6.10022C3.25205 6.67273 3.09722 7.32806 3.05401 8.28586C3.0108 9.24365 3 9.54971 3 11.9946ZM4.62392 11.9946C4.62392 9.59292 4.63473 9.30486 4.67794 8.35787C4.71754 7.47929 4.86517 7.0004 4.9876 6.68714C5.14963 6.26945 5.34767 5.96699 5.66453 5.65013C5.9814 5.33327 6.28026 5.14243 6.70154 4.97319C7.0184 4.85077 7.4973 4.70314 8.37228 4.66353C9.31926 4.62032 9.60372 4.60952 12.009 4.60952C14.4143 4.60952 14.6987 4.62032 15.6457 4.66353C16.5243 4.70314 17.0032 4.85077 17.3165 4.97319C17.7341 5.13523 18.0366 5.33327 18.3535 5.65013C18.6703 5.96699 18.8612 6.26585 19.0304 6.68714C19.1528 7.004 19.3005 7.4829 19.3401 8.35787C19.3833 9.30486 19.3941 9.58932 19.3941 11.9946C19.3941 14.3999 19.3833 14.6843 19.3401 15.6313C19.3005 16.5099 19.1528 16.9888 19.0304 17.3021C18.8684 17.7197 18.6703 18.0222 18.3535 18.3391C18.0366 18.6559 17.7378 18.8468 17.3165 19.016C16.9996 19.1384 16.5207 19.2861 15.6457 19.3257C14.6987 19.3689 14.4143 19.3797 12.009 19.3797C9.60372 19.3797 9.31926 19.3689 8.37228 19.3257C7.4937 19.2861 7.0148 19.1384 6.70154 19.016C6.28386 18.854 5.9814 18.6559 5.66453 18.3391C5.34767 18.0222 5.15683 17.7233 4.9876 17.3021C4.86517 16.9852 4.71754 16.5063 4.67794 15.6313C4.63113 14.6843 4.62392 14.3963 4.62392 11.9946Z" fill="white"/>
</g>
</svg>
