<svg fill="none" height="32" viewBox="0 0 32 32" width="32" xmlns="http://www.w3.org/2000/svg" xmlns:xlink="http://www.w3.org/1999/xlink"><linearGradient id="a" gradientUnits="userSpaceOnUse" x1="24.2957" x2="6.94579" y1="5.8341" y2="27.1039"><stop offset="0" stop-color="#ae3dae"/><stop offset=".0468721" stop-color="#b23ba6"/><stop offset=".1216" stop-color="#bd368e"/><stop offset=".2148" stop-color="#ce2e69"/><stop offset=".3216" stop-color="#e62335"/><stop offset=".418" stop-color="#ff1800"/></linearGradient><g opacity=".6"><path d="m27.933 11.0478c-.0576-1.27705-.264-2.15082-.5569-2.91417-.3072-.78736-.7153-1.4595-1.3827-2.12203-.6673-.66253-1.3346-1.08021-2.122-1.38267-.7633-.29766-1.6371-.4993-2.9142-.55692-1.2818-.05761-1.6899-.07201-4.945-.07201-3.2598 0-3.6679.0144-4.9449.07201-1.2771.05762-2.15087.26406-2.91423.55692-.79215.30726-1.46429.71534-2.12682 1.38267s-1.08022 1.33467-1.38268 2.12203c-.29285.76335-.4993 1.63712-.55691 2.91417-.05761 1.2819-.07201 1.6899-.07201 4.945 0 3.2598.0144 3.6679.07201 4.945.05761 1.277.26406 2.1508.55691 2.9142.30727.7873.71535 1.4595 1.38268 2.122.66253.6673 1.33467 1.0802 2.12202 1.3827.76336.2976 1.63713.4993 2.91423.5569 1.2818.0576 1.6899.072 4.9449.072 3.2599 0 3.668-.0144 4.945-.072 1.2771-.0576 2.1509-.2641 2.9142-.5569.7874-.3073 1.4595-.7154 2.122-1.3827.6626-.6673 1.0803-1.3347 1.3827-2.122.2977-.7634.4993-1.6372.5569-2.9142.0576-1.2819.072-1.69.072-4.945 0-3.2551-.0096-3.6679-.0672-4.945zm-2.1556 9.794c-.0528 1.1714-.2497 1.8099-.4129 2.2276-.216.5569-.4801.9602-.9026 1.3827s-.8209.6769-1.3826.9026c-.4225.1632-1.0611.36-2.2277.4128-1.2626.0577-1.6419.0721-4.849.0721-3.207 0-3.5863-.0144-4.8489-.0721-1.17146-.0528-1.80999-.2496-2.22767-.4128-.55691-.2161-.96019-.4801-1.38268-.9026-.42248-.4225-.67693-.821-.90258-1.3827-.16323-.4225-.36007-1.061-.41288-2.2276-.05761-1.2627-.07201-1.642-.07201-4.849s.0144-3.5863.07201-4.849c.05281-1.17141.24965-1.80993.41288-2.22762.21605-.55691.4801-.96019.90258-1.38267.42249-.42249.82097-.67694 1.38268-.90258.42248-.16324 1.06101-.36008 2.22767-.41289 1.2626-.05761 1.6419-.07201 4.8489-.07201 3.2071 0 3.5864.0144 4.849.07201 1.1714.05281 1.81.24965 2.2277.41289.5569.21604.9601.48009 1.3826.90258.4225.42248.677.82096.9026 1.38267.1632.42249.3601 1.06101.4129 2.22762.0576 1.2627.072 1.642.072 4.849s-.0192 3.5863-.072 4.849z" fill="url(#a)"/><g fill="#fff"><path d="m16.0018 9.82825c-3.4086 0-6.1644 2.76055-6.1644 6.16445 0 3.4087 2.7606 6.1644 6.1644 6.1644 3.4039 0 6.1645-2.7653 6.1645-6.1644 0-3.4087-2.7558-6.16445-6.1645-6.16445zm0 10.16365c-2.2084 0-3.9992-1.7908-3.9992-3.9992 0-2.2085 1.7908-3.9992 3.9992-3.9992 2.2085 0 3.9992 1.7907 3.9992 3.9992 0 2.2084-1.7907 3.9992-3.9992 3.9992z"/><path d="m22.4081 11.0285c.7954 0 1.4402-.6448 1.4402-1.44026 0-.79545-.6448-1.44029-1.4402-1.44029-.7955 0-1.4403.64484-1.4403 1.44029 0 .79546.6448 1.44026 1.4403 1.44026z"/><path d="m4 15.9928c0 3.2598.0144 3.6679.07201 4.945.05762 1.277.26406 2.1508.55692 2.9142.30726.7873.71534 1.4595 1.38267 2.122.66254.6625 1.33467 1.0802 2.12203 1.3827.76335.2976 1.63713.4993 2.91417.5569 1.2819.0576 1.6899.072 4.945.072 3.2599 0 3.6679-.0144 4.945-.072 1.277-.0576 2.1508-.2641 2.9142-.5569.7873-.3073 1.4595-.7154 2.122-1.3827.6625-.6625 1.0802-1.3347 1.3827-2.122.2976-.7634.4993-1.6372.5569-2.9142.0576-1.2819.072-1.69.072-4.945 0-3.2599-.0144-3.6679-.072-4.945-.0576-1.27705-.2641-2.15082-.5569-2.91417-.3073-.78736-.7154-1.4595-1.3827-2.12203-.6577-.66733-1.3299-1.08021-2.1172-1.38267-.7634-.29766-1.6372-.4993-2.9142-.55692-1.2819-.05761-1.6899-.07201-4.945-.07201-3.2599 0-3.6679.0144-4.945.07201-1.27704.05762-2.15082.26406-2.91417.55692-.78736.30726-1.45949.71534-2.12203 1.38267-.66253.66733-1.08021 1.33467-1.38267 2.12203-.29766.76335-.5041 1.63712-.56172 2.91417-.05761 1.2771-.07201 1.6851-.07201 4.945zm2.16523 0c0-3.2022.01441-3.5863.07202-4.849.05281-1.17141.24965-1.80993.41288-2.22762.21604-.55691.4801-.96019.90258-1.38267.42249-.42249.82097-.67694 1.38268-.90258.42248-.16324 1.06101-.36008 2.22761-.41289 1.2627-.05761 1.642-.07201 4.849-.07201s3.5863.0144 4.849.07201c1.1714.05281 1.8099.24965 2.2276.41289.5569.21604.9602.48009 1.3827.90258.4225.42248.6769.82096.9026 1.38267.1632.42249.36 1.06101.4129 2.22762.0576 1.2627.072 1.642.072 4.849s-.0144 3.5863-.072 4.849c-.0529 1.1714-.2497 1.8099-.4129 2.2276-.2161.5569-.4801.9602-.9026 1.3827s-.821.6769-1.3827.9026c-.4225.1632-1.061.36-2.2276.4128-1.2627.0577-1.642.0721-4.849.0721s-3.5863-.0144-4.849-.0721c-1.1714-.0528-1.80993-.2496-2.22761-.4128-.55691-.2161-.96019-.4801-1.38268-.9026-.42248-.4225-.67693-.821-.90258-1.3827-.16323-.4225-.36007-1.061-.41288-2.2276-.06241-1.2627-.07202-1.6468-.07202-4.849z"/></g></g></svg>