<svg width="111" height="74" viewBox="0 0 111 74" fill="none" xmlns="http://www.w3.org/2000/svg">
<path d="M60.4782 11.355L61.6284 0.000244141H14.2889L0.00610352 62.6455H49.496L48.4007 74.0003H95.7233L110.006 11.355H60.4782V11.355ZM18.9068 5.69432H55.2514L53.5218 22.7536H35.4309L36.0018 17.12H30.202L27.542 43.3703H38.7294L39.3256 37.6763H33.9212L34.8558 28.4497H52.9467L50.0584 56.9514H7.22047L18.9068 5.69432ZM91.1054 68.3062H54.746L55.5368 60.0979L59.8988 17.0512H102.792L98.9837 33.7516H79.4339L80.0048 28.118H74.2049L71.545 54.3683H82.7323L83.3286 48.6742H77.9221L78.8566 39.4477H97.6854L91.1054 68.3062Z" fill="white"/>
</svg>
