<svg width="66" height="44" viewBox="0 0 66 44" fill="none" xmlns="http://www.w3.org/2000/svg">
<path d="M36.2357 6.8357L36.9158 0.121582H8.92377L0.478271 37.164H29.7418L29.0942 43.8781H57.0763L65.5218 6.8357H36.2357V6.8357ZM11.6543 3.48851H33.145L32.1223 13.5757H21.4251L21.7627 10.2446H18.3332L16.7604 25.7665H23.3755L23.7281 22.3996H20.5324L21.085 16.9439H31.7823L30.0744 33.7971H4.74416L11.6543 3.48851ZM54.3457 40.5112H32.8462L33.3138 35.6576L35.8931 10.2039H61.2559L59.0041 20.0789H47.4443L47.7818 16.7477H44.3524L42.7795 32.2697H49.3947L49.7472 28.9027H46.5503L47.1029 23.447H58.2365L54.3457 40.5112Z" fill="white"/>
</svg>
