<svg width="110" height="74" viewBox="0 0 110 74" fill="none" xmlns="http://www.w3.org/2000/svg">
<path d="M60.4721 11.3548L61.6223 0H14.2828L0 62.6452H49.4899L48.3946 74H95.7172L110 11.3548H60.4721V11.3548ZM18.9007 5.69407H55.2453L53.5157 22.7533H35.4248L35.9957 17.1198H30.1959L27.5359 43.3701H38.7233L39.3195 37.676H33.9151L34.8497 28.4495H52.9406L50.0523 56.9512H7.21436L18.9007 5.69407ZM91.0993 68.3059H54.7399L55.5307 60.0976L59.8927 17.0509H102.786L98.9776 33.7513H79.4278L79.9987 28.1177H74.1988L71.5389 54.3681H82.7262L83.3225 48.674H77.916L78.8505 39.4475H97.6793L91.0993 68.3059Z" fill="white"/>
</svg>
