<svg width="79" height="37" viewBox="0 0 79 37" fill="none" xmlns="http://www.w3.org/2000/svg">
<path fill-rule="evenodd" clip-rule="evenodd" d="M4.63262 7.56651V9.99814H5.87044V12.8702C5.87044 12.9967 5.82668 13.1071 5.73915 13.2014C5.65163 13.2957 5.5441 13.3429 5.41782 13.3429H3.91868C3.79115 13.3429 3.68487 13.2957 3.59735 13.2014C3.50982 13.1059 3.46606 12.9967 3.46606 12.8702V3.96126C3.46606 3.83472 3.50982 3.7243 3.59735 3.63001C3.68487 3.53572 3.79115 3.48858 3.91868 3.48858H5.41782C5.5441 3.48858 5.65163 3.53572 5.73915 3.63001C5.82668 3.72554 5.87044 3.83596 5.87044 3.96126V5.10884H9.03626V3.66847C9.03626 1.59042 8.05226 0.550781 6.08425 0.550781H3.08472C1.1167 0.550781 0.13269 1.59042 0.13269 3.66847V13.1878C0.13269 15.2658 1.1167 16.3055 3.08472 16.3055H6.08425C8.05226 16.3055 9.03626 15.2658 9.03626 13.1878V7.56651H4.63262ZM18.987 13.1878V3.66848C18.987 1.59043 18.003 0.550787 16.035 0.550787H12.8692C10.9012 0.550787 9.91714 1.59043 9.91714 3.66848V13.1878C9.91714 15.2658 10.9012 16.3055 12.8692 16.3055H16.035C18.003 16.3055 18.987 15.2658 18.987 13.1878ZM15.6536 3.96127V12.8714C15.6536 12.9967 15.6099 13.1072 15.5223 13.2014C15.4348 13.2957 15.3273 13.3429 15.201 13.3429H13.7019C13.5743 13.3429 13.4681 13.2957 13.3805 13.2014C13.293 13.1059 13.2493 12.9967 13.2493 12.8702V3.96127C13.2493 3.83472 13.293 3.72431 13.3805 3.63002C13.4681 3.53573 13.5743 3.48859 13.7019 3.48859H15.201C15.3273 3.48859 15.4348 3.53573 15.5223 3.63002C15.6099 3.72555 15.6536 3.83596 15.6536 3.96127ZM28.9965 3.66848V13.1878C28.9965 15.2658 28.0125 16.3055 26.0445 16.3055H22.8786C20.9106 16.3055 19.9266 15.2658 19.9266 13.1878V3.66848C19.9266 1.59043 20.9106 0.550787 22.8786 0.550787H26.0445C28.0125 0.550787 28.9965 1.59043 28.9965 3.66848ZM25.6644 12.8714V3.96127C25.6644 3.83596 25.6206 3.72555 25.5331 3.63002C25.4455 3.53573 25.338 3.48859 25.2117 3.48859H23.7126C23.5851 3.48859 23.4788 3.53573 23.3913 3.63002C23.3037 3.72431 23.26 3.83472 23.26 3.96127V12.8702C23.26 12.9967 23.3037 13.1059 23.3913 13.2014C23.4788 13.2957 23.5851 13.3429 23.7126 13.3429H25.2117C25.338 13.3429 25.4455 13.2957 25.5331 13.2014C25.6206 13.1072 25.6644 12.9967 25.6644 12.8714ZM39.0064 3.90412C39.0064 1.82607 38.0224 0.786431 36.0544 0.786431H29.9365V16.0684H36.0544C38.0224 16.0684 39.0064 15.0288 39.0064 12.9508V3.90412ZM35.673 4.19815V12.6344C35.673 12.7609 35.6292 12.8714 35.5417 12.9656C35.4542 13.0599 35.3467 13.1071 35.2204 13.1071H33.2686V3.72547H35.2204C35.3467 3.72547 35.4542 3.77261 35.5417 3.8669C35.6292 3.96243 35.673 4.07285 35.673 4.19815ZM44.7491 9.99814V7.56651H49.1528V13.1878C49.1528 15.2658 48.1688 16.3055 46.2007 16.3055H43.2012C41.2332 16.3055 40.2492 15.2658 40.2492 13.1878V3.66847C40.2492 1.59042 41.2332 0.550781 43.2012 0.550781H46.2007C48.1688 0.550781 49.1528 1.59042 49.1528 3.66847V5.10884H45.9869V3.96126C45.9869 3.83596 45.9432 3.72554 45.8556 3.63001C45.7681 3.53572 45.6606 3.48858 45.5343 3.48858H44.0352C43.9076 3.48858 43.8014 3.53572 43.7138 3.63001C43.6263 3.7243 43.5826 3.83472 43.5826 3.96126V12.8702C43.5826 12.9967 43.6263 13.1059 43.7138 13.2014C43.8014 13.2957 43.9076 13.3429 44.0352 13.3429H45.5343C45.6606 13.3429 45.7681 13.2957 45.8556 13.2014C45.9432 13.1071 45.9869 12.9967 45.9869 12.8702V9.99814H44.7491ZM74.5965 7.56652V9.99815H75.8344V12.8702C75.8344 12.9967 75.7906 13.1072 75.7031 13.2014C75.6156 13.2957 75.508 13.3429 75.3818 13.3429H73.8826C73.7551 13.3429 73.6488 13.2957 73.5613 13.2014C73.4738 13.1059 73.43 12.9967 73.43 12.8702V3.96127C73.43 3.83472 73.4738 3.72431 73.5613 3.63002C73.6488 3.53573 73.7551 3.48859 73.8826 3.48859H75.3818C75.508 3.48859 75.6156 3.53573 75.7031 3.63002C75.7906 3.72555 75.8344 3.83596 75.8344 3.96127V5.10884H79.0002V3.66848C79.0002 1.59043 78.0162 0.550787 76.0482 0.550787H73.0486C71.0806 0.550787 70.0966 1.59043 70.0966 3.66848V13.1878C70.0966 15.2658 71.0806 16.3055 73.0486 16.3055H76.0482C78.0162 16.3055 79.0002 15.2658 79.0002 13.1878V7.56652H74.5965ZM56.1522 0.550787C58.1202 0.550787 59.1042 1.59043 59.1042 3.66848V16.0698H55.7709V10.9435H53.3665V16.0698H50.0331V3.66848C50.0331 1.59043 51.0171 0.550787 52.9851 0.550787H56.1522ZM53.3665 8.39278H55.7709V3.96126C55.7709 3.83596 55.7271 3.72555 55.6396 3.63002C55.552 3.53573 55.4445 3.48859 55.3182 3.48859H53.8191C53.6916 3.48859 53.5853 3.53573 53.4978 3.63002C53.4102 3.72431 53.3665 3.83472 53.3665 3.96126V8.39278ZM65.7042 16.0698H69.0363V3.66848C69.0363 1.59043 68.0523 0.550787 66.0843 0.550787H63.1323C61.1643 0.550787 60.1803 1.59043 60.1803 3.66848V16.0698H63.5136V4.21931C63.5136 4.09277 63.5574 3.98236 63.6449 3.88807C63.7324 3.79378 63.8387 3.74664 63.9662 3.74664H65.2516C65.3779 3.74664 65.4854 3.79378 65.5729 3.88807C65.6604 3.9836 65.7042 4.09401 65.7042 4.21931V16.0698ZM3.46606 33.6395H7.10826V36.7051H0.13269V21.4206H3.46606V33.6395ZM16.7985 24.3024C16.7985 22.2244 15.8145 21.1847 13.8465 21.1847H10.6794C8.71138 21.1847 7.72738 22.2244 7.72738 24.3024V36.7037H11.0607V31.5774H13.4651V36.7037H16.7985V24.3024ZM13.4651 29.0267H11.0607V24.5952C11.0607 24.4687 11.1045 24.3582 11.192 24.264C11.2795 24.1697 11.3858 24.1225 11.5134 24.1225H13.0125C13.1388 24.1225 13.2463 24.1697 13.3338 24.264C13.4214 24.3595 13.4651 24.4699 13.4651 24.5952V29.0267ZM25.2826 28.342C26.3141 28.7043 26.8305 29.5392 26.8305 30.8456V33.5862C26.8305 35.6642 25.8465 36.7038 23.8785 36.7038H17.7607V21.4206H23.6885C25.6565 21.4206 26.6405 22.4602 26.6405 24.5383V25.9315C26.6405 27.1932 26.1879 27.9959 25.2826 28.342ZM22.8545 24.3596H21.0928V27.7515H22.8545C22.982 27.7515 23.0883 27.7044 23.1758 27.6101C23.2633 27.5158 23.3071 27.4054 23.3071 27.2788V24.8323C23.3071 24.707 23.2633 24.5966 23.1758 24.5011C23.0883 24.4068 22.982 24.3596 22.8545 24.3596ZM23.4972 33.2698V30.5392C23.4972 30.4139 23.4534 30.3035 23.3659 30.2079C23.2783 30.1137 23.1708 30.0665 23.0445 30.0665H21.0928V33.7412H23.0445C23.1708 33.7412 23.2783 33.6941 23.3659 33.5998C23.4534 33.5055 23.4972 33.3951 23.4972 33.2698ZM32.9839 25.4364H36.1485V24.3024C36.1485 22.2244 35.1645 21.1847 33.1964 21.1847H30.5545C28.5865 21.1847 27.6025 22.2244 27.6025 24.3024V27.3494C27.6025 29.4274 28.5865 30.4671 30.5545 30.4671H32.6976C32.8238 30.4671 32.9314 30.5142 33.0189 30.6085C33.1064 30.704 33.1502 30.8145 33.1502 30.9398V33.6617C33.1502 33.7882 33.1064 33.8987 33.0189 33.9929C32.9314 34.0872 32.8251 34.1344 32.6976 34.1344H31.2222C31.0946 34.1344 30.9884 34.0872 30.9008 33.9929C30.8133 33.8974 30.7696 33.7882 30.7696 33.6617V32.2387H27.6037V33.8217C27.6037 35.8998 28.5877 36.9394 30.5558 36.9394H33.3652C35.3332 36.9394 36.3173 35.8998 36.3173 33.8217V30.539C36.3173 28.492 35.3332 27.4524 33.3652 27.4214H31.2222C31.0946 27.4214 30.9884 27.3742 30.9008 27.2799C30.8133 27.1844 30.7696 27.0752 30.7696 26.9487V24.5096C30.7696 24.3831 30.8133 24.2726 30.9008 24.1784C30.9884 24.0841 31.0946 24.0369 31.2222 24.0369H32.5313C32.6576 24.0369 32.7651 24.0841 32.8526 24.1784C32.9401 24.2739 32.9839 24.3843 32.9839 24.5096V25.4364Z" fill="white"/>
</svg>
