<svg width="83" height="39" viewBox="0 0 83 39" fill="none" xmlns="http://www.w3.org/2000/svg">
<path fill-rule="evenodd" clip-rule="evenodd" d="M5.16219 8.04679V10.5889H6.45778V13.5915C6.45778 13.7238 6.41197 13.8393 6.32037 13.9378C6.22876 14.0364 6.11621 14.0857 5.98404 14.0857H4.41494C4.28145 14.0857 4.17022 14.0364 4.07861 13.9378C3.987 13.838 3.9412 13.7238 3.9412 13.5915V4.27766C3.9412 4.14536 3.987 4.02993 4.07861 3.93135C4.17022 3.83278 4.28145 3.78349 4.41494 3.78349H5.98404C6.11621 3.78349 6.22876 3.83278 6.32037 3.93135C6.41197 4.03122 6.45778 4.14666 6.45778 4.27766V5.4774H9.77134V3.97156C9.77134 1.79906 8.74142 0.712158 6.68156 0.712158H3.54206C1.4822 0.712158 0.452271 1.79906 0.452271 3.97156V13.9236C0.452271 16.0961 1.4822 17.183 3.54206 17.183H6.68156C8.74142 17.183 9.77134 16.0961 9.77134 13.9236V8.04679H5.16219ZM20.1864 13.9236V3.97157C20.1864 1.79906 19.1565 0.712165 17.0967 0.712165H13.7831C11.7233 0.712165 10.6933 1.79906 10.6933 3.97157V13.9236C10.6933 16.0961 11.7233 17.183 13.7831 17.183H17.0967C19.1565 17.183 20.1864 16.0961 20.1864 13.9236ZM16.6975 4.27766V13.5928C16.6975 13.7238 16.6517 13.8393 16.5601 13.9378C16.4685 14.0364 16.356 14.0857 16.2238 14.0857H14.6547C14.5212 14.0857 14.41 14.0364 14.3184 13.9378C14.2268 13.838 14.181 13.7238 14.181 13.5915V4.27766C14.181 4.14537 14.2268 4.02993 14.3184 3.93136C14.41 3.83279 14.5212 3.7835 14.6547 3.7835H16.2238C16.356 3.7835 16.4685 3.83279 16.5601 3.93136C16.6517 4.03123 16.6975 4.14667 16.6975 4.27766ZM30.663 3.97157V13.9236C30.663 16.0961 29.6331 17.183 27.5733 17.183H24.2597C22.1998 17.183 21.1699 16.0961 21.1699 13.9236V3.97157C21.1699 1.79906 22.1998 0.712165 24.2597 0.712165H27.5733C29.6331 0.712165 30.663 1.79906 30.663 3.97157ZM27.1754 13.5928V4.27766C27.1754 4.14667 27.1296 4.03123 27.038 3.93136C26.9464 3.83279 26.8338 3.7835 26.7017 3.7835H25.1326C24.9991 3.7835 24.8879 3.83279 24.7962 3.93136C24.7046 4.02993 24.6588 4.14537 24.6588 4.27766V13.5915C24.6588 13.7238 24.7046 13.838 24.7962 13.9378C24.8879 14.0364 24.9991 14.0857 25.1326 14.0857H26.7017C26.8338 14.0857 26.9464 14.0364 27.038 13.9378C27.1296 13.8393 27.1754 13.7238 27.1754 13.5928ZM41.1401 4.21792C41.1401 2.04542 40.1101 0.958519 38.0503 0.958519H31.647V16.9352H38.0503C40.1101 16.9352 41.1401 15.8483 41.1401 13.6758V4.21792ZM37.6511 4.52532V13.345C37.6511 13.4773 37.6053 13.5928 37.5137 13.6913C37.4221 13.7899 37.3096 13.8392 37.1774 13.8392H35.1346V4.03115H37.1774C37.3096 4.03115 37.4221 4.08044 37.5137 4.17901C37.6053 4.27888 37.6511 4.39432 37.6511 4.52532ZM47.1508 10.5889V8.04679H51.7599V13.9236C51.7599 16.0961 50.73 17.183 48.6702 17.183H45.5307C43.4708 17.183 42.4409 16.0961 42.4409 13.9236V3.97156C42.4409 1.79906 43.4708 0.712158 45.5307 0.712158H48.6702C50.73 0.712158 51.7599 1.79906 51.7599 3.97156V5.4774H48.4464V4.27766C48.4464 4.14666 48.4006 4.03122 48.309 3.93135C48.2174 3.83278 48.1048 3.78349 47.9726 3.78349H46.4035C46.2701 3.78349 46.1588 3.83278 46.0672 3.93135C45.9756 4.02993 45.9298 4.14536 45.9298 4.27766V13.5915C45.9298 13.7238 45.9756 13.838 46.0672 13.9378C46.1588 14.0364 46.2701 14.0857 46.4035 14.0857H47.9726C48.1048 14.0857 48.2174 14.0364 48.309 13.9378C48.4006 13.8393 48.4464 13.7238 48.4464 13.5915V10.5889H47.1508ZM78.3911 8.04679V10.5889H79.6867V13.5915C79.6867 13.7238 79.6409 13.8393 79.5493 13.9378C79.4577 14.0364 79.3451 14.0857 79.213 14.0857H77.6439C77.5104 14.0857 77.3991 14.0364 77.3075 13.9378C77.2159 13.838 77.1701 13.7238 77.1701 13.5915V4.27766C77.1701 4.14537 77.2159 4.02993 77.3075 3.93136C77.3991 3.83279 77.5104 3.7835 77.6439 3.7835H79.213C79.3451 3.7835 79.4577 3.83279 79.5493 3.93136C79.6409 4.03123 79.6867 4.14667 79.6867 4.27766V5.4774H83.0003V3.97157C83.0003 1.79906 81.9703 0.712165 79.9105 0.712165H76.771C74.7111 0.712165 73.6812 1.79906 73.6812 3.97157V13.9236C73.6812 16.0961 74.7111 17.183 76.771 17.183H79.9105C81.9703 17.183 83.0003 16.0961 83.0003 13.9236V8.04679H78.3911ZM59.086 0.712165C61.1459 0.712165 62.1758 1.79906 62.1758 3.97157V16.9365H58.6869V11.5773H56.1703V16.9365H52.6814V3.97157C52.6814 1.79906 53.7113 0.712165 55.7712 0.712165H59.086ZM56.1703 8.91061H58.6869V4.27766C58.6869 4.14666 58.6411 4.03123 58.5495 3.93136C58.4579 3.83279 58.3453 3.7835 58.2132 3.7835H56.644C56.5106 3.7835 56.3993 3.83279 56.3077 3.93136C56.2161 4.02993 56.1703 4.14537 56.1703 4.27766V8.91061ZM69.0838 16.9365H72.5714V3.97157C72.5714 1.79906 71.5415 0.712165 69.4816 0.712165H66.3918C64.332 0.712165 63.3021 1.79906 63.3021 3.97157V16.9365H66.791V4.54744C66.791 4.41515 66.8368 4.29971 66.9284 4.20114C67.02 4.10257 67.1312 4.05328 67.2647 4.05328H68.61C68.7422 4.05328 68.8548 4.10257 68.9464 4.20114C69.038 4.30101 69.0838 4.41644 69.0838 4.54744V16.9365ZM3.9412 35.3049H7.75337V38.5098H0.452271V22.5306H3.9412V35.3049ZM17.8958 25.5434C17.8958 23.3709 16.8659 22.284 14.806 22.284H11.4912C9.43131 22.284 8.40138 23.3709 8.40138 25.5434V38.5084H11.8903V33.1491H14.4069V38.5084H17.8958V25.5434ZM14.4069 30.4825H11.8903V25.8495C11.8903 25.7172 11.9361 25.6018 12.0277 25.5032C12.1193 25.4046 12.2306 25.3554 12.364 25.3554H13.9331C14.0653 25.3554 14.1779 25.4046 14.2695 25.5032C14.3611 25.6031 14.4069 25.7185 14.4069 25.8495V30.4825ZM26.7759 29.7667C27.8555 30.1454 28.396 31.0183 28.396 32.384V35.2491C28.396 37.4216 27.3661 38.5085 25.3062 38.5085H18.9029V22.5306H25.1073C27.1672 22.5306 28.1971 23.6175 28.1971 25.79V27.2466C28.1971 28.5656 27.7233 29.4048 26.7759 29.7667ZM24.2344 25.6032H22.3905V29.1493H24.2344C24.3679 29.1493 24.4791 29.1 24.5708 29.0014C24.6624 28.9028 24.7082 28.7874 24.7082 28.6551V26.0974C24.7082 25.9664 24.6624 25.851 24.5708 25.7511C24.4791 25.6525 24.3679 25.6032 24.2344 25.6032ZM24.9071 34.9184V32.0637C24.9071 31.9327 24.8613 31.8172 24.7697 31.7174C24.6781 31.6188 24.5655 31.5695 24.4333 31.5695H22.3905V35.4113H24.4333C24.5655 35.4113 24.6781 35.362 24.7697 35.2634C24.8613 35.1648 24.9071 35.0494 24.9071 34.9184ZM34.8365 26.7289H38.1488V25.5434C38.1488 23.3709 37.1188 22.284 35.059 22.284H32.2938C30.2339 22.284 29.204 23.3709 29.204 25.5434V28.7289C29.204 30.9014 30.2339 31.9883 32.2938 31.9883H34.5368C34.669 31.9883 34.7816 32.0376 34.8732 32.1362C34.9648 32.236 35.0106 32.3515 35.0106 32.4825V35.3281C35.0106 35.4604 34.9648 35.5758 34.8732 35.6744C34.7816 35.773 34.6703 35.8223 34.5368 35.8223H32.9926C32.8591 35.8223 32.7479 35.773 32.6563 35.6744C32.5647 35.5745 32.5189 35.4604 32.5189 35.3281V33.8404H29.2053V35.4954C29.2053 37.6679 30.2352 38.7548 32.2951 38.7548H35.2357C37.2955 38.7548 38.3254 37.6679 38.3254 35.4954V32.0635C38.3254 29.9234 37.2955 28.8365 35.2357 28.8041H32.9926C32.8591 28.8041 32.7479 28.7548 32.6563 28.6563C32.5647 28.5564 32.5189 28.4422 32.5189 28.31V25.76C32.5189 25.6277 32.5647 25.5123 32.6563 25.4137C32.7479 25.3151 32.8591 25.2659 32.9926 25.2659H34.3628C34.495 25.2659 34.6075 25.3151 34.6991 25.4137C34.7907 25.5136 34.8365 25.629 34.8365 25.76V26.7289Z" fill="white"/>
</svg>
