<svg width="79" height="37" viewBox="0 0 79 37" fill="none" xmlns="http://www.w3.org/2000/svg">
<path fill-rule="evenodd" clip-rule="evenodd" d="M4.63262 7.56647V9.99809H5.87044V12.8701C5.87044 12.9967 5.82668 13.1071 5.73915 13.2014C5.65163 13.2957 5.5441 13.3428 5.41782 13.3428H3.91868C3.79115 13.3428 3.68487 13.2957 3.59735 13.2014C3.50982 13.1059 3.46606 12.9967 3.46606 12.8701V3.96121C3.46606 3.83467 3.50982 3.72425 3.59735 3.62997C3.68487 3.53568 3.79115 3.48853 3.91868 3.48853H5.41782C5.5441 3.48853 5.65163 3.53568 5.73915 3.62997C5.82668 3.72549 5.87044 3.83591 5.87044 3.96121V5.10879H9.03626V3.66843C9.03626 1.59038 8.05226 0.550735 6.08425 0.550735H3.08472C1.1167 0.550735 0.13269 1.59038 0.13269 3.66843V13.1877C0.13269 15.2658 1.1167 16.3054 3.08472 16.3054H6.08425C8.05226 16.3054 9.03626 15.2658 9.03626 13.1877V7.56647H4.63262ZM18.987 13.1877V3.66843C18.987 1.59039 18.003 0.550742 16.035 0.550742H12.8692C10.9012 0.550742 9.91714 1.59039 9.91714 3.66843V13.1877C9.91714 15.2658 10.9012 16.3054 12.8692 16.3054H16.035C18.003 16.3054 18.987 15.2658 18.987 13.1877ZM15.6536 3.96122V12.8714C15.6536 12.9967 15.6099 13.1071 15.5223 13.2014C15.4348 13.2957 15.3273 13.3428 15.201 13.3428H13.7019C13.5743 13.3428 13.4681 13.2957 13.3805 13.2014C13.293 13.1059 13.2493 12.9967 13.2493 12.8701V3.96122C13.2493 3.83468 13.293 3.72426 13.3805 3.62997C13.4681 3.53569 13.5743 3.48854 13.7019 3.48854H15.201C15.3273 3.48854 15.4348 3.53569 15.5223 3.62997C15.6099 3.7255 15.6536 3.83592 15.6536 3.96122ZM28.9965 3.66843V13.1877C28.9965 15.2658 28.0125 16.3054 26.0445 16.3054H22.8786C20.9106 16.3054 19.9266 15.2658 19.9266 13.1877V3.66843C19.9266 1.59039 20.9106 0.550742 22.8786 0.550742H26.0445C28.0125 0.550742 28.9965 1.59039 28.9965 3.66843ZM25.6644 12.8714V3.96122C25.6644 3.83592 25.6206 3.7255 25.5331 3.62997C25.4455 3.53569 25.338 3.48854 25.2117 3.48854H23.7126C23.5851 3.48854 23.4788 3.53569 23.3913 3.62997C23.3037 3.72426 23.26 3.83468 23.26 3.96122V12.8701C23.26 12.9967 23.3037 13.1059 23.3913 13.2014C23.4788 13.2957 23.5851 13.3428 23.7126 13.3428H25.2117C25.338 13.3428 25.4455 13.2957 25.5331 13.2014C25.6206 13.1071 25.6644 12.9967 25.6644 12.8714ZM39.0064 3.90408C39.0064 1.82603 38.0224 0.786385 36.0544 0.786385H29.9365V16.0684H36.0544C38.0224 16.0684 39.0064 15.0288 39.0064 12.9507V3.90408ZM35.673 4.1981V12.6344C35.673 12.7609 35.6292 12.8713 35.5417 12.9656C35.4542 13.0599 35.3467 13.107 35.2204 13.107H33.2686V3.72542H35.2204C35.3467 3.72542 35.4542 3.77257 35.5417 3.86686C35.6292 3.96238 35.673 4.0728 35.673 4.1981ZM44.7491 9.99809V7.56647H49.1528V13.1877C49.1528 15.2658 48.1688 16.3054 46.2007 16.3054H43.2012C41.2332 16.3054 40.2492 15.2658 40.2492 13.1877V3.66843C40.2492 1.59038 41.2332 0.550735 43.2012 0.550735H46.2007C48.1688 0.550735 49.1528 1.59038 49.1528 3.66843V5.10879H45.9869V3.96121C45.9869 3.83591 45.9432 3.72549 45.8556 3.62997C45.7681 3.53568 45.6606 3.48853 45.5343 3.48853H44.0352C43.9076 3.48853 43.8014 3.53568 43.7138 3.62997C43.6263 3.72425 43.5826 3.83467 43.5826 3.96121V12.8701C43.5826 12.9967 43.6263 13.1059 43.7138 13.2014C43.8014 13.2957 43.9076 13.3428 44.0352 13.3428H45.5343C45.6606 13.3428 45.7681 13.2957 45.8556 13.2014C45.9432 13.1071 45.9869 12.9967 45.9869 12.8701V9.99809H44.7491ZM74.5965 7.56648V9.9981H75.8344V12.8701C75.8344 12.9967 75.7906 13.1071 75.7031 13.2014C75.6156 13.2957 75.508 13.3428 75.3818 13.3428H73.8826C73.7551 13.3428 73.6488 13.2957 73.5613 13.2014C73.4738 13.1059 73.43 12.9967 73.43 12.8701V3.96122C73.43 3.83468 73.4738 3.72426 73.5613 3.62997C73.6488 3.53569 73.7551 3.48854 73.8826 3.48854H75.3818C75.508 3.48854 75.6156 3.53569 75.7031 3.62997C75.7906 3.7255 75.8344 3.83592 75.8344 3.96122V5.1088H79.0002V3.66843C79.0002 1.59039 78.0162 0.550742 76.0482 0.550742H73.0486C71.0806 0.550742 70.0966 1.59039 70.0966 3.66843V13.1877C70.0966 15.2658 71.0806 16.3054 73.0486 16.3054H76.0482C78.0162 16.3054 79.0002 15.2658 79.0002 13.1877V7.56648H74.5965ZM56.1522 0.550742C58.1202 0.550742 59.1042 1.59039 59.1042 3.66843V16.0697H55.7709V10.9435H53.3665V16.0697H50.0331V3.66843C50.0331 1.59039 51.0171 0.550742 52.9851 0.550742H56.1522ZM53.3665 8.39273H55.7709V3.96122C55.7709 3.83592 55.7271 3.7255 55.6396 3.62997C55.552 3.53568 55.4445 3.48854 55.3182 3.48854H53.8191C53.6916 3.48854 53.5853 3.53568 53.4978 3.62997C53.4102 3.72426 53.3665 3.83468 53.3665 3.96122V8.39273ZM65.7042 16.0697H69.0363V3.66843C69.0363 1.59039 68.0523 0.550742 66.0843 0.550742H63.1323C61.1643 0.550742 60.1803 1.59039 60.1803 3.66843V16.0697H63.5136V4.21927C63.5136 4.09273 63.5574 3.98231 63.6449 3.88802C63.7324 3.79373 63.8387 3.74659 63.9662 3.74659H65.2516C65.3779 3.74659 65.4854 3.79373 65.5729 3.88802C65.6604 3.98355 65.7042 4.09397 65.7042 4.21927V16.0697ZM3.46606 33.6395H7.10826V36.705H0.13269V21.4205H3.46606V33.6395ZM16.7985 24.3024C16.7985 22.2243 15.8145 21.1847 13.8465 21.1847H10.6794C8.71138 21.1847 7.72738 22.2243 7.72738 24.3024V36.7037H11.0607V31.5774H13.4651V36.7037H16.7985V24.3024ZM13.4651 29.0267H11.0607V24.5952C11.0607 24.4686 11.1045 24.3582 11.192 24.2639C11.2795 24.1696 11.3858 24.1225 11.5134 24.1225H13.0125C13.1388 24.1225 13.2463 24.1696 13.3338 24.2639C13.4214 24.3594 13.4651 24.4699 13.4651 24.5952V29.0267ZM25.2826 28.342C26.3141 28.7043 26.8305 29.5392 26.8305 30.8456V33.5861C26.8305 35.6642 25.8465 36.7038 23.8785 36.7038H17.7607V21.4205H23.6885C25.6565 21.4205 26.6405 22.4602 26.6405 24.5382V25.9315C26.6405 27.1932 26.1879 27.9959 25.2826 28.342ZM22.8545 24.3596H21.0928V27.7515H22.8545C22.982 27.7515 23.0883 27.7043 23.1758 27.61C23.2633 27.5157 23.3071 27.4053 23.3071 27.2788V24.8323C23.3071 24.707 23.2633 24.5965 23.1758 24.501C23.0883 24.4067 22.982 24.3596 22.8545 24.3596ZM23.4972 33.2698V30.5391C23.4972 30.4138 23.4534 30.3034 23.3659 30.2079C23.2783 30.1136 23.1708 30.0665 23.0445 30.0665H21.0928V33.7412H23.0445C23.1708 33.7412 23.2783 33.6941 23.3659 33.5998C23.4534 33.5055 23.4972 33.3951 23.4972 33.2698ZM32.9839 25.4363H36.1485V24.3024C36.1485 22.2243 35.1645 21.1847 33.1964 21.1847H30.5545C28.5865 21.1847 27.6025 22.2243 27.6025 24.3024V27.3494C27.6025 29.4274 28.5865 30.467 30.5545 30.467H32.6976C32.8238 30.467 32.9314 30.5142 33.0189 30.6085C33.1064 30.704 33.1502 30.8144 33.1502 30.9397V33.6616C33.1502 33.7882 33.1064 33.8986 33.0189 33.9929C32.9314 34.0872 32.8251 34.1343 32.6976 34.1343H31.2222C31.0946 34.1343 30.9884 34.0872 30.9008 33.9929C30.8133 33.8974 30.7696 33.7882 30.7696 33.6616V32.2387H27.6037V33.8217C27.6037 35.8997 28.5877 36.9394 30.5558 36.9394H33.3652C35.3333 36.9394 36.3173 35.8997 36.3173 33.8217V30.539C36.3173 28.492 35.3333 27.4523 33.3652 27.4213H31.2222C31.0946 27.4213 30.9884 27.3742 30.9008 27.2799C30.8133 27.1843 30.7696 27.0752 30.7696 26.9486V24.5096C30.7696 24.383 30.8133 24.2726 30.9008 24.1783C30.9884 24.084 31.0946 24.0369 31.2222 24.0369H32.5313C32.6576 24.0369 32.7651 24.084 32.8526 24.1783C32.9401 24.2738 32.9839 24.3843 32.9839 24.5096V25.4363Z" fill="#101010"/>
</svg>
