<svg width="64" height="30" viewBox="0 0 64 30" fill="none" xmlns="http://www.w3.org/2000/svg">
<path fill-rule="evenodd" clip-rule="evenodd" d="M4.50619 6.40516V8.33941H5.49645V10.624C5.49645 10.7246 5.46144 10.8125 5.39142 10.8875C5.3214 10.9625 5.23538 11 5.13436 11H3.93504C3.83302 11 3.74799 10.9625 3.67797 10.8875C3.60796 10.8115 3.57295 10.7246 3.57295 10.624V3.53734C3.57295 3.43668 3.60796 3.34885 3.67797 3.27385C3.74799 3.19885 3.83302 3.16135 3.93504 3.16135H5.13436C5.23538 3.16135 5.3214 3.19885 5.39142 3.27385C5.46144 3.34984 5.49645 3.43767 5.49645 3.53734V4.45019H8.02911V3.30444C8.02911 1.65145 7.24191 0.824463 5.6675 0.824463H3.26787C1.69346 0.824463 0.90625 1.65145 0.90625 3.30444V10.8766C0.90625 12.5296 1.69346 13.3566 3.26787 13.3566H5.6675C7.24191 13.3566 8.02911 12.5296 8.02911 10.8766V6.40516H4.50619ZM15.9897 10.8766V3.30445C15.9897 1.65146 15.2025 0.824468 13.6281 0.824468H11.0954C9.52102 0.824468 8.73381 1.65146 8.73381 3.30445V10.8766C8.73381 12.5296 9.52102 13.3566 11.0954 13.3566H13.6281C15.2025 13.3566 15.9897 12.5296 15.9897 10.8766ZM13.323 3.53735V10.625C13.323 10.7247 13.288 10.8125 13.218 10.8875C13.148 10.9625 13.0619 11 12.9609 11H11.7616C11.6596 11 11.5746 10.9625 11.5045 10.8875C11.4345 10.8115 11.3995 10.7247 11.3995 10.624V3.53735C11.3995 3.43669 11.4345 3.34886 11.5045 3.27386C11.5746 3.19885 11.6596 3.16135 11.7616 3.16135H12.9609C13.0619 3.16135 13.148 3.19885 13.218 3.27386C13.288 3.34984 13.323 3.43767 13.323 3.53735ZM23.9973 3.30445V10.8766C23.9973 12.5296 23.2101 13.3566 21.6357 13.3566H19.103C17.5286 13.3566 16.7414 12.5296 16.7414 10.8766V3.30445C16.7414 1.65146 17.5286 0.824468 19.103 0.824468H21.6357C23.2101 0.824468 23.9973 1.65146 23.9973 3.30445ZM21.3316 10.625V3.53735C21.3316 3.43767 21.2966 3.34984 21.2266 3.27386C21.1565 3.19885 21.0705 3.16135 20.9695 3.16135H19.7702C19.6681 3.16135 19.5831 3.19885 19.5131 3.27386C19.4431 3.34886 19.4081 3.43669 19.4081 3.53735V10.624C19.4081 10.7247 19.4431 10.8115 19.5131 10.8875C19.5831 10.9625 19.6681 11 19.7702 11H20.9695C21.0705 11 21.1565 10.9625 21.2266 10.8875C21.2966 10.8125 21.3316 10.7247 21.3316 10.625ZM32.0052 3.49189C32.0052 1.8389 31.218 1.01191 29.6436 1.01191H24.7493V13.1681H29.6436C31.218 13.1681 32.0052 12.3411 32.0052 10.6881V3.49189ZM29.3385 3.72578V10.4364C29.3385 10.5371 29.3035 10.6249 29.2335 10.6999C29.1635 10.7749 29.0774 10.8124 28.9764 10.8124H27.415V3.34978H28.9764C29.0774 3.34978 29.1635 3.38728 29.2335 3.46229C29.3035 3.53827 29.3385 3.6261 29.3385 3.72578ZM36.5994 8.33941V6.40516H40.1223V10.8766C40.1223 12.5296 39.3351 13.3566 37.7607 13.3566H35.3611C33.7867 13.3566 32.9995 12.5296 32.9995 10.8766V3.30444C32.9995 1.65145 33.7867 0.824463 35.3611 0.824463H37.7607C39.3351 0.824463 40.1223 1.65145 40.1223 3.30444V4.45019H37.5896V3.53734C37.5896 3.43767 37.5546 3.34984 37.4846 3.27385C37.4146 3.19885 37.3286 3.16135 37.2276 3.16135H36.0282C35.9262 3.16135 35.8412 3.19885 35.7712 3.27385C35.7012 3.34885 35.6661 3.43668 35.6661 3.53734V10.624C35.6661 10.7246 35.7012 10.8115 35.7712 10.8875C35.8412 10.9625 35.9262 11 36.0282 11H37.2276C37.3286 11 37.4146 10.9625 37.4846 10.8875C37.5546 10.8125 37.5896 10.7246 37.5896 10.624V8.33941H36.5994ZM60.4773 6.40516V8.33941H61.4676V10.624C61.4676 10.7247 61.4326 10.8125 61.3626 10.8875C61.2925 10.9625 61.2065 11 61.1055 11H59.9062C59.8042 11 59.7191 10.9625 59.6491 10.8875C59.5791 10.8115 59.5441 10.7247 59.5441 10.624V3.53735C59.5441 3.43669 59.5791 3.34886 59.6491 3.27386C59.7191 3.19885 59.8042 3.16135 59.9062 3.16135H61.1055C61.2065 3.16135 61.2925 3.19885 61.3626 3.27386C61.4326 3.34984 61.4676 3.43767 61.4676 3.53735V4.45019H64.0002V3.30445C64.0002 1.65146 63.213 0.824468 61.6386 0.824468H59.239C57.6646 0.824468 56.8774 1.65146 56.8774 3.30445V10.8766C56.8774 12.5296 57.6646 13.3566 59.239 13.3566H61.6386C63.213 13.3566 64.0002 12.5296 64.0002 10.8766V6.40516H60.4773ZM45.7219 0.824468C47.2963 0.824468 48.0835 1.65146 48.0835 3.30445V13.1691H45.4168V9.0914H43.4933V13.1691H40.8266V3.30445C40.8266 1.65146 41.6138 0.824468 43.1882 0.824468H45.7219ZM43.4933 7.06241H45.4168V3.53735C45.4168 3.43767 45.3818 3.34984 45.3118 3.27386C45.2417 3.19885 45.1557 3.16135 45.0547 3.16135H43.8554C43.7533 3.16135 43.6683 3.19885 43.5983 3.27386C43.5283 3.34886 43.4933 3.43669 43.4933 3.53735V7.06241ZM53.3634 13.1691H56.0291V3.30445C56.0291 1.65146 55.2419 0.824468 53.6675 0.824468H51.3059C49.7315 0.824468 48.9443 1.65146 48.9443 3.30445V13.1691H51.611V3.74261C51.611 3.64195 51.646 3.55412 51.716 3.47912C51.786 3.40412 51.8711 3.36662 51.9731 3.36662H53.0014C53.1024 3.36662 53.1884 3.40412 53.2584 3.47912C53.3284 3.55511 53.3634 3.64294 53.3634 3.74261V13.1691ZM3.57295 27.145H6.48671V29.5836H0.90625V17.4254H3.57295V27.145ZM14.2389 19.7178C14.2389 18.0648 13.4517 17.2378 11.8773 17.2378H9.34361C7.76921 17.2378 6.982 18.0648 6.982 19.7178V29.5825H9.64869V25.5048H11.5722V29.5825H14.2389V19.7178ZM11.5722 23.4758H9.64869V19.9507C9.64869 19.8501 9.6837 19.7622 9.75372 19.6872C9.82374 19.6122 9.90876 19.5747 10.0108 19.5747H11.2101C11.3111 19.5747 11.3971 19.6122 11.4672 19.6872C11.5372 19.7632 11.5722 19.851 11.5722 19.9507V23.4758ZM21.0262 22.9311C21.8514 23.2193 22.2645 23.8835 22.2645 24.9226V27.1026C22.2645 28.7556 21.4773 29.5826 19.9029 29.5826H15.0086V17.4254H19.7509C21.3253 17.4254 22.1125 18.2524 22.1125 19.9054V21.0137C22.1125 22.0173 21.7504 22.6558 21.0262 22.9311ZM19.0837 19.7633H17.6743V22.4614H19.0837C19.1857 22.4614 19.2707 22.4239 19.3408 22.3489C19.4108 22.2739 19.4458 22.1861 19.4458 22.0854V20.1393C19.4458 20.0396 19.4108 19.9518 19.3408 19.8758C19.2707 19.8008 19.1857 19.7633 19.0837 19.7633ZM19.5978 26.851V24.6789C19.5978 24.5792 19.5628 24.4914 19.4928 24.4154C19.4228 24.3404 19.3368 24.3029 19.2357 24.3029H17.6743V27.226H19.2357C19.3368 27.226 19.4228 27.1885 19.4928 27.1135C19.5628 27.0385 19.5978 26.9506 19.5978 26.851ZM27.1872 20.6198H29.7189V19.7178C29.7189 18.0648 28.9317 17.2378 27.3572 17.2378H25.2437C23.6693 17.2378 22.8821 18.0648 22.8821 19.7178V22.1415C22.8821 23.7945 23.6693 24.6215 25.2437 24.6215H26.9581C27.0592 24.6215 27.1452 24.659 27.2152 24.734C27.2852 24.81 27.3202 24.8978 27.3202 24.9975V27.1627C27.3202 27.2633 27.2852 27.3512 27.2152 27.4262C27.1452 27.5012 27.0602 27.5387 26.9581 27.5387H25.7778C25.6758 27.5387 25.5908 27.5012 25.5208 27.4262C25.4508 27.3502 25.4157 27.2633 25.4157 27.1627V26.0308H22.8831V27.29C22.8831 28.943 23.6703 29.77 25.2447 29.77H27.4923C29.0667 29.77 29.8539 28.943 29.8539 27.29V24.6788C29.8539 23.0504 29.0667 22.2235 27.4923 22.1988H25.7778C25.6758 22.1988 25.5908 22.1613 25.5208 22.0863C25.4508 22.0103 25.4157 21.9234 25.4157 21.8228V19.8826C25.4157 19.782 25.4508 19.6941 25.5208 19.6191C25.5908 19.5441 25.6758 19.5066 25.7778 19.5066H26.8251C26.9261 19.5066 27.0122 19.5441 27.0822 19.6191C27.1522 19.6951 27.1872 19.7829 27.1872 19.8826V20.6198Z" fill="#101010"/>
</svg>
