<svg width="56" height="27" viewBox="0 0 56 27" fill="none" xmlns="http://www.w3.org/2000/svg">
<path fill-rule="evenodd" clip-rule="evenodd" d="M3.44707 5.44461V7.1578H4.3218V9.18129C4.3218 9.27044 4.29087 9.34824 4.22902 9.41467C4.16717 9.4811 4.09119 9.51431 4.00195 9.51431H2.94255C2.85243 9.51431 2.77733 9.4811 2.71548 9.41467C2.65363 9.34736 2.6227 9.27044 2.6227 9.18129V2.90455C2.6227 2.81539 2.65363 2.7376 2.71548 2.67117C2.77733 2.60474 2.85243 2.57152 2.94255 2.57152H4.00195C4.09119 2.57152 4.16717 2.60474 4.22902 2.67117C4.29087 2.73847 4.3218 2.81626 4.3218 2.90455V3.71307H6.55898V2.69826C6.55898 1.23418 5.86362 0.501709 4.47289 0.501709H2.35322C0.962489 0.501709 0.26712 1.23418 0.26712 2.69826V9.40505C0.26712 10.8691 0.962489 11.6016 2.35322 11.6016H4.47289C5.86362 11.6016 6.55898 10.8691 6.55898 9.40505V5.44461H3.44707ZM13.5908 9.40506V2.69827C13.5908 1.23419 12.8955 0.501714 11.5047 0.501714H9.26756C7.87684 0.501714 7.18147 1.23419 7.18147 2.69827V9.40506C7.18147 10.8691 7.87684 11.6016 9.26756 11.6016H11.5047C12.8955 11.6016 13.5908 10.8691 13.5908 9.40506ZM11.2353 2.90455V9.18217C11.2353 9.27045 11.2043 9.34824 11.1425 9.41467C11.0806 9.4811 11.0046 9.51432 10.9154 9.51432H9.85602C9.76589 9.51432 9.69079 9.4811 9.62894 9.41467C9.56709 9.34737 9.53617 9.27045 9.53617 9.18129V2.90455C9.53617 2.81539 9.56709 2.7376 9.62894 2.67117C9.69079 2.60474 9.76589 2.57153 9.85602 2.57153H10.9154C11.0046 2.57153 11.0806 2.60474 11.1425 2.67117C11.2043 2.73848 11.2353 2.81627 11.2353 2.90455ZM20.6642 2.69827V9.40506C20.6642 10.8691 19.9688 11.6016 18.5781 11.6016H16.3409C14.9502 11.6016 14.2548 10.8691 14.2548 9.40506V2.69827C14.2548 1.23419 14.9502 0.501714 16.3409 0.501714H18.5781C19.9688 0.501714 20.6642 1.23419 20.6642 2.69827ZM18.3095 9.18217V2.90455C18.3095 2.81627 18.2786 2.73848 18.2167 2.67117C18.1549 2.60474 18.0789 2.57153 17.9896 2.57153H16.9303C16.8401 2.57153 16.765 2.60474 16.7032 2.67117C16.6413 2.7376 16.6104 2.81539 16.6104 2.90455V9.18129C16.6104 9.27045 16.6413 9.34737 16.7032 9.41467C16.765 9.4811 16.8401 9.51432 16.9303 9.51432H17.9896C18.0789 9.51432 18.1549 9.4811 18.2167 9.41467C18.2786 9.34824 18.3095 9.27045 18.3095 9.18217ZM27.7379 2.86429C27.7379 1.40021 27.0425 0.667735 25.6518 0.667735H21.3285V11.4346H25.6518C27.0425 11.4346 27.7379 10.7021 27.7379 9.23806V2.86429ZM25.3823 3.07145V9.01517C25.3823 9.10432 25.3513 9.18211 25.2895 9.24854C25.2276 9.31497 25.1517 9.34819 25.0624 9.34819H23.6832V2.73842H25.0624C25.1517 2.73842 25.2276 2.77164 25.2895 2.83807C25.3513 2.90537 25.3823 2.98316 25.3823 3.07145ZM31.7961 7.1578V5.44461H34.908V9.40505C34.908 10.8691 34.2126 11.6016 32.8219 11.6016H30.7022C29.3115 11.6016 28.6161 10.8691 28.6161 9.40505V2.69826C28.6161 1.23418 29.3115 0.501709 30.7022 0.501709H32.8219C34.2126 0.501709 34.908 1.23418 34.908 2.69826V3.71307H32.6708V2.90455C32.6708 2.81626 32.6399 2.73847 32.578 2.67117C32.5162 2.60474 32.4402 2.57152 32.3509 2.57152H31.2915C31.2014 2.57152 31.1263 2.60474 31.0645 2.67117C31.0026 2.7376 30.9717 2.81539 30.9717 2.90455V9.18129C30.9717 9.27044 31.0026 9.34736 31.0645 9.41467C31.1263 9.4811 31.2014 9.51431 31.2915 9.51431H32.3509C32.4402 9.51431 32.5162 9.4811 32.578 9.41467C32.6399 9.34824 32.6708 9.27044 32.6708 9.18129V7.1578H31.7961ZM52.8882 5.44462V7.15781H53.763V9.18129C53.763 9.27045 53.732 9.34824 53.6702 9.41467C53.6083 9.4811 53.5324 9.51432 53.4431 9.51432H52.3837C52.2936 9.51432 52.2185 9.4811 52.1567 9.41467C52.0948 9.34737 52.0639 9.27045 52.0639 9.18129V2.90455C52.0639 2.81539 52.0948 2.7376 52.1567 2.67117C52.2185 2.60474 52.2936 2.57153 52.3837 2.57153H53.4431C53.5324 2.57153 53.6083 2.60474 53.6702 2.67117C53.732 2.73848 53.763 2.81627 53.763 2.90455V3.71307H56.0001V2.69827C56.0001 1.23419 55.3048 0.501714 53.9141 0.501714H51.7944C50.4037 0.501714 49.7083 1.23419 49.7083 2.69827V9.40506C49.7083 10.8691 50.4037 11.6016 51.7944 11.6016H53.9141C55.3048 11.6016 56.0001 10.8691 56.0001 9.40506V5.44462H52.8882ZM39.8542 0.501714C41.245 0.501714 41.9403 1.23419 41.9403 2.69827V11.4355H39.5848V7.82385H37.8857V11.4355H35.5301V2.69827C35.5301 1.23419 36.2255 0.501714 37.6162 0.501714H39.8542ZM37.8857 6.02675H39.5848V2.90455C39.5848 2.81627 39.5538 2.73847 39.492 2.67117C39.4301 2.60474 39.3542 2.57153 39.2649 2.57153H38.2055C38.1154 2.57153 38.0403 2.60474 37.9784 2.67117C37.9166 2.7376 37.8857 2.81539 37.8857 2.90455V6.02675ZM46.6043 11.4355H48.959V2.69827C48.959 1.23419 48.2636 0.501714 46.8729 0.501714H44.7868C43.3961 0.501714 42.7007 1.23419 42.7007 2.69827V11.4355H45.0563V3.08636C45.0563 2.9972 45.0872 2.91941 45.1491 2.85298C45.2109 2.78655 45.286 2.75333 45.3762 2.75333H46.2845C46.3737 2.75333 46.4497 2.78655 46.5115 2.85298C46.5734 2.92028 46.6043 2.99808 46.6043 3.08636V11.4355ZM2.6227 23.8142H5.19653V25.9741H0.26712V15.2054H2.6227V23.8142ZM12.0443 17.2358C12.0443 15.7717 11.3489 15.0393 9.95819 15.0393H7.72013C6.3294 15.0393 5.63403 15.7717 5.63403 17.2358V25.9731H7.98961V22.3614H9.6887V25.9731H12.0443V17.2358ZM9.6887 20.5643H7.98961V17.4421C7.98961 17.3529 8.02053 17.2752 8.08238 17.2087C8.14423 17.1423 8.21934 17.1091 8.30946 17.1091H9.36885C9.45809 17.1091 9.53408 17.1423 9.59593 17.2087C9.65778 17.276 9.6887 17.3538 9.6887 17.4421V20.5643ZM18.0397 20.0819C18.7687 20.3371 19.1336 20.9254 19.1336 21.8458V23.7766C19.1336 25.2407 18.4382 25.9732 17.0475 25.9732H12.7242V15.2054H16.9132C18.3039 15.2054 18.9993 15.9379 18.9993 17.402V18.3836C18.9993 19.2725 18.6794 19.838 18.0397 20.0819ZM16.3239 17.2761H15.0789V19.6659H16.3239C16.414 19.6659 16.4891 19.6326 16.5509 19.5662C16.6128 19.4998 16.6437 19.422 16.6437 19.3328V17.6091C16.6437 17.5209 16.6128 17.4431 16.5509 17.3758C16.4891 17.3093 16.414 17.2761 16.3239 17.2761ZM16.778 23.5537V21.6299C16.778 21.5416 16.7471 21.4638 16.6852 21.3965C16.6234 21.3301 16.5474 21.2969 16.4582 21.2969H15.0789V23.8859H16.4582C16.5474 23.8859 16.6234 23.8527 16.6852 23.7862C16.7471 23.7198 16.778 23.642 16.778 23.5537ZM23.482 18.0347H25.7183V17.2358C25.7183 15.7717 25.0229 15.0393 23.6322 15.0393H21.7652C20.3745 15.0393 19.6791 15.7717 19.6791 17.2358V19.3826C19.6791 20.8466 20.3745 21.5791 21.7652 21.5791H23.2796C23.3689 21.5791 23.4449 21.6123 23.5067 21.6787C23.5686 21.7461 23.5995 21.8238 23.5995 21.9121V23.8299C23.5995 23.919 23.5686 23.9968 23.5067 24.0632C23.4449 24.1297 23.3698 24.1629 23.2796 24.1629H22.237C22.1469 24.1629 22.0718 24.1297 22.01 24.0632C21.9481 23.9959 21.9172 23.919 21.9172 23.8299V22.8273H19.68V23.9426C19.68 25.4067 20.3754 26.1392 21.7661 26.1392H23.7515C25.1422 26.1392 25.8375 25.4067 25.8375 23.9426V21.6298C25.8375 20.1876 25.1422 19.4551 23.7515 19.4332H22.237C22.1469 19.4332 22.0718 19.4 22.01 19.3336C21.9481 19.2663 21.9172 19.1894 21.9172 19.1002V17.3818C21.9172 17.2926 21.9481 17.2148 22.01 17.1484C22.0718 17.082 22.1469 17.0488 22.237 17.0488H23.1621C23.2514 17.0488 23.3273 17.082 23.3892 17.1484C23.451 17.2157 23.482 17.2935 23.482 17.3818V18.0347Z" fill="white"/>
</svg>
