<svg width="79" height="37" viewBox="0 0 79 37" fill="none" xmlns="http://www.w3.org/2000/svg">
<path fill-rule="evenodd" clip-rule="evenodd" d="M4.63274 7.56645V9.99808H5.87056V12.8701C5.87056 12.9967 5.8268 13.1071 5.73928 13.2014C5.65175 13.2957 5.54422 13.3428 5.41794 13.3428H3.9188C3.79127 13.3428 3.68499 13.2957 3.59747 13.2014C3.50995 13.1058 3.46619 12.9967 3.46619 12.8701V3.9612C3.46619 3.83465 3.50995 3.72424 3.59747 3.62995C3.68499 3.53566 3.79127 3.48852 3.9188 3.48852H5.41794C5.54422 3.48852 5.65175 3.53566 5.73928 3.62995C5.8268 3.72548 5.87056 3.83589 5.87056 3.9612V5.10878H9.03638V3.66841C9.03638 1.59036 8.05238 0.55072 6.08437 0.55072H3.08484C1.11682 0.55072 0.132812 1.59036 0.132812 3.66841V13.1877C0.132812 15.2658 1.11682 16.3054 3.08484 16.3054H6.08437C8.05238 16.3054 9.03638 15.2658 9.03638 13.1877V7.56645H4.63274ZM18.9871 13.1877V3.66842C18.9871 1.59037 18.0031 0.550726 16.0351 0.550726H12.8693C10.9013 0.550726 9.91727 1.59037 9.91727 3.66842V13.1877C9.91727 15.2658 10.9013 16.3054 12.8693 16.3054H16.0351C18.0031 16.3054 18.9871 15.2658 18.9871 13.1877ZM15.6538 3.9612V12.8714C15.6538 12.9967 15.61 13.1071 15.5225 13.2014C15.4349 13.2957 15.3274 13.3428 15.2011 13.3428H13.702C13.5745 13.3428 13.4682 13.2957 13.3807 13.2014C13.2931 13.1059 13.2494 12.9967 13.2494 12.8701V3.9612C13.2494 3.83466 13.2931 3.72424 13.3807 3.62996C13.4682 3.53567 13.5745 3.48853 13.702 3.48853H15.2011C15.3274 3.48853 15.4349 3.53567 15.5225 3.62996C15.61 3.72549 15.6538 3.8359 15.6538 3.9612ZM28.9966 3.66842V13.1877C28.9966 15.2658 28.0126 16.3054 26.0446 16.3054H22.8788C20.9107 16.3054 19.9267 15.2658 19.9267 13.1877V3.66842C19.9267 1.59037 20.9107 0.550726 22.8788 0.550726H26.0446C28.0126 0.550726 28.9966 1.59037 28.9966 3.66842ZM25.6645 12.8714V3.9612C25.6645 3.8359 25.6207 3.72549 25.5332 3.62996C25.4457 3.53567 25.3381 3.48853 25.2119 3.48853H23.7127C23.5852 3.48853 23.4789 3.53567 23.3914 3.62996C23.3039 3.72424 23.2601 3.83466 23.2601 3.9612V12.8701C23.2601 12.9967 23.3039 13.1059 23.3914 13.2014C23.4789 13.2957 23.5852 13.3428 23.7127 13.3428H25.2119C25.3381 13.3428 25.4457 13.2957 25.5332 13.2014C25.6207 13.1071 25.6645 12.9967 25.6645 12.8714ZM39.0065 3.90406C39.0065 1.82601 38.0225 0.78637 36.0545 0.78637H29.9367V16.0684H36.0545C38.0225 16.0684 39.0065 15.0287 39.0065 12.9507V3.90406ZM35.6731 4.19809V12.6343C35.6731 12.7609 35.6294 12.8713 35.5419 12.9656C35.4543 13.0599 35.3468 13.107 35.2205 13.107H33.2688V3.72541H35.2205C35.3468 3.72541 35.4543 3.77255 35.5419 3.86684C35.6294 3.96237 35.6731 4.07278 35.6731 4.19809ZM44.7492 9.99808V7.56645H49.1529V13.1877C49.1529 15.2658 48.1689 16.3054 46.2009 16.3054H43.2013C41.2333 16.3054 40.2493 15.2658 40.2493 13.1877V3.66841C40.2493 1.59036 41.2333 0.55072 43.2013 0.55072H46.2009C48.1689 0.55072 49.1529 1.59036 49.1529 3.66841V5.10878H45.9871V3.9612C45.9871 3.83589 45.9433 3.72548 45.8558 3.62995C45.7682 3.53566 45.6607 3.48852 45.5344 3.48852H44.0353C43.9078 3.48852 43.8015 3.53566 43.714 3.62995C43.6264 3.72424 43.5827 3.83465 43.5827 3.9612V12.8701C43.5827 12.9967 43.6264 13.1058 43.714 13.2014C43.8015 13.2957 43.9078 13.3428 44.0353 13.3428H45.5344C45.6607 13.3428 45.7682 13.2957 45.8558 13.2014C45.9433 13.1071 45.9871 12.9967 45.9871 12.8701V9.99808H44.7492ZM74.5967 7.56646V9.99809H75.8345V12.8701C75.8345 12.9967 75.7907 13.1071 75.7032 13.2014C75.6157 13.2957 75.5082 13.3428 75.3819 13.3428H73.8827C73.7552 13.3428 73.6489 13.2957 73.5614 13.2014C73.4739 13.1059 73.4301 12.9967 73.4301 12.8701V3.9612C73.4301 3.83466 73.4739 3.72424 73.5614 3.62996C73.6489 3.53567 73.7552 3.48853 73.8827 3.48853H75.3819C75.5082 3.48853 75.6157 3.53567 75.7032 3.62996C75.7907 3.72549 75.8345 3.8359 75.8345 3.9612V5.10878H79.0003V3.66842C79.0003 1.59037 78.0163 0.550726 76.0483 0.550726H73.0488C71.0808 0.550726 70.0968 1.59037 70.0968 3.66842V13.1877C70.0968 15.2658 71.0808 16.3054 73.0488 16.3054H76.0483C78.0163 16.3054 79.0003 15.2658 79.0003 13.1877V7.56646H74.5967ZM56.1523 0.550726C58.1203 0.550726 59.1044 1.59037 59.1044 3.66842V16.0697H55.771V10.9434H53.3666V16.0697H50.0332V3.66842C50.0332 1.59037 51.0172 0.550726 52.9853 0.550726H56.1523ZM53.3666 8.39272H55.771V3.9612C55.771 3.8359 55.7272 3.72548 55.6397 3.62996C55.5522 3.53567 55.4446 3.48853 55.3184 3.48853H53.8192C53.6917 3.48853 53.5854 3.53567 53.4979 3.62996C53.4104 3.72424 53.3666 3.83466 53.3666 3.9612V8.39272ZM65.7043 16.0697H69.0364V3.66842C69.0364 1.59037 68.0524 0.550726 66.0844 0.550726H63.1324C61.1644 0.550726 60.1804 1.59037 60.1804 3.66842V16.0697H63.5137V4.21925C63.5137 4.09271 63.5575 3.98229 63.645 3.88801C63.7325 3.79372 63.8388 3.74658 63.9664 3.74658H65.2517C65.378 3.74658 65.4855 3.79372 65.573 3.88801C65.6606 3.98354 65.7043 4.09395 65.7043 4.21925V16.0697ZM3.46618 33.6394H7.10838V36.705H0.132812V21.4205H3.46618V33.6394ZM16.7986 24.3024C16.7986 22.2243 15.8146 21.1847 13.8466 21.1847H10.6795C8.7115 21.1847 7.7275 22.2243 7.7275 24.3024V36.7036H11.0609V31.5774H13.4652V36.7036H16.7986V24.3024ZM13.4652 29.0267H11.0609V24.5951C11.0609 24.4686 11.1046 24.3582 11.1921 24.2639C11.2797 24.1696 11.3859 24.1225 11.5135 24.1225H13.0126C13.1389 24.1225 13.2464 24.1696 13.334 24.2639C13.4215 24.3594 13.4652 24.4698 13.4652 24.5951V29.0267ZM25.2827 28.342C26.3143 28.7042 26.8306 29.5392 26.8306 30.8456V33.5861C26.8306 35.6641 25.8466 36.7038 23.8786 36.7038H17.7608V21.4205H23.6886C25.6566 21.4205 26.6406 22.4602 26.6406 24.5382V25.9314C26.6406 27.1932 26.188 27.9958 25.2827 28.342ZM22.8546 24.3596H21.0929V27.7514H22.8546C22.9821 27.7514 23.0884 27.7043 23.1759 27.61C23.2635 27.5157 23.3072 27.4053 23.3072 27.2788V24.8323C23.3072 24.7069 23.2635 24.5965 23.1759 24.501C23.0884 24.4067 22.9821 24.3596 22.8546 24.3596ZM23.4973 33.2697V30.5391C23.4973 30.4138 23.4535 30.3034 23.366 30.2079C23.2785 30.1136 23.1709 30.0664 23.0447 30.0664H21.0929V33.7412H23.0447C23.1709 33.7412 23.2785 33.694 23.366 33.5997C23.4535 33.5055 23.4973 33.395 23.4973 33.2697ZM32.984 25.4363H36.1486V24.3024C36.1486 22.2243 35.1646 21.1847 33.1966 21.1847H30.5546C28.5866 21.1847 27.6026 22.2243 27.6026 24.3024V27.3493C27.6026 29.4274 28.5866 30.467 30.5546 30.467H32.6977C32.824 30.467 32.9315 30.5142 33.019 30.6085C33.1065 30.704 33.1503 30.8144 33.1503 30.9397V33.6616C33.1503 33.7882 33.1065 33.8986 33.019 33.9929C32.9315 34.0872 32.8252 34.1343 32.6977 34.1343H31.2223C31.0948 34.1343 30.9885 34.0872 30.901 33.9929C30.8134 33.8974 30.7697 33.7882 30.7697 33.6616V32.2386H27.6039V33.8217C27.6039 35.8997 28.5879 36.9394 30.5559 36.9394H33.3654C35.3334 36.9394 36.3174 35.8997 36.3174 33.8217V30.539C36.3174 28.4919 35.3334 27.4523 33.3654 27.4213H31.2223C31.0948 27.4213 30.9885 27.3741 30.901 27.2799C30.8134 27.1843 30.7697 27.0752 30.7697 26.9486V24.5095C30.7697 24.383 30.8134 24.2726 30.901 24.1783C30.9885 24.084 31.0948 24.0369 31.2223 24.0369H32.5314C32.6577 24.0369 32.7652 24.084 32.8527 24.1783C32.9402 24.2738 32.984 24.3842 32.984 24.5095V25.4363Z" fill="#101010"/>
</svg>
