<svg width="64" height="30" viewBox="0 0 64 30" fill="none" xmlns="http://www.w3.org/2000/svg">
<path fill-rule="evenodd" clip-rule="evenodd" d="M4.50607 6.40514V8.33939H5.49633V10.624C5.49633 10.7246 5.46132 10.8125 5.3913 10.8875C5.32128 10.9625 5.23526 11 5.13423 11H3.93492C3.83289 11 3.74787 10.9625 3.67785 10.8875C3.60783 10.8115 3.57283 10.7246 3.57283 10.624V3.53732C3.57283 3.43666 3.60783 3.34883 3.67785 3.27383C3.74787 3.19883 3.83289 3.16133 3.93492 3.16133H5.13423C5.23526 3.16133 5.32128 3.19883 5.3913 3.27383C5.46132 3.34982 5.49633 3.43765 5.49633 3.53732V4.45017H8.02899V3.30442C8.02899 1.65143 7.24178 0.824444 5.66737 0.824444H3.26775C1.69334 0.824444 0.906128 1.65143 0.906128 3.30442V10.8766C0.906128 12.5296 1.69334 13.3566 3.26775 13.3566H5.66737C7.24178 13.3566 8.02899 12.5296 8.02899 10.8766V6.40514H4.50607ZM15.9896 10.8766V3.30443C15.9896 1.65144 15.2024 0.824449 13.628 0.824449H11.0953C9.5209 0.824449 8.73369 1.65144 8.73369 3.30443V10.8766C8.73369 12.5296 9.5209 13.3566 11.0953 13.3566H13.628C15.2024 13.3566 15.9896 12.5296 15.9896 10.8766ZM13.3229 3.53733V10.625C13.3229 10.7246 13.2879 10.8125 13.2179 10.8875C13.1478 10.9625 13.0618 11 12.9608 11H11.7615C11.6595 11 11.5744 10.9625 11.5044 10.8875C11.4344 10.8115 11.3994 10.7246 11.3994 10.624V3.53733C11.3994 3.43667 11.4344 3.34884 11.5044 3.27384C11.5744 3.19884 11.6595 3.16133 11.7615 3.16133H12.9608C13.0618 3.16133 13.1478 3.19884 13.2179 3.27384C13.2879 3.34983 13.3229 3.43766 13.3229 3.53733ZM23.9972 3.30443V10.8766C23.9972 12.5296 23.2099 13.3566 21.6355 13.3566H19.1029C17.5285 13.3566 16.7413 12.5296 16.7413 10.8766V3.30443C16.7413 1.65144 17.5285 0.824449 19.1029 0.824449H21.6355C23.2099 0.824449 23.9972 1.65144 23.9972 3.30443ZM21.3315 10.625V3.53733C21.3315 3.43766 21.2965 3.34983 21.2264 3.27384C21.1564 3.19884 21.0704 3.16133 20.9694 3.16133H19.7701C19.668 3.16133 19.583 3.19884 19.513 3.27384C19.443 3.34884 19.408 3.43667 19.408 3.53733V10.624C19.408 10.7246 19.443 10.8115 19.513 10.8875C19.583 10.9625 19.668 11 19.7701 11H20.9694C21.0704 11 21.1564 10.9625 21.2264 10.8875C21.2965 10.8125 21.3315 10.7246 21.3315 10.625ZM32.0051 3.49187C32.0051 1.83888 31.2179 1.01189 29.6435 1.01189H24.7492V13.168H29.6435C31.2179 13.168 32.0051 12.3411 32.0051 10.6881V3.49187ZM29.3384 3.72576V10.4364C29.3384 10.5371 29.3034 10.6249 29.2334 10.6999C29.1633 10.7749 29.0773 10.8124 28.9763 10.8124H27.4149V3.34976H28.9763C29.0773 3.34976 29.1633 3.38727 29.2334 3.46227C29.3034 3.53825 29.3384 3.62609 29.3384 3.72576ZM36.5993 8.33939V6.40514H40.1222V10.8766C40.1222 12.5296 39.335 13.3566 37.7606 13.3566H35.3609C33.7865 13.3566 32.9993 12.5296 32.9993 10.8766V3.30442C32.9993 1.65143 33.7865 0.824444 35.3609 0.824444H37.7606C39.335 0.824444 40.1222 1.65143 40.1222 3.30442V4.45017H37.5895V3.53732C37.5895 3.43765 37.5545 3.34982 37.4845 3.27383C37.4145 3.19883 37.3285 3.16133 37.2274 3.16133H36.0281C35.9261 3.16133 35.8411 3.19883 35.771 3.27383C35.701 3.34883 35.666 3.43666 35.666 3.53732V10.624C35.666 10.7246 35.701 10.8115 35.771 10.8875C35.8411 10.9625 35.9261 11 36.0281 11H37.2274C37.3285 11 37.4145 10.9625 37.4845 10.8875C37.5545 10.8125 37.5895 10.7246 37.5895 10.624V8.33939H36.5993ZM60.4772 6.40515V8.33939H61.4675V10.624C61.4675 10.7246 61.4325 10.8125 61.3624 10.8875C61.2924 10.9625 61.2064 11 61.1054 11H59.9061C59.804 11 59.719 10.9625 59.649 10.8875C59.579 10.8115 59.544 10.7246 59.544 10.624V3.53733C59.544 3.43667 59.579 3.34884 59.649 3.27384C59.719 3.19884 59.804 3.16133 59.9061 3.16133H61.1054C61.2064 3.16133 61.2924 3.19884 61.3624 3.27384C61.4325 3.34983 61.4675 3.43766 61.4675 3.53733V4.45017H64.0001V3.30443C64.0001 1.65144 63.2129 0.824449 61.6385 0.824449H59.2389C57.6645 0.824449 56.8773 1.65144 56.8773 3.30443V10.8766C56.8773 12.5296 57.6645 13.3566 59.2389 13.3566H61.6385C63.2129 13.3566 64.0001 12.5296 64.0001 10.8766V6.40515H60.4772ZM45.7217 0.824449C47.2962 0.824449 48.0834 1.65144 48.0834 3.30443V13.1691H45.4167V9.09138H43.4932V13.1691H40.8265V3.30443C40.8265 1.65144 41.6137 0.824449 43.1881 0.824449H45.7217ZM43.4932 7.06239H45.4167V3.53733C45.4167 3.43766 45.3817 3.34982 45.3116 3.27384C45.2416 3.19884 45.1556 3.16133 45.0546 3.16133H43.8553C43.7532 3.16133 43.6682 3.19884 43.5982 3.27384C43.5282 3.34884 43.4932 3.43667 43.4932 3.53733V7.06239ZM53.3633 13.1691H56.029V3.30443C56.029 1.65144 55.2418 0.824449 53.6674 0.824449H51.3058C49.7314 0.824449 48.9442 1.65144 48.9442 3.30443V13.1691H51.6109V3.7426C51.6109 3.64194 51.6459 3.55411 51.7159 3.4791C51.7859 3.4041 51.8709 3.3666 51.973 3.3666H53.0012C53.1023 3.3666 53.1883 3.4041 53.2583 3.4791C53.3283 3.55509 53.3633 3.64292 53.3633 3.7426V13.1691ZM3.57283 27.145H6.48659V29.5836H0.906128V17.4254H3.57283V27.145ZM14.2388 19.7178C14.2388 18.0648 13.4516 17.2378 11.8772 17.2378H9.34349C7.76908 17.2378 6.98188 18.0648 6.98188 19.7178V29.5825H9.64857V25.5047H11.5721V29.5825H14.2388V19.7178ZM11.5721 23.4758H9.64857V19.9507C9.64857 19.85 9.68358 19.7622 9.7536 19.6872C9.82362 19.6122 9.90864 19.5747 10.0107 19.5747H11.21C11.311 19.5747 11.397 19.6122 11.467 19.6872C11.5371 19.7632 11.5721 19.851 11.5721 19.9507V23.4758ZM21.0261 22.9311C21.8513 23.2193 22.2644 23.8834 22.2644 24.9226V27.1026C22.2644 28.7556 21.4772 29.5826 19.9028 29.5826H15.0085V17.4254H19.7507C21.3251 17.4254 22.1124 18.2524 22.1124 19.9054V21.0137C22.1124 22.0173 21.7503 22.6558 21.0261 22.9311ZM19.0836 19.7633H17.6742V22.4614H19.0836C19.1856 22.4614 19.2706 22.4239 19.3406 22.3489C19.4107 22.2739 19.4457 22.186 19.4457 22.0854V20.1393C19.4457 20.0396 19.4107 19.9518 19.3406 19.8758C19.2706 19.8008 19.1856 19.7633 19.0836 19.7633ZM19.5977 26.8509V24.6789C19.5977 24.5792 19.5627 24.4914 19.4927 24.4154C19.4227 24.3404 19.3366 24.3029 19.2356 24.3029H17.6742V27.2259H19.2356C19.3366 27.2259 19.4227 27.1884 19.4927 27.1134C19.5627 27.0384 19.5977 26.9506 19.5977 26.8509ZM27.1871 20.6198H29.7187V19.7178C29.7187 18.0648 28.9315 17.2378 27.3571 17.2378H25.2436C23.6692 17.2378 22.882 18.0648 22.882 19.7178V22.1415C22.882 23.7945 23.6692 24.6215 25.2436 24.6215H26.958C27.059 24.6215 27.1451 24.659 27.2151 24.734C27.2851 24.81 27.3201 24.8978 27.3201 24.9975V27.1627C27.3201 27.2633 27.2851 27.3512 27.2151 27.4262C27.1451 27.5012 27.0601 27.5387 26.958 27.5387H25.7777C25.6757 27.5387 25.5907 27.5012 25.5206 27.4262C25.4506 27.3502 25.4156 27.2633 25.4156 27.1627V26.0307H22.883V27.29C22.883 28.943 23.6702 29.77 25.2446 29.77H27.4922C29.0666 29.77 29.8538 28.943 29.8538 27.29V24.6787C29.8538 23.0504 29.0666 22.2234 27.4922 22.1988H25.7777C25.6757 22.1988 25.5907 22.1613 25.5206 22.0863C25.4506 22.0103 25.4156 21.9234 25.4156 21.8228V19.8826C25.4156 19.7819 25.4506 19.6941 25.5206 19.6191C25.5907 19.5441 25.6757 19.5066 25.7777 19.5066H26.825C26.926 19.5066 27.012 19.5441 27.0821 19.6191C27.1521 19.6951 27.1871 19.7829 27.1871 19.8826V20.6198Z" fill="#101010"/>
</svg>
