<svg width="53" height="35" viewBox="0 0 53 35" fill="none" xmlns="http://www.w3.org/2000/svg">
<path d="M28.6074 5.3705L29.1516 0H6.75675L0 29.6295H23.4121L22.8939 35H45.2808L52.0375 5.3705H28.6074V5.3705ZM8.94132 2.69314H26.1348L25.3166 10.7617H16.7583L17.0284 8.09719H14.2847L13.0264 20.5129H18.3188L18.6008 17.8197H16.0442L16.4863 13.4558H25.0445L23.6781 26.9364H3.41289L8.94132 2.69314ZM43.0962 32.3069H25.8957L26.2698 28.4245L28.3334 8.06463H48.6246L46.8232 15.9635H37.5748L37.8448 13.2989H35.1011L33.8428 25.7146H39.1352L39.4172 23.0215H36.8596L37.3017 18.6576H46.209L43.0962 32.3069Z" fill="#101010"/>
</svg>
