<svg width="18" height="16" viewBox="0 0 18 16" fill="none" xmlns="http://www.w3.org/2000/svg">
<path d="M18 2.27562C17.3378 2.57684 16.626 2.78034 15.8791 2.87189C16.6414 2.40325 17.2271 1.66117 17.5027 0.776865C16.7891 1.21089 15.9988 1.52596 15.1576 1.69577C14.4841 0.959777 13.5243 0.5 12.4621 0.5C10.4227 0.5 8.76914 2.19542 8.76914 4.28666C8.76914 4.58346 8.80181 4.87251 8.86481 5.14965C5.79562 4.99174 3.07456 3.48413 1.25313 1.19308C0.935252 1.75234 0.753091 2.40279 0.753091 3.0968C0.753091 4.4106 1.40505 5.56965 2.39595 6.2487C1.79061 6.22904 1.22118 6.05868 0.7233 5.77508C0.722881 5.79086 0.722881 5.80673 0.722881 5.8227C0.722881 7.65738 1.99584 9.18779 3.68524 9.5359C3.37537 9.62246 3.04911 9.6687 2.71233 9.6687C2.47437 9.6687 2.24308 9.64489 2.01754 9.60078C2.48752 11.1052 3.85129 12.2 5.46733 12.2304C4.20346 13.2461 2.61118 13.8516 0.880922 13.8516C0.582841 13.8516 0.288901 13.8336 0 13.7986C1.63431 14.8731 3.57544 15.5 5.66092 15.5C12.4535 15.5 16.1681 9.72989 16.1681 4.72567C16.1681 4.56149 16.1645 4.39824 16.1574 4.23572C16.8788 3.70192 17.5048 3.03505 17.9999 2.27562H18Z" fill="white"/>
</svg>
