<svg width="18" height="18" viewBox="0 0 18 18" fill="none" xmlns="http://www.w3.org/2000/svg">
<path d="M0 8.9946C0 11.4395 0.0108022 11.7455 0.0540108 12.7033C0.0972195 13.6611 0.25205 14.3165 0.471694 14.889C0.702141 15.4795 1.0082 15.9836 1.5087 16.4805C2.0056 16.9774 2.5097 17.2907 3.10022 17.5175C3.67274 17.7407 4.32807 17.892 5.28586 17.9352C6.24725 17.9784 6.55331 17.9892 8.9946 17.9892C11.4395 17.9892 11.7456 17.9784 12.7033 17.9352C13.6611 17.892 14.3165 17.7371 14.889 17.5175C15.4795 17.2871 15.9836 16.981 16.4805 16.4805C16.9774 15.9836 17.2907 15.4795 17.5175 14.889C17.7408 14.3165 17.892 13.6611 17.9352 12.7033C17.9784 11.7419 17.9892 11.4359 17.9892 8.9946C17.9892 6.54971 17.9784 6.24365 17.9352 5.28586C17.892 4.32806 17.7372 3.67273 17.5175 3.10022C17.2871 2.5097 16.981 2.0056 16.4805 1.5087C15.9872 1.0082 15.4831 0.69854 14.8926 0.471694C14.3201 0.24845 13.6647 0.0972194 12.7069 0.0540108C11.7456 0.0108022 11.4395 0 8.9982 0C6.55331 0 6.24725 0.0108022 5.28946 0.0540108C4.33167 0.0972194 3.67634 0.25205 3.10382 0.471694C2.5133 0.70214 2.0092 1.0082 1.5123 1.5087C1.0154 2.0092 0.702141 2.5097 0.475295 3.10022C0.25205 3.67273 0.0972195 4.32806 0.0540108 5.28586C0.0108022 6.24365 0 6.54971 0 8.9946ZM1.62392 8.9946C1.62392 6.59292 1.63473 6.30486 1.67794 5.35787C1.71754 4.47929 1.86517 4.0004 1.9876 3.68714C2.14963 3.26945 2.34767 2.96699 2.66453 2.65013C2.9814 2.33327 3.28026 2.14243 3.70154 1.97319C4.0184 1.85077 4.4973 1.70314 5.37228 1.66353C6.31926 1.62032 6.60372 1.60952 9.009 1.60952C11.4143 1.60952 11.6987 1.62032 12.6457 1.66353C13.5243 1.70314 14.0032 1.85077 14.3165 1.97319C14.7341 2.13523 15.0366 2.33327 15.3535 2.65013C15.6703 2.96699 15.8612 3.26585 16.0304 3.68714C16.1528 4.004 16.3005 4.4829 16.3401 5.35787C16.3833 6.30486 16.3941 6.58932 16.3941 8.9946C16.3941 11.3999 16.3833 11.6843 16.3401 12.6313C16.3005 13.5099 16.1528 13.9888 16.0304 14.3021C15.8684 14.7197 15.6703 15.0222 15.3535 15.3391C15.0366 15.6559 14.7377 15.8468 14.3165 16.016C13.9996 16.1384 13.5207 16.2861 12.6457 16.3257C11.6987 16.3689 11.4143 16.3797 9.009 16.3797C6.60372 16.3797 6.31926 16.3689 5.37228 16.3257C4.4937 16.2861 4.0148 16.1384 3.70154 16.016C3.28386 15.854 2.9814 15.6559 2.66453 15.3391C2.34767 15.0222 2.15683 14.7233 1.9876 14.3021C1.86517 13.9852 1.71754 13.5063 1.67794 12.6313C1.63113 11.6843 1.62392 11.3963 1.62392 8.9946Z" fill="white"/>
</svg>
