<svg width="46" height="31" viewBox="0 0 46 31" fill="none" xmlns="http://www.w3.org/2000/svg">
<path d="M25.2699 4.75672L25.7505 0H5.96847L0 26.2433H20.6807L20.223 31H39.998L45.9665 4.75672H25.2699ZM7.89817 2.38535H23.0857L22.363 9.53181H14.8032L15.0418 7.1718H12.6182L11.5066 18.1686H16.1816L16.4307 15.7832H14.1723L14.5629 11.918H22.1226L20.9157 23.8579H3.01472L7.89817 2.38535ZM38.0683 28.6146H22.8746L23.205 25.176L25.0278 7.14295H42.9517L41.3605 14.1391H33.191L33.4296 11.7791H31.006L29.8945 22.7758H34.5694L34.8186 20.3905H32.5593L32.9498 16.5253H40.8179L38.0683 28.6146Z" fill="white"/>
</svg>
