<svg width="69" height="46" viewBox="0 0 69 46" fill="none" xmlns="http://www.w3.org/2000/svg">
<path d="M37.428 7.05837L38.14 0H8.84009L0 38.9416H30.6308L29.9529 46H59.2423L68.0824 7.05837H37.428V7.05837ZM11.6982 3.53956H34.193L33.1225 14.144H21.9255L22.2789 10.642H18.6892L17.0428 26.9598H23.967L24.3361 23.4202H20.9911L21.5695 17.6848H32.7666L30.9789 35.4021H4.46519L11.6982 3.53956ZM56.3842 42.4604H33.8802L34.3697 37.358L37.0695 10.5992H63.6172L61.2603 20.9805H49.1603L49.5136 17.4786H45.924L44.2776 33.7964H51.2018L51.5709 30.2568H48.2246L48.803 24.5214H60.4568L56.3842 42.4604Z" fill="white"/>
</svg>
