<svg width="24" height="20" viewBox="0 0 24 20" fill="none" xmlns="http://www.w3.org/2000/svg">
<path d="M24 2.36749C23.117 2.76913 22.168 3.04045 21.1721 3.16252C22.1886 2.53767 22.9694 1.54822 23.337 0.369154C22.3855 0.947859 21.3318 1.36795 20.2102 1.59436C19.3121 0.613037 18.0324 0 16.6161 0C13.8969 0 11.6922 2.26056 11.6922 5.04888C11.6922 5.44461 11.7357 5.83001 11.8197 6.19953C7.72749 5.98899 4.09941 3.97883 1.67084 0.924108C1.247 1.66979 1.00412 2.53705 1.00412 3.46239C1.00412 5.21414 1.8734 6.75953 3.1946 7.66493C2.38748 7.63872 1.62824 7.41157 0.964401 7.03344C0.963841 7.05448 0.963841 7.07564 0.963841 7.09693C0.963841 9.54317 2.66113 11.5837 4.91365 12.0479C4.50049 12.1633 4.06549 12.2249 3.61644 12.2249C3.29916 12.2249 2.99077 12.1932 2.69005 12.1344C3.31669 14.1402 5.13505 15.6 7.28977 15.6406C5.60461 16.9949 3.48157 17.8021 1.17456 17.8021C0.777121 17.8021 0.385201 17.7781 0 17.7314C2.17908 19.1641 4.76725 20 7.54789 20C16.6047 20 21.5574 12.3065 21.5574 5.63423C21.5574 5.41532 21.5526 5.19765 21.5432 4.98096C22.5051 4.26923 23.3398 3.38007 23.9999 2.36749H24Z" fill="white"/>
</svg>
