<svg width="66" height="44" viewBox="0 0 66 44" fill="none" xmlns="http://www.w3.org/2000/svg">
<path d="M35.7593 6.75148L36.4395 0H8.44594L0 37.2485H29.2651L28.6174 44H56.6009L65.0469 6.75148H35.7593V6.75148ZM11.1767 3.38567H32.6685L31.6457 13.529H20.9479L21.2855 10.1793H17.8559L16.283 25.7876H22.8984L23.251 22.402H20.0552L20.6079 16.9159H31.3056L29.5977 33.8629H4.26611L11.1767 3.38567ZM53.8702 40.6143H32.3697L32.8373 35.7337L35.4167 10.1384H60.7808L58.5289 20.0683H46.9684L47.306 16.7187H43.8764L42.3035 32.327H48.9189L49.2715 28.9413H46.0745L46.6271 23.4553H57.7612L53.8702 40.6143Z" fill="white"/>
</svg>
